<svg id="cards-icon" data-name="Layer 1" xmlns="http://www.w3.org/2000/svg" viewBox="0 0 92 60">
  <title>Cards Icon</title>
  <path class="cls-1" d="M21,10.91a4.75,4.75,0,0,0-4.73,4.77V55.23A4.76,4.76,0,0,0,21,60H87.26A4.76,4.76,0,0,0,92,55.23V15.68a4.76,4.76,0,0,0-4.74-4.77ZM12.85,5.45a4.76,4.76,0,0,0-4.73,4.78V49.77a4.76,4.76,0,0,0,4.73,4.78H14a4.84,4.84,0,0,1-.46-2.05V13a4.75,4.75,0,0,1,4.73-4.77H83.42a4.72,4.72,0,0,0-4.27-2.73ZM4.74,0A4.76,4.76,0,0,0,0,4.77V44.32a4.76,4.76,0,0,0,4.74,4.77H5.87a4.8,4.8,0,0,1-.46-2V7.5a4.75,4.75,0,0,1,4.74-4.77H75.3A4.71,4.71,0,0,0,71,0Z"/>
</svg>
