<svg version="1.1" id="dining-icon" xmlns="http://www.w3.org/2000/svg" xmlns:xlink="http://www.w3.org/1999/xlink" x="0px" y="0px" viewBox="0 0 79.1 85" style="enable-background:new 0 0 79.1 85;" xml:space="preserve">
    <path class="cls-1" d="M0.5,14.3L17.1,34l0,0L0.5,14.3c0.5-0.4,1.8-0.6,2.8,0.6l15.9,17.4l4.2-3.6L8.9,10.1C7.9,9,8.3,7.7,8.8,7.3L25.4,27l0,0
	L8.8,7.3c0.5-0.4,1.8-0.6,2.8,0.6l15.9,17.4l4.2-3.6L17.2,3.1c-1-1.1-0.6-2.4-0.1-2.8L33.7,20l0,0L17.1,0.3c0.5-0.4,1.8-0.6,2.8,0.6
	l15.9,17.4l0,0c3.7,4.3,4.2,10.3,1.8,15.1c-0.8,1.6-0.1,2.7,0.1,2.9l36.4,40.8c1.6,1.8,1.4,4.7-0.4,6.2L72.9,84
	c-1.9,1.6-4.7,1.3-6.2-0.6L32.6,40.9l0,0c0,0-0.9-1.3-2.9-0.6l0,0c-0.1,0-0.2,0-0.3,0.1l0,0c-5,1.4-10.6-0.1-14.1-4.3
	c0,0,0,0-0.1-0.1L0.7,17.4C-0.4,16,0,14.7,0.5,14.3z M11.9,76.8c-1.6,1.8-1.5,4.7,0.4,6.3l0.8,0.7c1.9,1.6,4.7,1.3,6.2-0.6l21.1-26
	l-5.1-6.4L11.9,76.8z M67.6,35.6c9.7-11.4,14.1-23.5,9.9-27.2l0,0c-2.4-1.9-7.4,2.6-9.1,4.6L51.8,32.4l-2.5,3h-0.1L46,38.9l7.4,8.3
	C58.2,44.4,63.6,40.2,67.6,35.6z"/>
</svg>
