<svg version="1.1" id="gas-icon" xmlns="http://www.w3.org/2000/svg" xmlns:xlink="http://www.w3.org/1999/xlink" x="0px" y="0px" viewBox="0 0 99.8 75.7" style="enable-background:new 0 0 99.8 75.7;" xml:space="preserve">
	<g>
		<path class="cls-1" d="M49.4,70.5c-2.9,0-5.2,2.3-5.2,5.2h55.6c0-2.9-2.3-5.2-5.2-5.2h-0.8V4c0-2.2-1.8-4-4-4H54.2c-2.2,0-4,1.8-4,4v23
			c-1.3-0.3-2.5-0.4-3.6-0.4c-2,0-3.8,0.4-5.3,1.3c-2.3,1.3-3.8,3.5-4.5,5.8c-0.8,2.3-1,4.8-1,7.4c0,6.1,1.2,13,1.2,17.8
			c0,2.1-0.3,3.8-0.7,4.5c-0.2,0.3-0.3,0.4-0.4,0.5C35.8,63.9,35.6,64,35,64c-0.9,0-1.1-0.2-1.6-0.6c-0.4-0.4-0.8-1-1.2-2
			c-0.7-1.7-1-4.4-1.3-7.3c-0.4-4.4-0.4-9.3-1.1-13.5c-0.4-2.1-0.9-4-2.1-5.7c-0.6-0.8-1.4-1.6-2.4-2.2c-1-0.6-2.2-0.8-3.3-0.8
			c-0.9,0-1.8,0.2-2.7,0.4c-1.3-1.3-3.2-2.1-5.3-2C7.6,30.8,5.9,38.9,0,40.1c-0.1,0,0.4,1.1,0.8,2.3l0,0c0,0,0,0,0,0c0,0,0,0,0,0h0
			c0.5,1.2,0.9,2.3,1,2.3c5.2-3.1,11.9,1.7,17-2.4c1.5-1.2,2.4-2.9,2.5-4.7c0.3-0.1,0.6-0.1,0.8-0.1c0.5,0,0.5,0.1,0.9,0.4
			c0.3,0.3,0.6,1,0.9,2c0.5,1.8,0.8,4.5,1,7.4c0.3,4.4,0.4,9.4,1.4,13.7c0.5,2.1,1.2,4.1,2.7,5.8c1.4,1.7,3.6,2.8,6,2.8
			c0,0,0.1,0,0.1,0c1.4,0,2.7-0.3,3.8-1c1.7-1.1,2.7-2.8,3.2-4.4c0.5-1.7,0.6-3.5,0.6-5.4c0-5.6-1.2-12.4-1.2-17.8
			c0-3,0.4-5.5,1.2-6.7c0.4-0.7,0.8-1.1,1.3-1.4c0.5-0.3,1.3-0.5,2.6-0.5c0.9,0,2.2,0.2,3.6,0.5v37.6L49.4,70.5L49.4,70.5z M56.1,7.1
			h31.8v24H56.1V7.1z M16.1,41.1c-2.2,0.9-4.7-0.2-5.6-2.4c-0.9-2.2,0.2-4.7,2.4-5.6c2.2-0.9,4.7,0.2,5.6,2.4
			C19.4,37.8,18.3,40.3,16.1,41.1z"/>
	</g>
</svg>
