<svg version="1.1" id="Layer_1" xmlns="http://www.w3.org/2000/svg" xmlns:xlink="http://www.w3.org/1999/xlink" x="0px" y="0px" viewBox="0 0 24.5 23" style="enable-background:new 0 0 24.5 23;" xml:space="preserve">
    <path class="st0" d="M17.6,3.3c2,0,3.6,1.6,3.6,3.6c0,1-0.4,1.9-1.1,2.6L20,9.6l-0.1,0.1L15,15l-2.8,3.1L9.4,15L4.2,9.3C3.6,8.6,3.3,7.8,3.3,6.9
    	c0-2,1.6-3.6,3.6-3.6C8,3.3,9,3.8,9.7,4.6l2.6,3.1l2.6-3.1C15.5,3.8,16.5,3.3,17.6,3.3 M17.6,0c-2.1,0-4.1,1-5.3,2.5
    	C11,1,9.1,0,6.9,0C3.1,0,0,3.1,0,6.9c0,1.8,0.7,3.4,1.7,4.6L7,17.2l5.3,5.8l5.3-5.8l4.9-5.3c1.3-1.3,2.1-3,2.1-5
    	C24.5,3.1,21.4,0,17.6,0L17.6,0z"/>
</svg>
