<svg id="link-icon" data-name="Layer 1" xmlns="http://www.w3.org/2000/svg" viewBox="0 0 76.56 76.55">
    <title>Link Icon</title>
    <path class="cls-1" d="M69.62,6.93C65,2.33,59.85,0,54.26,0,46.94,0,39.13,4.1,31,12.17S11.31,36.24,25.81,50.74a22.9,22.9,0,0,0,10.78,6.38c.28-.27.56-.52.84-.81a43.38,43.38,0,0,0,6.12-7.44,12.68,12.68,0,0,1-2.39.25c-3.29,0-6.33-1.45-9.31-4.42-4.56-4.56-9-12.26,5.24-26.47,6.42-6.41,12.19-9.67,17.17-9.67,3.29,0,6.33,1.45,9.31,4.42,4.34,4.34,8.54,11.54-3.36,24.49a23.21,23.21,0,0,1-.36,9.27,27.86,27.86,0,0,1-1.24,3.87,62,62,0,0,0,5.76-5.12C70.67,39.2,74.57,33,76,27.2,77.7,19.83,75.51,12.82,69.62,6.93Z"/>
    <path class="cls-2" d="M39.94,19.43l-.83.81a44.46,44.46,0,0,0-6.19,7.46,12.54,12.54,0,0,1,2.46-.26c3.29,0,6.33,1.45,9.31,4.42,3.84,3.84,5.13,7.73,4.06,12.25-1,4.28-4.15,9.06-9.31,14.22C33,64.74,27.25,68,22.28,68,19,68,16,66.55,13,63.57c-3.84-3.84-5.13-7.73-4.06-12.25C9.8,47.59,12.3,43.46,16.36,39a24.72,24.72,0,0,1,1.72-13.22A61.27,61.27,0,0,0,12.16,31C5.87,37.35,2,43.51.58,49.35-1.16,56.72,1,63.73,6.92,69.62c4.6,4.6,9.76,6.93,15.36,6.93,7.32,0,15.13-4.1,23.21-12.17,6.3-6.3,10.19-12.45,11.58-18.3,1.75-7.37-.44-14.38-6.34-20.27A22.89,22.89,0,0,0,39.94,19.43Z"/>
</svg>
