<svg id="miles-icon" data-name="Layer 1" xmlns="http://www.w3.org/2000/svg" viewBox="0 0 87.11 74.57">
  <title>Miles Icon</title>
  <g>
    <path class-"cls-1" d="M43.55,46.16c-4.3,0-7.7,2-7.7,4.4s3.5,9.5,7.7,9.5,7.7-7,7.7-9.5S47.75,46.16,43.55,46.16Z"/>
    <path class="cls-1" d="M82.45,1c-9.1-4.4-18.1,7.6-20.4,11-2,3-4.7,7.2-6.1,9.2a37.16,37.16,0,0,0-12.4-1.9h0a37.59,37.59,0,0,0-12.4,1.9c-1.4-2.1-4.1-6.2-6.1-9.2-2.3-3.4-11.3-15.4-20.4-11-9.9,4.8-1.1,21.4,0,25.1s2,11.2,5.4,14.7a19.42,19.42,0,0,0,3.1,2.6,18.35,18.35,0,0,0,.3,9.3c2,5.6,6.3,9.6,8.3,12.6s4.6,9.6,10.3,9.3,7.6-2.5,11.5-2.6h0c3.9,0,5.9,2.2,11.5,2.6s8.3-6.3,10.3-9.3,6.3-7,8.3-12.6a17.3,17.3,0,0,0,.3-9.3,19.42,19.42,0,0,0,3.1-2.6c3.4-3.6,4.3-11.1,5.4-14.8S92.35,5.76,82.45,1Zm-67.6,35.8c-.2.7-.5,1.5-.7,2.4l-.3-.3c-3-2.5-4.5-6.8-5.5-12.1-1.1-5.8-7.6-16.1-1.9-19.1s15.5,12,18.3,16.7A24.9,24.9,0,0,0,14.85,36.76Zm42.4,34.8c-3.8,1.7-9.8-1.9-13.8-2s-10,3.6-13.8,2c-2.5-1.1-4.7-4-4.7-8.1,0-5.2,3-9.9,6.8-12.9,1.8-1.4,8.5-9.7,3.4-16.2-1.8-2.3-5.3-3.1-5.5-6.9-.1-2.6,1.3-3.6,3.4-4.4s6.4-1.3,10.4-1.3,8.3.5,10.4,1.3,3.5,1.8,3.4,4.4c-.2,3.8-3.8,4.6-5.5,6.9-5.1,6.5,1.6,14.8,3.4,16.2,3.8,3,6.8,7.7,6.8,12.9C62,67.56,59.75,70.46,57.25,71.56Zm21.5-44.8c-1,5.2-2.5,9.6-5.5,12.1l-.3.3c-.3-.9-.5-1.7-.8-2.4a24.34,24.34,0,0,0-9.8-12.4c2.8-4.6,12.6-19.8,18.3-16.7S79.75,21,78.75,26.76Z"/>
  </g>
</svg>
