<svg version="1.1" id="play-icon" xmlns="http://www.w3.org/2000/svg" xmlns:xlink="http://www.w3.org/1999/xlink" x="0px" y="0px" viewBox="0 0 199.2 199.2" style="enable-background:new 0 0 199.2 199.2;" xml:space="preserve">
    <style type="text/css">
    	.st0 {
            stroke: #000000;
            stroke-width: 0.6567;
            stroke-miterlimit: 10;
        }
    </style>
    <path class="st0" d="M99.6,198.9c-54.7,0-99.3-44.5-99.3-99.3S44.9,0.3,99.6,0.3s99.3,44.5,99.3,99.3S154.4,198.9,99.6,198.9z
	 M99.6,17.1c-45.5,0-82.6,37-82.6,82.6s37,82.6,82.6,82.6s82.6-37,82.6-82.6S145.1,17.1,99.6,17.1z"/>
    <path class="st1" d="M125,98L90.3,68.6c-0.9-0.8-2.2-1-3.4-0.5c-1.1,0.5-1.8,1.6-1.8,2.9v58.8c0,1.2,0.7,2.3,1.8,2.9c0.4,0.2,0.9,0.3,1.3,0.3
	c0.7,0,1.5-0.3,2-0.7l34.7-29.4c0.7-0.6,1.1-1.5,1.1-2.4C126.1,99.5,125.7,98.6,125,98z"/>
</svg>
