<svg version="1.1" id="Layer_1" xmlns="http://www.w3.org/2000/svg" xmlns:xlink="http://www.w3.org/1999/xlink" x="0px" y="0px" viewBox="0 0 55.5 49.4" style="enable-background:new 0 0 55.5 49.4;" xml:space="preserve">
    <g>
    	<path class="cls-1" d="M48.1,24.3c0.9,0,1.7-0.6,1.9-1.5L55.4,5C55.7,4,55,2.9,53.9,2.6s-2.2,0.4-2.4,1.5L51,6.6H14.2l-1.1-5
    		c-0.2-0.9-1-1.6-2-1.6H2C0.9,0,0,0.9,0,2c0,1.1,0.9,2,2,2h7.6l5.1,23.9c0,0,0,0,0,0.1l-1.3,6.4c-0.1,0.5,0,1,0.3,1.4
    		c0.3,0.4,0.8,0.6,1.3,0.6h33.6c0.9,0,1.7-0.7,1.7-1.7S49.5,33,48.6,33H17l0.7-3.4L48.1,24.3z"/>
    	<path class="cls-1" d="M19,40c-2.6,0-4.7,2.1-4.7,4.7c0,2.6,2.1,4.7,4.7,4.7c2.6,0,4.7-2.1,4.7-4.7C23.7,42.1,21.6,40,19,40z"/>
    	<path class="cls-1" d="M43.9,40c-2.6,0-4.7,2.1-4.7,4.7c0,2.6,2.1,4.7,4.7,4.7c2.6,0,4.7-2.1,4.7-4.7C48.6,42.1,46.5,40,43.9,40z"/>
    </g>
</svg>
