<svg id="toc" data-name="Layer 1" xmlns="http://www.w3.org/2000/svg" viewBox="0 0 90 69.75">
  <title>toc</title>
  <path class="cls-1" d="M7.87,0a7.87,7.87,0,1,0,7.87,7.87A7.87,7.87,0,0,0,7.87,0Zm0,13.45a5.58,5.58,0,1,1,5.58-5.58A5.58,5.58,0,0,1,7.87,13.45Zm14.62-6.7V9H90V6.75Zm0,29.27H90V33.75H22.49ZM7.87,27a7.87,7.87,0,1,0,7.87,7.87A7.87,7.87,0,0,0,7.87,27Zm0,13.45a5.58,5.58,0,1,1,5.58-5.58A5.58,5.58,0,0,1,7.87,40.46ZM22.49,63H90V60.76H22.49ZM7.87,54a7.87,7.87,0,1,0,7.87,7.87A7.87,7.87,0,0,0,7.87,54Zm0,13.45a5.58,5.58,0,1,1,5.58-5.58A5.58,5.58,0,0,1,7.87,67.46Z"/>
</svg>
