<?xml version="1.0" standalone="no"?>
<!DOCTYPE svg PUBLIC "-//W3C//DTD SVG 1.1//EN" "http://www.w3.org/Graphics/SVG/1.1/DTD/svg11.dtd" >
<svg xmlns="http://www.w3.org/2000/svg">
<metadata>
Created by FontPrep 20130207 at Mon Jun 20 16:48:59 2016
 By Nick Villapiano
Copyright (c) 2011 by Grilli Type. All rights reserved.
</metadata>
<defs>
<font id="da30c6e928b2aaaaff2ef00b42acad02" horiz-adv-x='1024' >
  <font-face 
    font-family="GTWalsheim-Medium"
    font-weight="500"
    font-stretch="normal"
    units-per-em="2048"
    panose-1="2 0 5 3 2 0 0 2 0 3"
    ascent="1638"
    descent="-410"
    x-height="954"
    cap-height="1434"
    bbox="-307 -502 2486 2017"
    underline-thickness="102"
    underline-position="-102"
    unicode-range="U+000D-FB02"
  />
<missing-glyph horiz-adv-x="1482" 
d="M994 694q111 0 188 94q-37 84 -109 109q31 -29 31 -75t-30 -76t-75 -29q-45 -1 -75 29t-29 76q0 46 31 71q-81 -28 -109 -68q25 -69 95 -111q34 -20 82 -20zM741 168q161 0 240 104q37 45 51 105q-55 0 -100 18q22 35 22 63q0 49 -15 88q-15 40 -41 40t-26 -27
q0 -10 14 -23t13 -54q0 -42 -14 -68q-35 16 -66 30t-78 15q-47 -1 -79 -15t-64 -30q-14 26 -14 66t13 54t13 25q0 27 -26 27q-36 0 -52 -82q-4 -18 -4 -48q0 -29 19 -61q-45 -18 -96 -18q23 -115 137 -177q57 -32 153 -32zM588 822q0 -46 -30 -76t-75 -29q-45 -1 -75 29
t-29 77q0 47 27 70q-74 -25 -105 -105q70 -94 182 -94q81 0 142 66q25 29 39 65q-39 54 -117 78q41 -35 41 -81zM82 658q0 196 37 196q22 0 37 -24t22 -23q2 0 4 46q2 45 16 115t44 152q32 82 94 152t160 116t245 46t245 -46t160 -116t94 -152t45 -152t15 -115q2 -46 7 -46
q5 -1 20 23q15 23 31 24q25 0 34 -58t9 -96q0 -200 -41 -200q-29 0 -43 28q-65 -331 -281 -453q-133 -75 -295 -75q-249 0 -409 167q-125 131 -166 363q-15 -30 -35 -30q-21 0 -29 22q-20 54 -20 136z" />
    <glyph glyph-name=".notdef" horiz-adv-x="1482" 
d="M994 694q111 0 188 94q-37 84 -109 109q31 -29 31 -75t-30 -76t-75 -29q-45 -1 -75 29t-29 76q0 46 31 71q-81 -28 -109 -68q25 -69 95 -111q34 -20 82 -20zM741 168q161 0 240 104q37 45 51 105q-55 0 -100 18q22 35 22 63q0 49 -15 88q-15 40 -41 40t-26 -27
q0 -10 14 -23t13 -54q0 -42 -14 -68q-35 16 -66 30t-78 15q-47 -1 -79 -15t-64 -30q-14 26 -14 66t13 54t13 25q0 27 -26 27q-36 0 -52 -82q-4 -18 -4 -48q0 -29 19 -61q-45 -18 -96 -18q23 -115 137 -177q57 -32 153 -32zM588 822q0 -46 -30 -76t-75 -29q-45 -1 -75 29
t-29 77q0 47 27 70q-74 -25 -105 -105q70 -94 182 -94q81 0 142 66q25 29 39 65q-39 54 -117 78q41 -35 41 -81zM82 658q0 196 37 196q22 0 37 -24t22 -23q2 0 4 46q2 45 16 115t44 152q32 82 94 152t160 116t245 46t245 -46t160 -116t94 -152t45 -152t15 -115q2 -46 7 -46
q5 -1 20 23q15 23 31 24q25 0 34 -58t9 -96q0 -200 -41 -200q-29 0 -43 28q-65 -331 -281 -453q-133 -75 -295 -75q-249 0 -409 167q-125 131 -166 363q-15 -30 -35 -30q-21 0 -29 22q-20 54 -20 136z" />
    <glyph glyph-name=".null" horiz-adv-x="0" 
 />
    <glyph glyph-name=".null" horiz-adv-x="0" 
 />
    <glyph glyph-name="nonmarkingreturn" unicode="&#xd;" horiz-adv-x="512" 
 />
    <glyph glyph-name="space" unicode=" " horiz-adv-x="512" 
 />
    <glyph glyph-name="exclam" unicode="!" horiz-adv-x="632" 
d="M195 457v977h243v-977h-243zM192.5 261q49.5 50 123.5 50t123.5 -49.5t49.5 -122t-51 -123.5t-121.5 -51t-122 51.5t-51.5 123t49.5 121.5z" />
    <glyph glyph-name="quotedbl" unicode="&#x22;" horiz-adv-x="796" 
d="M463 1468h211v-204l-53 -310h-105l-53 310v204zM123 1468h211v-204l-53 -310h-105l-53 310v204z" />
    <glyph glyph-name="numbersign" unicode="#" horiz-adv-x="1124" 
d="M449 590h208l35 254h-209zM59 418v172h207l35 254h-180v172h205l57 418h182l-57 -418h209l57 418h182l-57 -418h168v-172h-193l-34 -254h166v-172h-191l-59 -418h-181l58 418h-209l-59 -418h-181l58 418h-183z" />
    <glyph glyph-name="dollar" unicode="$" horiz-adv-x="1314" 
d="M166 469h235q0 -141 78 -217t190 -76t179 60t67 157q0 133 -94.5 172t-162.5 63q-211 74 -327 163t-116 284q0 147 96.5 249.5t245.5 131.5v223h209v-221q154 -32 252 -152t98 -286h-235q0 106 -60.5 171.5t-151.5 65.5t-154.5 -45t-63.5 -137q0 -114 83.5 -155
t145.5 -64t266.5 -101t204.5 -335q0 -187 -106.5 -301t-278.5 -146v-219h-209v221q-166 28 -278.5 159.5t-112.5 334.5z" />
    <glyph glyph-name="percent" unicode="%" horiz-adv-x="1945" 
d="M1358 264q0 -53 33 -91t87 -38t86.5 38t32.5 91v260q0 53 -32.5 91t-86.5 38t-87 -37.5t-33 -91.5v-260zM1178 264v260q0 116 81 198.5t217 82.5t219 -83t83 -198v-260q0 -119 -84 -199.5t-218 -80.5t-216 80t-82 200zM420 -2l895 1542l178 -102l-895 -1542zM346 909
q0 -53 33 -91t87 -38t87 38t33 91v260q0 53 -33 91t-87 38t-87 -37.5t-33 -91.5v-260zM166 909v260q0 117 82 199t217 82t218 -83t83 -198v-260q0 -117 -83.5 -198.5t-217.5 -81.5t-216.5 80.5t-82.5 199.5z" />
    <glyph glyph-name="ampersand" unicode="&#x26;" horiz-adv-x="1226" 
d="M791 1010q0 237 -226 237q-90 0 -147.5 -45t-57.5 -141t53 -150.5t187 -54.5v-209q-152 0 -213 -68.5t-61 -165.5t69.5 -162t179.5 -65t187.5 79.5t77.5 211.5h-148v209h492v-209h-109q0 -230 -148.5 -366t-344.5 -136q-195 0 -343.5 125t-148.5 330q0 162 90 227.5
t139 92.5q-88 49 -141 117.5t-53 176.5q0 190 130.5 302t323.5 112t320 -125.5t127 -322.5h-235z" />
    <glyph glyph-name="quotesingle" unicode="'" horiz-adv-x="456" 
d="M123 1468h211v-204l-53 -310h-105l-53 310v204z" />
    <glyph glyph-name="parenleft" unicode="(" horiz-adv-x="798" 
d="M215 0v1124q0 207 139 354.5t363 147.5v-211q-119 0 -192.5 -84t-73.5 -207v-1124q0 -123 73.5 -207t192.5 -84v-211q-224 0 -363 147.5t-139 354.5z" />
    <glyph glyph-name="parenright" unicode=")" horiz-adv-x="798" 
d="M82 -291q119 0 192.5 85t73.5 206v1124q0 121 -73.5 206t-192.5 85v211q224 0 363 -147.5t139 -354.5v-1124q0 -207 -139 -354.5t-363 -147.5v211z" />
    <glyph glyph-name="asterisk" unicode="*" horiz-adv-x="946" 
d="M82 1133l45 135l279 -94l-3 294h144l-6 -294l278 94l45 -135l-282 -89l178 -235l-117 -84l-170 242l-170 -242l-117 84l179 235z" />
    <glyph glyph-name="plus" unicode="+" 
d="M180 483v199h301v315h224v-315h303v-199h-303v-313h-224v313h-301z" />
    <glyph glyph-name="comma" unicode="," horiz-adv-x="595" 
d="M287 -12q-76 0 -120 48t-44 117t48 116.5t124 47.5t127 -58.5t51 -152.5q0 -182 -87.5 -263t-254.5 -81v105q96 0 150 41q40 35 49 92q-12 -12 -43 -12z" />
    <glyph glyph-name="hyphen" unicode="-" horiz-adv-x="602" 
d="M61 483v199h480v-199h-480z" />
    <glyph glyph-name="period" unicode="." horiz-adv-x="575" 
d="M123 153q0 69 48 116.5t117 47.5t117 -48.5t48 -116.5t-48.5 -116t-116.5 -48t-116.5 48t-48.5 117z" />
    <glyph glyph-name="slash" unicode="/" horiz-adv-x="927" 
d="M-2 -53l745 1732l205 -88l-745 -1732z" />
    <glyph glyph-name="zero" unicode="0" 
d="M326 477q0 -123 73.5 -207t193.5 -84t194.5 86t74.5 205v479q0 119 -74.5 205t-194.5 86t-193.5 -84t-73.5 -207v-479zM90 477v479q0 207 139 354.5t363 147.5t365 -147t141 -355v-479q0 -206 -140.5 -354t-365 -148t-363.5 148.5t-139 353.5z" />
    <glyph glyph-name="one" unicode="1" horiz-adv-x="749" 
d="M61 1010v186q188 0 252 51t64 187h223v-1434h-244v1010h-295z" />
    <glyph glyph-name="two" unicode="2" horiz-adv-x="1079" 
d="M96 0q0 308 80 433.5t151 181t135 96.5t182 112.5t118 223.5q0 108 -59.5 154t-149.5 46t-155.5 -56t-65.5 -181h-236q0 209 136 328.5t329 119.5q192 0 314 -111.5t122 -318.5q0 -167 -110.5 -269t-175.5 -142.5t-121 -80.5q-131 -92 -177 -156.5t-46 -168.5h622v-211
h-893z" />
    <glyph glyph-name="three" unicode="3" horiz-adv-x="1165" 
d="M782 1110q0 137 -220 137q-108 0 -159 -65.5t-51 -171.5h-235q0 199 124.5 323.5t319.5 124.5t326 -111.5t131 -281.5q0 -123 -54.5 -201t-140.5 -114q98 -39 164 -119.5t66 -198.5q0 -209 -141 -333t-346 -124t-351.5 138t-146.5 366h235q0 -134 77.5 -213.5
t191.5 -79.5t179.5 66.5t65.5 157.5q0 237 -258 237h-96v209h98q127 0 174 58.5t47 195.5z" />
    <glyph glyph-name="four" unicode="4" horiz-adv-x="1144" 
d="M133 430v1004h236v-793h286v430h236v-430h196v-211h-196v-430h-236v430h-522z" />
    <glyph glyph-name="five" unicode="5" horiz-adv-x="1241" 
d="M156 610v824h870v-211h-659v-398q43 76 131 114t190 38q101 0 188 -40t175 -144t88 -313t-140.5 -357t-365 -148t-363.5 148.5t-139 353.5h236q0 -123 73.5 -207t193.5 -84t194.5 84.5t74.5 206.5t-75 206.5t-195 84.5q-163 0 -242 -158h-235z" />
    <glyph glyph-name="six" unicode="6" horiz-adv-x="1165" 
d="M311 478q0 -60 18.5 -112.5t53.5 -92.5t84.5 -63.5t110.5 -23.5t111 23.5t85 63.5t54.5 92.5t19.5 111.5t-19.5 111.5t-54.5 92.5t-85 63.5t-111 23.5t-110.5 -23.5t-84.5 -63.5t-53.5 -91.5t-18.5 -111.5zM578 979q224 0 364.5 -146.5t140.5 -354.5t-140 -355.5
t-364.5 -147.5t-363.5 147.5t-139 328.5t90 323l412 660h270l-301 -457q10 2 31 2z" />
    <glyph glyph-name="seven" unicode="7" horiz-adv-x="980" 
d="M78 1223v211h913l-610 -1434h-250l528 1223h-581z" />
    <glyph glyph-name="eight" unicode="8" horiz-adv-x="1206" 
d="M383 1039q0 -84 58.5 -146t160.5 -62q101 0 161 62t60 146.5t-60 146t-159 61.5q-153 0 -187 -83t-34 -125zM789 253.5q69 67.5 69 161.5t-69 161t-187 67t-186 -66t-68 -163t70 -162.5t186 -65.5t185 67.5zM113 394q0 131 53 228t156 132q-96 43 -135.5 127t-39.5 168
q0 175 125.5 292t333.5 117t330.5 -119t122.5 -288q0 -86 -39 -170t-135 -127q101 -33 155 -133.5t54 -196.5t-34 -175t-96.5 -140.5t-153.5 -97.5t-206 -36t-206 35t-154.5 95.5t-97 139.5t-33.5 149z" />
    <glyph glyph-name="nine" unicode="9" horiz-adv-x="1165" 
d="M317 956q0 -119 75 -204.5t195 -85.5t193.5 85t73.5 205.5t-73.5 205.5t-193.5 85t-195 -86t-75 -205zM221 1310.5q139 147.5 365 147.5t365 -147.5t139 -354.5q0 -147 -93 -297l-409 -659h-271l301 455q-240 0 -388 140.5t-148 353.5q0 214 139 361.5z" />
    <glyph glyph-name="colon" unicode=":" horiz-adv-x="575" 
d="M123 826q0 69 48 117t117 48t117 -48t48 -117t-48.5 -116.5t-116.5 -47.5t-116.5 47.5t-48.5 116.5zM123 153q0 69 48 116.5t117 47.5t117 -48.5t48 -116.5t-48.5 -116t-116.5 -48t-116.5 48t-48.5 117z" />
    <glyph glyph-name="semicolon" unicode=";" horiz-adv-x="595" 
d="M123 826q0 69 48 117t117 48t117 -48t48 -117t-48.5 -116.5t-116.5 -47.5t-116.5 47.5t-48.5 116.5zM287 -12q-76 0 -120 48t-44 117t48 116.5t124 47.5t127 -58.5t51 -152.5q0 -182 -87.5 -263t-254.5 -81v105q96 0 150 41q40 35 49 92q-12 -12 -43 -12z" />
    <glyph glyph-name="less" unicode="&#x3c;" 
d="M76 502v157l1038 361v-211l-708 -227l708 -230v-211z" />
    <glyph glyph-name="equal" unicode="=" 
d="M180 641v199h828v-199h-828zM180 322v198h828v-198h-828z" />
    <glyph glyph-name="greater" unicode="&#x3e;" 
d="M74 141v211l708 230l-708 227v211l1038 -361v-157z" />
    <glyph glyph-name="question" unicode="?" horiz-adv-x="1046" 
d="M297 139q0 35 13.5 67t37 55.5t54 36.5t67.5 13t68.5 -13t55 -36.5t37 -55.5t13.5 -67t-13.5 -66.5t-37 -55t-55 -38t-68.5 -14.5t-67.5 14.5t-54 38t-37 55t-13.5 66.5zM49 1010q0 208 130.5 328t320.5 120t320 -111.5t130 -289.5q0 -179 -94 -259.5t-134 -113.5
q-91 -75 -115.5 -126t-24.5 -173h-226q0 142 23.5 207t54.5 107t72 72q99 72 154 134.5t55 155.5q0 92 -60.5 139t-154.5 47q-149 0 -182 -88t-33 -149h-236z" />
    <glyph glyph-name="at" unicode="@" horiz-adv-x="1697" 
d="M671 243q65 -73 169 -73t170.5 74t66.5 179t-66.5 179t-170.5 74t-169 -73t-65 -180t65 -180zM932 -406q-223 0 -390 71t-278.5 186.5t-167 264t-55.5 324.5t64.5 331t173 262.5t252 165.5t321.5 58t338 -50t339 -194t179 -474q0 -464 -139 -533t-238 -69t-162 58
t-92 136q-37 -59 -107.5 -94t-151.5 -35t-156.5 34t-159.5 122t-84 263t115.5 299t295.5 124q70 0 140.5 -34t107.5 -95v108h187v-534q0 -185 112 -185q144 0 144 435q0 249 -191 400t-495 151q-121 0 -231.5 -46.5t-243 -184t-132.5 -423.5t187 -480t508 -194
q322 0 559 132l90 -146q-274 -154 -639 -154z" />
    <glyph glyph-name="A" unicode="A" horiz-adv-x="1169" 
d="M387 393h395l-196 649zM6 0l496 1434h166l495 -1434h-248l-61 182h-539l-61 -182h-248z" />
    <glyph glyph-name="B" unicode="B" horiz-adv-x="1224" 
d="M385 831h254q127 0 176 60.5t49 160.5t-76.5 135.5t-148.5 35.5h-254v-392zM385 211h266q127 0 176.5 64t49.5 140t-35 119.5t-78 65t-111 21.5h-268v-410zM150 0v1434h489q259 0 360 -126t101 -271t-69.5 -219t-158.5 -93q152 -39 196 -134t44 -163q0 -172 -101 -300
t-360 -128h-501z" />
    <glyph glyph-name="C" unicode="C" horiz-adv-x="1587" 
d="M78 716q0 311 203 531.5t516 220.5t496.5 -155t217.5 -402h-247q-24 151 -140 248.5t-286 97.5q-239 0 -379 -159.5t-140 -382.5q0 -224 144 -381.5t399 -157.5q127 0 241.5 82t149.5 203h258q-52 -215 -235 -355.5t-445 -140.5q-338 0 -493.5 165t-207.5 301.5
t-52 284.5z" />
    <glyph glyph-name="D" unicode="D" horiz-adv-x="1435" 
d="M385 211h229q231 0 366.5 150.5t135.5 354.5t-135.5 355.5t-366.5 151.5h-229v-1012zM150 0v1434h464q178 0 316.5 -61.5t234 -162t144.5 -229.5t49 -264t-49 -264t-203 -291t-492 -162h-464z" />
    <glyph glyph-name="E" unicode="E" horiz-adv-x="1116" 
d="M150 0v1434h827v-211h-592v-406h592v-211h-592v-395h592v-211h-827z" />
    <glyph glyph-name="F" unicode="F" horiz-adv-x="1101" 
d="M150 0v1434h827v-211h-592v-455h592v-211h-592v-557h-235z" />
    <glyph glyph-name="G" unicode="G" horiz-adv-x="1716" 
d="M78 716q0 146 51 282.5t147.5 240.5t233 166.5t284.5 62.5q270 0 442.5 -135t188.5 -329h-237q-20 108 -121.5 180.5t-234.5 72.5q-132 0 -224 -45t-156.5 -119.5t-98.5 -173t-34 -263t138 -322.5t389 -158q177 0 286 96.5t132 235.5h-275v211h682v-211h-158
q-80 -385 -314 -464t-397 -79t-300 62.5t-231.5 167t-143.5 240t-49 281.5z" />
    <glyph glyph-name="H" unicode="H" horiz-adv-x="1361" 
d="M150 0v1434h235v-617h592v617h235v-1434h-235v606h-592v-606h-235z" />
    <glyph glyph-name="I" unicode="I" horiz-adv-x="542" 
d="M150 0v1434h243v-1434h-243z" />
    <glyph glyph-name="J" unicode="J" horiz-adv-x="1097" 
d="M25 467h235q0 -129 57 -210t173 -81t174.5 80t58.5 209v969h235v-969q0 -219 -126 -359.5t-343 -140.5t-340.5 142.5t-123.5 359.5z" />
    <glyph glyph-name="K" unicode="K" horiz-adv-x="1243" 
d="M150 0v1434h235v-631l533 631h294l-606 -717l606 -717h-294l-533 629v-629h-235z" />
    <glyph glyph-name="L" unicode="L" horiz-adv-x="878" 
d="M150 0v1434h235v-1223h442v-211h-677z" />
    <glyph glyph-name="M" unicode="M" horiz-adv-x="1665" 
d="M150 0v1434h225l459 -1067l456 1067h226v-1434h-236v887l-358 -887h-179l-358 887v-887h-235z" />
    <glyph glyph-name="N" unicode="N" horiz-adv-x="1359" 
d="M150 0v1434h258l567 -1020v1020h235v-1434h-258l-567 1020v-1020h-235z" />
    <glyph glyph-name="O" unicode="O" horiz-adv-x="1638" 
d="M819 176q221 0 357.5 161t136.5 380t-137 379.5t-357 160.5t-356.5 -159.5t-136.5 -380t136 -381t357 -160.5zM78 716q0 146 51 282.5t146.5 240.5t233.5 166.5t310 62.5t310.5 -62.5t233.5 -166.5t146.5 -240.5t51.5 -281.5t-51.5 -281.5t-146.5 -241t-233.5 -167
t-310.5 -62.5t-310 62.5t-233.5 167t-146.5 240t-51 281.5z" />
    <glyph glyph-name="P" unicode="P" horiz-adv-x="1220" 
d="M385 641h279q120 0 195 86t75 205t-75 205t-195 86h-279v-582zM150 0v1434h514q225 0 365 -147.5t140 -355.5t-140.5 -354.5t-364.5 -146.5h-279v-430h-235z" />
    <glyph glyph-name="Q" unicode="Q" horiz-adv-x="1638" 
d="M819 176q221 0 357.5 161t136.5 380t-137 379.5t-357 160.5t-356.5 -159.5t-136.5 -380t136 -381t357 -160.5zM78 716q0 146 51 282.5t146.5 240.5t233.5 166.5t310 62.5t310.5 -62.5t233.5 -166.5t146.5 -240.5t51.5 -267.5q0 -252 -131 -450t-357 -275l123 -172
l-207 -104l-172 235q-172 0 -309 63.5t-232.5 168t-146.5 239t-51 280.5z" />
    <glyph glyph-name="R" unicode="R" horiz-adv-x="1247" 
d="M385 641h279q120 0 195 86t75 205t-75 205t-195 86h-279v-582zM150 0v1434h514q225 0 365 -147.5t140 -369.5q0 -223 -116.5 -322t-186.5 -128l285 -467h-268l-262 430h-236v-430h-235z" />
    <glyph glyph-name="S" unicode="S" horiz-adv-x="1165" 
d="M86 469h236q0 -141 77.5 -217t188.5 -76t179.5 59t68.5 154q0 131 -95 173t-163 66q-211 74 -327 163t-116 273q0 183 128.5 293.5t320.5 110.5t322 -125.5t130 -322.5h-235q0 106 -57.5 171.5t-151.5 65.5t-157.5 -45t-63.5 -137q0 -114 84.5 -155t146.5 -64
t265.5 -103.5t203.5 -336.5q0 -213 -141 -332t-348 -119q-208 0 -352 137.5t-144 366.5z" />
    <glyph glyph-name="T" unicode="T" horiz-adv-x="987" 
d="M20 1223v211h947v-211h-357v-1223h-235v1223h-355z" />
    <glyph glyph-name="U" unicode="U" horiz-adv-x="1310" 
d="M139 479v955h236v-955q0 -128 78 -215.5t201 -87.5t202.5 88t79.5 215v955h235v-955q0 -215 -143.5 -364.5t-371.5 -149.5q-229 0 -373 150t-144 364z" />
    <glyph glyph-name="V" unicode="V" horiz-adv-x="1165" 
d="M4 1434h248l332 -1043l329 1043h248l-495 -1434h-166z" />
    <glyph glyph-name="W" unicode="W" horiz-adv-x="2013" 
d="M10 1434h248l330 -1022l332 1022h174l331 -1022l330 1022h248l-496 -1434h-170l-329 1022l-332 -1022h-170z" />
    <glyph glyph-name="X" unicode="X" horiz-adv-x="1150" 
d="M16 0l426 717l-426 717h267l292 -514l293 514h267l-426 -717l426 -717h-267l-293 512l-292 -512h-267z" />
    <glyph glyph-name="Y" unicode="Y" horiz-adv-x="1232" 
d="M23 1434h272l383 -617l307 617h258l-711 -1434h-258l285 573z" />
    <glyph glyph-name="Z" unicode="Z" horiz-adv-x="1181" 
d="M70 1223v211h1091l-743 -1223h739v-211h-1130l743 1223h-700z" />
    <glyph glyph-name="bracketleft" unicode="[" horiz-adv-x="727" 
d="M150 -479v2107h413v-198h-190v-1713h190v-196h-413z" />
    <glyph glyph-name="backslash" unicode="\" horiz-adv-x="927" 
d="M-2 1591l205 88l745 -1732l-205 -88z" />
    <glyph glyph-name="bracketright" unicode="]" horiz-adv-x="727" 
d="M164 -283h190v1710h-190v199h414v-2105h-414v196z" />
    <glyph glyph-name="asciicircum" unicode="^" horiz-adv-x="1327" 
d="M123 662l459 874h155l467 -874h-252l-290 591l-295 -591h-244z" />
    <glyph glyph-name="underscore" unicode="_" horiz-adv-x="1146" 
d="M61 -102h1024v-154h-1024v154z" />
    <glyph glyph-name="grave" unicode="`" horiz-adv-x="1173" 
d="M244 1335l106 174l510 -280l-106 -174z" />
    <glyph glyph-name="a" unicode="a" horiz-adv-x="1234" 
d="M301 478q0 -62 19.5 -117.5t56.5 -96.5t88.5 -65.5t114.5 -24.5t115.5 24.5t89 65.5t57 96.5t20.5 116.5t-20.5 116.5t-57 96.5t-89 65.5t-115.5 24.5t-114.5 -24.5t-88.5 -65.5t-56.5 -95.5t-19.5 -116.5zM215.5 830.5q137.5 148.5 351.5 148.5q84 0 167 -41t128 -113
v129h223v-954h-223v129q-45 -72 -128.5 -113t-179.5 -41t-185.5 40t-190 149t-100.5 314q0 204 137.5 352.5z" />
    <glyph glyph-name="b" unicode="b" horiz-adv-x="1239" 
d="M451 261.5q78 -87.5 202 -87.5t202.5 87t78.5 216t-78.5 216t-202.5 87t-202 -87.5t-78 -215.5t78 -215.5zM150 0v1434h223v-609q45 72 128 113t179 41t186 -40t190.5 -148.5t100.5 -312.5q0 -205 -137.5 -354t-351.5 -149q-84 0 -167 41t-128 113v-129h-223z" />
    <glyph glyph-name="c" unicode="c" horiz-adv-x="1093" 
d="M82 476q0 97 30.5 188.5t91 161t148.5 111.5t253.5 42t278.5 -108.5t126 -264.5h-224q-10 78 -60 126t-169 48t-185.5 -86.5t-66.5 -216.5q0 -208 99.5 -255.5t183.5 -47.5q152 0 200 154h224q-40 -247 -194 -300t-265 -53t-200 42t-149.5 112t-91 160t-30.5 187z" />
    <glyph glyph-name="d" unicode="d" horiz-adv-x="1234" 
d="M301 478q0 -62 19.5 -117.5t56.5 -96.5t88.5 -65.5t114.5 -24.5t115.5 24.5t89 65.5t57 96.5t20.5 116.5t-20.5 116.5t-57 96.5t-89 65.5t-115.5 24.5t-114.5 -24.5t-88.5 -65.5t-56.5 -95.5t-19.5 -116.5zM215.5 830.5q137.5 148.5 351.5 148.5q84 0 167 -41t128 -113
v609h223v-1434h-223v129q-45 -72 -128.5 -113t-179.5 -41t-185.5 40t-190 149t-100.5 314q0 204 137.5 352.5z" />
    <glyph glyph-name="e" unicode="e" horiz-adv-x="1087" 
d="M311 575h467q0 100 -64.5 159t-164.5 59t-169 -55.5t-69 -162.5zM995 555q0 -86 -10 -145h-676q0 -173 91.5 -210.5t148.5 -37.5q97 0 143 32.5t70 92.5h225q-26 -131 -139.5 -221.5t-288.5 -90.5q-228 0 -352.5 146.5t-124.5 360.5t124.5 355.5t346.5 141.5
q185 0 313.5 -123t128.5 -301z" />
    <glyph glyph-name="f" unicode="f" horiz-adv-x="735" 
d="M497.5 1221q-38.5 -26 -38.5 -123v-144h250v-186h-250v-768h-223v768h-195v186h195v119q0 237 102.5 305t215.5 68q112 0 155 -25v-188q-54 14 -113.5 14t-98 -26z" />
    <glyph glyph-name="g" unicode="g" horiz-adv-x="1228" 
d="M379.5 261q78.5 -87 201.5 -87t202 88.5t79 214.5t-79 214.5t-202 88.5t-201.5 -87t-78.5 -216t78.5 -216zM575 -303q287 0 287 256v176q-45 -72 -128.5 -113t-179.5 -41t-185.5 40t-190 149t-100.5 314t137.5 353t351.5 148q84 0 167 -41t128 -113v129h223v-1001
q0 -455 -365 -455t-491 116.5t-135 276.5h225q8 -78 72 -136t184 -58z" />
    <glyph glyph-name="h" unicode="h" horiz-adv-x="1165" 
d="M809 494q0 288 -207 288q-117 0 -173 -83t-56 -205v-494h-223v1434h223v-613q91 158 300 158t298 -129q61 -92 61 -283v-567h-223v494z" />
    <glyph glyph-name="i" unicode="i" horiz-adv-x="612" 
d="M195 0v954h223v-954h-223zM141 1304q0 69 48.5 116.5t116.5 47.5t116.5 -48t48.5 -116t-48 -116.5t-117 -48.5t-117 48t-48 117z" />
    <glyph glyph-name="j" unicode="j" horiz-adv-x="604" 
d="M137 1304q0 69 48 116.5t117 47.5t117 -48t48 -116t-48 -116.5t-117 -48.5t-117 48t-48 117zM119 -305q71 0 71 96v1163h224v-1177q0 -216 -82 -246.5t-161 -30.5t-130 23v184q49 -12 78 -12z" />
    <glyph glyph-name="k" unicode="k" horiz-adv-x="1021" 
d="M150 0v1434h223v-902l350 422h278l-397 -477l397 -477h-278l-350 420v-420h-223z" />
    <glyph glyph-name="l" unicode="l" horiz-adv-x="522" 
d="M150 0v1434h223v-1434h-223z" />
    <glyph glyph-name="m" unicode="m" horiz-adv-x="1712" 
d="M578 782q-205 0 -205 -297v-485h-223v954h223v-133q31 66 101.5 112t164.5 46q228 0 301 -170q35 72 112.5 121t181.5 49q342 0 343 -375v-604h-223v535q0 247 -178 247q-201 0 -201 -297v-485h-223v537q0 115 -40 180t-134 65z" />
    <glyph glyph-name="n" unicode="n" horiz-adv-x="1165" 
d="M809 494q0 288 -207 288q-117 0 -173 -83t-56 -205v-494h-223v954h223v-133q91 158 300 158t298 -129q61 -92 61 -283v-567h-223v494z" />
    <glyph glyph-name="o" unicode="o" horiz-adv-x="1163" 
d="M301 478q0 -62 19.5 -117.5t56.5 -96.5t88.5 -65.5t114.5 -24.5t115.5 24.5t89 65.5t57 96.5t20.5 116.5t-20.5 116.5t-57 96.5t-89 65.5t-115.5 24.5t-114.5 -24.5t-88.5 -65.5t-56.5 -95.5t-19.5 -116.5zM944.5 832.5q140.5 -146.5 140.5 -354.5t-140 -355.5
t-364.5 -147.5t-363.5 148.5t-139 354.5t139 353.5t363 147.5t364.5 -146.5z" />
    <glyph glyph-name="p" unicode="p" horiz-adv-x="1239" 
d="M451 261.5q78 -87.5 202 -87.5t202.5 87t78.5 216t-78.5 216t-202.5 87t-202 -87.5t-78 -215.5t78 -215.5zM150 -479v1433h223v-129q45 72 128 113t179 41t186 -40t190.5 -148.5t100.5 -312.5q0 -205 -137.5 -354t-351.5 -149q-84 0 -167 41t-128 113v-608h-223z" />
    <glyph glyph-name="q" unicode="q" horiz-adv-x="1239" 
d="M383.5 261q78.5 -87 201.5 -87t202 88.5t79 214.5t-79 214.5t-202 88.5t-201.5 -87t-78.5 -216t78.5 -216zM219.5 830.5q137.5 148.5 351.5 148.5q84 0 167 -41t128 -113v129h224v-1433h-224v608q-45 -72 -128.5 -113t-179.5 -41t-185.5 40t-190 149t-100.5 314
q0 204 137.5 352.5z" />
    <glyph glyph-name="r" unicode="r" horiz-adv-x="774" 
d="M668 758q-295 0 -295 -346v-412h-223v954h223v-153q32 66 116 116t158 50t109 -15v-204q-45 10 -88 10z" />
    <glyph glyph-name="s" unicode="s" horiz-adv-x="929" 
d="M612 655q0 148 -153 148q-57 0 -97 -26.5t-40 -68.5t16 -60.5t49 -34t82 -32.5t107 -39q136 -51 202 -105t66 -184t-107.5 -204t-271.5 -74t-277.5 92.5t-113.5 254.5h217q0 -170 184 -170q156 0 156 110q0 33 -18.5 53.5t-55.5 38t-92 36t-117 41.5q-123 45 -182.5 99.5
t-59.5 176.5t102 197t256 75t259.5 -92.5t105.5 -231.5h-217z" />
    <glyph glyph-name="t" unicode="t" horiz-adv-x="718" 
d="M534 -12q-63 0 -116 7t-134 62t-81 267v444h-162v186h162v289h223v-289h219v-186h-219v-393q0 -116 33.5 -151.5t108.5 -35.5q74 0 110 9v-197q-81 -12 -144 -12z" />
    <glyph glyph-name="u" unicode="u" horiz-adv-x="1165" 
d="M133 387v567h223v-493q0 -289 207 -289q117 0 173.5 83t56.5 206v493h223v-954h-223v133q-91 -158 -300 -158t-298 129q-62 94 -62 283z" />
    <glyph glyph-name="v" unicode="v" horiz-adv-x="1011" 
d="M2 954h240l262 -635l266 635h240l-432 -954h-150z" />
    <glyph glyph-name="w" unicode="w" horiz-adv-x="1542" 
d="M0 954h240l206 -604l216 604h219l215 -604l207 604h239l-371 -954h-149l-250 713l-252 -713h-149z" />
    <glyph glyph-name="x" unicode="x" horiz-adv-x="913" 
d="M16 0l312 481l-305 473h258l176 -299l176 299h258l-305 -473l311 -481h-258l-182 307l-183 -307h-258z" />
    <glyph glyph-name="y" unicode="y" horiz-adv-x="1183" 
d="M381 461q0 -289 207 -289q117 0 173 83t56 206v493h223v-999q0 -244 -127.5 -350.5t-363.5 -106.5q-179 0 -297.5 116.5t-118.5 276.5h217q2 -80 56.5 -137t173.5 -57t178 58.5t59 199.5v178q-91 -158 -300 -158t-298 129q-61 92 -61 283v567h223v-493z" />
    <glyph glyph-name="z" unicode="z" horiz-adv-x="897" 
d="M57 756v198h811l-450 -755h450v-199h-823l453 756h-441z" />
    <glyph glyph-name="braceleft" unicode="{" horiz-adv-x="942" 
d="M688 1458q-110 0 -110 -153v-521q0 -113 -68 -170t-135 -63q76 -13 139.5 -66.5t63.5 -187.5v-455q0 -69 22.5 -111t87.5 -42h90v-168h-145q-109 0 -195 74t-86 210v461q0 93 -62.5 142t-125.5 49v182q109 0 148.5 63.5t39.5 112.5v526q0 134 85 209.5t196 75.5h145v-168
h-90z" />
    <glyph glyph-name="bar" unicode="|" horiz-adv-x="522" 
d="M150 -479v2105h223v-2105h-223z" />
    <glyph glyph-name="braceright" unicode="}" horiz-adv-x="942" 
d="M365 297q0 217 202 254q-66 6 -134 61.5t-68 171.5v521q0 105 -37 129t-74 24h-90v168h145q111 0 196 -75.5t85 -209.5v-526q0 -84 61 -130t127 -46v-182q-63 0 -125.5 -49t-62.5 -142v-461q0 -136 -86 -210t-195 -74h-145v168h90q95 0 103 64.5t8 88.5v455z" />
    <glyph glyph-name="asciitilde" unicode="~" horiz-adv-x="1079" 
d="M309 707q86 0 242 -66q59 -25 118.5 -49.5t102.5 -24.5q112 0 225 113v-191q-90 -120 -227 -120q-94 -1 -223 69t-241 70q-111 0 -224 -113v191q91 121 227 121z" />
    <glyph glyph-name="nonbreakingspace" unicode="&#xa0;" horiz-adv-x="512" 
 />
    <glyph glyph-name="exclamdown" unicode="&#xa1;" horiz-adv-x="632" 
d="M199 0v967h243v-967h-243zM154 1291q0 69 49 118t117 49t117.5 -49t49.5 -118t-49 -118t-118 -49t-117.5 49t-48.5 118z" />
    <glyph glyph-name="cent" unicode="&#xa2;" 
d="M217.5 1035q98.5 137 274.5 171v224h208v-222q240 -38 291 -170.5t56 -193.5h-224q-10 78 -60 126t-169 48t-185.5 -86.5t-66.5 -255.5t100 -216.5t184 -47.5q152 0 199 153h224q-20 -129 -105.5 -224t-243.5 -120v-219h-208v221q-178 35 -275.5 173t-97.5 320t98.5 319z
" />
    <glyph glyph-name="sterling" unicode="&#xa3;" 
d="M1012 211v-211h-877v174q82 65 92 471h-139v211h139l-2 209q0 170 130.5 281.5t323.5 111.5t320 -125t127 -323h-235q0 237 -225 237q-90 0 -147.5 -45t-57.5 -137l2 -209h293v-211h-293q-11 -392 -62 -434h611z" />
    <glyph glyph-name="currency" unicode="&#xa4;" horiz-adv-x="1472" 
d="M457 758q0 -128 78 -215.5t201 -87.5t202.5 88t79.5 215t-79.5 215t-202.5 88t-201 -87.5t-78 -215.5zM736 1260q159 0 284 -82l131 131l141 -140l-133 -133q82 -124 82 -280t-82 -279l131 -131l-139 -141l-131 131q-121 -80 -283 -80t-282 80l-133 -131l-142 139
l133 133q-80 127 -80 282t80 277l-131 133l140 142l131 -133q124 82 283 82z" />
    <glyph glyph-name="yen" unicode="&#xa5;" 
d="M1012 621v-187h-312v-110h312v-187h-312v-137h-211v137h-305v187h305v110h-305v187h260l-505 813h272l385 -617l381 617h272l-504 -813h267z" />
    <glyph glyph-name="brokenbar" unicode="&#xa6;" horiz-adv-x="522" 
d="M150 684v942h223v-942h-223zM150 461h223v-940h-223v940z" />
    <glyph glyph-name="section" unicode="&#xa7;" 
d="M315 563q0 -134 143.5 -181.5t200.5 -64.5q92 8 151.5 62.5t59.5 141.5t-92 147q-63 38 -254 96q-90 -8 -149.5 -61.5t-59.5 -139.5zM1022 -68q0 -160 -132.5 -262t-325.5 -102q-192 0 -321.5 117t-129.5 299h237q0 -98 61.5 -160t155.5 -62q148 0 182.5 63.5t34.5 105.5
q0 78 -61 124t-147 72q-230 70 -364 156.5t-134 255.5q0 254 235 325q-149 94 -149 287q0 160 132.5 262.5t324.5 102.5t322 -117.5t130 -298.5h-237q0 98 -62 159.5t-154 61.5t-155.5 -43t-63.5 -127q0 -128 211 -195q84 -29 290 -102.5t206 -308.5q0 -119 -73.5 -214
t-162.5 -112q150 -98 150 -287z" />
    <glyph glyph-name="dieresis" unicode="&#xa8;" horiz-adv-x="1218" 
d="M670 1300q0 66 45 112t111 46t111.5 -46t45.5 -112t-46 -110.5t-112 -44.5t-110.5 44.5t-44.5 110.5zM201 1300q0 66 44.5 112t110.5 46t112 -46t46 -112t-46 -110.5t-112 -44.5t-110.5 44.5t-44.5 110.5z" />
    <glyph glyph-name="copyright" unicode="&#xa9;" horiz-adv-x="1646" 
d="M501.5 1045q124.5 137 320.5 137t306 -97t134 -249h-170q-20 84 -85 141t-185 57t-198.5 -92.5t-78.5 -223.5t81 -225t218 -94q88 0 152.5 45t90.5 113h175q-28 -131 -143.5 -218t-274.5 -87q-212 0 -339.5 136t-127.5 328t124.5 329zM289 716q0 -112 36.5 -217.5
t105.5 -186.5t168 -129t224 -48t223.5 48t168 129t106.5 186.5t37 218.5t-37 218t-106.5 186t-168 129t-223.5 48t-224 -48t-168 -129t-105.5 -187t-36.5 -218zM82 716q0 146 51 282.5t146.5 240.5t233.5 166.5t310 62.5t310.5 -62.5t233.5 -166.5t146.5 -240.5t51.5 -281.5
t-51.5 -281.5t-146.5 -241t-233.5 -167t-310.5 -62.5t-310 62.5t-233.5 167t-146.5 240t-51 281.5z" />
    <glyph glyph-name="ordfeminine" unicode="&#xaa;" horiz-adv-x="1234" 
d="M301 478q0 -62 19.5 -117.5t56.5 -96.5t88.5 -65.5t114.5 -24.5t115.5 24.5t89 65.5t57 96.5t20.5 116.5t-20.5 116.5t-57 96.5t-89 65.5t-115.5 24.5t-114.5 -24.5t-88.5 -65.5t-56.5 -95.5t-19.5 -116.5zM215.5 830.5q137.5 148.5 351.5 148.5q84 0 167 -41t128 -113
v129h223v-954h-223v129q-45 -72 -128.5 -113t-179.5 -41t-185.5 40t-190 149t-100.5 314q0 204 137.5 352.5z" />
    <glyph glyph-name="guillemotleft" unicode="&#xab;" horiz-adv-x="966" 
d="M483 530v132l402 335v-215l-223 -186l223 -186v-215zM82 530v132l401 335v-215l-223 -186l223 -186v-215z" />
    <glyph glyph-name="logicalnot" unicode="&#xac;" 
d="M180 641v199h828v-512h-224v313h-604z" />
    <glyph glyph-name="softhyphen" unicode="&#xad;" horiz-adv-x="602" 
d="M61 483v199h480v-199h-480z" />
    <glyph glyph-name="registered" unicode="&#xae;" horiz-adv-x="1646" 
d="M702 719h166q66 0 104 45t38 108t-38 109.5t-104 46.5h-166v-309zM545 332v833h340q128 0 210.5 -84.5t82.5 -191.5q0 -211 -177 -285l166 -272h-176l-151 250h-138v-250h-157zM289 716q0 -112 36.5 -217.5t105.5 -186.5t168 -129t224 -48t223.5 48t168 129t106.5 186.5
t37 218.5t-37 218t-106.5 186t-168 129t-223.5 48t-224 -48t-168 -129t-105.5 -187t-36.5 -218zM82 716q0 146 51 282.5t146.5 240.5t233.5 166.5t310 62.5t310.5 -62.5t233.5 -166.5t146.5 -240.5t51.5 -281.5t-51.5 -281.5t-146.5 -241t-233.5 -167t-310.5 -62.5
t-310 62.5t-233.5 167t-146.5 240t-51 281.5z" />
    <glyph glyph-name="macron" unicode="&#xaf;" horiz-adv-x="1136" 
d="M201 1481v198h733v-198h-733z" />
    <glyph glyph-name="degree" unicode="&#xb0;" horiz-adv-x="667" 
d="M199 1175q0 -56 40 -96.5t95 -40.5t95 40.5t40 96.5t-40 98t-95 42t-95 -42t-40 -98zM41 1176q0 122 85 207t208 85t208 -85t85 -207.5t-85 -207.5t-208 -85t-208 85.5t-85 207.5z" />
    <glyph glyph-name="plusminus" unicode="&#xb1;" 
d="M180 756v198h301v316h224v-316h303v-198h-303v-314h-224v314h-301zM180 0v199h828v-199h-828z" />
    <glyph glyph-name="twosuperior" unicode="&#xb2;" horiz-adv-x="772" 
d="M485 1225q0 88 -90 88q-43 0 -71.5 -26.5t-28.5 -88.5h-180q0 109 72.5 180.5t207.5 71.5q185 0 227 -88t42 -144t-21.5 -96.5t-52.5 -72t-67.5 -55t-70.5 -46.5q-81 -54 -107 -82t-26 -73h340v-148h-546q0 248 80.5 313.5t139.5 100.5t105.5 70.5t46.5 95.5z" />
    <glyph glyph-name="threesuperior" unicode="&#xb3;" horiz-adv-x="800" 
d="M492 1225q0 88 -91 88q-59 0 -79.5 -31t-20.5 -84h-180q0 173 101.5 212.5t165.5 39.5q123 0 203.5 -58.5t80.5 -162.5q0 -66 -35 -112t-82 -62q53 -18 91 -66.5t38 -114.5q0 -116 -81.5 -180.5t-214.5 -64.5q-134 0 -212 77.5t-78 202.5h181q0 -66 33.5 -100.5
t85.5 -34.5t79 32t27 73q0 108 -117 108h-70v141h70q105 0 105 97z" />
    <glyph glyph-name="acute" unicode="&#xb4;" horiz-adv-x="1173" 
d="M164 1229l510 280l106 -174l-510 -280z" />
    <glyph glyph-name="uni00B5" unicode="&#xb5;" 
d="M375 -479h-223v1433h223v-493q0 -289 207 -289q117 0 173 83t56 206v493h223v-954h-223v133q-91 -158 -311 -158q-66 0 -125 17v-471z" />
    <glyph glyph-name="paragraph" unicode="&#xb6;" horiz-adv-x="1368" 
d="M31 1060q0 243 156.5 325.5t353.5 82.5h678v-184h-109v-1587h-211v1585h-215v-1585h-211v977q-198 0 -320 98.5t-122 287.5z" />
    <glyph glyph-name="periodcentered" unicode="&#xb7;" horiz-adv-x="575" 
d="M123 640q0 69 48 117t117 48t117 -48t48 -117t-48.5 -117t-116.5 -48t-116.5 48t-48.5 117z" />
    <glyph glyph-name="cedilla" unicode="&#xb8;" horiz-adv-x="1136" 
d="M645 -282q0 36 -22.5 56.5t-59.5 20.5t-57 -37h-111v242h144v-131q27 27 65 27q70 0 121 -49t51 -128q0 -128 -77.5 -163t-110.5 -35q-79 0 -146 35.5t-82 140.5h132q18 -61 75 -62q35 0 56.5 23.5t21.5 59.5z" />
    <glyph glyph-name="onesuperior" unicode="&#xb9;" horiz-adv-x="577" 
d="M94 1167v129q154 0 170.5 51.5t16.5 86.5h159v-789h-184v522h-162z" />
    <glyph glyph-name="ordmasculine" unicode="&#xba;" horiz-adv-x="1163" 
d="M301 478q0 -62 19.5 -117.5t56.5 -96.5t88.5 -65.5t114.5 -24.5t115.5 24.5t89 65.5t57 96.5t20.5 116.5t-20.5 116.5t-57 96.5t-89 65.5t-115.5 24.5t-114.5 -24.5t-88.5 -65.5t-56.5 -95.5t-19.5 -116.5zM944.5 832.5q140.5 -146.5 140.5 -354.5t-140 -355.5
t-364.5 -147.5t-363.5 148.5t-139 354.5t139 353.5t363 147.5t364.5 -146.5z" />
    <glyph glyph-name="guillemotright" unicode="&#xbb;" horiz-adv-x="966" 
d="M483 195v215l224 186l-224 186v215l402 -335v-132zM82 195v215l223 186l-223 186v215l401 -335v-132z" />
    <glyph glyph-name="onequarter" unicode="&#xbc;" horiz-adv-x="1945" 
d="M1157 219v569h180v-417h133v219h181v-219h96v-152h-96v-219h-181v219h-313zM303 -2l895 1542l178 -102l-895 -1542zM147 1167v129q154 0 170.5 51.5t16.5 86.5h160v-789h-185v522h-162z" />
    <glyph glyph-name="onehalf" unicode="&#xbd;" horiz-adv-x="1945" 
d="M1526 580q0 88 -90 88q-43 0 -72 -27t-29 -88h-180q0 109 72.5 180.5t208.5 71.5q184 0 226 -88.5t42 -144.5q0 -93 -53 -146.5t-123 -99.5q-115 -75 -141.5 -103.5t-26.5 -75.5h340v-147h-547q0 247 81.5 313t139.5 101t105 70.5t47 95.5zM303 -2l895 1542l178 -102
l-895 -1542zM147 1167v129q154 0 170.5 51.5t16.5 86.5h160v-789h-185v522h-162z" />
    <glyph glyph-name="threequarters" unicode="&#xbe;" horiz-adv-x="1945" 
d="M1157 219v569h180v-417h133v219h181v-219h96v-152h-96v-219h-181v219h-313zM303 -2l895 1542l178 -102l-895 -1542zM485 1225q0 88 -90 88q-59 0 -79.5 -31t-20.5 -84h-180q0 172 101.5 212t165.5 40q123 0 203.5 -58.5t80.5 -162.5q0 -66 -35 -112t-82 -62
q53 -18 91 -66.5t38 -114.5q0 -116 -81.5 -180.5t-214.5 -64.5q-134 0 -212 77.5t-78 202.5h180q0 -66 34 -100.5t86 -34.5t79 32t27 73q0 108 -117 108h-70v141h70q61 0 82.5 27t21.5 70z" />
    <glyph glyph-name="questiondown" unicode="&#xbf;" horiz-adv-x="1046" 
d="M403 1294q0 72 51 123t122.5 51t122.5 -51t51 -122.5t-51 -122t-123 -50.5t-122.5 50t-50.5 122zM96 369q0 82 22.5 138t56.5 100t71.5 77.5t77.5 65.5q91 75 116 125t25 174h225q0 -146 -23.5 -210.5t-54 -105.5t-72.5 -71q-101 -73 -154.5 -135t-53.5 -154t60.5 -139.5
t154.5 -47.5q147 0 181 88t34 150h235q0 -209 -129.5 -329t-318.5 -120t-285 81t-132 156t-36 157z" />
    <glyph glyph-name="Agrave" unicode="&#xc0;" horiz-adv-x="1169" 
d="M387 393h395l-196 649zM324 1815l106 174l510 -281l-106 -174zM6 0l496 1434h166l495 -1434h-248l-61 182h-539l-61 -182h-248z" />
    <glyph glyph-name="Aacute" unicode="&#xc1;" horiz-adv-x="1169" 
d="M387 393h395l-196 649zM279 1669l509 281l107 -174l-510 -281zM6 0l496 1434h166l495 -1434h-248l-61 182h-539l-61 -182h-248z" />
    <glyph glyph-name="Acircumflex" unicode="&#xc2;" horiz-adv-x="1169" 
d="M387 393h395l-196 649zM217 1694l367 297l370 -297l-139 -156l-229 184l-228 -182zM6 0l496 1434h166l495 -1434h-248l-61 182h-539l-61 -182h-248z" />
    <glyph glyph-name="Atilde" unicode="&#xc3;" horiz-adv-x="1169" 
d="M387 393h395l-196 649zM748 1626q-36 0 -147 26.5t-152 26.5t-134 -43l-96 146q114 73 155.5 75.5t58.5 2.5q30 0 143.5 -28t155.5 -28t151 56l88 -142q-112 -92 -223 -92zM6 0l496 1434h166l495 -1434h-248l-61 182h-539l-61 -182h-248z" />
    <glyph glyph-name="Adieresis" unicode="&#xc4;" horiz-adv-x="1169" 
d="M657 1752q0 69 48.5 117t116.5 48t116.5 -48t48.5 -117t-48 -117t-117 -48t-117 48t-48 117zM387 393h395l-196 649zM188 1752q0 69 49 117t117 48t116 -48t48 -117t-48 -117t-117 -48t-117 48t-48 117zM6 0l496 1434h166l495 -1434h-248l-61 182h-539l-61 -182h-248z
" />
    <glyph glyph-name="Aring" unicode="&#xc5;" horiz-adv-x="1169" 
d="M496 1748q0 -36 26.5 -62.5t63.5 -26.5t63.5 26.5t26.5 63.5t-25.5 63.5t-64.5 26.5t-64.5 -27.5t-25.5 -63.5zM387 393h395l-196 649zM407 1924.5q73 74.5 177 74.5q103 0 178.5 -73.5t75.5 -178.5t-75.5 -178.5t-177.5 -73.5t-176.5 73.5t-74.5 177.5t73 178.5zM6 0
l496 1434h166l495 -1434h-248l-61 182h-539l-61 -182h-248z" />
    <glyph glyph-name="AE" unicode="&#xc6;" horiz-adv-x="1808" 
d="M831 395v817l-385 -817h385zM1659 1434v-211h-592v-406h592v-211h-592v-395h592v-211h-828v184h-485l-86 -184h-256l696 1434h959z" />
    <glyph glyph-name="Ccedilla" unicode="&#xc7;" horiz-adv-x="1587" 
d="M78 722q0 142 50 277.5t203 302t466 166.5t496.5 -155t217.5 -402h-247q-24 151 -140 248.5t-286 97.5q-239 0 -379 -159.5t-140 -382.5q0 -224 144 -381.5t399 -157.5q127 0 241.5 82t149.5 203h258q-48 -209 -223 -345.5t-418 -148.5v-67q47 47 119.5 19.5t95.5 -77
t23 -88.5q0 -83 -55 -143t-156 -60t-149 57.5t-56 119.5h131q18 -61 76 -62q35 0 56.5 22.5t21.5 59.5t-22.5 57.5t-59.5 20.5t-57 -37h-111v182q-295 34 -472 246t-177 505z" />
    <glyph glyph-name="Egrave" unicode="&#xc8;" horiz-adv-x="1116" 
d="M293 1778l106 174l510 -281l-106 -174zM150 0v1434h827v-211h-592v-406h592v-211h-592v-395h592v-211h-827z" />
    <glyph glyph-name="Eacute" unicode="&#xc9;" horiz-adv-x="1116" 
d="M252 1708l510 281l106 -174l-510 -281zM150 0v1434h827v-211h-592v-406h592v-211h-592v-395h592v-211h-827z" />
    <glyph glyph-name="Ecircumflex" unicode="&#xca;" horiz-adv-x="1116" 
d="M205 1694l366 297l371 -297l-139 -156l-230 184l-227 -182zM150 0v1434h827v-211h-592v-406h592v-211h-592v-395h592v-211h-827z" />
    <glyph glyph-name="Edieresis" unicode="&#xcb;" horiz-adv-x="1116" 
d="M666 1752q0 69 48 117t116 48t116.5 -48t48.5 -117t-48 -117t-117 -48t-116.5 48t-47.5 117zM197 1752q0 69 48.5 117t116.5 48t116 -48t48 -117t-48 -117t-117 -48t-116.5 48t-47.5 117zM150 0v1434h827v-211h-592v-406h592v-211h-592v-395h592v-211h-827z" />
    <glyph glyph-name="Igrave" unicode="&#xcc;" horiz-adv-x="542" 
d="M150 0v1434h243v-1434h-243zM-37 1776l107 174l510 -281l-107 -174z" />
    <glyph glyph-name="Iacute" unicode="&#xcd;" horiz-adv-x="542" 
d="M150 0v1434h243v-1434h-243zM-37 1669l510 281l107 -174l-510 -281z" />
    <glyph glyph-name="Icircumflex" unicode="&#xce;" horiz-adv-x="542" 
d="M150 0v1434h243v-1434h-243zM-96 1694l366 297l371 -297l-139 -156l-230 184l-227 -182z" />
    <glyph glyph-name="Idieresis" unicode="&#xcf;" horiz-adv-x="542" 
d="M367 1752q0 69 48.5 117t116.5 48t116 -48t48 -117t-48 -117t-117 -48t-116.5 48t-47.5 117zM150 0v1434h243v-1434h-243zM-102 1752q0 69 48 117t116 48t116.5 -48t48.5 -117t-48 -117t-117 -48t-116.5 48t-47.5 117z" />
    <glyph glyph-name="Eth" unicode="&#xd0;" horiz-adv-x="1435" 
d="M385 211h229q231 0 366.5 150.5t135.5 354.5t-135.5 355.5t-366.5 151.5h-229v-406h254v-199h-254v-407zM-94 618v199h244v617h464q176 0 314.5 -61.5t233.5 -162t145.5 -229.5t50.5 -264t-50.5 -264t-145.5 -229.5t-233 -162t-315 -61.5h-464v618h-244z" />
    <glyph glyph-name="Ntilde" unicode="&#xd1;" horiz-adv-x="1359" 
d="M815 1626q-35 0 -146 26.5t-152 26.5t-134 -43l-96 146q114 73 154.5 75.5t58.5 2.5q32 0 144 -28t154 -28t152 56l88 -142q-112 -92 -223 -92zM150 0v1434h258l567 -1020v1020h235v-1434h-258l-567 1020v-1020h-235z" />
    <glyph glyph-name="Ograve" unicode="&#xd2;" horiz-adv-x="1638" 
d="M547 1815l106 174l510 -281l-106 -174zM819 176q221 0 357.5 161t136.5 380t-137 379.5t-357 160.5t-356.5 -159.5t-136.5 -380t136 -381t357 -160.5zM78 716q0 146 51 282.5t146.5 240.5t233.5 166.5t310 62.5t310.5 -62.5t233.5 -166.5t146.5 -240.5t51.5 -281.5
t-51.5 -281.5t-146.5 -241t-233.5 -167t-310.5 -62.5t-310 62.5t-233.5 167t-146.5 240t-51 281.5z" />
    <glyph glyph-name="Oacute" unicode="&#xd3;" horiz-adv-x="1638" 
d="M467 1708l510 281l106 -174l-510 -281zM819 176q221 0 357.5 161t136.5 380t-137 379.5t-357 160.5t-356.5 -159.5t-136.5 -380t136 -381t357 -160.5zM78 716q0 146 51 282.5t146.5 240.5t233.5 166.5t310 62.5t310.5 -62.5t233.5 -166.5t146.5 -240.5t51.5 -281.5
t-51.5 -281.5t-146.5 -241t-233.5 -167t-310.5 -62.5t-310 62.5t-233.5 167t-146.5 240t-51 281.5z" />
    <glyph glyph-name="Ocircumflex" unicode="&#xd4;" horiz-adv-x="1638" 
d="M453 1694l366 297l371 -297l-139 -156l-230 184l-227 -182zM819 176q221 0 357.5 161t136.5 380t-137 379.5t-357 160.5t-356.5 -159.5t-136.5 -380t136 -381t357 -160.5zM78 716q0 146 51 282.5t146.5 240.5t233.5 166.5t310 62.5t310.5 -62.5t233.5 -166.5
t146.5 -240.5t51.5 -281.5t-51.5 -281.5t-146.5 -241t-233.5 -167t-310.5 -62.5t-310 62.5t-233.5 167t-146.5 240t-51 281.5z" />
    <glyph glyph-name="Otilde" unicode="&#xd5;" horiz-adv-x="1638" 
d="M971 1626q-36 0 -147 26.5t-152 26.5t-133 -43l-97 146q114 73 155.5 75.5t58.5 2.5q32 0 144 -28t154 -28t152 56l88 -142q-112 -92 -223 -92zM819 176q221 0 357.5 161t136.5 380t-137 379.5t-357 160.5t-356.5 -159.5t-136.5 -380t136 -381t357 -160.5zM78 716
q0 146 51 282.5t146.5 240.5t233.5 166.5t310 62.5t310.5 -62.5t233.5 -166.5t146.5 -240.5t51.5 -281.5t-51.5 -281.5t-146.5 -241t-233.5 -167t-310.5 -62.5t-310 62.5t-233.5 167t-146.5 240t-51 281.5z" />
    <glyph glyph-name="Odieresis" unicode="&#xd6;" horiz-adv-x="1638" 
d="M889 1752q0 69 48 117t117 48t117 -48t48 -117t-48.5 -117t-116.5 -48t-116.5 48t-48.5 117zM420 1752q0 69 48 117t117 48t117 -48t48 -117t-48 -117t-117 -48t-117 48t-48 117zM462 336.5q136 -160.5 357 -160.5t357.5 161t136.5 380t-137 379.5t-357 160.5
t-356.5 -159.5t-136.5 -380t136 -381zM78 716q0 146 51 282.5t146.5 240.5t233.5 166.5t310 62.5t310.5 -62.5t233.5 -166.5t146.5 -240.5t51.5 -281.5t-51.5 -281.5t-146.5 -241t-233.5 -167t-310.5 -62.5t-310 62.5t-233.5 167t-146.5 240t-51 281.5z" />
    <glyph glyph-name="multiply" unicode="&#xd7;" 
d="M221 371l221 221l-211 213l140 141l213 -213l223 223l158 -157l-224 -224l215 -215l-141 -139l-213 213l-223 -221z" />
    <glyph glyph-name="Oslash" unicode="&#xd8;" horiz-adv-x="1638" 
d="M847 176q87 0 178 45t189.5 161t98.5 335q0 127 -49.5 240.5t-141.5 191.5l-413 -961q51 -12 138 -12zM326 706q0 -116 48 -230t140 -191l412 960q-50 12 -136 12t-177 -45t-155.5 -120.5t-98 -172.5t-33.5 -213zM78 691q0 171 51 307.5t146.5 240.5t233.5 166.5
t310 62.5q102 0 193 -24l84 194l200 -86l-84 -190q166 -104 257.5 -277t91.5 -343t-51.5 -306.5t-146.5 -241t-233.5 -167t-277.5 -62.5t-227 25l-72 -170l-199 84l70 168q-166 104 -256 276t-90 343z" />
    <glyph glyph-name="Ugrave" unicode="&#xd9;" horiz-adv-x="1310" 
d="M377 1815l106 174l510 -281l-106 -174zM139 479v955h236v-955q0 -128 78 -215.5t201 -87.5t202.5 88t79.5 215v955h235v-955q0 -215 -143.5 -364.5t-371.5 -149.5q-229 0 -373 150t-144 364z" />
    <glyph glyph-name="Uacute" unicode="&#xda;" horiz-adv-x="1310" 
d="M297 1708l510 281l106 -174l-510 -281zM139 479v955h236v-955q0 -128 78 -215.5t201 -87.5t202.5 88t79.5 215v955h235v-955q0 -215 -143.5 -364.5t-371.5 -149.5q-229 0 -373 150t-144 364z" />
    <glyph glyph-name="Ucircumflex" unicode="&#xdb;" horiz-adv-x="1310" 
d="M276 1694l367 297l371 -297l-140 -156l-229 184l-227 -182zM139 479v955h236v-955q0 -128 78 -215.5t201 -87.5t202.5 88t79.5 215v955h235v-955q0 -215 -143.5 -364.5t-371.5 -149.5q-229 0 -373 150t-144 364z" />
    <glyph glyph-name="Udieresis" unicode="&#xdc;" horiz-adv-x="1310" 
d="M723 1752q0 69 48 117t117 48t117 -48t48 -117t-48.5 -117t-116.5 -48t-116.5 48t-48.5 117zM254 1752q0 69 48 117t117 48t117 -48t48 -117t-49 -117t-117 -48t-116 48t-48 117zM139 479v955h236v-955q0 -128 78 -215.5t201 -87.5t202.5 88t79.5 215v955h235v-955
q0 -215 -143.5 -364.5t-371.5 -149.5q-229 0 -373 150t-144 364z" />
    <glyph glyph-name="Yacute" unicode="&#xdd;" horiz-adv-x="1232" 
d="M391 1708l510 281l107 -174l-510 -281zM23 1434h272l383 -617l307 617h258l-711 -1434h-258l285 573z" />
    <glyph glyph-name="Thorn" unicode="&#xde;" horiz-adv-x="1026" 
d="M360 434h123q123 0 197 80t74 192t-74 192.5t-197 80.5h-123v-545zM150 0v1434h210v-269h123q221 0 351.5 -137t130.5 -321.5t-130.5 -321.5t-351.5 -137h-123v-248h-210z" />
    <glyph glyph-name="germandbls" unicode="&#xdf;" horiz-adv-x="1157" 
d="M852 416q0 82 -65 158.5t-195 76.5h-80v199h74q178 0 204.5 86t26.5 150.5t-69.5 119t-164.5 54.5t-158 -70t-63 -180v-1010h-223v1010q0 198 125 323t317 125t325.5 -110t133.5 -283q0 -129 -58 -201.5t-153 -113.5q163 -60 204.5 -166.5t41.5 -194.5t-43 -172
t-143.5 -163t-288.5 -79q-92 0 -158 25v193q93 -19 148 -19q110 0 186 62.5t76 179.5z" />
    <glyph glyph-name="agrave" unicode="&#xe0;" horiz-adv-x="1234" 
d="M301 478q0 -62 19.5 -117.5t56.5 -96.5t88.5 -65.5t114.5 -24.5t115.5 24.5t89 65.5t57 96.5t20.5 116.5t-20.5 116.5t-57 96.5t-89 65.5t-115.5 24.5t-114.5 -24.5t-88.5 -65.5t-56.5 -95.5t-19.5 -116.5zM266 1294l107 174l510 -280l-107 -174zM215.5 830.5
q137.5 148.5 351.5 148.5q84 0 167 -41t128 -113v129h223v-954h-223v129q-45 -72 -128.5 -113t-179.5 -41t-185.5 40t-190 149t-100.5 314q0 204 137.5 352.5z" />
    <glyph glyph-name="aacute" unicode="&#xe1;" horiz-adv-x="1234" 
d="M301 478q0 -62 19.5 -117.5t56.5 -96.5t88.5 -65.5t114.5 -24.5t115.5 24.5t89 65.5t57 96.5t20.5 116.5t-20.5 116.5t-57 96.5t-89 65.5t-115.5 24.5t-114.5 -24.5t-88.5 -65.5t-56.5 -95.5t-19.5 -116.5zM207 1188l510 280l106 -174l-510 -280zM215.5 830.5
q137.5 148.5 351.5 148.5q84 0 167 -41t128 -113v129h223v-954h-223v129q-45 -72 -128.5 -113t-179.5 -41t-185.5 40t-190 149t-100.5 314q0 204 137.5 352.5z" />
    <glyph glyph-name="acircumflex" unicode="&#xe2;" horiz-adv-x="1234" 
d="M301 478q0 -62 19.5 -117.5t56.5 -96.5t88.5 -65.5t114.5 -24.5t115.5 24.5t89 65.5t57 96.5t20.5 116.5t-20.5 116.5t-57 96.5t-89 65.5t-115.5 24.5t-114.5 -24.5t-88.5 -65.5t-56.5 -95.5t-19.5 -116.5zM213 1212l367 297l370 -297l-139 -155l-229 184l-228 -182z
M215.5 830.5q137.5 148.5 351.5 148.5q84 0 167 -41t128 -113v129h223v-954h-223v129q-45 -72 -128.5 -113t-179.5 -41t-185.5 40t-190 149t-100.5 314q0 204 137.5 352.5z" />
    <glyph glyph-name="atilde" unicode="&#xe3;" horiz-adv-x="1234" 
d="M301 478q0 -62 19.5 -117.5t56.5 -96.5t88.5 -65.5t114.5 -24.5t115.5 24.5t89 65.5t57 96.5t20.5 116.5t-20.5 116.5t-57 96.5t-89 65.5t-115.5 24.5t-114.5 -24.5t-88.5 -65.5t-56.5 -95.5t-19.5 -116.5zM739 1200q-27 0 -143.5 26.5t-155.5 26.5t-133 -43l-96 146
q114 73 155.5 75.5t58.5 2.5q31 0 143 -28t156 -28t150 56l89 -142q-112 -92 -224 -92zM215.5 830.5q137.5 148.5 351.5 148.5q84 0 167 -41t128 -113v129h223v-954h-223v129q-45 -72 -128.5 -113t-179.5 -41t-185.5 40t-190 149t-100.5 314q0 204 137.5 352.5z" />
    <glyph glyph-name="adieresis" unicode="&#xe4;" horiz-adv-x="1234" 
d="M647 1258q0 68 48 116.5t117 48.5t117 -48t48 -117t-48 -116.5t-117 -47.5t-117 48t-48 116zM301 477q0 -129 78.5 -216t201.5 -87t202 88.5t79 214.5t-79 214.5t-202 88.5t-201.5 -87t-78.5 -216zM178 1258q0 68 48 116.5t117 48.5t117 -48t48 -117t-48 -116.5
t-117 -47.5t-117 48t-48 116zM215.5 830.5q137.5 148.5 351.5 148.5q84 0 167 -41t128 -113v129h223v-954h-223v129q-45 -72 -128.5 -113t-179.5 -41t-185.5 40t-190 149t-100.5 314q0 204 137.5 352.5z" />
    <glyph glyph-name="aring" unicode="&#xe5;" horiz-adv-x="1234" 
d="M522 1295q0 -36 26.5 -62.5t63.5 -26.5t63.5 27t26.5 63t-25.5 63t-64.5 27t-64.5 -27.5t-25.5 -63.5zM434.5 1473q74.5 73 176.5 73q103 0 178 -73t75 -178t-75 -179t-176 -74q-102 0 -177.5 73.5t-75.5 179t74.5 178.5zM301 478q0 -62 19.5 -117.5t56.5 -96.5
t88.5 -65.5t114.5 -24.5t115.5 24.5t89 65.5t57 96.5t20.5 116.5t-20.5 116.5t-57 96.5t-89 65.5t-115.5 24.5t-114.5 -24.5t-88.5 -65.5t-56.5 -95.5t-19.5 -116.5zM215.5 830.5q137.5 148.5 351.5 148.5q84 0 167 -41t128 -113v129h223v-954h-223v129q-45 -72 -128.5 -113
t-179.5 -41t-185.5 40t-190 149t-100.5 314q0 204 137.5 352.5z" />
    <glyph glyph-name="ae" unicode="&#xe6;" horiz-adv-x="1867" 
d="M1092 575h467q0 98 -65 158t-165 60t-168.5 -55.5t-68.5 -162.5zM783 262.5q79 88.5 79 215.5t-78 214.5t-202 87.5t-202.5 -87t-78.5 -216t78.5 -216t201.5 -87t202 88.5zM1085 0h-223v129q-45 -72 -128.5 -113t-179.5 -41t-185.5 40t-190 149t-100.5 314t137.5 353
t351.5 148q84 0 167 -41t128 -113v129h223v-36q107 61 224 61q210 0 338.5 -123.5t128.5 -306.5q0 -82 -11 -139h-675q0 -172 91 -210t148 -38q97 0 143 32.5t70 92.5h225q-26 -132 -140 -222t-311 -90q-116 0 -231 64v-39z" />
    <glyph glyph-name="ccedilla" unicode="&#xe7;" horiz-adv-x="1093" 
d="M884 870.5q113 -108.5 126 -264.5h-224q-10 78 -60 126t-169 48t-185.5 -86.5t-66.5 -216.5q0 -208 99.5 -255.5t183.5 -47.5q152 0 200 154h224q-39 -234 -178.5 -289t-233.5 -62v-63q27 27 65 27q71 0 122 -49t51 -128t-55.5 -138.5t-156.5 -59.5q-102 0 -149 57.5
t-55 118.5h131q18 -61 76 -61q35 0 56.5 22.5t21.5 58.5t-22.5 57t-59.5 21t-58 -37h-110v183q-178 35 -276.5 171.5t-98.5 332.5t127.5 342.5t344.5 146.5t330 -108.5z" />
    <glyph glyph-name="egrave" unicode="&#xe8;" horiz-adv-x="1087" 
d="M311 575h467q0 100 -64.5 159t-164.5 59t-169 -55.5t-69 -162.5zM297 1294l106 174l510 -280l-106 -174zM995 555q0 -86 -10 -145h-676q0 -173 91.5 -210.5t148.5 -37.5q97 0 143 32.5t70 92.5h225q-26 -131 -139.5 -221.5t-288.5 -90.5q-228 0 -352.5 146.5
t-124.5 360.5t124.5 355.5t346.5 141.5q185 0 313.5 -123t128.5 -301z" />
    <glyph glyph-name="eacute" unicode="&#xe9;" horiz-adv-x="1087" 
d="M311 575h467q0 100 -64.5 159t-164.5 59t-169 -55.5t-69 -162.5zM229 1188l510 280l107 -174l-510 -280zM995 555q0 -86 -10 -145h-676q0 -173 91.5 -210.5t148.5 -37.5q97 0 143 32.5t70 92.5h225q-26 -131 -139.5 -221.5t-288.5 -90.5q-228 0 -352.5 146.5
t-124.5 360.5t124.5 355.5t346.5 141.5q185 0 313.5 -123t128.5 -301z" />
    <glyph glyph-name="ecircumflex" unicode="&#xea;" horiz-adv-x="1087" 
d="M311 575h467q0 100 -64.5 159t-164.5 59t-169 -55.5t-69 -162.5zM182 1212l367 297l371 -297l-140 -155l-229 184l-227 -182zM995 555q0 -86 -10 -145h-676q0 -173 91.5 -210.5t148.5 -37.5q97 0 143 32.5t70 92.5h225q-26 -131 -139.5 -221.5t-288.5 -90.5
q-228 0 -352.5 146.5t-124.5 360.5t124.5 355.5t346.5 141.5q185 0 313.5 -123t128.5 -301z" />
    <glyph glyph-name="edieresis" unicode="&#xeb;" horiz-adv-x="1087" 
d="M618 1258q0 69 49 117t117 48t116 -48t48 -117t-48 -116.5t-117 -47.5t-117 47.5t-48 116.5zM311 575h467q0 100 -64.5 159t-164.5 59t-169 -55.5t-69 -162.5zM150 1258q0 69 48 117t116 48t116.5 -48t48.5 -117t-48 -116.5t-117 -47.5t-116.5 47.5t-47.5 116.5zM995 555
q0 -86 -10 -145h-676q0 -173 91.5 -210.5t148.5 -37.5q97 0 143 32.5t70 92.5h225q-26 -131 -139.5 -221.5t-288.5 -90.5q-228 0 -352.5 146.5t-124.5 360.5t124.5 355.5t346.5 141.5q185 0 313.5 -123t128.5 -301z" />
    <glyph glyph-name="igrave" unicode="&#xec;" horiz-adv-x="612" 
d="M195 0v954h223v-954h-223zM-2 1335l106 174l510 -280l-106 -174z" />
    <glyph glyph-name="iacute" unicode="&#xed;" horiz-adv-x="612" 
d="M195 0v954h223v-954h-223zM-2 1229l510 280l106 -174l-510 -280z" />
    <glyph glyph-name="icircumflex" unicode="&#xee;" horiz-adv-x="612" 
d="M197 0v954h223v-954h-223zM-61 1212l366 297l371 -297l-139 -155l-230 184l-227 -182z" />
    <glyph glyph-name="idieresis" unicode="&#xef;" horiz-adv-x="612" 
d="M377 1258q0 69 48 117t117 48t117 -48t48 -117t-48.5 -116.5t-116.5 -47.5t-116.5 47.5t-48.5 116.5zM172 0v954h223v-954h-223zM-92 1258q0 69 48 117t117 48t117 -48t48 -117t-49 -116.5t-117 -47.5t-116 47.5t-48 116.5z" />
    <glyph glyph-name="eth" unicode="&#xf0;" horiz-adv-x="1159" 
d="M301 478q0 -62 19.5 -117.5t56.5 -96.5t88.5 -65.5t114.5 -24.5t115.5 24.5t89 65.5t57 96.5t20.5 116.5t-20.5 116.5t-57 96.5t-89 65.5t-115.5 24.5t-114.5 -24.5t-88.5 -65.5t-56.5 -95.5t-19.5 -116.5zM217 831.5q139 147.5 363 147.5h18l-57 92l-209 -110l-88 165
l192 105l-123 203h271l55 -95l178 95l90 -166l-168 -88l254 -406q92 -148 92 -297q0 -207 -140 -354.5t-364.5 -147.5t-363.5 148.5t-139 354.5t139 353.5z" />
    <glyph glyph-name="ntilde" unicode="&#xf1;" horiz-adv-x="1165" 
d="M725 1200q-27 0 -143.5 26.5t-155.5 26.5t-133 -43l-96 146q114 73 154.5 75.5t58.5 2.5q32 0 144 -28t154 -28t152 56l88 -142q-112 -92 -223 -92zM809 494q0 288 -207 288q-117 0 -173 -83t-56 -205v-494h-223v954h223v-133q91 158 300 158t298 -129q61 -92 61 -283
v-567h-223v494z" />
    <glyph glyph-name="ograve" unicode="&#xf2;" horiz-adv-x="1163" 
d="M301 478q0 -62 19.5 -117.5t56.5 -96.5t88.5 -65.5t114.5 -24.5t115.5 24.5t89 65.5t57 96.5t20.5 116.5t-20.5 116.5t-57 96.5t-89 65.5t-115.5 24.5t-114.5 -24.5t-88.5 -65.5t-56.5 -95.5t-19.5 -116.5zM293 1294l106 174l510 -280l-106 -174zM944.5 832.5
q140.5 -146.5 140.5 -354.5t-140 -355.5t-364.5 -147.5t-363.5 148.5t-139 354.5t139 353.5t363 147.5t364.5 -146.5z" />
    <glyph glyph-name="oacute" unicode="&#xf3;" horiz-adv-x="1163" 
d="M301 478q0 -62 19.5 -117.5t56.5 -96.5t88.5 -65.5t114.5 -24.5t115.5 24.5t89 65.5t57 96.5t20.5 116.5t-20.5 116.5t-57 96.5t-89 65.5t-115.5 24.5t-114.5 -24.5t-88.5 -65.5t-56.5 -95.5t-19.5 -116.5zM213 1188l510 280l106 -174l-510 -280zM944.5 832.5
q140.5 -146.5 140.5 -354.5t-140 -355.5t-364.5 -147.5t-363.5 148.5t-139 354.5t139 353.5t363 147.5t364.5 -146.5z" />
    <glyph glyph-name="ocircumflex" unicode="&#xf4;" horiz-adv-x="1163" 
d="M301 478q0 -62 19.5 -117.5t56.5 -96.5t88.5 -65.5t114.5 -24.5t115.5 24.5t89 65.5t57 96.5t20.5 116.5t-20.5 116.5t-57 96.5t-89 65.5t-115.5 24.5t-114.5 -24.5t-88.5 -65.5t-56.5 -95.5t-19.5 -116.5zM215 1212l367 297l370 -297l-139 -155l-229 184l-228 -182z
M944.5 832.5q140.5 -146.5 140.5 -354.5t-140 -355.5t-364.5 -147.5t-363.5 148.5t-139 354.5t139 353.5t363 147.5t364.5 -146.5z" />
    <glyph glyph-name="otilde" unicode="&#xf5;" horiz-adv-x="1163" 
d="M301 478q0 -62 19.5 -117.5t56.5 -96.5t88.5 -65.5t114.5 -24.5t115.5 24.5t89 65.5t57 96.5t20.5 116.5t-20.5 116.5t-57 96.5t-89 65.5t-115.5 24.5t-114.5 -24.5t-88.5 -65.5t-56.5 -95.5t-19.5 -116.5zM717 1149q-36 0 -147 26.5t-151 26.5t-134 -43l-97 146
q112 72 154.5 74.5t59.5 2.5q39 0 144 -27.5t132 -27.5q44 0 73.5 10t100.5 45l88 -141q-112 -92 -223 -92zM944.5 832.5q140.5 -146.5 140.5 -354.5t-140 -355.5t-364.5 -147.5t-363.5 148.5t-139 354.5t139 353.5t363 147.5t364.5 -146.5z" />
    <glyph glyph-name="odieresis" unicode="&#xf6;" horiz-adv-x="1163" 
d="M651 1258q0 69 48.5 117t116.5 48t116.5 -48t48.5 -117t-48 -116.5t-117 -47.5t-117 47.5t-48 116.5zM301 478q0 -62 19.5 -117.5t56.5 -96.5t88.5 -65.5t114.5 -24.5t115.5 24.5t89 65.5t57 96.5t20.5 116.5t-20.5 116.5t-57 96.5t-89 65.5t-115.5 24.5t-114.5 -24.5
t-88.5 -65.5t-56.5 -95.5t-19.5 -116.5zM182 1258q0 68 49 116.5t117 48.5t116 -48t48 -117t-48 -116.5t-117 -47.5t-117 48t-48 116zM944.5 832.5q140.5 -146.5 140.5 -354.5t-140 -355.5t-364.5 -147.5t-363.5 148.5t-139 354.5t139 353.5t363 147.5t364.5 -146.5z" />
    <glyph glyph-name="divide" unicode="&#xf7;" 
d="M430 826q0 69 48 117t117 48t117 -48t48 -117t-48 -116.5t-117 -47.5t-117 47.5t-48 116.5zM430 153q0 69 48 116.5t117 47.5t117 -48.5t48 -116.5t-48 -116t-117 -48t-117 48t-48 117zM180 381v199h828v-199h-828z" />
    <glyph glyph-name="oslash" unicode="&#xf8;" horiz-adv-x="1163" 
d="M580 174q124 0 203 88.5t79 217t-80 212.5l-221 -518h19zM580 780q-122 0 -200.5 -87t-78.5 -214t74 -213l221 514h-16zM548 979q84 0 130 -8l74 170l188 -82l-70 -164q102 -70 158.5 -179.5t56.5 -225.5q0 -221 -140 -368t-365 -147q-49 0 -101 11l-73 -168l-189 82
l70 161q-98 70 -153.5 178.5t-55.5 222.5t36 206t101.5 161.5t157 109.5t175.5 40z" />
    <glyph glyph-name="ugrave" unicode="&#xf9;" horiz-adv-x="1165" 
d="M274 1294l107 174l510 -280l-107 -174zM133 387v567h223v-493q0 -289 207 -289q117 0 173.5 83t56.5 206v493h223v-954h-223v133q-91 -158 -300 -158t-298 129q-62 94 -62 283z" />
    <glyph glyph-name="uacute" unicode="&#xfa;" horiz-adv-x="1165" 
d="M262 1188l510 280l107 -174l-510 -280zM133 387v567h223v-493q0 -289 207 -289q117 0 173.5 83t56.5 206v493h223v-954h-223v133q-91 -158 -300 -158t-298 129q-62 94 -62 283z" />
    <glyph glyph-name="ucircumflex" unicode="&#xfb;" horiz-adv-x="1165" 
d="M197 1212l366 297l371 -297l-139 -155l-230 184l-227 -182zM133 387v567h223v-493q0 -289 207 -289q117 0 173.5 83t56.5 206v493h223v-954h-223v133q-91 -158 -300 -158t-298 129q-62 94 -62 283z" />
    <glyph glyph-name="udieresis" unicode="&#xfc;" horiz-adv-x="1165" 
d="M647 1258q0 69 48 117t117 48t117 -48t48 -117t-48 -116.5t-117 -47.5t-117 47.5t-48 116.5zM178 1258q0 69 48 117t117 48t117 -48t48 -117t-48 -116.5t-117 -47.5t-117 47.5t-48 116.5zM133 387v567h223v-493q0 -289 207 -289q117 0 173.5 83t56.5 206v493h223v-954
h-223v133q-91 -158 -300 -158t-298 129q-62 94 -62 283z" />
    <glyph glyph-name="yacute" unicode="&#xfd;" horiz-adv-x="1183" 
d="M287 1188l510 280l106 -174l-510 -280zM381 461q0 -289 207 -289q117 0 173 83t56 206v493h223v-999q0 -244 -127.5 -350.5t-363.5 -106.5q-179 0 -297.5 116.5t-118.5 276.5h217q2 -80 56.5 -137t173.5 -57t178 58.5t59 199.5v178q-91 -158 -300 -158t-298 129
q-61 92 -61 283v567h223v-493z" />
    <glyph glyph-name="thorn" unicode="&#xfe;" horiz-adv-x="1226" 
d="M451 261.5q78 -87.5 202 -87.5t202.5 87t78.5 216t-78.5 216t-202.5 87t-202 -87.5t-78 -215.5t78 -215.5zM150 -479v1913h223v-609q45 72 128 113t179 41t186 -40t190.5 -148.5t100.5 -312.5q0 -205 -137.5 -354t-351.5 -149q-84 0 -167 41t-128 113v-608h-223z" />
    <glyph glyph-name="ydieresis" unicode="&#xff;" horiz-adv-x="1183" 
d="M690 1257q0 66 45 112t111 46t112 -46t46 -112t-46 -110.5t-112 -44.5t-111 44.5t-45 110.5zM221 1257q0 66 45 112t111 46t112 -46t46 -112t-46.5 -110.5t-112.5 -44.5t-110.5 44.5t-44.5 110.5zM381 461q0 -289 207 -289q117 0 173 83t56 206v493h223v-999
q0 -244 -127.5 -350.5t-363.5 -106.5q-179 0 -297.5 116.5t-118.5 276.5h217q2 -80 56.5 -137t173.5 -57t178 58.5t59 199.5v178q-91 -158 -300 -158t-298 129q-61 92 -61 283v567h223v-493z" />
    <glyph glyph-name="Amacron" unicode="&#x100;" horiz-adv-x="1169" 
d="M387 393h395l-196 649zM217 1645v198h733v-198h-733zM6 0l496 1434h166l495 -1434h-248l-61 182h-539l-61 -182h-248z" />
    <glyph glyph-name="amacron" unicode="&#x101;" horiz-adv-x="1234" 
d="M301 478q0 -62 19.5 -117.5t56.5 -96.5t88.5 -65.5t114.5 -24.5t115.5 24.5t89 65.5t57 96.5t20.5 116.5t-20.5 116.5t-57 96.5t-89 65.5t-115.5 24.5t-114.5 -24.5t-88.5 -65.5t-56.5 -95.5t-19.5 -116.5zM199 1159v199h733v-199h-733zM215.5 830.5
q137.5 148.5 351.5 148.5q84 0 167 -41t128 -113v129h223v-954h-223v129q-45 -72 -128.5 -113t-179.5 -41t-185.5 40t-190 149t-100.5 314q0 204 137.5 352.5z" />
    <glyph glyph-name="Abreve" unicode="&#x102;" horiz-adv-x="1169" 
d="M387 393h395l-196 649zM584 1722q78 0 129 34t73 87h211q-16 -133 -137 -226t-275 -93t-272.5 91.5t-142.5 227.5h209q51 -121 205 -121zM6 0l496 1434h166l495 -1434h-248l-61 182h-539l-61 -182h-248z" />
    <glyph glyph-name="abreve" unicode="&#x103;" horiz-adv-x="1234" 
d="M301 478q0 -62 19.5 -117.5t56.5 -96.5t88.5 -65.5t114.5 -24.5t115.5 24.5t89 65.5t57 96.5t20.5 116.5t-20.5 116.5t-57 96.5t-89 65.5t-115.5 24.5t-114.5 -24.5t-88.5 -65.5t-56.5 -95.5t-19.5 -116.5zM555 1313q78 0 129 33.5t74 87.5h211q-16 -135 -137.5 -227.5
t-276.5 -92.5q-154 0 -270.5 90.5t-143.5 229.5h209q51 -121 205 -121zM215.5 830.5q137.5 148.5 351.5 148.5q84 0 167 -41t128 -113v129h223v-954h-223v129q-45 -72 -128.5 -113t-179.5 -41t-185.5 40t-190 149t-100.5 314q0 204 137.5 352.5z" />
    <glyph glyph-name="Aogonek" unicode="&#x104;" horiz-adv-x="1169" 
d="M387 393h395l-196 649zM973 -434q-101 0 -160 58t-59 132t40 129.5t121 114.5l-61 182h-539l-61 -182h-248l496 1434h166l495 -1434h-82q-56 -39 -85 -71.5t-29 -82.5q0 -49 24.5 -81.5t75.5 -32.5t109 24v-159q-102 -31 -203 -31z" />
    <glyph glyph-name="aogonek" unicode="&#x105;" horiz-adv-x="1234" 
d="M301 478q0 -62 19.5 -117.5t56.5 -96.5t88.5 -65.5t114.5 -24.5t115.5 24.5t89 65.5t57 96.5t20.5 116.5t-20.5 116.5t-57 96.5t-89 65.5t-115.5 24.5t-114.5 -24.5t-88.5 -65.5t-56.5 -95.5t-19.5 -116.5zM919 -434q-100 0 -159.5 58t-59.5 132t40 129.5t122 114.5v129
q-45 -72 -128.5 -113t-179.5 -41t-185.5 40t-190 149t-100.5 314t137.5 353t351.5 148q84 0 167 -41t128 -113v129h223v-954h-57q-56 -39 -85.5 -72.5t-29.5 -81.5q0 -49 24.5 -81.5t76.5 -32.5t108 24v-159q-103 -31 -203 -31z" />
    <glyph glyph-name="Cacute" unicode="&#x106;" horiz-adv-x="1587" 
d="M485 1708l510 281l107 -174l-510 -281zM78 716q0 311 203 531.5t516 220.5t496.5 -155t217.5 -402h-247q-24 151 -140 248.5t-286 97.5q-239 0 -379 -159.5t-140 -382.5q0 -224 144 -381.5t399 -157.5q127 0 241.5 82t149.5 203h258q-52 -215 -235 -355.5t-445 -140.5
q-338 0 -493.5 165t-207.5 301.5t-52 284.5z" />
    <glyph glyph-name="cacute" unicode="&#x107;" horiz-adv-x="1093" 
d="M238 1188l510 280l106 -174l-510 -280zM82 476q0 97 30.5 188.5t91 161t148.5 111.5t253.5 42t278.5 -108.5t126 -264.5h-224q-10 78 -60 126t-169 48t-185.5 -86.5t-66.5 -216.5q0 -208 99.5 -255.5t183.5 -47.5q152 0 200 154h224q-40 -247 -194 -300t-265 -53t-200 42
t-149.5 112t-91 160t-30.5 187z" />
    <glyph glyph-name="Ccircumflex" unicode="&#x108;" horiz-adv-x="1587" 
d="M442 1696l369 297l369 -297l-140 -156l-229 184l-227 -182zM78 716q0 311 203 531.5t516 220.5t496.5 -155t217.5 -402h-247q-24 151 -140 248.5t-286 97.5q-239 0 -379 -159.5t-140 -382.5q0 -224 144 -381.5t399 -157.5q127 0 241.5 82t149.5 203h258
q-52 -215 -235 -355.5t-445 -140.5q-338 0 -493.5 165t-207.5 301.5t-52 284.5z" />
    <glyph glyph-name="ccircumflex" unicode="&#x109;" horiz-adv-x="1093" 
d="M178 1212l369 297l368 -297l-139 -155l-229 184l-228 -182zM82 476q0 97 30.5 188.5t91 161t148.5 111.5t253.5 42t278.5 -108.5t126 -264.5h-224q-10 78 -60 126t-169 48t-185.5 -86.5t-66.5 -216.5q0 -208 99.5 -255.5t183.5 -47.5q152 0 200 154h224
q-40 -247 -194 -300t-265 -53t-200 42t-149.5 112t-91 160t-30.5 187z" />
    <glyph glyph-name="Cdotaccent" unicode="&#x10a;" horiz-adv-x="1587" 
d="M643 1773q0 69 48 116.5t117 47.5t117 -48.5t48 -116.5t-48 -116t-117 -48t-117 48t-48 117zM78 716q0 311 203 531.5t516 220.5t496.5 -155t217.5 -402h-247q-24 151 -140 248.5t-286 97.5q-239 0 -379 -159.5t-140 -382.5q0 -224 144 -381.5t399 -157.5q127 0 241.5 82
t149.5 203h258q-52 -215 -235 -355.5t-445 -140.5q-338 0 -493.5 165t-207.5 301.5t-52 284.5z" />
    <glyph glyph-name="cdotaccent" unicode="&#x10b;" horiz-adv-x="1093" 
d="M395 1256q0 69 48.5 117t116.5 48t116.5 -48t48.5 -117t-48 -116.5t-117 -47.5t-117 47.5t-48 116.5zM82 476q0 97 30.5 188.5t91 161t148.5 111.5t253.5 42t278.5 -108.5t126 -264.5h-224q-10 78 -60 126t-169 48t-185.5 -86.5t-66.5 -216.5q0 -208 99.5 -255.5
t183.5 -47.5q152 0 200 154h224q-40 -247 -194 -300t-265 -53t-200 42t-149.5 112t-91 160t-30.5 187z" />
    <glyph glyph-name="Ccaron" unicode="&#x10c;" horiz-adv-x="1587" 
d="M465 1835l119 156l207 -197l208 197l121 -156l-329 -297zM78 716q0 311 203 531.5t516 220.5t496.5 -155t217.5 -402h-247q-24 151 -140 248.5t-286 97.5q-239 0 -379 -159.5t-140 -382.5q0 -224 144 -381.5t399 -157.5q127 0 241.5 82t149.5 203h258
q-52 -215 -235 -355.5t-445 -140.5q-338 0 -493.5 165t-207.5 301.5t-52 284.5z" />
    <glyph glyph-name="ccaron" unicode="&#x10d;" horiz-adv-x="1093" 
d="M233 1354l119 155l207 -196l209 196l121 -155l-330 -297zM82 476q0 97 30.5 188.5t91 161t148.5 111.5t253.5 42t278.5 -108.5t126 -264.5h-224q-10 78 -60 126t-169 48t-185.5 -86.5t-66.5 -216.5q0 -208 99.5 -255.5t183.5 -47.5q152 0 200 154h224q-40 -247 -194 -300
t-265 -53t-200 42t-149.5 112t-91 160t-30.5 187z" />
    <glyph glyph-name="Dcaron" unicode="&#x10e;" horiz-adv-x="1435" 
d="M385 211h229q231 0 366.5 150.5t135.5 354.5t-135.5 355.5t-366.5 151.5h-229v-1012zM348 1835l119 156l207 -197l209 197l121 -156l-330 -297zM150 0v1434h464q178 0 316.5 -61.5t234 -162t144.5 -229.5t49 -264t-49 -264t-203 -291t-492 -162h-464z" />
    <glyph glyph-name="dcaron" unicode="&#x10f;" horiz-adv-x="1538" 
d="M1362 1196q-72 0 -115 44t-43 110t46 112.5t119 46.5t121 -55t48 -147q0 -180 -85 -253t-241 -75v100q90 0 135.5 35.5t55.5 91.5q-10 -10 -41 -10zM301 478q0 -62 19.5 -117.5t56.5 -96.5t88.5 -65.5t114.5 -24.5t115.5 24.5t89 65.5t57 96.5t20.5 116.5t-20.5 116.5
t-57 96.5t-89 65.5t-115.5 24.5t-114.5 -24.5t-88.5 -65.5t-56.5 -95.5t-19.5 -116.5zM215.5 830.5q137.5 148.5 351.5 148.5q84 0 167 -41t128 -113v609h223v-1434h-223v129q-45 -72 -128.5 -113t-179.5 -41t-185.5 40t-190 149t-100.5 314q0 204 137.5 352.5z" />
    <glyph glyph-name="Dcroat" unicode="&#x110;" horiz-adv-x="1435" 
d="M385 211h229q231 0 366.5 150.5t135.5 354.5t-135.5 355.5t-366.5 151.5h-229v-406h254v-199h-254v-407zM-94 618v199h244v617h464q178 0 316.5 -61.5t234 -162t144.5 -229.5t49 -264t-49 -264t-203 -291t-492 -162h-464v618h-244z" />
    <glyph glyph-name="dcroat" unicode="&#x111;" horiz-adv-x="1234" 
d="M301 478q0 -62 19.5 -117.5t56.5 -96.5t88.5 -65.5t114.5 -24.5t115.5 24.5t89 65.5t57 96.5t20.5 116.5t-20.5 116.5t-57 96.5t-89 65.5t-115.5 24.5t-114.5 -24.5t-88.5 -65.5t-56.5 -95.5t-19.5 -116.5zM215.5 830.5q137.5 148.5 351.5 148.5q84 0 167 -41t128 -113
v234h-172v198h172v177h223v-177h84v-198h-84v-1059h-223v129q-45 -72 -128.5 -113t-179.5 -41t-185.5 40t-190 149t-100.5 314q0 204 137.5 352.5z" />
    <glyph glyph-name="Emacron" unicode="&#x112;" horiz-adv-x="1116" 
d="M193 1645v198h733v-198h-733zM150 0v1434h827v-211h-592v-406h592v-211h-592v-395h592v-211h-827z" />
    <glyph glyph-name="emacron" unicode="&#x113;" horiz-adv-x="1087" 
d="M311 575h467q0 100 -64.5 159t-164.5 59t-169 -55.5t-69 -162.5zM178 1235v199h733v-199h-733zM995 555q0 -86 -10 -145h-676q0 -173 91.5 -210.5t148.5 -37.5q97 0 143 32.5t70 92.5h225q-26 -131 -139.5 -221.5t-288.5 -90.5q-228 0 -352.5 146.5t-124.5 360.5
t124.5 355.5t346.5 141.5q185 0 313.5 -123t128.5 -301z" />
    <glyph glyph-name="Ebreve" unicode="&#x114;" horiz-adv-x="1116" 
d="M150 0v1434h827v-211h-592v-406h592v-211h-592v-395h592v-211h-827zM559 1720q78 0 129 34t74 87h211q-16 -134 -137.5 -226.5t-276.5 -92.5q-154 0 -270.5 90.5t-143.5 228.5h209q51 -121 205 -121z" />
    <glyph glyph-name="ebreve" unicode="&#x115;" horiz-adv-x="1087" 
d="M311 575h467q0 100 -64.5 159t-164.5 59t-169 -55.5t-69 -162.5zM545 1313q78 0 129 33.5t74 87.5h210q-16 -135 -137 -227.5t-276 -92.5q-154 0 -272 91.5t-142 228.5h209q51 -121 205 -121zM995 555q0 -86 -10 -145h-676q0 -173 91.5 -210.5t148.5 -37.5q97 0 143 32.5
t70 92.5h225q-26 -131 -139.5 -221.5t-288.5 -90.5q-228 0 -352.5 146.5t-124.5 360.5t124.5 355.5t346.5 141.5q185 0 313.5 -123t128.5 -301z" />
    <glyph glyph-name="Edotaccent" unicode="&#x116;" horiz-adv-x="1116" 
d="M393 1773q0 69 48 116.5t117 47.5t117 -48.5t48 -116.5t-48 -116t-117 -48t-117 48t-48 117zM150 0v1434h827v-211h-592v-406h592v-211h-592v-395h592v-211h-827z" />
    <glyph glyph-name="edotaccent" unicode="&#x117;" horiz-adv-x="1087" 
d="M379 1256q0 69 48 117t117 48t117 -48t48 -117t-48.5 -116.5t-116.5 -47.5t-116.5 47.5t-48.5 116.5zM311 575h467q0 100 -64.5 159t-164.5 59t-169 -55.5t-69 -162.5zM995 555q0 -86 -10 -145h-676q0 -173 91.5 -210.5t148.5 -37.5q97 0 143 32.5t70 92.5h225
q-26 -131 -139.5 -221.5t-288.5 -90.5q-228 0 -352.5 146.5t-124.5 360.5t124.5 355.5t346.5 141.5q185 0 313.5 -123t128.5 -301z" />
    <glyph glyph-name="Eogonek" unicode="&#x118;" horiz-adv-x="1116" 
d="M649 -244q0 74 40 129.5t122 114.5h-661v1434h827v-211h-592v-406h592v-211h-592v-395h592v-211q-58 -41 -86.5 -73.5t-28.5 -81.5q0 -48 24.5 -80.5t75.5 -32.5t109 24v-159q-102 -31 -203 -31q-100 0 -159.5 58t-59.5 132z" />
    <glyph glyph-name="eogonek" unicode="&#x119;" horiz-adv-x="1087" 
d="M311 575h467q0 100 -64.5 159t-164.5 59t-169 -55.5t-69 -162.5zM330 -236q0 114 137 220q-185 26 -285 165t-100 343t124.5 345.5t346.5 141.5q185 0 313.5 -123t128.5 -307q0 -80 -10 -139h-676q0 -173 91.5 -210.5t148.5 -37.5q97 0 143 32.5t70 92.5h225
q-21 -117 -118 -204.5t-240 -102.5q-86 -61 -86 -140q0 -43 24.5 -75.5t75.5 -32.5t109 24v-159q-102 -31 -203 -31t-160 58.5t-59 139.5z" />
    <glyph glyph-name="Ecaron" unicode="&#x11a;" horiz-adv-x="1116" 
d="M229 1835l119 156l207 -197l209 197l121 -156l-330 -297zM150 0v1434h827v-211h-592v-406h592v-211h-592v-395h592v-211h-827z" />
    <glyph glyph-name="ecaron" unicode="&#x11b;" horiz-adv-x="1087" 
d="M311 575h467q0 100 -64.5 159t-164.5 59t-169 -55.5t-69 -162.5zM215 1354l119 155l207 -196l209 196l120 -155l-329 -297zM995 555q0 -86 -10 -145h-676q0 -173 91.5 -210.5t148.5 -37.5q97 0 143 32.5t70 92.5h225q-26 -131 -139.5 -221.5t-288.5 -90.5
q-228 0 -352.5 146.5t-124.5 360.5t124.5 355.5t346.5 141.5q185 0 313.5 -123t128.5 -301z" />
    <glyph glyph-name="Gcircumflex" unicode="&#x11c;" horiz-adv-x="1716" 
d="M449 1702l368 297l369 -297l-139 -156l-230 185l-227 -183zM78 716q0 146 51 282.5t147.5 240.5t233 166.5t284.5 62.5q270 0 442.5 -135t188.5 -329h-237q-20 108 -121.5 180.5t-234.5 72.5q-132 0 -224 -45t-156.5 -119.5t-98.5 -173t-34 -263t138 -322.5t389 -158
q177 0 286 96.5t132 235.5h-275v211h682v-211h-158q-80 -385 -314 -464t-397 -79t-300 62.5t-231.5 167t-143.5 240t-49 281.5z" />
    <glyph glyph-name="gcircumflex" unicode="&#x11d;" horiz-adv-x="1228" 
d="M379.5 261q78.5 -87 201.5 -87t202 88.5t79 214.5t-79 214.5t-202 88.5t-201.5 -87t-78.5 -216t78.5 -216zM199 1212l368 297l369 -297l-139 -155l-230 184l-227 -182zM575 -303q287 0 287 256v176q-45 -72 -128.5 -113t-179.5 -41t-185.5 40t-190 149t-100.5 314
t137.5 353t351.5 148q84 0 167 -41t128 -113v129h223v-1001q0 -455 -365 -455t-491 116.5t-135 276.5h225q8 -78 72 -136t184 -58z" />
    <glyph glyph-name="Gbreve" unicode="&#x11e;" horiz-adv-x="1716" 
d="M815 1724q78 0 129 34t74 87h211q-16 -134 -137.5 -226.5t-276.5 -92.5q-154 0 -270.5 90.5t-143.5 228.5h209q51 -121 205 -121zM78 716q0 146 51 282.5t147.5 240.5t233 166.5t284.5 62.5q270 0 442.5 -135t188.5 -329h-237q-20 108 -121.5 180.5t-234.5 72.5
q-132 0 -224 -45t-156.5 -119.5t-98.5 -173t-34 -263t138 -322.5t389 -158q177 0 286 96.5t132 235.5h-275v211h682v-211h-158q-80 -385 -314 -464t-397 -79t-300 62.5t-231.5 167t-143.5 240t-49 281.5z" />
    <glyph glyph-name="gbreve" unicode="&#x11f;" horiz-adv-x="1228" 
d="M379.5 261q78.5 -87 201.5 -87t202 88.5t79 214.5t-79 214.5t-202 88.5t-201.5 -87t-78.5 -216t78.5 -216zM567 1313q78 0 129.5 33.5t73.5 87.5h211q-16 -135 -137.5 -227.5t-276.5 -92.5q-154 0 -271.5 91.5t-141.5 228.5h208q51 -121 205 -121zM575 -303
q287 0 287 256v176q-45 -72 -128.5 -113t-179.5 -41t-185.5 40t-190 149t-100.5 314t137.5 353t351.5 148q84 0 167 -41t128 -113v129h223v-1001q0 -455 -365 -455t-491 116.5t-135 276.5h225q8 -78 72 -136t184 -58z" />
    <glyph glyph-name="Gdotaccent" unicode="&#x120;" horiz-adv-x="1716" 
d="M651 1773q0 69 48.5 116.5t116.5 47.5t116.5 -48.5t48.5 -116.5t-48 -116t-117 -48t-117 48t-48 117zM78 716q0 146 51 282.5t147.5 240.5t233 166.5t284.5 62.5q270 0 442.5 -135t188.5 -329h-237q-20 108 -121.5 180.5t-234.5 72.5q-132 0 -224 -45t-156.5 -119.5
t-98.5 -173t-34 -263t138 -322.5t389 -158q177 0 286 96.5t132 235.5h-275v211h682v-211h-158q-80 -385 -314 -464t-397 -79t-300 62.5t-231.5 167t-143.5 240t-49 281.5z" />
    <glyph glyph-name="gdotaccent" unicode="&#x121;" horiz-adv-x="1228" 
d="M387 1256q0 69 48 117t117 48t117 -48t48 -117t-48 -116.5t-117 -47.5t-117 47.5t-48 116.5zM379.5 261q78.5 -87 201.5 -87t202 88.5t79 214.5t-79 214.5t-202 88.5t-201.5 -87t-78.5 -216t78.5 -216zM575 -303q287 0 287 256v176q-45 -72 -128.5 -113t-179.5 -41
t-185.5 40t-190 149t-100.5 314t137.5 353t351.5 148q84 0 167 -41t128 -113v129h223v-1001q0 -455 -365 -455t-491 116.5t-135 276.5h225q8 -78 72 -136t184 -58z" />
    <glyph glyph-name="Gcommaaccent" unicode="&#x122;" horiz-adv-x="1716" 
d="M815 -322q-59 0 -95 39.5t-36 93.5t39 93t99 39t101.5 -47.5t41.5 -122.5q0 -152 -73 -212.5t-202 -62.5v84q80 0 118 31t42 76q-11 -11 -35 -11zM78 716q0 146 51 282.5t147.5 240.5t233 166.5t284.5 62.5q270 0 442.5 -135t188.5 -329h-237q-20 108 -121.5 180.5
t-234.5 72.5q-132 0 -224 -45t-156.5 -119.5t-98.5 -173t-34 -263t138 -322.5t389 -158q177 0 286 96.5t132 235.5h-275v211h682v-211h-158q-80 -385 -314 -464t-397 -79t-300 62.5t-231.5 167t-143.5 240t-49 281.5z" />
    <glyph glyph-name="gcommaaccent" unicode="&#x123;" horiz-adv-x="1228" 
d="M563 1409q72 0 115 -44t43 -110t-46 -112.5t-119 -46.5t-121 55t-48 147q0 180 85 253t241 75v-100q-94 0 -142 -41q-38 -27 -49 -86q10 10 41 10zM301 478q0 -62 19.5 -117.5t56.5 -96.5t88.5 -65.5t114.5 -24.5t115.5 24.5t89 65.5t57 96.5t20.5 116.5t-20.5 116.5
t-57 96.5t-89 65.5t-115.5 24.5t-114.5 -24.5t-88.5 -65.5t-56.5 -95.5t-19.5 -116.5zM575 -303q287 0 287 256v176q-45 -72 -128.5 -113t-179.5 -41t-185.5 40t-190 149t-100.5 314t137.5 353t351.5 148q84 0 167 -41t128 -113v129h223v-1001q0 -455 -365 -455t-491 116.5
t-135 276.5h225q8 -78 72 -136t184 -58z" />
    <glyph glyph-name="Hcircumflex" unicode="&#x124;" horiz-adv-x="1361" 
d="M311 1696l369 297l369 -297l-140 -156l-229 184l-227 -182zM150 0v1434h235v-617h592v617h235v-1434h-235v606h-592v-606h-235z" />
    <glyph glyph-name="hcircumflex" unicode="&#x125;" horiz-adv-x="1165" 
d="M264 1696l369 297l368 -297l-139 -156l-229 184l-227 -182zM809 494q0 288 -207 288q-117 0 -173 -83t-56 -205v-494h-223v1434h223v-613q91 158 300 158t298 -129q61 -92 61 -283v-567h-223v494z" />
    <glyph glyph-name="Hbar" unicode="&#x126;" horiz-adv-x="1361" 
d="M385 817h592v199h-592v-199zM150 0v1434h235v-220h592v220h235v-1434h-235v606h-592v-606h-235z" />
    <glyph glyph-name="hbar" unicode="&#x127;" horiz-adv-x="1165" 
d="M809 494q0 288 -207 288q-117 0 -173 -83t-56 -205v-494h-223v1059h-150v198h150v177h223v-177h360v-198h-360v-238q91 158 300 158t298 -129q61 -92 61 -283v-567h-223v494z" />
    <glyph glyph-name="Itilde" unicode="&#x128;" horiz-adv-x="542" 
d="M150 0v1434h243v-1434h-243zM424 1626q-34 0 -146.5 26.5t-152.5 26.5t-133 -43l-96 146q114 73 155 75.5t58 2.5q32 0 144 -28t154 -28t152 56l88 -142q-112 -92 -223 -92z" />
    <glyph glyph-name="itilde" unicode="&#x129;" horiz-adv-x="612" 
d="M195 0v954h223v-954h-223zM459 1141q-36 0 -147 26.5t-147 26.5t-69 -13.5t-69 -29.5l-97 145q114 73 155.5 75.5t58.5 2.5q39 0 144 -27.5t132 -27.5q44 0 73.5 10t100.5 45l88 -141q-112 -92 -223 -92z" />
    <glyph glyph-name="Imacron" unicode="&#x12a;" horiz-adv-x="542" 
d="M150 0v1434h243v-1434h-243zM-94 1645v198h733v-198h-733z" />
    <glyph glyph-name="imacron" unicode="&#x12b;" horiz-adv-x="612" 
d="M197 0v954h223v-954h-223zM-59 1157v199h733v-199h-733z" />
    <glyph glyph-name="Ibreve" unicode="&#x12c;" horiz-adv-x="542" 
d="M150 0v1434h243v-1434h-243zM272 1722q78 0 129.5 34t73.5 87h211q-16 -133 -137 -226t-276 -93t-272.5 91.5t-141.5 227.5h209q51 -121 204 -121z" />
    <glyph glyph-name="ibreve" unicode="&#x12d;" horiz-adv-x="612" 
d="M197 0v954h223v-954h-223zM307 1313q78 0 129 33.5t74 87.5h211q-16 -135 -137.5 -227.5t-276.5 -92.5q-154 0 -271.5 91.5t-141.5 228.5h208q51 -121 205 -121z" />
    <glyph glyph-name="Iogonek" unicode="&#x12e;" horiz-adv-x="542" 
d="M207 -434q-101 0 -160 58t-59 132t40 129.5t122 114.5v1434h243v-1434h-78q-56 -39 -85 -71.5t-29 -82.5q0 -49 24.5 -81.5t75.5 -32.5t109 24v-159q-102 -31 -203 -31z" />
    <glyph glyph-name="iogonek" unicode="&#x12f;" horiz-adv-x="612" 
d="M195 1304q0 69 48.5 116.5t116.5 47.5t116 -48t48 -116t-48 -116.5t-117 -48.5t-116.5 48t-47.5 117zM86 -244q0 74 40 129.5t122 114.5v954h223v-954h-57q-58 -41 -86.5 -72.5t-28.5 -81.5q0 -49 24.5 -81.5t75.5 -32.5t109 24v-159q-102 -31 -203 -31q-100 0 -159.5 58
t-59.5 132z" />
    <glyph glyph-name="Idotaccent" unicode="&#x130;" horiz-adv-x="542" 
d="M150 0v1434h243v-1434h-243zM106 1773q0 69 49 116.5t117 47.5t116 -48.5t48 -116.5t-48 -116t-117 -48t-117 48t-48 117z" />
    <glyph glyph-name="dotlessi" unicode="&#x131;" horiz-adv-x="487" 
d="M133 0v954h223v-954h-223z" />
    <glyph glyph-name="IJ" unicode="&#x132;" horiz-adv-x="1640" 
d="M567 467h236q0 -129 56 -210t173 -81t175.5 80t58.5 209v969h235v-969q0 -219 -126 -359.5t-343 -140.5t-341 143t-124 359zM150 0v1434h243v-1434h-243z" />
    <glyph glyph-name="ij" unicode="&#x133;" horiz-adv-x="1216" 
d="M750 1304q0 69 48 116.5t116 47.5t116.5 -48t48.5 -116t-48 -116.5t-117 -48.5t-116.5 48t-47.5 117zM731 -305q72 0 72 96v1163h223v-1177q0 -216 -82 -246.5t-160 -30.5t-131 23v184q50 -12 78 -12zM195 0v954h223v-954h-223zM141 1304q0 69 48.5 116.5t116.5 47.5
t116.5 -48t48.5 -116t-48 -116.5t-117 -48.5t-117 48t-48 117z" />
    <glyph glyph-name="Jcircumflex" unicode="&#x134;" horiz-adv-x="1097" 
d="M471 1694l369 297l368 -297l-139 -156l-229 184l-228 -182zM25 467h235q0 -129 57 -210t173 -81t174.5 80t58.5 209v969h235v-969q0 -219 -126 -359.5t-343 -140.5t-340.5 142.5t-123.5 359.5z" />
    <glyph glyph-name="jcircumflex" unicode="&#x135;" horiz-adv-x="604" 
d="M119 -305q71 0 71 96v1163h224v-1177q0 -216 -82 -246.5t-161 -30.5t-130 23v184q49 -12 78 -12zM-59 1329l368 297l369 -297l-139 -155l-230 184l-227 -182z" />
    <glyph glyph-name="Kcommaaccent" unicode="&#x136;" horiz-adv-x="1243" 
d="M627 -299q-59 0 -95 39t-36 93t38.5 93t98.5 39t101.5 -47t41.5 -123q0 -152 -72.5 -212t-201.5 -62v84q80 0 118 31t42 75q-10 -10 -35 -10zM150 0v1434h235v-631l533 631h294l-606 -717l606 -717h-294l-533 629v-629h-235z" />
    <glyph glyph-name="kcommaaccent" unicode="&#x137;" horiz-adv-x="1021" 
d="M504 -299q-59 0 -95 39t-36 93t38.5 93t98.5 39t101.5 -47t41.5 -123q0 -152 -72.5 -212t-201.5 -62v84q80 0 118 31t42 75q-10 -10 -35 -10zM150 0v1434h223v-902l350 422h278l-397 -477l397 -477h-278l-350 420v-420h-223z" />
    <glyph glyph-name="kgreenlandic" unicode="&#x138;" horiz-adv-x="1021" 
d="M150 0v954h223v-422l350 422h278l-397 -477l397 -477h-278l-350 420v-420h-223z" />
    <glyph glyph-name="Lacute" unicode="&#x139;" horiz-adv-x="878" 
d="M150 0v1434h235v-1223h442v-211h-677zM-35 1708l510 281l107 -174l-510 -281z" />
    <glyph glyph-name="lacute" unicode="&#x13a;" horiz-adv-x="522" 
d="M150 0v1434h223v-1434h-223zM-47 1712l510 281l106 -174l-510 -281z" />
    <glyph glyph-name="Lcommaaccent" unicode="&#x13b;" horiz-adv-x="878" 
d="M299 -167q0 54 38.5 93t98.5 39t102 -47t42 -123q0 -152 -73 -212t-202 -62v84q82 0 119 31t41 75q-10 -10 -35 -10q-59 0 -95 39t-36 93zM150 0v1434h235v-1223h442v-211h-677z" />
    <glyph glyph-name="lcommaaccent" unicode="&#x13c;" horiz-adv-x="522" 
d="M150 0v1434h223v-1434h-223zM121 -167q0 54 38.5 93t98.5 39t101.5 -47t41.5 -123q0 -152 -72.5 -212t-201.5 -62v84q80 0 118 31t42 75q-10 -10 -35 -10q-59 0 -95 39t-36 93z" />
    <glyph glyph-name="Lcaron" unicode="&#x13d;" horiz-adv-x="878" 
d="M150 0v1434h235v-1223h442v-211h-677zM-63 1835l118 156l207 -197l209 197l121 -156l-330 -297z" />
    <glyph glyph-name="lcaron" unicode="&#x13e;" horiz-adv-x="825" 
d="M649 1202q-72 0 -114.5 44t-42.5 110t46 113t118 47t120.5 -55.5t48.5 -147.5q0 -180 -85 -253t-240 -75v100q89 0 134.5 35.5t55.5 91.5q-10 -10 -41 -10zM150 0v1434h223v-1434h-223z" />
    <glyph glyph-name="Ldot" unicode="&#x13f;" horiz-adv-x="878" 
d="M549 640q0 69 48 117t117 48t117 -48t48 -117t-48.5 -117t-116.5 -48t-116.5 48t-48.5 117zM150 0v1434h235v-1223h442v-211h-677z" />
    <glyph glyph-name="ldot" unicode="&#x140;" horiz-adv-x="741" 
d="M412 640q0 69 48 117t116 48t116.5 -48t48.5 -117t-48 -117t-117 -48t-116.5 48t-47.5 117zM150 0v1434h223v-1434h-223z" />
    <glyph glyph-name="Lslash" unicode="&#x141;" horiz-adv-x="878" 
d="M150 1434h235v-603l342 144v-213l-342 -144v-407h442v-211h-677v522l-91 -37v213l91 37v699z" />
    <glyph glyph-name="lslash" unicode="&#x142;" horiz-adv-x="522" 
d="M150 1434h243v-535l142 76v-213l-142 -76v-686h-243v557l-136 -72v213l136 72v664z" />
    <glyph glyph-name="Nacute" unicode="&#x143;" horiz-adv-x="1359" 
d="M371 1708l510 281l106 -174l-510 -281zM150 0v1434h258l567 -1020v1020h235v-1434h-258l-567 1020v-1020h-235z" />
    <glyph glyph-name="nacute" unicode="&#x144;" horiz-adv-x="1165" 
d="M274 1188l510 280l107 -174l-510 -280zM809 494q0 288 -207 288q-117 0 -173 -83t-56 -205v-494h-223v954h223v-133q91 158 300 158t298 -129q61 -92 61 -283v-567h-223v494z" />
    <glyph glyph-name="Ncommaaccent" unicode="&#x145;" horiz-adv-x="1359" 
d="M670 -299q-59 0 -95 39t-36 93t38.5 93t98.5 39t101.5 -47t41.5 -123q0 -152 -72.5 -212t-201.5 -62v84q80 0 118 31t42 75q-10 -10 -35 -10zM150 0v1434h258l567 -1020v1020h235v-1434h-258l-567 1020v-1020h-235z" />
    <glyph glyph-name="ncommaaccent" unicode="&#x146;" horiz-adv-x="1165" 
d="M604 -299q-59 0 -95 39t-36 93t38.5 93t98.5 39t102 -47t42 -123q0 -152 -73 -212t-202 -62v84q82 0 119 31t41 75q-10 -10 -35 -10zM809 494q0 288 -207 288q-117 0 -173 -83t-56 -205v-494h-223v954h223v-133q91 158 300 158t298 -129q61 -92 61 -283v-567h-223v494z
" />
    <glyph glyph-name="Ncaron" unicode="&#x147;" horiz-adv-x="1359" 
d="M352 1835l119 156l207 -197l209 197l121 -156l-330 -297zM150 0v1434h258l567 -1020v1020h235v-1434h-258l-567 1020v-1020h-235z" />
    <glyph glyph-name="ncaron" unicode="&#x148;" horiz-adv-x="1165" 
d="M285 1468l118 156l207 -197l209 197l121 -156l-330 -297zM809 494q0 288 -207 288q-117 0 -173 -83t-56 -205v-494h-223v954h223v-133q91 158 300 158t298 -129q61 -92 61 -283v-567h-223v494z" />
    <glyph glyph-name="napostrophe" unicode="&#x149;" horiz-adv-x="1165" 
d="M809 494q0 288 -207 288q-117 0 -173 -83t-56 -205v-494h-223v954h223v-133q91 158 300 158t298 -129q61 -92 61 -283v-567h-223v494zM250 1245q-59 0 -95 39t-36 93t38.5 93t98.5 39t101.5 -47t41.5 -123q0 -152 -72.5 -212t-201.5 -62v84q75 0 121 33q35 29 39 73
q-10 -10 -35 -10z" />
    <glyph glyph-name="Eng" unicode="&#x14a;" horiz-adv-x="1359" 
d="M150 0v1434h235l590 -1020v1020h235v-1436q0 -219 -126 -359.5t-336 -140.5t-347 164l154 148q43 -43 82 -72t104 -29q117 0 175.5 80t58.5 209l-590 1022v-1020h-235z" />
    <glyph glyph-name="eng" unicode="&#x14b;" horiz-adv-x="1165" 
d="M809 494q0 288 -207 288q-117 0 -173 -83t-56 -205v-494h-223v954h223v-133q91 158 300 158t298 -129q61 -92 61 -283v-598q0 -206 -118 -338.5t-315 -132.5q-198 0 -331 156l146 139q41 -41 76.5 -67.5t99.5 -26.5q111 0 165 74.5t54 195.5v525z" />
    <glyph glyph-name="Omacron" unicode="&#x14c;" horiz-adv-x="1638" 
d="M453 1645v198h733v-198h-733zM819 176q221 0 357.5 161t136.5 380t-137 379.5t-357 160.5t-356.5 -159.5t-136.5 -380t136 -381t357 -160.5zM78 716q0 146 51 282.5t146.5 240.5t233.5 166.5t310 62.5t310.5 -62.5t233.5 -166.5t146.5 -240.5t51.5 -281.5t-51.5 -281.5
t-146.5 -241t-233.5 -167t-310.5 -62.5t-310 62.5t-233.5 167t-146.5 240t-51 281.5z" />
    <glyph glyph-name="omacron" unicode="&#x14d;" horiz-adv-x="1163" 
d="M301 478q0 -62 19.5 -117.5t56.5 -96.5t88.5 -65.5t114.5 -24.5t115.5 24.5t89 65.5t57 96.5t20.5 116.5t-20.5 116.5t-57 96.5t-89 65.5t-115.5 24.5t-114.5 -24.5t-88.5 -65.5t-56.5 -95.5t-19.5 -116.5zM215 1157v199h733v-199h-733zM944.5 832.5
q140.5 -146.5 140.5 -354.5t-140 -355.5t-364.5 -147.5t-363.5 148.5t-139 354.5t139 353.5t363 147.5t364.5 -146.5z" />
    <glyph glyph-name="Obreve" unicode="&#x14e;" horiz-adv-x="1638" 
d="M819 1720q78 0 129 34t74 87h211q-16 -134 -137.5 -226.5t-276.5 -92.5q-154 0 -271.5 91.5t-141.5 227.5h208q51 -121 205 -121zM819 176q221 0 357.5 161t136.5 380t-137 379.5t-357 160.5t-356.5 -159.5t-136.5 -380t136 -381t357 -160.5zM78 716q0 146 51 282.5
t146.5 240.5t233.5 166.5t310 62.5t310.5 -62.5t233.5 -166.5t146.5 -240.5t51.5 -281.5t-51.5 -281.5t-146.5 -241t-233.5 -167t-310.5 -62.5t-310 62.5t-233.5 167t-146.5 240t-51 281.5z" />
    <glyph glyph-name="obreve" unicode="&#x14f;" horiz-adv-x="1163" 
d="M301 478q0 -62 19.5 -117.5t56.5 -96.5t88.5 -65.5t114.5 -24.5t115.5 24.5t89 65.5t57 96.5t20.5 116.5t-20.5 116.5t-57 96.5t-89 65.5t-115.5 24.5t-114.5 -24.5t-88.5 -65.5t-56.5 -95.5t-19.5 -116.5zM582 1313q78 0 129 33.5t73 87.5h211q-16 -134 -137 -227
t-275 -93t-272.5 91.5t-142.5 228.5h209q51 -121 205 -121zM944.5 832.5q140.5 -146.5 140.5 -354.5t-140 -355.5t-364.5 -147.5t-363.5 148.5t-139 354.5t139 353.5t363 147.5t364.5 -146.5z" />
    <glyph glyph-name="Ohungarumlaut" unicode="&#x150;" horiz-adv-x="1638" 
d="M848 1642l256 340l196 -98l-346 -299zM449 1642l256 340l196 -98l-346 -299zM819 176q221 0 357.5 161t136.5 380t-137 379.5t-357 160.5t-356.5 -159.5t-136.5 -380t136 -381t357 -160.5zM78 716q0 146 51 282.5t146.5 240.5t233.5 166.5t310 62.5t310.5 -62.5
t233.5 -166.5t146.5 -240.5t51.5 -281.5t-51.5 -281.5t-146.5 -241t-233.5 -167t-310.5 -62.5t-310 62.5t-233.5 167t-146.5 240t-51 281.5z" />
    <glyph glyph-name="ohungarumlaut" unicode="&#x151;" horiz-adv-x="1163" 
d="M637 1163l256 340l197 -98l-347 -299zM301 477q0 -129 78.5 -216t201.5 -87t202 88.5t79 214.5t-79 214.5t-202 88.5t-201.5 -87t-78.5 -216zM238 1163l256 340l196 -98l-346 -299zM944.5 832.5q140.5 -146.5 140.5 -354.5t-140 -355.5t-364.5 -147.5t-363.5 148.5
t-139 354.5t139 353.5t363 147.5t364.5 -146.5z" />
    <glyph glyph-name="OE" unicode="&#x152;" horiz-adv-x="2281" 
d="M819 172q221 0 357.5 161t136.5 380t-137 379.5t-357 160.5t-356.5 -159.5t-136.5 -380t136 -381t357 -160.5zM78 712q0 146 51 282t146.5 240.5t233.5 167t310 62.5q299 0 496 -184v154h827v-211h-592v-406h592v-211h-592v-395h592v-211h-827v145q-197 -184 -496 -184
q-172 0 -310 62.5t-233.5 167t-146.5 240t-51 281.5z" />
    <glyph glyph-name="oe" unicode="&#x153;" horiz-adv-x="1867" 
d="M1092 575h467q0 100 -65 159t-165 59t-168.5 -55.5t-68.5 -162.5zM783.5 260q78.5 86 78.5 215q0 130 -78 217.5t-202 87.5t-202.5 -87t-78.5 -216t78.5 -216t202 -87t202 86zM584 -25q-228 0 -367 148.5t-139 354.5t139 353.5t372 147.5q232 0 374 -168q127 168 370 168
q185 0 314 -123.5t129 -306.5q0 -82 -11 -139h-675q0 -172 91 -210t148 -38q97 0 143 32.5t70 92.5h225q-26 -132 -140 -222t-288 -90q-242 0 -372 170q-66 -78 -165.5 -124t-217.5 -46z" />
    <glyph glyph-name="Racute" unicode="&#x154;" horiz-adv-x="1247" 
d="M385 641h279q120 0 195 86t75 205t-75 205t-195 86h-279v-582zM315 1708l510 281l107 -174l-510 -281zM150 0v1434h514q225 0 365 -147.5t140 -369.5q0 -223 -116.5 -322t-186.5 -128l285 -467h-268l-262 430h-236v-430h-235z" />
    <glyph glyph-name="racute" unicode="&#x155;" horiz-adv-x="774" 
d="M668 758q-295 0 -295 -346v-412h-223v954h223v-153q32 66 116 116t158 50t109 -15v-204q-45 10 -88 10zM80 1229l510 280l106 -174l-510 -280z" />
    <glyph glyph-name="Rcommaaccent" unicode="&#x156;" horiz-adv-x="1247" 
d="M614 -299q-59 0 -95 39t-36 93t38.5 93t98.5 39t102 -47t42 -123q0 -152 -73 -212t-202 -62v84q84 0 120 32.5t40 73.5q-10 -10 -35 -10zM385 641h279q120 0 195 86t75 205t-75 205t-195 86h-279v-582zM150 0v1434h514q225 0 365 -147.5t140 -369.5q0 -223 -116.5 -322
t-186.5 -128l285 -467h-268l-262 430h-236v-430h-235z" />
    <glyph glyph-name="rcommaaccent" unicode="&#x157;" horiz-adv-x="774" 
d="M668 758q-295 0 -295 -346v-412h-223v954h223v-153q32 66 116 116t158 50t109 -15v-204q-45 10 -88 10zM121 -167q0 54 38.5 93t98.5 39t101.5 -47t41.5 -123q0 -152 -72.5 -212t-201.5 -62v84q80 0 118 31t42 75q-10 -10 -35 -10q-59 0 -95 39t-36 93z" />
    <glyph glyph-name="Rcaron" unicode="&#x158;" horiz-adv-x="1247" 
d="M385 641h279q120 0 195 86t75 205t-75 205t-195 86h-279v-582zM254 1839l119 156l207 -197l208 197l121 -156l-329 -297zM150 0v1434h514q225 0 365 -147.5t140 -369.5q0 -223 -116.5 -322t-186.5 -128l285 -467h-268l-262 430h-236v-430h-235z" />
    <glyph glyph-name="rcaron" unicode="&#x159;" horiz-adv-x="774" 
d="M668 758q-295 0 -295 -346v-412h-223v954h223v-153q32 66 116 116t158 50t109 -15v-204q-45 10 -88 10zM59 1470l119 156l207 -196l209 196l121 -156l-330 -296z" />
    <glyph glyph-name="Sacute" unicode="&#x15a;" horiz-adv-x="1165" 
d="M274 1708l510 281l107 -174l-510 -281zM86 469h236q0 -141 77.5 -217t188.5 -76t179.5 59t68.5 154q0 131 -95 173t-163 66q-211 74 -327 163t-116 273q0 183 128.5 293.5t320.5 110.5t322 -125.5t130 -322.5h-235q0 106 -57.5 171.5t-151.5 65.5t-157.5 -45t-63.5 -137
q0 -114 84.5 -155t146.5 -64t265.5 -103.5t203.5 -336.5q0 -213 -141 -332t-348 -119q-208 0 -352 137.5t-144 366.5z" />
    <glyph glyph-name="sacute" unicode="&#x15b;" horiz-adv-x="929" 
d="M158 1188l510 280l106 -174l-510 -280zM612 655q0 148 -153 148q-57 0 -97 -26.5t-40 -68.5t16 -60.5t49 -34t82 -32.5t107 -39q136 -51 202 -105t66 -184t-107.5 -204t-271.5 -74t-277.5 92.5t-113.5 254.5h217q0 -170 184 -170q156 0 156 110q0 33 -18.5 53.5t-55.5 38
t-92 36t-117 41.5q-123 45 -182.5 99.5t-59.5 176.5t102 197t256 75t259.5 -92.5t105.5 -231.5h-217z" />
    <glyph glyph-name="Scircumflex" unicode="&#x15c;" horiz-adv-x="1165" 
d="M213 1696l369 297l368 -297l-139 -156l-229 184l-228 -182zM86 469h236q0 -141 77.5 -217t188.5 -76t179.5 59t68.5 154q0 131 -95 173t-163 66q-211 74 -327 163t-116 273q0 183 128.5 293.5t320.5 110.5t322 -125.5t130 -322.5h-235q0 106 -57.5 171.5t-151.5 65.5
t-157.5 -45t-63.5 -137q0 -114 84.5 -155t146.5 -64t265.5 -103.5t203.5 -336.5q0 -213 -141 -332t-348 -119q-208 0 -352 137.5t-144 366.5z" />
    <glyph glyph-name="scircumflex" unicode="&#x15d;" horiz-adv-x="929" 
d="M96 1212l369 297l369 -297l-140 -155l-229 184l-227 -182zM612 655q0 148 -153 148q-57 0 -97 -26.5t-40 -68.5t16 -60.5t49 -34t82 -32.5t107 -39q136 -51 202 -105t66 -184t-107.5 -204t-271.5 -74t-277.5 92.5t-113.5 254.5h217q0 -170 184 -170q156 0 156 110
q0 33 -18.5 53.5t-55.5 38t-92 36t-117 41.5q-123 45 -182.5 99.5t-59.5 176.5t102 197t256 75t259.5 -92.5t105.5 -231.5h-217z" />
    <glyph glyph-name="Scedilla" unicode="&#x15e;" horiz-adv-x="1165" 
d="M86 469h236q0 -141 77.5 -217t188.5 -76t179.5 59t68.5 154q0 131 -95 173t-163 66q-211 74 -327 163t-116 273q0 183 128.5 293.5t320.5 110.5t322 -125.5t130 -322.5h-235q0 106 -57.5 171.5t-151.5 65.5t-157.5 -45t-63.5 -137q0 -114 84.5 -155t146.5 -64
t265.5 -103.5t203.5 -336.5q0 -193 -115.5 -308.5t-302.5 -138.5v-100q27 27 65 27q71 0 122 -49t51 -128t-55.5 -138.5t-155.5 -59.5q-101 0 -149 57t-56 119h131q18 -61 76 -62q35 0 56.5 23.5t21.5 59.5t-22.5 56.5t-59.5 20.5t-57 -37h-111v211q-186 26 -305 158.5
t-119 341.5z" />
    <glyph glyph-name="scedilla" unicode="&#x15f;" horiz-adv-x="929" 
d="M612 655q0 148 -153 148q-57 0 -97 -26.5t-40 -68.5t16 -60.5t49 -34t82 -33t107 -38.5q135 -49 201.5 -104t66.5 -179t-88.5 -195t-235.5 -84v-111q27 27 65 27q71 0 122 -49t51 -128t-55.5 -138.5t-155.5 -59.5q-101 0 -149 57t-56 119h131q18 -61 76 -62
q35 0 56.5 23.5t21.5 59.5t-22.5 56.5t-59.5 20.5t-58 -37h-110v226q-209 33 -256 148.5t-47 189.5h217q0 -170 184 -170q156 0 156 110q0 33 -18.5 53.5t-55.5 38t-92 36t-117 41.5q-123 45 -182.5 99.5t-59.5 176.5t102 197t256 75t259.5 -92.5t105.5 -231.5h-217z" />
    <glyph glyph-name="Scaron" unicode="&#x160;" horiz-adv-x="1165" 
d="M260 1862l119 155l207 -196l209 196l120 -155l-329 -297zM86 469h236q0 -141 77.5 -217t188.5 -76t179.5 59t68.5 154q0 131 -95 173t-163 66q-211 74 -327 163t-116 272t131 294t323 111t319.5 -125t127.5 -323h-235q0 106 -57.5 171.5t-151.5 65.5t-157.5 -45
t-63.5 -137q0 -114 84.5 -155t146.5 -64t265.5 -103.5t203.5 -336.5q0 -213 -141 -332t-348 -119q-208 0 -352 137.5t-144 366.5z" />
    <glyph glyph-name="scaron" unicode="&#x161;" horiz-adv-x="929" 
d="M139 1341l119 156l207 -197l209 197l121 -156l-330 -297zM612 655q0 148 -153 148q-57 0 -97 -26.5t-40 -68.5t16 -60.5t49 -34t82 -32.5t107 -39q136 -51 202 -105t66 -184t-107.5 -204t-271.5 -74t-277.5 92.5t-113.5 254.5h217q0 -170 184 -170q156 0 156 110
q0 33 -18.5 53.5t-55.5 38t-92 36t-117 41.5q-123 45 -182.5 99.5t-59.5 176.5t102 197t256 75t259.5 -92.5t105.5 -231.5h-217z" />
    <glyph glyph-name="Tcommaaccent" unicode="&#x162;" horiz-adv-x="987" 
d="M360 -167q0 54 39 93t99 39t101.5 -47t41.5 -123q0 -152 -72.5 -212t-201.5 -62v84q84 0 119.5 32.5t39.5 73.5q-10 -10 -34 -10q-59 0 -95.5 39t-36.5 93zM20 1223v211h947v-211h-357v-1223h-235v1223h-355z" />
    <glyph glyph-name="tcommaaccent" unicode="&#x163;" horiz-adv-x="718" 
d="M219 -167q0 54 38.5 93t98.5 39t102 -47t42 -123q0 -152 -73 -212t-202 -62v84q82 0 119 31t41 75q-10 -10 -35 -10q-59 0 -95 39t-36 93zM534 -12q-63 0 -116 7t-134 62t-81 267v444h-162v186h162v289h223v-289h219v-186h-219v-393q0 -116 33.5 -151.5t108.5 -35.5
q74 0 110 9v-197q-81 -12 -144 -12z" />
    <glyph glyph-name="Tcaron" unicode="&#x164;" horiz-adv-x="987" 
d="M166 1839l119 156l207 -197l208 197l121 -156l-329 -297zM20 1223v211h947v-211h-357v-1223h-235v1223h-355z" />
    <glyph glyph-name="tcaron" unicode="&#x165;" horiz-adv-x="1155" 
d="M846 1155q-72 0 -115 44t-43 110t46 112.5t119 46.5t121 -55t48 -147q0 -180 -85 -253t-241 -75v100q90 0 135.5 35.5t55.5 91.5q-10 -10 -41 -10zM534 -12q-63 0 -116 7t-134 62t-81 267v444h-162v186h162v289h223v-289h219v-186h-219v-393q0 -116 33.5 -151.5
t108.5 -35.5q74 0 110 9v-197q-81 -12 -144 -12z" />
    <glyph glyph-name="Tbar" unicode="&#x166;" horiz-adv-x="987" 
d="M20 1223v211h947v-211h-357v-199h250v-199h-250v-825h-235v825h-248v199h248v199h-355z" />
    <glyph glyph-name="tbar" unicode="&#x167;" horiz-adv-x="718" 
d="M534 -12q-63 0 -116 7t-134 62t-81 267v69h-162v189h162v186h-162v186h162v289h223v-289h219v-186h-219v-186h219v-189h-219v-18q0 -116 33.5 -151.5t108.5 -35.5q74 0 110 9v-197q-81 -12 -144 -12z" />
    <glyph glyph-name="Utilde" unicode="&#x168;" horiz-adv-x="1310" 
d="M807 1626q-34 0 -146.5 26.5t-152.5 26.5t-133 -43l-96 146q114 73 155 75.5t58 2.5q32 0 144 -28t154 -28t152 56l88 -142q-112 -92 -223 -92zM139 479v955h236v-955q0 -128 78 -215.5t201 -87.5t202.5 88t79.5 215v955h235v-955q0 -215 -143.5 -364.5t-371.5 -149.5
q-229 0 -373 150t-144 364z" />
    <glyph glyph-name="utilde" unicode="&#x169;" horiz-adv-x="1165" 
d="M735 1139q-35 0 -146 26.5t-148 26.5q-36 0 -68.5 -13.5t-69.5 -29.5l-96 145q114 73 154.5 75.5t58.5 2.5q38 0 143.5 -27.5t132.5 -27.5q45 0 77.5 11.5t96.5 43.5l88 -141q-112 -92 -223 -92zM133 387v567h223v-493q0 -289 207 -289q117 0 173.5 83t56.5 206v493h223
v-954h-223v133q-91 -158 -300 -158t-298 129q-62 94 -62 283z" />
    <glyph glyph-name="Umacron" unicode="&#x16a;" horiz-adv-x="1310" 
d="M289 1645v198h733v-198h-733zM139 479v955h236v-955q0 -128 78 -215.5t201 -87.5t202.5 88t79.5 215v955h235v-955q0 -215 -143.5 -364.5t-371.5 -149.5q-229 0 -373 150t-144 364z" />
    <glyph glyph-name="umacron" unicode="&#x16b;" horiz-adv-x="1165" 
d="M215 1157v199h733v-199h-733zM133 387v567h223v-493q0 -289 207 -289q117 0 173.5 83t56.5 206v493h223v-954h-223v133q-91 -158 -300 -158t-298 129q-62 94 -62 283z" />
    <glyph glyph-name="Ubreve" unicode="&#x16c;" horiz-adv-x="1310" 
d="M655 1726q78 0 129.5 34t73.5 87h211q-16 -134 -137.5 -226.5t-276.5 -92.5q-154 0 -271.5 91.5t-141.5 227.5h209q51 -121 204 -121zM139 479v955h236v-955q0 -128 78 -215.5t201 -87.5t202.5 88t79.5 215v955h235v-955q0 -215 -143.5 -364.5t-371.5 -149.5
q-229 0 -373 150t-144 364z" />
    <glyph glyph-name="ubreve" unicode="&#x16d;" horiz-adv-x="1165" 
d="M582 1313q78 0 129 33.5t73 87.5h211q-16 -134 -137 -227t-275 -93t-272.5 91.5t-142.5 228.5h209q51 -121 205 -121zM133 387v567h223v-493q0 -289 207 -289q117 0 173.5 83t56.5 206v493h223v-954h-223v133q-91 -158 -300 -158t-298 129q-62 94 -62 283z" />
    <glyph glyph-name="Uring" unicode="&#x16e;" horiz-adv-x="1310" 
d="M565 1748q0 -36 26.5 -62.5t63.5 -26.5t63.5 26.5t26.5 63.5t-25.5 63.5t-64.5 26.5t-64.5 -27.5t-25.5 -63.5zM477 1925q74 74 177 74t178 -73.5t75 -178.5t-75 -178.5t-176 -73.5q-102 0 -177.5 73.5t-75.5 178t74 178.5zM139 479v955h236v-955q0 -128 78 -215.5
t201 -87.5t202.5 88t79.5 215v955h235v-955q0 -215 -143.5 -364.5t-371.5 -149.5q-229 0 -373 150t-144 364z" />
    <glyph glyph-name="uring" unicode="&#x16f;" horiz-adv-x="1165" 
d="M481 1295q0 -36 27.5 -62.5t63.5 -26.5t63 27t27 63t-26 63t-65 27t-64.5 -27.5t-25.5 -63.5zM393.5 1473q74.5 73 176.5 73q103 0 178 -73t75 -178t-75 -179t-176 -74q-102 0 -177.5 73.5t-75.5 179t74.5 178.5zM133 387v567h223v-493q0 -289 207 -289q117 0 173.5 83
t56.5 206v493h223v-954h-223v133q-91 -158 -300 -158t-298 129q-62 94 -62 283z" />
    <glyph glyph-name="Uhungarumlaut" unicode="&#x170;" horiz-adv-x="1310" 
d="M715 1642l256 340l196 -98l-346 -299zM315 1642l256 340l197 -98l-346 -299zM139 479v955h236v-955q0 -128 78 -215.5t201 -87.5t202.5 88t79.5 215v955h235v-955q0 -215 -143.5 -364.5t-371.5 -149.5q-229 0 -373 150t-144 364z" />
    <glyph glyph-name="uhungarumlaut" unicode="&#x171;" horiz-adv-x="1165" 
d="M618 1116l256 340l197 -98l-346 -299zM219 1116l256 340l197 -98l-346 -299zM133 387v567h223v-493q0 -289 207 -289q117 0 173.5 83t56.5 206v493h223v-954h-223v133q-91 -158 -300 -158t-298 129q-62 94 -62 283z" />
    <glyph glyph-name="Uogonek" unicode="&#x172;" horiz-adv-x="1310" 
d="M428 -236q0 111 127 209q-189 32 -302.5 176t-113.5 330v955h236v-955q0 -128 78 -215.5t201 -87.5t202.5 88t79.5 215v955h235v-955q0 -203 -126 -345.5t-332 -164.5q-72 -57 -72 -129q0 -43 24.5 -75.5t75.5 -32.5t109 24v-159q-102 -31 -203 -31q-100 0 -159.5 58.5
t-59.5 139.5z" />
    <glyph glyph-name="uogonek" unicode="&#x173;" horiz-adv-x="1165" 
d="M133 387v567h223v-493q0 -289 207 -289q117 0 173.5 83t56.5 206v493h223v-954h-58q-56 -39 -85 -71.5t-29 -82.5q0 -49 24.5 -81.5t75.5 -32.5t109 24v-159q-102 -31 -203 -31t-160 58t-59 132t40 129.5t122 114.5v133q-91 -158 -300 -158t-298 129q-62 94 -62 283z" />
    <glyph glyph-name="Wcircumflex" unicode="&#x174;" horiz-adv-x="2013" 
d="M637 1696l369 297l368 -297l-139 -156l-229 184l-228 -182zM10 1434h248l330 -1022l332 1022h174l331 -1022l330 1022h248l-496 -1434h-170l-329 1022l-332 -1022h-170z" />
    <glyph glyph-name="wcircumflex" unicode="&#x175;" horiz-adv-x="1542" 
d="M401 1212l369 297l369 -297l-140 -155l-229 184l-227 -182zM0 954h240l206 -604l216 604h219l215 -604l207 604h239l-371 -954h-149l-250 713l-252 -713h-149z" />
    <glyph glyph-name="Ycircumflex" unicode="&#x176;" horiz-adv-x="1232" 
d="M248 1696l368 297l369 -297l-139 -156l-230 184l-227 -182zM23 1434h272l383 -617l307 617h258l-711 -1434h-258l285 573z" />
    <glyph glyph-name="ycircumflex" unicode="&#x177;" horiz-adv-x="1183" 
d="M223 1212l369 297l369 -297l-140 -155l-229 184l-227 -182zM381 461q0 -289 207 -289q117 0 173 83t56 206v493h223v-999q0 -244 -127.5 -350.5t-363.5 -106.5q-179 0 -297.5 116.5t-118.5 276.5h217q2 -80 56.5 -137t173.5 -57t178 58.5t59 199.5v178
q-91 -158 -300 -158t-298 129q-61 92 -61 283v567h223v-493z" />
    <glyph glyph-name="Ydieresis" unicode="&#x178;" horiz-adv-x="1232" 
d="M756 1751q0 66 45 112t111 46t111.5 -46t45.5 -112t-46 -111t-112 -45t-110.5 45t-44.5 111zM287 1751q0 66 44.5 112t110.5 46t112 -46t46 -112t-46 -111t-112 -45t-110.5 45t-44.5 111zM23 1434h272l383 -617l307 617h258l-711 -1434h-258l285 573z" />
    <glyph glyph-name="Zacute" unicode="&#x179;" horiz-adv-x="1181" 
d="M283 1708l510 281l106 -174l-510 -281zM70 1223v211h1091l-743 -1223h739v-211h-1130l743 1223h-700z" />
    <glyph glyph-name="zacute" unicode="&#x17a;" horiz-adv-x="897" 
d="M141 1186l510 280l107 -174l-510 -280zM57 756v198h811l-450 -755h450v-199h-823l453 756h-441z" />
    <glyph glyph-name="Zdotaccent" unicode="&#x17b;" horiz-adv-x="1181" 
d="M426 1773q0 69 48 116.5t117 47.5t117 -48.5t48 -116.5t-49 -116t-117 -48t-116 48t-48 117zM70 1223v211h1091l-743 -1223h739v-211h-1130l743 1223h-700z" />
    <glyph glyph-name="zdotaccent" unicode="&#x17c;" horiz-adv-x="897" 
d="M285 1256q0 69 48 117t117 48t116.5 -48t47.5 -117t-48 -116.5t-116 -47.5t-116.5 47.5t-48.5 116.5zM57 756v198h811l-450 -755h450v-199h-823l453 756h-441z" />
    <glyph glyph-name="Zcaron" unicode="&#x17d;" horiz-adv-x="1181" 
d="M262 1794l119 156l207 -197l209 197l121 -156l-330 -297zM70 1223v211h1091l-743 -1223h739v-211h-1130l743 1223h-700z" />
    <glyph glyph-name="zcaron" unicode="&#x17e;" horiz-adv-x="897" 
d="M141 1313l119 155l207 -196l209 196l121 -155l-330 -297zM57 756v198h811l-450 -755h450v-199h-823l453 756h-441z" />
    <glyph glyph-name="longs" unicode="&#x17f;" horiz-adv-x="735" 
d="M497.5 1221q-38.5 -26 -38.5 -123v-1098h-223v768h-195v186h195v119q0 237 102.5 305t215.5 68q112 0 155 -25v-188q-54 14 -113.5 14t-98 -26z" />
    <glyph glyph-name="florin" unicode="&#x192;" horiz-adv-x="903" 
d="M114 -148.5q42 25.5 70 123.5l140 793h-195l33 186h194l21 119q43 237 157.5 305t227.5 68t149 -25l-32 -188q-54 14 -112 14t-101.5 -26t-61.5 -123l-24 -144h249l-32 -186h-250l-135 -768q-43 -238 -158.5 -305.5t-224.5 -67.5t-152 25l33 188q54 -14 108 -14t96 25.5z
" />
    <glyph glyph-name="Aringacute" unicode="&#x1fa;" horiz-adv-x="1169" 
d="M530 1544q0 -20 14 -34.5t36 -14.5t36.5 14.5t14.5 34.5t-13 35.5t-36 15.5t-37.5 -15.5t-14.5 -35.5zM387 393h395l-196 649zM264 1710l510 281l68 -107l-510 -280zM721 1539q0 -62 -53 -105l495 -1434h-248l-61 182h-539l-61 -182h-248l494 1430q-60 39 -60 105t41 107
t99 41t99.5 -41t41.5 -103z" />
    <glyph glyph-name="aringacute" unicode="&#x1fb;" horiz-adv-x="1234" 
d="M477 1242q0 -36 26.5 -62.5t63.5 -26.5t63.5 26.5t26.5 63.5t-25.5 63.5t-64.5 26.5t-64.5 -27.5t-25.5 -63.5zM389 1419q74 74 177 74t178 -73.5t75 -178.5t-75 -178.5t-176 -73.5q-102 0 -177.5 73.5t-75.5 178t74 178.5zM301 477q0 -129 78.5 -216t201.5 -87t202 88.5
t79 214.5t-79 214.5t-202 88.5t-201.5 -87t-78.5 -216zM240 1608l510 280l106 -174l-510 -280zM215.5 830.5q137.5 148.5 351.5 148.5q84 0 167 -41t128 -113v129h223v-954h-223v129q-45 -72 -128.5 -113t-179.5 -41t-185.5 40t-190 149t-100.5 314q0 204 137.5 352.5z" />
    <glyph glyph-name="AEacute" unicode="&#x1fc;" horiz-adv-x="1808" 
d="M702 1708l510 281l107 -174l-510 -281zM831 395v817l-385 -817h385zM1659 1434v-211h-592v-406h592v-211h-592v-395h592v-211h-828v184h-485l-86 -184h-256l696 1434h959z" />
    <glyph glyph-name="aeacute" unicode="&#x1fd;" horiz-adv-x="1867" 
d="M1092 575h467q0 98 -65 158t-165 60t-168.5 -55.5t-68.5 -162.5zM625 1153l510 281l106 -174l-510 -281zM783 262.5q79 88.5 79 215.5t-78 214.5t-202 87.5t-202.5 -87t-78.5 -216t78.5 -216t201.5 -87t202 88.5zM1085 0h-223v129q-45 -72 -128.5 -113t-179.5 -41
t-185.5 40t-190 149t-100.5 314t137.5 353t351.5 148q84 0 167 -41t128 -113v129h223v-36q107 61 224 61q210 0 338.5 -123.5t128.5 -306.5q0 -82 -11 -139h-675q0 -172 91 -210t148 -38q97 0 143 32.5t70 92.5h225q-26 -132 -140 -222t-311 -90q-116 0 -231 64v-39z" />
    <glyph glyph-name="Oslashacute" unicode="&#x1fe;" horiz-adv-x="1638" 
d="M847 176q87 0 178 45t189.5 161t98.5 335q0 127 -49.5 240.5t-141.5 191.5l-413 -961q51 -12 138 -12zM510 1708l510 281l106 -174l-510 -281zM326 706q0 -116 48 -230t140 -191l412 960q-50 12 -136 12t-177 -45t-155.5 -120.5t-98 -172.5t-33.5 -213zM78 691
q0 171 51 307.5t146.5 240.5t233.5 166.5t310 62.5q102 0 193 -24l84 194l200 -86l-84 -190q166 -104 257.5 -277t91.5 -343t-51.5 -306.5t-146.5 -241t-233.5 -167t-277.5 -62.5t-227 25l-72 -170l-199 84l70 168q-166 104 -256 276t-90 343z" />
    <glyph glyph-name="oslashacute" unicode="&#x1ff;" horiz-adv-x="1163" 
d="M580 174q124 0 203 88.5t79 217t-80 212.5l-221 -518h19zM580 780q-122 0 -200.5 -87t-78.5 -214t74 -213l221 514h-16zM272 1188l510 280l107 -174l-510 -280zM548 979q84 0 130 -8l74 170l188 -82l-70 -164q102 -70 158.5 -179.5t56.5 -225.5q0 -221 -140 -368
t-365 -147q-49 0 -101 11l-73 -168l-189 82l70 161q-98 70 -153.5 178.5t-55.5 222.5t36 206t101.5 161.5t157 109.5t175.5 40z" />
    <glyph glyph-name="Scommaaccent" unicode="&#x218;" horiz-adv-x="1165" 
d="M573 -322q-59 0 -95 39.5t-36 93.5t39 93t99 39t101.5 -47.5t41.5 -122.5q0 -152 -72.5 -212.5t-201.5 -62.5v84q84 0 119.5 33t39.5 74q-11 -11 -35 -11zM86 469h236q0 -141 77.5 -217t188.5 -76t179.5 59t68.5 154q0 131 -95 173t-163 66q-211 74 -327 163t-116 273
q0 183 128.5 293.5t320.5 110.5t322 -125.5t130 -322.5h-235q0 106 -57.5 171.5t-151.5 65.5t-157.5 -45t-63.5 -137q0 -114 84.5 -155t146.5 -64t265.5 -103.5t203.5 -336.5q0 -213 -141 -332t-348 -119q-208 0 -352 137.5t-144 366.5z" />
    <glyph glyph-name="scommaaccent" unicode="&#x219;" horiz-adv-x="929" 
d="M332 -167q0 54 39 93t99 39t101 -47t41 -123q0 -152 -72.5 -212t-201.5 -62v84q80 0 118 31t42 75q-10 -10 -35 -10q-59 0 -95 39t-36 93zM612 655q0 148 -153 148q-57 0 -97 -26.5t-40 -68.5t16 -60.5t49 -34t82 -33t107 -38.5q135 -49 201.5 -104t66.5 -185
t-107.5 -204t-271.5 -74t-277.5 92.5t-113.5 254.5h217q0 -170 184 -170q156 0 156 110q0 33 -18.5 53.5t-55.5 38t-92 36t-117 41.5q-123 45 -182.5 99.5t-59.5 176.5t102 197t256 75t259.5 -92.5t105.5 -231.5h-217z" />
    <glyph glyph-name="uni021A" unicode="&#x21a;" horiz-adv-x="987" 
d="M360 -167q0 54 39 93t99 39t101.5 -47t41.5 -123q0 -152 -72.5 -212t-201.5 -62v84q84 0 119.5 32.5t39.5 73.5q-10 -10 -34 -10q-59 0 -95.5 39t-36.5 93zM20 1223v211h947v-211h-357v-1223h-235v1223h-355z" />
    <glyph glyph-name="uni021B" unicode="&#x21b;" horiz-adv-x="718" 
d="M219 -167q0 54 38.5 93t98.5 39t102 -47t42 -123q0 -152 -73 -212t-202 -62v84q82 0 119 31t41 75q-10 -10 -35 -10q-59 0 -95 39t-36 93zM534 -12q-63 0 -116 7t-134 62t-81 267v444h-162v186h162v289h223v-289h219v-186h-219v-393q0 -116 33.5 -151.5t108.5 -35.5
q74 0 110 9v-197q-81 -12 -144 -12z" />
    <glyph glyph-name="apostrophemod" unicode="&#x2bc;" horiz-adv-x="579" 
d="M281 1202q-72 0 -115 44t-43 110t46 113t119 47t121 -55.5t48 -147.5q0 -180 -85 -253t-241 -75v100q91 0 134 35q44 35 57 92q-10 -10 -41 -10z" />
    <glyph glyph-name="circumflex" unicode="&#x2c6;" horiz-adv-x="1007" 
d="M129 1427l369 297l368 -297l-139 -155l-229 184l-228 -182z" />
    <glyph glyph-name="caron" unicode="&#x2c7;" horiz-adv-x="925" 
d="M135 1534l119 156l207 -197l209 197l121 -156l-330 -297z" />
    <glyph glyph-name="breve" unicode="&#x2d8;" horiz-adv-x="1136" 
d="M567 1632q78 0 129.5 34t73.5 87h211q-16 -134 -137.5 -226.5t-276.5 -92.5q-154 0 -271.5 91.5t-141.5 227.5h208q51 -121 205 -121z" />
    <glyph glyph-name="dotaccent" unicode="&#x2d9;" horiz-adv-x="1206" 
d="M438 1293q0 69 49 117t117 48t116 -48t48 -117t-48 -117t-117 -48t-117 48t-48 117z" />
    <glyph glyph-name="ring" unicode="&#x2da;" horiz-adv-x="1161" 
d="M489 1459q0 -36 27 -62.5t64 -26.5t63.5 26.5t26.5 63.5t-25.5 63.5t-64.5 26.5t-65 -27.5t-26 -63.5zM401.5 1636.5q73.5 73.5 176.5 73.5t178 -72t75 -179t-75 -180t-177 -73t-176.5 73.5t-74.5 178.5t73.5 178.5z" />
    <glyph glyph-name="ogonek" unicode="&#x2db;" horiz-adv-x="1163" 
d="M371 -244q0 74 40 129.5t121 114.5h166q-56 -39 -85 -71.5t-29 -82.5q0 -49 24.5 -81.5t75.5 -32.5t109 24v-159q-102 -31 -203 -31t-160 58t-59 132z" />
    <glyph glyph-name="tilde" unicode="&#x2dc;" horiz-adv-x="1079" 
d="M692 1200q-27 0 -143.5 26.5t-155.5 26.5t-133 -43l-96 146q114 73 155 75.5t59 2.5q32 0 143.5 -28t155.5 -28t150 56l88 -142q-112 -92 -223 -92z" />
    <glyph glyph-name="hungarumlaut" unicode="&#x2dd;" horiz-adv-x="1075" 
d="M580 1163l256 340l196 -98l-346 -299zM180 1163l256 340l197 -98l-346 -299z" />
    <glyph glyph-name="Delta" unicode="&#x394;" horiz-adv-x="1169" 
d="M332 211h506l-252 831zM6 0l496 1434h166l495 -1434h-1157z" />
    <glyph glyph-name="Omega" unicode="&#x3a9;" horiz-adv-x="1466" 
d="M92 832q0 112 44 228t175.5 257t421.5 141t465.5 -188t175.5 -453q0 -192 -98 -346t-277 -225v-35h338v-211h-522v371q163 34 243.5 160.5t80.5 297.5t-105.5 294.5t-300.5 123.5t-300 -123t-105 -297q0 -268 118.5 -353t204.5 -103v-371h-522v211h338v37
q-268 104 -321.5 288t-53.5 296z" />
    <glyph glyph-name="mu" unicode="&#x3bc;" 
d="M375 -479h-223v1433h223v-493q0 -289 207 -289q117 0 173 83t56 206v493h223v-954h-223v133q-91 -158 -311 -158q-66 0 -125 17v-471z" />
    <glyph glyph-name="pi" unicode="&#x3c0;" 
d="M66 756v198h1056v-198h-143v-756h-223v756h-324v-756h-223v756h-143z" />
    <glyph glyph-name="Wgrave" unicode="&#x1e80;" horiz-adv-x="2013" 
d="M698 1815l107 174l510 -281l-107 -174zM10 1434h248l330 -1022l332 1022h174l331 -1022l330 1022h248l-496 -1434h-170l-329 1022l-332 -1022h-170z" />
    <glyph glyph-name="wgrave" unicode="&#x1e81;" horiz-adv-x="1542" 
d="M463 1294l106 174l510 -280l-106 -174zM0 954h240l206 -604l216 604h219l215 -604l207 604h239l-371 -954h-149l-250 713l-252 -713h-149z" />
    <glyph glyph-name="Wacute" unicode="&#x1e82;" horiz-adv-x="2013" 
d="M698 1708l510 281l107 -174l-510 -281zM10 1434h248l330 -1022l332 1022h174l331 -1022l330 1022h248l-496 -1434h-170l-329 1022l-332 -1022h-170z" />
    <glyph glyph-name="wacute" unicode="&#x1e83;" horiz-adv-x="1542" 
d="M463 1188l510 280l106 -174l-510 -280zM0 954h240l206 -604l216 604h219l215 -604l207 604h239l-371 -954h-149l-250 713l-252 -713h-149z" />
    <glyph glyph-name="Wdieresis" unicode="&#x1e84;" horiz-adv-x="2013" 
d="M1083 1780q0 66 45.5 111.5t111.5 45.5t111.5 -45.5t45.5 -111.5t-46 -111t-112 -45t-111 45t-45 111zM614 1780q0 66 45 111.5t111 45.5t112 -45.5t46 -111.5t-46 -111t-112 -45t-111 45t-45 111zM10 1434h248l330 -1022l332 1022h174l331 -1022l330 1022h248
l-496 -1434h-170l-329 1022l-332 -1022h-170z" />
    <glyph glyph-name="wdieresis" unicode="&#x1e85;" horiz-adv-x="1542" 
d="M848 1257q0 66 45 112t111 46t111.5 -46t45.5 -112t-45.5 -110.5t-111.5 -44.5t-111 44.5t-45 110.5zM379 1257q0 66 45 112t111 46t111.5 -46t45.5 -112t-46 -110.5t-112 -44.5t-110.5 44.5t-44.5 110.5zM0 954h240l206 -604l216 604h219l215 -604l207 604h239
l-371 -954h-149l-250 713l-252 -713h-149z" />
    <glyph glyph-name="Ygrave" unicode="&#x1ef2;" horiz-adv-x="1232" 
d="M307 1815l107 174l510 -281l-107 -174zM23 1434h272l383 -617l307 617h258l-711 -1434h-258l285 573z" />
    <glyph glyph-name="ygrave" unicode="&#x1ef3;" horiz-adv-x="1183" 
d="M283 1294l106 174l510 -280l-106 -174zM381 461q0 -289 207 -289q117 0 173 83t56 206v493h223v-999q0 -244 -127.5 -350.5t-363.5 -106.5q-179 0 -297.5 116.5t-118.5 276.5h217q2 -80 56.5 -137t173.5 -57t178 58.5t59 199.5v178q-91 -158 -300 -158t-298 129
q-61 92 -61 283v567h223v-493z" />
    <glyph glyph-name="uni2000" unicode="&#x2000;" horiz-adv-x="1008" 
 />
    <glyph glyph-name="uni2001" unicode="&#x2001;" horiz-adv-x="2017" 
 />
    <glyph glyph-name="uni2002" unicode="&#x2002;" horiz-adv-x="1008" 
 />
    <glyph glyph-name="uni2003" unicode="&#x2003;" horiz-adv-x="2017" 
 />
    <glyph glyph-name="uni2004" unicode="&#x2004;" horiz-adv-x="672" 
 />
    <glyph glyph-name="uni2005" unicode="&#x2005;" horiz-adv-x="504" 
 />
    <glyph glyph-name="uni2006" unicode="&#x2006;" horiz-adv-x="336" 
 />
    <glyph glyph-name="uni2007" unicode="&#x2007;" horiz-adv-x="336" 
 />
    <glyph glyph-name="uni2008" unicode="&#x2008;" horiz-adv-x="252" 
 />
    <glyph glyph-name="uni2009" unicode="&#x2009;" horiz-adv-x="403" 
 />
    <glyph glyph-name="uni200A" unicode="&#x200a;" horiz-adv-x="112" 
 />
    <glyph glyph-name="uni2010" unicode="&#x2010;" horiz-adv-x="602" 
d="M61 483v199h480v-199h-480z" />
    <glyph glyph-name="uni2011" unicode="&#x2011;" horiz-adv-x="602" 
d="M61 483v199h480v-199h-480z" />
    <glyph glyph-name="figuredash" unicode="&#x2012;" horiz-adv-x="602" 
d="M61 483v199h480v-199h-480z" />
    <glyph glyph-name="endash" unicode="&#x2013;" horiz-adv-x="1030" 
d="M102 483v199h826v-199h-826z" />
    <glyph glyph-name="emdash" unicode="&#x2014;" horiz-adv-x="2060" 
d="M102 483v199h1856v-199h-1856z" />
    <glyph glyph-name="quoteleft" unicode="&#x2018;" horiz-adv-x="579" 
d="M299 1298q72 0 115 -43.5t43 -109.5t-46 -113t-119 -47t-121 55.5t-48 147.5q0 180 85 252.5t241 75.5v-101q-94 0 -142 -41q-39 -27 -49 -86q10 10 41 10z" />
    <glyph glyph-name="quoteright" unicode="&#x2019;" horiz-adv-x="579" 
d="M281 1202q-72 0 -115 44t-43 110t46 113t119 47t121 -55.5t48 -147.5q0 -180 -85 -253t-241 -75v100q91 0 134 35q44 35 57 92q-10 -10 -41 -10z" />
    <glyph glyph-name="quotesinglbase" unicode="&#x201a;" horiz-adv-x="579" 
d="M281 -25q-72 0 -115 44t-43 110t46 113t119 47t121 -55.5t48 -147.5q0 -180 -85 -253t-241 -75v101q94 0 141 41q37 26 50 86q-11 -11 -41 -11z" />
    <glyph glyph-name="quotedblleft" unicode="&#x201c;" horiz-adv-x="962" 
d="M682 1298q72 0 115 -43.5t43 -109.5t-46 -113t-119 -47t-121 55.5t-48 147.5q0 180 85 252.5t240 75.5v-101q-94 0 -141 -41q-39 -27 -49 -86q10 10 41 10zM299 1298q72 0 115 -43.5t43 -109.5t-46 -113t-119 -47t-121 55.5t-48 147.5q0 180 85 252.5t241 75.5v-101
q-94 0 -142 -41q-39 -27 -49 -86q10 10 41 10z" />
    <glyph glyph-name="quotedblright" unicode="&#x201d;" horiz-adv-x="962" 
d="M664 1202q-72 0 -115 44t-43 110t46 113t119 47t121 -55.5t48 -147.5q0 -180 -85 -253t-241 -75v100q91 0 134 35q44 35 57 92q-10 -10 -41 -10zM281 1202q-72 0 -115 44t-43 110t46 113t119 47t121 -55.5t48 -147.5q0 -180 -85 -253t-241 -75v100q91 0 134 35
q44 35 57 92q-10 -10 -41 -10z" />
    <glyph glyph-name="quotedblbase" unicode="&#x201e;" horiz-adv-x="962" 
d="M664 -25q-72 0 -115 44t-43 110t46 113t119 47t121 -55.5t48 -147.5q0 -180 -85 -253t-241 -75v101q94 0 141 41q37 26 50 86q-11 -11 -41 -11zM281 -25q-72 0 -115 44t-43 110t46 113t119 47t121 -55.5t48 -147.5q0 -180 -85 -253t-241 -75v101q94 0 141 41q37 26 50 86
q-11 -11 -41 -11z" />
    <glyph glyph-name="dagger" unicode="&#x2020;" horiz-adv-x="995" 
d="M150 756v198h237v514h223v-514h236v-198h-236v-1129h-223v1129h-237z" />
    <glyph glyph-name="daggerdbl" unicode="&#x2021;" horiz-adv-x="995" 
d="M150 0v193h237v569h-237v192h237v514h223v-514h236v-192h-236v-569h236v-193h-236v-373h-223v373h-237z" />
    <glyph glyph-name="bullet" unicode="&#x2022;" horiz-adv-x="722" 
d="M531 471.5q-69 -70.5 -169 -70.5t-169.5 70.5t-69.5 168.5t69 168.5t169.5 70.5t169.5 -70.5t69 -168.5t-69 -168.5z" />
    <glyph glyph-name="ellipsis" unicode="&#x2026;" horiz-adv-x="1976" 
d="M1524 148q0 69 48 117t117 48t116.5 -48t47.5 -117t-48.5 -116.5t-116.5 -47.5t-116 47.5t-48 116.5zM823 151q0 69 48.5 116.5t116.5 47.5t116.5 -48.5t48.5 -116.5t-48 -116t-117 -48t-117 48t-48 117zM123 153q0 69 48 116.5t117 47.5t117 -48.5t48 -116.5t-48.5 -116
t-116.5 -48t-116.5 48t-48.5 117z" />
    <glyph glyph-name="uni202F" unicode="&#x202f;" horiz-adv-x="403" 
 />
    <glyph glyph-name="perthousand" unicode="&#x2030;" horiz-adv-x="2654" 
d="M2066 264q0 -53 33 -91t87 -38t87 38t33 91v260q0 53 -33 91t-87 38t-87 -37.5t-33 -91.5v-260zM1886 264v260q0 117 82 199t217 82t218 -83t83 -198v-260q0 -119 -84 -199.5t-217 -80.5t-216 79.5t-83 200.5zM1358 264q0 -53 33 -91t87 -38t86.5 38t32.5 91v260
q0 53 -32.5 91t-86.5 38t-87 -37.5t-33 -91.5v-260zM1178 264v260q0 116 81 198.5t217 82.5t219 -83t83 -198v-260q0 -119 -84 -199.5t-218 -80.5t-216 80t-82 200zM420 -2l895 1542l178 -102l-895 -1542zM346 909q0 -53 33 -91t87 -38t87 38t33 91v260q0 53 -33 91t-87 38
t-87 -37.5t-33 -91.5v-260zM166 909v260q0 117 82 199t217 82t218 -83t83 -198v-260q0 -117 -83.5 -198.5t-217.5 -81.5t-216.5 80.5t-82.5 199.5z" />
    <glyph glyph-name="guilsinglleft" unicode="&#x2039;" horiz-adv-x="565" 
d="M82 530v132l401 335v-215l-223 -186l223 -186v-215z" />
    <glyph glyph-name="guilsinglright" unicode="&#x203a;" horiz-adv-x="565" 
d="M82 195v215l223 186l-223 186v215l401 -335v-132z" />
    <glyph glyph-name="fraction" unicode="&#x2044;" horiz-adv-x="458" 
d="M-307 -2l895 1542l178 -102l-895 -1542z" />
    <glyph glyph-name="uni205F" unicode="&#x205f;" horiz-adv-x="504" 
 />
    <glyph glyph-name="Euro" unicode="&#x20ac;" 
d="M127 647v141h-127l41 166h86q0 210 140.5 357t356.5 147t351 -127t158 -321h-238q-16 100 -86 168.5t-184 68.5t-188.5 -84.5t-74.5 -208.5h426l-40 -166h-386v-141h426l-40 -168h-386q0 -124 74 -208.5t194 -84.5t194.5 86t74.5 207h236q0 -208 -140.5 -356t-363.5 -148
t-363.5 148t-140.5 356h-127l41 168h86z" />
    <glyph glyph-name="afii61289" unicode="&#x2113;" horiz-adv-x="866" 
d="M432 729q209 187 209 375t-97 188q-54 0 -83 -61.5t-29 -151.5v-350zM240 1038q0 430 299 430q140 0 217.5 -102.5t77.5 -263.5q0 -253 -161 -403t-241 -212v-163q0 -142 70.5 -149t126.5 -7t125 18v-186q-99 -41 -256 -21t-207.5 124t-50.5 237l-131 -98l-99 170
l230 163v463z" />
    <glyph glyph-name="afii61352" unicode="&#x2116;" horiz-adv-x="2217" 
d="M1530 1042q0 -90 54.5 -153.5t144.5 -63.5t147 63t57 154.5t-56.5 154.5t-147.5 63q-90 0 -144.5 -64t-54.5 -154zM1422.5 1334.5q115.5 119.5 308.5 119.5t309.5 -120t116.5 -290.5t-116.5 -290.5t-309.5 -120t-308.5 119.5t-115.5 291t115.5 291zM1307 395v199h850
v-199h-850zM150 0v1434h258l567 -1020v1020h235v-1434h-258l-567 1020v-1020h-235z" />
    <glyph glyph-name="trademark" unicode="&#x2122;" horiz-adv-x="1673" 
d="M770 600v834h223l195 -566l192 566h211v-834h-135v637l-221 -637h-96l-234 668v-668h-135zM82 1311v123h549v-123h-207v-711h-137v711h-205z" />
    <glyph glyph-name="uni2126" unicode="&#x2126;" horiz-adv-x="1466" 
d="M92 832q0 112 44 228t175.5 257t421.5 141t465.5 -188t175.5 -453q0 -192 -98 -346t-277 -225v-35h338v-211h-522v371q163 34 243.5 160.5t80.5 297.5t-105.5 294.5t-300.5 123.5t-300 -123t-105 -297q0 -268 118.5 -353t204.5 -103v-371h-522v211h338v37
q-268 104 -321.5 288t-53.5 296z" />
    <glyph glyph-name="estimated" unicode="&#x212e;" horiz-adv-x="1087" 
d="M309 537h467v331q-100 66 -232 66t-235 -68v-329zM82 484q0 216 125 355.5t328 139.5t331.5 -123t128.5 -307v-19q0 -20 -2 -41h-684v-395q99 -71 245 -71t244 66.5t134 170.5h47q-35 -123 -146 -204t-253 -81q-249 0 -373.5 146.5t-124.5 362.5z" />
    <glyph glyph-name="arrowleft" unicode="&#x2190;" 
d="M1311 807v-182h-1075l243 -217l-123 -134l-479 443l479 442l123 -133l-246 -219h1078z" />
    <glyph glyph-name="arrowup" unicode="&#x2191;" 
d="M684 0h-182v1073l-217 -242l-133 123l442 480l442 -480l-133 -123l-219 246v-1077z" />
    <glyph glyph-name="arrowright" unicode="&#x2192;" 
d="M-123 627v182h1073l-241 217l122 133l480 -442l-480 -443l-122 134l245 219h-1077z" />
    <glyph glyph-name="arrowdown" unicode="&#x2193;" 
d="M504 1434h182v-1076l217 244l133 -123l-442 -479l-442 479l133 123l219 -246v1078z" />
    <glyph glyph-name="uni2196" unicode="&#x2196;" 
d="M55 1223l652 -25l-9 -182l-327 18l762 -760l-129 -129l-760 758l18 -323l-182 -9z" />
    <glyph glyph-name="uni2197" unicode="&#x2197;" 
d="M55 274l758 760l-324 -18l-8 182l652 25l-25 -652l-182 9l20 327l-762 -762z" />
    <glyph glyph-name="uni2198" unicode="&#x2198;" 
d="M55 1159l129 129l760 -758l-18 324l182 8l25 -651l-652 25l8 182l328 -19z" />
    <glyph glyph-name="uni2199" unicode="&#x2199;" 
d="M55 211l25 651l182 -8l-18 -328l760 762l129 -129l-758 -760l323 19l9 -182z" />
    <glyph glyph-name="partialdiff" unicode="&#x2202;" 
d="M870 606q-128 101 -274 101q-135 0 -207 -78.5t-72 -195.5q0 -116 70 -190.5t201 -74.5t204.5 93.5t77.5 344.5zM1090 629q0 -666 -517 -666q-207 0 -341 136t-134 332t132.5 338t342.5 142q84 0 162 -29.5t129 -72.5q-15 268 -80 361.5t-186 93.5t-189.5 -84t-68.5 -213
h-236q0 212 133 356.5t353 144.5q125 0 218 -41t187.5 -189t94.5 -609z" />
    <glyph glyph-name="uni2206" unicode="&#x2206;" horiz-adv-x="1169" 
d="M332 211h506l-252 831zM6 0l496 1434h166l495 -1434h-1157z" />
    <glyph glyph-name="product" unicode="&#x220f;" horiz-adv-x="1361" 
d="M6 1417v209h1350v-209h-144v-1896h-235v1896h-592v-1896h-235v1896h-144z" />
    <glyph glyph-name="summation" unicode="&#x2211;" 
d="M61 1626h1063v-209h-764l730 -803l-730 -864h764v-229h-1063v219l732 844l-732 843v199z" />
    <glyph glyph-name="minus" unicode="&#x2212;" 
d="M180 483v199h828v-199h-828z" />
    <glyph glyph-name="radical" unicode="&#x221a;" horiz-adv-x="1400" 
d="M4 276v199h404l180 -563l561 1714h248l-727 -2105h-166l-262 755h-238z" />
    <glyph glyph-name="infinity" unicode="&#x221e;" horiz-adv-x="1705" 
d="M1223 377q106 0 160.5 64.5t54.5 150.5t-54.5 150.5t-160.5 64.5q-61 0 -128 -52.5t-126 -162.5q59 -113 125.5 -164t128.5 -51zM268 592q0 -86 54.5 -150.5t160.5 -64.5q59 0 126 51t128 164q-61 111 -128 163t-126 52q-106 0 -160.5 -64.5t-54.5 -150.5zM57 592
q0 165 112.5 289.5t316.5 124.5t366 -213q161 213 366 213t318 -120.5t113 -294.5t-113 -293.5t-317 -119.5t-367 213q-161 -213 -365 -213t-317 124.5t-113 289.5z" />
    <glyph glyph-name="integral" unicode="&#x222b;" horiz-adv-x="602" 
d="M119 -305q71 0 71 96v1559q0 147 57.5 211.5t141.5 64.5q124 0 172 -22v-185q-54 13 -78 13q-71 0 -71 -97v-1558q0 -216 -81 -246.5t-160 -30.5t-130 23v184q49 -12 78 -12z" />
    <glyph glyph-name="approxequal" unicode="&#x2248;" 
d="M362 840q88 0 242 -66q59 -25 118.5 -49.5t102.5 -24.5q113 0 226 113v-190q-91 -121 -228 -121q-94 0 -223 70t-241 69q-111 0 -224 -113v191q91 121 227 121zM362 520q84 0 193 -45q108 -45 167.5 -69.5t102.5 -24.5q113 0 226 113v-191q-91 -121 -228 -121
q-97 0 -225 70t-239 70t-224 -113v190q91 121 227 121z" />
    <glyph glyph-name="notequal" unicode="&#x2260;" 
d="M180 322v198h250l53 121h-303v199h389l93 215h249l-92 -215h189v-199h-275l-53 -121h328v-198h-412l-92 -216h-250l92 216h-166z" />
    <glyph glyph-name="lessequal" unicode="&#x2264;" 
d="M180 801v157l828 287v-205l-498 -159l498 -162v-205zM180 0v199h828v-199h-828z" />
    <glyph glyph-name="greaterequal" unicode="&#x2265;" 
d="M180 514v205l498 162l-498 159v205l828 -287v-157zM180 0v199h828v-199h-828z" />
    <glyph glyph-name="lozenge" unicode="&#x25ca;" horiz-adv-x="993" 
d="M240 811l256 -575l258 575l-256 575zM10 811l387 815h201l385 -815l-385 -811h-201z" />
    <glyph glyph-name="uniE000" unicode="&#xe000;" horiz-adv-x="952" 
d="M0 0v952h952v-952h-952z" />
    <glyph glyph-name="fi" unicode="&#xfb01;" horiz-adv-x="1347" 
d="M930 0v954h223v-954h-223zM885 1300q0 66 44.5 112t110.5 46t112 -46t46 -112t-46 -110.5t-112 -44.5t-110.5 44.5t-44.5 110.5zM497.5 1221q-38.5 -26 -38.5 -123v-144h250v-186h-250v-768h-223v768h-195v186h195v119q0 237 102.5 305t215.5 68q112 0 155 -25v-188
q-54 14 -113.5 14t-98 -26z" />
    <glyph glyph-name="fl" unicode="&#xfb02;" horiz-adv-x="1257" 
d="M885 0v1434h223v-1434h-223zM497.5 1221q-38.5 -26 -38.5 -123v-144h250v-186h-250v-768h-223v768h-195v186h195v119q0 237 102.5 305t215.5 68q112 0 155 -25v-188q-54 14 -113.5 14t-98 -26z" />
    <glyph glyph-name="apple" horiz-adv-x="1482" 
d="M994 694q111 0 188 94q-37 84 -109 109q31 -29 31 -75t-30 -75.5t-75 -29.5t-74.5 29.5t-29.5 75.5t31 71q-81 -28 -109 -68q26 -68 77.5 -99.5t99.5 -31.5zM773.5 168q128.5 0 207.5 104q37 45 51 105q-55 0 -100 18q22 35 22 63q0 49 -15 88.5t-41 39.5t-26 -27
q0 -10 14 -23t13 -54q0 -42 -14 -68q-35 16 -66 30.5t-78 14.5t-79.5 -14.5t-63.5 -30.5q-14 26 -14 66t13 54t13 25q0 27 -26 27q-37 0 -46.5 -50.5t-9.5 -79.5t19 -61q-45 -18 -96 -18q23 -115 108.5 -162t214 -47zM588 822q0 -46 -30 -75.5t-75 -29.5t-74.5 29.5
t-29.5 76.5t27 70q-74 -25 -105 -105q70 -94 182 -94q81 0 142 66q25 29 39 65q-39 54 -117 78q41 -35 41 -81zM82 658q0 196 37 196q22 0 37 -23.5t22 -23.5q2 0 4 46t15.5 115.5t45 151.5t94 151.5t160 116t244.5 46.5t244.5 -46.5t160 -116t94.5 -151.5t45 -151.5
t15.5 -115.5t6.5 -46q5 0 20 23.5t31 23.5q25 0 34 -58t9 -96q0 -200 -41 -200q-29 0 -43 28q-65 -331 -240 -429.5t-380.5 -98.5t-348 149t-182.5 381q-15 -30 -35 -30t-34.5 38.5t-14.5 119.5z" />
    <glyph glyph-name="commaaccent" horiz-adv-x="512" 
d="M256 10q-59 0 -95 39t-36 93t38.5 93t98.5 39t102 -47t42 -123q0 -152 -73 -212t-202 -62v84q80 0 118 31t42 75q-10 -10 -35 -10z" />
    <glyph glyph-name="commaturn" horiz-adv-x="512" 
d="M125 1352q0 152 72.5 212t201.5 62v-84q-80 0 -115 -29t-44 -77q10 10 34 10q59 0 95.5 -39t36.5 -93t-39 -93t-99 -39t-101.5 47t-41.5 123z" />
    </font>
</defs>
</svg>
