<?xml version="1.0" standalone="no"?>
<!DOCTYPE svg PUBLIC "-//W3C//DTD SVG 1.1//EN" "http://www.w3.org/Graphics/SVG/1.1/DTD/svg11.dtd" >
<svg xmlns="http://www.w3.org/2000/svg">
<metadata>
Created by FontPrep 20130207 at Wed Sep 14 16:26:46 2016
 By Nick Villapiano
Copyright (c) 2011 by Grilli Type. All rights reserved.
</metadata>
<defs>
<font id="e12e879f51033bdf7bc51c11052d75d2" horiz-adv-x='1024' >
  <font-face 
    font-family="GTWalsheim-MediumOblique"
    font-weight="500"
    font-style="oblique"
    font-stretch="normal"
    units-per-em="2048"
    panose-1="2 0 5 3 2 0 0 2 0 3"
    ascent="1638"
    descent="-410"
    x-height="954"
    cap-height="1434"
    bbox="-307 -502 2543.66 2017"
    underline-thickness="102"
    underline-position="-102"
    unicode-range="U+000D-FB02"
  />
<missing-glyph horiz-adv-x="1482" 
d="M1192 828q0 -44 -34 -78q-34 -33 -79 -33q-45 1 -71 27t-27 56q0 66 39 93q-79 -25 -115 -68q11 -37 31 -63q52 -67 147 -68q96 0 183 94q-30 85 -99 109q25 -25 25 -69zM775 168q105 0 165 32t85 72q26 39 26 72q-1 33 -11 33t-36 8t-31 10q33 47 33 75q0 50 -13 83
t-32 33q-9 0 -19 -8t-10 -20t9 -22t9 -50t-22 -72q-30 16 -60 30t-77 15q-47 -1 -81 -15t-69 -30q-8 18 -8 60q1 42 19 60t18 27q0 25 -26 25t-46 -48t-20 -85t10 -58q-45 -18 -96 -18q8 -113 122 -177q56 -32 161 -32zM385 788q63 -94 176 -94q85 0 146 66q27 29 45 65
q-40 56 -109 78q33 -28 33 -76q0 -47 -35 -79t-79 -31t-70 27t-27 73q0 47 31 72q-50 -16 -76 -48t-35 -53zM184 500q-34 0 -34 125t36 203q12 26 26 26q15 0 30 -24t22 -23q2 0 10 46q8 45 28 115q56 190 169 304q164 162 424 162t386 -162q89 -116 107 -304q6 -70 4 -115
q-3 -46 0 -46q7 -1 24 23q17 23 32 24q29 0 29 -124q-1 -124 -39 -202q-14 -28 -33 -28q-20 0 -33 26q-100 -410 -475 -504q-89 -22 -189 -22t-164 12t-118 66q-116 112 -205 452q-15 -30 -37 -30z" />
    <glyph glyph-name=".notdef" horiz-adv-x="1482" 
d="M1192 828q0 -44 -34 -78q-34 -33 -79 -33q-45 1 -71 27t-27 56q0 66 39 93q-79 -25 -115 -68q11 -37 31 -63q52 -67 147 -68q96 0 183 94q-30 85 -99 109q25 -25 25 -69zM775 168q105 0 165 32t85 72q26 39 26 72q-1 33 -11 33t-36 8t-31 10q33 47 33 75q0 50 -13 83
t-32 33q-9 0 -19 -8t-10 -20t9 -22t9 -50t-22 -72q-30 16 -60 30t-77 15q-47 -1 -81 -15t-69 -30q-8 18 -8 60q1 42 19 60t18 27q0 25 -26 25t-46 -48t-20 -85t10 -58q-45 -18 -96 -18q8 -113 122 -177q56 -32 161 -32zM385 788q63 -94 176 -94q85 0 146 66q27 29 45 65
q-40 56 -109 78q33 -28 33 -76q0 -47 -35 -79t-79 -31t-70 27t-27 73q0 47 31 72q-50 -16 -76 -48t-35 -53zM184 500q-34 0 -34 125t36 203q12 26 26 26q15 0 30 -24t22 -23q2 0 10 46q8 45 28 115q56 190 169 304q164 162 424 162t386 -162q89 -116 107 -304q6 -70 4 -115
q-3 -46 0 -46q7 -1 24 23q17 23 32 24q29 0 29 -124q-1 -124 -39 -202q-14 -28 -33 -28q-20 0 -33 26q-100 -410 -475 -504q-89 -22 -189 -22t-164 12t-118 66q-116 112 -205 452q-15 -30 -37 -30z" />
    <glyph glyph-name=".null" horiz-adv-x="0" 
 />
    <glyph glyph-name=".null" horiz-adv-x="0" 
 />
    <glyph glyph-name="nonmarkingreturn" unicode="&#xd;" horiz-adv-x="512" 
 />
    <glyph glyph-name="space" unicode=" " horiz-adv-x="512" 
 />
    <glyph glyph-name="exclam" unicode="!" horiz-adv-x="632" 
d="M242 457l104 977h244l-105 -977h-243zM158 110q0 90 56 145.5t129 55.5t118 -45t45 -97q0 -90 -59 -147t-132 -57q-72 0 -114.5 46.5t-42.5 98.5z" />
    <glyph glyph-name="quotedbl" unicode="&#x22;" horiz-adv-x="796" 
d="M596 1264l22 204h211l-22 -204l-86 -310h-105zM256 1264l23 204h210l-22 -204l-86 -310h-105z" />
    <glyph glyph-name="numbersign" unicode="#" horiz-adv-x="1124" 
d="M510 590h209l61 254h-209zM102 418l19 172h207l61 254h-180l18 172h205l100 418h183l-101 -418h209l101 418h182l-100 -418h168l-19 -172h-192l-62 -254h166l-18 -172h-191l-102 -418h-181l101 418h-209l-102 -418h-181l101 418h-183z" />
    <glyph glyph-name="dollar" unicode="$" horiz-adv-x="1314" 
d="M958 420q0 111 -83 146.5t-147 59.5q-199 74 -300.5 154.5t-101.5 248.5t109.5 281t275.5 146l22 223h209l-22 -221q152 -33 236.5 -151.5t68.5 -286.5h-236q10 100 -39 168.5t-148 68.5t-169 -52t-70 -151t75.5 -137t137.5 -62t242 -99t180 -316q0 -183 -126.5 -311.5
t-307.5 -155.5l-23 -219h-209l23 221q-167 29 -263 160t-77 334h236q-12 -136 54.5 -214.5t185.5 -78.5q112 0 189.5 66.5t77.5 177.5z" />
    <glyph glyph-name="percent" unicode="%" horiz-adv-x="1945" 
d="M1492 135q54 0 91 38t43 91l27 260q6 53 -22.5 91t-84.5 38t-92.5 -41t-40.5 -88l-27 -260q-6 -53 23 -91t83 -38zM1771 721.5q74 -83.5 62 -197.5l-27 -260q-13 -120 -105 -200t-226 -80t-208 80.5t-61 199.5l27 260q12 118 102.5 199.5t226 81.5t209.5 -83.5zM548 780
q54 0 91 38t43 91l27 260q6 53 -23 91t-85 38t-92 -40.5t-40 -88.5l-27 -260q-6 -53 23 -91t83 -38zM420 -2l1057 1542l168 -102l-1057 -1542zM828 1367.5q73 -82.5 61 -198.5l-27 -260q-12 -118 -104 -199t-226.5 -81t-208 81t-61.5 199l27 260q12 116 103.5 198.5
t226.5 82.5q136 0 209 -82.5z" />
    <glyph glyph-name="ampersand" unicode="&#x26;" horiz-adv-x="1226" 
d="M471 1034q0 -178 219 -178l-22 -209q-159 0 -230 -73t-71 -177t70.5 -157.5t140.5 -53.5q128 0 212.5 79t100.5 212h-148l21 209h491l-20 -209h-109q-27 -231 -189 -366.5t-351 -135.5q-188 0 -320.5 112.5t-132.5 301.5q0 190 105.5 261t160.5 100q-74 45 -118.5 104.5
t-44.5 163.5q0 196 146 318t345 122t312.5 -124t93.5 -324h-236q19 166 -58 201.5t-158 35.5t-145.5 -52t-64.5 -161z" />
    <glyph glyph-name="quotesingle" unicode="'" horiz-adv-x="456" 
d="M256 1264l23 204h210l-22 -204l-86 -310h-105z" />
    <glyph glyph-name="parenleft" unicode="(" horiz-adv-x="798" 
d="M215 0l119 1124q21 208 175.5 355t377.5 147l-21 -211q-119 0 -202 -86.5t-95 -204.5l-118 -1124q-12 -122 52.5 -206.5t182.5 -84.5l-22 -211q-224 0 -347 146t-102 356z" />
    <glyph glyph-name="parenright" unicode=")" horiz-adv-x="798" 
d="M29 -502l22 211q118 0 201.5 85.5t95.5 205.5l117 1124q12 120 -53 205.5t-183 85.5l23 211q224 0 348 -148.5t102 -353.5l-118 -1124q-20 -203 -175.5 -352.5t-379.5 -149.5z" />
    <glyph glyph-name="asterisk" unicode="*" horiz-adv-x="946" 
d="M201 1133l59 135l268 -94l29 294h143l-36 -294l288 94l31 -135l-293 -89l154 -235l-125 -84l-146 242l-194 -242l-109 84l203 235z" />
    <glyph glyph-name="plus" unicode="+" 
d="M231 483l21 199h301l33 315h223l-33 -315h303l-20 -199h-303l-33 -313h-223l32 313h-301z" />
    <glyph glyph-name="comma" unicode="," horiz-adv-x="595" 
d="M266 -12q-52 0 -90.5 44t-38.5 112t55.5 120.5t131.5 52.5q161 0 161 -213q0 -160 -96 -251t-283 -91l11 105q142 0 175.5 54t37.5 79q-12 -12 -64 -12z" />
    <glyph glyph-name="hyphen" unicode="-" horiz-adv-x="602" 
d="M113 483l20 199h479l-20 -199h-479z" />
    <glyph glyph-name="period" unicode="." horiz-adv-x="575" 
d="M191 262.5q54 54.5 124 54.5t112 -44t42 -94q0 -81 -53.5 -136t-124.5 -55q-70 0 -112 44t-42 110t54 120.5z" />
    <glyph glyph-name="slash" unicode="/" horiz-adv-x="927" 
d="M-8 -53l928 1732l194 -88l-928 -1732z" />
    <glyph glyph-name="zero" unicode="0" 
d="M816 271q85 85 97 206l50 479q12 122 -54.5 206.5t-185 84.5t-202 -85.5t-95.5 -205.5l-49 -479q-12 -122 53 -206.5t183 -84.5t203 85zM1096 1312q123 -146 102 -356l-49 -479q-20 -203 -175.5 -352.5t-379.5 -149.5q-223 0 -348.5 144t-104.5 358l52 479
q21 207 174.5 354.5t379.5 147.5t349 -146z" />
    <glyph glyph-name="one" unicode="1" horiz-adv-x="749" 
d="M168 1010l20 186q187 0 257.5 51.5t82.5 186.5h224l-152 -1434h-244l107 1010h-295z" />
    <glyph glyph-name="two" unicode="2" horiz-adv-x="1079" 
d="M874 1083q0 82 -53 123t-142 41t-158.5 -57t-82.5 -180h-235q23 212 171.5 330t331.5 118t292.5 -98t109.5 -280q0 -183 -111.5 -289.5t-188 -153.5t-150.5 -93q-147 -92 -206 -169t-63 -164h623l-23 -211h-893q40 430 215.5 557.5t293.5 194.5t164 107t75.5 91t29.5 133
z" />
    <glyph glyph-name="three" unicode="3" horiz-adv-x="1165" 
d="M862 435q0 96 -52 154t-183 58h-97l23 209h98q133 0 188.5 61.5t55.5 156.5t-51.5 134t-153.5 39t-161.5 -63.5t-69.5 -173.5h-236q20 203 160 325.5t326 122.5t305 -99t119 -267q0 -129 -67 -216.5t-165 -125.5q84 -35 140.5 -107t56.5 -185q0 -214 -159.5 -348.5
t-367.5 -134.5q-209 0 -343 136t-109 368h235q-15 -134 54.5 -213.5t188.5 -79.5q118 0 191.5 76.5t73.5 172.5z" />
    <glyph glyph-name="four" unicode="4" horiz-adv-x="1144" 
d="M178 430l107 1004h235l-84 -793h287l45 430h236l-46 -430h197l-22 -211h-197l-45 -430h-236l45 430h-522z" />
    <glyph glyph-name="five" unicode="5" horiz-adv-x="1241" 
d="M455 825q97 152 357 152q74 0 149 -35t154 -126t79 -279q0 -231 -159 -396.5t-394 -165.5q-234 0 -356.5 147t-102.5 355h236q-13 -124 51.5 -207.5t189.5 -83.5t211 95t86 216t-64.5 196t-178.5 75q-166 0 -256 -158h-236l86 824h871l-23 -211h-659z" />
    <glyph glyph-name="six" unicode="6" horiz-adv-x="1165" 
d="M424 260.5q64 -74.5 184 -74.5q119 0 205 95t86 215t-64.5 196t-186.5 76t-205 -97.5t-83 -216.5t64 -193.5zM680 979q207 0 332 -131t125 -338t-160.5 -371t-382.5 -164t-346.5 129t-124.5 312t125 358l481 660h270l-350 -457q10 2 31 2z" />
    <glyph glyph-name="seven" unicode="7" horiz-adv-x="980" 
d="M131 0l657 1223h-581l22 211h914l-762 -1434h-250z" />
    <glyph glyph-name="eight" unicode="8" horiz-adv-x="1206" 
d="M492 1004q0 -62 51 -117.5t154 -55.5t170 68.5t67 151.5q0 84 -51.5 140t-153.5 56t-169.5 -66.5t-67.5 -176.5zM451.5 247.5q60.5 -61.5 178.5 -61.5t195.5 74t77.5 167t-61.5 154.5t-181.5 61.5t-194.5 -75t-74.5 -167t60.5 -153.5zM401 754q-145 65 -145 267
q0 83 36 163t138.5 177t311.5 97t319 -107t110 -266q0 -107 -50 -196.5t-156 -134.5q126 -45 150 -151.5t24 -174.5t-38 -154t-149.5 -192.5t-333.5 -106.5t-313.5 86t-121 157.5t-29.5 139.5q0 134 63 243.5t184 152.5z" />
    <glyph glyph-name="nine" unicode="9" horiz-adv-x="1165" 
d="M484 740.5q66 -74.5 186 -74.5t204 96t84 216t-65 194.5t-184 74.5t-205 -94.5t-86 -215.5q0 -122 66 -196.5zM180 912q0 104 42 204.5t160 221t340 120.5t347 -128.5t125 -321.5q0 -106 -37 -190.5t-90 -158.5l-479 -659h-271l351 455q-221 0 -354.5 125t-133.5 332z
" />
    <glyph glyph-name="colon" unicode=":" horiz-adv-x="575" 
d="M262.5 936q53.5 55 124.5 55q70 0 112 -44t42 -94q0 -83 -54.5 -137t-124.5 -54t-111.5 44t-41.5 110q0 65 53.5 120zM191 262.5q54 54.5 124 54.5t112 -44t42 -94q0 -81 -53.5 -136t-124.5 -55q-70 0 -112 44t-42 110t54 120.5z" />
    <glyph glyph-name="semicolon" unicode=";" horiz-adv-x="595" 
d="M262.5 936q53.5 55 124.5 55q70 0 112 -44t42 -94q0 -83 -54.5 -137t-124.5 -54t-111.5 44t-41.5 110q0 65 53.5 120zM266 -12q-52 0 -90.5 44t-38.5 112t55.5 120.5t131.5 52.5q161 0 161 -213q0 -160 -96 -251t-283 -91l11 105q142 0 175.5 54t37.5 79q-12 -12 -64 -12
z" />
    <glyph glyph-name="less" unicode="&#x3c;" 
d="M129 502l16 157l1078 361l-23 -211l-733 -227l684 -230l-21 -211z" />
    <glyph glyph-name="equal" unicode="=" 
d="M248 641l22 199h828l-23 -199h-827zM215 322l21 198h827l-21 -198h-827z" />
    <glyph glyph-name="greater" unicode="&#x3e;" 
d="M88 141l23 211l733 230l-686 227l22 211l1002 -361l-19 -157z" />
    <glyph glyph-name="question" unicode="?" horiz-adv-x="1046" 
d="M366.5 254q55.5 57 129.5 57t118.5 -45t44.5 -97q0 -92 -59.5 -148t-130.5 -56q-72 0 -115 46t-43 116t55.5 127zM948.5 1356q114.5 -102 114.5 -252q0 -211 -111.5 -299t-155.5 -121q-104 -78 -132.5 -127.5t-40.5 -171.5h-226q18 150 60 238t141 155q35 25 132 95
t97 200q0 90 -54 132t-139 42t-155.5 -53t-87.5 -184h-235q23 211 167 329.5t327 118.5q184 0 298.5 -102z" />
    <glyph glyph-name="at" unicode="@" horiz-adv-x="1697" 
d="M649 377q0 -76 54.5 -141.5t161.5 -65.5t182 83t75 187q0 103 -56 169.5t-163 66.5t-180.5 -84t-73.5 -215zM80 370q0 164 62.5 327t181 287t292.5 198.5t368 74.5q369 0 577 -182t208 -532q0 -259 -114 -432.5t-314 -173.5q-115 0 -170.5 55t-80.5 139q-43 -59 -115 -94
t-154 -35q-160 0 -261 112.5t-101 282.5t134 308.5t268 138.5t197.5 -35t92.5 -94l12 108h187l-56 -534q-18 -184 86 -185q86 0 142.5 124.5t56.5 281.5q0 291 -162 435.5t-428 144.5q-337 0 -485 -164t-193 -293t-45 -257q0 -269 168.5 -441.5t480.5 -172.5
q197 0 338.5 46.5t214.5 85.5l76 -146q-287 -154 -647 -154q-401 0 -609 218.5t-208 557.5z" />
    <glyph glyph-name="A" unicode="A" horiz-adv-x="1169" 
d="M428 393h395l-129 649zM6 0l647 1434h166l344 -1434h-248l-43 182h-538l-80 -182h-248z" />
    <glyph glyph-name="B" unicode="B" horiz-adv-x="1224" 
d="M727 831q140 0 193 69.5t53 146.5q0 115 -71 145.5t-134 30.5h-254l-41 -392h254zM674 211q139 0 193.5 71.5t54.5 149.5q0 118 -71 153.5t-132 35.5h-268l-43 -410h266zM791 1434q233 0 326 -109.5t93 -258.5q0 -150 -81.5 -236t-180.5 -105q74 -15 141.5 -84t67.5 -208
q0 -140 -109.5 -286.5t-396.5 -146.5h-501l151 1434h490z" />
    <glyph glyph-name="C" unicode="C" horiz-adv-x="1587" 
d="M150 656q0 148 58 296t165.5 262.5t260 184t321.5 69.5q308 0 476.5 -155t176.5 -402h-248q-12 154 -114 250t-281 96q-250 0 -370 -133t-161 -240.5t-41 -214.5q0 -212 129.5 -352.5t333.5 -140.5q236 0 329 112.5t118 172.5h258q-72 -214 -271.5 -355t-464.5 -141
q-313 0 -494 197.5t-181 493.5z" />
    <glyph glyph-name="D" unicode="D" horiz-adv-x="1435" 
d="M637 211q245 0 362 126t156 225.5t39 194.5q0 198 -121.5 332t-329.5 134h-229l-106 -1012h229zM766 1434q311 0 491.5 -191t180.5 -461q0 -145 -57.5 -285.5t-164 -251t-259 -178t-343.5 -67.5h-464l151 1434h465z" />
    <glyph glyph-name="E" unicode="E" horiz-adv-x="1116" 
d="M150 0l151 1434h827l-22 -211h-592l-43 -406h592l-23 -211h-591l-41 -395h591l-22 -211h-827z" />
    <glyph glyph-name="F" unicode="F" horiz-adv-x="1101" 
d="M150 0l151 1434h827l-22 -211h-592l-49 -455h592l-21 -211h-592l-59 -557h-235z" />
    <glyph glyph-name="G" unicode="G" horiz-adv-x="1716" 
d="M150 652q0 146 60 296t167.5 265.5t257 185t304.5 69.5t314 -55t241 -230q38 -81 38 -170v-9h-238q-8 107 -102 180t-232 73q-254 0 -411.5 -179.5t-157.5 -402.5t122.5 -361t326.5 -138t321 94.5t158 237.5h-275l21 211h682l-21 -211h-157q-76 -248 -273 -395.5
t-471 -147.5q-321 0 -498 194t-177 493z" />
    <glyph glyph-name="H" unicode="H" horiz-adv-x="1361" 
d="M150 0l151 1434h236l-66 -617h592l65 617h236l-152 -1434h-235l63 606h-591l-64 -606h-235z" />
    <glyph glyph-name="I" unicode="I" horiz-adv-x="542" 
d="M150 0l151 1434h244l-152 -1434h-243z" />
    <glyph glyph-name="J" unicode="J" horiz-adv-x="1097" 
d="M307 417q0 -95 43 -168t160 -73t182.5 80t79.5 209l102 969h236l-102 -969q-24 -220 -164 -360t-354.5 -140t-317 129t-102.5 302q0 35 4 71h235q-2 -26 -2 -50z" />
    <glyph glyph-name="K" unicode="K" horiz-adv-x="1243" 
d="M150 0l151 1434h236l-68 -631l600 631h295l-682 -717l530 -717h-294l-467 629l-66 -629h-235z" />
    <glyph glyph-name="L" unicode="L" horiz-adv-x="878" 
d="M150 0l151 1434h236l-129 -1223h442l-23 -211h-677z" />
    <glyph glyph-name="M" unicode="M" horiz-adv-x="1665" 
d="M150 0l151 1434h225l346 -1067l570 1067h225l-151 -1434h-236l94 887l-452 -887h-179l-264 887l-94 -887h-235z" />
    <glyph glyph-name="N" unicode="N" horiz-adv-x="1359" 
d="M150 0l151 1434h258l459 -1020l108 1020h236l-152 -1434h-258l-460 1020l-107 -1020h-235z" />
    <glyph glyph-name="O" unicode="O" horiz-adv-x="1638" 
d="M399 668q0 -209 120 -350.5t337 -141.5q218 0 377.5 180.5t159.5 417.5q0 198 -119 340.5t-326 142.5q-121 0 -222 -51t-174 -134t-113 -191.5t-40 -212.5zM150 656q0 146 59 294t167.5 263.5t259 185t324.5 69.5q321 0 500.5 -198t179.5 -479q0 -158 -59 -307.5
t-166.5 -264.5t-258.5 -184.5t-324 -69.5t-298.5 56.5t-210.5 149.5t-129 216t-44 269z" />
    <glyph glyph-name="P" unicode="P" horiz-adv-x="1220" 
d="M731 641q132 0 217.5 94.5t85.5 214.5q0 121 -64.5 197t-176.5 76h-279l-61 -582h278zM815 1434q210 0 332.5 -132t122.5 -339q0 -208 -160.5 -370.5t-400.5 -162.5h-279l-45 -430h-235l151 1434h514z" />
    <glyph glyph-name="Q" unicode="Q" horiz-adv-x="1638" 
d="M399 668q0 -209 120 -350.5t337 -141.5q218 0 377.5 180.5t159.5 417.5q0 198 -119 340.5t-326 142.5q-121 0 -222 -51t-174 -134t-113 -191.5t-40 -212.5zM150 658q0 144 59 293t167.5 263.5t259 184t324.5 69.5q322 0 501 -199.5t179 -468.5t-152.5 -487.5
t-412.5 -306.5l105 -172l-217 -104l-148 235q-311 0 -488 201t-177 492z" />
    <glyph glyph-name="R" unicode="R" horiz-adv-x="1247" 
d="M731 641q132 0 217.5 94.5t85.5 214.5q0 121 -64.5 197t-176.5 76h-279l-61 -582h278zM815 1434q210 0 332.5 -132t122.5 -312t-96.5 -318t-258.5 -205l236 -467h-268l-217 430h-236l-45 -430h-235l151 1434h514z" />
    <glyph glyph-name="S" unicode="S" horiz-adv-x="1165" 
d="M370 412q0 -93 62.5 -164.5t178.5 -71.5t192 64.5t76 174.5q0 111 -84.5 149t-148.5 62q-190 69 -295 153t-105 247q0 196 144.5 319t342.5 123t306.5 -116.5t108.5 -277.5q0 -26 -3 -54h-236q2 18 2 34q0 84 -46 144t-146 60t-168 -53t-68 -151q0 -99 75.5 -137
t137.5 -62t242 -98.5t180 -320.5q0 -209 -158.5 -340t-375.5 -131t-333 125.5t-118 311.5q0 32 4 67h236q-3 -25 -3 -57z" />
    <glyph glyph-name="T" unicode="T" horiz-adv-x="987" 
d="M150 1223l22 211h946l-22 -211h-357l-129 -1223h-235l129 1223h-354z" />
    <glyph glyph-name="U" unicode="U" horiz-adv-x="1310" 
d="M422 429q0 -96 64 -174.5t188 -78.5q123 0 211 88t100 215l100 955h236l-100 -955q-20 -211 -180.5 -362.5t-388 -151.5t-358.5 151q-107 124 -109 307q0 28 3 56l101 955h235l-100 -955q-2 -19 -2 -50z" />
    <glyph glyph-name="V" unicode="V" horiz-adv-x="1165" 
d="M156 1434h247l224 -1043l438 1043h248l-647 -1434h-166z" />
    <glyph glyph-name="W" unicode="W" horiz-adv-x="2013" 
d="M162 1434h248l223 -1022l438 1022h174l225 -1022l437 1022h247l-647 -1434h-170l-221 1022l-440 -1022h-170z" />
    <glyph glyph-name="X" unicode="X" horiz-adv-x="1150" 
d="M16 0l502 717l-350 717h266l238 -514l348 514h266l-502 -717l351 -717h-267l-239 512l-346 -512h-267z" />
    <glyph glyph-name="Y" unicode="Y" horiz-adv-x="1232" 
d="M174 1434h272l318 -617l373 617h258l-863 -1434h-258l347 573z" />
    <glyph glyph-name="Z" unicode="Z" horiz-adv-x="1181" 
d="M27 0l872 1223h-700l22 211h1092l-873 -1223h740l-23 -211h-1130z" />
    <glyph glyph-name="bracketleft" unicode="[" horiz-adv-x="727" 
d="M98 -479l221 2107h414l-20 -198h-191l-180 -1713h190l-20 -196h-414z" />
    <glyph glyph-name="backslash" unicode="\" horiz-adv-x="927" 
d="M166 1591l215 88l563 -1732l-215 -88z" />
    <glyph glyph-name="bracketright" unicode="]" horiz-adv-x="727" 
d="M113 -479l20 196h191l180 1710h-191l21 199h414l-222 -2105h-413z" />
    <glyph glyph-name="asciicircum" unicode="^" horiz-adv-x="1327" 
d="M193 662l550 874h156l375 -874h-252l-229 591l-357 -591h-243z" />
    <glyph glyph-name="underscore" unicode="_" horiz-adv-x="1146" 
d="M35 -256l16 154h1024l-16 -154h-1024z" />
    <glyph glyph-name="grave" unicode="`" horiz-adv-x="1173" 
d="M385 1335l125 174l481 -280l-125 -174z" />
    <glyph glyph-name="a" unicode="a" horiz-adv-x="1234" 
d="M418.5 251q68.5 -77 193.5 -77t213 99t88 225q0 127 -68 204.5t-193 77.5q-126 0 -214 -99t-88 -226t68.5 -204zM125 438q0 100 42 199.5t157.5 220.5t330.5 121q106 0 181 -42t112 -112l15 129h223l-101 -954h-223l15 129q-49 -66 -132 -110t-185 -44t-180.5 36
t-135 98.5t-88 145.5t-31.5 183z" />
    <glyph glyph-name="b" unicode="b" horiz-adv-x="1239" 
d="M490 251.5q68 -77.5 193 -77.5t213.5 99t88.5 235q0 183 -95 227.5t-160 44.5t-122 -26.5t-121.5 -99t-64.5 -199.5q0 -126 68 -203.5zM775 979q194 0 314.5 -133.5t120.5 -337.5t-114.5 -323t-211 -164.5t-203.5 -45.5t-182 42t-112 112l-14 -129h-223l151 1434h223
l-65 -609q49 66 132 110t184 44z" />
    <glyph glyph-name="c" unicode="c" horiz-adv-x="1093" 
d="M129 432q0 96 35 196.5t145 225.5t361 125q200 0 312 -116q93 -99 91 -245v-12h-223q0 78 -47 126t-137 48q-158 0 -236 -99t-78 -243q0 -186 89 -225t170 -39q152 0 212 154h224q-36 -157 -167 -255t-329 -98t-310 128.5t-112 328.5z" />
    <glyph glyph-name="d" unicode="d" horiz-adv-x="1234" 
d="M418.5 251q68.5 -77 193.5 -77t213 99t88 225q0 127 -68 204.5t-193 77.5q-126 0 -214 -99t-88 -226t68.5 -204zM125 438q0 100 42 199.5t157.5 220.5t330.5 121q106 0 181 -42t112 -112l66 609h223l-152 -1434h-223l15 129q-49 -66 -132 -110t-185 -44t-180.5 36
t-135 98.5t-88 145.5t-31.5 183z" />
    <glyph glyph-name="e" unicode="e" horiz-adv-x="1087" 
d="M634 793q-100 0 -175.5 -55.5t-85.5 -162.5h467q1 15 1 28q1 80 -53 135t-154 55zM1057 596q0 -72 -29 -186h-676q-7 -112 45.5 -180t179.5 -68t164 50t52 75h225q-39 -131 -164 -221.5t-315 -90.5t-300 128.5t-110 341.5t144 373.5t370 160.5q188 0 272 -83t113 -155.5
t29 -144.5z" />
    <glyph glyph-name="f" unicode="f" horiz-adv-x="735" 
d="M626.5 1222.5q-40.5 -24.5 -53.5 -124.5l-14 -144h250l-21 -186h-249l-80 -768h-223l79 768h-194l20 186h195l12 119q24 234 132.5 303.5t202.5 69.5t122.5 -7t52.5 -18l-20 -188q-54 14 -112 14q-59 0 -99.5 -24.5z" />
    <glyph glyph-name="g" unicode="g" horiz-adv-x="1228" 
d="M415.5 253q67.5 -79 194.5 -79t215 99t88 235q0 184 -97.5 228t-161.5 44t-120.5 -26.5t-121 -99t-64.5 -197.5t67.5 -204zM82 -109h225q10 -194 246 -194q125 0 207 60.5t96 195.5l18 176q-49 -66 -130.5 -110t-183.5 -44q-194 0 -314.5 133.5t-120.5 336.5
q0 204 157.5 369t372.5 165q106 0 181 -42t112 -112l15 129h221l-105 -1001q-23 -231 -165.5 -343t-382.5 -112t-344.5 114t-104.5 267v12z" />
    <glyph glyph-name="h" unicode="h" horiz-adv-x="1165" 
d="M459 821q107 158 316 158t286 -129q33 -54 35 -100q6 -104 -4 -183l-60 -567h-223l51 494q4 36 4 70q0 218 -178 218q-119 0 -184.5 -83t-77.5 -205l-51 -494h-223l151 1434h223z" />
    <glyph glyph-name="i" unicode="i" horiz-adv-x="612" 
d="M330 1414q54 54 124 54t112 -44t42 -94q0 -83 -54 -137t-124 -54t-112 44.5t-42 110.5t54 120zM195 0l100 954h223l-100 -954h-223z" />
    <glyph glyph-name="j" unicode="j" horiz-adv-x="604" 
d="M328 1414q54 54 124 54t112 -44t42 -94q0 -81 -53.5 -136t-124.5 -55q-70 0 -112 44.5t-42 110.5t54 120zM91 -305q68 0 79 96l123 1163h221l-123 -1177q-22 -217 -109.5 -247t-165.5 -30t-124 23l18 184q49 -12 81 -12z" />
    <glyph glyph-name="k" unicode="k" horiz-adv-x="1021" 
d="M150 0l151 1434h223l-96 -902l395 422h279l-449 -477l348 -477h-278l-305 420l-45 -420h-223z" />
    <glyph glyph-name="l" unicode="l" horiz-adv-x="522" 
d="M150 0l151 1434h223l-151 -1434h-223z" />
    <glyph glyph-name="m" unicode="m" horiz-adv-x="1712" 
d="M1350 979q179 0 250 -121q46 -78 43 -189q0 -32 -3 -65l-63 -604h-223l55 535q3 30 3 82t-26 100q-34 65 -131 65q-141 0 -181 -105.5t-48 -191.5l-51 -485h-223l57 537q3 31 3 83t-24 98q-34 64 -131 64q-141 0 -183 -105.5t-50 -191.5l-51 -485h-223l100 954h223
l-14 -133q98 158 295 158q111 0 179 -47t93 -123q98 170 324 170z" />
    <glyph glyph-name="n" unicode="n" horiz-adv-x="1165" 
d="M459 821q107 158 316 158t286 -129q33 -54 35 -100q6 -104 -4 -183l-60 -567h-223l51 494q4 36 4 70q0 218 -178 218q-119 0 -184.5 -83t-77.5 -205l-51 -494h-223l100 954h223z" />
    <glyph glyph-name="o" unicode="o" horiz-adv-x="1163" 
d="M418.5 251q68.5 -77 193.5 -77t213 99t88 225q0 127 -68 204.5t-193 77.5q-126 0 -214 -99t-88 -226t68.5 -204zM125 438q0 100 42 199.5t159 220.5t340 121t348 -131t125 -338t-160.5 -371t-384.5 -164t-346.5 131t-122.5 332z" />
    <glyph glyph-name="p" unicode="p" horiz-adv-x="1239" 
d="M489 252.5q69 -78.5 194 -78.5t213.5 99t88.5 235q0 184 -95.5 228t-159.5 44t-121.5 -26.5t-123 -98t-65.5 -198.5q0 -126 69 -204.5zM775 979q194 0 314.5 -133.5t120.5 -336.5t-115.5 -323t-212 -165.5t-203.5 -45.5t-182 42t-112 112l-63 -608h-224l152 1433h223
l-14 -129q49 66 132 110t184 44z" />
    <glyph glyph-name="q" unicode="q" horiz-adv-x="1239" 
d="M422.5 251q68.5 -77 193.5 -77t213.5 99.5t88.5 224.5q0 126 -68.5 204t-193.5 78q-126 0 -214 -99t-88 -226t68.5 -204zM129 438q0 100 42 199.5t157.5 220.5t330.5 121q106 0 181 -42t112 -112l15 129h223l-152 -1433h-223l66 608q-49 -66 -132 -110t-185 -44
t-180.5 36t-134.5 98.5t-88 145.5t-32 183z" />
    <glyph glyph-name="r" unicode="r" horiz-adv-x="774" 
d="M754 758q-150 0 -235 -83t-103 -263l-43 -412h-223l100 954h223l-16 -153q66 108 166 137t149 29t84 -15l-22 -204q-42 10 -80 10z" />
    <glyph glyph-name="s" unicode="s" horiz-adv-x="929" 
d="M492 152q72 0 119.5 27.5t47.5 74.5t-18 67.5t-53 36t-87.5 33t-108.5 40.5q-117 48 -165.5 96.5t-48.5 133.5q0 152 112.5 235t271.5 83t248.5 -85.5t89.5 -208.5q0 -15 -1 -30h-217q1 11 1 21q-2 127 -136 127q-66 0 -109 -30t-43 -78t42 -71.5t147 -63.5
q106 -39 198 -85t92 -174q0 -165 -121.5 -245.5t-288.5 -80.5t-268 89q-89 85 -89 213q0 22 2 45h217q-2 -16 -1 -31q0 -139 167 -139z" />
    <glyph glyph-name="t" unicode="t" horiz-adv-x="718" 
d="M462 316q0 -24 4 -51t24.5 -52t93.5 -25t114 9l-20 -197q-87 -12 -149 -12t-147 11.5t-132 134.5q-18 45 -18 97t4 93l47 444h-162l20 186h162l29 289h223l-29 -289h219l-20 -186h-219l-41 -393q-3 -35 -3 -59z" />
    <glyph glyph-name="u" unicode="u" horiz-adv-x="1165" 
d="M402 390q0 -218 178 -218q119 0 184 83t78 206l51 493h223l-100 -954h-223l14 133q-111 -158 -318 -158t-284 129q-33 54 -35 100t-3 84q0 38 7 99l59 567h224l-51 -493q-4 -37 -4 -71z" />
    <glyph glyph-name="v" unicode="v" horiz-adv-x="1011" 
d="M102 954h240l195 -635l333 635h240l-532 -954h-150z" />
    <glyph glyph-name="w" unicode="w" horiz-adv-x="1542" 
d="M100 954h240l143 -604l279 604h219l152 -604l270 604h239l-471 -954h-149l-174 713l-328 -713h-149z" />
    <glyph glyph-name="x" unicode="x" horiz-adv-x="913" 
d="M16 0l363 481l-256 473h258l145 -299l207 299h258l-354 -473l260 -481h-258l-150 307l-215 -307h-258z" />
    <glyph glyph-name="y" unicode="y" horiz-adv-x="1183" 
d="M426 390q0 -218 178 -218q119 0 184.5 83t77.5 206l52 493h223l-105 -999q-22 -230 -158 -343.5t-348 -113.5t-291 84t-98 148t-19 104t1 57h217q-1 -12 -1 -31q0 -61 47.5 -112t168.5 -51t182.5 62.5t75.5 195.5l18 178q-107 -158 -315 -158t-285 129q-33 56 -37 102
t-3 84q0 38 8 97l59 567h223l-51 -493q-4 -37 -4 -71z" />
    <glyph glyph-name="z" unicode="z" horiz-adv-x="897" 
d="M45 0l533 756h-441l21 198h811l-531 -755h451l-21 -199h-823z" />
    <glyph glyph-name="braceleft" unicode="{" horiz-adv-x="942" 
d="M803 1626h145l-18 -168h-90q-115 0 -127 -153l-54 -521q-11 -116 -86.5 -171.5t-140.5 -61.5q75 -13 132.5 -65.5t43.5 -188.5l-49 -455q-8 -106 25.5 -129.5t70.5 -23.5h90l-18 -168h-145q-108 0 -187 73t-63 211l47 461q11 93 -47 142t-121 49l18 182q67 0 111.5 30.5
t68 63.5t27.5 82l56 526q15 135 107.5 210t203.5 75z" />
    <glyph glyph-name="bar" unicode="|" horiz-adv-x="522" 
d="M98 -479l221 2105h224l-221 -2105h-224z" />
    <glyph glyph-name="braceright" unicode="}" horiz-adv-x="942" 
d="M221 -311q95 0 109 64.5t16 88.5l49 455q14 137 84.5 189.5t145.5 64.5q-67 6 -128.5 62t-50.5 171l56 521q8 107 -26 130t-70 23h-91l19 168h145q110 0 187.5 -75.5t62.5 -209.5l-55 -526q-10 -84 47.5 -130t122.5 -46l-19 -182q-63 0 -129.5 -48t-79.5 -143l-47 -461
q-15 -138 -108.5 -211t-202.5 -73h-145l18 168h90z" />
    <glyph glyph-name="asciitilde" unicode="~" horiz-adv-x="1079" 
d="M842 567q99 0 227 113l-20 -191q-104 -120 -244 -120q-85 -1 -216 69t-214 70q-84 0 -138.5 -32t-113.5 -81l20 191q101 121 216 121t259 -66q61 -27 114.5 -50.5t109.5 -23.5z" />
    <glyph glyph-name="nonbreakingspace" unicode="&#xa0;" horiz-adv-x="512" 
 />
    <glyph glyph-name="exclamdown" unicode="&#xa1;" horiz-adv-x="632" 
d="M289 1264q0 84 55 139t125 55t113 -45t43 -95q0 -87 -57.5 -140.5t-126.5 -53.5t-110.5 45.5t-41.5 94.5zM199 0l102 967h244l-103 -967h-243z" />
    <glyph glyph-name="cent" unicode="&#xa2;" 
d="M306 1013q116 158 312 193l23 224h209l-23 -222q161 -26 236.5 -128.5t71.5 -235.5h-224q0 78 -47 126t-136 48q-160 0 -237 -100t-77 -240q0 -185 89 -225.5t169 -40.5q150 0 213 153h223q-35 -129 -130 -224t-255 -120l-23 -219h-208l22 221q-155 31 -239.5 153.5
t-84.5 300.5t116 336z" />
    <glyph glyph-name="sterling" unicode="&#xa3;" 
d="M834 1458q192 0 305.5 -125.5t93.5 -322.5h-236q22 237 -196 237q-94 0 -155.5 -45t-72.5 -137l-20 -209h293l-23 -211h-293q-29 -215 -51 -311.5t-55 -122.5h610l-22 -211h-877l19 174q89 66 141 471h-139l22 211h139q8 93 20 196q20 185 162.5 295.5t334.5 110.5z" />
    <glyph glyph-name="currency" unicode="&#xa4;" horiz-adv-x="1472" 
d="M603 532.5q68 -77.5 194 -77.5q127 0 215 99t88 225t-69.5 204t-194.5 78t-213 -99.5t-88 -225.5t68 -203.5zM311 711q0 174 113 325l-119 133l156 142l117 -133q128 82 290 82t277 -82l145 131l125 -140l-145 -133q55 -100 55 -233q0 -178 -115 -326l117 -131l-153 -141
l-117 131q-129 -80 -293 -80t-272 80l-148 -131l-127 139l148 133q-54 102 -54 234z" />
    <glyph glyph-name="yen" unicode="&#xa5;" 
d="M90 1434h272l320 -617l446 617h273l-590 -813h266l-18 -187h-311l-13 -110h312l-21 -187h-311l-15 -137h-211l15 137h-305l20 187h305l13 110h-306l19 187h260z" />
    <glyph glyph-name="brokenbar" unicode="&#xa6;" horiz-adv-x="522" 
d="M221 684l98 942h224l-99 -942h-223zM98 -479l99 940h223l-98 -940h-224z" />
    <glyph glyph-name="section" unicode="&#xa7;" 
d="M373 553q0 -130 132 -174.5t187 -61.5q99 8 166.5 69.5t67.5 146.5q0 86 -78 135q-53 35 -244 96q-98 -8 -164.5 -66.5t-66.5 -144.5zM895 219q121 -89 121 -257t-147.5 -281t-345.5 -113t-315.5 118.5t-96.5 297.5h237q-10 -98 42 -160t157 -62q148 0 189.5 69t41.5 112
q0 76 -55 115.5t-140 69.5t-167 61.5t-183.5 100t-101.5 228.5q0 119 70.5 213t201.5 133q-122 83 -122 255q0 171 148.5 284t343.5 113t315 -116.5t100 -299.5h-238q10 98 -43 159.5t-151 61.5t-167 -49t-69 -131q0 -105 78 -138.5t136 -53.5q198 -69 314.5 -145.5
t116.5 -230.5q0 -127 -87.5 -232t-182.5 -122z" />
    <glyph glyph-name="dieresis" unicode="&#xa8;" horiz-adv-x="1218" 
d="M805 1294q0 64 51.5 114t117.5 50t106 -42t40 -108t-51 -114.5t-119 -48.5t-106.5 42.5t-38.5 106.5zM336 1294q0 64 52 114t118 50t105.5 -42t39.5 -89q0 -83 -51.5 -132.5t-117.5 -49.5t-106 42.5t-40 106.5z" />
    <glyph glyph-name="copyright" unicode="&#xa9;" horiz-adv-x="1646" 
d="M451 679q0 91 34.5 183t141.5 206t334 114q179 0 282 -99t107 -247h-170q-10 88 -73 143t-151 55q-153 0 -245.5 -103t-92.5 -235q0 -131 70.5 -214t196.5 -83q86 0 155.5 43t106.5 115h174q-47 -134 -170 -219.5t-300 -85.5t-288.5 121t-111.5 306zM360 666
q0 -224 128.5 -377.5t353.5 -153.5q131 0 241.5 54.5t188.5 144.5t122 206t44 228q0 226 -129 378t-353 152q-133 0 -242.5 -54t-187 -144t-122 -206t-44.5 -228zM154 656q0 146 59 294t167.5 263.5t259.5 185t324 69.5q320 0 500.5 -198.5t180.5 -478.5
q0 -158 -59.5 -307.5t-167 -264.5t-258.5 -184.5t-324 -69.5t-298.5 56.5t-210.5 149.5t-129 216t-44 269z" />
    <glyph glyph-name="ordfeminine" unicode="&#xaa;" horiz-adv-x="1234" 
d="M418.5 251q68.5 -77 193.5 -77t213 99t88 225q0 127 -68 204.5t-193 77.5q-126 0 -214 -99t-88 -226t68.5 -204zM125 438q0 100 42 199.5t157.5 220.5t330.5 121q106 0 181 -42t112 -112l15 129h223l-101 -954h-223l15 129q-49 -66 -132 -110t-185 -44t-180.5 36
t-135 98.5t-88 145.5t-31.5 183z" />
    <glyph glyph-name="guillemotleft" unicode="&#xab;" horiz-adv-x="966" 
d="M539 530l14 132l436 335l-22 -215l-244 -186l205 -186l-23 -215zM137 530l15 132l436 335l-23 -215l-243 -186l204 -186l-22 -215z" />
    <glyph glyph-name="logicalnot" unicode="&#xac;" 
d="M248 641l20 199h828l-54 -512h-223l33 313h-604z" />
    <glyph glyph-name="softhyphen" unicode="&#xad;" horiz-adv-x="602" 
d="M113 483l20 199h479l-20 -199h-479z" />
    <glyph glyph-name="registered" unicode="&#xae;" horiz-adv-x="1646" 
d="M944 719q72 0 116 51.5t44 113.5t-33 103t-94 41h-166l-33 -309h166zM1008 1165q118 0 191 -76.5t73 -181.5q0 -106 -55.5 -186t-151.5 -117l137 -272h-176l-125 250h-137l-27 -250h-157l88 833h340zM360 666q0 -224 128.5 -377.5t353.5 -153.5q131 0 241.5 54.5
t188.5 144.5t122 206t44 228q0 226 -129 378t-353 152q-133 0 -242.5 -54t-187 -144t-122 -206t-44.5 -228zM154 656q0 146 59 294t167.5 263.5t259.5 185t324 69.5q320 0 500.5 -198.5t180.5 -478.5q0 -158 -59.5 -307.5t-167 -264.5t-258.5 -184.5t-324 -69.5t-298.5 56.5
t-210.5 149.5t-129 216t-44 269z" />
    <glyph glyph-name="macron" unicode="&#xaf;" horiz-adv-x="1136" 
d="M356 1481l21 198h733l-20 -198h-734z" />
    <glyph glyph-name="degree" unicode="&#xb0;" horiz-adv-x="667" 
d="M319 1152q0 -42 35 -78t91 -36t101.5 44.5t45.5 100.5t-34 94t-75 38t-68.5 -12.5t-49 -34t-34 -48t-12.5 -68.5zM258.5 1373.5q96.5 94.5 218.5 94.5t198.5 -75t76.5 -198q0 -122 -97 -217t-220 -95q-122 0 -197.5 75.5t-75.5 198.5q0 122 96.5 216.5z" />
    <glyph glyph-name="plusminus" unicode="&#xb1;" 
d="M260 756l21 198h301l32 316h224l-33 -316h303l-21 -198h-303l-32 -314h-224l33 314h-301zM180 0l21 199h827l-20 -199h-828z" />
    <glyph glyph-name="twosuperior" unicode="&#xb2;" horiz-adv-x="772" 
d="M532 1313q-97 0 -112 -115h-180q13 106 94 179t198 73t189 -51t72 -156q0 -145 -97.5 -206.5t-138.5 -86.5q-95 -58 -121.5 -84.5t-32.5 -72.5h340l-16 -148h-547q26 251 117 316.5t164.5 107t113 76t39.5 90.5q0 78 -82 78z" />
    <glyph glyph-name="threesuperior" unicode="&#xb3;" horiz-adv-x="800" 
d="M596 897q0 90 -104 90h-70l14 141h70q70 0 92.5 31t22.5 74q0 80 -82 80q-59 0 -83 -31t-30 -84h-180q9 102 86 177t213 75q176 0 217 -76t41 -138t-42 -112.5t-95 -68.5q43 -16 76.5 -57.5t33.5 -107.5q0 -122 -91.5 -191.5t-227.5 -69.5t-206.5 79t-55.5 201h180
q-8 -66 21.5 -100.5t84.5 -34.5t85 36t30 87z" />
    <glyph glyph-name="acute" unicode="&#xb4;" horiz-adv-x="1173" 
d="M293 1229l538 280l89 -174l-539 -280z" />
    <glyph glyph-name="uni00B5" unicode="&#xb5;" 
d="M496 -25q-64 0 -123 17l-49 -471h-224l152 1433h221l-51 -493q-28 -289 174 -289q119 0 184.5 83t77.5 206l51 493h226l-101 -954h-223l12 133q-107 -158 -327 -158z" />
    <glyph glyph-name="paragraph" unicode="&#xb6;" horiz-adv-x="1368" 
d="M139 1035q0 95 28 164t91.5 135t188.5 100t247 34h678l-18 -184h-109l-168 -1587h-211l168 1585h-215l-168 -1585h-211l103 977q-288 0 -346 133t-58 228z" />
    <glyph glyph-name="periodcentered" unicode="&#xb7;" horiz-adv-x="575" 
d="M242.5 750.5q54.5 54.5 124.5 54.5t111.5 -44.5t41.5 -94.5q0 -82 -54 -136.5t-124 -54.5t-112 44.5t-42 110.5t54.5 120.5z" />
    <glyph glyph-name="cedilla" unicode="&#xb8;" horiz-adv-x="1136" 
d="M614 -276q0 71 -74 71q-36 0 -61 -37h-110l26 242h144l-15 -131q31 27 67 27q64 0 110.5 -42t46.5 -120q0 -77 -62.5 -145t-169.5 -68t-146.5 57t-41.5 119h131q12 -61 69 -62q37 0 61.5 26t24.5 63z" />
    <glyph glyph-name="onesuperior" unicode="&#xb9;" horiz-adv-x="577" 
d="M217 1167l14 129q158 0 177.5 51.5t23.5 86.5h160l-84 -789h-184l55 522h-162z" />
    <glyph glyph-name="ordmasculine" unicode="&#xba;" horiz-adv-x="1163" 
d="M418.5 251q68.5 -77 193.5 -77t213 99t88 225q0 127 -68 204.5t-193 77.5q-126 0 -214 -99t-88 -226t68.5 -204zM125 438q0 100 42 199.5t159 220.5t340 121t348 -131t125 -338t-160.5 -371t-384.5 -164t-346.5 131t-122.5 332z" />
    <glyph glyph-name="guillemotright" unicode="&#xbb;" horiz-adv-x="966" 
d="M504 195l22 215l244 186l-205 186l23 215l366 -335l-14 -132zM102 195l23 215l244 186l-205 186l22 215l367 -335l-14 -132z" />
    <glyph glyph-name="onequarter" unicode="&#xbc;" horiz-adv-x="1945" 
d="M1180 219l61 569h180l-45 -417h133l23 219h180l-22 -219h96l-17 -152h-96l-22 -219h-181l23 219h-313zM303 -2l1057 1542l168 -102l-1057 -1542zM270 1167l15 129q157 0 176.5 51.5t23.5 86.5h160l-84 -789h-184l55 522h-162z" />
    <glyph glyph-name="onehalf" unicode="&#xbd;" horiz-adv-x="1945" 
d="M1587 590q0 78 -82 78q-43 0 -73.5 -27t-38.5 -88h-181q12 105 93 178.5t199 73.5t189.5 -51.5t71.5 -155.5q0 -146 -97 -207t-138 -86q-95 -58 -122.5 -85.5t-31.5 -72.5h340l-16 -147h-547q26 248 114.5 313.5t164 108.5t115.5 78t40 90zM303 -2l1057 1542l168 -102
l-1057 -1542zM270 1167l15 129q157 0 176.5 51.5t23.5 86.5h160l-84 -789h-184l55 522h-162z" />
    <glyph glyph-name="threequarters" unicode="&#xbe;" horiz-adv-x="1945" 
d="M1180 219l59 569h180l-43 -417h133l23 219h180l-22 -219h96l-17 -152h-96l-22 -219h-181l23 219h-313zM303 -2l1057 1542l168 -102l-1059 -1542zM590 897q0 90 -105 90h-69l14 141h70q70 0 92 31t22 74q0 80 -82 80q-59 0 -82.5 -31t-29.5 -84h-180q9 101 85.5 176.5
t213.5 75.5q176 0 217 -76t41 -138t-42 -112.5t-96 -68.5q43 -16 77 -57.5t34 -107.5q0 -122 -91.5 -191.5t-228.5 -69.5q-136 0 -205.5 78.5t-56.5 201.5h181q-8 -66 21.5 -100.5t84.5 -34.5t85 36t30 87z" />
    <glyph glyph-name="questiondown" unicode="&#xbf;" horiz-adv-x="1046" 
d="M539 1264q0 90 57 147t130 57t117 -46t44 -98q0 -91 -58 -146.5t-131 -55.5q-72 0 -115.5 45t-43.5 97zM212 577.5q79 94.5 179 163.5q109 81 134.5 122.5t34.5 82.5t15 103h226q-17 -145 -47.5 -210t-65.5 -106t-80 -72q-120 -83 -179.5 -146t-59.5 -154t55 -133
t141 -42t157 56.5t83 181.5h235q-19 -207 -162.5 -328t-326.5 -121t-300.5 100.5t-117.5 253.5q0 154 79 248.5z" />
    <glyph glyph-name="Agrave" unicode="&#xc0;" horiz-adv-x="1169" 
d="M514 1815l125 174l481 -281l-125 -174zM428 393h395l-129 649zM6 0l647 1434h166l344 -1434h-248l-43 182h-538l-80 -182h-248z" />
    <glyph glyph-name="Aacute" unicode="&#xc1;" horiz-adv-x="1169" 
d="M455 1669l538 281l88 -174l-538 -281zM428 393h395l-129 649zM6 0l647 1434h166l344 -1434h-248l-43 182h-538l-80 -182h-248z" />
    <glyph glyph-name="Acircumflex" unicode="&#xc2;" horiz-adv-x="1169" 
d="M428 393h395l-129 649zM395 1694l398 297l340 -297l-156 -156l-211 184l-246 -182zM6 0l647 1434h166l344 -1434h-248l-43 182h-538l-80 -182h-248z" />
    <glyph glyph-name="Atilde" unicode="&#xc3;" horiz-adv-x="1169" 
d="M428 393h395l-129 649zM406 1782q130 78 189 78q58 0 170 -28t157 -28t155 56l74 -142q-120 -92 -223 -92q-47 0 -153.5 26.5t-144.5 26.5t-76 -16t-67 -27zM6 0l647 1434h166l344 -1434h-248l-43 182h-538l-80 -182h-248z" />
    <glyph glyph-name="Adieresis" unicode="&#xc4;" horiz-adv-x="1169" 
d="M840 1725q0 85 55 138.5t124 53.5t110.5 -44.5t41.5 -94.5q0 -84 -54 -137.5t-124 -53.5t-111.5 44.5t-41.5 93.5zM428 393h395l-129 649zM371 1725q0 85 55 138.5t124 53.5t110.5 -44.5t41.5 -94.5q0 -84 -54 -137.5t-124 -53.5t-111.5 44.5t-41.5 93.5zM6 0l647 1434
h166l344 -1434h-248l-43 182h-538l-80 -182h-248z" />
    <glyph glyph-name="Aring" unicode="&#xc5;" horiz-adv-x="1169" 
d="M678 1743q0 -37 23.5 -60.5t61.5 -23.5t67.5 28.5t29.5 66.5t-22.5 61.5t-61.5 23.5t-68.5 -29.5t-29.5 -66.5zM599 1916q83 83 187 83t170 -65.5t66 -171.5t-85 -186.5t-187 -80.5t-168 68t-66 169t83 184zM428 393h395l-129 649zM6 0l647 1434h166l344 -1434h-248
l-43 182h-538l-80 -182h-248z" />
    <glyph glyph-name="AE" unicode="&#xc6;" horiz-adv-x="1808" 
d="M487 395h385l86 817zM4 0l848 1434h958l-22 -211h-592l-43 -406h592l-23 -211h-592l-40 -395h591l-22 -211h-828l19 184h-485l-105 -184h-256z" />
    <glyph glyph-name="Ccedilla" unicode="&#xc7;" horiz-adv-x="1587" 
d="M952 -246q0 72 -76 72q-36 0 -59 -37h-110l18 182q-264 27 -419.5 219t-155.5 470q0 144 58 293t165.5 263.5t260 183t320.5 68.5q309 0 477.5 -155t176.5 -402h-248q-12 154 -114 250t-281 96q-250 0 -370 -133t-161 -240.5t-41 -214.5q0 -212 129.5 -352.5
t333.5 -140.5q236 0 329 112.5t118 172.5h258q-74 -210 -262 -346t-431 -148l-8 -67q53 46 138 13t85 -143q0 -82 -61.5 -150.5t-167.5 -68.5t-147 57.5t-43 119.5h131q12 -61 69 -62q37 0 62.5 25.5t25.5 62.5z" />
    <glyph glyph-name="Egrave" unicode="&#xc8;" horiz-adv-x="1116" 
d="M479 1778l125 174l481 -281l-124 -174zM150 0l151 1434h827l-22 -211h-592l-43 -406h592l-23 -211h-591l-41 -395h591l-22 -211h-827z" />
    <glyph glyph-name="Eacute" unicode="&#xc9;" horiz-adv-x="1116" 
d="M432 1708l539 281l88 -174l-539 -281zM150 0l151 1434h827l-22 -211h-592l-43 -406h592l-23 -211h-591l-41 -395h591l-22 -211h-827z" />
    <glyph glyph-name="Ecircumflex" unicode="&#xca;" horiz-adv-x="1116" 
d="M383 1694l397 297l340 -297l-155 -156l-211 184l-246 -182zM150 0l151 1434h827l-22 -211h-592l-43 -406h592l-23 -211h-591l-41 -395h591l-22 -211h-827z" />
    <glyph glyph-name="Edieresis" unicode="&#xcb;" horiz-adv-x="1116" 
d="M902 1862.5q54 54.5 124 54.5t112 -44.5t42 -94.5q0 -82 -54.5 -136.5t-124.5 -54.5t-111.5 44.5t-41.5 110.5t54 120.5zM433.5 1862.5q54.5 54.5 124.5 54.5t111.5 -44.5t41.5 -94.5q0 -82 -54.5 -136.5t-124.5 -54.5t-111.5 44.5t-41.5 110.5t54.5 120.5zM150 0
l151 1434h827l-22 -211h-592l-43 -406h592l-23 -211h-591l-41 -395h591l-22 -211h-827z" />
    <glyph glyph-name="Igrave" unicode="&#xcc;" horiz-adv-x="542" 
d="M150 1776l124 174l482 -281l-125 -174zM150 0l151 1434h244l-152 -1434h-243z" />
    <glyph glyph-name="Iacute" unicode="&#xcd;" horiz-adv-x="542" 
d="M150 0l151 1434h244l-152 -1434h-243zM139 1669l539 281l88 -174l-539 -281z" />
    <glyph glyph-name="Icircumflex" unicode="&#xce;" horiz-adv-x="542" 
d="M150 0l151 1434h244l-152 -1434h-243zM82 1694l397 297l340 -297l-155 -156l-211 184l-246 -182z" />
    <glyph glyph-name="Idieresis" unicode="&#xcf;" horiz-adv-x="542" 
d="M603.5 1862.5q54.5 54.5 124.5 54.5t111.5 -44.5t41.5 -94.5q0 -82 -54.5 -136.5t-124.5 -54.5t-111.5 44.5t-41.5 110.5t54.5 120.5zM150 0l151 1434h244l-152 -1434h-243zM134 1862.5q54 54.5 124 54.5t112 -44.5t42 -94.5q0 -82 -54.5 -136.5t-124.5 -54.5
t-111.5 44.5t-41.5 110.5t54 120.5z" />
    <glyph glyph-name="Eth" unicode="&#xd0;" horiz-adv-x="1435" 
d="M637 211q245 0 362 126t156 225.5t39 194.5q0 198 -121.5 332t-329.5 134h-229l-43 -406h254l-20 -199h-254l-43 -407h229zM766 1434q310 0 491 -193.5t181 -460.5q0 -145 -58.5 -285.5t-166 -250t-259 -177t-340.5 -67.5h-464l65 618h-244l21 199h244l65 617h465z" />
    <glyph glyph-name="Ntilde" unicode="&#xd1;" horiz-adv-x="1359" 
d="M473 1782q130 78 188 78t171.5 -28t158.5 -28t154 56l74 -142q-120 -92 -224 -92q-46 0 -152 26.5t-145 26.5t-76.5 -16t-66.5 -27zM150 0l151 1434h258l459 -1020l108 1020h236l-152 -1434h-258l-460 1020l-107 -1020h-235z" />
    <glyph glyph-name="Ograve" unicode="&#xd2;" horiz-adv-x="1638" 
d="M739 1815l123 174l481 -281l-124 -174zM399 668q0 -209 120 -350.5t337 -141.5q218 0 377.5 180.5t159.5 417.5q0 198 -119 340.5t-326 142.5q-121 0 -222 -51t-174 -134t-113 -191.5t-40 -212.5zM150 656q0 146 59 294t167.5 263.5t259 185t324.5 69.5q321 0 500.5 -198
t179.5 -479q0 -158 -59 -307.5t-166.5 -264.5t-258.5 -184.5t-324 -69.5t-298.5 56.5t-210.5 149.5t-129 216t-44 269z" />
    <glyph glyph-name="Oacute" unicode="&#xd3;" horiz-adv-x="1638" 
d="M647 1708l539 281l90 -174l-541 -281zM399 668q0 -209 120 -350.5t337 -141.5q218 0 377.5 180.5t159.5 417.5q0 198 -119 340.5t-326 142.5q-121 0 -222 -51t-174 -134t-113 -191.5t-40 -212.5zM150 656q0 146 59 294t167.5 263.5t259 185t324.5 69.5q321 0 500.5 -198
t179.5 -479q0 -158 -59 -307.5t-166.5 -264.5t-258.5 -184.5t-324 -69.5t-298.5 56.5t-210.5 149.5t-129 216t-44 269z" />
    <glyph glyph-name="Ocircumflex" unicode="&#xd4;" horiz-adv-x="1638" 
d="M631 1694l399 297l338 -297l-156 -156l-208 184l-248 -182zM399 668q0 -209 120 -350.5t337 -141.5q218 0 377.5 180.5t159.5 417.5q0 198 -119 340.5t-326 142.5q-121 0 -222 -51t-174 -134t-113 -191.5t-40 -212.5zM150 656q0 146 59 294t167.5 263.5t259 185
t324.5 69.5q321 0 500.5 -198t179.5 -479q0 -158 -59 -307.5t-166.5 -264.5t-258.5 -184.5t-324 -69.5t-298.5 56.5t-210.5 149.5t-129 216t-44 269z" />
    <glyph glyph-name="Otilde" unicode="&#xd5;" horiz-adv-x="1638" 
d="M631 1782q130 78 187 78q56 0 171 -28t157 -28t157 56l73 -142q-68 -52 -128 -72t-93 -20q-49 0 -155 26.5t-151 26.5t-138 -43zM399 668q0 -209 120 -350.5t337 -141.5q218 0 377.5 180.5t159.5 417.5q0 198 -119 340.5t-326 142.5q-121 0 -222 -51t-174 -134
t-113 -191.5t-40 -212.5zM150 656q0 146 59 294t167.5 263.5t259 185t324.5 69.5q321 0 500.5 -198t179.5 -479q0 -158 -59 -307.5t-166.5 -264.5t-258.5 -184.5t-324 -69.5t-298.5 56.5t-210.5 149.5t-129 216t-44 269z" />
    <glyph glyph-name="Odieresis" unicode="&#xd6;" horiz-adv-x="1638" 
d="M1127.5 1862.5q54.5 54.5 124.5 54.5t111.5 -44.5t41.5 -94.5q0 -82 -54.5 -136.5t-124.5 -54.5t-111.5 44.5t-41.5 110.5t54.5 120.5zM658 1862.5q54 54.5 124 54.5t112 -44.5t42 -94.5q0 -82 -54 -136.5t-124 -54.5t-112 44.5t-42 110.5t54 120.5zM399 668
q0 -209 120 -350.5t337 -141.5q218 0 377.5 180.5t159.5 417.5q0 198 -119 340.5t-326 142.5q-121 0 -222 -51t-174 -134t-113 -191.5t-40 -212.5zM150 656q0 146 59 294t167.5 263.5t259 185t324.5 69.5q321 0 500.5 -198t179.5 -479q0 -158 -59 -307.5t-166.5 -264.5
t-258.5 -184.5t-324 -69.5t-298.5 56.5t-210.5 149.5t-129 216t-44 269z" />
    <glyph glyph-name="multiply" unicode="&#xd7;" 
d="M260 371l244 221l-189 213l156 141l191 -213l245 223l142 -157l-246 -224l190 -215l-155 -139l-191 213l-246 -221z" />
    <glyph glyph-name="Oslash" unicode="&#xd8;" horiz-adv-x="1638" 
d="M838 176q235 0 395 178.5t160 415.5q0 111 -39 211t-111 168l-514 -961q52 -12 109 -12zM397 664q0 -111 38 -212.5t110 -166.5l512 960q-47 12 -105 12q-123 0 -225 -51t-175 -134t-114 -190t-41 -218zM150 638q0 165 59 313.5t167.5 263t260 184t336.5 69.5
q104 0 190 -24l105 194l192 -86l-104 -190q209 -140 246.5 -316t37.5 -262q0 -156 -59 -303t-166.5 -262t-260.5 -184.5t-337 -69.5q-106 0 -192 25l-90 -170l-191 84l88 168q-139 92 -210.5 246.5t-71.5 319.5z" />
    <glyph glyph-name="Ugrave" unicode="&#xd9;" horiz-adv-x="1310" 
d="M567 1815l125 174l479 -281l-124 -174zM885 264q88 88 100 215l100 955h236l-100 -955q-20 -211 -180.5 -362.5t-388 -151.5t-356.5 148t-108 366l101 955h235l-100 -955q-12 -131 57 -217t192 -86q124 0 212 88z" />
    <glyph glyph-name="Uacute" unicode="&#xda;" horiz-adv-x="1310" 
d="M475 1708l541 281l88 -174l-541 -281zM885 264q88 88 100 215l100 955h236l-100 -955q-20 -211 -180.5 -362.5t-388 -151.5t-356.5 148t-108 366l101 955h235l-100 -955q-12 -131 57 -217t192 -86q124 0 212 88z" />
    <glyph glyph-name="Ucircumflex" unicode="&#xdb;" horiz-adv-x="1310" 
d="M455 1694l397 297l340 -297l-156 -156l-211 184l-245 -182zM885 264q88 88 100 215l100 955h236l-100 -955q-20 -211 -180.5 -362.5t-388 -151.5t-356.5 148t-108 366l101 955h235l-100 -955q-12 -131 57 -217t192 -86q124 0 212 88z" />
    <glyph glyph-name="Udieresis" unicode="&#xdc;" horiz-adv-x="1310" 
d="M959.5 1862.5q54.5 54.5 124.5 54.5t111.5 -44.5t41.5 -94.5q0 -82 -54.5 -136.5t-124.5 -54.5t-111.5 44.5t-41.5 110.5t54.5 120.5zM490 1862.5q54 54.5 124 54.5t112 -44.5t42 -94.5q0 -82 -54 -136.5t-124 -54.5t-112 44.5t-42 110.5t54 120.5zM885 264
q88 88 100 215l100 955h236l-100 -955q-20 -211 -180.5 -362.5t-388 -151.5t-356.5 148t-108 366l101 955h235l-100 -955q-12 -131 57 -217t192 -86q124 0 212 88z" />
    <glyph glyph-name="Yacute" unicode="&#xdd;" horiz-adv-x="1232" 
d="M571 1708l539 281l90 -174l-541 -281zM174 1434h272l318 -617l373 617h258l-863 -1434h-258l347 573z" />
    <glyph glyph-name="Thorn" unicode="&#xde;" horiz-adv-x="1026" 
d="M528 434q137 0 219 91.5t82 199.5q0 109 -64 181.5t-179 72.5h-123l-57 -545h122zM606 1165q206 0 321 -122.5t115 -294.5q0 -92 -36.5 -182.5t-147.5 -204t-348 -113.5h-123l-27 -248h-210l151 1434h211l-29 -269h123z" />
    <glyph glyph-name="germandbls" unicode="&#xdf;" horiz-adv-x="1157" 
d="M609 174q115 0 201.5 68t86.5 182q0 146 -85 186.5t-153 40.5h-79l22 199h74q131 0 192.5 68t61.5 155t-62.5 137t-154.5 50t-162 -70t-82 -180l-107 -1010h-223l107 1010q20 196 158.5 322t323.5 126q186 0 306.5 -101t120.5 -270q0 -129 -68.5 -211.5t-179.5 -125.5
q90 -39 151.5 -115t61.5 -197q0 -219 -162.5 -341t-357.5 -122q-99 0 -158 25l21 193q87 -19 146 -19z" />
    <glyph glyph-name="agrave" unicode="&#xe0;" horiz-adv-x="1234" 
d="M401 1294l125 174l482 -280l-125 -174zM418.5 251q68.5 -77 193.5 -77t213 99t88 225q0 127 -68 204.5t-193 77.5q-126 0 -214 -99t-88 -226t68.5 -204zM125 438q0 100 42 199.5t157.5 220.5t330.5 121q106 0 181 -42t112 -112l15 129h223l-101 -954h-223l15 129
q-49 -66 -132 -110t-185 -44t-180.5 36t-135 98.5t-88 145.5t-31.5 183z" />
    <glyph glyph-name="aacute" unicode="&#xe1;" horiz-adv-x="1234" 
d="M418.5 251q68.5 -77 193.5 -77t213 99t88 225q0 127 -68 204.5t-193 77.5q-126 0 -214 -99t-88 -226t68.5 -204zM332 1188l538 280l88 -174l-538 -280zM125 438q0 100 42 199.5t157.5 220.5t330.5 121q106 0 181 -42t112 -112l15 129h223l-101 -954h-223l15 129
q-49 -66 -132 -110t-185 -44t-180.5 36t-135 98.5t-88 145.5t-31.5 183z" />
    <glyph glyph-name="acircumflex" unicode="&#xe2;" horiz-adv-x="1234" 
d="M418.5 251q68.5 -77 193.5 -77t213 99t88 225q0 127 -68 204.5t-193 77.5q-126 0 -214 -99t-88 -226t68.5 -204zM340 1212l397 297l340 -297l-155 -155l-209 184l-248 -182zM125 438q0 100 42 199.5t157.5 220.5t330.5 121q106 0 181 -42t112 -112l15 129h223l-101 -954
h-223l15 129q-49 -66 -132 -110t-185 -44t-180.5 36t-135 98.5t-88 145.5t-31.5 183z" />
    <glyph glyph-name="atilde" unicode="&#xe3;" horiz-adv-x="1234" 
d="M354 1356q130 78 187 78t172 -28t156 -28q42 0 157 56l72 -142q-120 -92 -221 -92q-42 0 -153 26.5t-148 26.5t-75 -16t-67 -27zM418.5 251q68.5 -77 193.5 -77t213 99t88 225q0 127 -68 204.5t-193 77.5q-126 0 -214 -99t-88 -226t68.5 -204zM125 438q0 100 42 199.5
t157.5 220.5t330.5 121q106 0 181 -42t112 -112l15 129h223l-101 -954h-223l15 129q-49 -66 -132 -110t-185 -44t-180.5 36t-135 98.5t-88 145.5t-31.5 183z" />
    <glyph glyph-name="adieresis" unicode="&#xe4;" horiz-adv-x="1234" 
d="M832 1368.5q54 54.5 124 54.5t112 -44t42 -94q0 -83 -54 -137t-124 -54t-112 44t-42 110t54 120.5zM418.5 251q68.5 -77 193.5 -77t213 99t88 225q0 127 -68 204.5t-193 77.5q-126 0 -214 -99t-88 -226t68.5 -204zM363.5 1368.5q54.5 54.5 124.5 54.5t111.5 -44t41.5 -94
q0 -83 -54 -137t-124 -54t-112 44t-42 110t54.5 120.5zM125 438q0 100 42 199.5t157.5 220.5t330.5 121q106 0 181 -42t112 -112l15 129h223l-101 -954h-223l15 129q-49 -66 -132 -110t-185 -44t-180.5 36t-135 98.5t-88 145.5t-31.5 183z" />
    <glyph glyph-name="aring" unicode="&#xe5;" horiz-adv-x="1234" 
d="M657 1290q0 -37 23.5 -60.5t61.5 -23.5t68 29t30 67t-23.5 61t-61.5 23t-68 -29.5t-30 -66.5zM579 1464.5q83 81.5 185 81.5q103 0 170 -65.5t67 -169.5t-84 -186.5t-187 -82.5t-168.5 65.5t-65.5 170.5t83 186.5zM418.5 251q68.5 -77 193.5 -77t213 99t88 225
q0 127 -68 204.5t-193 77.5q-126 0 -214 -99t-88 -226t68.5 -204zM125 438q0 100 42 199.5t157.5 220.5t330.5 121q106 0 181 -42t112 -112l15 129h223l-101 -954h-223l15 129q-49 -66 -132 -110t-185 -44t-180.5 36t-135 98.5t-88 145.5t-31.5 183z" />
    <glyph glyph-name="ae" unicode="&#xe6;" horiz-adv-x="1867" 
d="M1416 793q-104 0 -178.5 -55.5t-84.5 -162.5h467q10 92 -45 155t-159 63zM418.5 251q68.5 -77 193.5 -77t213 99t88 227t-68.5 204t-193.5 76t-213 -99t-88 -226t68.5 -204zM560 -25q-194 0 -314.5 133.5t-120.5 336.5q0 204 157.5 369t372.5 165q106 0 181 -42t112 -112
l15 129h223l-4 -36q111 61 224 61q203 0 316 -111t113 -288q0 -72 -27 -170h-675q-14 -175 70.5 -211.5t166.5 -36.5t128 37t75 88h225q-39 -131 -164 -221.5t-324 -90.5q-117 0 -220 64l-5 -39h-223l15 129q-49 -66 -132 -110t-185 -44z" />
    <glyph glyph-name="ccedilla" unicode="&#xe7;" horiz-adv-x="1093" 
d="M682 -229q0 69 -70 69q-43 0 -65 -37h-111l19 183q-155 30 -240.5 154t-85.5 288q0 221 145 386t396 165q205 0 306 -108.5t97 -264.5h-223q0 78 -47 126t-137 48q-158 0 -236 -99t-78 -243q0 -186 89 -225t170 -39q152 0 212 154h224q-37 -146 -151 -241.5t-298 -109.5
l-6 -63q31 27 67 27q63 0 109.5 -42t46.5 -120q0 -77 -61.5 -145t-170.5 -68q-108 0 -147 57.5t-41 118.5h131q12 -61 70 -61q37 0 61.5 25.5t24.5 64.5z" />
    <glyph glyph-name="egrave" unicode="&#xe8;" horiz-adv-x="1087" 
d="M434 1294l125 174l479 -280l-125 -174zM633 793q-100 0 -175 -55.5t-85 -162.5h467q10 100 -48.5 159t-158.5 59zM1057 596q0 -72 -29 -186h-676q-14 -174 72 -211t144 -37q97 0 141.5 30.5t83.5 94.5h225q-39 -131 -164 -221.5t-315 -90.5t-300 128.5t-110 341.5
t144 373.5t370 160.5q188 0 272 -83t113 -155.5t29 -144.5z" />
    <glyph glyph-name="eacute" unicode="&#xe9;" horiz-adv-x="1087" 
d="M633 793q-100 0 -175 -55.5t-85 -162.5h467q10 100 -48.5 159t-158.5 59zM354 1188l541 280l88 -174l-541 -280zM1057 596q0 -72 -29 -186h-676q-14 -174 72 -211t144 -37q97 0 141.5 30.5t83.5 94.5h225q-39 -131 -164 -221.5t-315 -90.5t-300 128.5t-110 341.5
t144 373.5t370 160.5q188 0 272 -83t113 -155.5t29 -144.5z" />
    <glyph glyph-name="ecircumflex" unicode="&#xea;" horiz-adv-x="1087" 
d="M633 793q-100 0 -175 -55.5t-85 -162.5h467q10 100 -48.5 159t-158.5 59zM309 1212l400 297l338 -297l-156 -155l-209 184l-246 -182zM1057 596q0 -72 -29 -186h-676q-14 -174 72 -211t144 -37q97 0 141.5 30.5t83.5 94.5h225q-39 -131 -164 -221.5t-315 -90.5
t-300 128.5t-110 341.5t144 373.5t370 160.5q188 0 272 -83t113 -155.5t29 -144.5z" />
    <glyph glyph-name="edieresis" unicode="&#xeb;" horiz-adv-x="1087" 
d="M750 1231q0 85 54 138.5t124 53.5t111.5 -44t41.5 -94q0 -85 -54.5 -138t-123.5 -53q-70 0 -111.5 44t-41.5 93zM633 793q-100 0 -175 -55.5t-85 -162.5h467q10 100 -48.5 159t-158.5 59zM281 1231q0 85 53.5 138.5t123.5 53.5t112 -44t42 -94q0 -85 -54.5 -138
t-123.5 -53q-70 0 -111.5 44t-41.5 93zM1057 596q0 -72 -29 -186h-676q-14 -174 72 -211t144 -37q97 0 141.5 30.5t83.5 94.5h225q-39 -131 -164 -221.5t-315 -90.5t-300 128.5t-110 341.5t144 373.5t370 160.5q188 0 272 -83t113 -155.5t29 -144.5z" />
    <glyph glyph-name="igrave" unicode="&#xec;" horiz-adv-x="612" 
d="M195 0l100 954h223l-100 -954h-223zM139 1335l125 174l481 -280l-124 -174z" />
    <glyph glyph-name="iacute" unicode="&#xed;" horiz-adv-x="612" 
d="M195 0l100 954h223l-100 -954h-223zM127 1229l539 280l88 -174l-539 -280z" />
    <glyph glyph-name="icircumflex" unicode="&#xee;" horiz-adv-x="612" 
d="M197 0l100 954h223l-100 -954h-223zM66 1212l397 297l340 -297l-156 -155l-211 184l-246 -182z" />
    <glyph glyph-name="idieresis" unicode="&#xef;" horiz-adv-x="612" 
d="M562 1368.5q54 54.5 124 54.5t112 -44t42 -94q0 -83 -54 -137t-124 -54t-112 44t-42 110t54 120.5zM172 0l100 954h224l-101 -954h-223zM93 1368.5q54 54.5 124 54.5t112 -44t42 -94q0 -83 -54.5 -137t-124.5 -54t-111.5 44t-41.5 110t54 120.5z" />
    <glyph glyph-name="eth" unicode="&#xf0;" horiz-adv-x="1159" 
d="M418.5 251q68.5 -77 193.5 -77t213 99t88 225q0 127 -68 204.5t-193 77.5q-126 0 -214 -99t-88 -226t68.5 -204zM125 438q0 100 41 199.5t158 220.5t358 121h18l-47 92l-221 -110l-70 165l203 105l-100 203h270l45 -95l189 95l71 -166l-176 -88l211 -406q64 -121 64 -242
q0 -233 -161 -395t-384 -162t-346 131t-123 332z" />
    <glyph glyph-name="ntilde" unicode="&#xf1;" horiz-adv-x="1165" 
d="M855 1378q42 0 157 56l71 -142q-120 -92 -221 -92q-41 0 -152 26.5t-149 26.5q-37 0 -74.5 -16t-66.5 -27l-80 146q130 78 187 78q56 0 171 -28t157 -28zM459 821q107 158 316 158t286 -129q54 -89 31 -283l-60 -567h-223l51 494q14 138 -25 213t-154 75
q-114 0 -179.5 -83t-77.5 -205l-51 -494h-223l100 954h223z" />
    <glyph glyph-name="ograve" unicode="&#xf2;" horiz-adv-x="1163" 
d="M428 1294l125 174l481 -280l-125 -174zM418.5 251q68.5 -77 193.5 -77t213 99t88 225q0 127 -68 204.5t-193 77.5q-126 0 -214 -99t-88 -226t68.5 -204zM125 438q0 100 42 199.5t159 220.5t340 121t348 -131t125 -338t-160.5 -371t-384.5 -164t-346.5 131t-122.5 332z
" />
    <glyph glyph-name="oacute" unicode="&#xf3;" horiz-adv-x="1163" 
d="M418.5 251q68.5 -77 193.5 -77t213 99t88 225q0 127 -68 204.5t-193 77.5q-126 0 -214 -99t-88 -226t68.5 -204zM338 1188l539 280l88 -174l-539 -280zM125 438q0 100 42 199.5t159 220.5t340 121t348 -131t125 -338t-160.5 -371t-384.5 -164t-346.5 131t-122.5 332z" />
    <glyph glyph-name="ocircumflex" unicode="&#xf4;" horiz-adv-x="1163" 
d="M418.5 251q68.5 -77 193.5 -77t213 99t88 225q0 127 -68 204.5t-193 77.5q-126 0 -214 -99t-88 -226t68.5 -204zM342 1212l397 297l340 -297l-155 -155l-209 184l-248 -182zM125 438q0 100 42 199.5t159 220.5t340 121t348 -131t125 -338t-160.5 -371t-384.5 -164
t-346.5 131t-122.5 332z" />
    <glyph glyph-name="otilde" unicode="&#xf5;" horiz-adv-x="1163" 
d="M418.5 251q68.5 -77 193.5 -77t213 99t88 225q0 127 -68 204.5t-193 77.5q-126 0 -214 -99t-88 -226t68.5 -204zM326 1305q129 77 190 77t168.5 -27.5t154.5 -27.5q48 0 158 55l74 -141q-120 -92 -223 -92q-47 0 -153 26.5t-149 26.5t-140 -43zM125 438q0 100 42 199.5
t159 220.5t340 121t348 -131t125 -338t-160.5 -371t-384.5 -164t-346.5 131t-122.5 332z" />
    <glyph glyph-name="odieresis" unicode="&#xf6;" horiz-adv-x="1163" 
d="M836 1368.5q54 54.5 124 54.5t112 -44t42 -94q0 -83 -54 -137t-124 -54t-112 44t-42 110t54 120.5zM418.5 251q68.5 -77 193.5 -77t213 99t88 225q0 127 -68 204.5t-193 77.5q-126 0 -214 -99t-88 -226t68.5 -204zM367.5 1368.5q54.5 54.5 124.5 54.5t111.5 -44t41.5 -94
q0 -83 -54 -137t-124 -54t-112 44t-42 110t54.5 120.5zM125 438q0 100 42 199.5t159 220.5t340 121t348 -131t125 -338t-160.5 -371t-384.5 -164t-346.5 131t-122.5 332z" />
    <glyph glyph-name="divide" unicode="&#xf7;" 
d="M569.5 936q53.5 55 124.5 55q70 0 112 -44t42 -94q0 -83 -54 -137t-124 -54t-112 44t-42 110q0 65 53.5 120zM500 262.5q54 54.5 124 54.5t112 -44t42 -94q0 -83 -54 -137t-124 -54t-112 44t-42 110t54 120.5zM221 381l21 199h827l-20 -199h-828z" />
    <glyph glyph-name="oslash" unicode="&#xf8;" horiz-adv-x="1163" 
d="M598 174q136 0 225.5 98t89.5 225q0 126 -57 195l-276 -518h18zM662 780q-135 0 -224.5 -98t-89.5 -220t55 -196l275 514h-16zM582 -25q-42 0 -105 11l-90 -168l-180 82l86 161q-80 61 -124 158.5t-44 208.5q0 224 158 387.5t395 163.5q58 0 102 -8l92 170l179 -82
l-86 -164q84 -61 129 -159.5t45 -210.5t-42 -211t-116 -173.5t-176.5 -120t-222.5 -45.5z" />
    <glyph glyph-name="ugrave" unicode="&#xf9;" horiz-adv-x="1165" 
d="M410 1294l125 174l481 -280l-125 -174zM580 172q119 0 184 83t78 206l51 493h223l-100 -954h-223l14 133q-111 -158 -318 -158t-284 129q-54 89 -31 283l59 567h224l-51 -493q-20 -207 47 -248t127 -41z" />
    <glyph glyph-name="uacute" unicode="&#xfa;" horiz-adv-x="1165" 
d="M387 1188l539 280l88 -174l-539 -280zM580 172q119 0 184 83t78 206l51 493h223l-100 -954h-223l14 133q-111 -158 -318 -158t-284 129q-54 89 -31 283l59 567h224l-51 -493q-20 -207 47 -248t127 -41z" />
    <glyph glyph-name="ucircumflex" unicode="&#xfb;" horiz-adv-x="1165" 
d="M324 1212l397 297l340 -297l-156 -155l-209 184l-247 -182zM580 172q119 0 184 83t78 206l51 493h223l-100 -954h-223l14 133q-111 -158 -318 -158t-284 129q-54 89 -31 283l59 567h224l-51 -493q-20 -207 47 -248t127 -41z" />
    <glyph glyph-name="udieresis" unicode="&#xfc;" horiz-adv-x="1165" 
d="M832 1368.5q54 54.5 124 54.5t112 -44t42 -94q0 -83 -54 -137t-124 -54t-112 44t-42 110t54 120.5zM363.5 1368.5q54.5 54.5 124.5 54.5t111.5 -44t41.5 -94q0 -83 -54 -137t-124 -54t-112 44t-42 110t54.5 120.5zM580 172q119 0 184 83t78 206l51 493h223l-100 -954
h-223l14 133q-111 -158 -318 -158t-284 129q-54 89 -31 283l59 567h224l-51 -493q-20 -207 47 -248t127 -41z" />
    <glyph glyph-name="yacute" unicode="&#xfd;" horiz-adv-x="1183" 
d="M412 1188l540 280l88 -174l-540 -280zM831 133q-107 -158 -315 -158t-285 129q-56 94 -32 283l59 567h223l-51 -493q-28 -289 174 -289q119 0 184.5 83t77.5 206l52 493h223l-105 -999q-22 -230 -158 -343.5t-348 -113.5t-316 110.5t-91 282.5h217q-13 -131 67 -162.5
t146 -31.5q123 0 184.5 62.5t75.5 195.5z" />
    <glyph glyph-name="thorn" unicode="&#xfe;" horiz-adv-x="1226" 
d="M489 252.5q69 -78.5 194 -78.5t213.5 99t88.5 235q0 183 -95 227.5t-160 44.5t-122 -26.5t-122.5 -98t-65.5 -198.5q0 -126 69 -204.5zM775 979q194 0 314.5 -133.5t120.5 -336.5t-115.5 -323t-212 -165.5t-203.5 -45.5t-182 42t-112 112l-63 -608h-224l201 1913h223
l-63 -609q49 66 132 110t184 44z" />
    <glyph glyph-name="ydieresis" unicode="&#xff;" horiz-adv-x="1183" 
d="M821 1250q0 64 52.5 114.5t117.5 50.5t105.5 -42t40.5 -89q0 -82 -51.5 -132t-117.5 -50t-106.5 42t-40.5 106zM352 1250q0 64 52.5 114.5t117.5 50.5t105.5 -42t40.5 -89q0 -82 -51.5 -132t-117.5 -50t-106.5 42t-40.5 106zM831 133q-107 -158 -315 -158t-285 129
q-56 94 -32 283l59 567h223l-51 -493q-28 -289 174 -289q119 0 184.5 83t77.5 206l52 493h223l-105 -999q-22 -230 -158 -343.5t-348 -113.5t-316 110.5t-91 282.5h217q-13 -131 67 -162.5t146 -31.5q123 0 184.5 62.5t75.5 195.5z" />
    <glyph glyph-name="Amacron" unicode="&#x100;" horiz-adv-x="1169" 
d="M428 393h395l-129 649zM389 1645l23 198h733l-23 -198h-733zM6 0l647 1434h166l344 -1434h-248l-43 182h-538l-80 -182h-248z" />
    <glyph glyph-name="amacron" unicode="&#x101;" horiz-adv-x="1234" 
d="M418.5 251q68.5 -77 193.5 -77t213 99t88 225q0 127 -68 204.5t-193 77.5q-126 0 -214 -99t-88 -226t68.5 -204zM319 1159l23 199h733l-22 -199h-734zM125 438q0 100 42 199.5t157.5 220.5t330.5 121q106 0 181 -42t112 -112l15 129h223l-101 -954h-223l15 129
q-49 -66 -132 -110t-185 -44t-180.5 36t-135 98.5t-88 145.5t-31.5 183z" />
    <glyph glyph-name="Abreve" unicode="&#x102;" horiz-adv-x="1169" 
d="M428 393h395l-129 649zM763 1722q151 0 218 121h211q-32 -134 -162 -226.5t-286 -92.5q-157 0 -264 92t-115 227h208q39 -121 190 -121zM6 0l647 1434h166l344 -1434h-248l-43 182h-538l-80 -182h-248z" />
    <glyph glyph-name="abreve" unicode="&#x103;" horiz-adv-x="1234" 
d="M418.5 251q68.5 -77 193.5 -77t213 99t88 225q0 127 -68 204.5t-193 77.5q-126 0 -214 -99t-88 -226t68.5 -204zM690 1313q80 0 135.5 33.5t83.5 87.5h211q-32 -135 -162 -227.5t-286 -92.5t-263.5 92t-115.5 228h209q39 -121 188 -121zM125 438q0 100 42 199.5
t157.5 220.5t330.5 121q106 0 181 -42t112 -112l15 129h223l-101 -954h-223l15 129q-49 -66 -132 -110t-185 -44t-180.5 36t-135 98.5t-88 145.5t-31.5 183z" />
    <glyph glyph-name="Aogonek" unicode="&#x104;" horiz-adv-x="1169" 
d="M428 393h395l-129 649zM948 -158q0 -110 88 -110q55 0 113 24l-16 -159q-102 -31 -201 -31t-152 53t-53 127t46 132.5t142 121.5l-43 182h-538l-80 -182h-248l647 1434h166l344 -1434h-82q-47 -29 -90 -67.5t-43 -90.5z" />
    <glyph glyph-name="aogonek" unicode="&#x105;" horiz-adv-x="1234" 
d="M418.5 251q68.5 -77 193.5 -77t213 99t88 225q0 127 -68 204.5t-193 77.5q-126 0 -214 -99t-88 -226t68.5 -204zM125 438q0 100 42 199.5t157.5 220.5t330.5 121q106 0 181 -42t112 -112l15 129h223l-101 -954h-57q-47 -29 -90 -67.5t-43 -90.5q0 -110 88 -110
q55 0 113 24l-17 -159q-102 -31 -201 -31q-98 0 -151 53t-53 127t46 132.5t142 121.5l15 129q-49 -66 -132 -110t-185 -44t-180.5 36t-135 98.5t-88 145.5t-31.5 183z" />
    <glyph glyph-name="Cacute" unicode="&#x106;" horiz-adv-x="1587" 
d="M666 1708l538 281l90 -174l-540 -281zM150 656q0 148 58 296t165.5 262.5t260 184t321.5 69.5q308 0 476.5 -155t176.5 -402h-248q-12 154 -114 250t-281 96q-250 0 -370 -133t-161 -240.5t-41 -214.5q0 -212 129.5 -352.5t333.5 -140.5q236 0 329 112.5t118 172.5h258
q-72 -214 -271.5 -355t-464.5 -141q-313 0 -494 197.5t-181 493.5z" />
    <glyph glyph-name="cacute" unicode="&#x107;" horiz-adv-x="1093" 
d="M362 1188l541 280l88 -174l-540 -280zM129 432q0 96 35 196.5t145 225.5t361 125q200 0 303.5 -107.5t99.5 -265.5h-223q0 78 -47 126t-137 48q-158 0 -236 -99t-78 -243q0 -186 89 -225t170 -39q152 0 212 154h224q-36 -157 -167 -255t-329 -98t-310 128.5t-112 328.5z
" />
    <glyph glyph-name="Ccircumflex" unicode="&#x108;" horiz-adv-x="1587" 
d="M621 1696l401 297l336 -297l-156 -156l-209 184l-245 -182zM150 656q0 148 58 296t165.5 262.5t260 184t321.5 69.5q308 0 476.5 -155t176.5 -402h-248q-12 154 -114 250t-281 96q-250 0 -370 -133t-161 -240.5t-41 -214.5q0 -212 129.5 -352.5t333.5 -140.5
q236 0 329 112.5t118 172.5h258q-72 -214 -271.5 -355t-464.5 -141q-313 0 -494 197.5t-181 493.5z" />
    <glyph glyph-name="ccircumflex" unicode="&#x109;" horiz-adv-x="1093" 
d="M305 1212l402 297l335 -297l-155 -155l-209 184l-248 -182zM129 432q0 96 35 196.5t145 225.5t361 125q200 0 303.5 -107.5t99.5 -265.5h-223q0 78 -47 126t-137 48q-158 0 -236 -99t-78 -243q0 -186 89 -225t170 -39q152 0 212 154h224q-36 -157 -167 -255t-329 -98
t-310 128.5t-112 328.5z" />
    <glyph glyph-name="Cdotaccent" unicode="&#x10a;" horiz-adv-x="1587" 
d="M883.5 1882.5q54.5 54.5 124.5 54.5t111.5 -44t41.5 -94q0 -81 -53.5 -136t-124.5 -55q-70 0 -112 44t-42 110t54.5 120.5zM150 656q0 148 58 296t165.5 262.5t260 184t321.5 69.5q308 0 476.5 -155t176.5 -402h-248q-12 154 -114 250t-281 96q-250 0 -370 -133
t-161 -240.5t-41 -214.5q0 -212 129.5 -352.5t333.5 -140.5q236 0 329 112.5t118 172.5h258q-72 -214 -271.5 -355t-464.5 -141q-313 0 -494 197.5t-181 493.5z" />
    <glyph glyph-name="cdotaccent" unicode="&#x10b;" horiz-adv-x="1093" 
d="M579.5 1366q53.5 55 124.5 55t112.5 -44t41.5 -94q0 -83 -54 -137t-124 -54t-112 44t-42 110q0 65 53.5 120zM129 432q0 96 35 196.5t145 225.5t361 125q200 0 303.5 -107.5t99.5 -265.5h-223q0 78 -47 126t-137 48q-158 0 -236 -99t-78 -243q0 -186 89 -225t170 -39
q152 0 212 154h224q-36 -157 -167 -255t-329 -98t-310 128.5t-112 328.5z" />
    <glyph glyph-name="Ccaron" unicode="&#x10c;" horiz-adv-x="1587" 
d="M659 1835l136 156l184 -197l231 197l105 -156l-363 -297zM150 656q0 148 58 296t165.5 262.5t260 184t321.5 69.5q308 0 476.5 -155t176.5 -402h-248q-12 154 -114 250t-281 96q-250 0 -370 -133t-161 -240.5t-41 -214.5q0 -212 129.5 -352.5t333.5 -140.5
q236 0 329 112.5t118 172.5h258q-72 -214 -271.5 -355t-464.5 -141q-313 0 -494 197.5t-181 493.5z" />
    <glyph glyph-name="ccaron" unicode="&#x10d;" horiz-adv-x="1093" 
d="M377 1354l135 155l186 -196l230 196l104 -155l-362 -297zM129 432q0 96 35 196.5t145 225.5t361 125q200 0 303.5 -107.5t99.5 -265.5h-223q0 78 -47 126t-137 48q-158 0 -236 -99t-78 -243q0 -186 89 -225t170 -39q152 0 212 154h224q-36 -157 -167 -255t-329 -98
t-310 128.5t-112 328.5z" />
    <glyph glyph-name="Dcaron" unicode="&#x10e;" horiz-adv-x="1435" 
d="M541 1835l135 156l186 -197l230 197l104 -156l-360 -297zM637 211q245 0 362 126t156 225.5t39 194.5q0 198 -121.5 332t-329.5 134h-229l-106 -1012h229zM766 1434q311 0 491.5 -191t180.5 -461q0 -145 -57.5 -285.5t-164 -251t-259 -178t-343.5 -67.5h-464l151 1434
h465z" />
    <glyph glyph-name="dcaron" unicode="&#x10f;" horiz-adv-x="1538" 
d="M1471 1196q-49 0 -87 40t-38 106t51 116.5t124 50.5q156 0 156 -202q0 -158 -94 -243t-268 -85l10 100q94 0 142 36t63 91q-10 -10 -59 -10zM418.5 251q68.5 -77 193.5 -77t213 99t88 225q0 127 -68 204.5t-193 77.5q-126 0 -214 -99t-88 -226t68.5 -204zM125 438
q0 100 42 199.5t157.5 220.5t330.5 121q106 0 181 -42t112 -112l66 609h223l-152 -1434h-223l15 129q-49 -66 -132 -110t-185 -44t-180.5 36t-135 98.5t-88 145.5t-31.5 183z" />
    <glyph glyph-name="Dcroat" unicode="&#x110;" horiz-adv-x="1435" 
d="M637 211q245 0 362 126t156 225.5t39 194.5q0 198 -121.5 332t-329.5 134h-229l-43 -406h254l-20 -199h-254l-43 -407h229zM766 1434q311 0 491.5 -191t180.5 -461q0 -145 -57.5 -285.5t-164 -251t-259 -178t-343.5 -67.5h-464l65 618h-244l21 199h244l65 617h465z" />
    <glyph glyph-name="dcroat" unicode="&#x111;" horiz-adv-x="1234" 
d="M418.5 251q68.5 -77 193.5 -77t213 99t88 225q0 127 -68 204.5t-193 77.5q-126 0 -214 -99t-88 -226t68.5 -204zM125 438q0 100 42 199.5t157.5 220.5t330.5 121q106 0 181 -42t112 -112l25 234h-172l22 198h172l19 177h223l-18 -177h84l-23 -198h-84l-111 -1059h-223
l15 129q-49 -66 -132 -110t-185 -44t-180.5 36t-135 98.5t-88 145.5t-31.5 183z" />
    <glyph glyph-name="Emacron" unicode="&#x112;" horiz-adv-x="1116" 
d="M365 1645l22 198h733l-22 -198h-733zM150 0l151 1434h827l-22 -211h-592l-43 -406h592l-23 -211h-591l-41 -395h591l-22 -211h-827z" />
    <glyph glyph-name="emacron" unicode="&#x113;" horiz-adv-x="1087" 
d="M633 793q-100 0 -175 -55.5t-85 -162.5h467q10 100 -48.5 159t-158.5 59zM309 1235l21 199h733l-21 -199h-733zM1057 596q0 -72 -29 -186h-676q-14 -174 72 -211t144 -37q97 0 141.5 30.5t83.5 94.5h225q-39 -131 -164 -221.5t-315 -90.5t-300 128.5t-110 341.5
t144 373.5t370 160.5q188 0 272 -83t113 -155.5t29 -144.5z" />
    <glyph glyph-name="Ebreve" unicode="&#x114;" horiz-adv-x="1116" 
d="M737 1720q80 0 135.5 34t81.5 87h211q-27 -132 -158.5 -225.5t-287.5 -93.5t-264.5 93.5t-116.5 225.5h209q39 -121 190 -121zM150 0l151 1434h827l-22 -211h-592l-43 -406h592l-23 -211h-591l-41 -395h591l-22 -211h-827z" />
    <glyph glyph-name="ebreve" unicode="&#x115;" horiz-adv-x="1087" 
d="M633 793q-100 0 -175 -55.5t-85 -162.5h467q10 100 -48.5 159t-158.5 59zM683 1313q152 0 216 121h211q-28 -134 -160.5 -227t-286.5 -93t-263 91.5t-117 228.5h209q39 -121 191 -121zM1057 596q0 -72 -29 -186h-676q-14 -174 72 -211t144 -37q97 0 141.5 30.5t83.5 94.5
h225q-39 -131 -164 -221.5t-315 -90.5t-300 128.5t-110 341.5t144 373.5t370 160.5q188 0 272 -83t113 -155.5t29 -144.5z" />
    <glyph glyph-name="Edotaccent" unicode="&#x116;" horiz-adv-x="1116" 
d="M578 1745q0 86 55 139t124 53t110.5 -44t41.5 -94q0 -83 -54 -137t-124 -54t-111.5 44t-41.5 93zM150 0l151 1434h827l-22 -211h-592l-43 -406h592l-23 -211h-591l-41 -395h591l-22 -211h-827z" />
    <glyph glyph-name="edotaccent" unicode="&#x117;" horiz-adv-x="1087" 
d="M563.5 1366q53.5 55 124.5 55q70 0 112 -44t42 -94q0 -83 -54 -137t-124 -54t-112 44t-42 110q0 65 53.5 120zM633 793q-100 0 -175 -55.5t-85 -162.5h467q10 100 -48.5 159t-158.5 59zM1057 596q0 -72 -29 -186h-676q-14 -174 72 -211t144 -37q97 0 141.5 30.5
t83.5 94.5h225q-39 -131 -164 -221.5t-315 -90.5t-300 128.5t-110 341.5t144 373.5t370 160.5q188 0 272 -83t113 -155.5t29 -144.5z" />
    <glyph glyph-name="Eogonek" unicode="&#x118;" horiz-adv-x="1116" 
d="M844 -158q0 -110 88 -110q56 0 112 24l-16 -159q-102 -31 -201 -31q-98 0 -151 53t-53 127t46 132.5t142 121.5h-661l151 1434h827l-22 -211h-592l-43 -406h592l-23 -211h-591l-41 -395h591l-22 -211q-47 -29 -90 -67.5t-43 -90.5z" />
    <glyph glyph-name="eogonek" unicode="&#x119;" horiz-adv-x="1087" 
d="M633 793q-100 0 -175 -55.5t-85 -162.5h467q10 100 -48.5 159t-158.5 59zM305 -252q0 121 160 236q-167 27 -251.5 149.5t-84.5 294.5q0 231 144 391t370 160q188 0 301 -111.5t113 -285.5q0 -58 -29 -172h-676q-14 -174 72 -211t168 -37q135 0 201 125h225
q-33 -114 -140 -203t-251 -104q-101 -67 -101 -152q0 -39 21 -67.5t53 -28.5q66 0 127 24l-16 -159q-109 -31 -205 -31q-97 0 -149 53t-52 129z" />
    <glyph glyph-name="Ecaron" unicode="&#x11a;" horiz-adv-x="1116" 
d="M422 1835l135 156l186 -197l230 197l104 -156l-360 -297zM150 0l151 1434h827l-22 -211h-592l-43 -406h592l-23 -211h-591l-41 -395h591l-22 -211h-827z" />
    <glyph glyph-name="ecaron" unicode="&#x11b;" horiz-adv-x="1087" 
d="M633 793q-100 0 -175 -55.5t-85 -162.5h467q10 100 -48.5 159t-158.5 59zM358 1354l136 155l186 -196l229 196l105 -155l-363 -297zM1057 596q0 -72 -29 -186h-676q-14 -174 72 -211t144 -37q97 0 141.5 30.5t83.5 94.5h225q-39 -131 -164 -221.5t-315 -90.5t-300 128.5
t-110 341.5t144 373.5t370 160.5q188 0 272 -83t113 -155.5t29 -144.5z" />
    <glyph glyph-name="Gcircumflex" unicode="&#x11c;" horiz-adv-x="1716" 
d="M629 1702l399 297l338 -297l-156 -156l-211 185l-245 -183zM150 652q0 146 60 296t167.5 265.5t257 185t304.5 69.5q280 0 438.5 -135t154.5 -329h-238q-8 107 -102 180t-232 73q-254 0 -411.5 -179.5t-157.5 -402.5t122.5 -361t326.5 -138t321 94.5t158 237.5h-275
l21 211h682l-21 -211h-157q-76 -248 -273 -395.5t-471 -147.5q-321 0 -498 194t-177 493z" />
    <glyph glyph-name="gcircumflex" unicode="&#x11d;" horiz-adv-x="1228" 
d="M415.5 253q67.5 -79 194.5 -79t215 99t88 235q0 184 -97.5 228t-161.5 44t-120.5 -26.5t-121 -99t-64.5 -197.5t67.5 -204zM326 1212l399 297l338 -297l-156 -155l-211 184l-245 -182zM560 -25q-194 0 -314.5 133.5t-120.5 336.5q0 204 157.5 369t372.5 165
q106 0 181 -42t112 -112l15 129h221l-105 -1001q-23 -231 -165.5 -343t-382.5 -112t-347 116t-102 277h225q10 -194 246 -194q125 0 207 60.5t96 195.5l18 176q-49 -66 -130.5 -110t-183.5 -44z" />
    <glyph glyph-name="Gbreve" unicode="&#x11e;" horiz-adv-x="1716" 
d="M995 1724q80 0 135.5 34t81.5 87h211q-27 -132 -158.5 -225.5t-287.5 -93.5t-264.5 93.5t-116.5 225.5h209q39 -121 190 -121zM150 652q0 146 60 296t167.5 265.5t257 185t304.5 69.5q280 0 438.5 -135t154.5 -329h-238q-8 107 -102 180t-232 73q-254 0 -411.5 -179.5
t-157.5 -402.5t122.5 -361t326.5 -138t321 94.5t158 237.5h-275l21 211h682l-21 -211h-157q-76 -248 -273 -395.5t-471 -147.5q-321 0 -498 194t-177 493z" />
    <glyph glyph-name="gbreve" unicode="&#x11f;" horiz-adv-x="1228" 
d="M415.5 253q67.5 -79 194.5 -79t215 99t88 235q0 184 -97.5 228t-161.5 44t-120.5 -26.5t-121 -99t-64.5 -197.5t67.5 -204zM702 1313q80 0 135.5 33.5t82.5 87.5h210q-27 -133 -158.5 -226.5t-287.5 -93.5t-264.5 93.5t-116.5 226.5h209q39 -121 190 -121zM560 -25
q-194 0 -314.5 133.5t-120.5 336.5q0 204 157.5 369t372.5 165q106 0 181 -42t112 -112l15 129h221l-105 -1001q-23 -231 -165.5 -343t-382.5 -112t-347 116t-102 277h225q10 -194 246 -194q125 0 207 60.5t96 195.5l18 176q-49 -66 -130.5 -110t-183.5 -44z" />
    <glyph glyph-name="Gdotaccent" unicode="&#x120;" horiz-adv-x="1716" 
d="M838 1745q0 86 54.5 139t123.5 53q70 0 111.5 -44t41.5 -94q0 -82 -53 -136.5t-124 -54.5t-112.5 44t-41.5 93zM150 652q0 146 60 296t167.5 265.5t257 185t304.5 69.5q280 0 438.5 -135t154.5 -329h-238q-8 107 -102 180t-232 73q-254 0 -411.5 -179.5t-157.5 -402.5
t122.5 -361t326.5 -138t321 94.5t158 237.5h-275l21 211h682l-21 -211h-157q-76 -248 -273 -395.5t-471 -147.5q-321 0 -498 194t-177 493z" />
    <glyph glyph-name="gdotaccent" unicode="&#x121;" horiz-adv-x="1228" 
d="M571.5 1366q53.5 55 124.5 55q70 0 112 -44t42 -94q0 -83 -54 -137t-124 -54t-112 44t-42 110q0 65 53.5 120zM415.5 253q67.5 -79 194.5 -79t215 99t88 235q0 184 -97.5 228t-161.5 44t-120.5 -26.5t-121 -99t-64.5 -197.5t67.5 -204zM560 -25q-194 0 -314.5 133.5
t-120.5 336.5q0 204 157.5 369t372.5 165q106 0 181 -42t112 -112l15 129h221l-105 -1001q-23 -231 -165.5 -343t-382.5 -112t-347 116t-102 277h225q10 -194 246 -194q125 0 207 60.5t96 195.5l18 176q-49 -66 -130.5 -110t-183.5 -44z" />
    <glyph glyph-name="Gcommaaccent" unicode="&#x122;" horiz-adv-x="1716" 
d="M768 -322q-40 0 -72 35t-32 89t44 97.5t104 43.5t95 -41t35 -129q0 -135 -81 -205t-222 -70l8 84q149 0 172 107q-11 -11 -51 -11zM150 652q0 146 60 296t167.5 265.5t257 185t304.5 69.5q280 0 438.5 -135t154.5 -329h-238q-8 107 -102 180t-232 73
q-254 0 -411.5 -179.5t-157.5 -402.5t122.5 -361t326.5 -138t321 94.5t158 237.5h-275l21 211h682l-21 -211h-157q-76 -248 -273 -395.5t-471 -147.5q-321 0 -498 194t-177 493z" />
    <glyph glyph-name="gcommaaccent" unicode="&#x123;" horiz-adv-x="1228" 
d="M522 1298q0 160 95.5 244t265.5 84l-11 -100q-93 0 -145 -41q-47 -30 -57 -86q10 10 59 10t87 -39.5t38 -105.5t-52 -117t-125 -51q-155 0 -155 202zM415.5 253q67.5 -79 194.5 -79t215 99t88 235q0 183 -97 227.5t-161 44.5t-121 -26.5t-121.5 -99t-64.5 -197.5
t67.5 -204zM560 -25q-194 0 -314.5 133.5t-120.5 336.5q0 204 157.5 369t372.5 165q106 0 181 -42t112 -112l15 129h221l-105 -1001q-23 -231 -165.5 -343t-382.5 -112t-347 116t-102 277h225q10 -194 246 -194q125 0 207 60.5t96 195.5l18 176q-49 -66 -130.5 -110
t-183.5 -44z" />
    <glyph glyph-name="Hcircumflex" unicode="&#x124;" horiz-adv-x="1361" 
d="M489 1696l400 297l338 -297l-156 -156l-211 184l-246 -182zM150 0l151 1434h236l-66 -617h592l65 617h236l-152 -1434h-235l63 606h-591l-64 -606h-235z" />
    <glyph glyph-name="hcircumflex" unicode="&#x125;" horiz-adv-x="1165" 
d="M442 1696l400 297l338 -297l-156 -156l-211 184l-246 -182zM459 821q107 158 316 158t286 -129q54 -89 31 -283l-60 -567h-223l51 494q14 138 -25 213t-154 75q-114 0 -179.5 -83t-77.5 -205l-51 -494h-223l151 1434h223z" />
    <glyph glyph-name="Hbar" unicode="&#x126;" horiz-adv-x="1361" 
d="M471 817h592l20 199h-591zM150 0l151 1434h236l-25 -220h592l24 220h236l-152 -1434h-235l63 606h-591l-64 -606h-235z" />
    <glyph glyph-name="hbar" unicode="&#x127;" horiz-adv-x="1165" 
d="M459 821q107 158 315 158t285 -129q55 -92 33 -283l-60 -567h-223l51 494q14 138 -25 213t-154 75q-114 0 -179.5 -83t-77.5 -205l-51 -494h-223l110 1059h-149l20 198h150l18 177h223l-18 -177h360l-20 -198h-361z" />
    <glyph glyph-name="Itilde" unicode="&#x128;" horiz-adv-x="542" 
d="M150 0l149 1434h244l-150 -1434h-243zM82 1782q130 78 187 78q56 0 171 -28t160 -28t154 56l73 -142q-120 -92 -223 -92q-46 0 -152 26.5t-145 26.5t-76.5 -16t-66.5 -27z" />
    <glyph glyph-name="itilde" unicode="&#x129;" horiz-adv-x="612" 
d="M195 0l100 954h223l-100 -954h-223zM68 1296q130 78 190 78t168 -27.5t154 -27.5t159 55l74 -141q-120 -92 -223 -92q-47 0 -153.5 26.5t-144.5 26.5t-76 -16.5t-66 -26.5z" />
    <glyph glyph-name="Imacron" unicode="&#x12a;" horiz-adv-x="542" 
d="M150 0l149 1434h244l-150 -1434h-243zM78 1645l20 198h733l-20 -198h-733z" />
    <glyph glyph-name="imacron" unicode="&#x12b;" horiz-adv-x="612" 
d="M197 0l100 954h223l-100 -954h-223zM61 1157l21 199h733l-20 -199h-734z" />
    <glyph glyph-name="Ibreve" unicode="&#x12c;" horiz-adv-x="542" 
d="M150 0l151 1434h244l-152 -1434h-243zM452 1722q151 0 218 121h211q-27 -131 -159 -225t-288 -94t-264.5 93.5t-116.5 225.5h209q39 -121 190 -121z" />
    <glyph glyph-name="ibreve" unicode="&#x12d;" horiz-adv-x="612" 
d="M197 0l100 954h223l-100 -954h-223zM445 1313q152 0 217 121h210q-27 -133 -158.5 -226.5t-287.5 -93.5t-264.5 93.5t-116.5 226.5h209q39 -121 191 -121z" />
    <glyph glyph-name="Iogonek" unicode="&#x12e;" horiz-adv-x="542" 
d="M182 -171q0 -97 88 -97q51 0 113 24l-16 -159q-109 -31 -204 -31q-96 0 -149 53t-53 127t46 132.5t143 121.5l149 1434h244l-150 -1434h-78q-133 -74 -133 -171z" />
    <glyph glyph-name="iogonek" unicode="&#x12f;" horiz-adv-x="612" 
d="M330 1276q0 86 54.5 139t123.5 53q70 0 112 -44t42 -94q0 -81 -53.5 -136t-124.5 -55t-112.5 44t-41.5 93zM281 -171q0 -97 88 -97q52 0 112 24l-16 -159q-108 -31 -204 -31q-95 0 -148.5 53t-53.5 127t46.5 132.5t142.5 121.5l100 954h223l-100 -954h-57
q-133 -74 -133 -171z" />
    <glyph glyph-name="Idotaccent" unicode="&#x130;" horiz-adv-x="542" 
d="M345 1882.5q54 54.5 124 54.5t112 -44t42 -94q0 -81 -53.5 -136t-124.5 -55t-112.5 44t-41.5 110t54 120.5zM150 0l151 1434h244l-152 -1434h-243z" />
    <glyph glyph-name="dotlessi" unicode="&#x131;" horiz-adv-x="487" 
d="M133 0l100 954h224l-101 -954h-223z" />
    <glyph glyph-name="IJ" unicode="&#x132;" horiz-adv-x="1640" 
d="M1053 176q117 0 182 80t80 209l102 969h236l-103 -969q-24 -223 -165 -361.5t-355.5 -138.5t-324.5 141t-89 361h236q-14 -129 35 -210t166 -81zM150 0l151 1434h244l-152 -1434h-243z" />
    <glyph glyph-name="ij" unicode="&#x133;" horiz-adv-x="1216" 
d="M885 1276q0 86 54.5 139t123.5 53q70 0 112 -44t42 -94q0 -81 -53.5 -136t-124.5 -55t-112.5 44t-41.5 93zM701 -305q68 0 79 96l123 1163h223l-122 -1177q-22 -217 -110 -247t-118 -30q-126 0 -172 23l19 184q46 -12 78 -12zM330 1414q54 54 124 54t112 -44t42 -94
q0 -83 -54 -137t-124 -54t-112 44.5t-42 110.5t54 120zM195 0l100 954h223l-100 -954h-223z" />
    <glyph glyph-name="Jcircumflex" unicode="&#x134;" horiz-adv-x="1097" 
d="M649 1694l400 297l337 -297l-155 -156l-209 184l-248 -182zM510 176q117 0 182.5 80t79.5 209l102 969h236l-102 -969q-24 -220 -164 -360t-354.5 -140t-326.5 141t-89 361h235q-12 -129 36 -210t165 -81z" />
    <glyph glyph-name="jcircumflex" unicode="&#x135;" horiz-adv-x="604" 
d="M82 1329l399 297l338 -297l-155 -155l-211 184l-246 -182zM91 -305q68 0 79 96l123 1163h221l-123 -1177q-22 -217 -109.5 -247t-165.5 -30t-124 23l18 184q49 -12 81 -12z" />
    <glyph glyph-name="Kcommaaccent" unicode="&#x136;" horiz-adv-x="1243" 
d="M580 -299q-41 0 -72 35t-31 89t44.5 97t104.5 43t95 -41t35 -129q0 -135 -82 -204.5t-223 -69.5l10 84q108 0 137 42t33 64q-10 -10 -51 -10zM150 0l151 1434h236l-68 -631l600 631h295l-682 -717l530 -717h-294l-467 629l-66 -629h-235z" />
    <glyph glyph-name="kcommaaccent" unicode="&#x137;" horiz-adv-x="1021" 
d="M457 -299q-41 0 -72 35t-31 89t44 97t104 43t95.5 -41t35.5 -129q0 -135 -82 -204.5t-223 -69.5l10 84q108 0 137 42t33 64q-10 -10 -51 -10zM150 0l151 1434h223l-96 -902l395 422h279l-449 -477l348 -477h-278l-305 420l-45 -420h-223z" />
    <glyph glyph-name="kgreenlandic" unicode="&#x138;" horiz-adv-x="1021" 
d="M150 0l100 954h223l-45 -422l395 422h279l-449 -477l348 -477h-278l-305 420l-45 -420h-223z" />
    <glyph glyph-name="Lacute" unicode="&#x139;" horiz-adv-x="878" 
d="M150 0l151 1434h236l-129 -1223h442l-23 -211h-677zM145 1708l539 281l88 -174l-539 -281z" />
    <glyph glyph-name="lacute" unicode="&#x13a;" horiz-adv-x="522" 
d="M150 0l151 1434h223l-151 -1434h-223zM133 1712l539 281l88 -174l-539 -281z" />
    <glyph glyph-name="Lcommaaccent" unicode="&#x13b;" horiz-adv-x="878" 
d="M383 -299q-41 0 -71.5 35t-30.5 89t44 97t104 43t95 -41t35 -129q0 -135 -82 -204.5t-223 -69.5l10 84q108 0 137 42t33 64q-10 -10 -51 -10zM150 0l151 1434h236l-129 -1223h442l-23 -211h-677z" />
    <glyph glyph-name="lcommaaccent" unicode="&#x13c;" horiz-adv-x="522" 
d="M150 0l149 1434h223l-149 -1434h-223zM205 -299q-41 0 -72 35t-31 89t44 97t104 43t95.5 -41t35.5 -131q0 -129 -81 -200.5t-224 -71.5l8 84q80 0 121 30t51 76q-10 -10 -51 -10z" />
    <glyph glyph-name="Lcaron" unicode="&#x13d;" horiz-adv-x="878" 
d="M150 0l149 1434h236l-127 -1223h442l-23 -211h-677zM129 1835l135 156l187 -197l229 197l104 -156l-360 -297z" />
    <glyph glyph-name="lcaron" unicode="&#x13e;" horiz-adv-x="825" 
d="M758 1202q-49 0 -87 40t-38 106t52 117t125 51q155 0 155 -203q0 -160 -95.5 -244t-265.5 -84l10 100q91 0 142 38t61 89q-10 -10 -59 -10zM150 0l151 1434h223l-151 -1434h-223z" />
    <glyph glyph-name="Ldot" unicode="&#x13f;" horiz-adv-x="878" 
d="M668.5 750.5q54.5 54.5 124.5 54.5t111.5 -44.5t41.5 -94.5q0 -82 -54 -136.5t-124 -54.5t-112 44.5t-42 110.5t54.5 120.5zM150 0l151 1434h236l-129 -1223h442l-23 -211h-677z" />
    <glyph glyph-name="ldot" unicode="&#x140;" horiz-adv-x="741" 
d="M531.5 750.5q54.5 54.5 124.5 54.5t111.5 -44.5t41.5 -94.5q0 -82 -54.5 -136.5t-124.5 -54.5t-111.5 44.5t-41.5 110.5t54.5 120.5zM150 0l151 1434h223l-151 -1434h-223z" />
    <glyph glyph-name="Lslash" unicode="&#x141;" horiz-adv-x="878" 
d="M111 485l22 213l94 37l74 699h236l-64 -603l356 144l-22 -213l-356 -144l-43 -407h442l-23 -211h-677l55 522z" />
    <glyph glyph-name="lslash" unicode="&#x142;" horiz-adv-x="522" 
d="M66 485l22 213l143 72l70 664h244l-58 -535l150 76l-23 -213l-149 -76l-72 -686h-243l59 557z" />
    <glyph glyph-name="Nacute" unicode="&#x143;" horiz-adv-x="1359" 
d="M551 1708l539 281l88 -174l-539 -281zM150 0l151 1434h258l459 -1020l108 1020h236l-152 -1434h-258l-460 1020l-107 -1020h-235z" />
    <glyph glyph-name="nacute" unicode="&#x144;" horiz-adv-x="1165" 
d="M399 1188l539 280l88 -174l-539 -280zM459 821q107 158 316 158t286 -129q54 -89 31 -283l-60 -567h-223l51 494q14 138 -25 213t-154 75q-114 0 -179.5 -83t-77.5 -205l-51 -494h-223l100 954h223z" />
    <glyph glyph-name="Ncommaaccent" unicode="&#x145;" horiz-adv-x="1359" 
d="M623 -299q-41 0 -72 35t-31 89t44 97t104 43t95.5 -41t35.5 -129q0 -135 -82 -204.5t-223 -69.5l10 84q108 0 137 42t33 64q-10 -10 -51 -10zM150 0l151 1434h258l459 -1020l108 1020h236l-152 -1434h-258l-460 1020l-107 -1020h-235z" />
    <glyph glyph-name="ncommaaccent" unicode="&#x146;" horiz-adv-x="1165" 
d="M557 -299q-41 0 -71.5 35t-30.5 89t44 97t104 43t95 -41t35 -129q0 -135 -82 -204.5t-223 -69.5l10 84q108 0 137 42t33 64q-10 -10 -51 -10zM459 821q107 158 316 158t286 -129q54 -89 31 -283l-60 -567h-223l51 494q14 138 -25 213t-154 75q-114 0 -179.5 -83
t-77.5 -205l-51 -494h-223l100 954h223z" />
    <glyph glyph-name="Ncaron" unicode="&#x147;" horiz-adv-x="1359" 
d="M545 1835l135 156l186 -197l230 197l104 -156l-360 -297zM150 0l151 1434h258l459 -1020l108 1020h236l-152 -1434h-258l-460 1020l-107 -1020h-235z" />
    <glyph glyph-name="ncaron" unicode="&#x148;" horiz-adv-x="1165" 
d="M438 1468l135 156l187 -197l229 197l105 -156l-361 -297zM459 821q107 158 316 158t286 -129q54 -89 31 -283l-60 -567h-223l51 494q14 138 -25 213t-154 75q-114 0 -179.5 -83t-77.5 -205l-51 -494h-223l100 954h223z" />
    <glyph glyph-name="napostrophe" unicode="&#x149;" horiz-adv-x="1165" 
d="M366 1245q-40 0 -72 35t-32 89t44 97t104 43t95.5 -41t35.5 -129q0 -133 -81 -203.5t-222 -70.5l8 84q74 0 125 33q39 29 45 73q-10 -10 -50 -10zM459 821q107 158 316 158t286 -129q54 -89 31 -283l-60 -567h-223l51 494q14 138 -25 213t-154 75q-114 0 -179.5 -83
t-77.5 -205l-51 -494h-223l100 954h223z" />
    <glyph glyph-name="Eng" unicode="&#x14a;" horiz-adv-x="1359" 
d="M686 -502q-117 0 -191.5 47t-127.5 117l168 148q39 -45 74.5 -73t103.5 -28q117 0 182.5 80t79.5 209l-483 1022l-107 -1020h-235l151 1434h236l481 -1020l108 1020h236l-152 -1436q-21 -216 -163 -358t-361 -142z" />
    <glyph glyph-name="eng" unicode="&#x14b;" horiz-adv-x="1165" 
d="M459 821q107 158 316 158t286 -129q51 -90 31 -283l-64 -598q-20 -204 -153.5 -337.5t-331.5 -133.5q-113 0 -185.5 42t-126.5 114l160 139q39 -41 72 -67.5t96 -26.5q111 0 172.5 74.5t73.5 195.5l55 525q21 205 -47 246.5t-129 41.5q-117 0 -182.5 -83t-77.5 -205
l-51 -494h-223l100 954h223z" />
    <glyph glyph-name="Omacron" unicode="&#x14c;" horiz-adv-x="1638" 
d="M627 1645l20 198h733l-20 -198h-733zM399 668q0 -209 120 -350.5t337 -141.5q218 0 377.5 180.5t159.5 417.5q0 198 -119 340.5t-326 142.5q-121 0 -222 -51t-174 -134t-113 -191.5t-40 -212.5zM150 656q0 146 59 294t167.5 263.5t259 185t324.5 69.5q321 0 500.5 -198
t179.5 -479q0 -158 -59 -307.5t-166.5 -264.5t-258.5 -184.5t-324 -69.5t-298.5 56.5t-210.5 149.5t-129 216t-44 269z" />
    <glyph glyph-name="omacron" unicode="&#x14d;" horiz-adv-x="1163" 
d="M418.5 251q68.5 -77 193.5 -77t213 99t88 225q0 127 -68 204.5t-193 77.5q-126 0 -214 -99t-88 -226t68.5 -204zM336 1157l22 199h734l-23 -199h-733zM125 438q0 100 42 199.5t159 220.5t340 121t348 -131t125 -338t-160.5 -371t-384.5 -164t-346.5 131t-122.5 332z" />
    <glyph glyph-name="Obreve" unicode="&#x14e;" horiz-adv-x="1638" 
d="M999 1720q151 0 218 121h210q-27 -133 -160 -226t-287 -93t-263 92t-117 227h209q39 -121 190 -121zM399 668q0 -209 120 -350.5t337 -141.5q218 0 377.5 180.5t159.5 417.5q0 198 -119 340.5t-326 142.5q-121 0 -222 -51t-174 -134t-113 -191.5t-40 -212.5zM150 656
q0 146 59 294t167.5 263.5t259 185t324.5 69.5q321 0 500.5 -198t179.5 -479q0 -158 -59 -307.5t-166.5 -264.5t-258.5 -184.5t-324 -69.5t-298.5 56.5t-210.5 149.5t-129 216t-44 269z" />
    <glyph glyph-name="obreve" unicode="&#x14f;" horiz-adv-x="1163" 
d="M418.5 251q68.5 -77 193.5 -77t213 99t88 225q0 127 -68 204.5t-193 77.5q-126 0 -214 -99t-88 -226t68.5 -204zM719 1313q152 0 217 121h211q-31 -134 -161 -227t-287 -93t-263.5 91.5t-116.5 228.5h209q39 -121 191 -121zM125 438q0 100 42 199.5t159 220.5t340 121
t348 -131t125 -338t-160.5 -371t-384.5 -164t-346.5 131t-122.5 332z" />
    <glyph glyph-name="Ohungarumlaut" unicode="&#x150;" horiz-adv-x="1638" 
d="M1022 1642l291 340l186 -98l-377 -299zM623 1642l290 340l187 -98l-377 -299zM399 668q0 -209 120 -350.5t337 -141.5q218 0 377.5 180.5t159.5 417.5q0 198 -119 340.5t-326 142.5q-121 0 -222 -51t-174 -134t-113 -191.5t-40 -212.5zM150 656q0 146 59 294t167.5 263.5
t259 185t324.5 69.5q321 0 500.5 -198t179.5 -479q0 -158 -59 -307.5t-166.5 -264.5t-258.5 -184.5t-324 -69.5t-298.5 56.5t-210.5 149.5t-129 216t-44 269z" />
    <glyph glyph-name="ohungarumlaut" unicode="&#x151;" horiz-adv-x="1163" 
d="M760 1163l291 340l186 -98l-377 -299zM360 1163l291 340l187 -98l-377 -299zM418.5 251q68.5 -77 193.5 -77t213 99t88 225q0 127 -68 204.5t-193 77.5q-126 0 -214 -99t-88 -226t68.5 -204zM125 438q0 100 42 199.5t159 220.5t340 121t348 -131t125 -338t-160.5 -371
t-384.5 -164t-346.5 131t-122.5 332z" />
    <glyph glyph-name="OE" unicode="&#x152;" horiz-adv-x="2281" 
d="M397 666q0 -209 118 -351.5t325 -142.5q121 0 222 51t215 180.5t114 366.5q0 199 -119 341t-341 142q-221 0 -337.5 -134t-156.5 -241.5t-40 -211.5zM147 641q0 158 59.5 306.5t167 263t260 184t337.5 69.5q297 0 477 -184l16 154h828l-23 -211h-592l-41 -406h592
l-22 -211h-592l-43 -395h592l-21 -211h-827l14 145q-218 -184 -520 -184q-301 0 -481.5 199.5t-180.5 480.5z" />
    <glyph glyph-name="oe" unicode="&#x153;" horiz-adv-x="1867" 
d="M1413 793q-100 0 -175 -55.5t-85 -162.5h467q10 100 -48.5 159t-158.5 59zM418.5 251q68.5 -77 192.5 -77t213 95.5t89 224.5t-67.5 207.5t-193.5 78.5t-214 -99t-88 -226t68.5 -204zM578 -25q-208 0 -330.5 131t-122.5 339t158 371t397.5 163t368.5 -168
q72 84 171.5 126t199.5 42q188 0 301.5 -111t113.5 -288q0 -72 -27 -170h-675q-14 -175 70.5 -211.5t166.5 -36.5t128 37t75 88h225q-37 -131 -162.5 -221.5t-300.5 -90.5q-241 0 -354 170q-161 -170 -403 -170z" />
    <glyph glyph-name="Racute" unicode="&#x154;" horiz-adv-x="1247" 
d="M496 1708l538 281l88 -174l-538 -281zM731 641q132 0 217.5 94.5t85.5 214.5q0 121 -64.5 197t-176.5 76h-279l-61 -582h278zM815 1434q210 0 332.5 -132t122.5 -312t-96.5 -318t-258.5 -205l236 -467h-268l-217 430h-236l-45 -430h-235l151 1434h514z" />
    <glyph glyph-name="racute" unicode="&#x155;" horiz-adv-x="774" 
d="M209 1229l539 280l90 -174l-541 -280zM754 758q-150 0 -235 -83t-103 -263l-43 -412h-223l100 954h223l-16 -153q66 108 166 137t149 29t84 -15l-22 -204q-42 10 -80 10z" />
    <glyph glyph-name="Rcommaaccent" unicode="&#x156;" horiz-adv-x="1247" 
d="M731 641q132 0 217.5 94.5t85.5 214.5q0 121 -64.5 197t-176.5 76h-279l-61 -582h278zM568 -299q-40 0 -71.5 35t-31.5 89t44 97t104 43t95 -41t35 -129q0 -135 -81.5 -204.5t-223.5 -69.5l11 84q143 0 169 106q-10 -10 -50 -10zM815 1434q210 0 332.5 -132t122.5 -312
t-96.5 -318t-258.5 -205l236 -467h-268l-217 430h-236l-45 -430h-235l151 1434h514z" />
    <glyph glyph-name="rcommaaccent" unicode="&#x157;" horiz-adv-x="774" 
d="M750 967q78 0 104 -15l-20 -204q-45 10 -82 10q-150 0 -234 -83t-102 -263l-43 -412h-223l100 954h223l-16 -153q41 68 128 117t165 49zM205 -299q-41 0 -72 35t-31 89t44 97t104 43t95.5 -41t35.5 -131q0 -129 -81 -200.5t-224 -71.5l8 84q80 0 121 30t51 76
q-10 -10 -51 -10z" />
    <glyph glyph-name="Rcaron" unicode="&#x158;" horiz-adv-x="1247" 
d="M731 641q132 0 217.5 94.5t85.5 214.5q0 121 -64.5 197t-176.5 76h-279l-61 -582h278zM446 1839l136 156l186 -197l229 197l105 -156l-361 -297zM815 1434q210 0 332.5 -132t122.5 -312t-96.5 -318t-258.5 -205l236 -467h-268l-217 430h-236l-45 -430h-235l151 1434h514z
" />
    <glyph glyph-name="rcaron" unicode="&#x159;" horiz-adv-x="774" 
d="M213 1470l135 156l187 -196l229 196l104 -156l-360 -296zM754 758q-150 0 -235 -83t-103 -263l-43 -412h-223l100 954h223l-16 -153q66 108 166 137t149 29t84 -15l-22 -204q-42 10 -80 10z" />
    <glyph glyph-name="Sacute" unicode="&#x15a;" horiz-adv-x="1165" 
d="M455 1708l538 281l90 -174l-540 -281zM803 240.5q76 64.5 76 174.5q0 111 -84.5 149t-148.5 62q-190 69 -295 153t-105 247q0 196 144.5 319t342.5 123t315 -125.5t97 -322.5h-236q10 106 -40 171.5t-150 65.5t-168 -52.5t-68 -150.5q0 -99 75.5 -137t137.5 -62
t242 -98.5t180 -320.5q0 -209 -158.5 -340t-375.5 -131t-343.5 137.5t-103.5 366.5h236q-15 -135 53.5 -214t184.5 -79t192 64.5z" />
    <glyph glyph-name="sacute" unicode="&#x15b;" horiz-adv-x="929" 
d="M283 1188l538 280l88 -174l-538 -280zM438 773q-43 -30 -43 -78t42 -71.5t147 -63.5q106 -39 198 -85t92 -174q0 -165 -121.5 -245.5t-288.5 -80.5t-269.5 92t-85.5 255h217q-10 -94 38 -132t124 -38t123.5 27.5t47.5 74.5t-18 67.5t-53 36t-87.5 33t-108.5 40.5
q-117 48 -165.5 96.5t-48.5 133.5q0 152 112.5 235t271.5 83t254 -91t83 -233h-217q13 148 -135 148q-66 0 -109 -30z" />
    <glyph glyph-name="Scircumflex" unicode="&#x15c;" horiz-adv-x="1165" 
d="M391 1696l402 297l335 -297l-155 -156l-209 184l-246 -182zM803 240.5q76 64.5 76 174.5q0 111 -84.5 149t-148.5 62q-190 69 -295 153t-105 247q0 196 144.5 319t342.5 123t315 -125.5t97 -322.5h-236q10 106 -40 171.5t-150 65.5t-168 -52.5t-68 -150.5
q0 -99 75.5 -137t137.5 -62t242 -98.5t180 -320.5q0 -209 -158.5 -340t-375.5 -131t-343.5 137.5t-103.5 366.5h236q-15 -135 53.5 -214t184.5 -79t192 64.5z" />
    <glyph glyph-name="scircumflex" unicode="&#x15d;" horiz-adv-x="929" 
d="M223 1212l402 297l336 -297l-156 -155l-209 184l-248 -182zM438 773q-43 -30 -43 -78t42 -71.5t147 -63.5q106 -39 198 -85t92 -174q0 -165 -121.5 -245.5t-288.5 -80.5t-269.5 92t-85.5 255h217q-10 -94 38 -132t124 -38t123.5 27.5t47.5 74.5t-18 67.5t-53 36t-87.5 33
t-108.5 40.5q-117 48 -165.5 96.5t-48.5 133.5q0 152 112.5 235t271.5 83t254 -91t83 -233h-217q13 148 -135 148q-66 0 -109 -30z" />
    <glyph glyph-name="Scedilla" unicode="&#x15e;" horiz-adv-x="1165" 
d="M731 -274q0 69 -72 69q-41 0 -63 -37h-111l21 211q-182 25 -288 157t-83 343h236q-15 -135 53.5 -214t184.5 -79t193 65t77 175t-84.5 148t-148.5 62q-190 69 -295 153t-105 247q0 198 143.5 320t342.5 122q200 0 315.5 -126.5t95.5 -321.5h-236q12 106 -39 171.5
t-150 65.5t-167 -52.5t-68 -150.5t74.5 -136.5t136.5 -62.5t143 -58.5t142 -81.5t99 -115t38 -212.5t-137.5 -273t-329.5 -145.5l-10 -100q31 27 81 27t96 -40t46 -119t-61.5 -147.5t-167.5 -68.5t-147.5 57t-43.5 119h131q12 -61 70 -62q37 0 62.5 26t25.5 65z" />
    <glyph glyph-name="scedilla" unicode="&#x15f;" horiz-adv-x="929" 
d="M598 -274q0 69 -70 69q-43 0 -65 -37h-111l25 226q-207 34 -242 149t-26 189h217q-10 -94 38 -132t124 -38t123.5 27.5t47.5 74.5t-17 67.5t-52 36t-87.5 33t-108.5 40.5q-121 49 -168.5 97t-47.5 133q0 152 112.5 235t272.5 83t254 -90t82 -234h-217q17 148 -133 148
q-66 0 -110 -30t-44 -78t47.5 -75t144.5 -62t192 -80t95 -184t-97.5 -220t-258.5 -94l-10 -111q31 27 67 27q64 0 110 -42t46 -119q0 -78 -61.5 -146t-169.5 -68t-147.5 57t-41.5 119h131q12 -61 70 -62q37 0 61.5 26t24.5 65z" />
    <glyph glyph-name="Scaron" unicode="&#x160;" horiz-adv-x="1165" 
d="M457 1862l135 155l186 -196l230 196l104 -155l-360 -297zM803 240.5q76 64.5 76 174.5q0 111 -84.5 149t-146.5 62q-195 73 -298.5 153t-103.5 261t147 304.5t345 123.5t312.5 -125.5t94.5 -322.5h-236q10 106 -40 171.5t-150 65.5t-168 -52.5t-68 -150.5
q0 -99 75.5 -137t137.5 -62t242 -98.5t180 -320.5q0 -209 -158.5 -340t-375.5 -131t-343.5 137.5t-103.5 366.5h236q-15 -135 53.5 -214t184.5 -79t192 64.5z" />
    <glyph glyph-name="scaron" unicode="&#x161;" horiz-adv-x="929" 
d="M281 1341l135 156l186 -197l229 197l105 -156l-361 -297zM438 773q-43 -30 -43 -78t42 -71.5t147 -63.5q106 -39 198 -85t92 -174q0 -165 -121.5 -245.5t-288.5 -80.5t-269.5 92t-85.5 255h217q-10 -94 38 -132t124 -38t123.5 27.5t47.5 74.5t-18 67.5t-53 36t-87.5 33
t-108.5 40.5q-117 48 -165.5 96.5t-48.5 133.5q0 152 112.5 235t271.5 83t254 -91t83 -233h-217q13 148 -135 148q-66 0 -109 -30z" />
    <glyph glyph-name="Tcommaaccent" unicode="&#x162;" horiz-adv-x="987" 
d="M446 -299q-40 0 -72 35t-32 89t44 97t104 43t95.5 -41t35.5 -129q0 -133 -81 -203.5t-223 -70.5l9 84q86 0 123.5 32.5t46.5 73.5q-10 -10 -50 -10zM150 1223l22 211h946l-22 -211h-357l-129 -1223h-235l129 1223h-354z" />
    <glyph glyph-name="tcommaaccent" unicode="&#x163;" horiz-adv-x="718" 
d="M303 -299q-41 0 -71.5 35t-30.5 89t44 97t103 43t95 -41t36 -131q0 -129 -81 -200.5t-224 -71.5l8 84q149 0 172 106q-10 -10 -51 -10zM529 -12q-62 0 -113 7t-127 61.5t-53 267.5l47 444h-162l20 186h162l29 289h223l-29 -289h219l-20 -186h-219l-41 -393
q-11 -119 17.5 -153t101.5 -34t114 9l-20 -197q-87 -12 -149 -12z" />
    <glyph glyph-name="Tcaron" unicode="&#x164;" horiz-adv-x="987" 
d="M360 1839l136 156l186 -197l229 197l105 -156l-363 -297zM150 1223l22 211h946l-22 -211h-357l-129 -1223h-235l129 1223h-354z" />
    <glyph glyph-name="tcaron" unicode="&#x165;" horiz-adv-x="1155" 
d="M949 1155q-49 0 -87.5 39.5t-38.5 105.5t52.5 117t125.5 51q154 0 154 -202q0 -160 -95 -244t-265 -84l10 100q92 0 142 38t61 89q-10 -10 -59 -10zM529 -12q-62 0 -113 7t-127 61.5t-53 267.5l47 444h-162l20 186h162l29 289h223l-29 -289h219l-20 -186h-219l-41 -393
q-11 -119 17.5 -153t101.5 -34t114 9l-20 -197q-87 -12 -149 -12z" />
    <glyph glyph-name="Tbar" unicode="&#x166;" horiz-adv-x="987" 
d="M150 1223l22 211h946l-22 -211h-357l-20 -199h250l-21 -199h-250l-88 -825h-235l88 825h-248l21 199h247l21 199h-354z" />
    <glyph glyph-name="tbar" unicode="&#x167;" horiz-adv-x="718" 
d="M532 -12q-65 0 -117.5 7t-128.5 63t-50 266l8 69h-162l20 189h162l19 186h-162l20 186h162l31 289h223l-31 -289h219l-20 -186h-219l-19 -186h220l-21 -189h-219q-15 -132 14 -168.5t105 -36.5t112 9l-20 -197q-81 -12 -146 -12z" />
    <glyph glyph-name="Utilde" unicode="&#x168;" horiz-adv-x="1310" 
d="M983 1804q45 0 154 56l73 -142q-120 -92 -223 -92q-46 0 -152 26.5t-145 26.5t-77 -16t-66 -27l-82 146q130 78 187 78q56 0 171 -28t160 -28zM885 264q88 88 100 215l100 955h236l-100 -955q-20 -211 -180.5 -362.5t-388 -151.5t-356.5 148t-108 366l101 955h235
l-100 -955q-12 -131 57 -217t192 -86q124 0 212 88z" />
    <glyph glyph-name="utilde" unicode="&#x169;" horiz-adv-x="1165" 
d="M342 1294q130 78 190 78t168 -27.5t154 -27.5q47 0 160 55l73 -141q-120 -92 -223 -92q-46 0 -152 26.5t-145 26.5t-76.5 -16.5t-66.5 -26.5zM580 172q119 0 184 83t78 206l51 493h223l-100 -954h-223l14 133q-111 -158 -318 -158t-284 129q-54 89 -31 283l59 567h224
l-51 -493q-20 -207 47 -248t127 -41z" />
    <glyph glyph-name="Umacron" unicode="&#x16a;" horiz-adv-x="1310" 
d="M461 1645l20 198h733l-20 -198h-733zM885 264q88 88 100 215l100 955h236l-100 -955q-20 -211 -180.5 -362.5t-388 -151.5t-356.5 148t-108 366l101 955h235l-100 -955q-12 -131 57 -217t192 -86q124 0 212 88z" />
    <glyph glyph-name="umacron" unicode="&#x16b;" horiz-adv-x="1165" 
d="M336 1157l20 199h734l-21 -199h-733zM580 172q119 0 184 83t78 206l51 493h223l-100 -954h-223l14 133q-111 -158 -318 -158t-284 129q-54 89 -31 283l59 567h224l-51 -493q-20 -207 47 -248t127 -41z" />
    <glyph glyph-name="Ubreve" unicode="&#x16c;" horiz-adv-x="1310" 
d="M835 1726q151 0 218 121h211q-31 -133 -162 -226t-287 -93t-263.5 92.5t-115.5 226.5h209q39 -121 190 -121zM885 264q88 88 100 215l100 955h236l-100 -955q-20 -211 -180.5 -362.5t-388 -151.5t-356.5 148t-108 366l101 955h235l-100 -955q-12 -131 57 -217t192 -86
q124 0 212 88z" />
    <glyph glyph-name="ubreve" unicode="&#x16d;" horiz-adv-x="1165" 
d="M717 1313q80 0 135 33.5t82 87.5h211q-27 -132 -158 -226t-288 -94t-264.5 92.5t-117.5 227.5h209q39 -121 191 -121zM580 172q119 0 184 83t78 206l51 493h223l-100 -954h-223l14 133q-111 -158 -318 -158t-284 129q-54 89 -31 283l59 567h224l-51 -493
q-20 -207 47 -248t127 -41z" />
    <glyph glyph-name="Uring" unicode="&#x16e;" horiz-adv-x="1310" 
d="M748 1743q0 -37 23 -60.5t61 -23.5t68 28.5t30 66.5t-23.5 61.5t-61.5 23.5t-67.5 -29.5t-29.5 -66.5zM669.5 1917.5q83.5 81.5 185.5 81.5t169.5 -66t67.5 -171t-85 -186t-188 -81t-168 67t-65 171q0 103 83.5 184.5zM885 264q88 88 100 215l100 955h236l-100 -955
q-20 -211 -180.5 -362.5t-388 -151.5t-356.5 148t-108 366l101 955h235l-100 -955q-12 -131 57 -217t192 -86q124 0 212 88z" />
    <glyph glyph-name="uring" unicode="&#x16f;" horiz-adv-x="1165" 
d="M616 1290q0 -37 24 -60.5t62 -23.5t67.5 29t29.5 67t-23.5 61t-61.5 23t-68 -29.5t-30 -66.5zM538.5 1464.5q83.5 81.5 185.5 81.5t169.5 -66t67.5 -169t-84.5 -186t-187.5 -83t-168.5 65.5t-65.5 170.5t83.5 186.5zM580 172q119 0 184 83t78 206l51 493h223l-100 -954
h-223l14 133q-111 -158 -318 -158t-284 129q-54 89 -31 283l59 567h224l-51 -493q-20 -207 47 -248t127 -41z" />
    <glyph glyph-name="Uhungarumlaut" unicode="&#x170;" horiz-adv-x="1310" 
d="M887 1642l291 340l186 -98l-377 -299zM487 1642l291 340l187 -98l-377 -299zM885 264q88 88 100 215l100 955h236l-100 -955q-20 -211 -180.5 -362.5t-388 -151.5t-356.5 148t-108 366l101 955h235l-100 -955q-12 -131 57 -217t192 -86q124 0 212 88z" />
    <glyph glyph-name="uhungarumlaut" unicode="&#x171;" horiz-adv-x="1165" 
d="M735 1116l293 340l186 -98l-378 -299zM336 1116l293 340l186 -98l-379 -299zM580 172q119 0 184 83t78 206l51 493h223l-100 -954h-223l14 133q-111 -158 -318 -158t-284 129q-54 89 -31 283l59 567h224l-51 -493q-20 -207 47 -248t127 -41z" />
    <glyph glyph-name="Uogonek" unicode="&#x172;" horiz-adv-x="1310" 
d="M401 -252q0 118 152 225q-184 31 -283.5 174.5t-79.5 331.5l101 955h235l-100 -955q-12 -128 55 -215.5t191 -87.5t213.5 87.5t101.5 215.5l100 955h236l-100 -955q-20 -200 -162 -344t-350 -166q-86 -61 -86 -139q0 -41 20.5 -69.5t52.5 -28.5q66 0 127 24l-18 -159
q-102 -31 -201 -31q-98 0 -151.5 53t-53.5 129z" />
    <glyph glyph-name="uogonek" unicode="&#x173;" horiz-adv-x="1165" 
d="M580 172q119 0 184 83t78 206l51 493h223l-100 -954h-58q-47 -29 -90 -67.5t-43 -90.5q0 -110 88 -110q55 0 113 24l-16 -159q-108 -31 -204 -31t-149 53t-53 127t46 132.5t143 121.5l14 133q-111 -158 -318 -158t-284 129q-54 89 -31 283l59 567h224l-51 -493
q-20 -207 47 -248t127 -41z" />
    <glyph glyph-name="Wcircumflex" unicode="&#x174;" horiz-adv-x="2013" 
d="M815 1696l402 297l335 -297l-155 -156l-209 184l-246 -182zM162 1434h248l223 -1022l438 1022h174l225 -1022l437 1022h247l-647 -1434h-170l-221 1022l-440 -1022h-170z" />
    <glyph glyph-name="wcircumflex" unicode="&#x175;" horiz-adv-x="1542" 
d="M528 1212l400 297l338 -297l-156 -155l-209 184l-248 -182zM100 954h240l143 -604l279 604h219l152 -604l270 604h239l-471 -954h-149l-174 713l-328 -713h-149z" />
    <glyph glyph-name="Ycircumflex" unicode="&#x176;" horiz-adv-x="1232" 
d="M426 1696l401 297l336 -297l-155 -156l-209 184l-246 -182zM174 1434h272l318 -617l373 617h258l-863 -1434h-258l347 573z" />
    <glyph glyph-name="ycircumflex" unicode="&#x177;" horiz-adv-x="1183" 
d="M352 1212l400 297l338 -297l-156 -155l-211 184l-246 -182zM831 133q-107 -158 -315 -158t-285 129q-56 94 -32 283l59 567h223l-51 -493q-28 -289 174 -289q119 0 184.5 83t77.5 206l52 493h223l-105 -999q-22 -230 -158 -343.5t-348 -113.5t-316 110.5t-91 282.5h217
q-13 -131 67 -162.5t146 -31.5q123 0 184.5 62.5t75.5 195.5z" />
    <glyph glyph-name="Ydieresis" unicode="&#x178;" horiz-adv-x="1232" 
d="M940 1744q0 66 51 115.5t117 49.5t106.5 -41.5t40.5 -89.5q0 -85 -53 -134t-119 -49q-65 0 -104 41.5t-39 107.5zM471 1744q0 66 51.5 115.5t117.5 49.5t106 -41.5t40 -89.5q0 -85 -53 -134t-119 -49q-65 0 -104 41.5t-39 107.5zM174 1434h272l318 -617l373 617h258
l-863 -1434h-258l347 573z" />
    <glyph glyph-name="Zacute" unicode="&#x179;" horiz-adv-x="1181" 
d="M463 1708l538 281l89 -174l-539 -281zM27 0l872 1223h-700l22 211h1092l-873 -1223h740l-23 -211h-1130z" />
    <glyph glyph-name="zacute" unicode="&#x17a;" horiz-adv-x="897" 
d="M266 1186l539 280l88 -174l-539 -280zM45 0l533 756h-441l21 198h811l-531 -755h451l-21 -199h-823z" />
    <glyph glyph-name="Zdotaccent" unicode="&#x17b;" horiz-adv-x="1181" 
d="M610 1745q0 85 55.5 138.5t124.5 53.5t110.5 -44t41.5 -94q0 -81 -53.5 -136t-124.5 -55q-70 0 -112 44t-42 93zM27 0l872 1223h-700l22 211h1092l-873 -1223h740l-23 -211h-1130z" />
    <glyph glyph-name="zdotaccent" unicode="&#x17c;" horiz-adv-x="897" 
d="M470 1366.5q54 54.5 124 54.5t112 -44t42 -94q0 -83 -54 -137t-124 -54t-112 44t-42 110t54 120.5zM45 0l533 756h-441l21 198h811l-531 -755h451l-21 -199h-823z" />
    <glyph glyph-name="Zcaron" unicode="&#x17d;" horiz-adv-x="1181" 
d="M451 1794l135 156l186 -197l229 197l105 -156l-361 -297zM27 0l872 1223h-700l22 211h1092l-873 -1223h740l-23 -211h-1130z" />
    <glyph glyph-name="zcaron" unicode="&#x17e;" horiz-adv-x="897" 
d="M279 1313l135 155l186 -196l229 196l105 -155l-361 -297zM45 0l533 756h-441l21 198h811l-531 -755h451l-21 -199h-823z" />
    <glyph glyph-name="longs" unicode="&#x17f;" horiz-adv-x="735" 
d="M627.5 1223q-41.5 -24 -54.5 -125l-114 -1098h-223l79 768h-194l20 186h195l12 119q24 234 132.5 303.5t202.5 69.5t122.5 -7t52.5 -18l-20 -188q-54 14 -111 14q-58 0 -99.5 -24z" />
    <glyph glyph-name="florin" unicode="&#x192;" horiz-adv-x="903" 
d="M674 1375.5q122 70.5 230 70.5t157 -25l-53 -188q-47 14 -85 14q-82 0 -128.5 -24.5t-75.5 -124.5l-41 -144h252l-53 -186h-250l-215 -768q-106 -373 -426 -373q-98 0 -146 25l54 188q47 -14 86 -14q80 0 123 28.5t79 120.5l221 793h-194l53 186h195l32 119
q63 232 185 302.5z" />
    <glyph glyph-name="Aringacute" unicode="&#x1fa;" horiz-adv-x="1169" 
d="M692 1542q0 -20 13 -33.5t35 -13.5t37.5 15.5t15.5 35.5t-11.5 34.5t-33.5 14.5t-39 -16.5t-17 -36.5zM444 1710l539 281l57 -107l-540 -280zM428 393h395l-129 649zM649 1430q-47 33 -47 98q0 66 46.5 110.5t104.5 44.5t95 -37t37 -102t-66 -110l344 -1434h-248l-43 182
h-538l-80 -182h-248z" />
    <glyph glyph-name="aringacute" unicode="&#x1fb;" horiz-adv-x="1234" 
d="M606 1237q0 -37 24.5 -60.5t61.5 -23.5t66.5 28.5t29.5 66.5t-23 61.5t-61 23.5t-68 -29.5t-30 -66.5zM526.5 1409q82.5 84 187.5 84q104 0 170 -64.5t66 -171.5q0 -106 -85 -187t-187 -81q-101 0 -167.5 68.5t-66.5 168.5q0 99 82.5 183zM408 1608l540 280l88 -174
l-538 -280zM418.5 251q68.5 -77 193.5 -77t213 99t88 225q0 127 -68 204.5t-193 77.5q-126 0 -214 -99t-88 -226t68.5 -204zM125 438q0 100 42 199.5t157.5 220.5t330.5 121q106 0 181 -42t112 -112l15 129h223l-101 -954h-223l15 129q-49 -66 -132 -110t-185 -44t-180.5 36
t-135 98.5t-88 145.5t-31.5 183z" />
    <glyph glyph-name="AEacute" unicode="&#x1fc;" horiz-adv-x="1808" 
d="M883 1708l538 281l88 -174l-538 -281zM487 395h385l86 817zM4 0l848 1434h958l-22 -211h-592l-43 -406h592l-23 -211h-592l-40 -395h591l-22 -211h-828l19 184h-485l-105 -184h-256z" />
    <glyph glyph-name="aeacute" unicode="&#x1fd;" horiz-adv-x="1867" 
d="M1416 793q-104 0 -178.5 -55.5t-84.5 -162.5h467q10 92 -45 155t-159 63zM745 1153l541 281l88 -174l-540 -281zM418.5 251q68.5 -77 193.5 -77t213 99t88 227t-68.5 204t-193.5 76t-213 -99t-88 -226t68.5 -204zM560 -25q-194 0 -314.5 133.5t-120.5 336.5
q0 204 157.5 369t372.5 165q106 0 181 -42t112 -112l15 129h223l-4 -36q111 61 224 61q203 0 316 -111t113 -288q0 -72 -27 -170h-675q-14 -175 70.5 -211.5t166.5 -36.5t128 37t75 88h225q-39 -131 -164 -221.5t-324 -90.5q-117 0 -220 64l-5 -39h-223l15 129
q-49 -66 -132 -110t-185 -44z" />
    <glyph glyph-name="Oslashacute" unicode="&#x1fe;" horiz-adv-x="1638" 
d="M838 176q235 0 395 178.5t160 415.5q0 111 -39 211t-111 168l-514 -961q51 -12 109 -12zM690 1708l539 281l90 -174l-541 -281zM397 664q0 -111 38 -212.5t110 -166.5l512 960q-47 12 -105 12q-123 0 -225 -51t-175 -134t-114 -190t-41 -218zM150 638q0 165 59 313.5
t167.5 263t260 184t336.5 69.5q104 0 190 -24l105 194l192 -86l-104 -190q209 -140 246.5 -316t37.5 -262q0 -156 -59 -303t-166.5 -262t-260.5 -184.5t-337 -69.5q-106 0 -192 25l-90 -170l-191 84l88 168q-139 92 -210.5 246.5t-71.5 319.5z" />
    <glyph glyph-name="oslashacute" unicode="&#x1ff;" horiz-adv-x="1163" 
d="M598 174q136 0 225.5 98t89.5 225q0 126 -57 195l-276 -518h18zM397 1188l539 280l88 -174l-539 -280zM662 780q-135 0 -224.5 -98t-89.5 -220t55 -196l275 514h-16zM582 -25q-42 0 -105 11l-90 -168l-180 82l86 161q-80 61 -124 158.5t-44 208.5q0 224 158 387.5
t395 163.5q58 0 102 -8l92 170l179 -82l-86 -164q84 -61 129 -159.5t45 -210.5t-42 -211t-116 -173.5t-176.5 -120t-222.5 -45.5z" />
    <glyph glyph-name="Scommaaccent" unicode="&#x218;" horiz-adv-x="1165" 
d="M525 -322q-39 0 -71 35t-32 89t44 97.5t104 43.5t95 -41t35 -129q0 -133 -80.5 -204t-222.5 -71l9 84q86 0 123.5 33t45.5 74q-11 -11 -50 -11zM803 240.5q76 64.5 76 174.5q0 111 -84.5 149t-148.5 62q-190 69 -295 153t-105 247q0 196 144.5 319t342.5 123t315 -125.5
t97 -322.5h-236q10 106 -40 171.5t-150 65.5t-168 -52.5t-68 -150.5q0 -99 75.5 -137t137.5 -62t242 -98.5t180 -320.5q0 -209 -158.5 -340t-375.5 -131t-343.5 137.5t-103.5 366.5h236q-15 -135 53.5 -214t184.5 -79t192 64.5z" />
    <glyph glyph-name="scommaaccent" unicode="&#x219;" horiz-adv-x="929" 
d="M417 -299q-40 0 -72 35t-32 89t44.5 97t104.5 43t95 -41t35 -129q0 -135 -82 -204.5t-223 -69.5l10 84q108 0 137 42t33 64q-10 -10 -50 -10zM438 773q-43 -30 -43 -78t47.5 -75t147.5 -63t192 -82t92 -174q0 -165 -121.5 -245.5t-288.5 -80.5t-269.5 92t-85.5 255h217
q-10 -94 38 -132t124 -38t123.5 27.5t47.5 74.5t-18 67.5t-53 36t-87.5 33t-108.5 40.5q-117 48 -165.5 96.5t-48.5 133.5q0 152 112.5 235t271.5 83t254 -91t83 -233h-217q13 148 -135 148q-66 0 -109 -30z" />
    <glyph glyph-name="uni021A" unicode="&#x21a;" horiz-adv-x="987" 
d="M446 -299q-40 0 -72 35t-32 89t44 97t104 43t95.5 -41t35.5 -129q0 -133 -81 -203.5t-223 -70.5l9 84q86 0 123.5 32.5t46.5 73.5q-10 -10 -50 -10zM150 1223l22 211h946l-22 -211h-357l-129 -1223h-235l129 1223h-354z" />
    <glyph glyph-name="uni021B" unicode="&#x21b;" horiz-adv-x="718" 
d="M303 -299q-41 0 -71.5 35t-30.5 89t44 97t103 43t95 -41t36 -131q0 -129 -81 -200.5t-224 -71.5l8 84q149 0 172 106q-10 -10 -51 -10zM529 -12q-62 0 -113 7t-127 61.5t-53 267.5l47 444h-162l20 186h162l29 289h223l-29 -289h219l-20 -186h-219l-41 -393
q-11 -119 17.5 -153t101.5 -34t114 9l-20 -197q-87 -12 -149 -12z" />
    <glyph glyph-name="apostrophemod" unicode="&#x2bc;" horiz-adv-x="579" 
d="M390 1202q-50 0 -88 40t-38 106t53 117t125 51q154 0 154 -203q0 -160 -95 -244t-265 -84l10 100q92 0 142 38t61 89q-9 -10 -59 -10z" />
    <glyph glyph-name="circumflex" unicode="&#x2c6;" horiz-adv-x="1007" 
d="M279 1427l399 297l338 -297l-156 -155l-211 184l-246 -182z" />
    <glyph glyph-name="caron" unicode="&#x2c7;" horiz-adv-x="925" 
d="M297 1534l135 156l186 -197l230 197l104 -156l-360 -297z" />
    <glyph glyph-name="breve" unicode="&#x2d8;" horiz-adv-x="1136" 
d="M737 1632q80 0 134.5 34t82.5 87h211q-27 -132 -158.5 -225.5t-287.5 -93.5t-264.5 93.5t-116.5 225.5h209q39 -121 190 -121z" />
    <glyph glyph-name="dotaccent" unicode="&#x2d9;" horiz-adv-x="1206" 
d="M626.5 1403q53.5 55 124.5 55t112.5 -44t41.5 -94q0 -83 -54.5 -137.5t-124.5 -54.5t-111.5 44.5t-41.5 110.5q0 65 53.5 120z" />
    <glyph glyph-name="ring" unicode="&#x2da;" horiz-adv-x="1161" 
d="M641 1454q0 -37 23.5 -60.5t61.5 -23.5t67.5 28.5t29.5 66.5t-23.5 61.5t-61.5 23.5t-67.5 -29.5t-29.5 -66.5zM562.5 1627q83.5 83 187.5 83t169.5 -65.5t65.5 -171.5t-85 -186.5t-188 -80.5q-102 0 -167.5 69t-65.5 169t83.5 183z" />
    <glyph glyph-name="ogonek" unicode="&#x2db;" horiz-adv-x="1163" 
d="M565 -171q0 -97 88 -97q51 0 113 24l-16 -159q-109 -31 -204 -31q-96 0 -149 53t-53 127t46 132.5t142 121.5h166q-133 -74 -133 -171z" />
    <glyph glyph-name="tilde" unicode="&#x2dc;" horiz-adv-x="1079" 
d="M307 1356q130 78 187 78t172 -28t159 -28q45 0 154 56l74 -142q-68 -52 -127.5 -72t-93.5 -20q-41 0 -152.5 26.5t-149.5 26.5q-37 0 -74.5 -16t-66.5 -27z" />
    <glyph glyph-name="hungarumlaut" unicode="&#x2dd;" horiz-adv-x="1075" 
d="M702 1163l291 340l187 -98l-377 -299zM303 1163l291 340l186 -98l-377 -299z" />
    <glyph glyph-name="Delta" unicode="&#x394;" horiz-adv-x="1169" 
d="M354 211h506l-166 831zM6 0l647 1434h166l344 -1434h-1157z" />
    <glyph glyph-name="Omega" unicode="&#x3a9;" horiz-adv-x="1466" 
d="M174 740q0 154 51 280.5t144.5 223.5t224 155.5t280.5 58.5q280 0 435 -167.5t155 -395.5t-117.5 -399t-320.5 -250l-4 -35h338l-23 -211h-522l39 371q185 38 280 180.5t95 310.5t-93 276.5t-287 108.5t-315.5 -140.5t-121.5 -354.5t101 -289.5t177 -91.5l-39 -371h-522
l23 211h337l5 37q-156 66 -238 202t-82 290z" />
    <glyph glyph-name="mu" unicode="&#x3bc;" 
d="M496 -25q-64 0 -123 17l-49 -471h-224l152 1433h221l-51 -493q-28 -289 174 -289q119 0 184.5 83t77.5 206l51 493h226l-101 -954h-223l12 133q-107 -158 -327 -158z" />
    <glyph glyph-name="pi" unicode="&#x3c0;" 
d="M145 756l21 198h1057l-21 -198h-143l-80 -756h-223l80 756h-324l-80 -756h-223l80 756h-144z" />
    <glyph glyph-name="Wgrave" unicode="&#x1e80;" horiz-adv-x="2013" 
d="M891 1815l123 174l481 -281l-125 -174zM162 1434h248l223 -1022l438 1022h174l225 -1022l437 1022h247l-647 -1434h-170l-221 1022l-440 -1022h-170z" />
    <glyph glyph-name="wgrave" unicode="&#x1e81;" horiz-adv-x="1542" 
d="M598 1294l125 174l481 -280l-125 -174zM100 954h240l143 -604l279 604h219l152 -604l270 604h239l-471 -954h-149l-174 713l-328 -713h-149z" />
    <glyph glyph-name="Wacute" unicode="&#x1e82;" horiz-adv-x="2013" 
d="M879 1708l538 281l90 -174l-540 -281zM162 1434h248l223 -1022l438 1022h174l225 -1022l437 1022h247l-647 -1434h-170l-221 1022l-440 -1022h-170z" />
    <glyph glyph-name="wacute" unicode="&#x1e83;" horiz-adv-x="1542" 
d="M588 1188l538 280l88 -174l-538 -280zM100 954h240l143 -604l279 604h219l152 -604l270 604h239l-471 -954h-149l-174 713l-328 -713h-149z" />
    <glyph glyph-name="Wdieresis" unicode="&#x1e84;" horiz-adv-x="2013" 
d="M1270 1772q0 64 52 114.5t118 50.5t105.5 -41.5t39.5 -107.5t-51 -115t-119 -49t-106.5 42t-38.5 106zM801 1772q0 64 51.5 114.5t117.5 50.5t106 -41.5t40 -107.5t-51 -115t-119 -49t-106.5 42t-38.5 106zM162 1434h248l223 -1022l438 1022h174l225 -1022l437 1022h247
l-647 -1434h-170l-221 1022l-440 -1022h-170z" />
    <glyph glyph-name="wdieresis" unicode="&#x1e85;" horiz-adv-x="1542" 
d="M979 1250q0 64 51.5 114.5t117.5 50.5t106 -42t40 -89q0 -83 -51 -132.5t-117 -49.5q-67 0 -107 42t-40 106zM510 1250q0 66 52 115.5t118 49.5t105.5 -41.5t39.5 -107.5t-51.5 -115t-117.5 -49t-106 41t-40 107zM100 954h240l143 -604l279 604h219l152 -604l270 604h239
l-471 -954h-149l-174 713l-328 -713h-149z" />
    <glyph glyph-name="Ygrave" unicode="&#x1ef2;" horiz-adv-x="1232" 
d="M500 1815l123 174l481 -281l-125 -174zM174 1434h272l318 -617l373 617h258l-863 -1434h-258l347 573z" />
    <glyph glyph-name="ygrave" unicode="&#x1ef3;" horiz-adv-x="1183" 
d="M420 1294l125 174l479 -280l-125 -174zM831 133q-107 -158 -315 -158t-285 129q-56 94 -32 283l59 567h223l-51 -493q-28 -289 174 -289q119 0 184.5 83t77.5 206l52 493h223l-105 -999q-22 -230 -158 -343.5t-348 -113.5t-316 110.5t-91 282.5h217q-13 -131 67 -162.5
t146 -31.5q123 0 184.5 62.5t75.5 195.5z" />
    <glyph glyph-name="uni2000" unicode="&#x2000;" horiz-adv-x="1008" 
 />
    <glyph glyph-name="uni2001" unicode="&#x2001;" horiz-adv-x="2017" 
 />
    <glyph glyph-name="uni2002" unicode="&#x2002;" horiz-adv-x="1008" 
 />
    <glyph glyph-name="uni2003" unicode="&#x2003;" horiz-adv-x="2017" 
 />
    <glyph glyph-name="uni2004" unicode="&#x2004;" horiz-adv-x="672" 
 />
    <glyph glyph-name="uni2005" unicode="&#x2005;" horiz-adv-x="504" 
 />
    <glyph glyph-name="uni2006" unicode="&#x2006;" horiz-adv-x="336" 
 />
    <glyph glyph-name="uni2007" unicode="&#x2007;" horiz-adv-x="336" 
 />
    <glyph glyph-name="uni2008" unicode="&#x2008;" horiz-adv-x="252" 
 />
    <glyph glyph-name="uni2009" unicode="&#x2009;" horiz-adv-x="403" 
 />
    <glyph glyph-name="uni200A" unicode="&#x200a;" horiz-adv-x="112" 
 />
    <glyph glyph-name="uni2010" unicode="&#x2010;" horiz-adv-x="602" 
d="M113 483l20 199h479l-20 -199h-479z" />
    <glyph glyph-name="uni2011" unicode="&#x2011;" horiz-adv-x="602" 
d="M113 483l20 199h479l-20 -199h-479z" />
    <glyph glyph-name="figuredash" unicode="&#x2012;" horiz-adv-x="602" 
d="M113 483l20 199h479l-20 -199h-479z" />
    <glyph glyph-name="endash" unicode="&#x2013;" horiz-adv-x="1030" 
d="M154 483l20 199h825l-20 -199h-825z" />
    <glyph glyph-name="emdash" unicode="&#x2014;" horiz-adv-x="2060" 
d="M154 483l20 199h1856l-21 -199h-1855z" />
    <glyph glyph-name="quoteleft" unicode="&#x2018;" horiz-adv-x="579" 
d="M246 1188q0 160 95 244t267 84l-12 -101q-93 0 -145 -41q-43 -27 -58 -86q10 10 59 10t87.5 -40t38.5 -106t-52.5 -116.5t-125.5 -50.5q-154 0 -154 203z" />
    <glyph glyph-name="quoteright" unicode="&#x2019;" horiz-adv-x="579" 
d="M390 1202q-50 0 -88 40t-38 106t53 117t125 51q154 0 154 -203q0 -160 -95 -244t-265 -84l10 100q92 0 142 38t61 89q-9 -10 -59 -10z" />
    <glyph glyph-name="quotesinglbase" unicode="&#x201a;" horiz-adv-x="579" 
d="M262 -25q-49 0 -87 40.5t-38 106.5t51.5 116.5t125.5 50.5q156 0 155 -203q0 -162 -97.5 -245t-265.5 -83l11 101q98 0 145 41q42 27 60 86q-11 -11 -60 -11z" />
    <glyph glyph-name="quotedblleft" unicode="&#x201c;" horiz-adv-x="962" 
d="M629 1188q0 160 95 244t267 84l-12 -101q-93 0 -145 -41q-43 -27 -58 -86q10 10 59 10t87.5 -40t38.5 -106t-52.5 -116.5t-125.5 -50.5q-154 0 -154 203zM246 1188q0 160 95 244t267 84l-12 -101q-93 0 -145 -41q-43 -27 -58 -86q10 10 59 10t87.5 -40t38.5 -106
t-52.5 -116.5t-125.5 -50.5q-154 0 -154 203z" />
    <glyph glyph-name="quotedblright" unicode="&#x201d;" horiz-adv-x="962" 
d="M772 1202q-49 0 -87 40t-38 106t52.5 117t124.5 51q154 0 155 -203q0 -160 -95.5 -244t-265.5 -84l11 100q92 0 142 38t60 89q-10 -10 -59 -10zM390 1202q-50 0 -88 40t-38 106t53 117t125 51q154 0 154 -203q0 -160 -95 -244t-265 -84l10 100q92 0 142 38t61 89
q-9 -10 -59 -10z" />
    <glyph glyph-name="quotedblbase" unicode="&#x201e;" horiz-adv-x="962" 
d="M645 -25q-49 0 -87 40.5t-38 106.5t51 116.5t125 50.5q156 0 156 -203q0 -162 -97.5 -245t-265.5 -83l11 101q98 0 145 41q42 27 60 86q-11 -11 -60 -11zM262 -25q-49 0 -87 40.5t-38 106.5t51.5 116.5t125.5 50.5q156 0 155 -203q0 -162 -97.5 -245t-265.5 -83l11 101
q98 0 145 41q42 27 60 86q-11 -11 -60 -11z" />
    <glyph glyph-name="dagger" unicode="&#x2020;" horiz-adv-x="995" 
d="M229 756l21 198h237l56 514h223l-55 -514h235l-20 -198h-236l-119 -1129h-223l119 1129h-238z" />
    <glyph glyph-name="daggerdbl" unicode="&#x2021;" horiz-adv-x="995" 
d="M150 0l20 193h238l59 569h-238l21 192h237l54 514h223l-53 -514h235l-20 -192h-236l-59 -569h235l-20 -193h-236l-39 -373h-223l39 373h-237z" />
    <glyph glyph-name="bullet" unicode="&#x2022;" horiz-adv-x="722" 
d="M447 879q100 0 160.5 -63.5t60.5 -162.5t-78.5 -175.5t-179.5 -76.5q-100 0 -161 62.5t-61 161.5t79.5 176.5t179.5 77.5z" />
    <glyph glyph-name="ellipsis" unicode="&#x2026;" horiz-adv-x="1976" 
d="M1592 258.5q54 54.5 124 54.5t112 -44t42 -94q0 -83 -54 -137t-124 -54t-112 44t-42 110t54 120.5zM838 123q0 86 54.5 139t123.5 53q70 0 111.5 -44t41.5 -94q0 -84 -53.5 -137.5t-123.5 -53.5t-112 44t-42 93zM191 262.5q54 54.5 124 54.5t112 -44t42 -94
q0 -81 -53.5 -136t-124.5 -55q-70 0 -112 44t-42 110t54 120.5z" />
    <glyph glyph-name="uni202F" unicode="&#x202f;" horiz-adv-x="403" 
 />
    <glyph glyph-name="perthousand" unicode="&#x2030;" horiz-adv-x="2654" 
d="M2200 135q54 0 91.5 38t43.5 91l26 260q6 53 -22.5 91t-84.5 38t-92 -41t-40 -88l-27 -260q-6 -53 22.5 -91t82.5 -38zM2479.5 722q74.5 -83 62.5 -198l-27 -260q-13 -120 -105 -200t-225.5 -80t-208 79.5t-61.5 200.5l27 260q12 118 102.5 199.5t225.5 81.5t209.5 -83z
M1492 135q54 0 91 38t43 91l27 260q6 53 -22.5 91t-84.5 38t-92.5 -41t-40.5 -88l-27 -260q-6 -53 23 -91t83 -38zM1771 721.5q74 -83.5 62 -197.5l-27 -260q-13 -120 -105 -200t-226 -80t-208 80.5t-61 199.5l27 260q12 118 102.5 199.5t226 81.5t209.5 -83.5zM548 780
q54 0 91 38t43 91l27 260q6 53 -23 91t-85 38t-92 -40.5t-40 -88.5l-27 -260q-6 -53 23 -91t83 -38zM420 -2l1057 1542l168 -102l-1057 -1542zM828 1367.5q73 -82.5 61 -198.5l-27 -260q-12 -118 -104 -199t-226.5 -81t-208 81t-61.5 199l27 260q12 116 103.5 198.5
t226.5 82.5q136 0 209 -82.5z" />
    <glyph glyph-name="guilsinglleft" unicode="&#x2039;" horiz-adv-x="565" 
d="M137 530l15 132l436 335l-23 -215l-243 -186l204 -186l-22 -215z" />
    <glyph glyph-name="guilsinglright" unicode="&#x203a;" horiz-adv-x="565" 
d="M102 195l23 215l244 186l-205 186l22 215l367 -335l-14 -132z" />
    <glyph glyph-name="fraction" unicode="&#x2044;" horiz-adv-x="458" 
d="M-307 -2l1057 1542l168 -102l-1057 -1542z" />
    <glyph glyph-name="uni205F" unicode="&#x205f;" horiz-adv-x="504" 
 />
    <glyph glyph-name="Euro" unicode="&#x20ac;" 
d="M1117 1330q122 -128 122 -320h-238q-4 100 -67.5 168.5t-177.5 68.5t-197.5 -85.5t-95.5 -207.5h426l-58 -166h-385l-14 -141h426l-59 -168h-385q-13 -124 52.5 -208.5t183.5 -84.5t202.5 84.5t97.5 208.5h236q-20 -204 -175.5 -354t-380.5 -150t-349 148t-103 356h-127
l60 168h86l14 141h-127l57 166h86q21 207 178 355.5t374 148.5q216 0 338 -128z" />
    <glyph glyph-name="afii61289" unicode="&#x2113;" horiz-adv-x="866" 
d="M760 1145q0 147 -80 147q-53 0 -89 -60.5t-46 -152.5l-37 -350q141 115 196.5 207t55.5 209zM644 168q62 0 128 18l-18 -186q-101 -42 -257.5 -21.5t-195.5 124.5t-27 237l-141 -98l-80 170l246 163l49 463q49 430 338 430q131 0 198.5 -86t67.5 -208q0 -212 -126.5 -373
t-344.5 -314l-16 -163q-11 -97 26 -123.5t64 -29.5t89 -3z" />
    <glyph glyph-name="afii61352" unicode="&#x2116;" horiz-adv-x="2217" 
d="M1638 1004q0 -64 47.5 -121.5t138.5 -57.5t155.5 72t64.5 161t-47 145.5t-137 56.5t-156 -70t-66 -186zM1413 1011q0 83 34 164.5t134 180t291 98.5t294 -106.5t103 -278.5t-133.5 -304t-323.5 -132q-191 0 -295 106t-104 272zM1348 395l20 199h850l-20 -199h-850zM150 0
l151 1434h258l459 -1020l108 1020h236l-152 -1434h-258l-460 1020l-107 -1020h-235z" />
    <glyph glyph-name="trademark" unicode="&#x2122;" horiz-adv-x="1673" 
d="M834 600l86 834h223l135 -566l252 566h211l-86 -834h-135l65 637l-287 -637h-96l-164 668l-69 -668h-135zM219 1311l12 123h549l-12 -123h-207l-74 -711h-137l74 711h-205z" />
    <glyph glyph-name="uni2126" unicode="&#x2126;" horiz-adv-x="1466" 
d="M174 740q0 154 51 280.5t144.5 223.5t224 155.5t280.5 58.5q280 0 435 -167.5t155 -395.5t-117.5 -399t-320.5 -250l-4 -35h338l-23 -211h-522l39 371q185 38 280 180.5t95 310.5t-93 276.5t-287 108.5t-315.5 -140.5t-121.5 -354.5t101 -289.5t177 -91.5l-39 -371h-522
l23 211h337l5 37q-156 66 -238 202t-82 290z" />
    <glyph glyph-name="estimated" unicode="&#x212e;" horiz-adv-x="1087" 
d="M641 934q-131 0 -240 -68l-34 -329h467l34 331q-96 66 -227 66zM542 -25q-195 0 -304 130t-109 344q0 215 143.5 372.5t368.5 157.5q187 0 301.5 -111t114.5 -286q0 -38 -13 -93h-684l-41 -395q95 -71 275 -71t263 94t104 143h47q-79 -197 -223.5 -241t-242.5 -44z" />
    <glyph glyph-name="arrowleft" unicode="&#x2190;" 
d="M-47 717l526 442l109 -133l-269 -219h1078l-21 -182h-1075l221 -217l-137 -134z" />
    <glyph glyph-name="arrowup" unicode="&#x2191;" 
d="M252 954l493 480l392 -480l-146 -123l-194 246l-113 -1077h-182l112 1073l-241 -242z" />
    <glyph glyph-name="arrowright" unicode="&#x2192;" 
d="M-57 627l18 182h1073l-219 217l137 133l434 -442l-526 -443l-108 134l268 219h-1077z" />
    <glyph glyph-name="arrowdown" unicode="&#x2193;" 
d="M203 479l145 123l195 -246l112 1078h183l-113 -1076l242 244l120 -123l-493 -479z" />
    <glyph glyph-name="uni2196" unicode="&#x2196;" 
d="M139 571l43 652l649 -25l-26 -182l-326 18l682 -760l-143 -129l-680 758l-16 -323z" />
    <glyph glyph-name="uni2197" unicode="&#x2197;" 
d="M84 274l838 760l-326 -18l10 182l656 25l-95 -652l-180 9l53 327l-841 -762z" />
    <glyph glyph-name="uni2198" unicode="&#x2198;" 
d="M176 1159l143 129l680 -758l15 324l184 8l-45 -651l-647 25l26 182l326 -19z" />
    <glyph glyph-name="uni2199" unicode="&#x2199;" 
d="M78 211l92 651l182 -8l-53 -328l840 762l116 -129l-837 -760l325 19l-12 -182z" />
    <glyph glyph-name="partialdiff" unicode="&#x2202;" 
d="M934 606q-101 101 -257 101t-236.5 -91t-80.5 -213q0 -158 90.5 -196.5t154.5 -38.5q135 0 218.5 99.5t110.5 338.5zM662 911q177 0 288 -102q17 372 -70 413.5t-150 41.5q-126 0 -199.5 -84.5t-88.5 -212.5h-235q25 218 172 359.5t369 141.5t322.5 -144.5t100.5 -492.5
q0 -456 -159.5 -662t-421.5 -206q-217 0 -333 123.5t-116 300.5q0 102 40 197.5t150.5 211t330.5 115.5z" />
    <glyph glyph-name="uni2206" unicode="&#x2206;" horiz-adv-x="1169" 
d="M354 211h506l-166 831zM6 0l647 1434h166l344 -1434h-1157z" />
    <glyph glyph-name="product" unicode="&#x220f;" horiz-adv-x="1361" 
d="M98 -479l199 1896h-143l22 209h1350l-23 -209h-143l-199 -1896h-235l198 1896h-592l-198 -1896h-236z" />
    <glyph glyph-name="summation" unicode="&#x2211;" 
d="M10 -479l23 219l821 844l-643 843l20 199h1063l-22 -209h-764l645 -803l-819 -864h764l-25 -229h-1063z" />
    <glyph glyph-name="minus" unicode="&#x2212;" 
d="M231 483l21 199h827l-20 -199h-828z" />
    <glyph glyph-name="radical" unicode="&#x221a;" horiz-adv-x="1400" 
d="M33 276l20 199h404l121 -563l741 1714h248l-949 -2105h-165l-183 755h-237z" />
    <glyph glyph-name="infinity" unicode="&#x221e;" horiz-adv-x="1705" 
d="M1264 377q109 0 173 70t64 161q0 90 -51 144.5t-128 54.5t-146.5 -50t-145.5 -165q55 -123 114.5 -169t119.5 -46zM799 592q-97 215 -233 215q-106 0 -171 -69.5t-65 -185.5q0 -64 49 -119.5t127 -55.5t147.5 49t145.5 166zM893 391q-186 -213 -396 -213
q-178 0 -279 109.5t-101 270.5q0 77 31.5 159t127 185.5t299.5 103.5q98 0 187.5 -45.5t173.5 -167.5q183 213 397 213q180 0 280.5 -107t100.5 -279t-128 -307t-331 -135q-106 0 -195 47t-167 166z" />
    <glyph glyph-name="integral" unicode="&#x222b;" horiz-adv-x="602" 
d="M91 -305q68 0 79 96l164 1559q22 216 108 246t159 30t130 -22l-20 -185q-50 13 -82 13q-66 0 -76 -97l-164 -1558q-22 -217 -108.5 -247t-164.5 -30t-124 23l18 184q49 -12 81 -12z" />
    <glyph glyph-name="approxequal" unicode="&#x2248;" 
d="M452 840q89 0 234 -66q61 -27 114.5 -50.5t108.5 -23.5q97 0 228 113l-21 -190q-101 -121 -244 -121q-59 0 -109 20t-98 46q-136 72 -222 73q-85 0 -139 -31.5t-114 -81.5l21 191q104 121 241 121zM876 381q99 0 228 113l-21 -191q-105 -121 -243 -121q-88 0 -211 68
q-47 25 -104.5 48.5t-128.5 23.5t-125 -32t-113 -81l20 190q101 121 214 121t218 -46q104 -46 157.5 -69.5t108.5 -23.5z" />
    <glyph glyph-name="notequal" unicode="&#x2260;" 
d="M215 322l21 198h249l66 121h-303l22 199h389l115 215h250l-115 -215h189l-23 -199h-274l-66 -121h328l-21 -198h-411l-115 -216h-250l115 216h-166z" />
    <glyph glyph-name="lessequal" unicode="&#x2264;" 
d="M264 801l17 157l858 287l-23 -205l-514 -159l481 -162l-22 -205zM180 0l21 199h827l-20 -199h-828z" />
    <glyph glyph-name="greaterequal" unicode="&#x2265;" 
d="M233 514l23 205l514 162l-481 159l22 205l797 -287l-16 -157zM180 0l21 199h827l-20 -199h-828z" />
    <glyph glyph-name="lozenge" unicode="&#x25ca;" horiz-adv-x="993" 
d="M326 811l194 -575l320 575l-195 575zM96 811l473 815h201l299 -815l-471 -811h-201z" />
    <glyph glyph-name="uniE000" unicode="&#xe000;" horiz-adv-x="952" 
d="M0 0v952h952v-952h-952z" />
    <glyph glyph-name="fi" unicode="&#xfb01;" horiz-adv-x="1347" 
d="M1020 1292q0 66 51 116t117 50t106.5 -42t40.5 -89q0 -84 -53 -133t-119 -49q-65 0 -104 40.5t-39 106.5zM930 0l100 954h223l-100 -954h-223zM626.5 1222.5q-40.5 -24.5 -53.5 -124.5l-14 -144h250l-21 -186h-249l-80 -768h-223l79 768h-194l20 186h195l12 119
q24 234 132.5 303.5t202.5 69.5t122.5 -7t52.5 -18l-20 -188q-54 14 -112 14q-59 0 -99.5 -24.5z" />
    <glyph glyph-name="fl" unicode="&#xfb02;" horiz-adv-x="1257" 
d="M885 0l149 1434h223l-149 -1434h-223zM626.5 1222.5q-40.5 -24.5 -53.5 -124.5l-14 -144h250l-21 -186h-249l-80 -768h-223l79 768h-194l20 186h195l12 119q24 234 132.5 303.5t202.5 69.5t122.5 -7t52.5 -18l-20 -188q-54 14 -112 14q-59 0 -99.5 -24.5z" />
    <glyph glyph-name="apple" horiz-adv-x="1482" 
d="M1192 828q0 -44 -34 -77.5t-79 -33.5t-71.5 26.5t-26.5 56.5q0 66 39 93q-79 -25 -115 -68q11 -37 31 -63q52 -67 147 -68q96 0 183 94q-30 85 -99 109q25 -25 25 -69zM775 168q105 0 164.5 32.5t85.5 71.5t25.5 72t-10.5 33t-36.5 8t-30.5 10q33 47 33 75q0 50 -13 83
t-32 33q-10 0 -19.5 -8.5t-9.5 -19.5q0 -12 9 -22t9 -50t-22 -72q-31 16 -60.5 30.5t-76.5 14.5t-81 -14.5t-69 -30.5q-8 18 -8 60q1 42 19 60t18 27q0 25 -26 25t-46 -48t-20 -85t10 -58q-45 -18 -96 -18q8 -114 93 -161.5t190 -47.5zM385 788q63 -94 176 -94q85 0 146 66
q27 29 45 65q-40 56 -109 78q33 -28 33 -76q0 -47 -35 -78.5t-79 -31.5t-70.5 26.5t-26.5 73.5t31 72q-50 -16 -76 -48t-35 -53zM184 500q-34 0 -34 125t23.5 177t38.5 52t30 -23.5t22 -23.5q2 0 9.5 46t46 176t177 267.5t398.5 137.5t368 -139t120 -267.5t9 -174.5t0 -46
q7 0 24 23.5t32 23.5q29 0 29 -124t-26 -177t-46 -53t-33 26q-100 -410 -332 -468t-332 -58t-163.5 12.5t-149 95t-174.5 422.5q-15 -30 -37 -30z" />
    <glyph glyph-name="commaaccent" horiz-adv-x="512" 
d="M242 10q-41 0 -72 35t-31 89t43.5 97t103.5 43t96 -40.5t36 -131.5q0 -129 -81 -200.5t-224 -71.5l8 84q80 0 121 30t51 76q-10 -10 -51 -10z" />
    <glyph glyph-name="commaturn" horiz-adv-x="512" 
d="M266 1352q0 135 82 204.5t223 69.5l-10 -84q-78 0 -119 -30t-51 -76q10 10 51 10t72 -35t31 -89t-44.5 -97t-104.5 -43t-95 41t-35 129z" />
    </font>
</defs>
</svg>
