<?xml version="1.0" standalone="no"?>
<!DOCTYPE svg PUBLIC "-//W3C//DTD SVG 1.1//EN" "http://www.w3.org/Graphics/SVG/1.1/DTD/svg11.dtd" >
<svg xmlns="http://www.w3.org/2000/svg">
<metadata>
Created by FontPrep 20130207 at Thu Jun 16 10:37:41 2016
 By Nick Villapiano
Copyright (c) 2011 by Grilli Type. All rights reserved.
</metadata>
<defs>
<font id="9f3f763d9ebf9cb4747330c4dba3d3e0" horiz-adv-x='1024' >
  <font-face 
    font-family="GTWalsheim-LightOblique"
    font-weight="300"
    font-style="oblique"
    font-stretch="normal"
    units-per-em="2048"
    panose-1="2 0 5 3 2 0 0 2 0 3"
    ascent="1612"
    descent="-436"
    x-height="907"
    cap-height="1434"
    bbox="-287 -549 2494.35 2032"
    underline-thickness="102"
    underline-position="-102"
    unicode-range="U+000D-FB02"
  />
<missing-glyph horiz-adv-x="1482" 
d="M934 762q52 -68 147 -68q96 0 183 94q-30 86 -97 109q23 -27 23 -72t-34 -77t-79 -31t-71 27t-27 54q0 63 39 95q-79 -25 -115 -68q11 -37 31 -63zM773 168q105 0 163 30t85 70q26 39 27 72t-12 37q-4 2 -17 4t-46 14q31 46 31 74q0 50 -13 84q-13 33 -33 33q-8 0 -18 -6
t-10 -19q0 -12 10 -24t10 -51q0 -40 -22 -72q-33 16 -63 30t-77 15q-46 -1 -80 -15t-67 -30q-8 16 -8 59q-1 43 17 59t18 29q0 25 -23 25q-41 0 -65 -96q-6 -22 -5 -48q0 -25 13 -47q-52 -18 -99 -18q9 -113 123 -177q56 -32 161 -32zM383 788q63 -94 176 -94q85 0 146 66
q27 29 45 65q-30 53 -109 78q33 -28 33 -76q0 -47 -35 -79t-77 -31t-70 25t-27 73q0 49 29 74q-50 -16 -76 -48t-35 -53zM182 500q-35 0 -35 122q-1 122 35 204q12 28 27 28q14 0 30 -24t23 -23q2 0 10 46q8 45 27 115q54 188 170 304q164 162 424 162t386 -162
q89 -116 107 -304q6 -70 4 -115q-4 -46 0 -46q7 -1 24 23q17 23 34 24q29 0 29 -86q-1 -86 -13 -148q-24 -120 -59 -120q-19 0 -33 28q-104 -304 -282 -428q-143 -100 -327 -100t-281 56q-96 56 -152 136q-56 82 -78 174t-31 164q-15 -30 -39 -30z" />
    <glyph glyph-name=".notdef" horiz-adv-x="1482" 
d="M934 762q52 -68 147 -68q96 0 183 94q-30 86 -97 109q23 -27 23 -72t-34 -77t-79 -31t-71 27t-27 54q0 63 39 95q-79 -25 -115 -68q11 -37 31 -63zM773 168q105 0 163 30t85 70q26 39 27 72t-12 37q-4 2 -17 4t-46 14q31 46 31 74q0 50 -13 84q-13 33 -33 33q-8 0 -18 -6
t-10 -19q0 -12 10 -24t10 -51q0 -40 -22 -72q-33 16 -63 30t-77 15q-46 -1 -80 -15t-67 -30q-8 16 -8 59q-1 43 17 59t18 29q0 25 -23 25q-41 0 -65 -96q-6 -22 -5 -48q0 -25 13 -47q-52 -18 -99 -18q9 -113 123 -177q56 -32 161 -32zM383 788q63 -94 176 -94q85 0 146 66
q27 29 45 65q-30 53 -109 78q33 -28 33 -76q0 -47 -35 -79t-77 -31t-70 25t-27 73q0 49 29 74q-50 -16 -76 -48t-35 -53zM182 500q-35 0 -35 122q-1 122 35 204q12 28 27 28q14 0 30 -24t23 -23q2 0 10 46q8 45 27 115q54 188 170 304q164 162 424 162t386 -162
q89 -116 107 -304q6 -70 4 -115q-4 -46 0 -46q7 -1 24 23q17 23 34 24q29 0 29 -86q-1 -86 -13 -148q-24 -120 -59 -120q-19 0 -33 28q-104 -304 -282 -428q-143 -100 -327 -100t-281 56q-96 56 -152 136q-56 82 -78 174t-31 164q-15 -30 -39 -30z" />
    <glyph glyph-name=".null" horiz-adv-x="0" 
 />
    <glyph glyph-name=".null" horiz-adv-x="0" 
 />
    <glyph glyph-name="nonmarkingreturn" unicode="&#xd;" horiz-adv-x="512" 
 />
    <glyph glyph-name="space" unicode=" " horiz-adv-x="522" 
 />
    <glyph glyph-name="exclam" unicode="!" horiz-adv-x="579" 
d="M262 416l111 1036h141l-111 -1036h-141zM174 97q0 52 42 93t95 41t85 -33.5t32 -85.5t-42 -93.5t-95 -41.5t-85 34t-32 86z" />
    <glyph glyph-name="quotedbl" unicode="&#x22;" horiz-adv-x="653" 
d="M532 954l9 326l18 188h125l-18 -188l-62 -326h-72zM250 954l8 326l18 188h127l-18 -188l-61 -326h-74z" />
    <glyph glyph-name="numbersign" unicode="#" horiz-adv-x="1128" 
d="M451 545h309l84 344h-309zM106 438l11 107h223l84 344h-209l12 106h224l106 439h111l-105 -439h307l107 439h110l-104 -439h191l-13 -106h-207l-84 -344h193l-10 -107h-207l-107 -438h-110l104 438h-307l-107 -438h-110l104 438h-207z" />
    <glyph glyph-name="dollar" unicode="$" horiz-adv-x="1247" 
d="M1018 399q0 166 -116 206t-186 61t-242.5 79.5t-172.5 297.5q0 170 110.5 281.5t315.5 133.5l21 211h124l-20 -209q173 -20 265.5 -133t76.5 -293h-139q10 145 -61.5 225t-219.5 80q-223 0 -278.5 -104.5t-55.5 -169.5t22.5 -106t62.5 -70t94.5 -47t126.5 -40t242.5 -81
t170.5 -305q0 -189 -131.5 -308.5t-333.5 -134.5l-20 -209h-125l20 209q-195 16 -300 145.5t-85 325.5h138q-16 -158 72.5 -253t254.5 -95t267.5 82t101.5 221z" />
    <glyph glyph-name="percent" unicode="%" horiz-adv-x="1802" 
d="M1411 80q76 0 125 51t57 121l31 287q8 70 -32 120t-116 50t-124.5 -50.5t-57.5 -119.5l-30 -287q-8 -70 31.5 -121t115.5 -51zM1486 805q123 0 192 -78.5t57 -187.5l-31 -295q-12 -110 -96.5 -185t-207.5 -75t-192 78t-57 190l33 295q20 169 129 213.5t173 44.5zM410 -4
l1058 1544l99 -61l-1057 -1545zM473 723q76 0 125 51t57 121l31 287q8 70 -32 120t-116 50t-124.5 -50.5t-57.5 -119.5l-30 -287q-8 -70 31.5 -121t115.5 -51zM548 1448q123 0 192 -78.5t57 -187.5l-31 -295q-12 -110 -96.5 -185t-207.5 -75t-192 78t-57 190l33 295
q20 169 129 213.5t173 44.5z" />
    <glyph glyph-name="ampersand" unicode="&#x26;" horiz-adv-x="1226" 
d="M242 1036q0 183 137.5 301.5t340 118.5t310.5 -115.5t92 -296.5h-139q12 129 -57.5 207t-217.5 78t-238.5 -77.5t-90.5 -193.5q0 -115 66.5 -183t213.5 -68h60l-12 -125h-60q-171 0 -268.5 -89t-97.5 -216t80.5 -200t234.5 -73t249.5 104t112.5 271h-188l14 125h463
l-14 -125h-135q-24 -222 -164 -362t-343 -140t-326.5 105t-123.5 268q0 162 88 258.5t230 134.5q-217 69 -217 293z" />
    <glyph glyph-name="quotesingle" unicode="'" horiz-adv-x="372" 
d="M250 954l8 326l18 188h127l-18 -188l-61 -326h-74z" />
    <glyph glyph-name="parenleft" unicode="(" horiz-adv-x="708" 
d="M201 -16l123 1169q21 197 168.5 336t357.5 139l-14 -127q-150 0 -253 -100t-120 -248l-123 -1169q-16 -143 66.5 -246t232.5 -103l-12 -127q-211 0 -329.5 141t-96.5 335z" />
    <glyph glyph-name="parenright" unicode=")" horiz-adv-x="708" 
d="M-20 -492l14 127q151 0 252 101t119 248l122 1169q17 145 -66 246.5t-233 101.5l15 127q210 0 327.5 -138.5t96.5 -336.5l-123 -1169q-21 -197 -167.5 -336.5t-356.5 -139.5z" />
    <glyph glyph-name="asterisk" unicode="*" horiz-adv-x="929" 
d="M203 1157l39 88l299 -104l34 327h93l-39 -327l321 104l19 -88l-322 -100l166 -262l-80 -56l-162 267l-219 -267l-69 56l223 262z" />
    <glyph glyph-name="plus" unicode="+" 
d="M236 522l12 121h338l37 344h131l-37 -344h338l-13 -121h-337l-37 -342h-131l36 342h-337z" />
    <glyph glyph-name="comma" unicode="," horiz-adv-x="512" 
d="M226 -10q-42 0 -71.5 31.5t-29.5 81.5t40 90t98 40t99 -41.5t41 -164.5t-82.5 -194t-218.5 -71l9 72q111 0 153 86q23 48 23 88q-19 -18 -61 -18z" />
    <glyph glyph-name="hyphen" unicode="-" horiz-adv-x="602" 
d="M117 524l12 119h479l-12 -119h-479z" />
    <glyph glyph-name="period" unicode="." horiz-adv-x="468" 
d="M123 105q0 50 41 90.5t92 40.5t82 -33t31 -83t-40 -90t-91 -40t-83 32.5t-32 82.5z" />
    <glyph glyph-name="slash" unicode="/" horiz-adv-x="858" 
d="M10 -96l928 1732l115 -53l-928 -1733z" />
    <glyph glyph-name="zero" unicode="0" horiz-adv-x="1183" 
d="M856.5 202.5q104.5 102.5 120.5 246.5l57 536q17 146 -67.5 247t-235.5 101t-252.5 -99.5t-120.5 -248.5l-57 -536q-16 -144 67.5 -246.5t233.5 -102.5t254.5 102.5zM1076 1320.5q118 -139.5 98 -335.5l-58 -536q-21 -197 -166.5 -336.5t-359.5 -139.5q-213 0 -330.5 140
t-97.5 336l57 536q20 196 167 335.5t359 139.5q213 0 331 -139.5z" />
    <glyph glyph-name="one" unicode="1" horiz-adv-x="663" 
d="M182 1083l13 113q177 0 242 51.5t77 186.5h131l-151 -1434h-142l115 1083h-285z" />
    <glyph glyph-name="two" unicode="2" horiz-adv-x="1077" 
d="M961 1068q1 261 -277 261q-138 0 -232 -87t-110 -234h-139q20 199 161 323.5t332 124.5t297.5 -95t106.5 -283t-116 -285t-192.5 -132.5t-158.5 -72.5q-190 -86 -266.5 -177.5t-98.5 -283.5h738l-15 -127h-893q34 325 147 466t331 233q88 37 236.5 106t148.5 263z" />
    <glyph glyph-name="three" unicode="3" horiz-adv-x="1124" 
d="M958 1087q0 242 -284 242q-140 0 -224.5 -77.5t-99.5 -207.5h-137q16 181 148.5 296.5t323.5 115.5t302 -96.5t111 -239.5t-75 -243.5t-212 -133.5q113 -27 178.5 -108t65.5 -193q0 -207 -148.5 -336t-361.5 -129t-333 123.5t-99 325.5h139q-16 -146 71 -234t240 -88
q154 0 254.5 92t100.5 216q0 125 -74 197.5t-226 72.5h-108l14 125h109q154 0 239.5 79t85.5 201z" />
    <glyph glyph-name="four" unicode="4" horiz-adv-x="1118" 
d="M195 492l98 942h139l-84 -816h406l47 453h139l-47 -453h233l-14 -126h-233l-52 -492h-139l51 492h-544z" />
    <glyph glyph-name="five" unicode="5" horiz-adv-x="1208" 
d="M901 217.5q107 113.5 107 259.5t-83 233t-227 87q-207 0 -315 -187h-143l86 824h817l-13 -125h-692l-59 -564q55 88 153.5 132.5t201.5 44.5q193 0 303 -120.5t110 -299.5q0 -214 -150 -369.5t-372 -155.5q-221 0 -338.5 138.5t-96.5 337.5h138q-16 -145 67 -247
t241 -102t265 113.5z" />
    <glyph glyph-name="six" unicode="6" horiz-adv-x="1112" 
d="M342 194.5q82 -90.5 233 -90.5q150 0 257.5 113t107.5 259t-84 236.5t-234 90.5t-256 -113.5t-106 -258.5q0 -146 82 -236.5zM653 928q195 0 311.5 -125t116.5 -322q0 -196 -152 -350t-362 -154t-328 124.5t-118 296.5t110 327l517 709h161l-413 -553q55 47 157 47z" />
    <glyph glyph-name="seven" unicode="7" horiz-adv-x="929" 
d="M129 0l750 1309h-664l14 125h863l-816 -1434h-147z" />
    <glyph glyph-name="eight" unicode="8" horiz-adv-x="1169" 
d="M463 863.5q72 -68.5 213 -68.5t234.5 83t93.5 198q0 116 -73 184.5t-214 68.5t-233.5 -83.5t-92.5 -198.5t72 -183.5zM371 178q80 -74 233 -74t255 91.5t102 224.5q0 177 -115 218.5t-195 41.5q-157 0 -258.5 -89t-101.5 -214t80 -199zM234.5 603q82.5 111 224.5 142
q-109 31 -158 111t-49 172q0 183 135.5 305.5t336.5 122.5t310 -99.5t109 -256.5q0 -119 -68.5 -218.5t-208.5 -136.5q119 -29 176.5 -117t57.5 -190q0 -196 -145 -328.5t-359 -132.5t-329 106.5t-115 257.5t82.5 262z" />
    <glyph glyph-name="nine" unicode="9" horiz-adv-x="1112" 
d="M405 722q83 -89 235 -89t256.5 114t104.5 258t-79.5 234t-232.5 90q-152 0 -259.5 -113t-107.5 -259t83 -235zM618 506q-197 0 -316.5 123t-119.5 321t152 352t362 154t328.5 -124.5t118.5 -297.5t-111 -323l-518 -711h-160l412 553q-48 -47 -148 -47z" />
    <glyph glyph-name="colon" unicode=":" horiz-adv-x="468" 
d="M197 799q0 51 41 91t91 40t81.5 -33t31.5 -83t-41 -89t-92 -39t-81.5 31t-30.5 82zM123 104q0 51 41 90t92 39t82 -31.5t31 -82.5t-40.5 -90t-92.5 -39t-82.5 31.5t-30.5 82.5z" />
    <glyph glyph-name="semicolon" unicode=";" horiz-adv-x="481" 
d="M197 801q0 51 41 90t92 39t81.5 -32t30.5 -83t-41 -90t-92 -39t-81.5 32t-30.5 83zM226 -10q-42 0 -71.5 31.5t-29.5 81.5t40 90t98 40t99 -41.5t41 -164.5t-82.5 -194t-218.5 -71l9 72q111 0 153 86q23 48 23 88q-19 -18 -61 -18z" />
    <glyph glyph-name="less" unicode="&#x3c;" 
d="M119 532l10 99l1077 379l-12 -127l-875 -301l811 -301l-14 -129z" />
    <glyph glyph-name="equal" unicode="=" 
d="M244 692l12 121h827l-12 -121h-827zM207 350l12 119h828l-13 -119h-827z" />
    <glyph glyph-name="greater" unicode="&#x3e;" 
d="M82 152l14 129l875 301l-811 301l12 127l999 -379l-10 -99z" />
    <glyph glyph-name="question" unicode="?" horiz-adv-x="1017" 
d="M342 97q0 52 42 93t95 41t85 -33.5t32 -85.5t-42 -93.5t-95 -41.5t-85 34t-32 86zM909 1093q-1 240 -277 240q-136 0 -230.5 -87t-110.5 -234h-139q20 197 158 322.5t333 125.5q194 0 300 -93t106 -259q0 -211 -116 -293.5t-161 -110.5q-111 -68 -151.5 -127.5
t-55.5 -191.5h-133q22 220 103 286.5t121 90.5t80 49t106.5 92.5t66.5 189.5z" />
    <glyph glyph-name="at" unicode="@" horiz-adv-x="1798" 
d="M679 186.5q77 -82.5 212 -82.5t235.5 103.5t100.5 234.5t-75.5 215t-213.5 84q-137 0 -236.5 -101.5t-99.5 -236.5q0 -134 77 -216.5zM930 -406q-402 0 -611.5 218t-209.5 536q0 156 54 317.5t170 293t297 215t435 83.5q526 0 624.5 -266t98.5 -426q0 -304 -99.5 -484.5
t-291.5 -180.5q-158 0 -175.5 93t-23.5 132l-1 16q-1 16 3 56q-53 -92 -142.5 -143.5t-187.5 -51.5q-177 0 -279 111.5t-102 283.5t135 309.5t322 137.5q115 0 193 -52.5t110 -142.5l19 176h112l-65 -622q-10 -104 25.5 -151.5t91.5 -47.5q110 0 175.5 154.5t65.5 345.5
q0 348 -164 498.5t-460 150.5q-225 0 -382 -74.5t-256.5 -191.5t-144.5 -257.5t-45 -346t184.5 -395t522.5 -189.5t598 137l45 -90q-218 -117 -399 -134.5t-242 -17.5z" />
    <glyph glyph-name="A" unicode="A" horiz-adv-x="1118" 
d="M330 383h540l-184 831zM14 0l645 1434h105l342 -1434h-145l-62 258h-627l-112 -258h-146z" />
    <glyph glyph-name="B" unicode="B" horiz-adv-x="1193" 
d="M748 784q134 0 215 87.5t81 199.5q0 154 -92 196t-155 42h-351l-55 -525h357zM680 127q138 0 221.5 88t83.5 192t-63.5 178t-178.5 74h-364l-55 -532h356zM811 1434q190 0 281.5 -104t91.5 -247t-85.5 -241.5t-197.5 -120.5q147 -36 185 -136.5t38 -164.5t-26.5 -138.5
t-117.5 -178t-314 -103.5h-496l152 1434h489z" />
    <glyph glyph-name="C" unicode="C" horiz-adv-x="1587" 
d="M160 656q0 148 57 295t162.5 260.5t257 183t314.5 69.5q298 0 463.5 -140.5t187.5 -371.5h-144q-21 171 -149 279t-338 108q-154 0 -278 -57t-211 -152.5t-134 -218.5t-47 -245q0 -245 148.5 -407.5t400.5 -162.5q191 0 335.5 94.5t209.5 231.5h151q-79 -195 -272 -324
t-443 -129q-307 0 -489 195t-182 492z" />
    <glyph glyph-name="D" unicode="D" horiz-adv-x="1421" 
d="M604 127q294 0 434 146.5t186 261.5t46 227q0 230 -144.5 388.5t-398.5 158.5h-281l-122 -1182h280zM741 1434q311 0 491.5 -191t180.5 -461q0 -145 -57.5 -285.5t-164 -251t-259 -178t-342.5 -67.5h-420l152 1434h419z" />
    <glyph glyph-name="E" unicode="E" horiz-adv-x="1112" 
d="M170 0l152 1434h782l-14 -125h-644l-55 -533h643l-14 -127h-643l-53 -522h643l-15 -127h-782z" />
    <glyph glyph-name="F" unicode="F" horiz-adv-x="1101" 
d="M170 0l152 1434h782l-14 -125h-644l-59 -570h643l-12 -125h-643l-66 -614h-139z" />
    <glyph glyph-name="G" unicode="G" horiz-adv-x="1705" 
d="M158 652q0 146 59 295t165.5 264.5t256 184t300.5 68.5q264 0 416.5 -115.5t168.5 -285.5h-142q-26 121 -138 198.5t-273 77.5q-160 0 -282 -58t-208 -153.5t-134 -220.5t-48 -245q0 -242 142 -404t407 -162q223 0 367 119.5t192 321.5h-403l14 127h700l-14 -127h-152
q-60 -259 -251 -413.5t-472 -154.5q-318 0 -494.5 193.5t-176.5 489.5z" />
    <glyph glyph-name="H" unicode="H" horiz-adv-x="1357" 
d="M170 0l152 1434h139l-70 -658h739l70 658h139l-151 -1434h-139l67 649h-739l-68 -649h-139z" />
    <glyph glyph-name="I" unicode="I" horiz-adv-x="483" 
d="M170 0l152 1434h143l-152 -1434h-143z" />
    <glyph glyph-name="J" unicode="J" horiz-adv-x="1097" 
d="M214 382q0 -111 76.5 -198.5t218.5 -87.5t235.5 93.5t109.5 252.5l104 992h140l-105 -992q-20 -209 -158 -341t-341 -132t-289 97.5t-108 173.5t-22 125q0 50 3 79h139q-3 -24 -3 -62z" />
    <glyph glyph-name="K" unicode="K" horiz-adv-x="1173" 
d="M170 0l152 1434h139l-72 -674l741 674h179l-783 -717l631 -717h-178l-598 674l-72 -674h-139z" />
    <glyph glyph-name="L" unicode="L" horiz-adv-x="864" 
d="M170 0l152 1434h139l-137 -1307h493l-14 -127h-633z" />
    <glyph glyph-name="M" unicode="M" horiz-adv-x="1658" 
d="M170 0l152 1434h135l395 -1225l655 1225h133l-151 -1434h-137l116 1112l-583 -1112h-111l-348 1112l-117 -1112h-139z" />
    <glyph glyph-name="N" unicode="N" horiz-adv-x="1355" 
d="M170 0l152 1434h153l596 -1194l127 1194h139l-151 -1434h-154l-598 1196l-125 -1196h-139z" />
    <glyph glyph-name="O" unicode="O" horiz-adv-x="1650" 
d="M305 665q0 -240 142.5 -404.5t392.5 -164.5q145 0 267 57.5t209 152.5t135 219t48 244q0 244 -143 407t-393 163q-145 0 -266.5 -58t-208.5 -153.5t-135 -218.5t-48 -244zM160 656q0 144 59.5 293t166 262.5t256 183t321.5 69.5q325 0 502 -199t177 -477q0 -158 -59 -305
t-165.5 -260.5t-257.5 -183.5t-323 -70t-296.5 55.5t-208.5 149.5t-128 216t-44 266z" />
    <glyph glyph-name="P" unicode="P" horiz-adv-x="1220" 
d="M727 610q163 0 271 111.5t108 258.5t-84.5 238t-220.5 91h-355l-73 -699h354zM815 1434q194 0 313 -123t119 -320t-151.5 -351.5t-380.5 -154.5h-355l-51 -485h-139l152 1434h493z" />
    <glyph glyph-name="Q" unicode="Q" horiz-adv-x="1650" 
d="M305 665q0 -240 142.5 -404.5t392.5 -164.5q145 0 267 57.5t209 152.5t135 219t48 244q0 244 -143 407t-393 163q-145 0 -266.5 -58t-208.5 -153.5t-135 -218.5t-48 -244zM160 645q0 156 59.5 304.5t167 262t257 183t321.5 69.5q322 0 499.5 -197.5t177.5 -488.5
t-140 -455.5t-263 -236.5t-264 -96l110 -183q-111 -53 -129 -61l-135 223q-302 0 -481.5 196.5t-179.5 479.5z" />
    <glyph glyph-name="R" unicode="R" horiz-adv-x="1232" 
d="M727 610q163 0 271 111.5t108 258.5t-84.5 238t-220.5 91h-355l-73 -699h354zM815 1434q194 0 313 -123t119 -303t-107 -317t-280 -185l268 -506h-159l-256 485h-353l-51 -485h-139l152 1434h493z" />
    <glyph glyph-name="S" unicode="S" horiz-adv-x="1171" 
d="M355.5 806.5q-93.5 65.5 -93.5 247.5t139.5 296t343.5 114t307 -105t103 -274q0 -25 -2 -51h-137q1 18 1 35q1 125 -67 198t-215 72q-227 0 -280.5 -105.5t-53.5 -169.5t24 -105t63.5 -70t93.5 -47t124 -40t241 -83t171 -303q0 -204 -148.5 -325.5t-372.5 -121.5
t-341 121t-117 290q0 31 4 64h140q-2 -24 -3 -47q0 -125 81 -213t249 -88t268.5 81t100.5 210t-72 180t-189 86q-116 34 -192.5 61t-170 92.5z" />
    <glyph glyph-name="T" unicode="T" horiz-adv-x="970" 
d="M166 1309l12 125h914l-13 -125h-389l-137 -1309h-137l137 1309h-387z" />
    <glyph glyph-name="U" unicode="U" horiz-adv-x="1265" 
d="M900.5 198.5q106.5 102.5 123.5 252.5l102 983h140l-103 -983q-21 -202 -169.5 -342t-362.5 -140t-325.5 130t-111.5 294q0 29 3 58l102 983h139l-102 -983q-9 -67 9 -134q17 -67 81 -144t216 -77t258.5 102.5z" />
    <glyph glyph-name="V" unicode="V" horiz-adv-x="1140" 
d="M162 1434h145l289 -1211l541 1211h145l-659 -1434h-105z" />
    <glyph glyph-name="W" unicode="W" horiz-adv-x="1935" 
d="M164 1434h145l264 -1201l492 1201h109l237 -1201l518 1201h146l-637 -1434h-107l-235 1198l-492 -1198h-106z" />
    <glyph glyph-name="X" unicode="X" horiz-adv-x="1093" 
d="M23 0l522 717l-371 717h158l303 -598l432 598h156l-523 -717l371 -717h-156l-305 596l-430 -596h-157z" />
    <glyph glyph-name="Y" unicode="Y" horiz-adv-x="1157" 
d="M170 1434h160l381 -723l448 723h152l-883 -1434h-154l353 567z" />
    <glyph glyph-name="Z" unicode="Z" horiz-adv-x="1130" 
d="M33 0l985 1309h-805l14 125h1041l-987 -1307h868l-14 -127h-1102z" />
    <glyph glyph-name="bracketleft" unicode="[" horiz-adv-x="645" 
d="M119 -479l221 2107h393l-12 -121h-260l-197 -1867h260l-12 -119h-393z" />
    <glyph glyph-name="backslash" unicode="\" horiz-adv-x="858" 
d="M145 1583l129 53l564 -1732l-127 -54z" />
    <glyph glyph-name="bracketright" unicode="]" horiz-adv-x="645" 
d="M31 -479l12 119h262l197 1867h-262l12 121h393l-221 -2107h-393z" />
    <glyph glyph-name="asciicircum" unicode="^" horiz-adv-x="1286" 
d="M193 662l561 874h98l381 -874h-150l-299 710l-446 -710h-145z" />
    <glyph glyph-name="underscore" unicode="_" horiz-adv-x="1146" 
d="M41 -201l10 99h1024l-10 -99h-1024z" />
    <glyph glyph-name="grave" unicode="`" horiz-adv-x="854" 
d="M268 1384l74 107l481 -281l-73 -106z" />
    <glyph glyph-name="a" unicode="a" horiz-adv-x="1212" 
d="M350 190.5q84 -92.5 237 -92.5t262 113.5t109 275.5q0 218 -117.5 270t-196.5 52t-148.5 -32t-149.5 -115t-80 -231t84 -240.5zM133 418q0 96 40 189t150 207t324 114q123 0 212 -56.5t126 -158.5l21 194h133l-97 -907h-133l21 193q-53 -92 -150.5 -154t-211.5 -62
t-190.5 35t-130.5 93.5t-84 137.5t-30 175z" />
    <glyph glyph-name="b" unicode="b" horiz-adv-x="1214" 
d="M432.5 189q84.5 -91 239.5 -91q154 0 261 115.5t107 263.5q0 147 -83 239.5t-235 92.5t-263 -115t-111 -265q0 -149 84.5 -240zM746 928q200 0 315 -125t115 -320t-151 -350.5t-363 -155.5q-135 0 -219.5 61.5t-118.5 154.5l-21 -193h-133l152 1434h133l-76 -721
q57 100 158 157.5t209 57.5z" />
    <glyph glyph-name="c" unicode="c" horiz-adv-x="1073" 
d="M141 411q0 92 34 186.5t137.5 213.5t340.5 119q196 0 297 -115q82 -95 82 -228v-12h-131q0 102 -63.5 168t-175.5 66q-194 0 -292 -115.5t-98 -279.5q0 -214 111 -265t212 -51t176 58.5t103 154.5h134q-37 -146 -155.5 -240t-308.5 -94t-296.5 123t-106.5 311z" />
    <glyph glyph-name="d" unicode="d" horiz-adv-x="1212" 
d="M350 190.5q84 -92.5 237 -92.5t262 113.5t109 275.5q0 218 -117.5 270t-196.5 52t-148.5 -32t-149.5 -115t-80 -231t84 -240.5zM133 418q0 96 40 189t150 207t324 114q123 0 212 -56.5t126 -158.5l76 721h133l-152 -1434h-133l21 193q-53 -92 -150.5 -154t-211.5 -62
t-190.5 35t-130.5 93.5t-84 137.5t-30 175z" />
    <glyph glyph-name="e" unicode="e" horiz-adv-x="1062" 
d="M619 815q-130 0 -220 -78t-112 -209h600q7 57 -10 113q-17 57 -72.5 115.5t-185.5 58.5zM1018 562q0 -71 -19 -136h-725q-2 -21 -2 -54q0 -103 64 -191.5t219 -88.5q117 0 186.5 50.5t102.5 117.5h133q-38 -116 -155 -199.5t-279 -83.5q-198 0 -300 122.5t-102 324.5
q0 201 136.5 352.5t349.5 151.5q175 0 283 -105t108 -261z" />
    <glyph glyph-name="f" unicode="f" horiz-adv-x="686" 
d="M569 1288q-51 -39 -65 -166l-23 -215h283l-12 -114h-283l-84 -793h-133l84 793h-205l12 114h205l21 203q21 205 113 270.5t192 65.5q101 0 143 -23l-12 -114q-41 18 -113 18t-123 -39z" />
    <glyph glyph-name="g" unicode="g" horiz-adv-x="1208" 
d="M352 190.5q84 -92.5 236 -92.5t262.5 115t110.5 265t-84 240.5t-239 90.5t-262.5 -116t-107.5 -263t84 -239.5zM221 -131v-35q0 -103 65 -182.5t229 -79.5q165 0 266.5 83t121.5 273l29 267q-53 -92 -151.5 -155t-210.5 -63q-201 0 -319 125.5t-118 319.5
q0 195 150 350.5t366 155.5q133 0 217 -60.5t119 -152.5l21 192h133l-103 -979q-52 -477 -522 -477q-234 0 -312.5 89.5t-96.5 159.5t-18 112t1 57h133z" />
    <glyph glyph-name="h" unicode="h" horiz-adv-x="1150" 
d="M750 928q177 0 256 -113q56 -80 53 -200q0 -39 -4 -83l-56 -532h-133l52 494q2 28 2 60q0 104 -49 179.5t-188 75.5t-228.5 -105.5t-102.5 -238.5l-49 -465h-133l152 1434h133l-78 -725q49 92 143 155.5t230 63.5z" />
    <glyph glyph-name="i" unicode="i" horiz-adv-x="518" 
d="M268 1255q0 51 41 90t92 39t82 -31.5t31 -82.5t-40 -90t-91 -39t-83 31.5t-32 82.5zM193 0l96 907h133l-96 -907h-133z" />
    <glyph glyph-name="j" unicode="j" horiz-adv-x="520" 
d="M274 1255q0 51 40 90t90 39t83 -31.5t33 -82.5t-42 -90t-92 -39t-81 31.5t-31 82.5zM29 -426q123 0 139 156l123 1177h133l-125 -1183q-30 -267 -244 -267q-77 0 -133 25l12 115q53 -23 95 -23z" />
    <glyph glyph-name="k" unicode="k" horiz-adv-x="931" 
d="M170 0l152 1434h133l-101 -953l471 426h174l-499 -454l403 -453h-174l-381 424l-45 -424h-133z" />
    <glyph glyph-name="l" unicode="l" horiz-adv-x="473" 
d="M170 0l152 1434h133l-152 -1434h-133z" />
    <glyph glyph-name="m" unicode="m" horiz-adv-x="1662" 
d="M831 581q0 228 -184 228q-123 0 -200.5 -96.5t-94.5 -251.5l-49 -461h-133l96 907h133l-22 -198q55 147 155.5 183t163.5 36q113 0 181.5 -58.5t78.5 -167.5q68 154 170.5 190t169.5 36q145 0 217 -92q58 -73 58 -199q0 -32 -4 -66l-60 -571h-131l56 535q3 30 3 57
q1 100 -46 159t-142 58q-123 0 -199.5 -95.5t-93.5 -252.5l-49 -461h-131l53 510q4 38 4 71z" />
    <glyph glyph-name="n" unicode="n" horiz-adv-x="1150" 
d="M750 928q177 0 256 -113q56 -80 53 -200q0 -39 -4 -83l-56 -532h-133l52 494q2 28 2 60q0 104 -49 179.5t-188 75.5t-228.5 -105.5t-102.5 -238.5l-49 -465h-133l96 907h133l-22 -198q49 92 143 155.5t230 63.5z" />
    <glyph glyph-name="o" unicode="o" horiz-adv-x="1130" 
d="M350 190.5q84 -92.5 238 -92.5t263.5 115.5t109.5 264.5q0 148 -85 239.5t-237 91.5q-151 0 -262 -115t-111 -263t84 -240.5zM133 416q0 96 40 190t150 208t324 114q213 0 330 -124.5t117 -320.5q0 -197 -152.5 -351.5t-363.5 -154.5t-328 124t-117 315z" />
    <glyph glyph-name="p" unicode="p" horiz-adv-x="1214" 
d="M433.5 190q85.5 -92 236.5 -92t261.5 114.5t110.5 263.5t-83 241t-236 92t-264 -115t-111 -264q0 -148 85.5 -240zM740 928q206 0 321 -125t115 -320t-151 -350.5t-363 -155.5q-135 0 -219.5 62.5t-118.5 155.5l-76 -723h-133l151 1435h133l-20 -192q53 92 151 152.5
t210 60.5z" />
    <glyph glyph-name="q" unicode="q" horiz-adv-x="1214" 
d="M352 190.5q84 -92.5 236 -92.5t262.5 115t110.5 265q0 149 -82.5 240t-237.5 91t-264 -115.5t-109 -263.5q0 -147 84 -239.5zM135 418q0 96 40 189t148.5 207t325.5 114q135 0 219 -60.5t119 -152.5l21 192h133l-152 -1435h-133l76 723q-53 -92 -150.5 -155t-211.5 -63
t-190.5 35t-130.5 93.5t-84 137.5t-30 175z" />
    <glyph glyph-name="r" unicode="r" horiz-adv-x="722" 
d="M690 795q-59 0 -188 -63t-156 -329l-43 -403h-133l96 907h133l-22 -215q51 111 146 169.5t200 58.5q54 0 84 -15l-12 -121q-46 11 -105 11z" />
    <glyph glyph-name="s" unicode="s" horiz-adv-x="921" 
d="M250 272q0 -184 233 -184q111 0 172.5 42t61.5 119q0 105 -154 136t-207 49.5t-110.5 61t-57.5 163.5t103.5 195t259.5 74t238 -75t84 -185q0 -20 -3 -41h-129q2 15 2 28q0 73 -50 119t-150 45q-100 0 -163 -41t-63 -115t54 -100t156 -46q101 -19 210 -55.5t109 -197.5
q0 -133 -103 -210t-270 -77q-264 0 -335 183q-25 64 -15 147h129q-2 -18 -2 -35z" />
    <glyph glyph-name="t" unicode="t" horiz-adv-x="673" 
d="M387 266q0 -80 41 -129t238 -18l-13 -119q-81 -12 -139.5 -12t-134.5 12.5t-113 131.5q-21 67 -8 171l51 490h-184l12 114h185l34 336h131l-34 -336h264l-12 -114h-265l-49 -463q-4 -34 -4 -64z" />
    <glyph glyph-name="u" unicode="u" horiz-adv-x="1146" 
d="M323 354q0 -103 48.5 -179.5t187.5 -76.5t230 104t104 240l49 465h131l-96 -907h-131l22 199q-49 -92 -143 -157t-227 -65q-177 0 -260 115q-50 71 -53 198q0 39 5 85l56 532h131l-51 -493q-3 -28 -3 -60z" />
    <glyph glyph-name="v" unicode="v" horiz-adv-x="962" 
d="M113 907h141l246 -721l401 721h143l-518 -907h-94z" />
    <glyph glyph-name="w" unicode="w" horiz-adv-x="1462" 
d="M113 907h141l182 -706l326 706h131l178 -706l330 706h141l-446 -907h-95l-190 760l-348 -760h-96z" />
    <glyph glyph-name="x" unicode="x" horiz-adv-x="888" 
d="M47 0l367 455l-267 452h154l203 -348l276 348h154l-367 -452l275 -455h-154l-207 352l-280 -352h-154z" />
    <glyph glyph-name="y" unicode="y" horiz-adv-x="1163" 
d="M343 346q0 -248 226 -248q152 0 242.5 103t103.5 241l50 465h131l-105 -993q-27 -246 -147.5 -354.5t-331.5 -108.5t-292 101.5t-81 243.5q0 43 2 69h129q-2 -24 -2 -55q0 -97 54.5 -167.5t205.5 -70.5t231.5 77t100.5 265l31 285q-53 -98 -147 -160t-210 -62
q-197 0 -276 111q-38 52 -44 102t-6 94t5 101l55 522h131l-51 -483q-5 -41 -5 -78z" />
    <glyph glyph-name="z" unicode="z" horiz-adv-x="882" 
d="M53 0l627 786h-522l14 121h752l-629 -786h547l-13 -121h-776z" />
    <glyph glyph-name="braceleft" unicode="{" horiz-adv-x="778" 
d="M752 1626h125l-11 -104h-96q-80 0 -133 -55.5t-64 -143.5l-59 -549q-11 -101 -73 -154t-130 -69q111 -27 136.5 -102.5t19.5 -137.5l-51 -487q-10 -88 31.5 -143.5t121.5 -55.5h97l-11 -104h-125q-107 0 -186.5 74t-62.5 210l51 490q11 95 -47.5 147t-120.5 52l12 112
q63 0 129.5 48.5t77.5 136.5l59 550q15 133 106.5 209t203.5 76z" />
    <glyph glyph-name="bar" unicode="|" horiz-adv-x="473" 
d="M119 -479l221 2105h133l-221 -2105h-133z" />
    <glyph glyph-name="braceright" unicode="}" horiz-adv-x="778" 
d="M129 -375q80 0 133 55.5t64 143.5l51 487q15 155 97.5 194.5t109.5 45.5q-110 26 -138 97t-22 126l57 549q10 88 -30.5 143.5t-120.5 55.5h-99l11 104h125q109 0 187.5 -75.5t61.5 -209.5l-57 -550q-10 -85 48.5 -135t121.5 -50l-12 -112q-61 0 -129.5 -50.5
t-79.5 -148.5l-51 -490q-15 -137 -109 -210.5t-203 -73.5h-125l11 104h98z" />
    <glyph glyph-name="asciitilde" unicode="~" horiz-adv-x="1044" 
d="M801 567q114 0 239 111l-12 -121q-108 -108 -237 -108q-73 0 -176 49t-157.5 69.5t-111.5 20.5q-113 0 -225 -107l12 123q96 103 225 103q85 0 232 -66q66 -29 118 -51.5t93 -22.5z" />
    <glyph glyph-name="nonbreakingspace" unicode="&#xa0;" horiz-adv-x="522" 
 />
    <glyph glyph-name="exclamdown" unicode="&#xa1;" horiz-adv-x="579" 
d="M309 1325q0 51 41 91t92 40t83 -31.5t32 -82.5t-42 -91.5t-93 -40.5t-82 32t-31 83zM219 -12l109 1030h141l-109 -1030h-141z" />
    <glyph glyph-name="cent" unicode="&#xa2;" horiz-adv-x="1120" 
d="M292.5 870.5q120.5 152.5 323.5 171.5l23 226h125l-23 -224q169 -19 245.5 -116.5t76.5 -233.5h-131q0 102 -64 168t-176 66q-196 0 -292.5 -116t-96.5 -280q0 -214 110.5 -264.5t212.5 -50.5t176.5 58.5t102.5 154.5h133q-35 -129 -132 -220t-265 -108l-23 -225h-124
l22 225q-165 19 -254.5 138.5t-89.5 298.5t120.5 331.5z" />
    <glyph glyph-name="sterling" unicode="&#xa3;" horiz-adv-x="1222" 
d="M317 1022q19 187 160 308.5t338 121.5t310.5 -127t93.5 -321h-140q14 141 -59.5 232t-213.5 91t-221 -65t-105.5 -147t-39.5 -257h391l-12 -127h-391l-20 -194q-19 -217 -57 -302t-58 -108h719l-15 -127h-876l12 109q63 70 92 170t45 258l21 194h-139l12 127h139
q14 128 14 164z" />
    <glyph glyph-name="currency" unicode="&#xa4;" horiz-adv-x="1589" 
d="M555.5 494q84.5 -91 238.5 -91t262.5 115t108.5 263q0 147 -84.5 240t-237.5 93t-262.5 -116t-109.5 -265q0 -148 84.5 -239zM340 713q0 186 127 336l-127 145l92 86l129 -145q131 98 305 98t287 -96l158 141l75 -84l-159 -143q71 -103 71 -248q0 -193 -133 -338
l129 -141l-92 -86l-129 143q-129 -96 -303 -96t-287 98l-159 -145l-78 84l160 145q-66 102 -66 246z" />
    <glyph glyph-name="yen" unicode="&#xa5;" horiz-adv-x="1239" 
d="M123 1434h162l413 -736l562 736h159l-649 -850h332l-10 -111h-355l-20 -180h354l-10 -115h-354l-21 -178h-125l21 178h-349l11 115h348l20 180h-348l10 111h326z" />
    <glyph glyph-name="brokenbar" unicode="&#xa6;" horiz-adv-x="473" 
d="M238 659l102 967h133l-102 -967h-133zM119 -479l102 966h133l-102 -966h-133z" />
    <glyph glyph-name="section" unicode="&#xa7;" horiz-adv-x="1185" 
d="M303 544q0 -62 52.5 -104t118.5 -66t102 -36t71 -22.5t68 -20.5t57 -16q94 4 167 75t73 156q0 86 -65 135t-392 150q-111 -4 -181.5 -72t-70.5 -179zM895 215q149 -88 149 -264t-136 -277.5t-351 -101.5t-340.5 121.5t-103.5 310.5h139q-14 -135 68.5 -224t261.5 -89
q223 0 273 92.5t50 154.5q0 110 -72.5 158.5t-209.5 89.5q-136 42 -211.5 69.5t-163.5 84.5t-88 191q0 135 75.5 220t190.5 109q-133 89 -133 263q0 173 141.5 279.5t345.5 106.5t317 -115t97 -298h-139q13 131 -64 214t-221 83t-241 -69t-97 -191q0 -152 122 -194.5
t200 -66.5q197 -60 298 -130t101 -195q0 -126 -79.5 -218.5t-178.5 -113.5z" />
    <glyph glyph-name="dieresis" unicode="&#xa8;" horiz-adv-x="1058" 
d="M778 1323q0 49 38 87t88 38t81 -31t31 -81t-39 -87t-89 -37t-80 31t-30 80zM307 1323q0 49 38 87t88 38t81 -31t31 -81t-39 -87t-89 -37t-80 31t-30 80z" />
    <glyph glyph-name="copyright" unicode="&#xa9;" horiz-adv-x="1652" 
d="M455 681q0 89 33.5 179t136.5 202t329 112q168 0 268.5 -90t108.5 -226h-104q-14 92 -85.5 156.5t-179.5 64.5q-188 0 -295.5 -118t-107.5 -266t84.5 -243.5t230.5 -95.5q111 0 193 51.5t123 129.5h108q-82 -193 -219 -234t-225 -41t-164 33t-128 89t-79.5 132t-27.5 165
zM287 663q0 -255 149 -423t404 -168q152 0 276.5 60.5t214.5 159.5t139.5 227t49.5 253q0 254 -149 423t-406 169q-152 0 -276 -60.5t-214 -160t-139 -227.5t-49 -253zM162 656q0 146 59.5 294t167 263.5t258 185t321.5 69.5q316 0 495 -197t179 -480q0 -158 -59 -307.5
t-165.5 -264.5t-256.5 -184.5t-321 -69.5t-295.5 56.5t-209.5 149.5t-129 216t-44 269z" />
    <glyph glyph-name="ordfeminine" unicode="&#xaa;" horiz-adv-x="1212" 
d="M350 190.5q84 -92.5 237 -92.5t262 113.5t109 275.5q0 218 -117.5 270t-196.5 52t-148.5 -32t-149.5 -115t-80 -231t84 -240.5zM133 418q0 96 40 189t150 207t324 114q123 0 212 -56.5t126 -158.5l21 194h133l-97 -907h-133l21 193q-53 -92 -150.5 -154t-211.5 -62
t-190.5 35t-130.5 93.5t-84 137.5t-30 175z" />
    <glyph glyph-name="guillemotleft" unicode="&#xab;" horiz-adv-x="966" 
d="M541 553l8 86l438 348l-14 -135l-318 -256l265 -256l-15 -135zM139 553l8 86l439 348l-15 -135l-317 -256l264 -256l-14 -135z" />
    <glyph glyph-name="logicalnot" unicode="&#xac;" 
d="M233 606l13 119h827l-43 -418h-131l31 299h-697z" />
    <glyph glyph-name="softhyphen" unicode="&#xad;" horiz-adv-x="602" 
d="M117 524l12 119h479l-12 -119h-479z" />
    <glyph glyph-name="registered" unicode="&#xae;" horiz-adv-x="1662" 
d="M950 702q86 0 142.5 60t56.5 137q0 78 -41 127t-117 49h-200l-41 -373h200zM1008 1165q110 0 178.5 -72t68.5 -176t-61 -184t-160 -106l154 -295h-113l-147 282h-187l-30 -282h-99l88 833h308zM287 663q0 -253 150 -422t409 -169q152 0 277.5 60.5t216 159.5t140.5 227
t50 253q0 252 -150 422t-409 170q-152 0 -278 -60.5t-216 -160t-140 -227.5t-50 -253zM162 656q0 146 59.5 294t168 263.5t259 185t323.5 69.5q321 0 501 -198t180 -479q0 -158 -59.5 -307.5t-167 -264.5t-258 -184.5t-323.5 -69.5t-299 56.5t-211 149.5t-129 216t-44 269z
" />
    <glyph glyph-name="macron" unicode="&#xaf;" horiz-adv-x="1083" 
d="M332 1481l12 121h733l-12 -121h-733z" />
    <glyph glyph-name="degree" unicode="&#xb0;" horiz-adv-x="677" 
d="M266 1142q0 -60 49.5 -110.5t130.5 -50.5t145 61t64 144q0 82 -48 134t-131 52t-146.5 -64t-63.5 -166zM264.5 1373.5q96.5 94.5 218.5 94.5t198.5 -75t76.5 -199q0 -123 -97.5 -217t-218.5 -94t-197.5 75t-76.5 198t96.5 217.5z" />
    <glyph glyph-name="plusminus" unicode="&#xb1;" 
d="M264 797l12 118h338l37 347h131l-37 -347h338l-12 -118h-338l-37 -342h-131l37 342h-338zM190 100l13 119h807l-13 -119h-807z" />
    <glyph glyph-name="twosuperior" unicode="&#xb2;" horiz-adv-x="743" 
d="M651 1247q0 49 -33.5 81t-99.5 32t-111 -43t-55 -119h-112q12 109 90 179.5t192 70.5t178 -52.5t64 -152.5q0 -143 -99.5 -197t-146.5 -76q-106 -49 -145.5 -92t-53.5 -139h394l-11 -94h-520q26 251 117 310t145 82t91.5 43t63.5 41.5t39 49t13 76.5z" />
    <glyph glyph-name="threesuperior" unicode="&#xb3;" horiz-adv-x="763" 
d="M651 1271q0 89 -140 89q-67 0 -108 -40t-47 -106h-110q10 98 82 166t186 68t181 -51t67 -137t-44 -137.5t-114 -67.5q59 -16 95 -60.5t36 -107.5q0 -121 -84.5 -187.5t-210.5 -66.5q-125 0 -192.5 69.5t-54.5 182.5h112q-8 -74 32 -117t117 -43t124 46.5t47 106.5t-36 96
t-110 36h-67l10 90h67q80 0 121 41t41 130z" />
    <glyph glyph-name="acute" unicode="&#xb4;" horiz-adv-x="854" 
d="M211 1210l539 281l53 -107l-539 -280z" />
    <glyph glyph-name="uni00B5" unicode="&#xb5;" 
d="M576 98q141 0 232.5 104t104.5 240l50 465h131l-97 -907h-131l21 199q-47 -92 -141 -157t-234 -65t-203 99l-63 -604h-131l151 1435h129l-51 -493q-20 -222 70 -269t162 -47z" />
    <glyph glyph-name="paragraph" unicode="&#xb6;" horiz-adv-x="1306" 
d="M139 1056q0 118 102.5 265t452.5 147h627l-12 -112h-109l-174 -1659h-125l174 1657h-334l-174 -1657h-127l103 977q-288 0 -346 132t-58 250z" />
    <glyph glyph-name="periodcentered" unicode="&#xb7;" horiz-adv-x="468" 
d="M178 633q0 51 41 90t92 39t82 -32t31 -83t-40 -90t-91 -39t-83 32t-32 83z" />
    <glyph glyph-name="cedilla" unicode="&#xb8;" horiz-adv-x="823" 
d="M514 -280q0 104 -110 104q-57 0 -95 -66h-76l25 242h92l-16 -158q36 54 104 54t115 -46.5t47 -102.5q0 -100 -61 -163t-152 -63q-120 0 -152 64.5t-32 117.5h86q0 -45 26.5 -74.5t76.5 -29.5t86 36.5t36 84.5z" />
    <glyph glyph-name="onesuperior" unicode="&#xb9;" horiz-adv-x="518" 
d="M225 1217l8 83q102 0 139.5 30t45.5 104h100l-82 -789h-112l59 572h-158z" />
    <glyph glyph-name="ordmasculine" unicode="&#xba;" horiz-adv-x="1130" 
d="M350 190.5q84 -92.5 238 -92.5t263.5 115.5t109.5 264.5q0 148 -85 239.5t-237 91.5q-151 0 -262 -115t-111 -263t84 -240.5zM133 416q0 96 40 190t150 208t324 114q213 0 330 -124.5t117 -320.5q0 -197 -152.5 -351.5t-363.5 -154.5t-328 124t-117 315z" />
    <glyph glyph-name="guillemotright" unicode="&#xbb;" horiz-adv-x="966" 
d="M506 205l14 135l320 256l-267 256l15 135l364 -348l-8 -86zM104 205l15 135l319 256l-266 256l14 135l365 -348l-8 -86z" />
    <glyph glyph-name="onequarter" unicode="&#xbc;" horiz-adv-x="1802" 
d="M1139 256l55 532h113l-45 -436h198l25 238h110l-24 -238h119l-11 -96h-118l-27 -256h-111l27 256h-311zM324 -4l1058 1544l99 -61l-1057 -1545zM276 1217l9 83q103 0 139.5 30t44.5 104h100l-82 -789h-112l59 572h-158z" />
    <glyph glyph-name="onehalf" unicode="&#xbd;" horiz-adv-x="1802" 
d="M1577 602q0 49 -34.5 81t-100.5 32t-111 -43t-53 -119h-113q10 109 88.5 179.5t192.5 70.5t178 -52.5t64 -152.5q0 -143 -99.5 -197.5t-146.5 -76.5q-106 -49 -147 -92.5t-52 -137.5h393l-8 -94h-520q19 180 79.5 259.5t177.5 130.5q117 52 150 80t47.5 55.5t14.5 76.5z
M348 -4l1059 1544l98 -61l-1056 -1545zM301 1217l8 83q102 0 138 29t47 105h100l-82 -789h-113l60 572h-158z" />
    <glyph glyph-name="threequarters" unicode="&#xbe;" horiz-adv-x="1802" 
d="M1169 256l58 532h112l-47 -436h199l27 238h110l-26 -238h118l-10 -96h-119l-26 -256h-111l27 256h-312zM408 -4l1056 1544l101 -61l-1057 -1545zM672 1271q0 89 -140 89q-66 0 -107.5 -40t-47.5 -106h-111q10 98 82 166t186 68t181 -51t67 -137t-44 -137.5t-113 -67.5
q59 -16 95 -60.5t36 -107.5q0 -121 -84.5 -187.5t-210.5 -66.5q-125 0 -192.5 69.5t-55.5 182.5h113q-8 -74 31.5 -117t116.5 -43t124 46.5t47 106.5t-36 96t-109 36h-68l10 90h68q80 0 121 41t41 130z" />
    <glyph glyph-name="questiondown" unicode="&#xbf;" horiz-adv-x="1017" 
d="M575 1328q0 52 40.5 92t94.5 40t85.5 -32.5t31.5 -84.5t-41 -93.5t-94 -41.5t-85 34t-32 86zM260 346q0 -240 278 -240q136 0 230 87.5t111 234.5h139q-20 -197 -158.5 -322.5t-331.5 -125.5q-194 0 -300.5 93t-106.5 259q0 213 116.5 293.5t159.5 108.5t118.5 82.5
t90.5 238.5h133q-16 -155 -72 -239t-165 -148q-27 -16 -68 -41t-107.5 -91.5t-66.5 -189.5z" />
    <glyph glyph-name="Agrave" unicode="&#xc0;" horiz-adv-x="1118" 
d="M487 1817l76 104l479 -281l-73 -104zM330 383h540l-184 831zM14 0l645 1434h105l342 -1434h-145l-62 258h-627l-112 -258h-146z" />
    <glyph glyph-name="Aacute" unicode="&#xc1;" horiz-adv-x="1118" 
d="M444 1620l541 281l51 -105l-538 -280zM330 383h540l-184 831zM14 0l645 1434h105l342 -1434h-145l-62 258h-627l-112 -258h-146z" />
    <glyph glyph-name="Acircumflex" unicode="&#xc2;" horiz-adv-x="1118" 
d="M362 1634l400 297l338 -297l-92 -94l-263 229l-309 -229zM330 383h540l-184 831zM14 0l645 1434h105l342 -1434h-145l-62 258h-627l-112 -258h-146z" />
    <glyph glyph-name="Atilde" unicode="&#xc3;" horiz-adv-x="1118" 
d="M589 1681q-46 0 -153 -57l-49 90q119 73 161 75.5t62 2.5q39 0 139 -27.5t149 -27.5q48 0 161 55l43 -90q-115 -76 -191 -76q-75 0 -138.5 19.5t-100.5 27.5t-83 8zM330 383h540l-184 831zM14 0l645 1434h105l342 -1434h-145l-62 258h-627l-112 -258h-146z" />
    <glyph glyph-name="Adieresis" unicode="&#xc4;" horiz-adv-x="1118" 
d="M852 1696q0 51 40 90t91 39t83 -32t32 -83t-41 -90t-92 -39t-82 32t-31 83zM381 1696q0 51 40 90t91 39t83 -32t32 -83t-40.5 -90t-92.5 -39t-82.5 32t-30.5 83zM330 383h540l-184 831zM14 0l645 1434h105l342 -1434h-145l-62 258h-627l-112 -258h-146z" />
    <glyph glyph-name="Aring" unicode="&#xc5;" horiz-adv-x="1118" 
d="M592 1724q0 -46 39 -86.5t85 -40.5q77 0 128 49t51 110q0 62 -39 102t-85 40t-75.5 -13t-53.5 -34.5t-37 -51t-13 -75.5zM571.5 1915q82.5 84 187.5 84q104 0 170 -64.5t66 -171.5q0 -106 -85 -187t-187 -81q-101 0 -167.5 68t-66.5 168t82.5 184zM330 383h540l-184 831z
M14 0l645 1434h105l342 -1434h-145l-62 258h-627l-112 -258h-146z" />
    <glyph glyph-name="AE" unicode="&#xc6;" horiz-adv-x="1734" 
d="M387 385h442l95 895zM6 0l868 1434h846l-14 -125h-643l-55 -533h643l-15 -127h-643l-53 -522h643l-14 -127h-781l27 258h-504l-155 -258h-150z" />
    <glyph glyph-name="Ccedilla" unicode="&#xc7;" horiz-adv-x="1587" 
d="M989 -252q0 100 -110 100q-55 0 -91 -59h-75l18 186q-269 31 -420 221.5t-151 448.5q0 158 57 305.5t162.5 262t257 183t316.5 68.5q301 0 463.5 -140t185.5 -372h-144q-21 171 -149 279t-338 108q-154 0 -278 -57t-211 -152.5t-134 -218.5t-47 -245q0 -245 148.5 -407.5
t400.5 -162.5q191 0 335.5 94.5t209.5 231.5h151q-117 -287 -415 -396q-132 -48 -275 -53q-6 -2 -14 -2h-19l-10 -100q34 49 102 49t114 -44t46 -100q0 -97 -60.5 -161t-161.5 -64t-135 58.5t-36 107.5h88q9 -88 100 -88q49 0 84 36t35 83z" />
    <glyph glyph-name="Egrave" unicode="&#xc8;" horiz-adv-x="1112" 
d="M489 1796l76 107l479 -281l-73 -106zM170 0l152 1434h782l-14 -125h-644l-55 -533h643l-14 -127h-643l-53 -522h643l-15 -127h-782z" />
    <glyph glyph-name="Eacute" unicode="&#xc9;" horiz-adv-x="1112" 
d="M463 1640l541 281l51 -104l-539 -281zM170 0l152 1434h782l-14 -125h-644l-55 -533h643l-14 -127h-643l-53 -522h643l-15 -127h-782z" />
    <glyph glyph-name="Ecircumflex" unicode="&#xca;" horiz-adv-x="1112" 
d="M367 1634l399 297l338 -297l-92 -94l-262 229l-310 -229zM170 0l152 1434h782l-14 -125h-644l-55 -533h643l-14 -127h-643l-53 -522h643l-15 -127h-782z" />
    <glyph glyph-name="Edieresis" unicode="&#xcb;" horiz-adv-x="1112" 
d="M866 1696q0 51 40 90t91 39t83 -32t32 -83t-41 -90t-92 -39t-82 32t-31 83zM395 1696q0 51 40 90t91 39t83 -32t32 -83t-41 -90t-92 -39t-82 32t-31 83zM170 0l152 1434h782l-14 -125h-644l-55 -533h643l-14 -127h-643l-53 -522h643l-15 -127h-782z" />
    <glyph glyph-name="Igrave" unicode="&#xcc;" horiz-adv-x="483" 
d="M170 0l149 1434h144l-150 -1434h-143zM143 1796l74 105l481 -281l-73 -104z" />
    <glyph glyph-name="Iacute" unicode="&#xcd;" horiz-adv-x="483" 
d="M170 0l149 1434h144l-150 -1434h-143zM125 1622l539 281l53 -107l-539 -280z" />
    <glyph glyph-name="Icircumflex" unicode="&#xce;" horiz-adv-x="483" 
d="M170 0l152 1434h143l-152 -1434h-143zM45 1634l399 297l338 -297l-92 -94l-262 229l-309 -229z" />
    <glyph glyph-name="Idieresis" unicode="&#xcf;" horiz-adv-x="483" 
d="M547 1696q0 51 41 90t91 39t82 -32t32 -83t-42.5 -90t-92.5 -39t-80.5 32t-30.5 83zM170 0l152 1434h143l-152 -1434h-143zM74 1696q0 51 41 90t92 39t83 -32t32 -84t-42 -90t-94 -38t-82 32t-30 83z" />
    <glyph glyph-name="Eth" unicode="&#xd0;" horiz-adv-x="1421" 
d="M604 127q154 0 278 55.5t210 146.5t133 206t47 227q0 230 -144.5 388.5t-400.5 158.5h-281l-55 -531h240l-13 -121h-239l-55 -530h280zM741 1434q312 0 492 -192.5t180 -461.5q0 -145 -57.5 -285.5t-165 -250t-260 -177t-340.5 -67.5h-420l70 657h-230l13 121h229l70 656
h419z" />
    <glyph glyph-name="Ntilde" unicode="&#xd1;" horiz-adv-x="1355" 
d="M693 1681q-46 0 -152 -57l-49 90q119 74 160.5 76t61.5 2q39 0 139 -27.5t149 -27.5q48 0 161 55l43 -90q-115 -76 -190 -76q-74 0 -138.5 19.5t-101.5 27.5t-83 8zM170 0l152 1434h153l596 -1194l127 1194h139l-151 -1434h-154l-598 1196l-125 -1196h-139z" />
    <glyph glyph-name="Ograve" unicode="&#xd2;" horiz-adv-x="1650" 
d="M750 1817l73 104l482 -281l-76 -104zM305 665q0 -240 142.5 -404.5t392.5 -164.5q145 0 267 57.5t209 152.5t135 219t48 244q0 244 -143 407t-393 163q-145 0 -266.5 -58t-208.5 -153.5t-135 -218.5t-48 -244zM160 656q0 144 59.5 293t166 262.5t256 183t321.5 69.5
q325 0 502 -199t177 -477q0 -158 -59 -305t-165.5 -260.5t-257.5 -183.5t-323 -70t-296.5 55.5t-208.5 149.5t-128 216t-44 266z" />
    <glyph glyph-name="Oacute" unicode="&#xd3;" horiz-adv-x="1650" 
d="M690 1640l539 281l53 -104l-541 -281zM305 665q0 -240 142.5 -404.5t392.5 -164.5q145 0 267 57.5t209 152.5t135 219t48 244q0 244 -143 407t-393 163q-145 0 -266.5 -58t-208.5 -153.5t-135 -218.5t-48 -244zM160 656q0 144 59.5 293t166 262.5t256 183t321.5 69.5
q325 0 502 -199t177 -477q0 -158 -59 -305t-165.5 -260.5t-257.5 -183.5t-323 -70t-296.5 55.5t-208.5 149.5t-128 216t-44 266z" />
    <glyph glyph-name="Ocircumflex" unicode="&#xd4;" horiz-adv-x="1650" 
d="M631 1634l397 297l340 -297l-92 -94l-262 229l-309 -229zM305 665q0 -240 142.5 -404.5t392.5 -164.5q145 0 267 57.5t209 152.5t135 219t48 244q0 244 -143 407t-393 163q-145 0 -266.5 -58t-208.5 -153.5t-135 -218.5t-48 -244zM160 656q0 144 59.5 293t166 262.5
t256 183t321.5 69.5q325 0 502 -199t177 -477q0 -158 -59 -305t-165.5 -260.5t-257.5 -183.5t-323 -70t-296.5 55.5t-208.5 149.5t-128 216t-44 266z" />
    <glyph glyph-name="Otilde" unicode="&#xd5;" horiz-adv-x="1650" 
d="M850 1681q-47 0 -152 -57l-51 90q119 73 161 75.5t62 2.5q38 0 140.5 -27.5t148.5 -27.5q47 0 160 55l45 -90q-120 -76 -192 -76t-136.5 19.5t-101.5 27.5t-84 8zM305 665q0 -240 142.5 -404.5t392.5 -164.5q145 0 267 57.5t209 152.5t135 219t48 244q0 244 -143 407
t-393 163q-145 0 -266.5 -58t-208.5 -153.5t-135 -218.5t-48 -244zM160 656q0 144 59.5 293t166 262.5t256 183t321.5 69.5q325 0 502 -199t177 -477q0 -158 -59 -305t-165.5 -260.5t-257.5 -183.5t-323 -70t-296.5 55.5t-208.5 149.5t-128 216t-44 266z" />
    <glyph glyph-name="Odieresis" unicode="&#xd6;" horiz-adv-x="1650" 
d="M1118 1696q0 51 41 90t91 39t82 -32t32 -83t-41 -90t-91 -39t-82 32t-32 83zM647 1696q0 51 41 90t91 39t82 -32t32 -83t-41 -90t-91 -39t-82 32t-32 83zM305 665q0 -240 142.5 -404.5t392.5 -164.5q145 0 267 57.5t209 152.5t135 219t48 244q0 244 -143 407t-393 163
q-145 0 -266.5 -58t-208.5 -153.5t-135 -218.5t-48 -244zM160 656q0 144 59.5 293t166 262.5t256 183t321.5 69.5q325 0 502 -199t177 -477q0 -158 -59 -305t-165.5 -260.5t-257.5 -183.5t-323 -70t-296.5 55.5t-208.5 149.5t-128 216t-44 266z" />
    <glyph glyph-name="multiply" unicode="&#xd7;" 
d="M279 338l276 250l-219 246l94 86l217 -246l279 250l82 -93l-277 -251l221 -246l-94 -84l-219 246l-277 -250z" />
    <glyph glyph-name="Oslash" unicode="&#xd8;" horiz-adv-x="1650" 
d="M856 96q126 0 249.5 57.5t210.5 152.5t135 216.5t48 261.5t-63.5 271t-186.5 202l-604 -1128q85 -33 211 -33zM936 1339q-118 0 -239.5 -58t-208.5 -153.5t-135 -217.5t-48 -259t59.5 -265t172.5 -202l602 1129q-85 26 -203 26zM160 680q0 123 59.5 270.5t167 261
t258.5 183t305 69.5t252 -32l86 163l117 -51l-90 -162q235 -126 281 -314t46 -314t-59 -272t-166.5 -261t-257 -183.5t-307.5 -68.5t-268 41l-84 -160l-115 50l84 159q-146 82 -227.5 243.5t-81.5 377.5z" />
    <glyph glyph-name="Ugrave" unicode="&#xd9;" horiz-adv-x="1265" 
d="M551 1817l76 104l479 -281l-74 -104zM631 -31q-214 0 -335 141.5t-99 340.5l102 983h139l-102 -983q-17 -150 68.5 -252.5t237.5 -102.5t258.5 102.5t123.5 252.5l102 983h140l-103 -983q-21 -202 -169.5 -342t-362.5 -140z" />
    <glyph glyph-name="Uacute" unicode="&#xda;" horiz-adv-x="1265" 
d="M494 1640l540 281l51 -104l-538 -281zM631 -31q-214 0 -335 141.5t-99 340.5l102 983h139l-102 -983q-17 -150 68.5 -252.5t237.5 -102.5t258.5 102.5t123.5 252.5l102 983h140l-103 -983q-21 -202 -169.5 -342t-362.5 -140z" />
    <glyph glyph-name="Ucircumflex" unicode="&#xdb;" horiz-adv-x="1265" 
d="M430 1634l399 297l338 -297l-92 -94l-262 232l-309 -230zM631 -31q-214 0 -335 141.5t-99 340.5l102 983h139l-102 -983q-17 -150 68.5 -252.5t237.5 -102.5t258.5 102.5t123.5 252.5l102 983h140l-103 -983q-21 -202 -169.5 -342t-362.5 -140z" />
    <glyph glyph-name="Udieresis" unicode="&#xdc;" horiz-adv-x="1265" 
d="M924 1696q0 51 41 90t91 39t81.5 -32t31.5 -83t-41 -90t-91 -39t-81.5 32t-31.5 83zM453 1696q0 51 41 90t91 39t81.5 -32t31.5 -83t-42 -90t-92 -39t-80.5 32t-30.5 83zM631 -31q-214 0 -335 141.5t-99 340.5l102 983h139l-102 -983q-17 -150 68.5 -252.5t237.5 -102.5
t258.5 102.5t123.5 252.5l102 983h140l-103 -983q-21 -202 -169.5 -342t-362.5 -140z" />
    <glyph glyph-name="Yacute" unicode="&#xdd;" horiz-adv-x="1157" 
d="M530 1620l539 281l53 -105l-540 -280zM170 1434h160l381 -723l448 723h152l-883 -1434h-154l353 567z" />
    <glyph glyph-name="Thorn" unicode="&#xde;" horiz-adv-x="1021" 
d="M530 369q167 0 272 109t105 248q0 138 -80 229.5t-225 91.5h-194l-72 -678h194zM614 1161q198 0 310 -120.5t112 -306.5t-146 -333t-372 -147h-194l-27 -254h-127l152 1434h127l-29 -273h194z" />
    <glyph glyph-name="germandbls" unicode="&#xdf;" horiz-adv-x="1142" 
d="M595 94q152 0 255.5 89t103.5 215t-79 206t-224 80h-98l12 121h94q156 0 245 85t89 202t-73.5 182t-206.5 65t-219 -80.5t-101 -209.5l-110 -1049h-133l110 1049q16 181 146 296t317 115t294 -96t107 -245q0 -148 -80.5 -246.5t-222.5 -129.5q121 -27 193.5 -110
t72.5 -201q0 -214 -151 -336.5t-354 -122.5q-94 0 -170 27l12 119q98 -25 171 -25z" />
    <glyph glyph-name="agrave" unicode="&#xe0;" horiz-adv-x="1212" 
d="M414 1325l75 107l480 -281l-74 -107zM350 190.5q84 -92.5 237 -92.5t262 113.5t109 275.5q0 218 -117.5 270t-196.5 52t-148.5 -32t-149.5 -115t-80 -231t84 -240.5zM133 418q0 96 40 189t150 207t324 114q123 0 212 -56.5t126 -158.5l21 194h133l-97 -907h-133l21 193
q-53 -92 -150.5 -154t-211.5 -62t-190.5 35t-130.5 93.5t-84 137.5t-30 175z" />
    <glyph glyph-name="aacute" unicode="&#xe1;" horiz-adv-x="1212" 
d="M365 1151l540 281l51 -107l-538 -281zM350 190.5q84 -92.5 237 -92.5t262 113.5t109 275.5q0 218 -117.5 270t-196.5 52t-148.5 -32t-149.5 -115t-80 -231t84 -240.5zM133 418q0 96 40 189t150 207t324 114q123 0 212 -56.5t126 -158.5l21 194h133l-97 -907h-133l21 193
q-53 -92 -150.5 -154t-211.5 -62t-190.5 35t-130.5 93.5t-84 137.5t-30 175z" />
    <glyph glyph-name="acircumflex" unicode="&#xe2;" horiz-adv-x="1212" 
d="M322 1182l399 297l338 -297l-92 -95l-262 232l-310 -229zM350 190.5q84 -92.5 237 -92.5t262 113.5t109 275.5q0 218 -117.5 270t-196.5 52t-148.5 -32t-149.5 -115t-80 -231t84 -240.5zM133 418q0 96 40 189t150 207t324 114q123 0 212 -56.5t126 -158.5l21 194h133
l-97 -907h-133l21 193q-53 -92 -150.5 -154t-211.5 -62t-190.5 35t-130.5 93.5t-84 137.5t-30 175z" />
    <glyph glyph-name="atilde" unicode="&#xe3;" horiz-adv-x="1212" 
d="M569 1389q35 0 144 -28t155 -28q45 0 154 56l45 -91q-119 -75 -190 -75q-72 0 -163 27.5t-148.5 27.5t-164.5 -57l-51 90q126 78 219 78zM350 190.5q84 -92.5 237 -92.5t262 113.5t109 275.5q0 218 -117.5 270t-196.5 52t-148.5 -32t-149.5 -115t-80 -231t84 -240.5z
M133 418q0 96 40 189t150 207t324 114q123 0 212 -56.5t126 -158.5l21 194h133l-97 -907h-133l21 193q-53 -92 -150.5 -154t-211.5 -62t-190.5 35t-130.5 93.5t-84 137.5t-30 175z" />
    <glyph glyph-name="adieresis" unicode="&#xe4;" horiz-adv-x="1212" 
d="M805 1233q0 51 41 90t91 39t82 -32t32 -83t-41.5 -90t-91.5 -39t-81.5 32t-31.5 83zM334 1233q0 51 41 90t91 39t82 -32t32 -83t-41.5 -90t-91.5 -39t-81.5 32t-31.5 83zM350 190.5q84 -92.5 237 -92.5t262 113.5t109 275.5q0 218 -117.5 270t-196.5 52t-148.5 -32
t-149.5 -115t-80 -231t84 -240.5zM133 418q0 96 40 189t150 207t324 114q123 0 212 -56.5t126 -158.5l21 194h133l-97 -907h-133l21 193q-53 -92 -150.5 -154t-211.5 -62t-190.5 35t-130.5 93.5t-84 137.5t-30 175z" />
    <glyph glyph-name="aring" unicode="&#xe5;" horiz-adv-x="1212" 
d="M555 1252q0 -44 39 -86t85 -42q77 0 128 49t51 110q0 62 -39 102t-85 40t-75.5 -13t-53 -34.5t-37 -51.5t-13.5 -74zM538.5 1444.5q83.5 81.5 186.5 81.5q102 0 169 -67t67 -170t-85 -185t-187 -82t-168 67.5t-66 170.5t83.5 184.5zM350 190.5q84 -92.5 237 -92.5
t262 113.5t109 275.5q0 218 -117.5 270t-196.5 52t-148.5 -32t-149.5 -115t-80 -231t84 -240.5zM133 418q0 96 40 189t150 207t324 114q123 0 212 -56.5t126 -158.5l21 194h133l-97 -907h-133l21 193q-53 -92 -150.5 -154t-211.5 -62t-190.5 35t-130.5 93.5t-84 137.5
t-30 175z" />
    <glyph glyph-name="ae" unicode="&#xe6;" horiz-adv-x="1878" 
d="M1209 732q-91 -83 -107 -204h598q12 127 -60.5 207t-205.5 80q-134 0 -225 -83zM350.5 189q84.5 -91 236.5 -91t263 115t111 262t-84.5 240.5t-237.5 93.5t-263 -116.5t-110 -264.5t84.5 -239zM1831 562q0 -71 -19 -136h-722q-17 -149 55.5 -241.5t207.5 -92.5
q136 0 204.5 52.5t97.5 115.5h135q-61 -187 -204.5 -235t-231.5 -48t-142.5 25t-85 53.5t-42 53t-13.5 22.5q-14 -5 -19 -45.5t-10 -85.5h-133l21 193q-53 -92 -150.5 -154t-211.5 -62q-203 0 -319 126t-116 320t150 349.5t364 155.5q123 0 212 -56.5t126 -158.5l21 194h133
l-15 -127q120 148 326 148q165 0 273 -105t108 -261z" />
    <glyph glyph-name="ccedilla" unicode="&#xe7;" horiz-adv-x="1073" 
d="M705 -231q0 96 -109 96q-55 0 -92 -60h-76l21 183q-145 26 -226.5 142t-81.5 276q0 210 136.5 367t375.5 157q196 0 289.5 -106.5t89.5 -248.5h-131q0 102 -63.5 168t-175.5 66q-194 0 -292 -115.5t-98 -279.5q0 -214 111 -265t212 -51t176 58.5t103 154.5h134
q-49 -158 -148.5 -236t-294.5 -93l-26 -2l-7 -60q2 2 4 2h60q55 6 82 -16.5t44 -60.5q46 -102 -34 -179q-30 -30 -61 -34.5t-39 -4.5h-96q-9 0 -38.5 31t-33.5 74q4 -11 41 -23t41 -16q23 -47 79 -47t90 35.5t34 87.5z" />
    <glyph glyph-name="egrave" unicode="&#xe8;" horiz-adv-x="1062" 
d="M416 1325l76 107l479 -281l-74 -107zM619 815q-130 0 -220 -78t-112 -209h600q12 129 -63 208t-205 79zM1018 562q0 -71 -19 -136h-725q-13 -144 57 -239t224 -95q117 0 186.5 50.5t102.5 117.5h133q-38 -116 -155 -199.5t-279 -83.5q-198 0 -300 122.5t-102 324.5
q0 201 136.5 352.5t349.5 151.5q175 0 283 -105t108 -261z" />
    <glyph glyph-name="eacute" unicode="&#xe9;" horiz-adv-x="1062" 
d="M352 1151l541 281l51 -107l-538 -281zM619 815q-130 0 -220 -78t-112 -209h600q12 129 -63 208t-205 79zM1018 562q0 -71 -19 -136h-725q-13 -144 57 -239t224 -95q117 0 186.5 50.5t102.5 117.5h133q-38 -116 -155 -199.5t-279 -83.5q-198 0 -300 122.5t-102 324.5
q0 201 136.5 352.5t349.5 151.5q175 0 283 -105t108 -261z" />
    <glyph glyph-name="ecircumflex" unicode="&#xea;" horiz-adv-x="1062" 
d="M295 1182l397 297l340 -297l-92 -95l-262 232l-309 -229zM619 815q-130 0 -220 -78t-112 -209h600q12 129 -63 208t-205 79zM1018 562q0 -71 -19 -136h-725q-13 -144 57 -239t224 -95q117 0 186.5 50.5t102.5 117.5h133q-38 -116 -155 -199.5t-279 -83.5
q-198 0 -300 122.5t-102 324.5q0 201 136.5 352.5t349.5 151.5q175 0 283 -105t108 -261z" />
    <glyph glyph-name="edieresis" unicode="&#xeb;" horiz-adv-x="1062" 
d="M780 1232q0 50 41 90t92 40t82 -33t31 -83t-40 -89t-91 -39t-83 32t-32 82zM309 1232q0 50 41 90t92 40t82 -33t31 -83t-40 -89t-91 -39t-83 32t-32 82zM619 815q-130 0 -220 -78t-112 -209h600q12 129 -63 208t-205 79zM1018 562q0 -71 -19 -136h-725q-13 -144 57 -239
t224 -95q117 0 186.5 50.5t102.5 117.5h133q-38 -116 -155 -199.5t-279 -83.5q-198 0 -300 122.5t-102 324.5q0 201 136.5 352.5t349.5 151.5q175 0 283 -105t108 -261z" />
    <glyph glyph-name="igrave" unicode="&#xec;" horiz-adv-x="518" 
d="M193 0l94 907h133l-94 -907h-133zM113 1348l75 104l482 -281l-74 -104z" />
    <glyph glyph-name="iacute" unicode="&#xed;" horiz-adv-x="518" 
d="M193 0l94 907h131l-94 -907h-131zM94 1171l541 281l53 -106l-538 -281z" />
    <glyph glyph-name="icircumflex" unicode="&#xee;" horiz-adv-x="518" 
d="M195 0l96 907h131l-96 -907h-131zM14 1182l400 297l340 -297l-92 -95l-263 232l-311 -229z" />
    <glyph glyph-name="idieresis" unicode="&#xef;" horiz-adv-x="518" 
d="M502 1233q0 51 41 90t92 39t82 -32t31 -83t-40 -90t-92 -39t-83 32t-31 83zM182 0l97 907h131l-97 -907h-131zM31 1233q0 51 41 90t92 39t81.5 -32t30.5 -83t-40 -90t-92 -39t-82.5 32t-30.5 83z" />
    <glyph glyph-name="eth" unicode="&#xf0;" horiz-adv-x="1153" 
d="M363 188.5q84 -90.5 236 -90.5t262 114t110 264q0 149 -83.5 241t-236.5 92t-262.5 -116t-109.5 -265t84 -239.5zM145 416q0 96 40 190t151 208t332 114q100 0 143 -45l-111 213l-268 -138l-41 103l256 133l-123 240h160l90 -177l189 97l43 -101l-181 -94l205 -395
q76 -143 76 -258q0 -220 -151.5 -374.5t-362.5 -154.5t-329 125.5t-118 313.5z" />
    <glyph glyph-name="ntilde" unicode="&#xf1;" horiz-adv-x="1150" 
d="M586 1389q35 0 142 -28t154 -28t156 56l45 -91q-119 -75 -190 -75q-72 0 -163 27.5t-149 27.5t-163 -57l-51 90q126 78 219 78zM750 928q177 0 251 -106t54 -290l-56 -532h-133l52 494q20 222 -69 268.5t-162 46.5q-143 0 -232.5 -105.5t-102.5 -238.5l-49 -465h-133
l96 907h133l-22 -198q49 92 143 155.5t230 63.5z" />
    <glyph glyph-name="ograve" unicode="&#xf2;" horiz-adv-x="1130" 
d="M428 1325l76 107l479 -281l-74 -107zM350 190.5q84 -92.5 238 -92.5t263.5 115.5t109.5 264.5q0 148 -85 239.5t-237 91.5q-151 0 -262 -115t-111 -263t84 -240.5zM133 416q0 96 40 190t150 208t324 114q213 0 330 -124.5t117 -320.5q0 -197 -152.5 -351.5t-363.5 -154.5
t-328 124t-117 315z" />
    <glyph glyph-name="oacute" unicode="&#xf3;" horiz-adv-x="1130" 
d="M369 1151l540 281l52 -107l-539 -281zM350 190.5q84 -92.5 238 -92.5t263.5 115.5t109.5 264.5q0 148 -85 239.5t-237 91.5q-151 0 -262 -115t-111 -263t84 -240.5zM133 416q0 96 40 190t150 208t324 114q213 0 330 -124.5t117 -320.5q0 -197 -152.5 -351.5
t-363.5 -154.5t-328 124t-117 315z" />
    <glyph glyph-name="ocircumflex" unicode="&#xf4;" horiz-adv-x="1130" 
d="M322 1184l399 297l338 -297l-92 -94l-262 229l-310 -229zM350 190.5q84 -92.5 238 -92.5t263.5 115.5t109.5 264.5q0 148 -85 239.5t-237 91.5q-151 0 -262 -115t-111 -263t84 -240.5zM133 416q0 96 40 190t150 208t324 114q213 0 330 -124.5t117 -320.5
q0 -197 -152.5 -351.5t-363.5 -154.5t-328 124t-117 315z" />
    <glyph glyph-name="otilde" unicode="&#xf5;" horiz-adv-x="1130" 
d="M537 1251q-47 0 -154 -57l-49 90q119 73 160.5 75.5t61.5 2.5q38 0 138.5 -27.5t152.5 -27.5t159 55l45 -88q-120 -76 -190 -76t-137 18.5t-103.5 26.5t-83.5 8zM350 190.5q84 -92.5 238 -92.5t263.5 115.5t109.5 264.5q0 148 -85 239.5t-237 91.5q-151 0 -262 -115
t-111 -263t84 -240.5zM133 416q0 96 40 190t150 208t324 114q213 0 330 -124.5t117 -320.5q0 -197 -152.5 -351.5t-363.5 -154.5t-328 124t-117 315z" />
    <glyph glyph-name="odieresis" unicode="&#xf6;" horiz-adv-x="1130" 
d="M807 1233q0 51 41 90t92 39t82 -32t31 -83t-40 -90t-91 -39t-83 32t-32 83zM336 1233q0 51 41 90t92 39t82 -32t31 -83t-40.5 -90t-91.5 -39t-82.5 32t-31.5 83zM350 190.5q84 -92.5 238 -92.5t263.5 115.5t109.5 264.5q0 148 -85 239.5t-237 91.5q-151 0 -262 -115
t-111 -263t84 -240.5zM133 416q0 96 40 190t150 208t324 114q213 0 330 -124.5t117 -320.5q0 -197 -152.5 -351.5t-363.5 -154.5t-328 124t-117 315z" />
    <glyph glyph-name="divide" unicode="&#xf7;" 
d="M545 776q0 51 41 90t91 39t82 -31.5t32 -82.5t-40.5 -90t-92.5 -39t-82.5 31.5t-30.5 82.5zM524.5 271q41.5 46 91.5 46q49 0 80 -38.5t31 -82.5t-40 -83t-92 -39t-82 33.5t-30 75.5t41.5 88zM215 422l12 119h828l-13 -119h-827z" />
    <glyph glyph-name="oslash" unicode="&#xf8;" horiz-adv-x="1130" 
d="M596 98q64 0 134.5 32t149 115t78.5 240q0 86 -34.5 156t-100.5 109l-340 -635q49 -17 113 -17zM266 420q0 -78 30 -144.5t83 -107.5l338 633q-39 8 -97 8t-126 -32t-119 -85t-80 -123.5t-29 -148.5zM632 928q86 0 146 -15l72 136l108 -48l-69 -131q98 -53 151.5 -153.5
t53.5 -211.5q0 -219 -152.5 -373.5t-378.5 -154.5q-80 0 -141 25l-78 -147l-108 49l77 143q-86 57 -133 153t-47 204t40 202t109.5 166t166.5 114t183 42z" />
    <glyph glyph-name="ugrave" unicode="&#xf9;" horiz-adv-x="1146" 
d="M430 1325l76 107l479 -281l-74 -107zM556 98q141 0 232.5 104t104.5 240l49 465h131l-96 -907h-131l22 199q-49 -92 -143 -157t-227 -65q-177 0 -260 115q-67 91 -48 283l56 532h131l-51 -493q-20 -224 68.5 -270t161.5 -46z" />
    <glyph glyph-name="uacute" unicode="&#xfa;" horiz-adv-x="1146" 
d="M406 1151l540 281l51 -107l-538 -281zM556 98q141 0 232.5 104t104.5 240l49 465h131l-96 -907h-131l22 199q-49 -92 -143 -157t-227 -65q-177 0 -260 115q-67 91 -48 283l56 532h131l-51 -493q-20 -224 68.5 -270t161.5 -46z" />
    <glyph glyph-name="ucircumflex" unicode="&#xfb;" horiz-adv-x="1148" 
d="M326 1182l399 297l338 -297l-92 -95l-262 232l-310 -229zM556 98q141 0 232.5 104t104.5 240l49 465h131l-96 -907h-131l22 199q-49 -92 -143 -157t-227 -65q-177 0 -260 115q-67 91 -48 283l56 532h131l-51 -493q-20 -224 68.5 -270t161.5 -46z" />
    <glyph glyph-name="udieresis" unicode="&#xfc;" horiz-adv-x="1146" 
d="M809 1233q0 51 40 90t91 39t82 -32t31 -83t-40 -90t-91 -39t-82 32t-31 83zM338 1233q0 51 40 90t91 39t82 -32t31 -83t-40 -90t-92 -39t-82 32t-30 83zM556 98q141 0 232.5 104t104.5 240l49 465h131l-96 -907h-131l22 199q-49 -92 -143 -157t-227 -65q-177 0 -260 115
q-67 91 -48 283l56 532h131l-51 -493q-20 -224 68.5 -270t161.5 -46z" />
    <glyph glyph-name="yacute" unicode="&#xfd;" horiz-adv-x="1163" 
d="M426 1151l541 281l51 -107l-539 -281zM534 -23q-197 0 -276 111q-37 51 -46 119.5t1 177.5l55 522h131l-51 -483q-36 -326 221 -326q152 0 242.5 103t103.5 241l50 465h131l-105 -993q-27 -246 -147.5 -354.5t-331.5 -108.5q-399 0 -371 414h129q-27 -293 262 -293
q147 0 227.5 77t100.5 265l31 285q-53 -98 -147 -160t-210 -62z" />
    <glyph glyph-name="thorn" unicode="&#xfe;" horiz-adv-x="1208" 
d="M432.5 189q84.5 -91 239.5 -91q154 0 261 115.5t107 263.5q0 147 -83 239.5t-235 92.5t-263 -115t-111 -265q0 -149 84.5 -240zM746 928q200 0 315 -125t115 -320t-151 -350.5t-363 -155.5q-135 0 -219.5 61.5t-118.5 154.5l-76 -719h-133l207 1960h133l-76 -721
q57 100 158 157.5t209 57.5z" />
    <glyph glyph-name="ydieresis" unicode="&#xff;" horiz-adv-x="1163" 
d="M846 1233q0 49 39 87t89 38t79.5 -31t29.5 -81t-37.5 -87t-87.5 -37t-81 31t-31 80zM375 1233q0 49 39 87t89 38t79.5 -31t29.5 -81t-38 -87t-88 -37t-80.5 31t-30.5 80zM534 -23q-197 0 -276 111q-37 51 -46 119.5t1 177.5l55 522h131l-51 -483q-36 -326 221 -326
q152 0 242.5 103t103.5 241l50 465h131l-105 -993q-27 -246 -147.5 -354.5t-331.5 -108.5q-399 0 -371 414h129q-27 -293 262 -293q147 0 227.5 77t100.5 265l31 285q-53 -98 -147 -160t-210 -62z" />
    <glyph glyph-name="Amacron" unicode="&#x100;" horiz-adv-x="1118" 
d="M365 1638l12 121h733l-12 -121h-733zM330 383h540l-184 831zM14 0l645 1434h105l342 -1434h-145l-62 258h-627l-112 -258h-146z" />
    <glyph glyph-name="amacron" unicode="&#x101;" horiz-adv-x="1212" 
d="M313 1180l13 120h733l-12 -120h-734zM350 190.5q84 -92.5 237 -92.5t262 113.5t109 275.5q0 218 -117.5 270t-196.5 52t-148.5 -32t-149.5 -115t-80 -231t84 -240.5zM133 418q0 96 40 189t150 207t324 114q123 0 212 -56.5t126 -158.5l21 194h133l-97 -907h-133l21 193
q-53 -92 -150.5 -154t-211.5 -62t-190.5 35t-130.5 93.5t-84 137.5t-30 175z" />
    <glyph glyph-name="Abreve" unicode="&#x102;" horiz-adv-x="1118" 
d="M730 1630q108 0 193 46t113 132h127q-27 -131 -157.5 -215t-288.5 -84q-159 0 -266 85t-115 214h125q16 -86 88.5 -132t180.5 -46zM330 383h540l-184 831zM14 0l645 1434h105l342 -1434h-145l-62 258h-627l-112 -258h-146z" />
    <glyph glyph-name="abreve" unicode="&#x103;" horiz-adv-x="1212" 
d="M684 1255q109 0 194 47.5t113 131.5h125q-48 -203 -210 -250t-238 -47q-155 0 -263 82.5t-116 214.5h127q14 -86 86.5 -132.5t181.5 -46.5zM350 190.5q84 -92.5 237 -92.5t262 113.5t109 275.5q0 218 -117.5 270t-196.5 52t-148.5 -32t-149.5 -115t-80 -231t84 -240.5z
M133 418q0 96 40 189t150 207t324 114q123 0 212 -56.5t126 -158.5l21 194h133l-97 -907h-133l21 193q-53 -92 -150.5 -154t-211.5 -62t-190.5 35t-130.5 93.5t-84 137.5t-30 175z" />
    <glyph glyph-name="Aogonek" unicode="&#x104;" horiz-adv-x="1118" 
d="M330 383h540l-184 831zM901 -211q0 -49 33 -85t96 -36t152 29l-13 -100q-102 -31 -197 -31q-94 0 -148 52t-54 127t46 133.5t145 121.5l-62 258h-627l-112 -258h-146l645 1434h105l342 -1434h-51q-154 -105 -154 -211z" />
    <glyph glyph-name="aogonek" unicode="&#x105;" horiz-adv-x="1212" 
d="M350 190.5q84 -92.5 237 -92.5t262 113.5t109 275.5q0 218 -117.5 270t-196.5 52t-148.5 -32t-149.5 -115t-80 -231t84 -240.5zM852 -211q0 -49 33 -85t96 -36t152 29l-15 -100q-102 -31 -197 -31q-94 0 -148 52t-54 127t46 133.5t144 121.5l21 193q-53 -92 -150.5 -154
t-211.5 -62q-203 0 -319 126t-116 320t150 349.5t364 155.5q123 0 212 -56.5t126 -158.5l21 194h133l-97 -907h-36q-154 -102 -154 -211z" />
    <glyph glyph-name="Cacute" unicode="&#x106;" horiz-adv-x="1587" 
d="M700 1640l539 281l53 -104l-540 -281zM160 656q0 148 57 295t162.5 260.5t257 183t314.5 69.5q298 0 463.5 -140.5t187.5 -371.5h-144q-21 171 -149 279t-338 108q-154 0 -278 -57t-211 -152.5t-134 -218.5t-47 -245q0 -245 148.5 -407.5t400.5 -162.5q191 0 335.5 94.5
t209.5 231.5h151q-79 -195 -272 -324t-443 -129q-307 0 -489 195t-182 492z" />
    <glyph glyph-name="cacute" unicode="&#x107;" horiz-adv-x="1073" 
d="M362 1065l539 281l53 -107l-540 -281zM141 411q0 92 34 186.5t137.5 213.5t340.5 119q196 0 289.5 -106.5t89.5 -248.5h-131q0 102 -63.5 168t-175.5 66q-194 0 -292 -115.5t-98 -279.5q0 -214 111 -265t212 -51t176 58.5t103 154.5h134q-37 -146 -155.5 -240t-308.5 -94
t-296.5 123t-106.5 311z" />
    <glyph glyph-name="Ccircumflex" unicode="&#x108;" horiz-adv-x="1587" 
d="M616 1634l400 297l338 -297l-92 -94l-263 232l-307 -230zM160 656q0 148 57 295t162.5 260.5t257 183t314.5 69.5q298 0 463.5 -140.5t187.5 -371.5h-144q-21 171 -149 279t-338 108q-154 0 -278 -57t-211 -152.5t-134 -218.5t-47 -245q0 -245 148.5 -407.5t400.5 -162.5
q191 0 335.5 94.5t209.5 231.5h151q-79 -195 -272 -324t-443 -129q-307 0 -489 195t-182 492z" />
    <glyph glyph-name="ccircumflex" unicode="&#x109;" horiz-adv-x="1073" 
d="M299 1182l399 297l338 -297l-92 -95l-262 232l-309 -229zM141 411q0 92 34 186.5t137.5 213.5t340.5 119q196 0 289.5 -106.5t89.5 -248.5h-131q0 102 -63.5 168t-175.5 66q-194 0 -292 -115.5t-98 -279.5q0 -214 111 -265t212 -51t176 58.5t103 154.5h134
q-37 -146 -155.5 -240t-308.5 -94t-296.5 123t-106.5 311z" />
    <glyph glyph-name="Cdotaccent" unicode="&#x10a;" horiz-adv-x="1587" 
d="M870 1704q0 51 41 91t93 40t82 -31.5t30 -83.5t-41 -90.5t-92 -38.5t-82 31t-31 82zM160 656q0 148 57 295t162.5 260.5t257 183t314.5 69.5q298 0 463.5 -140.5t187.5 -371.5h-144q-21 171 -149 279t-338 108q-154 0 -278 -57t-211 -152.5t-134 -218.5t-47 -245
q0 -245 148.5 -407.5t400.5 -162.5q191 0 335.5 94.5t209.5 231.5h151q-79 -195 -272 -324t-443 -129q-307 0 -489 195t-182 492z" />
    <glyph glyph-name="cdotaccent" unicode="&#x10b;" horiz-adv-x="1073" 
d="M559 1232q0 50 40 90t91 40t82 -33t31 -83t-40 -89t-91 -39t-82 32t-31 82zM141 411q0 92 34 186.5t137.5 213.5t340.5 119q196 0 289.5 -106.5t89.5 -248.5h-131q0 102 -63.5 168t-175.5 66q-194 0 -292 -115.5t-98 -279.5q0 -214 111 -265t212 -51t176 58.5t103 154.5
h134q-37 -146 -155.5 -240t-308.5 -94t-296.5 123t-106.5 311z" />
    <glyph glyph-name="Ccaron" unicode="&#x10c;" horiz-adv-x="1587" 
d="M672 1837l82 94l227 -235l281 235l65 -94l-362 -297zM160 656q0 148 57 295t162.5 260.5t257 183t314.5 69.5q298 0 463.5 -140.5t187.5 -371.5h-144q-21 171 -149 279t-338 108q-154 0 -278 -57t-211 -152.5t-134 -218.5t-47 -245q0 -245 148.5 -407.5t400.5 -162.5
q191 0 335.5 94.5t209.5 231.5h151q-79 -195 -272 -324t-443 -129q-307 0 -489 195t-182 492z" />
    <glyph glyph-name="ccaron" unicode="&#x10d;" horiz-adv-x="1073" 
d="M367 1386l84 93l227 -234l280 234l64 -93l-360 -296zM141 411q0 92 34 186.5t137.5 213.5t340.5 119q196 0 289.5 -106.5t89.5 -248.5h-131q0 102 -63.5 168t-175.5 66q-194 0 -292 -115.5t-98 -279.5q0 -214 111 -265t212 -51t176 58.5t103 154.5h134
q-37 -146 -155.5 -240t-308.5 -94t-296.5 123t-106.5 311z" />
    <glyph glyph-name="Dcaron" unicode="&#x10e;" horiz-adv-x="1421" 
d="M555 1837l82 94l229 -235l281 235l63 -94l-360 -297zM604 127q294 0 434 146.5t186 261.5t46 227q0 230 -144.5 388.5t-398.5 158.5h-281l-122 -1182h280zM741 1434q311 0 491.5 -191t180.5 -461q0 -145 -57.5 -285.5t-164 -251t-259 -178t-342.5 -67.5h-420l152 1434
h419z" />
    <glyph glyph-name="dcaron" unicode="&#x10f;" horiz-adv-x="1419" 
d="M1382 1239q-40 0 -69 29.5t-29 78.5t39 88.5t98 39.5t96 -42t37 -141q0 -139 -78.5 -207.5t-211.5 -68.5l8 69q72 0 121 43.5t49 126.5q-20 -16 -60 -16zM350 190.5q84 -92.5 237 -92.5t262 113.5t109 275.5q0 218 -117.5 270t-196.5 52t-148.5 -32t-149.5 -115t-80 -231
t84 -240.5zM133 418q0 96 40 189t150 207t324 114q123 0 212 -56.5t126 -158.5l76 721h133l-152 -1434h-133l21 193q-53 -92 -150.5 -154t-211.5 -62t-190.5 35t-130.5 93.5t-84 137.5t-30 175z" />
    <glyph glyph-name="Dcroat" unicode="&#x110;" horiz-adv-x="1421" 
d="M602 127q154 0 278 55.5t211 146.5t133 206t46 227q0 230 -144.5 388.5t-398.5 158.5h-281l-55 -527h299l-12 -118h-299l-57 -537h280zM741 1434q311 0 491.5 -191t180.5 -461q0 -145 -57.5 -285.5t-164 -251t-259 -178t-342.5 -67.5h-420l70 664h-295l12 118h295l70 652
h419z" />
    <glyph glyph-name="dcroat" unicode="&#x111;" horiz-adv-x="1212" 
d="M350 190.5q84 -92.5 237 -92.5t262 113.5t109 275.5q0 218 -117.5 270t-196.5 52t-148.5 -32t-149.5 -115t-80 -231t84 -240.5zM133 418q0 96 40 189t150 207t324 114q123 0 212 -56.5t126 -158.5l39 385h-219l14 119h219l23 217h133l-23 -217h127l-14 -119h-127
l-115 -1098h-133l21 193q-53 -92 -150.5 -154t-211.5 -62t-190.5 35t-130.5 93.5t-84 137.5t-30 175z" />
    <glyph glyph-name="Emacron" unicode="&#x112;" horiz-adv-x="1112" 
d="M362 1638l13 121h733l-12 -121h-734zM170 0l152 1434h782l-14 -125h-644l-55 -533h643l-14 -127h-643l-53 -522h643l-15 -127h-782z" />
    <glyph glyph-name="emacron" unicode="&#x113;" horiz-adv-x="1062" 
d="M295 1219l12 118h733l-12 -118h-733zM619 815q-130 0 -220 -78t-112 -209h600q12 129 -63 208t-205 79zM1018 562q0 -71 -19 -136h-725q-13 -144 57 -239t224 -95q117 0 186.5 50.5t102.5 117.5h133q-38 -116 -155 -199.5t-279 -83.5q-198 0 -300 122.5t-102 324.5
q0 201 136.5 352.5t349.5 151.5q175 0 283 -105t108 -261z" />
    <glyph glyph-name="Ebreve" unicode="&#x114;" horiz-adv-x="1112" 
d="M730 1628q108 0 192 47t112 131h127q-32 -136 -162.5 -216.5t-285.5 -80.5t-263 83.5t-116 213.5h125q16 -86 89.5 -132t181.5 -46zM170 0l152 1434h782l-14 -125h-644l-55 -533h643l-14 -127h-643l-53 -522h643l-15 -127h-782z" />
    <glyph glyph-name="ebreve" unicode="&#x115;" horiz-adv-x="1062" 
d="M619 815q-130 0 -220 -78t-112 -209h600q12 129 -63 208t-205 79zM670 1255q109 0 193.5 47.5t113.5 131.5h125q-48 -203 -209.5 -250t-238.5 -47q-156 0 -263 82.5t-117 214.5h127q14 -86 87 -132.5t182 -46.5zM1018 562q0 -71 -19 -136h-725q-13 -144 57 -239t224 -95
q117 0 186.5 50.5t102.5 117.5h133q-38 -116 -155 -199.5t-279 -83.5q-198 0 -300 122.5t-102 324.5q0 201 136.5 352.5t349.5 151.5q175 0 283 -105t108 -261z" />
    <glyph glyph-name="Edotaccent" unicode="&#x116;" horiz-adv-x="1112" 
d="M614 1706q0 51 40 90t90 39t82 -31.5t32 -83.5t-41 -90.5t-91 -38.5t-81 32t-31 83zM170 0l152 1434h782l-14 -125h-644l-55 -533h643l-14 -127h-643l-53 -522h643l-15 -127h-782z" />
    <glyph glyph-name="edotaccent" unicode="&#x117;" horiz-adv-x="1062" 
d="M545 1231q0 51 41 90t91 39t82 -32t32 -83t-41.5 -90t-91.5 -39t-81.5 32t-31.5 83zM619 815q-130 0 -220 -78t-112 -209h600q12 129 -63 208t-205 79zM1018 562q0 -71 -19 -136h-725q-13 -144 57 -239t224 -95q117 0 186.5 50.5t102.5 117.5h133q-38 -116 -155 -199.5
t-279 -83.5q-198 0 -300 122.5t-102 324.5q0 201 136.5 352.5t349.5 151.5q175 0 283 -105t108 -261z" />
    <glyph glyph-name="Eogonek" unicode="&#x118;" horiz-adv-x="1112" 
d="M797 -205q0 -55 33.5 -91t99.5 -36t147 29l-12 -100q-102 -31 -197 -31q-94 0 -148 52t-54 127t46 133.5t144 121.5h-686l152 1434h782l-14 -125h-644l-55 -533h643l-14 -127h-643l-53 -522h643l-15 -127q-155 -103 -155 -205z" />
    <glyph glyph-name="eogonek" unicode="&#x119;" horiz-adv-x="1062" 
d="M619 815q-130 0 -220 -78t-112 -209h600q12 129 -63 208t-205 79zM1018 562q0 -71 -19 -136h-725q-13 -144 57 -239t224 -95q117 0 186.5 50.5t102.5 117.5h133q-36 -105 -138 -186.5t-251 -93.5q-123 -92 -123 -191q0 -51 32.5 -86t93.5 -35t154 29l-12 -100
q-108 -31 -201 -31q-92 0 -145 52t-53 124t39 127t121 113q-175 15 -264 135t-89 291q0 219 135.5 369.5t350.5 150.5q175 0 283 -105t108 -261z" />
    <glyph glyph-name="Ecaron" unicode="&#x11a;" horiz-adv-x="1112" 
d="M420 1837l84 94l227 -235l281 235l63 -94l-360 -297zM170 0l152 1434h782l-14 -125h-644l-55 -533h643l-14 -127h-643l-53 -522h643l-15 -127h-782z" />
    <glyph glyph-name="ecaron" unicode="&#x11b;" horiz-adv-x="1062" 
d="M354 1386l82 93l230 -234l280 234l64 -93l-361 -296zM619 815q-130 0 -220 -78t-112 -209h600q12 129 -63 208t-205 79zM1018 562q0 -71 -19 -136h-725q-13 -144 57 -239t224 -95q117 0 186.5 50.5t102.5 117.5h133q-38 -116 -155 -199.5t-279 -83.5q-198 0 -300 122.5
t-102 324.5q0 201 136.5 352.5t349.5 151.5q175 0 283 -105t108 -261z" />
    <glyph glyph-name="Gcircumflex" unicode="&#x11c;" horiz-adv-x="1705" 
d="M627 1638l399 297l338 -297l-92 -94l-262 230l-310 -230zM158 652q0 146 59 295t165.5 264.5t256 184t300.5 68.5q264 0 416.5 -115.5t168.5 -285.5h-142q-26 121 -138 198.5t-273 77.5q-160 0 -282 -58t-208 -153.5t-134 -220.5t-48 -245q0 -242 142 -404t407 -162
q223 0 367 119.5t192 321.5h-403l14 127h700l-14 -127h-152q-60 -259 -251 -413.5t-472 -154.5q-318 0 -494.5 193.5t-176.5 489.5z" />
    <glyph glyph-name="gcircumflex" unicode="&#x11d;" horiz-adv-x="1208" 
d="M313 1182l400 297l338 -297l-93 -95l-262 232l-309 -229zM352 190.5q84 -92.5 236 -92.5t262.5 115t110.5 265t-84 240.5t-239 90.5t-262.5 -116t-107.5 -263t84 -239.5zM522 -428q344 0 381 356l29 267q-53 -92 -151.5 -155t-210.5 -63q-201 0 -319 125.5t-118 319.5
q0 195 150 350.5t366 155.5q133 0 217 -60.5t119 -152.5l21 192h133l-103 -979q-52 -477 -522 -477q-234 0 -334.5 115t-91.5 303h133q-7 -205 100 -251t201 -46z" />
    <glyph glyph-name="Gbreve" unicode="&#x11e;" horiz-adv-x="1705" 
d="M992 1630q108 0 194 47t114 131h125q-32 -136 -162.5 -216.5t-285.5 -80.5t-263 82.5t-116 214.5h127q14 -86 86.5 -132t180.5 -46zM158 652q0 146 59 295t165.5 264.5t256 184t300.5 68.5q264 0 416.5 -115.5t168.5 -285.5h-142q-26 121 -138 198.5t-273 77.5
q-160 0 -282 -58t-208 -153.5t-134 -220.5t-48 -245q0 -242 142 -404t407 -162q223 0 367 119.5t192 321.5h-403l14 127h700l-14 -127h-152q-60 -259 -251 -413.5t-472 -154.5q-318 0 -494.5 193.5t-176.5 489.5z" />
    <glyph glyph-name="gbreve" unicode="&#x11f;" horiz-adv-x="1208" 
d="M690 1255q108 0 192.5 47.5t112.5 131.5h127q-28 -134 -159 -215.5t-286 -81.5t-264.5 82t-117.5 215h125q16 -86 89 -132.5t181 -46.5zM352 190.5q84 -92.5 236 -92.5t262.5 115t110.5 265t-84 240.5t-239 90.5t-262.5 -116t-107.5 -263t84 -239.5zM522 -428
q344 0 381 356l29 267q-53 -92 -151.5 -155t-210.5 -63q-201 0 -319 125.5t-118 319.5q0 195 150 350.5t366 155.5q133 0 217 -60.5t119 -152.5l21 192h133l-103 -979q-52 -477 -522 -477q-234 0 -334.5 115t-91.5 303h133q-7 -205 100 -251t201 -46z" />
    <glyph glyph-name="Gdotaccent" unicode="&#x120;" horiz-adv-x="1705" 
d="M879 1706q0 51 41 90t91 39t81.5 -31.5t31.5 -83.5t-42 -90.5t-92 -38.5t-80.5 32t-30.5 83zM158 652q0 146 59 295t165.5 264.5t256 184t300.5 68.5q264 0 416.5 -115.5t168.5 -285.5h-142q-26 121 -138 198.5t-273 77.5q-160 0 -282 -58t-208 -153.5t-134 -220.5
t-48 -245q0 -242 142 -404t407 -162q223 0 367 119.5t192 321.5h-403l14 127h700l-14 -127h-152q-60 -259 -251 -413.5t-472 -154.5q-318 0 -494.5 193.5t-176.5 489.5z" />
    <glyph glyph-name="gdotaccent" unicode="&#x121;" horiz-adv-x="1208" 
d="M559 1231q0 51 40 90t90 39t82 -32t32 -83t-41 -90t-91 -39t-81 32t-31 83zM352 190.5q84 -92.5 236 -92.5t262.5 115t110.5 265t-84 240.5t-239 90.5t-262.5 -116t-107.5 -263t84 -239.5zM522 -428q344 0 381 356l29 267q-53 -92 -151.5 -155t-210.5 -63
q-201 0 -319 125.5t-118 319.5q0 195 150 350.5t366 155.5q133 0 217 -60.5t119 -152.5l21 192h133l-103 -979q-52 -477 -522 -477q-234 0 -334.5 115t-91.5 303h133q-7 -205 100 -251t201 -46z" />
    <glyph glyph-name="Gcommaaccent" unicode="&#x122;" horiz-adv-x="1705" 
d="M783 -254q-32 0 -56.5 24.5t-24.5 64.5t32 73t79 33t80 -33.5t33 -131.5t-65.5 -155t-176.5 -57l8 61q94 0 123 66q10 20 12 39.5t4 27.5q-16 -12 -48 -12zM158 652q0 146 59 295t165.5 264.5t256 184t300.5 68.5q264 0 416.5 -115.5t168.5 -285.5h-142
q-26 121 -138 198.5t-273 77.5q-160 0 -282 -58t-208 -153.5t-134 -220.5t-48 -245q0 -242 142 -404t407 -162q223 0 367 119.5t192 321.5h-403l14 127h700l-14 -127h-152q-60 -259 -251 -413.5t-472 -154.5q-318 0 -494.5 193.5t-176.5 489.5z" />
    <glyph glyph-name="gcommaaccent" unicode="&#x123;" horiz-adv-x="1208" 
d="M535 1253q0 139 78.5 208t211.5 69l-8 -70q-110 0 -146 -80q-28 -62 -22 -90q16 16 57 16t70 -29.5t29 -78.5t-39 -88t-97 -39t-96 42t-38 140zM352 190.5q84 -92.5 236 -92.5t262.5 115t110.5 265t-84 240.5t-239 90.5t-262.5 -116t-107.5 -263t84 -239.5zM522 -428
q344 0 381 356l29 267q-53 -92 -151.5 -155t-210.5 -63q-201 0 -319 125.5t-118 319.5q0 195 150 350.5t366 155.5q133 0 217 -60.5t119 -152.5l21 192h133l-103 -979q-52 -477 -522 -477q-234 0 -334.5 115t-91.5 303h133q-7 -205 100 -251t201 -46z" />
    <glyph glyph-name="Hcircumflex" unicode="&#x124;" horiz-adv-x="1357" 
d="M481 1634l400 297l338 -297l-93 -94l-262 232l-309 -230zM170 0l152 1434h139l-70 -658h739l70 658h139l-151 -1434h-139l67 649h-739l-68 -649h-139z" />
    <glyph glyph-name="hcircumflex" unicode="&#x125;" horiz-adv-x="1150" 
d="M424 1634l399 297l338 -297l-92 -94l-262 232l-309 -230zM750 928q177 0 251 -106t54 -290l-56 -532h-133l52 494q20 222 -69 268.5t-162 46.5q-143 0 -232.5 -105.5t-102.5 -238.5l-49 -465h-133l152 1434h133l-78 -725q49 92 143 155.5t230 63.5z" />
    <glyph glyph-name="Hbar" unicode="&#x126;" horiz-adv-x="1357" 
d="M391 776h739l27 260h-739zM170 0l152 1434h139l-31 -277h739l31 277h139l-151 -1434h-139l67 649h-739l-68 -649h-139z" />
    <glyph glyph-name="hbar" unicode="&#x127;" horiz-adv-x="1150" 
d="M748 928q179 0 253 -106t54 -290l-56 -532h-133l52 494q20 221 -70 268t-163 47q-140 0 -230 -104t-103 -240l-49 -465h-133l115 1098h-170l12 119h170l22 217h134l-23 -217h430l-12 -119h-430l-41 -389q47 92 141 155.5t230 63.5z" />
    <glyph glyph-name="Itilde" unicode="&#x128;" horiz-adv-x="483" 
d="M170 0l152 1434h143l-152 -1434h-143zM266 1673q-47 0 -153 -57l-50 90q119 73 161 75.5t62 2.5q32 0 137 -27.5t155 -27.5t157 55l43 -88q-115 -76 -186 -76t-138 18.5t-104 26.5t-84 8z" />
    <glyph glyph-name="itilde" unicode="&#x129;" horiz-adv-x="518" 
d="M193 0l94 907h133l-94 -907h-133zM234 1217q-47 0 -154 -58l-49 90q124 74 164.5 76t60.5 2q38 0 138 -27.5t149 -27.5t162 55l43 -90q-115 -76 -187 -76t-139.5 19.5t-104 28t-83.5 8.5z" />
    <glyph glyph-name="Imacron" unicode="&#x12a;" horiz-adv-x="483" 
d="M170 0l149 1434h144l-150 -1434h-143zM47 1638l12 121h734l-13 -121h-733z" />
    <glyph glyph-name="imacron" unicode="&#x12b;" horiz-adv-x="518" 
d="M203 0l96 907h131l-96 -907h-131zM16 1180l13 118h735l-12 -118h-736z" />
    <glyph glyph-name="Ibreve" unicode="&#x12c;" horiz-adv-x="483" 
d="M170 0l152 1434h143l-152 -1434h-143zM414 1630q109 0 193.5 46t113.5 132h125q-27 -130 -157 -214.5t-288 -84.5t-265.5 84.5t-117.5 214.5h125q16 -86 89 -132t182 -46z" />
    <glyph glyph-name="ibreve" unicode="&#x12d;" horiz-adv-x="518" 
d="M195 0l96 907h131l-96 -907h-131zM394 1255q108 0 192 47.5t112 131.5h127q-28 -134 -159 -215.5t-285 -81.5t-265.5 81.5t-119.5 215.5h127q16 -86 89.5 -132.5t181.5 -46.5z" />
    <glyph glyph-name="Iogonek" unicode="&#x12e;" horiz-adv-x="483" 
d="M239 -332q61 0 150 29l-10 -100q-108 -31 -201 -31q-92 0 -145 52t-53 127t46 133.5t144 121.5l149 1434h144l-150 -1434h-47q-155 -103 -155 -211q0 -49 33.5 -85t94.5 -36z" />
    <glyph glyph-name="iogonek" unicode="&#x12f;" horiz-adv-x="518" 
d="M285 1255q0 51 40 90t91 39t82.5 -31.5t31.5 -82.5t-40 -90t-92 -39t-82.5 31.5t-30.5 82.5zM150 -211q0 -49 32.5 -85t95.5 -36t152 29l-12 -100q-108 -31 -201 -31q-92 0 -145.5 52t-53.5 127t46.5 133.5t144.5 121.5l94 907h133l-94 -907h-37q-155 -103 -155 -211z
" />
    <glyph glyph-name="Idotaccent" unicode="&#x130;" horiz-adv-x="483" 
d="M299 1706q0 51 40 90t91 39t82 -31.5t31 -83.5t-40 -90.5t-91 -38.5t-82 32t-31 83zM170 0l152 1434h143l-152 -1434h-143z" />
    <glyph glyph-name="dotlessi" unicode="&#x131;" horiz-adv-x="454" 
d="M162 0l96 907h133l-96 -907h-133z" />
    <glyph glyph-name="IJ" unicode="&#x132;" horiz-adv-x="1579" 
d="M1227.5 190.5q95.5 94.5 111.5 251.5l105 992h137l-104 -992q-20 -208 -158.5 -340.5t-342.5 -132.5t-320.5 133.5t-92.5 341.5h137q-16 -158 65.5 -253t224.5 -95q142 0 237.5 94.5zM170 0l152 1434h143l-152 -1434h-143z" />
    <glyph glyph-name="ij" unicode="&#x133;" horiz-adv-x="1036" 
d="M791 1255q0 51 40.5 90t92.5 39t82 -31.5t30 -82.5t-40 -90t-91 -39t-82.5 31.5t-31.5 82.5zM545 -426q127 0 141 156l123 1177h133l-125 -1183q-16 -141 -80.5 -204t-150.5 -63t-146 25l13 115q53 -23 92 -23zM268 1255q0 51 41 90t92 39t82 -31.5t31 -82.5t-40 -90
t-91 -39t-83 31.5t-32 82.5zM193 0l96 907h133l-96 -907h-133z" />
    <glyph glyph-name="Jcircumflex" unicode="&#x134;" horiz-adv-x="1097" 
d="M680 1634l401 297l336 -297l-90 -94l-264 229l-307 -229zM744.5 189.5q93.5 93.5 109.5 252.5l104 992h140l-105 -992q-20 -209 -158 -341t-341 -132t-319.5 132.5t-96.5 342.5h139q-16 -159 67 -253.5t225 -94.5t235.5 93.5z" />
    <glyph glyph-name="jcircumflex" unicode="&#x135;" horiz-adv-x="520" 
d="M27 1241l401 297l336 -297l-92 -94l-262 229l-310 -229zM29 -426q123 0 139 156l123 1177h133l-125 -1183q-30 -267 -244 -267q-77 0 -133 25l12 115q53 -23 95 -23z" />
    <glyph glyph-name="Kcommaaccent" unicode="&#x136;" horiz-adv-x="1173" 
d="M630 -37.5q79 -0.5 79 -166.5q0 -98 -65.5 -154t-174.5 -56l6 62q59 0 96 30t43 103q-16 -12 -49 -12t-56.5 24.5t-23.5 66.5t33 72.5t112 30zM170 0l152 1434h139l-72 -674l741 674h179l-783 -717l631 -717h-178l-598 674l-72 -674h-139z" />
    <glyph glyph-name="kcommaaccent" unicode="&#x137;" horiz-adv-x="931" 
d="M503 -37.5q79 -0.5 79 -166.5q0 -98 -65.5 -154t-174.5 -56l6 62q59 0 96 30t43 103q-16 -12 -49 -12t-56.5 24.5t-23.5 66.5t33 72.5t112 30zM170 0l152 1434h133l-101 -953l471 426h174l-499 -454l403 -453h-174l-381 424l-45 -424h-133z" />
    <glyph glyph-name="kgreenlandic" unicode="&#x138;" horiz-adv-x="931" 
d="M170 0l96 907h133l-45 -426l471 426h174l-499 -454l403 -453h-174l-381 424l-45 -424h-133z" />
    <glyph glyph-name="Lacute" unicode="&#x139;" horiz-adv-x="864" 
d="M233 1640l541 281l51 -104l-538 -281zM170 0l152 1434h139l-137 -1307h493l-14 -127h-633z" />
    <glyph glyph-name="lacute" unicode="&#x13a;" horiz-adv-x="473" 
d="M170 0l149 1434h134l-150 -1434h-133zM121 1642l541 281l53 -104l-539 -281z" />
    <glyph glyph-name="Lcommaaccent" unicode="&#x13b;" horiz-adv-x="864" 
d="M350 -141q0 41 32 71.5t80 30.5t78.5 -36t30.5 -113q0 -115 -67.5 -171.5t-171.5 -56.5l6 64q88 0 123 63q10 17 18 70q-23 -14 -53 -14q-29 0 -52.5 25.5t-23.5 66.5zM170 0l152 1434h139l-137 -1307h493l-14 -127h-633z" />
    <glyph glyph-name="lcommaaccent" unicode="&#x13c;" horiz-adv-x="473" 
d="M170 0l152 1434h133l-152 -1434h-133zM197 -231q-33 0 -56.5 24.5t-23.5 64.5t30.5 72.5t77.5 32.5t80 -32.5t33 -130.5t-64.5 -156t-175.5 -58l6 62q95 0 123 65q6 14 12.5 26.5t6.5 41.5q-16 -12 -49 -12z" />
    <glyph glyph-name="Lcaron" unicode="&#x13d;" horiz-adv-x="864" 
d="M170 0l149 1434h140l-137 -1307h493l-12 -127h-633zM102 1837l82 94l230 -235l280 235l64 -94l-361 -297z" />
    <glyph glyph-name="lcaron" unicode="&#x13e;" horiz-adv-x="679" 
d="M642 1241q-40 0 -68.5 30t-28.5 80t39 88t98 38t96 -42t37 -139q0 -135 -78 -206.5t-213 -71.5l8 72q131 0 152 75.5t18 91.5q-20 -16 -60 -16zM170 0l152 1434h133l-152 -1434h-133z" />
    <glyph glyph-name="Ldot" unicode="&#x13f;" horiz-adv-x="864" 
d="M582 568q0 50 41 90t92 40t81.5 -32.5t30.5 -82.5t-39.5 -89t-91.5 -39t-83 31.5t-31 81.5zM170 0l152 1434h139l-137 -1307h493l-14 -127h-633z" />
    <glyph glyph-name="ldot" unicode="&#x140;" horiz-adv-x="655" 
d="M477 633q0 51 41 90t92 39t82 -32t31 -83t-40 -90t-91 -39t-83 32t-32 83zM170 0l152 1434h133l-152 -1434h-133z" />
    <glyph glyph-name="Lslash" unicode="&#x141;" horiz-adv-x="864" 
d="M115 526l14 131l115 54l78 723h139l-70 -664l344 160l-14 -131l-344 -158l-53 -514h493l-14 -127h-633l61 582z" />
    <glyph glyph-name="lslash" unicode="&#x142;" horiz-adv-x="473" 
d="M49 520l14 131l187 94l72 689h143l-66 -613l199 103l-14 -131l-197 -103l-74 -690h-143l66 614z" />
    <glyph glyph-name="Nacute" unicode="&#x143;" horiz-adv-x="1355" 
d="M573 1640l541 281l51 -104l-538 -281zM170 0l152 1434h153l596 -1194l127 1194h139l-151 -1434h-154l-598 1196l-125 -1196h-139z" />
    <glyph glyph-name="nacute" unicode="&#x144;" horiz-adv-x="1150" 
d="M432 1151l539 281l53 -107l-539 -281zM750 928q177 0 251 -106t54 -290l-56 -532h-133l52 494q20 222 -69 268.5t-162 46.5q-143 0 -232.5 -105.5t-102.5 -238.5l-49 -465h-133l96 907h133l-22 -198q49 92 143 155.5t230 63.5z" />
    <glyph glyph-name="Ncommaaccent" unicode="&#x145;" horiz-adv-x="1355" 
d="M569 -141q0 41 32 71.5t80 30.5t79 -36t31 -113q0 -115 -68 -171.5t-172 -56.5l6 64q112 0 126.5 60.5t14.5 72.5q-23 -14 -53 -14q-29 0 -52.5 25.5t-23.5 66.5zM170 0l152 1434h153l596 -1194l127 1194h139l-151 -1434h-154l-598 1196l-125 -1196h-139z" />
    <glyph glyph-name="ncommaaccent" unicode="&#x146;" horiz-adv-x="1150" 
d="M562 -231q-32 0 -55.5 24.5t-23.5 64.5t31 72.5t78 32.5t80 -32.5t33 -130.5t-65 -156t-175 -58l6 62q95 0 123 65q18 42 18 68q-18 -12 -50 -12zM750 928q177 0 251 -106t54 -290l-56 -532h-133l52 494q20 222 -69 268.5t-162 46.5q-143 0 -232.5 -105.5t-102.5 -238.5
l-49 -465h-133l96 907h133l-22 -198q49 92 143 155.5t230 63.5z" />
    <glyph glyph-name="Ncaron" unicode="&#x147;" horiz-adv-x="1355" 
d="M557 1837l84 94l227 -235l281 235l63 -94l-360 -297zM170 0l152 1434h153l596 -1194l127 1194h139l-151 -1434h-154l-598 1196l-125 -1196h-139z" />
    <glyph glyph-name="ncaron" unicode="&#x148;" horiz-adv-x="1150" 
d="M434 1444l84 92l227 -233l281 233l64 -92l-361 -297zM750 928q177 0 251 -106t54 -290l-56 -532h-133l52 494q20 222 -69 268.5t-162 46.5q-143 0 -232.5 -105.5t-102.5 -238.5l-49 -465h-133l96 907h133l-22 -198q49 92 143 155.5t230 63.5z" />
    <glyph glyph-name="napostrophe" unicode="&#x149;" horiz-adv-x="1150" 
d="M377 1284q-29 0 -52.5 25.5t-23.5 66.5t32 72t80 31t78.5 -36t30.5 -114q0 -115 -67.5 -171t-171.5 -56l6 63q89 0 121 61q20 40 20 72q-24 -14 -53 -14zM750 928q177 0 251 -106t54 -290l-56 -532h-133l52 494q20 222 -69 268.5t-162 46.5q-143 0 -232.5 -105.5
t-102.5 -238.5l-49 -465h-133l96 907h133l-22 -198q49 92 143 155.5t230 63.5z" />
    <glyph glyph-name="Eng" unicode="&#x14a;" horiz-adv-x="1355" 
d="M679 -420q156 0 248.5 94.5t110.5 253.5l9 70l-613 1198l-125 -1196h-139l152 1434h143l608 -1186l125 1186h137l-157 -1506q-20 -208 -158.5 -340.5t-339.5 -132.5q-236 0 -348 178l100 88q91 -141 247 -141z" />
    <glyph glyph-name="eng" unicode="&#x14b;" horiz-adv-x="1150" 
d="M515 -428q142 0 233.5 91t107.5 247l62 584q20 222 -69 268.5t-162 46.5q-143 0 -232.5 -105.5t-102.5 -238.5l-49 -465h-133l96 907h133l-22 -198q49 92 143 155.5t230 63.5q177 0 251 -106t54 -290l-66 -622q-20 -203 -154 -331t-337 -128t-318 156l96 84
q97 -119 239 -119z" />
    <glyph glyph-name="Omacron" unicode="&#x14c;" horiz-adv-x="1650" 
d="M631 1638l14 121h733l-14 -121h-733zM305 665q0 -240 142.5 -404.5t392.5 -164.5q145 0 267 57.5t209 152.5t135 219t48 244q0 244 -143 407t-393 163q-145 0 -266.5 -58t-208.5 -153.5t-135 -218.5t-48 -244zM160 656q0 144 59.5 293t166 262.5t256 183t321.5 69.5
q325 0 502 -199t177 -477q0 -158 -59 -305t-165.5 -260.5t-257.5 -183.5t-323 -70t-296.5 55.5t-208.5 149.5t-128 216t-44 266z" />
    <glyph glyph-name="omacron" unicode="&#x14d;" horiz-adv-x="1130" 
d="M324 1180l12 118h733l-12 -118h-733zM350 190.5q84 -92.5 238 -92.5t263.5 115.5t109.5 264.5q0 148 -85 239.5t-237 91.5q-151 0 -262 -115t-111 -263t84 -240.5zM133 416q0 96 40 190t150 208t324 114q213 0 330 -124.5t117 -320.5q0 -197 -152.5 -351.5t-363.5 -154.5
t-328 124t-117 315z" />
    <glyph glyph-name="Obreve" unicode="&#x14e;" horiz-adv-x="1650" 
d="M998 1628q108 0 193 47t114 131h125q-27 -132 -158.5 -214.5t-287.5 -82.5t-265 83.5t-117 213.5h127q14 -86 87.5 -132t181.5 -46zM305 665q0 -240 142.5 -404.5t392.5 -164.5q145 0 267 57.5t209 152.5t135 219t48 244q0 244 -143 407t-393 163q-145 0 -266.5 -58
t-208.5 -153.5t-135 -218.5t-48 -244zM160 656q0 144 59.5 293t166 262.5t256 183t321.5 69.5q325 0 502 -199t177 -477q0 -158 -59 -305t-165.5 -260.5t-257.5 -183.5t-323 -70t-296.5 55.5t-208.5 149.5t-128 216t-44 266z" />
    <glyph glyph-name="obreve" unicode="&#x14f;" horiz-adv-x="1130" 
d="M698 1255q108 0 192.5 47.5t113.5 131.5h126q-28 -134 -159 -215.5t-286 -81.5t-264.5 82.5t-117.5 214.5h125q16 -86 89 -132.5t181 -46.5zM350 190.5q84 -92.5 238 -92.5t263.5 115.5t109.5 264.5q0 148 -85 239.5t-237 91.5q-151 0 -262 -115t-111 -263t84 -240.5z
M133 416q0 96 40 190t150 208t324 114q213 0 330 -124.5t117 -320.5q0 -197 -152.5 -351.5t-363.5 -154.5t-328 124t-117 315z" />
    <glyph glyph-name="Ohungarumlaut" unicode="&#x150;" horiz-adv-x="1650" 
d="M1096 1692l293 340l110 -60l-336 -319zM696 1692l293 340l111 -60l-336 -319zM305 665q0 -240 142.5 -404.5t392.5 -164.5q145 0 267 57.5t209 152.5t135 219t48 244q0 244 -143 407t-393 163q-145 0 -266.5 -58t-208.5 -153.5t-135 -218.5t-48 -244zM160 656
q0 144 59.5 293t166 262.5t256 183t321.5 69.5q325 0 502 -199t177 -477q0 -158 -59 -305t-165.5 -260.5t-257.5 -183.5t-323 -70t-296.5 55.5t-208.5 149.5t-128 216t-44 266z" />
    <glyph glyph-name="ohungarumlaut" unicode="&#x151;" horiz-adv-x="1130" 
d="M772 1108l291 340l113 -57l-336 -322zM373 1108l291 340l112 -57l-336 -320zM350 190.5q84 -92.5 238 -92.5t263.5 115.5t109.5 264.5q0 148 -85 239.5t-237 91.5q-151 0 -262 -115t-111 -263t84 -240.5zM133 416q0 96 40 190t150 208t324 114q213 0 330 -124.5
t117 -320.5q0 -197 -152.5 -351.5t-363.5 -154.5t-328 124t-117 315z" />
    <glyph glyph-name="OE" unicode="&#x152;" horiz-adv-x="2361" 
d="M305 663q0 -240 142.5 -404.5t394.5 -164.5q145 0 266 57.5t208 152.5t135 218t48 244q0 245 -143 408t-393 163q-147 0 -268.5 -58t-207.5 -153.5t-134 -218.5t-48 -244zM1452 305q-220 -338 -656 -338q-132 0 -256 55.5t-208 149.5t-128 217t-44 267t58 292t166 261.5
t259.5 183t348.5 69.5t311.5 -77.5t152 -146.5t45.5 -92.5t10 -21.5q23 19 32 64t28 246h782l-12 -125h-643l-58 -533h644l-13 -127h-643l-55 -522h643l-14 -127h-783z" />
    <glyph glyph-name="oe" unicode="&#x153;" horiz-adv-x="1878" 
d="M1209 732q-91 -83 -107 -204h598q12 127 -60.5 207t-205.5 80q-134 0 -225 -83zM350.5 189q84.5 -91 236.5 -91t261.5 113.5t109.5 263.5t-84.5 242t-235.5 92t-261.5 -116.5t-110.5 -264.5t84.5 -239zM1831 562q0 -71 -19 -136h-722q-17 -148 55.5 -241t206.5 -93
q135 0 203.5 50.5t101.5 117.5h135q-39 -118 -157.5 -200.5t-271.5 -82.5t-243 68t-127 170q-66 -104 -177 -171t-233 -67q-216 0 -333 124.5t-117 321.5t150.5 351t375.5 154q145 0 242.5 -64.5t140.5 -169.5q59 111 166.5 172.5t215.5 61.5t178.5 -28t122 -78t79 -119.5
t27.5 -140.5z" />
    <glyph glyph-name="Racute" unicode="&#x154;" horiz-adv-x="1232" 
d="M502 1640l540 281l52 -104l-539 -281zM727 610q163 0 271 111.5t108 258.5t-84.5 238t-220.5 91h-355l-73 -699h354zM815 1434q194 0 313 -123t119 -303t-107 -317t-280 -185l268 -506h-159l-256 485h-353l-51 -485h-139l152 1434h493z" />
    <glyph glyph-name="racute" unicode="&#x155;" horiz-adv-x="722" 
d="M233 1171l541 281l51 -106l-538 -281zM690 795q-59 0 -188 -63t-156 -329l-43 -403h-133l96 907h133l-22 -215q51 111 146 169.5t200 58.5q54 0 84 -15l-12 -121q-46 11 -105 11z" />
    <glyph glyph-name="Rcommaaccent" unicode="&#x156;" horiz-adv-x="1232" 
d="M570 -233q-27 0 -49.5 24.5t-22.5 66.5t31.5 72.5t78.5 30.5t79 -36t32 -113q0 -115 -67.5 -171.5t-172.5 -56.5l6 64q147 0 148 116q0 16 -6 15q-30 -12 -57 -12zM727 610q163 0 271 111.5t108 258.5t-84.5 238t-220.5 91h-355l-73 -699h354zM815 1434q194 0 313 -123
t119 -303t-107 -317t-280 -185l268 -506h-159l-256 485h-353l-51 -485h-139l152 1434h493z" />
    <glyph glyph-name="rcommaaccent" unicode="&#x157;" horiz-adv-x="722" 
d="M690 795q-59 0 -188 -63t-156 -329l-43 -403h-133l96 907h133l-22 -215q51 111 146 169.5t200 58.5q56 0 86 -15l-14 -121q-46 11 -105 11zM197 -231q-33 0 -56.5 24.5t-23.5 64.5t30.5 72.5t77.5 32.5t80 -32.5t33 -130.5t-64.5 -156t-175.5 -58l6 62q95 0 123 65
q6 14 12.5 26.5t6.5 41.5q-16 -12 -49 -12z" />
    <glyph glyph-name="Rcaron" unicode="&#x158;" horiz-adv-x="1232" 
d="M461 1839l82 94l229 -235l281 235l63 -94l-360 -297zM727 610q163 0 271 111.5t108 258.5t-84.5 238t-220.5 91h-355l-73 -699h354zM815 1434q194 0 313 -123t119 -303t-107 -317t-280 -185l268 -506h-159l-256 485h-353l-51 -485h-139l152 1434h493z" />
    <glyph glyph-name="rcaron" unicode="&#x159;" horiz-adv-x="722" 
d="M209 1444l82 94l229 -235l281 235l63 -94l-360 -297zM690 795q-59 0 -188 -63t-156 -329l-43 -403h-133l96 907h133l-22 -215q51 111 146 169.5t200 58.5q54 0 84 -15l-12 -121q-46 11 -105 11z" />
    <glyph glyph-name="Sacute" unicode="&#x15a;" horiz-adv-x="1171" 
d="M481 1640l539 281l53 -104l-538 -281zM979 395q0 167 -116.5 209.5t-190.5 64.5t-152 49t-168 91.5t-90 245.5q0 180 137.5 294.5t347.5 114.5t316.5 -117.5t89.5 -312.5h-137q10 150 -62.5 227.5t-218.5 77.5q-227 0 -280.5 -105.5t-53.5 -169.5q0 -118 69.5 -166
t186.5 -83t289 -97t172 -304q0 -203 -150 -324t-374 -121t-349.5 131.5t-101.5 343.5h140q-16 -158 71.5 -253t254.5 -95t268.5 82t101.5 217z" />
    <glyph glyph-name="sacute" unicode="&#x15b;" horiz-adv-x="921" 
d="M293 1151l538 281l54 -107l-539 -281zM655.5 130q61.5 42 61.5 119q0 105 -154 136t-207 49.5t-110.5 61t-57.5 163.5t103.5 195t259.5 74t246.5 -82t72.5 -219h-129q10 94 -44 143t-154 49t-163 -41t-63 -115t54 -100t156 -46q101 -19 210 -55.5t109 -197.5
q0 -133 -103 -210t-270 -77q-263 0 -311.5 122t-38.5 208h129q-22 -219 231 -219q111 0 172.5 42z" />
    <glyph glyph-name="Scircumflex" unicode="&#x15c;" horiz-adv-x="1171" 
d="M403 1634l400 297l338 -297l-92 -94l-263 232l-309 -230zM979 395q0 167 -116.5 209.5t-190.5 64.5t-152 49t-168 91.5t-90 245.5q0 180 137.5 294.5t347.5 114.5t316.5 -117.5t89.5 -312.5h-137q10 150 -62.5 227.5t-218.5 77.5q-227 0 -280.5 -105.5t-53.5 -169.5
q0 -118 69.5 -166t186.5 -83t289 -97t172 -304q0 -203 -150 -324t-374 -121t-349.5 131.5t-101.5 343.5h140q-16 -158 71.5 -253t254.5 -95t268.5 82t101.5 217z" />
    <glyph glyph-name="scircumflex" unicode="&#x15d;" horiz-adv-x="921" 
d="M215 1182l399 297l338 -297l-92 -95l-262 232l-309 -229zM655.5 130q61.5 42 61.5 119q0 105 -154 136t-207 49.5t-110.5 61t-57.5 163.5t103.5 195t259.5 74t246.5 -82t72.5 -219h-129q10 94 -44 143t-154 49t-163 -41t-63 -115t54 -100t156 -46q101 -19 210 -55.5
t109 -197.5q0 -133 -103 -210t-270 -77q-263 0 -311.5 122t-38.5 208h129q-22 -219 231 -219q111 0 172.5 42z" />
    <glyph glyph-name="Scedilla" unicode="&#x15e;" horiz-adv-x="1171" 
d="M782 -280q0 104 -110 104q-57 0 -94 -66h-76l22 213q-191 20 -296 148t-85 325h140q-16 -158 71.5 -253t255.5 -95t268.5 81t100.5 218q0 178 -125.5 216.5t-191.5 56.5q-175 47 -287.5 129.5t-112.5 259.5t136.5 292t342.5 115q207 0 317.5 -112.5t94.5 -317.5h-137
q10 150 -63.5 227.5t-219.5 77.5q-225 0 -278.5 -105.5t-53.5 -168.5q0 -116 71 -165.5t188 -84.5q118 -35 288 -96.5t170 -306.5q0 -196 -141 -314.5t-361 -126.5l-12 -129q32 54 102 54t117 -46.5t47 -102.5q0 -99 -62 -162.5t-153 -63.5q-118 0 -150 64.5t-32 117.5h86
q-2 -45 24.5 -74.5t77.5 -29.5t86 35.5t35 85.5z" />
    <glyph glyph-name="scedilla" unicode="&#x15f;" horiz-adv-x="921" 
d="M653 -280q0 104 -110 104q-57 0 -94 -66h-76l24 224q-212 27 -248 138t-28 187h129q-22 -219 233 -219q111 0 172.5 42t61.5 119q0 105 -154 136t-207 49.5t-110.5 61t-57.5 163.5q0 122 101 195.5t258 73.5t247 -81.5t76 -219.5h-129q10 94 -44 143t-154 49t-164 -41
t-64 -115t55 -100t155 -46q99 -19 210 -54.5t111 -206.5q0 -123 -96.5 -196.5t-262.5 -82.5l-14 -135q36 54 106 54t115 -45.5t45 -102.5q0 -101 -59.5 -164t-164.5 -63t-139 64.5t-34 117.5h86q0 -45 26.5 -74.5t77.5 -29.5t86 35.5t35 85.5z" />
    <glyph glyph-name="Scaron" unicode="&#x160;" horiz-adv-x="1171" 
d="M471 1862l84 94l227 -236l281 236l63 -94l-360 -297zM979 395q0 167 -116.5 209.5t-190.5 64.5t-152 49t-168 91.5t-90 247.5t142.5 295t346.5 112t311 -112.5t91 -317.5h-137q10 150 -62.5 227.5t-218.5 77.5q-227 0 -280.5 -105.5t-53.5 -169.5q0 -118 69.5 -166
t186.5 -83t289 -97t172 -304q0 -203 -150 -324t-374 -121t-349.5 131.5t-101.5 343.5h140q-16 -158 71.5 -253t254.5 -95t268.5 82t101.5 217z" />
    <glyph glyph-name="scaron" unicode="&#x161;" horiz-adv-x="921" 
d="M279 1372l81 94l230 -235l280 235l64 -94l-361 -297zM655.5 130q61.5 42 61.5 119q0 105 -154 136t-207 49.5t-110.5 61t-57.5 163.5t103.5 195t259.5 74t246.5 -82t72.5 -219h-129q10 94 -44 143t-154 49t-163 -41t-63 -115t54 -100t156 -46q101 -19 210 -55.5
t109 -197.5q0 -133 -103 -210t-270 -77q-263 0 -311.5 122t-38.5 208h129q-22 -219 231 -219q111 0 172.5 42z" />
    <glyph glyph-name="Tcommaaccent" unicode="&#x162;" horiz-adv-x="970" 
d="M504 -256q0 35 -6 35t-16 -6t-38 -6t-51.5 25.5t-23.5 66.5t32.5 71.5t79.5 30.5t79 -36t32 -113q0 -115 -67.5 -171.5t-172.5 -56.5l6 64q72 0 109 30.5t37 65.5zM166 1309l12 125h914l-13 -125h-389l-137 -1309h-137l137 1309h-387z" />
    <glyph glyph-name="tcommaaccent" unicode="&#x163;" horiz-adv-x="673" 
d="M289 -231q-33 0 -56.5 24.5t-23.5 64.5t30.5 72.5t78.5 32.5t81 -32.5t33 -130.5t-65.5 -156t-176.5 -58l7 62q95 0 125 65q16 39 16 68q-16 -12 -49 -12zM435 124q65 -15 117 -15t114 10l-13 -119q-81 -12 -139.5 -12t-107 8t-109 61t-39.5 246l51 490h-184l12 114h185
l34 336h131l-34 -336h264l-12 -114h-265l-49 -463q-21 -191 44 -206z" />
    <glyph glyph-name="Tcaron" unicode="&#x164;" horiz-adv-x="970" 
d="M350 1839l82 94l230 -235l280 235l64 -94l-361 -297zM166 1309l12 125h914l-13 -125h-389l-137 -1309h-137l137 1309h-387z" />
    <glyph glyph-name="tcaron" unicode="&#x165;" horiz-adv-x="890" 
d="M766 1219q-41 0 -69.5 29.5t-28.5 78.5t40 88t99 39t96 -42t37 -140q0 -139 -79 -208t-214 -69l8 70q109 0 152 84q20 45 20 86q-20 -16 -61 -16zM435 124q65 -15 117 -15t114 10l-13 -119q-81 -12 -139.5 -12t-107 8t-109 61t-39.5 246l51 490h-184l12 114h185l34 336
h131l-34 -336h264l-12 -114h-265l-49 -463q-21 -191 44 -206z" />
    <glyph glyph-name="Tbar" unicode="&#x166;" horiz-adv-x="970" 
d="M166 1309l12 125h914l-13 -125h-389l-31 -283h304l-13 -121h-303l-94 -905h-137l94 905h-293l12 121h293l31 283h-387z" />
    <glyph glyph-name="tbar" unicode="&#x167;" horiz-adv-x="673" 
d="M435.5 125q60.5 -16 114.5 -16t116 10l-13 -119q-81 -12 -140.5 -12t-108 8t-109 61t-39.5 246l14 129h-184l12 115h185l24 246h-184l12 114h184l37 336h131l-36 -336h264l-13 -114h-264l-24 -246h264l-12 -115h-265l-10 -102q-16 -189 44.5 -205z" />
    <glyph glyph-name="Utilde" unicode="&#x168;" horiz-adv-x="1265" 
d="M657 1673q-48 0 -153 -57l-49 90q119 73 160.5 75.5t61.5 2.5q32 0 137 -27.5t152 -27.5t160 55l43 -88q-115 -76 -202 -76q-54 0 -122.5 18.5t-104 26.5t-83.5 8zM631 -31q-214 0 -335 141.5t-99 340.5l102 983h139l-102 -983q-17 -150 68.5 -252.5t237.5 -102.5
t258.5 102.5t123.5 252.5l102 983h140l-103 -983q-21 -202 -169.5 -342t-362.5 -140z" />
    <glyph glyph-name="utilde" unicode="&#x169;" horiz-adv-x="1146" 
d="M550 1214q-48 0 -153 -57l-51 90q119 73 160.5 75.5t61.5 2.5q38 0 141 -27.5t149 -27.5q47 0 160 55l45 -88q-120 -76 -201 -76q-48 0 -120 18.5t-108 26.5t-84 8zM556 98q141 0 232.5 104t104.5 240l49 465h131l-96 -907h-131l22 199q-49 -92 -143 -157t-227 -65
q-177 0 -260 115q-67 91 -48 283l56 532h131l-51 -493q-20 -224 68.5 -270t161.5 -46z" />
    <glyph glyph-name="Umacron" unicode="&#x16a;" horiz-adv-x="1265" 
d="M438 1638l15 121h733l-15 -121h-733zM631 -31q-214 0 -335 141.5t-99 340.5l102 983h139l-102 -983q-17 -150 68.5 -252.5t237.5 -102.5t258.5 102.5t123.5 252.5l102 983h140l-103 -983q-21 -202 -169.5 -342t-362.5 -140z" />
    <glyph glyph-name="umacron" unicode="&#x16b;" horiz-adv-x="1146" 
d="M332 1180l12 118h733l-12 -118h-733zM556 98q141 0 232.5 104t104.5 240l49 465h131l-96 -907h-131l22 199q-49 -92 -143 -157t-227 -65q-177 0 -260 115q-67 91 -48 283l56 532h131l-51 -493q-20 -224 68.5 -270t161.5 -46z" />
    <glyph glyph-name="Ubreve" unicode="&#x16c;" horiz-adv-x="1265" 
d="M803 1632q109 0 193.5 46t113.5 132h127q-27 -131 -157.5 -215t-287.5 -84t-265.5 84.5t-116.5 214.5h125q16 -86 87.5 -132t180.5 -46zM631 -31q-214 0 -335 141.5t-99 340.5l102 983h139l-102 -983q-17 -150 68.5 -252.5t237.5 -102.5t258.5 102.5t123.5 252.5l102 983
h140l-103 -983q-21 -202 -169.5 -342t-362.5 -140z" />
    <glyph glyph-name="ubreve" unicode="&#x16d;" horiz-adv-x="1146" 
d="M707 1255q109 0 192.5 47.5t112.5 131.5h127q-27 -133 -158.5 -215t-286.5 -82q-156 0 -265.5 82.5t-117.5 214.5h125q16 -86 89 -132.5t182 -46.5zM556 98q141 0 232.5 104t104.5 240l49 465h131l-96 -907h-131l22 199q-49 -92 -143 -157t-227 -65q-177 0 -260 115
q-67 91 -48 283l56 532h131l-51 -493q-20 -224 68.5 -270t161.5 -46z" />
    <glyph glyph-name="Uring" unicode="&#x16e;" horiz-adv-x="1265" 
d="M666 1724q0 -44 39 -85.5t85 -41.5q78 0 127.5 49.5t49.5 110.5t-38.5 101t-84.5 40t-75.5 -13t-53 -34.5t-36.5 -52t-13 -74.5zM646.5 1916q83.5 83 187.5 83t170.5 -66.5t66.5 -169.5t-84.5 -185.5t-188.5 -82.5q-103 0 -169 68t-66 169t83.5 184zM631 -31
q-214 0 -335 141.5t-99 340.5l102 983h139l-102 -983q-17 -150 68.5 -252.5t237.5 -102.5t258.5 102.5t123.5 252.5l102 983h140l-103 -983q-21 -202 -169.5 -342t-362.5 -140z" />
    <glyph glyph-name="uring" unicode="&#x16f;" horiz-adv-x="1146" 
d="M561 1334q0 -46 38 -86t84 -40q81 0 131 50t50 110t-40 100.5t-86 40.5t-75.5 -13t-52 -34.5t-36 -51.5t-13.5 -76zM540 1527q83 83 187 83t171 -67t67 -170t-84.5 -185t-188.5 -82q-103 0 -169 68t-66 169t83 184zM556 98q141 0 232.5 104t104.5 240l49 465h131
l-96 -907h-131l22 199q-49 -92 -143 -157t-227 -65q-177 0 -260 115q-67 91 -48 283l56 532h131l-51 -493q-20 -224 68.5 -270t161.5 -46z" />
    <glyph glyph-name="Uhungarumlaut" unicode="&#x170;" horiz-adv-x="1265" 
d="M885 1579l293 340l110 -59l-336 -320zM485 1579l293 340l111 -59l-336 -320zM631 -31q-214 0 -335 141.5t-99 340.5l102 983h139l-102 -983q-17 -150 68.5 -252.5t237.5 -102.5t258.5 102.5t123.5 252.5l102 983h140l-103 -983q-21 -202 -169.5 -342t-362.5 -140z" />
    <glyph glyph-name="uhungarumlaut" unicode="&#x171;" horiz-adv-x="1146" 
d="M764 1085l293 340l108 -59l-334 -319zM365 1085l292 340l109 -59l-334 -319zM556 98q141 0 232.5 104t104.5 240l49 465h131l-96 -907h-131l22 199q-49 -92 -143 -157t-227 -65q-177 0 -260 115q-67 91 -48 283l56 532h131l-51 -493q-20 -224 68.5 -270t161.5 -46z" />
    <glyph glyph-name="Uogonek" unicode="&#x172;" horiz-adv-x="1265" 
d="M422 -252q0 117 151 225q-187 16 -291.5 155t-82.5 323l102 983h139l-102 -983q-16 -148 69 -251.5t235 -103.5t258.5 102t125.5 253l102 983h140l-103 -983q-21 -195 -160 -331.5t-339 -148.5q-113 -91 -113 -182q0 -49 32.5 -85t95.5 -36t153 29l-13 -100
q-108 -31 -201 -31q-92 0 -145 52t-53 130z" />
    <glyph glyph-name="uogonek" unicode="&#x173;" horiz-adv-x="1146" 
d="M788 -211q0 -49 33 -85t93 -36t155 29l-12 -100q-108 -31 -201 -31t-146 52t-53 127t45.5 133.5t143.5 121.5l22 199q-49 -92 -143 -157t-227 -65q-177 0 -260 115q-67 91 -48 283l56 532h131l-51 -493q-20 -224 68.5 -270t161.5 -46q141 0 232.5 104t104.5 240l49 465
h131l-96 -907h-37q-152 -104 -152 -211z" />
    <glyph glyph-name="Wcircumflex" unicode="&#x174;" horiz-adv-x="1935" 
d="M770 1634l401 297l336 -297l-92 -94l-262 232l-307 -230zM164 1434h145l264 -1201l492 1201h109l237 -1201l518 1201h146l-637 -1434h-107l-235 1198l-492 -1198h-106z" />
    <glyph glyph-name="wcircumflex" unicode="&#x175;" horiz-adv-x="1462" 
d="M487 1182l400 297l338 -297l-92 -95l-263 232l-309 -229zM113 907h141l182 -706l326 706h131l178 -706l330 706h141l-446 -907h-95l-190 760l-348 -760h-96z" />
    <glyph glyph-name="Ycircumflex" unicode="&#x176;" horiz-adv-x="1157" 
d="M381 1634l401 297l336 -297l-92 -94l-262 232l-307 -230zM170 1434h160l381 -723l448 723h152l-883 -1434h-154l353 567z" />
    <glyph glyph-name="ycircumflex" unicode="&#x177;" horiz-adv-x="1163" 
d="M338 1182l399 297l338 -297l-92 -95l-262 232l-309 -229zM534 -23q-197 0 -276 111q-37 51 -46 119.5t1 177.5l55 522h131l-51 -483q-36 -326 221 -326q152 0 242.5 103t103.5 241l50 465h131l-105 -993q-27 -246 -147.5 -354.5t-331.5 -108.5q-399 0 -371 414h129
q-27 -293 262 -293q147 0 227.5 77t100.5 265l31 285q-53 -98 -147 -160t-210 -62z" />
    <glyph glyph-name="Ydieresis" unicode="&#x178;" horiz-adv-x="1157" 
d="M915 1696q0 49 39.5 87t89.5 38t79.5 -31t29.5 -81t-39 -87t-89 -37t-80 31t-30 80zM444 1696q0 49 39 87t89 38t80 -31t30 -81t-39 -87t-89 -37t-80 31t-30 80zM170 1434h160l381 -723l448 723h152l-883 -1434h-154l353 567z" />
    <glyph glyph-name="Zacute" unicode="&#x179;" horiz-adv-x="1130" 
d="M479 1649l539 280l53 -104l-541 -281zM33 0l985 1309h-805l14 125h1041l-987 -1307h868l-14 -127h-1102z" />
    <glyph glyph-name="zacute" unicode="&#x17a;" horiz-adv-x="882" 
d="M276 1149l539 281l53 -105l-538 -281zM53 0l627 786h-522l14 121h752l-629 -786h547l-13 -121h-776z" />
    <glyph glyph-name="Zdotaccent" unicode="&#x17b;" horiz-adv-x="1130" 
d="M629 1706q0 51 40 90t91 39t81.5 -31.5t30.5 -83.5t-39 -90.5t-91 -38.5t-82.5 32t-30.5 83zM33 0l985 1309h-805l14 125h1041l-987 -1307h868l-14 -127h-1102z" />
    <glyph glyph-name="zdotaccent" unicode="&#x17c;" horiz-adv-x="882" 
d="M449 1231q0 51 40.5 90t90.5 39t82 -32t32 -83t-40 -90t-92 -39t-82.5 32t-30.5 83zM53 0l627 786h-522l14 121h752l-629 -786h547l-13 -121h-776z" />
    <glyph glyph-name="Zcaron" unicode="&#x17d;" horiz-adv-x="1130" 
d="M469 1817l84 94l227 -236l281 236l63 -94l-360 -297zM33 0l985 1309h-805l14 125h1041l-987 -1307h868l-14 -127h-1102z" />
    <glyph glyph-name="zcaron" unicode="&#x17e;" horiz-adv-x="882" 
d="M270 1343l82 95l230 -236l280 236l64 -95l-361 -296zM53 0l627 786h-522l14 121h752l-629 -786h547l-13 -121h-776z" />
    <glyph glyph-name="longs" unicode="&#x17f;" horiz-adv-x="686" 
d="M567.5 1286.5q-52.5 -40.5 -63.5 -164.5l-119 -1122h-133l84 793h-205l12 114h205l21 203q21 205 113 270.5t192 65.5q101 0 143 -23l-12 -114q-41 18 -113 18t-124.5 -40.5z" />
    <glyph glyph-name="florin" unicode="&#x192;" horiz-adv-x="841" 
d="M93 -323.5q56 41.5 89 163.5l271 953h-205l33 114h206l56 203q58 205 160 270.5t201 65.5t143 -23l-31 -114q-45 18 -92 18q-95 0 -154.5 -42t-91.5 -163l-62 -215h285l-33 -114h-282l-264 -940q-55 -201 -156.5 -268.5t-204.5 -67.5t-143 22l30 115q44 -19 116.5 -19
t128.5 41.5z" />
    <glyph glyph-name="Aringacute" unicode="&#x1fa;" horiz-adv-x="1118" 
d="M645 1534q0 -31 18.5 -50.5t51.5 -19.5t56.5 24.5t23.5 55.5t-18.5 50.5t-50.5 19.5t-56.5 -24.5t-24.5 -55.5zM442 1683l541 281l37 -72l-539 -280zM330 383h540l-184 831zM580 1528q0 61 46 106t104 45t94 -37t36 -87t-26.5 -86.5t-65.5 -53.5l338 -1415h-145l-62 258
h-627l-112 -258h-146l635 1413q-69 29 -69 115z" />
    <glyph glyph-name="aringacute" unicode="&#x1fb;" horiz-adv-x="1212" 
d="M530 1225q0 -45 39 -86t85 -41q80 0 130 50t50 110t-39 100.5t-85 40.5t-76 -13.5t-53.5 -35t-37 -51t-13.5 -74.5zM511 1416q83 83 187 83t171 -66.5t67 -169.5t-84.5 -185.5t-188.5 -82.5t-169.5 69t-65.5 169t83 183zM418 1585l540 281l54 -105l-541 -280zM350 190.5
q84 -92.5 237 -92.5t263.5 115t110.5 264q0 148 -86.5 240t-236.5 92t-261 -115t-111 -263t84 -240.5zM133 418q0 96 40 189t150 207t324 114q123 0 212 -56.5t126 -158.5l21 194h133l-97 -907h-133l21 193q-53 -92 -150.5 -154t-211.5 -62t-190.5 35t-130.5 93.5t-84 137.5
t-30 175z" />
    <glyph glyph-name="AEacute" unicode="&#x1fc;" horiz-adv-x="1734" 
d="M946 1640l541 281l51 -104l-539 -281zM387 385h442l95 895zM6 0l868 1434h846l-14 -125h-643l-55 -533h643l-15 -127h-643l-53 -522h643l-14 -127h-781l27 258h-504l-155 -258h-150z" />
    <glyph glyph-name="aeacute" unicode="&#x1fd;" horiz-adv-x="1878" 
d="M1209 732q-91 -83 -107 -204h598q12 127 -60.5 207t-205.5 80q-134 0 -225 -83zM770 1133l541 280l51 -104l-539 -281zM350.5 189q84.5 -91 236.5 -91t263 115t111 262t-84.5 240.5t-237.5 93.5t-263 -116.5t-110 -264.5t84.5 -239zM568 -23q-203 0 -319 126t-116 320
t150 349.5t364 155.5q123 0 212 -56.5t126 -158.5l21 194h133l-15 -127q120 148 326 148q165 0 273 -104.5t108 -272.5q0 -60 -19 -125h-722q-17 -149 55.5 -241.5t207.5 -92.5q136 0 204.5 52.5t97.5 115.5h135q-39 -118 -154.5 -200.5t-273.5 -82.5q-212 0 -305 154
l-15 -131h-133l21 193q-53 -92 -150.5 -154t-211.5 -62z" />
    <glyph glyph-name="Oslashacute" unicode="&#x1fe;" horiz-adv-x="1650" 
d="M713 1640l538 281l54 -106l-541 -281zM856 96q127 0 250 57.5t210 152.5t135 216.5t48 261.5t-63.5 271t-186.5 202l-604 -1128q84 -33 211 -33zM936 1339q-118 0 -239.5 -58t-208.5 -153.5t-135 -217.5t-48 -259t59.5 -265t172.5 -202l602 1129q-85 26 -203 26zM160 680
q0 123 59.5 270.5t167 261t258.5 183t305 69.5t252 -32l86 163l117 -51l-90 -162q235 -126 281 -314t46 -314t-59 -272t-166.5 -261t-257 -183.5t-307.5 -68.5t-268 41l-84 -160l-115 50l84 159q-146 82 -227.5 243.5t-81.5 377.5z" />
    <glyph glyph-name="oslashacute" unicode="&#x1ff;" horiz-adv-x="1130" 
d="M596 98q64 0 134.5 32t149 115t78.5 240q0 86 -34.5 156t-100.5 109l-340 -635q49 -17 113 -17zM397 1151l541 281l51 -107l-538 -281zM266 420q0 -78 30 -144.5t83 -107.5l338 633q-39 8 -97 8t-126 -32t-119 -85t-80 -123.5t-29 -148.5zM632 928q86 0 146 -15l72 136
l108 -48l-69 -131q98 -53 151.5 -153.5t53.5 -211.5q0 -219 -152.5 -373.5t-378.5 -154.5q-80 0 -141 25l-78 -147l-108 49l77 143q-86 57 -133 153t-47 204t40 202t109.5 166t166.5 114t183 42z" />
    <glyph glyph-name="Scommaaccent" unicode="&#x218;" horiz-adv-x="1171" 
d="M562 -254q-28 0 -51.5 24.5t-23.5 64.5t31 73t78 33t80 -33.5t33 -131.5t-64.5 -155t-175.5 -57l6 61q68 0 103.5 28.5t41.5 58.5t2 38t-18 2t-42 -6zM979 395q0 167 -116.5 209.5t-190.5 64.5t-152 49t-168 91.5t-90 245.5q0 180 137.5 294.5t347.5 114.5t316.5 -117.5
t89.5 -312.5h-137q10 150 -62.5 227.5t-218.5 77.5q-227 0 -280.5 -105.5t-53.5 -169.5q0 -118 69.5 -166t186.5 -83t289 -97t172 -304q0 -203 -150 -324t-374 -121t-349.5 131.5t-101.5 343.5h140q-16 -158 71.5 -253t254.5 -95t268.5 82t101.5 217z" />
    <glyph glyph-name="scommaaccent" unicode="&#x219;" horiz-adv-x="921" 
d="M501 -31.5q79 -0.5 79 -166.5q0 -98 -65.5 -154t-174.5 -56l6 62q59 0 96 30t43 103q-12 -12 -47 -12t-58.5 24.5t-23.5 66.5t33 72.5t112 30zM655.5 130q61.5 42 61.5 119q0 105 -154 136t-207 49.5t-110.5 61t-57.5 163.5t103.5 195t259.5 74t246.5 -82t72.5 -219h-129
q10 94 -44 143t-154 49t-163 -41t-63 -115t54 -100t156 -46q101 -19 210 -55.5t109 -197.5q0 -133 -103 -210t-270 -77q-263 0 -311.5 122t-38.5 208h129q-22 -219 231 -219q111 0 172.5 42z" />
    <glyph glyph-name="uni021A" unicode="&#x21a;" horiz-adv-x="970" 
d="M504 -256q0 35 -6 35t-16 -6t-38 -6t-51.5 25.5t-23.5 66.5t32.5 71.5t79.5 30.5t79 -36t32 -113q0 -115 -67.5 -171.5t-172.5 -56.5l6 64q72 0 109 30.5t37 65.5zM166 1309l12 125h914l-13 -125h-389l-137 -1309h-137l137 1309h-387z" />
    <glyph glyph-name="uni021B" unicode="&#x21b;" horiz-adv-x="673" 
d="M289 -231q-33 0 -56.5 24.5t-23.5 64.5t30.5 72.5t78.5 32.5t81 -32.5t33 -130.5t-65.5 -156t-176.5 -58l7 62q95 0 125 65q16 39 16 68q-16 -12 -49 -12zM435 124q65 -15 117 -15t114 10l-13 -119q-81 -12 -139.5 -12t-107 8t-109 61t-39.5 246l51 490h-184l12 114h185
l34 336h131l-34 -336h264l-12 -114h-265l-49 -463q-21 -191 44 -206z" />
    <glyph glyph-name="apostrophemod" unicode="&#x2bc;" horiz-adv-x="524" 
d="M367 1280q-41 0 -70 29.5t-29 78.5t40 88.5t100 39.5t96.5 -43t36.5 -138q0 -135 -78 -206.5t-215 -71.5l8 71q111 0 152 84q20 45 20 84q-20 -16 -61 -16z" />
    <glyph glyph-name="circumflex" unicode="&#x2c6;" horiz-adv-x="913" 
d="M236 1427l399 297l338 -297l-92 -94l-263 232l-309 -230z" />
    <glyph glyph-name="caron" unicode="&#x2c7;" horiz-adv-x="821" 
d="M246 1534l82 94l229 -235l281 235l63 -94l-360 -297z" />
    <glyph glyph-name="breve" unicode="&#x2d8;" horiz-adv-x="1064" 
d="M694 1554q108 0 193.5 46.5t113.5 132.5h125q-27 -133 -158 -216t-287 -83t-265 84.5t-117 214.5h127q14 -86 87 -132.5t181 -46.5z" />
    <glyph glyph-name="dotaccent" unicode="&#x2d9;" horiz-adv-x="774" 
d="M406 1319q0 51 39 90t91 39t82.5 -32t30.5 -83t-40 -90t-91 -39t-81.5 32t-30.5 83z" />
    <glyph glyph-name="ring" unicode="&#x2da;" horiz-adv-x="921" 
d="M463 1435q0 -46 39 -86t85 -40q78 0 128.5 48.5t50.5 110.5t-39 102t-85 40t-75.5 -13.5t-53.5 -35t-37 -51t-13 -75.5zM442.5 1626q82.5 84 187.5 84q104 0 170 -64.5t66 -171.5q0 -106 -85 -187t-187 -81q-101 0 -167.5 68.5t-66.5 168.5q0 99 82.5 183z" />
    <glyph glyph-name="ogonek" unicode="&#x2db;" horiz-adv-x="835" 
d="M332 -211q0 -49 32 -85t84 -36q91 0 164 29l-12 -100q-108 -31 -201 -31q-92 0 -145 52t-53 127t46 133.5t144 121.5h96q-155 -103 -155 -211z" />
    <glyph glyph-name="tilde" unicode="&#x2dc;" horiz-adv-x="958" 
d="M484 1323q-46 0 -154 -57l-49 90q119 74 160.5 76t61.5 2q32 0 139 -28t154 -28t156 56l43 -88q-115 -76 -186 -76t-138 18.5t-104 26.5t-83 8z" />
    <glyph glyph-name="hungarumlaut" unicode="&#x2dd;" horiz-adv-x="937" 
d="M641 1163l291 340l112 -57l-335 -322zM242 1163l290 340l113 -57l-336 -320z" />
    <glyph glyph-name="Delta" unicode="&#x394;" horiz-adv-x="1118" 
d="M219 127h709l-242 1087zM14 0l645 1434h105l342 -1434h-1092z" />
    <glyph glyph-name="Omega" unicode="&#x3a9;" horiz-adv-x="1474" 
d="M178 782q0 120 51.5 245.5t199.5 279t458 153.5q274 0 428.5 -165t154.5 -411t-150 -433t-376 -248l-6 -76h410l-15 -127h-522l31 283q215 35 352 204t137 379q0 209 -118.5 338t-352.5 129t-388.5 -163t-154.5 -398q0 -184 100.5 -321t278.5 -168l-30 -283h-523l15 127
h409l8 78q-180 54 -288.5 205.5t-108.5 371.5z" />
    <glyph glyph-name="mu" unicode="&#x3bc;" 
d="M576 98q141 0 232.5 104t104.5 240l50 465h131l-97 -907h-131l21 199q-47 -92 -141 -157t-234 -65t-203 99l-63 -604h-131l151 1435h129l-51 -493q-20 -222 70 -269t162 -47z" />
    <glyph glyph-name="pi" unicode="&#x3c0;" 
d="M213 786l12 121h905l-12 -121h-112l-82 -786h-133l81 786h-413l-82 -786h-133l82 786h-113z" />
    <glyph glyph-name="Wgrave" unicode="&#x1e80;" horiz-adv-x="1935" 
d="M874 1817l74 104l482 -281l-76 -104zM164 1434h145l264 -1201l492 1201h109l237 -1201l518 1201h146l-637 -1434h-107l-235 1198l-492 -1198h-106z" />
    <glyph glyph-name="wgrave" unicode="&#x1e81;" horiz-adv-x="1462" 
d="M584 1325l75 107l482 -281l-76 -107zM113 907h141l182 -706l326 706h131l178 -706l330 706h141l-446 -907h-95l-190 760l-348 -760h-96z" />
    <glyph glyph-name="Wacute" unicode="&#x1e82;" horiz-adv-x="1935" 
d="M856 1640l539 281l53 -104l-541 -281zM164 1434h145l264 -1201l492 1201h109l237 -1201l518 1201h146l-637 -1434h-107l-235 1198l-492 -1198h-106z" />
    <glyph glyph-name="wacute" unicode="&#x1e83;" horiz-adv-x="1462" 
d="M567 1151l539 281l51 -107l-539 -281zM113 907h141l182 -706l326 706h131l178 -706l330 706h141l-446 -907h-95l-190 760l-348 -760h-96z" />
    <glyph glyph-name="Wdieresis" unicode="&#x1e84;" horiz-adv-x="1935" 
d="M1266 1710q0 49 38 87t88 38t80.5 -30.5t30.5 -80.5t-39 -87.5t-89 -37.5t-79.5 31t-29.5 80zM795 1710q0 49 38.5 87t88.5 38t80 -30.5t30 -80.5t-39 -87.5t-89 -37.5t-79.5 31t-29.5 80zM164 1434h145l264 -1201l492 1201h109l237 -1201l518 1201h146l-637 -1434h-107
l-235 1198l-492 -1198h-106z" />
    <glyph glyph-name="wdieresis" unicode="&#x1e85;" horiz-adv-x="1462" 
d="M979 1233q0 49 38 87t88 38t79.5 -31t29.5 -80t-38 -87t-88 -38t-79.5 31t-29.5 80zM508 1233q0 49 38 87t88 38t79.5 -31t29.5 -80t-37.5 -87t-87.5 -38t-80 31t-30 80zM113 907h141l182 -706l326 706h131l178 -706l330 706h141l-446 -907h-95l-190 760l-348 -760h-96z
" />
    <glyph glyph-name="Ygrave" unicode="&#x1ef2;" horiz-adv-x="1157" 
d="M483 1817l74 104l481 -281l-75 -104zM170 1434h160l381 -723l448 723h152l-883 -1434h-154l353 567z" />
    <glyph glyph-name="ygrave" unicode="&#x1ef3;" horiz-adv-x="1163" 
d="M434 1325l76 107l479 -281l-74 -107zM534 -23q-197 0 -276 111q-37 51 -46 119.5t1 177.5l55 522h131l-51 -483q-36 -326 221 -326q152 0 242.5 103t103.5 241l50 465h131l-105 -993q-27 -246 -147.5 -354.5t-331.5 -108.5q-399 0 -371 414h129q-27 -293 262 -293
q147 0 227.5 77t100.5 265l31 285q-53 -98 -147 -160t-210 -62z" />
    <glyph glyph-name="uni2000" unicode="&#x2000;" horiz-adv-x="1016" 
 />
    <glyph glyph-name="uni2001" unicode="&#x2001;" horiz-adv-x="2032" 
 />
    <glyph glyph-name="uni2002" unicode="&#x2002;" horiz-adv-x="1016" 
 />
    <glyph glyph-name="uni2003" unicode="&#x2003;" horiz-adv-x="2032" 
 />
    <glyph glyph-name="uni2004" unicode="&#x2004;" horiz-adv-x="677" 
 />
    <glyph glyph-name="uni2005" unicode="&#x2005;" horiz-adv-x="508" 
 />
    <glyph glyph-name="uni2006" unicode="&#x2006;" horiz-adv-x="338" 
 />
    <glyph glyph-name="uni2007" unicode="&#x2007;" horiz-adv-x="338" 
 />
    <glyph glyph-name="uni2008" unicode="&#x2008;" horiz-adv-x="254" 
 />
    <glyph glyph-name="uni2009" unicode="&#x2009;" horiz-adv-x="406" 
 />
    <glyph glyph-name="uni200A" unicode="&#x200a;" horiz-adv-x="112" 
 />
    <glyph glyph-name="uni2010" unicode="&#x2010;" horiz-adv-x="602" 
d="M117 524l12 119h479l-12 -119h-479z" />
    <glyph glyph-name="uni2011" unicode="&#x2011;" horiz-adv-x="602" 
d="M117 524l12 119h479l-12 -119h-479z" />
    <glyph glyph-name="figuredash" unicode="&#x2012;" horiz-adv-x="602" 
d="M117 524l12 119h479l-12 -119h-479z" />
    <glyph glyph-name="endash" unicode="&#x2013;" horiz-adv-x="1030" 
d="M158 524l12 119h825l-12 -119h-825z" />
    <glyph glyph-name="emdash" unicode="&#x2014;" horiz-adv-x="2060" 
d="M158 524l12 119h1855l-12 -119h-1855z" />
    <glyph glyph-name="quoteleft" unicode="&#x2018;" horiz-adv-x="524" 
d="M254 1239q0 139 79 208t214 69l-8 -70q-113 0 -152 -86q-22 -44 -18 -84q16 16 58 16t70.5 -29.5t28.5 -78.5t-40 -88t-98 -39t-96 42t-38 140z" />
    <glyph glyph-name="quoteright" unicode="&#x2019;" horiz-adv-x="524" 
d="M367 1280q-41 0 -70 29.5t-29 78.5t40 88.5t100 39.5t96.5 -43t36.5 -138q0 -135 -78 -206.5t-215 -71.5l8 71q111 0 152 84q20 45 20 84q-20 -16 -61 -16z" />
    <glyph glyph-name="quotesinglbase" unicode="&#x201a;" horiz-adv-x="524" 
d="M233 -18q-42 0 -71 29.5t-29 78.5t40 88t99 39t96.5 -43t37.5 -139q0 -139 -79 -208t-214 -69l8 70q143 0 157.5 82t12.5 88q-16 -16 -58 -16z" />
    <glyph glyph-name="quotedblleft" unicode="&#x201c;" horiz-adv-x="856" 
d="M586 1239q0 139 78.5 208t214.5 69l-9 -70q-113 0 -151 -86q-23 -46 -19 -84q16 16 58 16t71 -29.5t29 -78.5t-40 -88t-98 -39t-96 42t-38 140zM254 1239q0 139 79 208t214 69l-8 -70q-113 0 -152 -86q-22 -44 -18 -84q16 16 58 16t70.5 -29.5t28.5 -78.5t-40 -88
t-98 -39t-96 42t-38 140z" />
    <glyph glyph-name="quotedblright" unicode="&#x201d;" horiz-adv-x="856" 
d="M699 1280q-41 0 -70 29.5t-29 79.5t40 88.5t99 38.5t96 -42t37 -158t-77.5 -187.5t-214.5 -71.5l8 71q144 0 158 82t14 86q-20 -16 -61 -16zM367 1280q-41 0 -70 29.5t-29 78.5t40 88.5t100 39.5t96.5 -43t36.5 -138q0 -135 -78 -206.5t-215 -71.5l8 71q111 0 152 84
q20 45 20 84q-20 -16 -61 -16z" />
    <glyph glyph-name="quotedblbase" unicode="&#x201e;" horiz-adv-x="856" 
d="M564 -18q-42 0 -70.5 29.5t-28.5 79.5t40 88t100 38t96 -43t36 -139q0 -139 -78.5 -208t-214.5 -69l9 70q143 0 157.5 82t12.5 88q-17 -16 -59 -16zM233 -18q-42 0 -71 29.5t-29 78.5t40 88t99 39t96.5 -43t37.5 -139q0 -139 -79 -208t-214 -69l8 70q143 0 157.5 82
t12.5 88q-16 -16 -58 -16z" />
    <glyph glyph-name="dagger" unicode="&#x2020;" horiz-adv-x="823" 
d="M160 795l12 120h270l60 553h131l-60 -553h273l-12 -120h-273l-123 -1168h-131l123 1168h-270z" />
    <glyph glyph-name="daggerdbl" unicode="&#x2021;" horiz-adv-x="823" 
d="M80 39l12 117h270l68 643h-270l12 116h270l58 553h131l-58 -553h273l-12 -116h-273l-67 -643h272l-12 -117h-273l-43 -412h-131l43 412h-270z" />
    <glyph glyph-name="bullet" unicode="&#x2022;" horiz-adv-x="702" 
d="M437 879q99 0 159.5 -63.5t60.5 -162.5t-78 -175.5t-179 -76.5t-161.5 62.5t-60.5 161.5t80 176.5t179 77.5z" />
    <glyph glyph-name="ellipsis" unicode="&#x2026;" horiz-adv-x="1869" 
d="M1524 103q0 50 41 90t92 40t81.5 -32.5t30.5 -82.5t-39.5 -90t-91.5 -40t-83 32.5t-31 82.5zM823 104q0 51 41 90t92 39t82 -31.5t31 -82.5t-40 -90t-92 -39t-83 31.5t-31 82.5zM123 105q0 50 41 90.5t92 40.5t82 -33t31 -83t-40 -90t-91 -40t-83 32.5t-32 82.5z" />
    <glyph glyph-name="uni202F" unicode="&#x202f;" horiz-adv-x="406" 
 />
    <glyph glyph-name="perthousand" unicode="&#x2030;" horiz-adv-x="2555" 
d="M2167 72q76 0 126 51t58 121l31 286q8 70 -33 120t-117 50t-124 -50t-56 -120l-31 -286q-8 -70 31 -121t115 -51zM2436.5 716.5q69.5 -80.5 55.5 -186.5l-30 -294q-12 -108 -96 -184.5t-209 -76.5t-192.5 78t-55.5 191l30 295q12 106 97 182t208 76t192.5 -80.5zM1409 80
q76 0 125 51t57 121l31 287q8 70 -32 120t-116 50t-125 -50.5t-57 -119.5l-30 -287q-8 -70 31.5 -121t115.5 -51zM1484 805q123 0 192 -78.5t57 -187.5l-31 -295q-12 -110 -96.5 -185t-207.5 -75q-122 0 -191.5 77t-57.5 191l33 295q20 169 129 213.5t173 44.5zM408 -4
l1058 1544l99 -61l-1057 -1545zM471 723q76 0 125 51t57 121l31 287q8 70 -32 120t-116 50t-125 -50.5t-57 -119.5l-30 -287q-8 -70 31.5 -121t115.5 -51zM546 1448q123 0 192 -78.5t57 -187.5l-31 -295q-12 -110 -96.5 -185t-207.5 -75q-122 0 -191.5 77t-57.5 191l33 295
q20 169 129 213.5t173 44.5z" />
    <glyph glyph-name="guilsinglleft" unicode="&#x2039;" horiz-adv-x="565" 
d="M139 553l8 86l439 348l-15 -135l-317 -256l264 -256l-14 -135z" />
    <glyph glyph-name="guilsinglright" unicode="&#x203a;" horiz-adv-x="565" 
d="M104 205l15 135l319 256l-266 256l14 135l365 -348l-8 -86z" />
    <glyph glyph-name="fraction" unicode="&#x2044;" horiz-adv-x="428" 
d="M-287 -4l1057 1544l100 -61l-1056 -1545z" />
    <glyph glyph-name="uni205F" unicode="&#x205f;" horiz-adv-x="508" 
 />
    <glyph glyph-name="Euro" unicode="&#x20ac;" horiz-adv-x="1241" 
d="M1131.5 1323q119.5 -129 107.5 -319h-139q4 140 -77 231.5t-227 91.5t-253 -102t-119 -248l-4 -47h506l-35 -103h-483l-25 -225h504l-37 -104h-477l-4 -43q-19 -233 102 -292t198 -59q151 0 255 102t120 249h140q-21 -199 -169 -338.5t-358 -139.5t-329 140.5t-99 337.5
l4 43h-131l37 104h105l24 225h-125l35 103h103l4 47q16 195 165 335t356 140q206 0 325.5 -129z" />
    <glyph glyph-name="afii61289" unicode="&#x2113;" horiz-adv-x="790" 
d="M762 1169q0 191 -131 191q-168 0 -199 -301l-47 -457q214 188 295.5 307t81.5 260zM618 1468q264 0 263 -294q0 -179 -114.5 -334.5t-397.5 -384.5l-13 -119q-17 -147 36 -193.5t133 -46.5q79 0 120 17.5t72 40.5l8 -103q-23 -16 -42 -30.5t-77.5 -34.5t-180.5 -2
t-161 122t-20 254q-10 -6 -29.5 -21t-59.5 -44.5t-55 -42.5l-53 100l211 154l55 532q23 207 96 318.5t209 111.5z" />
    <glyph glyph-name="afii61352" unicode="&#x2116;" horiz-adv-x="2160" 
d="M1613.5 862q63.5 -69 181.5 -69t201 85.5t83 198.5t-65 184.5t-182 71.5q-118 0 -200 -88.5t-82 -201.5q0 -112 63.5 -181zM1415 1032q0 78 32 155t125 170t271 93t274.5 -102t96.5 -263t-123 -285t-303 -124t-276.5 98.5t-96.5 257.5zM1358 485l12 119h793l-13 -119
h-792zM170 0l152 1434h153l596 -1194l127 1194h139l-151 -1434h-154l-598 1196l-125 -1196h-139z" />
    <glyph glyph-name="trademark" unicode="&#x2122;" horiz-adv-x="1648" 
d="M848 600l88 834h133l191 -672l331 672h125l-88 -834h-88l74 684l-338 -684h-70l-196 698l-74 -698h-88zM223 1352l8 82h531l-8 -82h-222l-79 -752h-88l79 752h-221z" />
    <glyph glyph-name="uni2126" unicode="&#x2126;" horiz-adv-x="1474" 
d="M178 782q0 120 51.5 245.5t199.5 279t458 153.5q274 0 428.5 -165t154.5 -411t-150 -433t-376 -248l-6 -76h410l-15 -127h-522l31 283q215 35 352 204t137 379q0 209 -118.5 338t-352.5 129t-388.5 -163t-154.5 -398q0 -184 100.5 -321t278.5 -168l-30 -283h-523l15 127
h409l8 78q-180 54 -288.5 205.5t-108.5 371.5z" />
    <glyph glyph-name="estimated" unicode="&#x212e;" horiz-adv-x="1062" 
d="M862 803q-90 82 -238 82t-259 -90l-31 -285h497zM543 -23q-195 0 -298.5 122.5t-103.5 324.5q0 203 135.5 353.5t350.5 150.5q175 0 283 -104.5t108 -270.5q0 -43 -10 -88h-678l-37 -348q98 -94 242 -94t247 64.5t144 160.5h45q-40 -113 -155 -192t-273 -79z" />
    <glyph glyph-name="arrowleft" unicode="&#x2190;" 
d="M-57 717l536 442l66 -82l-373 -305h1210l-12 -110h-1210l311 -306l-86 -82z" />
    <glyph glyph-name="arrowup" unicode="&#x2191;" 
d="M240 944l493 490l391 -490l-90 -76l-268 344l-127 -1212h-111l127 1210l-342 -342z" />
    <glyph glyph-name="arrowright" unicode="&#x2192;" 
d="M-63 662l12 110h1210l-311 305l86 82l442 -442l-536 -443l-68 82l377 306h-1212z" />
    <glyph glyph-name="arrowdown" unicode="&#x2193;" 
d="M193 489l90 76l268 -342l127 1211h113l-127 -1211l340 342l73 -76l-493 -489z" />
    <glyph glyph-name="uni2196" unicode="&#x2196;" 
d="M150 565l36 658l656 -31l-19 -113l-452 27l766 -856l-88 -80l-764 856l-23 -457z" />
    <glyph glyph-name="uni2197" unicode="&#x2197;" 
d="M84 250l946 856l-459 -27l7 113l661 31l-100 -658l-113 4l76 459l-946 -858z" />
    <glyph glyph-name="uni2198" unicode="&#x2198;" 
d="M182 1184l88 80l766 -854l23 454l112 6l-38 -659l-654 33l17 112l454 -26z" />
    <glyph glyph-name="uni2199" unicode="&#x2199;" 
d="M80 211l102 659l113 -6l-76 -456l944 856l72 -80l-944 -854l457 26l-5 -112z" />
    <glyph glyph-name="partialdiff" unicode="&#x2202;" 
d="M592 92q156 0 259 103.5t144 349.5q-42 119 -133.5 174t-189.5 55q-181 0 -285 -111.5t-104 -255.5q0 -145 76.5 -230t232.5 -85zM152 389q0 92 38.5 187.5t147 208t319.5 112.5q111 0 206 -48t149 -153l2 29q24 353 -26 456t-106.5 131.5t-140.5 28.5q-163 0 -264 -103
t-121 -275h-139q20 213 165.5 357t373.5 144t314.5 -153t86.5 -471q0 -432 -137 -651.5t-426 -219.5q-223 0 -332.5 116.5t-109.5 303.5z" />
    <glyph glyph-name="uni2206" unicode="&#x2206;" horiz-adv-x="1118" 
d="M219 127h709l-242 1087zM14 0l645 1434h105l342 -1434h-1092z" />
    <glyph glyph-name="product" unicode="&#x220f;" horiz-adv-x="1280" 
d="M102 -528l213 2029h-112l14 125h1190l-14 -125h-113l-213 -2029h-137l213 2029h-690l-213 -2029h-138z" />
    <glyph glyph-name="summation" unicode="&#x2211;" 
d="M-25 -528l15 131l831 952l-633 952l15 119h1063l-15 -125h-886l630 -932l-831 -962h889l-15 -135h-1063z" />
    <glyph glyph-name="minus" unicode="&#x2212;" 
d="M225 526l13 119h827l-12 -119h-828z" />
    <glyph glyph-name="radical" unicode="&#x221a;" horiz-adv-x="1406" 
d="M45 356l12 119h342l176 -733l850 1884h146l-967 -2105h-104l-209 835h-246z" />
    <glyph glyph-name="infinity" unicode="&#x221e;" horiz-adv-x="1693" 
d="M1261 299q150 0 235 95.5t85 216.5q0 120 -65 197t-176 77q-110 0 -204 -74t-159 -219q37 -154 118 -223.5t166 -69.5zM300.5 374q64.5 -75 171.5 -75t202.5 69.5t165.5 223.5q-35 145 -113.5 219t-199.5 74t-206 -96.5t-85 -218.5q0 -121 64.5 -196zM465 180
q-166 0 -261 107.5t-95 275.5t124.5 305.5t317.5 137.5q256 0 371 -275q174 275 432 275q163 0 259.5 -107t96.5 -278t-124 -306t-316 -135q-266 0 -377 273q-167 -273 -428 -273z" />
    <glyph glyph-name="integral" unicode="&#x222b;" horiz-adv-x="567" 
d="M582 1626q79 0 133 -24l-13 -115q-53 23 -92 22q-127 0 -141 -155l-172 -1635q-28 -266 -242 -266q-81 0 -133 25l12 114q53 -23 95 -22q123 0 139 156l172 1634q30 266 242 266z" />
    <glyph glyph-name="approxequal" unicode="&#x2248;" 
d="M417 653q84 0 197 -50t159.5 -69.5t102.5 -19.5t117.5 35t106.5 76l-15 -146q-108 -108 -235 -108q-53 0 -105.5 20.5t-112.5 48.5q-146 69 -221 70q-75 0 -132.5 -34t-102.5 -75l17 150q95 102 224 102z" />
    <glyph glyph-name="notequal" unicode="&#x2260;" 
d="M207 350l12 119h273l135 223h-383l12 121h438l140 242h145l-139 -242h243l-12 -121h-299l-135 -223h410l-13 -119h-461l-143 -244h-145l143 244h-221z" />
    <glyph glyph-name="lessequal" unicode="&#x2264;" 
d="M268 831l11 99l837 305l-12 -125l-647 -229l598 -232l-13 -125zM190 100l13 119h807l-13 -119h-807z" />
    <glyph glyph-name="greaterequal" unicode="&#x2265;" 
d="M236 524l12 125l649 232l-600 229l12 125l776 -305l-10 -99zM190 100l13 119h807l-13 -119h-807z" />
    <glyph glyph-name="lozenge" unicode="&#x25ca;" horiz-adv-x="952" 
d="M236 811l258 -668l397 668q-28 66 -122.5 321t-135.5 351zM96 811l494 815h121l317 -815l-489 -811h-121z" />
    <glyph glyph-name="uniE000" unicode="&#xe000;" horiz-adv-x="911" 
d="M0 0v911h911v-911h-911z" />
    <glyph glyph-name="fi" unicode="&#xfb01;" horiz-adv-x="1202" 
d="M961 1255q0 49 37.5 87t87.5 38t80 -31.5t30 -80.5t-39 -86t-89 -37t-78.5 30.5t-28.5 79.5zM879 0l96 907h131l-96 -907h-131zM569 1288q-51 -39 -65 -166l-23 -215h283l-12 -114h-283l-84 -793h-133l84 793h-205l12 114h205l21 203q21 205 113 270.5t192 65.5
q101 0 143 -23l-12 -114q-41 18 -113 18t-123 -39z" />
    <glyph glyph-name="fl" unicode="&#xfb02;" horiz-adv-x="1157" 
d="M856 0l152 1434h131l-152 -1434h-131zM569 1288q-51 -39 -65 -166l-23 -215h283l-12 -114h-283l-84 -793h-133l84 793h-205l12 114h205l21 203q21 205 113 270.5t192 65.5q101 0 143 -23l-12 -114q-41 18 -113 18t-123 -39z" />
    <glyph glyph-name="apple" horiz-adv-x="1482" 
d="M934 762q52 -68 147 -68q96 0 183 94q-30 86 -97 109q23 -27 23 -72t-34 -76.5t-79 -31.5t-71.5 26.5t-26.5 54.5q0 63 39 95q-79 -25 -115 -68q11 -37 31 -63zM773 168q105 0 163.5 30.5t84.5 69.5t27 72t-12 37q-4 2 -17 4t-46 14q31 46 31 74q0 50 -13 83.5t-33 33.5
q-8 0 -18 -6.5t-10 -18.5t10 -24t10 -51q0 -40 -22 -72q-33 16 -63 30.5t-77 14.5t-80.5 -14.5t-66.5 -30.5q-8 16 -8.5 59t17.5 59t18 29q0 25 -23 25q-41 0 -55.5 -59.5t-14.5 -84.5t13 -47q-52 -18 -99 -18q8 -113 93.5 -161t190.5 -48zM383 788q63 -94 176 -94
q85 0 146 66q27 29 45 65q-30 53 -109 78q33 -28 33 -76q0 -47 -35 -78.5t-77 -31.5t-69.5 24.5t-27.5 73.5t29 74q-50 -16 -76 -48t-35 -53zM182 500q-35 0 -35 122t24 177t38 55t30.5 -23.5t22.5 -23.5q2 0 9.5 46t44.5 174.5t177 267.5t400 139t368 -139t120 -267.5
t8.5 -174.5t0.5 -46q7 0 24 23.5t34 23.5q29 0 29 -86t-18 -177t-54 -91q-19 0 -33 28q-104 -304 -264.5 -416t-344.5 -112t-281 55.5t-152.5 137t-77 173t-31.5 164.5q-15 -30 -39 -30z" />
    <glyph glyph-name="commaaccent" horiz-adv-x="446" 
d="M204 -2q-32 0 -55.5 25.5t-23.5 66.5t31.5 72t77.5 31t79 -33.5t33 -131.5t-64.5 -155t-175.5 -57l7 61q93 0 123 66q18 44 18 69q-18 -14 -50 -14z" />
    <glyph glyph-name="commaturn" horiz-adv-x="446" 
d="M262 1412q0 98 64.5 155t175.5 57l-6 -61q-89 -1 -119 -59q-21 -41 -21 -74q14 12 47 12t56.5 -24.5t23.5 -64.5t-30.5 -73t-77.5 -33t-80 33.5t-33 131.5z" />
    </font>
</defs>
</svg>
