<?xml version="1.0" standalone="no"?>
<!DOCTYPE svg PUBLIC "-//W3C//DTD SVG 1.1//EN" "http://www.w3.org/Graphics/SVG/1.1/DTD/svg11.dtd" >
<svg xmlns="http://www.w3.org/2000/svg">
<metadata>
Created by FontPrep 20130207 at Wed Jun 15 18:03:52 2016
 By Nick Villapiano
Copyright (c) 2011 by Grilli Type. All rights reserved.
</metadata>
<defs>
<font id="0cb6d6a3332ff280c9269d323a1d1a66" horiz-adv-x='1024' >
  <font-face 
    font-family="GTWalsheim-Light"
    font-weight="300"
    font-stretch="normal"
    units-per-em="2048"
    panose-1="2 0 5 3 2 0 0 2 0 3"
    ascent="1612"
    descent="-436"
    x-height="907"
    cap-height="1434"
    bbox="-287 -549 2437 2032"
    underline-thickness="102"
    underline-position="-102"
    unicode-range="U+000D-FB02"
  />
<missing-glyph horiz-adv-x="1482" 
d="M994 694q111 0 188 94q-18 41 -48 69t-59 38q29 -29 29 -75t-30 -74t-75 -29t-75 29t-29 76q0 46 31 71q-81 -28 -109 -68q25 -69 95 -111q34 -20 82 -20zM1000 377q-10 0 -38 8q-26 8 -30 10q22 35 22 62q0 50 -15 89q-15 40 -40 40q-7 0 -17 -6t-10 -18q0 -11 1 -12
t13 -16t13 -55q0 -39 -14 -65q-35 16 -66 30t-78 15q-47 -1 -79 -15t-64 -30q-14 26 -14 66t20 65q6 2 6 14q0 27 -26 27q-38 0 -52 -86q-4 -22 -4 -47q0 -26 19 -58q-45 -18 -96 -18q12 -59 46 -103q83 -106 261 -106q104 0 160 32t78 72q22 39 18 72t-14 33zM588 822
q0 -46 -30 -76t-73 -29q-43 -1 -75 27t-31 77q0 49 27 72q-74 -25 -105 -105q70 -94 182 -94q81 0 142 66q25 29 39 65q-39 54 -117 78q41 -35 41 -81zM1359 854q42 0 42 -177t-47 -177q-24 0 -37 26q-47 -202 -137 -323q-151 -203 -436 -203q-286 0 -434 192
q-62 82 -94 174t-50 164q-15 -30 -37 -30q-47 0 -47 177t41 177q13 0 32 -24t22 -23q3 0 5 46q2 45 16 115t44 152q32 82 94 152t160 116t245 46t245 -46t160 -116t94 -152t45 -152t15 -115q2 -46 6 -46q5 -1 22 23q18 24 31 24z" />
    <glyph glyph-name=".notdef" horiz-adv-x="1482" 
d="M994 694q111 0 188 94q-18 41 -48 69t-59 38q29 -29 29 -75t-30 -74t-75 -29t-75 29t-29 76q0 46 31 71q-81 -28 -109 -68q25 -69 95 -111q34 -20 82 -20zM1000 377q-10 0 -38 8q-26 8 -30 10q22 35 22 62q0 50 -15 89q-15 40 -40 40q-7 0 -17 -6t-10 -18q0 -11 1 -12
t13 -16t13 -55q0 -39 -14 -65q-35 16 -66 30t-78 15q-47 -1 -79 -15t-64 -30q-14 26 -14 66t20 65q6 2 6 14q0 27 -26 27q-38 0 -52 -86q-4 -22 -4 -47q0 -26 19 -58q-45 -18 -96 -18q12 -59 46 -103q83 -106 261 -106q104 0 160 32t78 72q22 39 18 72t-14 33zM588 822
q0 -46 -30 -76t-73 -29q-43 -1 -75 27t-31 77q0 49 27 72q-74 -25 -105 -105q70 -94 182 -94q81 0 142 66q25 29 39 65q-39 54 -117 78q41 -35 41 -81zM1359 854q42 0 42 -177t-47 -177q-24 0 -37 26q-47 -202 -137 -323q-151 -203 -436 -203q-286 0 -434 192
q-62 82 -94 174t-50 164q-15 -30 -37 -30q-47 0 -47 177t41 177q13 0 32 -24t22 -23q3 0 5 46q2 45 16 115t44 152q32 82 94 152t160 116t245 46t245 -46t160 -116t94 -152t45 -152t15 -115q2 -46 6 -46q5 -1 22 23q18 24 31 24z" />
    <glyph glyph-name=".null" horiz-adv-x="0" 
 />
    <glyph glyph-name="nonmarkingreturn" horiz-adv-x="1000" 
 />
    <glyph glyph-name="uni000D" unicode="&#xd;" horiz-adv-x="512" 
 />
    <glyph glyph-name="space" unicode=" " horiz-adv-x="522" 
 />
    <glyph glyph-name="exclam" unicode="!" horiz-adv-x="579" 
d="M219 416v1036h141v-1036h-141zM164 104q0 53 36 90t89 37t90 -36.5t37 -90.5t-37 -90.5t-90 -36.5t-89 37t-36 90z" />
    <glyph glyph-name="quotedbl" unicode="&#x22;" horiz-adv-x="653" 
d="M406 1468h124v-188l-26 -326h-72l-26 326v188zM123 1468h127v-188l-27 -326h-73l-27 326v188z" />
    <glyph glyph-name="numbersign" unicode="#" horiz-adv-x="1128" 
d="M395 545h310l47 344h-310zM61 438v107h224l47 344h-209v106h223l62 439h110l-59 -439h307l61 439h111l-59 -439h190v-106h-207l-47 -344h193v-107h-207l-62 -438h-110l59 438h-307l-62 -438h-110l59 438h-207z" />
    <glyph glyph-name="dollar" unicode="$" horiz-adv-x="1247" 
d="M137 444h137q0 -158 100 -253t260 -95t251.5 73t91.5 208q0 181 -129 224.5t-205 64.5q-217 60 -335 143.5t-118 255.5q0 348 383 393v211h125v-209q174 -18 278.5 -129.5t108.5 -296.5h-139q-4 145 -84 225t-227 80q-211 0 -258 -96t-47 -164q0 -122 83.5 -178
t237.5 -96q84 -25 274.5 -90.5t190.5 -331.5q0 -182 -116 -289t-302 -121v-209h-125v209q-198 16 -317 146.5t-119 324.5z" />
    <glyph glyph-name="percent" unicode="%" horiz-adv-x="1802" 
d="M1239 252q0 -70 44 -121t120 -51t121 51t45 121v287q0 70 -45 120t-121 50t-120 -50.5t-44 -119.5v-287zM1126 252v295q0 107 77.5 182.5t200.5 75.5t199 -79t76 -187v-295q0 -110 -77 -185t-200 -75t-199.5 78t-76.5 190zM412 -4l895 1544l106 -61l-895 -1545zM233 895
q0 -70 44.5 -121t120.5 -51t120.5 51t44.5 121v287q0 70 -45 120t-121 50t-120 -50.5t-44 -119.5v-287zM121 895v295q0 107 77 182.5t200 75.5t199.5 -78.5t76.5 -187.5v-295q0 -111 -78 -185.5t-200 -74.5q-123 0 -199 78t-76 190z" />
    <glyph glyph-name="ampersand" unicode="&#x26;" horiz-adv-x="1226" 
d="M102 395q0 137 75 224.5t204 123.5q-119 35 -184.5 118t-65.5 189q0 190 123.5 298t317.5 108t317 -114.5t123 -297.5h-140q0 129 -78 207t-220 78t-224 -68.5t-82 -185.5t75 -192.5t232 -75.5h60v-125h-60q-159 0 -246 -80.5t-87 -207.5t90 -208.5t248 -81.5
q157 0 243 102t86 273h-188v125h463v-125h-135q0 -222 -127 -362t-337 -140t-346.5 116.5t-136.5 301.5z" />
    <glyph glyph-name="quotesingle" unicode="'" horiz-adv-x="372" 
d="M123 1468h127v-188l-27 -326h-73l-27 326v188z" />
    <glyph glyph-name="parenleft" unicode="(" horiz-adv-x="708" 
d="M203 -16v1169q0 198 132.5 336.5t342.5 138.5v-127q-151 0 -243.5 -101t-92.5 -247v-1169q0 -146 93 -247.5t243 -101.5v-127q-210 0 -342.5 138.5t-132.5 337.5z" />
    <glyph glyph-name="parenright" unicode=")" horiz-adv-x="708" 
d="M31 -365q149 0 242.5 102t93.5 247v1169q0 145 -93 246.5t-243 101.5v127q209 0 342 -139t133 -336v-1169q0 -198 -133 -337t-342 -139v127z" />
    <glyph glyph-name="asterisk" unicode="*" horiz-adv-x="929" 
d="M422 1468h92l-4 -327l309 104l29 -88l-311 -100l194 -262l-76 -56l-188 267l-193 -267l-73 56l194 262l-313 100l29 88l311 -104v327z" />
    <glyph glyph-name="plus" unicode="+" 
d="M180 522v121h338v344h131v-344h338v-121h-338v-342h-131v342h-338z" />
    <glyph glyph-name="comma" unicode="," horiz-adv-x="512" 
d="M113 111q0 51 34.5 86.5t94.5 35.5t108.5 -50t48.5 -174t-74.5 -185.5t-197.5 -61.5v72q112 0 145 86q18 52 13 88q-17 -18 -61 -18t-77.5 35t-33.5 86z" />
    <glyph glyph-name="hyphen" unicode="-" horiz-adv-x="602" 
d="M61 524v119h480v-119h-480z" />
    <glyph glyph-name="period" unicode="." horiz-adv-x="468" 
d="M113 113q0 51 34.5 87t86.5 36t87 -36t35 -87t-35 -87t-87 -36t-86.5 36t-34.5 87z" />
    <glyph glyph-name="slash" unicode="/" horiz-adv-x="858" 
d="M20 -96l746 1732l121 -53l-746 -1733z" />
    <glyph glyph-name="zero" unicode="0" horiz-adv-x="1183" 
d="M254 449q0 -146 93 -247.5t243 -101.5t245 101t95 248v536q0 147 -94.5 247.5t-245.5 100.5t-243.5 -101t-92.5 -247v-536zM115 449v536q0 198 132.5 336.5t345 138.5t344.5 -139.5t132 -335.5v-536q0 -197 -132 -336.5t-345 -139.5t-345 138.5t-132 337.5z" />
    <glyph glyph-name="one" unicode="1" horiz-adv-x="663" 
d="M68 1083v113q177 0 235.5 50.5t58.5 187.5h132v-1434h-142v1083h-284z" />
    <glyph glyph-name="two" unicode="2" horiz-adv-x="1077" 
d="M96 1008q0 200 128 324t326 124t316.5 -108t118.5 -290t-94 -270t-163.5 -124.5t-153.5 -74.5q-185 -84 -252.5 -180t-67.5 -282h737v-127h-893q0 320 98 464t304 234q82 36 215 101.5t133 250.5q0 134 -78 206.5t-220 72.5t-228 -87t-86 -234h-140z" />
    <glyph glyph-name="three" unicode="3" horiz-adv-x="1124" 
d="M68 426h139q0 -146 95.5 -234t244.5 -88t237 81.5t88 211.5q0 195 -121.5 240t-203.5 45h-109v125h109q150 0 223.5 73.5t73.5 192.5t-80 187.5t-226 68.5t-222 -77.5t-76 -207.5h-138q0 183 120.5 297.5t317.5 114.5q196 0 319.5 -107.5t123.5 -277.5q0 -117 -63.5 -207
t-186.5 -121q127 -29 202 -121t75 -229q0 -184 -134.5 -300t-337.5 -116t-336.5 123t-133.5 326z" />
    <glyph glyph-name="four" unicode="4" horiz-adv-x="1118" 
d="M143 492v942h140v-816h405v453h139v-453h234v-126h-234v-492h-139v492h-545z" />
    <glyph glyph-name="five" unicode="5" horiz-adv-x="1208" 
d="M176 610v824h817v-125h-692v-564q47 88 140.5 132.5t200.5 44.5q205 0 329.5 -135t124.5 -334q0 -198 -133 -337t-345.5 -139t-343.5 139.5t-131 336.5h138q0 -146 93 -247.5t244 -101.5q150 0 245 101t95 246t-94 245.5t-250 100.5q-208 0 -295 -187h-143z" />
    <glyph glyph-name="six" unicode="6" horiz-adv-x="1112" 
d="M215 452q0 -72 23.5 -134t67.5 -110t105.5 -76t139.5 -28t140.5 28t107.5 76t68.5 110.5t23.5 134.5t-23.5 135t-68.5 111.5t-107.5 76t-140.5 27.5t-139.5 -27.5t-105.5 -76t-67.5 -112t-23.5 -135.5zM76 444q0 154 80 281l442 709h160l-355 -553q47 47 155 47t194 -38
t147.5 -102.5t96 -151.5t34.5 -183t-33.5 -182.5t-96 -151t-150.5 -103.5t-197 -39t-197 38t-150.5 103.5t-96 151.5t-33.5 174z" />
    <glyph glyph-name="seven" unicode="7" horiz-adv-x="929" 
d="M78 1309v125h862l-664 -1434h-147l612 1309h-663z" />
    <glyph glyph-name="eight" unicode="8" horiz-adv-x="1169" 
d="M585 795q144 0 225 75.5t81 191.5t-83 191.5t-223 75.5t-222 -76t-82 -191q0 -116 80 -191.5t224 -75.5zM252 394q0 -194 128 -242t241.5 -48t205 82t91.5 205t-89 206t-242 83t-244 -80t-91 -206zM113 378q0 144 68.5 240t199.5 127q-123 35 -181.5 123t-58.5 184
q0 180 121 292t322 112t322.5 -111t121.5 -278q0 -111 -58.5 -199t-181.5 -123q132 -31 200.5 -129t68.5 -205q0 -195 -130.5 -314.5t-343.5 -119.5t-309 88.5t-128.5 163.5t-32.5 149z" />
    <glyph glyph-name="nine" unicode="9" horiz-adv-x="1112" 
d="M315.5 733.5q94.5 -100.5 245.5 -100.5t243.5 101t92.5 247t-92.5 247t-243.5 101t-245.5 -100.5t-94.5 -247.5t94.5 -247.5zM560 506q-204 0 -341 137.5t-137 335.5t132 337.5t344.5 139.5t345 -138.5t132.5 -334.5q0 -144 -80 -272l-442 -711h-160l353 549
q-43 -43 -147 -43z" />
    <glyph glyph-name="colon" unicode=":" horiz-adv-x="468" 
d="M113 807q0 51 34.5 87t86.5 36t87 -36t35 -87t-35 -86t-87 -35t-86.5 35t-34.5 86zM113 112q0 52 34.5 86.5t86.5 34.5t87 -34.5t35 -86.5t-35 -87t-87 -35t-86.5 35t-34.5 87z" />
    <glyph glyph-name="semicolon" unicode=";" horiz-adv-x="481" 
d="M113 808q0 52 34.5 87t86.5 35t87 -35t35 -87t-35 -87t-87 -35t-86.5 35t-34.5 87zM113 111q0 51 34.5 86.5t94.5 35.5t108.5 -50t48.5 -174t-74.5 -185.5t-197.5 -61.5v72q112 0 145 86q18 52 13 88q-17 -18 -61 -18t-77.5 35t-33.5 86z" />
    <glyph glyph-name="less" unicode="&#x3c;" 
d="M63 532v99l1039 379v-127l-844 -301l844 -301v-129z" />
    <glyph glyph-name="equal" unicode="=" 
d="M170 692v121h827v-121h-827zM170 350v119h827v-119h-827z" />
    <glyph glyph-name="greater" unicode="&#x3e;" 
d="M66 152v129l843 301l-843 301v127l1038 -379v-99z" />
    <glyph glyph-name="question" unicode="?" horiz-adv-x="1017" 
d="M332 104q0 53 35 90t89 37t91 -36.5t37 -90.5t-37 -90.5t-90 -36.5t-89 37t-36 90zM45 1012q0 200 128 324t327 124t316.5 -106.5t117.5 -288.5t-98 -258.5t-138 -102.5q-97 -65 -135.5 -124.5t-38.5 -194.5h-133q0 220 74 286.5t112 92.5t128 87t90 227
q0 122 -79.5 188.5t-219.5 66.5t-226 -87t-86 -234h-139z" />
    <glyph glyph-name="at" unicode="@" horiz-adv-x="1798" 
d="M645.5 197q86.5 -93 224.5 -93t224 95t86 226q0 132 -88 224t-224.5 92t-222.5 -92.5t-86 -225.5t86.5 -226zM967 -301q328 0 575 137l55 -90q-208 -117 -386.5 -134.5t-241.5 -17.5q-227 0 -397.5 70t-337 244t-166.5 524q0 147 47 293.5t150.5 265.5t268 192.5
t371.5 73.5q401 0 615.5 -203.5t214.5 -603.5t-121.5 -475t-195.5 -75q-124 0 -168.5 61.5t-65.5 163.5q-4 12 -4 15v57q-43 -92 -128.5 -143.5t-185.5 -51.5q-188 0 -304 122.5t-116 295.5q0 172 116.5 298t295.5 126q113 0 197 -52.5t125 -142.5v176h112v-622
q0 -98 39 -148.5t96 -50.5q92 0 142.5 118t50.5 310q0 367 -184 544t-504 177q-209 0 -352.5 -66.5t-271.5 -217t-128 -448.5q0 -299 205 -510.5t582 -211.5z" />
    <glyph glyph-name="A" unicode="A" horiz-adv-x="1118" 
d="M289 383h540l-270 831zM14 0l494 1434h104l494 -1434h-145l-89 258h-626l-86 -258h-146z" />
    <glyph glyph-name="B" unicode="B" horiz-adv-x="1193" 
d="M309 784h357q130 0 199 81t69 184t-71.5 181.5t-203.5 78.5h-350v-525zM309 127h357q133 0 204.5 81.5t71.5 184.5t-73 184.5t-195 81.5h-365v-532zM170 0v1434h489q207 0 309.5 -118.5t102.5 -257.5t-70.5 -227.5t-175.5 -109.5q102 -23 179 -111.5t77 -230.5
t-105.5 -260.5t-309.5 -118.5h-496z" />
    <glyph glyph-name="C" unicode="C" horiz-adv-x="1587" 
d="M88 716q0 311 201 529.5t538 218.5q274 0 451.5 -142.5t222.5 -369.5h-143q-38 168 -178 277.5t-349 109.5q-277 0 -439.5 -181.5t-162.5 -439.5t169 -440t446 -182t379 129t127 197h151q-60 -198 -238.5 -325.5t-431.5 -127.5q-333 0 -485.5 163t-205 299.5t-52.5 284.5
z" />
    <glyph glyph-name="D" unicode="D" horiz-adv-x="1421" 
d="M309 127h281q275 0 438.5 176t163.5 414.5t-164 415t-438 176.5h-281v-1182zM170 0v1434h420q178 0 316 -61.5t233.5 -162t144.5 -229.5t49 -264t-49 -264t-144.5 -229.5t-233.5 -162t-316 -61.5h-420z" />
    <glyph glyph-name="E" unicode="E" horiz-adv-x="1112" 
d="M170 0v1434h782v-125h-643v-533h643v-127h-643v-522h643v-127h-782z" />
    <glyph glyph-name="F" unicode="F" horiz-adv-x="1101" 
d="M170 0v1434h782v-125h-643v-570h643v-125h-643v-614h-139z" />
    <glyph glyph-name="G" unicode="G" horiz-adv-x="1705" 
d="M88 712q0 146 50 282t202.5 303t476.5 167q235 0 397 -114t199 -287h-141q-60 189 -213 232.5t-265 43.5t-221.5 -52t-226.5 -184.5t-117 -386.5t161.5 -437t445.5 -183q226 0 357.5 118.5t158.5 322.5h-404v127h701v-127h-152q-32 -258 -208 -413t-458 -155
q-344 0 -543.5 218.5t-199.5 524.5z" />
    <glyph glyph-name="H" unicode="H" horiz-adv-x="1357" 
d="M170 0v1434h139v-658h740v658h139v-1434h-139v649h-740v-649h-139z" />
    <glyph glyph-name="I" unicode="I" horiz-adv-x="483" 
d="M170 0v1434h143v-1434h-143z" />
    <glyph glyph-name="J" unicode="J" horiz-adv-x="1097" 
d="M33 444h139q0 -156 90.5 -252t234.5 -96t228 93.5t84 252.5v992h139v-992q0 -211 -123 -342t-327 -131t-334.5 132.5t-130.5 342.5z" />
    <glyph glyph-name="K" unicode="K" horiz-adv-x="1173" 
d="M170 0v1434h139v-674l670 674h178l-706 -717l706 -717h-178l-670 674v-674h-139z" />
    <glyph glyph-name="L" unicode="L" horiz-adv-x="864" 
d="M170 0v1434h139v-1307h494v-127h-633z" />
    <glyph glyph-name="M" unicode="M" horiz-adv-x="1658" 
d="M170 0v1434h135l524 -1225l527 1225h133v-1434h-137v1112l-467 -1112h-111l-465 1112v-1112h-139z" />
    <glyph glyph-name="N" unicode="N" horiz-adv-x="1355" 
d="M170 0v1434h154l723 -1194v1194h139v-1434h-154l-723 1196v-1196h-139z" />
    <glyph glyph-name="O" unicode="O" horiz-adv-x="1650" 
d="M396.5 281q163.5 -185 428.5 -185q137 0 248 52.5t187.5 138.5t117.5 197.5t41 232.5t-41 233.5t-117.5 198.5t-187.5 138t-249 52t-247.5 -52t-226.5 -184.5t-117 -384.5t163.5 -437zM88 716q0 146 50 281.5t145.5 238.5t232.5 165.5t309 62.5t308.5 -62.5t231.5 -165.5
t146.5 -238.5t51.5 -280.5t-51.5 -280.5t-146.5 -239t-231.5 -166t-308.5 -62.5t-309 62.5t-232.5 166t-145.5 238t-50 280.5z" />
    <glyph glyph-name="P" unicode="P" horiz-adv-x="1220" 
d="M309 610h355q150 0 245 102t95 248t-95 247.5t-245 101.5h-355v-699zM170 0v1434h494q212 0 345.5 -137t133.5 -337q0 -199 -133.5 -337t-345.5 -138h-355v-485h-139z" />
    <glyph glyph-name="Q" unicode="Q" horiz-adv-x="1650" 
d="M396.5 281q163.5 -185 428.5 -185q137 0 248 52.5t187.5 138.5t117.5 197.5t41 232.5t-41 233.5t-117.5 198.5t-187.5 138t-249 52t-247.5 -52t-226.5 -184.5t-117 -384.5t163.5 -437zM88 717q0 145 50 280.5t145.5 238.5t232.5 165.5t309 62.5t308.5 -62.5t231.5 -165.5
t146.5 -239.5t51.5 -278.5q0 -282 -164.5 -481t-423.5 -247l129 -183q-97 -51 -121 -61l-160 223q-172 0 -308 62.5t-281.5 221.5t-145.5 464z" />
    <glyph glyph-name="R" unicode="R" horiz-adv-x="1232" 
d="M309 610h355q150 0 245 102t95 248t-95 247.5t-245 101.5h-355v-699zM170 0v1434h494q212 0 345.5 -137.5t133.5 -338.5q0 -158 -90.5 -283t-245.5 -169l321 -506h-159l-307 485h-353v-485h-139z" />
    <glyph glyph-name="S" unicode="S" horiz-adv-x="1171" 
d="M96 444h140q0 -158 98 -253t260 -95t253 72t91 205q0 183 -131 227.5t-206 65.5q-217 61 -333 142.5t-116 267.5q0 185 125.5 286.5t322.5 101.5t318.5 -115t125.5 -315h-137q-4 150 -86 227.5t-221 77.5t-225 -65.5t-86 -190.5q0 -173 130.5 -216t202.5 -65t262.5 -87.5
t190.5 -331.5q0 -196 -133 -305t-350 -109t-356.5 131.5t-139.5 343.5z" />
    <glyph glyph-name="T" unicode="T" horiz-adv-x="970" 
d="M29 1309v125h913v-125h-389v-1309h-137v1309h-387z" />
    <glyph glyph-name="U" unicode="U" horiz-adv-x="1265" 
d="M150 451v983h139v-983q0 -149 96.5 -252t247.5 -103t247.5 103t96.5 252v983h139v-983q0 -201 -134 -341.5t-349 -140.5t-349 140.5t-134 341.5z" />
    <glyph glyph-name="V" unicode="V" horiz-adv-x="1140" 
d="M10 1434h146l415 -1211l414 1211h145l-507 -1434h-105z" />
    <glyph glyph-name="W" unicode="W" horiz-adv-x="1935" 
d="M12 1434h146l391 -1201l364 1201h109l364 -1201l392 1201h145l-485 -1434h-107l-362 1198l-365 -1198h-106z" />
    <glyph glyph-name="X" unicode="X" horiz-adv-x="1093" 
d="M23 0l446 717l-446 717h157l367 -598l368 598h156l-446 -717l446 -717h-156l-368 596l-367 -596h-157z" />
    <glyph glyph-name="Y" unicode="Y" horiz-adv-x="1157" 
d="M18 1434h160l457 -723l373 723h151l-731 -1434h-154l291 567z" />
    <glyph glyph-name="Z" unicode="Z" horiz-adv-x="1130" 
d="M76 1309v125h1040l-850 -1307h869v-127h-1102l848 1309h-805z" />
    <glyph glyph-name="bracketleft" unicode="[" horiz-adv-x="645" 
d="M170 -479v2107h393v-121h-260v-1867h260v-119h-393z" />
    <glyph glyph-name="backslash" unicode="\" horiz-adv-x="858" 
d="M-20 1583l122 53l746 -1732l-121 -54z" />
    <glyph glyph-name="bracketright" unicode="]" horiz-adv-x="645" 
d="M82 -360h262v1867h-262v121h393v-2107h-393v119z" />
    <glyph glyph-name="asciicircum" unicode="^" horiz-adv-x="1286" 
d="M123 662l469 874h98l473 -874h-149l-373 710l-373 -710h-145z" />
    <glyph glyph-name="underscore" unicode="_" horiz-adv-x="1146" 
d="M61 -102h1024v-99h-1024v99z" />
    <glyph glyph-name="grave" unicode="`" horiz-adv-x="854" 
d="M123 1384l63 107l510 -281l-63 -106z" />
    <glyph glyph-name="a" unicode="a" horiz-adv-x="1212" 
d="M315.5 203.5q94.5 -105.5 247.5 -105.5t249.5 103t96.5 252t-96 252.5t-248.5 103.5t-248 -105t-95.5 -250t94.5 -250.5zM219.5 790q131.5 138 329.5 138q123 0 218 -56.5t142 -158.5v194h133v-907h-133v193q-43 -92 -134 -154t-209 -62t-202.5 38t-180 139.5
t-95.5 299.5t131.5 336z" />
    <glyph glyph-name="b" unicode="b" horiz-adv-x="1214" 
d="M399.5 201q96.5 -103 249.5 -103t247.5 105.5t94.5 250.5t-95.5 250t-248 105t-248.5 -103.5t-96 -252.5t96.5 -252zM170 0v1434h133v-721q47 102 142 158.5t207 56.5t197 -38t146.5 -102.5t95 -151.5t33.5 -233t-131.5 -286t-330.5 -140q-133 0 -224.5 61.5
t-134.5 154.5v-193h-133z" />
    <glyph glyph-name="c" unicode="c" horiz-adv-x="1073" 
d="M217 791q121 139 326 139q206 0 312.5 -106.5t115.5 -248.5h-131q-10 102 -81 168t-217 66t-230.5 -101.5t-84.5 -252.5q0 -242 124.5 -299.5t228.5 -57.5t172.5 58.5t89.5 154.5h133q-20 -147 -130.5 -240.5t-287.5 -93.5q-219 0 -340 139.5t-121 337.5t121 337z" />
    <glyph glyph-name="d" unicode="d" horiz-adv-x="1212" 
d="M315.5 203.5q94.5 -105.5 247.5 -105.5t249.5 103t96.5 252t-96 252.5t-248.5 103.5t-248 -105t-95.5 -250t94.5 -250.5zM219.5 790q131.5 138 329.5 138q123 0 218 -56.5t142 -158.5v721h133v-1434h-133v193q-43 -92 -134 -154t-209 -62t-202.5 38t-180 139.5
t-95.5 299.5t131.5 336z" />
    <glyph glyph-name="e" unicode="e" horiz-adv-x="1062" 
d="M831 528q0 127 -83.5 207t-213.5 80q-131 0 -212.5 -78t-90.5 -209h600zM961 544q0 -64 -7 -118h-725q0 -144 81 -239t235 -95q117 0 181.5 50.5t88.5 117.5h133q-26 -119 -135 -201t-270 -82q-215 0 -331 140.5t-116 341.5q0 202 117.5 335.5t310.5 133.5t283 -86
t122 -160t32 -138z" />
    <glyph glyph-name="f" unicode="f" horiz-adv-x="686" 
d="M433.5 1288q-48.5 -39 -48.5 -166v-215h283v-114h-283v-793h-133v793h-205v114h205v203q0 206 83.5 271t184.5 65q100 0 148 -23v-114q-45 18 -116 18q-70 0 -118.5 -39z" />
    <glyph glyph-name="g" unicode="g" horiz-adv-x="1208" 
d="M812.5 201q96.5 103 96.5 252t-96 252.5t-250 103.5t-248 -105.5t-94 -250.5t96 -250t247.5 -105t248 103zM1042 -72q0 -477 -481 -477q-221 0 -334.5 113.5t-126.5 304.5h133q15 -205 127.5 -251t206.5 -46q158 0 250 83t92 273v267q-43 -92 -134 -155t-209 -63
t-202.5 38t-146 103.5t-95.5 152.5t-34 183q0 197 131.5 335.5t331.5 138.5q133 0 224 -60.5t134 -152.5v192h133v-979z" />
    <glyph glyph-name="h" unicode="h" horiz-adv-x="1150" 
d="M170 0v1434h133v-725q39 92 126 155.5t222 63.5q177 0 263 -106q85 -106 85 -290v-532h-133v494q0 219 -96 267t-169 48q-143 0 -220.5 -103.5t-77.5 -240.5v-465h-133z" />
    <glyph glyph-name="i" unicode="i" horiz-adv-x="518" 
d="M193 0v907h133v-907h-133zM137 1263q0 52 35 86.5t87 34.5t87 -34.5t35 -86.5t-35 -87t-87 -35t-87 35t-35 87z" />
    <glyph glyph-name="j" unicode="j" horiz-adv-x="520" 
d="M143 1263q0 52 35 86.5t86 34.5t87 -34.5t36 -86.5t-36 -87t-87 -35t-86 35t-35 87zM74 -426q123 0 123 156v1177h133v-1183q0 -141 -58.5 -204t-146.5 -63t-148 25v115q59 -23 97 -23z" />
    <glyph glyph-name="k" unicode="k" horiz-adv-x="931" 
d="M170 0v1434h133v-953l426 426h174l-450 -454l450 -453h-174l-426 424v-424h-133z" />
    <glyph glyph-name="l" unicode="l" horiz-adv-x="473" 
d="M170 0v1434h133v-1434h-133z" />
    <glyph glyph-name="m" unicode="m" horiz-adv-x="1662" 
d="M170 0v907h133v-198q41 148 136.5 183.5t158.5 35.5q113 0 188.5 -58.5t96.5 -167.5q44 151 145.5 188.5t169.5 37.5q145 0 227 -91.5t82 -265.5v-571h-131v535q0 145 -60.5 209.5t-154.5 64.5q-123 0 -189.5 -95.5t-66.5 -252.5v-461h-131v510q0 232 -84 265.5
t-129 33.5q-123 0 -190.5 -96.5t-67.5 -251.5v-461h-133z" />
    <glyph glyph-name="n" unicode="n" horiz-adv-x="1150" 
d="M170 0v907h133v-198q39 92 126 155.5t222 63.5q177 0 263 -106q85 -106 85 -290v-532h-133v494q0 219 -96 267t-169 48q-143 0 -220.5 -103.5t-77.5 -240.5v-465h-133z" />
    <glyph glyph-name="o" unicode="o" horiz-adv-x="1130" 
d="M315.5 203.5q94.5 -105.5 247.5 -105.5t249.5 103t96.5 252t-96 252.5t-248.5 103.5t-248 -105t-95.5 -250t94.5 -250.5zM221.5 790.5q133.5 137.5 342.5 137.5t343.5 -136.5t134.5 -337t-132.5 -339t-344 -138.5t-344.5 139t-133 338t133.5 336.5z" />
    <glyph glyph-name="p" unicode="p" horiz-adv-x="1214" 
d="M895 202.5q96 104.5 96 250.5q0 145 -94 250.5t-248 105.5t-250 -103.5t-96 -252.5t96.5 -252t248 -103t247.5 104.5zM170 -528v1435h133v-192q43 92 134 152.5t208 60.5t202 -38t146.5 -102.5t96 -150.5t34.5 -233t-131.5 -287t-330.5 -140q-133 0 -224.5 62.5
t-134.5 155.5v-723h-133z" />
    <glyph glyph-name="q" unicode="q" horiz-adv-x="1214" 
d="M814.5 201q96.5 103 96.5 252t-96 252.5t-250 103.5t-248 -105.5t-94 -250.5t96 -250t247.5 -105t248 103zM221.5 790q131.5 138 331.5 138q133 0 224 -60.5t134 -152.5v192h133v-1435h-133v723q-43 -92 -134 -155t-209 -63t-202.5 38t-180 139.5t-95.5 299.5t131.5 336z
" />
    <glyph glyph-name="r" unicode="r" horiz-adv-x="722" 
d="M605 795q-58 0 -180 -62.5t-122 -329.5v-403h-133v907h133v-215q41 111 130 169.5t194 58.5q54 0 86 -15v-121q-50 11 -108 11z" />
    <glyph glyph-name="s" unicode="s" horiz-adv-x="921" 
d="M90 307h129q0 -113 69.5 -166t180.5 -53q223 0 223 148q0 85 -67.5 113t-122 39.5t-106.5 23.5q-128 30 -201.5 84t-73.5 175t91 189t243 68t251 -81.5t99 -219.5h-129q0 94 -59.5 143t-156.5 49t-154.5 -38t-57.5 -111t61.5 -104t164.5 -49q103 -19 224 -58.5
t121 -217.5q0 -126 -95 -195t-249 -69q-266 0 -325.5 122t-59.5 208z" />
    <glyph glyph-name="t" unicode="t" horiz-adv-x="673" 
d="M513.5 -12q-58.5 0 -107 8t-115 62t-66.5 245v490h-184v114h184v336h131v-336h265v-114h-265v-463q0 -190 65.5 -205.5t118.5 -15.5t113 10v-119q-81 -12 -139.5 -12z" />
    <glyph glyph-name="u" unicode="u" horiz-adv-x="1146" 
d="M150 375v532h131v-493q0 -220 96 -268t169 -48q140 0 220 103t80 241v465h131v-907h-131v199q-39 -92 -126 -157t-220 -65q-178 0 -273 115q-77 93 -77 283z" />
    <glyph glyph-name="v" unicode="v" horiz-adv-x="962" 
d="M16 907h142l321 -721l326 721h143l-422 -907h-94z" />
    <glyph glyph-name="w" unicode="w" horiz-adv-x="1462" 
d="M16 907h142l256 -706l252 706h131l252 -706l256 706h141l-350 -907h-95l-270 760l-268 -760h-96z" />
    <glyph glyph-name="x" unicode="x" horiz-adv-x="888" 
d="M47 0l320 455l-316 452h154l239 -348l240 348h154l-318 -452l322 -455h-154l-244 352l-243 -352h-154z" />
    <glyph glyph-name="y" unicode="y" horiz-adv-x="1163" 
d="M868 -86v285q-41 -98 -128.5 -160t-203.5 -62t-181.5 31t-106.5 81q-76 93 -76 296v522h131v-483q0 -235 91 -280.5t169 -45.5q148 0 226.5 101t78.5 243v465h131v-993q0 -246 -109 -354.5t-312 -108.5q-320 0 -370 162t-52 252h129q4 -143 71 -218t218 -75t222.5 77
t71.5 265z" />
    <glyph glyph-name="z" unicode="z" horiz-adv-x="882" 
d="M76 786v121h751l-544 -786h546v-121h-776l545 786h-522z" />
    <glyph glyph-name="braceleft" unicode="{" horiz-adv-x="778" 
d="M113 606q63 0 125.5 49t62.5 136v550q0 134 85 209.5t196 75.5h125v-104h-97q-80 0 -128 -55.5t-48 -143.5v-549q0 -97 -57 -152t-123 -71q115 -28 147.5 -103t32.5 -137v-487q0 -88 48 -143.5t128 -55.5h97v-104h-125q-109 0 -195 74t-86 210v490q0 95 -63 147t-125 52
v112z" />
    <glyph glyph-name="bar" unicode="|" horiz-adv-x="473" 
d="M170 -479v2105h133v-2105h-133z" />
    <glyph glyph-name="braceright" unicode="}" horiz-adv-x="778" 
d="M72 -375h98q80 0 127 55.5t47 143.5v487q0 158 78 196t104 44q-114 25 -148 96.5t-34 126.5v549q0 88 -47 143.5t-127 55.5h-98v104h125q110 0 195 -75.5t85 -209.5v-550q0 -87 62.5 -136t126.5 -49v-112q-63 0 -126 -52t-63 -147v-490q0 -136 -86 -210t-194 -74h-125
v104z" />
    <glyph glyph-name="asciitilde" unicode="~" horiz-adv-x="1044" 
d="M750 567q101 0 219 111v-121q-96 -108 -226 -108q-75 0 -182 49q-106 49 -163.5 69.5t-112.5 20.5q-113 0 -215 -107v123q85 103 213 103q85 1 196 -47t166 -70.5t105 -22.5z" />
    <glyph glyph-name="nonbreakingspace" unicode="&#xa0;" horiz-adv-x="522" 
 />
    <glyph glyph-name="exclamdown" unicode="&#xa1;" horiz-adv-x="579" 
d="M221 -12v1030h141v-1030h-141zM170 1333q0 51 35 87t87 36t88 -36t36 -87t-36 -87t-88 -36t-87 36t-35 87z" />
    <glyph glyph-name="cent" unicode="&#xa2;" horiz-adv-x="1120" 
d="M218 887.5q103 135.5 288 154.5v226h125v-224q171 -19 258 -117t100 -233h-131q-10 102 -80.5 168t-216.5 66t-230.5 -101.5t-84.5 -254.5t85.5 -254t248.5 -101q123 0 191.5 58.5t88.5 154.5h133q-20 -129 -108 -220t-254 -108v-225h-125v225q-183 19 -287 156
t-104 315.5t103 314z" />
    <glyph glyph-name="sterling" unicode="&#xa3;" horiz-adv-x="1222" 
d="M350 537q0 -328 -71 -410h718v-127h-876v109q57 70 74.5 170t17.5 258v194h-139v127h139l-2 164q0 186 125.5 308t323.5 122t325 -126t127 -322h-139q0 141 -83 232t-222 91q-263 0 -312 -242q-6 -36 -6 -51v-176h391v-127h-391v-194z" />
    <glyph glyph-name="currency" unicode="&#xa4;" horiz-adv-x="1589" 
d="M393 758q0 -72 24.5 -136.5t68.5 -112.5t107.5 -77t143.5 -29t143.5 29t108.5 77t69.5 112.5t24.5 136.5t-24.5 136t-69.5 113.5t-109.5 78t-142.5 28.5t-141.5 -28.5t-108.5 -78t-69.5 -113.5t-24.5 -136zM737 285q-174 0 -295 98l-145 -145l-86 84l145 145
q-94 125 -94 292t94 290l-143 145l84 86l143 -145q123 98 295 98t297 -96l144 141l84 -84l-144 -143q98 -123 98 -293t-98 -293l144 -141l-84 -86l-144 143q-121 -96 -295 -96z" />
    <glyph glyph-name="yen" unicode="&#xa5;" horiz-adv-x="1239" 
d="M1040 584v-111h-354v-180h354v-115h-354v-178h-125v178h-348v115h348v180h-348v111h326l-568 850h162l492 -736l483 736h160l-559 -850h331z" />
    <glyph glyph-name="brokenbar" unicode="&#xa6;" horiz-adv-x="473" 
d="M170 659v967h133v-967h-133zM170 -479v966h133v-966h-133z" />
    <glyph glyph-name="section" unicode="&#xa7;" horiz-adv-x="1185" 
d="M244 580q0 -88 62.5 -139t165.5 -82t160.5 -49t110.5 -31q86 4 150.5 66.5t64.5 153.5t-58 132t-169 80t-258 84q-104 -4 -166.5 -65.5t-62.5 -149.5zM336 860q-162 103 -162 278t128.5 273t326.5 98t324 -116t126 -297h-139q0 130 -85.5 213.5t-224.5 83.5t-228 -62
t-89 -180q0 -168 134.5 -211.5t214.5 -67.5q213 -63 324.5 -136t111.5 -220q0 -113 -66 -196t-160 -105q178 -94 178 -276t-124.5 -274.5t-330.5 -92.5t-344 120t-138 312h139q0 -135 92 -224t285 -89t237.5 85t44.5 147q0 113 -79.5 167t-222.5 96q-144 42 -226 70.5
t-181.5 92t-99.5 216.5q0 119 65.5 196t168.5 99z" />
    <glyph glyph-name="dieresis" unicode="&#xa8;" horiz-adv-x="1058" 
d="M639 1330q0 50 34 84t84 34t83.5 -34t33.5 -84t-33.5 -84t-83.5 -34t-84 34t-34 84zM168 1330q0 50 34 84t84 34t83.5 -34t33.5 -84t-33.5 -84t-83.5 -34t-84 34t-34 84z" />
    <glyph glyph-name="copyright" unicode="&#xa9;" horiz-adv-x="1652" 
d="M381 717q0 189 121.5 323t328.5 134q164 0 275 -89.5t135 -226.5h-104q-25 92 -104 156.5t-183 64.5q-180 0 -272.5 -105t-92.5 -255t97.5 -256.5t253.5 -106.5q111 0 186.5 51.5t110.5 129.5h108q-37 -123 -144.5 -199t-262.5 -76q-204 0 -328.5 133t-124.5 322z
M215 647.5q0 -194.5 169 -385t443 -190.5q141 0 255 54t194 143t122 206t42 242t-42 242.5t-171 261t-401 143.5t-399.5 -143.5t-169.5 -261t-42 -312zM90 716q0 146 51.5 282.5t146.5 240.5t231 166.5t308 62.5t308.5 -62.5t231.5 -166.5t145.5 -240.5t50.5 -281.5
t-50.5 -281.5t-145.5 -241t-231.5 -167t-308.5 -62.5t-308 62.5t-231 167t-146.5 240t-51.5 281.5z" />
    <glyph glyph-name="ordfeminine" unicode="&#xaa;" horiz-adv-x="1212" 
d="M315.5 203.5q94.5 -105.5 247.5 -105.5t249.5 103t96.5 252t-96 252.5t-248.5 103.5t-248 -105t-95.5 -250t94.5 -250.5zM219.5 790q131.5 138 329.5 138q123 0 218 -56.5t142 -158.5v194h133v-907h-133v193q-43 -92 -134 -154t-209 -62t-202.5 38t-180 139.5
t-95.5 299.5t131.5 336z" />
    <glyph glyph-name="guillemotleft" unicode="&#xab;" horiz-adv-x="966" 
d="M483 553v86l402 348v-135l-291 -256l291 -256v-135zM82 553v86l401 348v-135l-290 -256l290 -256v-135z" />
    <glyph glyph-name="logicalnot" unicode="&#xac;" 
d="M170 606v119h827v-418h-131v299h-696z" />
    <glyph glyph-name="softhyphen" unicode="&#xad;" horiz-adv-x="602" 
d="M61 524v119h480v-119h-480z" />
    <glyph glyph-name="registered" unicode="&#xae;" horiz-adv-x="1662" 
d="M676 702h201q82 0 130 54.5t48 131.5t-48.5 132t-129.5 55h-201v-373zM578 332v833h307q122 0 198 -81.5t76 -184.5q0 -104 -51 -176t-141 -96l186 -295h-113l-178 282h-186v-282h-98zM215 717q0 -125 42 -242t122 -206t194.5 -143t257.5 -54t258 54t195 143t123 206
t43 242t-43 242.5t-172 261t-404 143.5q-143 0 -257.5 -54.5t-194.5 -143.5t-122 -206.5t-42 -242.5zM90 716q0 146 51.5 282.5t146.5 240.5t233 166.5t310 62.5t310.5 -62.5t233.5 -166.5t146.5 -240.5t51.5 -281.5t-51.5 -281.5t-146.5 -241t-233.5 -167t-310.5 -62.5
t-310 62.5t-233 167t-146.5 240t-51.5 281.5z" />
    <glyph glyph-name="macron" unicode="&#xaf;" horiz-adv-x="1083" 
d="M176 1481v121h733v-121h-733z" />
    <glyph glyph-name="degree" unicode="&#xb0;" horiz-adv-x="677" 
d="M145 1176q0 -82 56.5 -138.5t137.5 -56.5t137 56t56 138t-55.5 139.5t-136.5 57.5q-82 0 -138.5 -57t-56.5 -139zM47 1176q0 62 22.5 114.5t62.5 92.5t93.5 62.5t114.5 22.5t114.5 -22.5t93.5 -62.5t62.5 -93t22.5 -114t-22.5 -114.5t-62.5 -93.5t-93.5 -62.5
t-114.5 -22.5t-114.5 22.5t-93.5 62.5t-62.5 93t-22.5 115z" />
    <glyph glyph-name="plusminus" unicode="&#xb1;" 
d="M180 797v118h338v347h131v-347h338v-118h-338v-342h-131v342h-338zM180 100v119h807v-119h-807z" />
    <glyph glyph-name="twosuperior" unicode="&#xb2;" horiz-adv-x="743" 
d="M115 645q0 185 53.5 261.5t153.5 123.5t150 84.5t50 105.5t-38 104t-106 36t-109.5 -43t-41.5 -119h-112q0 109 70.5 179.5t188.5 70.5t188.5 -58.5t70.5 -158.5t-53 -153.5t-130 -91.5q-134 -66 -171 -108.5t-37 -138.5h393v-94h-520z" />
    <glyph glyph-name="threesuperior" unicode="&#xb3;" horiz-adv-x="763" 
d="M373 1100q147 0 147 133q0 62 -40 94.5t-110 32.5t-106.5 -40t-36.5 -106h-110q0 98 64.5 166t182.5 68t192.5 -56.5t74.5 -156.5q0 -68 -36 -116t-101 -64q68 -16 108.5 -67.5t40.5 -142.5t-75.5 -151.5t-197.5 -60.5t-197 69.5t-75 182.5h113q0 -74 45 -117t119 -43
t115.5 40t41.5 102t-39.5 102.5t-119.5 40.5h-68v90h68z" />
    <glyph glyph-name="acute" unicode="&#xb4;" horiz-adv-x="854" 
d="M84 1210l510 281l63 -107l-510 -280z" />
    <glyph glyph-name="uni00B5" unicode="&#xb5;" 
d="M170 -528v1435h131v-493q0 -220 96.5 -268t168.5 -48q142 0 221 103t79 241v465h131v-907h-131v199q-39 -92 -125.5 -157t-226.5 -65t-213 99v-604h-131z" />
    <glyph glyph-name="paragraph" unicode="&#xb6;" horiz-adv-x="1306" 
d="M31 1084q0 118 55 197t156.5 133t298.5 54h626v-112h-108v-1659h-125v1657h-334v-1657h-127v977q-198 0 -320 99t-122 311z" />
    <glyph glyph-name="periodcentered" unicode="&#xb7;" horiz-adv-x="468" 
d="M113 640q0 52 34.5 87t86.5 35t87 -35t35 -87t-35 -87t-87 -35t-86.5 35t-34.5 87z" />
    <glyph glyph-name="cedilla" unicode="&#xb8;" horiz-adv-x="823" 
d="M452 -104q70 0 123.5 -50.5t53.5 -130.5q0 -125 -75 -159.5t-111 -34.5q-82 0 -139.5 43.5t-70.5 138.5h86q4 -45 34 -74.5t79 -29.5t80 32.5t31 80.5t-31 80t-89 32t-89 -66h-76v242h92v-158q32 54 102 54z" />
    <glyph glyph-name="onesuperior" unicode="&#xb9;" horiz-adv-x="518" 
d="M98 1217v83q102 0 136 30t34 104h101v-789h-113v572h-158z" />
    <glyph glyph-name="ordmasculine" unicode="&#xba;" horiz-adv-x="1130" 
d="M315.5 203.5q94.5 -105.5 247.5 -105.5t249.5 103t96.5 252t-96 252.5t-248.5 103.5t-248 -105t-95.5 -250t94.5 -250.5zM221.5 790.5q133.5 137.5 342.5 137.5t343.5 -136.5t134.5 -337t-132.5 -339t-344 -138.5t-344.5 139t-133 338t133.5 336.5z" />
    <glyph glyph-name="guillemotright" unicode="&#xbb;" horiz-adv-x="966" 
d="M483 205v135l293 256l-293 256v135l402 -348v-86zM82 205v135l293 256l-293 256v135l401 -348v-86z" />
    <glyph glyph-name="onequarter" unicode="&#xbc;" horiz-adv-x="1802" 
d="M1112 256v532h113v-436h198v238h111v-238h119v-96h-119v-256h-111v256h-311zM326 -4l895 1544l106 -61l-895 -1545zM150 1217v83q101 0 135 30t34 104h101v-789h-113v572h-157z" />
    <glyph glyph-name="onehalf" unicode="&#xbd;" horiz-adv-x="1802" 
d="M1108 0q0 183 53.5 260.5t153.5 124.5t150.5 85t50.5 106t-38 103.5t-107 35.5t-109.5 -43t-40.5 -119h-113q0 109 70.5 179.5t188.5 70.5t188.5 -58.5t70.5 -164.5q0 -140 -87 -187t-130 -69q-100 -50 -137 -92t-37 -138h393v-94h-520zM350 -4l895 1544l107 -61
l-895 -1545zM174 1217v83q102 0 136 30t34 104h100v-789h-112v572h-158z" />
    <glyph glyph-name="threequarters" unicode="&#xbe;" horiz-adv-x="1802" 
d="M1143 256v532h112v-436h199v238h111v-238h118v-96h-118v-256h-111v256h-311zM408 -4l895 1544l106 -61l-895 -1545zM119 885h112q0 -74 45.5 -117t119.5 -43t115.5 40t41.5 102t-40 102.5t-120 40.5h-67v90h67q76 0 112 35.5t36 97.5t-40 94.5t-110 32.5t-106.5 -40
t-36.5 -106h-111q0 98 64.5 166t182.5 68t192.5 -56.5t74.5 -156.5q0 -68 -35.5 -116t-101.5 -64q68 -16 109 -67.5t41 -142.5t-76 -151.5t-198 -60.5t-196.5 69.5t-74.5 182.5z" />
    <glyph glyph-name="questiondown" unicode="&#xbf;" horiz-adv-x="1017" 
d="M434 1335q0 53 37 89t90 36t89 -36t36 -89t-36 -90t-89 -37t-90 37t-37 90zM151 587q67 80 138 128q71 47 105 74.5t67 79t33 186.5h133q0 -219 -74 -287t-113 -93q-100 -64 -158.5 -128t-58.5 -185q0 -122 79.5 -189t219.5 -67t226 87.5t86 234.5h139q0 -200 -128 -324
t-327 -124t-316.5 106t-117.5 263q0 158 67 238z" />
    <glyph glyph-name="Agrave" unicode="&#xc0;" horiz-adv-x="1118" 
d="M297 1817l63 104l510 -281l-63 -104zM289 383h540l-270 831zM14 0l494 1434h104l494 -1434h-145l-89 258h-626l-86 -258h-146z" />
    <glyph glyph-name="Aacute" unicode="&#xc1;" horiz-adv-x="1118" 
d="M289 383h540l-270 831zM274 1620l510 281l64 -105l-510 -280zM14 0l494 1434h104l494 -1434h-145l-89 258h-626l-86 -258h-146z" />
    <glyph glyph-name="Acircumflex" unicode="&#xc2;" horiz-adv-x="1118" 
d="M289 383h540l-270 831zM190 1634l369 297l369 -297l-82 -94l-287 229l-285 -229zM14 0l494 1434h104l494 -1434h-145l-89 258h-626l-86 -258h-146z" />
    <glyph glyph-name="Atilde" unicode="&#xc3;" horiz-adv-x="1118" 
d="M289 383h540l-270 831zM411 1681q-48 0 -145 -57l-59 90q114 74 154 76t60 2q39 0 142 -27.5t149 -27.5t158 55l54 -90q-112 -76 -183 -76q-72 0 -139 19.5t-105 27.5t-86 8zM14 0l494 1434h104l494 -1434h-145l-89 258h-626l-86 -258h-146z" />
    <glyph glyph-name="Adieresis" unicode="&#xc4;" horiz-adv-x="1118" 
d="M674 1703q0 52 35 87t87 35t87 -35t35 -87t-35 -87t-87 -35t-87 35t-35 87zM289 383h540l-270 831zM203 1703q0 52 34.5 87t86.5 35t87 -35t35 -87t-34.5 -87t-86.5 -35t-87 35t-35 87zM14 0l494 1434h104l494 -1434h-145l-89 258h-626l-86 -258h-146z" />
    <glyph glyph-name="Aring" unicode="&#xc5;" horiz-adv-x="1118" 
d="M410 1748q0 -62 44 -106.5t106 -44.5t106.5 45.5t44.5 106.5t-44.5 105t-107.5 44t-106 -44t-43 -106zM381 1925q74 74 176 74t178 -73.5t76 -178.5t-75.5 -178.5t-176.5 -73.5t-176.5 73.5t-75.5 178t74 178.5zM289 383h540l-270 831zM14 0l494 1434h104l494 -1434h-145
l-89 258h-626l-86 -258h-146z" />
    <glyph glyph-name="AE" unicode="&#xc6;" horiz-adv-x="1734" 
d="M788 385v895l-442 -895h442zM1569 1434v-125h-643v-533h643v-127h-643v-522h643v-127h-781v258h-503l-129 -258h-150l717 1434h846z" />
    <glyph glyph-name="Ccedilla" unicode="&#xc7;" horiz-adv-x="1587" 
d="M799 -283q18 -88 108 -88q47 0 77 33t30 80t-31 76.5t-89 29.5t-85 -59h-76v186q-296 35 -470.5 246.5t-174.5 497.5q0 145 49 279.5t142.5 237.5t231 165.5t295.5 62.5q294 0 472 -142.5t223 -369.5h-143q-38 168 -178 277.5t-349 109.5q-277 0 -439.5 -181.5
t-162.5 -439.5t169 -440t446 -182t379 129t127 197h151q-64 -202 -238.5 -325.5t-404.5 -123.5q-6 -2 -14 -2h-19v-100q30 49 100 49q71 0 123 -49t52 -126t-53 -135.5t-136 -58.5q-112 0 -152 58.5t-48 107.5h88z" />
    <glyph glyph-name="Egrave" unicode="&#xc8;" horiz-adv-x="1112" 
d="M301 1796l64 107l509 -281l-63 -106zM170 0v1434h782v-125h-643v-533h643v-127h-643v-522h643v-127h-782z" />
    <glyph glyph-name="Eacute" unicode="&#xc9;" horiz-adv-x="1112" 
d="M291 1640l510 281l63 -104l-510 -281zM170 0v1434h782v-125h-643v-533h643v-127h-643v-522h643v-127h-782z" />
    <glyph glyph-name="Ecircumflex" unicode="&#xca;" horiz-adv-x="1112" 
d="M195 1634l368 297l369 -297l-82 -94l-287 229l-284 -229zM170 0v1434h782v-125h-643v-533h643v-127h-643v-522h643v-127h-782z" />
    <glyph glyph-name="Edieresis" unicode="&#xcb;" horiz-adv-x="1112" 
d="M688 1703q0 52 35 87t87 35t87 -35t35 -87t-35 -87t-87 -35t-87 35t-35 87zM217 1703q0 52 35 87t87 35t87 -35t35 -87t-35 -87t-87 -35t-87 35t-35 87zM170 0v1434h782v-125h-643v-533h643v-127h-643v-522h643v-127h-782z" />
    <glyph glyph-name="Igrave" unicode="&#xcc;" horiz-adv-x="483" 
d="M170 0v1434h143v-1434h-143zM-45 1796l63 105l510 -281l-63 -104z" />
    <glyph glyph-name="Iacute" unicode="&#xcd;" horiz-adv-x="483" 
d="M170 0v1434h143v-1434h-143zM-45 1622l510 281l63 -107l-510 -280z" />
    <glyph glyph-name="Icircumflex" unicode="&#xce;" horiz-adv-x="483" 
d="M170 0v1434h143v-1434h-143zM-127 1634l369 297l368 -297l-82 -94l-286 229l-285 -229z" />
    <glyph glyph-name="Idieresis" unicode="&#xcf;" horiz-adv-x="483" 
d="M369 1703q0 52 34.5 87t85.5 35t87 -35t36 -87t-35 -87t-87 -35t-86.5 35t-34.5 87zM170 0v1434h143v-1434h-143zM-104 1703q0 52 34.5 87t86.5 35t88 -35t36 -87t-35.5 -87t-87.5 -35t-87 35t-35 87z" />
    <glyph glyph-name="Eth" unicode="&#xd0;" horiz-adv-x="1421" 
d="M309 127h281q275 0 438.5 176t163.5 414.5t-164 415t-438 176.5h-281v-531h240v-121h-240v-530zM-59 657v121h229v656h420q176 0 314 -61.5t233.5 -162t145.5 -229.5t50 -264t-50 -264t-145.5 -229.5t-233.5 -162t-314 -61.5h-420v657h-229z" />
    <glyph glyph-name="Ntilde" unicode="&#xd1;" horiz-adv-x="1355" 
d="M668 1764.5q103 -27.5 148 -27.5q46 0 159 55l53 -90q-112 -76 -183 -76t-166.5 27.5t-153.5 27.5t-154 -57l-60 90q114 74 154.5 76t70.5 2q29 0 132 -27.5zM170 0v1434h154l723 -1194v1194h139v-1434h-154l-723 1196v-1196h-139z" />
    <glyph glyph-name="Ograve" unicode="&#xd2;" horiz-adv-x="1650" 
d="M557 1817l64 104l509 -281l-63 -104zM396.5 281q163.5 -185 428.5 -185q137 0 248 52.5t187.5 138.5t117.5 197.5t41 232.5t-41 233.5t-117.5 198.5t-187.5 138t-249 52t-247.5 -52t-226.5 -184.5t-117 -384.5t163.5 -437zM88 716q0 146 50 281.5t145.5 238.5
t232.5 165.5t309 62.5t308.5 -62.5t231.5 -165.5t146.5 -238.5t51.5 -280.5t-51.5 -280.5t-146.5 -239t-231.5 -166t-308.5 -62.5t-309 62.5t-232.5 166t-145.5 238t-50 280.5z" />
    <glyph glyph-name="Oacute" unicode="&#xd3;" horiz-adv-x="1650" 
d="M516 1640l510 281l64 -104l-510 -281zM396.5 281q163.5 -185 428.5 -185q137 0 248 52.5t187.5 138.5t117.5 197.5t41 232.5t-41 233.5t-117.5 198.5t-187.5 138t-249 52t-247.5 -52t-226.5 -184.5t-117 -384.5t163.5 -437zM88 716q0 146 50 281.5t145.5 238.5
t232.5 165.5t309 62.5t308.5 -62.5t231.5 -165.5t146.5 -238.5t51.5 -280.5t-51.5 -280.5t-146.5 -239t-231.5 -166t-308.5 -62.5t-309 62.5t-232.5 166t-145.5 238t-50 280.5z" />
    <glyph glyph-name="Ocircumflex" unicode="&#xd4;" horiz-adv-x="1650" 
d="M459 1634l366 297l371 -297l-82 -94l-287 229l-284 -229zM396.5 281q163.5 -185 428.5 -185q137 0 248 52.5t187.5 138.5t117.5 197.5t41 232.5t-41 233.5t-117.5 198.5t-187.5 138t-249 52t-247.5 -52t-226.5 -184.5t-117 -384.5t163.5 -437zM88 716q0 146 50 281.5
t145.5 238.5t232.5 165.5t309 62.5t308.5 -62.5t231.5 -165.5t146.5 -238.5t51.5 -280.5t-51.5 -280.5t-146.5 -239t-231.5 -166t-308.5 -62.5t-309 62.5t-232.5 166t-145.5 238t-50 280.5z" />
    <glyph glyph-name="Otilde" unicode="&#xd5;" horiz-adv-x="1650" 
d="M671 1681q-48 0 -145 -57l-59 90q114 74 154.5 76t60.5 2q39 0 141.5 -27.5t148.5 -27.5t158 55l54 -90q-112 -76 -183 -76q-72 0 -139 19.5t-105 27.5t-86 8zM396.5 281q163.5 -185 428.5 -185q137 0 248 52.5t187.5 138.5t117.5 197.5t41 232.5t-41 233.5t-117.5 198.5
t-187.5 138t-249 52t-247.5 -52t-226.5 -184.5t-117 -384.5t163.5 -437zM88 716q0 146 50 281.5t145.5 238.5t232.5 165.5t309 62.5t308.5 -62.5t231.5 -165.5t146.5 -238.5t51.5 -280.5t-51.5 -280.5t-146.5 -239t-231.5 -166t-308.5 -62.5t-309 62.5t-232.5 166
t-145.5 238t-50 280.5z" />
    <glyph glyph-name="Odieresis" unicode="&#xd6;" horiz-adv-x="1650" 
d="M940 1703q0 52 35 87t86 35t87 -35t36 -87t-36 -87t-87 -35t-86 35t-35 87zM469 1703q0 52 35 87t86 35t87 -35t36 -87t-36 -87t-87 -35t-86 35t-35 87zM396.5 281q163.5 -185 428.5 -185q137 0 248 52.5t187.5 138.5t117.5 197.5t41 232.5t-41 233.5t-117.5 198.5
t-187.5 138t-249 52t-247.5 -52t-226.5 -184.5t-117 -384.5t163.5 -437zM88 716q0 146 50 281.5t145.5 238.5t232.5 165.5t309 62.5t308.5 -62.5t231.5 -165.5t146.5 -238.5t51.5 -280.5t-51.5 -280.5t-146.5 -239t-231.5 -166t-308.5 -62.5t-309 62.5t-232.5 166
t-145.5 238t-50 280.5z" />
    <glyph glyph-name="multiply" unicode="&#xd7;" 
d="M244 338l250 250l-244 246l84 86l244 -246l251 250l93 -93l-250 -251l246 -246l-84 -84l-246 246l-250 -250z" />
    <glyph glyph-name="Oslash" unicode="&#xd8;" horiz-adv-x="1650" 
d="M839 96q123 0 234 52.5t228.5 184.5t117.5 389t-115.5 376t-187.5 159l-485 -1128q85 -33 208 -33zM233 717q0 -162 74 -305.5t209 -227.5l483 1129q-89 26 -201 26t-220.5 -52t-226.5 -184t-118 -386zM799 1464q144 0 252 -32l69 163l121 -51l-72 -162q184 -92 289 -275
t105 -390q0 -145 -51.5 -280.5t-146.5 -239t-231 -166t-288 -62.5t-264 41l-68 -160l-119 50l68 159q-177 97 -276 274t-99 384q0 145 51 280.5t146.5 238.5t232.5 165.5t281 62.5z" />
    <glyph glyph-name="Ugrave" unicode="&#xd9;" horiz-adv-x="1265" 
d="M360 1817l64 104l510 -281l-64 -104zM150 451v983h139v-983q0 -149 96.5 -252t247.5 -103t247.5 103t96.5 252v983h139v-983q0 -201 -134 -341.5t-349 -140.5t-349 140.5t-134 341.5z" />
    <glyph glyph-name="Uacute" unicode="&#xda;" horiz-adv-x="1265" 
d="M322 1640l509 281l64 -104l-510 -281zM150 451v983h139v-983q0 -149 96.5 -252t247.5 -103t247.5 103t96.5 252v983h139v-983q0 -201 -134 -341.5t-349 -140.5t-349 140.5t-134 341.5z" />
    <glyph glyph-name="Ucircumflex" unicode="&#xdb;" horiz-adv-x="1265" 
d="M258 1634l369 297l368 -297l-82 -94l-286 232l-285 -230zM150 451v983h139v-983q0 -149 96.5 -252t247.5 -103t247.5 103t96.5 252v983h139v-983q0 -201 -134 -341.5t-349 -140.5t-349 140.5t-134 341.5z" />
    <glyph glyph-name="Udieresis" unicode="&#xdc;" horiz-adv-x="1265" 
d="M745 1703q0 52 35 87t86 35t87 -35t36 -87t-35.5 -87t-87.5 -35t-86.5 35t-34.5 87zM274 1703q0 52 35 87t86 35t87 -35t36 -87t-36 -87t-87 -35t-86 35t-35 87zM150 451v983h139v-983q0 -149 96.5 -252t247.5 -103t247.5 103t96.5 252v983h139v-983q0 -201 -134 -341.5
t-349 -140.5t-349 140.5t-134 341.5z" />
    <glyph glyph-name="Yacute" unicode="&#xdd;" horiz-adv-x="1157" 
d="M358 1620l510 281l64 -105l-510 -280zM18 1434h160l457 -723l373 723h151l-731 -1434h-154l291 567z" />
    <glyph glyph-name="Thorn" unicode="&#xde;" horiz-adv-x="1021" 
d="M297 369h195q156 0 247.5 100t91.5 238.5t-92 239t-247 100.5h-195v-678zM170 0v1434h127v-273h195q208 0 337 -132.5t129 -320.5t-129 -321t-337 -133h-195v-254h-127z" />
    <glyph glyph-name="germandbls" unicode="&#xdf;" horiz-adv-x="1142" 
d="M795 154q118 100 118 228q0 127 -89.5 214.5t-243.5 87.5h-99v121h94q145 0 224.5 77.5t79.5 194.5t-82 189.5t-220 72.5t-216 -80.5t-78 -209.5v-1049h-133v1049q0 183 116 297t309 114t314 -105.5t121 -279.5q0 -129 -70 -216t-197 -116q135 -29 218 -123t83 -239
q0 -185 -133.5 -296.5t-326.5 -111.5q-91 0 -172 27v119q265 -65 383 35z" />
    <glyph glyph-name="agrave" unicode="&#xe0;" horiz-adv-x="1212" 
d="M274 1325l64 107l510 -281l-64 -107zM315.5 203.5q94.5 -105.5 247.5 -105.5t249.5 103t96.5 252t-96 252.5t-248.5 103.5t-248 -105t-95.5 -250t94.5 -250.5zM219.5 790q131.5 138 329.5 138q123 0 218 -56.5t142 -158.5v194h133v-907h-133v193q-43 -92 -134 -154
t-209 -62t-202.5 38t-180 139.5t-95.5 299.5t131.5 336z" />
    <glyph glyph-name="aacute" unicode="&#xe1;" horiz-adv-x="1212" 
d="M244 1151l510 281l63 -107l-510 -281zM315.5 203.5q94.5 -105.5 247.5 -105.5t249.5 103t96.5 252t-96 252.5t-248.5 103.5t-248 -105t-95.5 -250t94.5 -250.5zM219.5 790q131.5 138 329.5 138q123 0 218 -56.5t142 -158.5v194h133v-907h-133v193q-43 -92 -134 -154
t-209 -62t-202.5 38t-180 139.5t-95.5 299.5t131.5 336z" />
    <glyph glyph-name="acircumflex" unicode="&#xe2;" horiz-adv-x="1212" 
d="M315.5 203.5q94.5 -105.5 247.5 -105.5t249.5 103t96.5 252t-96 252.5t-248.5 103.5t-248 -105t-95.5 -250t94.5 -250.5zM197 1182l368 297l369 -297l-82 -95l-287 232l-284 -229zM219.5 790q131.5 138 329.5 138q123 0 218 -56.5t142 -158.5v194h133v-907h-133v193
q-43 -92 -134 -154t-209 -62t-202.5 38t-180 139.5t-95.5 299.5t131.5 336z" />
    <glyph glyph-name="atilde" unicode="&#xe3;" horiz-adv-x="1212" 
d="M315.5 203.5q94.5 -105.5 247.5 -105.5t249.5 103t96.5 252t-96 252.5t-248.5 103.5t-248 -105t-95.5 -250t94.5 -250.5zM424 1389q36 0 145 -28t151 -28t157 56l53 -91q-110 -75 -183 -75q-72 0 -165 27.5t-151 27.5t-159 -57l-59 90q121 78 211 78zM219.5 790
q131.5 138 329.5 138q123 0 218 -56.5t142 -158.5v194h133v-907h-133v193q-43 -92 -134 -154t-209 -62t-202.5 38t-180 139.5t-95.5 299.5t131.5 336z" />
    <glyph glyph-name="adieresis" unicode="&#xe4;" horiz-adv-x="1212" 
d="M676 1240q0 52 34 87t86 35t88 -35t36 -87t-36 -87t-87 -35t-86 35t-35 87zM315.5 203.5q94.5 -105.5 247.5 -105.5t249.5 103t96.5 252t-96 252.5t-248.5 103.5t-248 -105t-95.5 -250t94.5 -250.5zM205 1240q0 52 34.5 87t86.5 35t87.5 -35t35.5 -87t-36 -87t-87 -35
t-86 35t-35 87zM219.5 790q131.5 138 329.5 138q123 0 218 -56.5t142 -158.5v194h133v-907h-133v193q-43 -92 -134 -154t-209 -62t-202.5 38t-180 139.5t-95.5 299.5t131.5 336z" />
    <glyph glyph-name="aring" unicode="&#xe5;" horiz-adv-x="1212" 
d="M422 1276q0 -61 44 -106.5t106 -45.5t106.5 45t44.5 107t-43.5 105.5t-106.5 43.5t-107 -44t-44 -105zM395.5 1452.5q73.5 73.5 176.5 73.5t178 -73.5t75 -179t-75 -178.5t-176 -73t-176.5 72t-75.5 178.5t73.5 180zM315.5 203.5q94.5 -105.5 247.5 -105.5t249.5 103
t96.5 252t-96 252.5t-248.5 103.5t-248 -105t-95.5 -250t94.5 -250.5zM219.5 790q131.5 138 329.5 138q123 0 218 -56.5t142 -158.5v194h133v-907h-133v193q-43 -92 -134 -154t-209 -62t-202.5 38t-180 139.5t-95.5 299.5t131.5 336z" />
    <glyph glyph-name="ae" unicode="&#xe6;" horiz-adv-x="1878" 
d="M1645 528q0 125 -82.5 206t-215.5 81q-134 0 -215 -82.5t-85 -204.5h598zM316 201.5q95 -103.5 248 -103.5t249 104.5t96 252t-96 251t-248.5 103.5t-248 -105t-95.5 -252t95 -250.5zM1774 539q0 -69 -7 -113h-723q0 -231 118 -282.5t218 -51.5t163 52.5t85 115.5h135
q-25 -117 -135.5 -200t-263.5 -83t-215 53.5t-76 78t-18 22.5t-8.5 -11t-4.5 -20v-100h-133v193q-43 -92 -134 -154t-209 -62q-216 0 -347 139.5t-131 337.5t131.5 336t329.5 138q123 0 218 -56.5t142 -158.5v194h133v-127q102 148 295 148t283 -86t122 -160t32 -143z" />
    <glyph glyph-name="ccedilla" unicode="&#xe7;" horiz-adv-x="1073" 
d="M611 -135q-57 0 -87 -60h-75v183q-170 32 -261.5 164t-91.5 316t121 323t326 139q206 0 312.5 -106.5t115.5 -248.5h-131q-10 102 -81 168t-217 66t-230.5 -101.5t-84.5 -252.5q0 -242 124.5 -299.5t228.5 -57.5t172.5 58.5t89.5 154.5h133q-44 -233 -176.5 -279
t-231.5 -50l-26 -2v-60q2 2 5 2h58q88 10 131 -74q60 -107 -12 -182q-28 -32 -64.5 -37t-128.5 0q-8 0 -41 31.5t-40 71.5q4 -11 42.5 -23t43.5 -16q25 -47 79 -47t84.5 31.5t30.5 79.5t-30.5 78t-87.5 30z" />
    <glyph glyph-name="egrave" unicode="&#xe8;" horiz-adv-x="1062" 
d="M276 1325l64 107l510 -281l-64 -107zM831 528q0 127 -83.5 207t-213.5 80q-131 0 -212.5 -78t-90.5 -209h600zM961 544q0 -64 -7 -118h-725q0 -144 81 -239t235 -95q117 0 181.5 50.5t88.5 117.5h133q-26 -119 -135 -201t-270 -82q-215 0 -331 140.5t-116 341.5
q0 202 117.5 335.5t310.5 133.5t283 -86t122 -160t32 -138z" />
    <glyph glyph-name="eacute" unicode="&#xe9;" horiz-adv-x="1062" 
d="M231 1151l510 281l64 -107l-510 -281zM831 528q0 127 -83.5 207t-213.5 80q-131 0 -212.5 -78t-90.5 -209h600zM961 544q0 -64 -7 -118h-725q0 -144 81 -239t235 -95q117 0 181.5 50.5t88.5 117.5h133q-26 -119 -135 -201t-270 -82q-215 0 -331 140.5t-116 341.5
q0 202 117.5 335.5t310.5 133.5t283 -86t122 -160t32 -138z" />
    <glyph glyph-name="ecircumflex" unicode="&#xea;" horiz-adv-x="1062" 
d="M831 528q0 127 -83.5 207t-213.5 80q-131 0 -212.5 -78t-90.5 -209h600zM170 1182l367 297l370 -297l-82 -95l-286 232l-285 -229zM961 544q0 -64 -7 -118h-725q0 -144 81 -239t235 -95q117 0 181.5 50.5t88.5 117.5h133q-26 -119 -135 -201t-270 -82q-215 0 -331 140.5
t-116 341.5q0 202 117.5 335.5t310.5 133.5t283 -86t122 -160t32 -138z" />
    <glyph glyph-name="edieresis" unicode="&#xeb;" horiz-adv-x="1062" 
d="M651 1239q0 51 35 87t87 36t87 -36t35 -87t-35 -86t-87 -35t-87 35t-35 86zM831 528q0 127 -83.5 207t-213.5 80q-131 0 -212.5 -78t-90.5 -209h600zM180 1239q0 51 35 87t87 36t87 -36t35 -87t-35 -86t-87 -35t-87 35t-35 86zM961 544q0 -64 -7 -118h-725
q0 -144 81 -239t235 -95q117 0 181.5 50.5t88.5 117.5h133q-26 -119 -135 -201t-270 -82q-215 0 -331 140.5t-116 341.5q0 202 117.5 335.5t310.5 133.5t283 -86t122 -160t32 -138z" />
    <glyph glyph-name="igrave" unicode="&#xec;" horiz-adv-x="518" 
d="M193 0v907h133v-907h-133zM-29 1348l66 104l510 -281l-64 -104z" />
    <glyph glyph-name="iacute" unicode="&#xed;" horiz-adv-x="518" 
d="M193 0v907h131v-907h-131zM-29 1171l512 281l64 -106l-510 -281z" />
    <glyph glyph-name="icircumflex" unicode="&#xee;" horiz-adv-x="518" 
d="M195 0v907h131v-907h-131zM-111 1182l369 297l371 -297l-82 -95l-287 232l-287 -229z" />
    <glyph glyph-name="idieresis" unicode="&#xef;" horiz-adv-x="518" 
d="M373 1240q0 52 34.5 87t86.5 35t87 -35t35 -87t-34.5 -87t-86.5 -35t-87 35t-35 87zM182 0v907h131v-907h-131zM-98 1240q0 52 35 87t87 35t86.5 -35t34.5 -87t-34.5 -87t-86.5 -35t-87 35t-35 87z" />
    <glyph glyph-name="eth" unicode="&#xf0;" horiz-adv-x="1153" 
d="M826 703.5q-96 105.5 -248 105.5q-153 0 -249 -105.5t-96 -251.5t97 -250t247.5 -104t247.5 103.5t97 250t-96 252zM100 452q0 197 132.5 336.5t336.5 139.5q103 0 150 -45l-133 213l-254 -138l-53 103l243 133l-149 240h159l109 -177l178 97l55 -101l-172 -94l248 -395
q47 -78 76 -148.5t29 -164.5t-34 -180.5t-96.5 -152t-150 -103.5t-196.5 -38t-197 38t-184.5 139t-96.5 298z" />
    <glyph glyph-name="ntilde" unicode="&#xf1;" horiz-adv-x="1150" 
d="M440 1389q37 0 146 -28t151 -28q41 0 156 56l53 -91q-110 -75 -183 -75q-72 0 -165 27.5t-152 27.5q-58 0 -157 -57l-60 90q121 78 211 78zM170 0v907h133v-198q39 92 126 155.5t222 63.5q177 0 263 -106q85 -106 85 -290v-532h-133v494q0 219 -96 267t-169 48
q-143 0 -220.5 -103.5t-77.5 -240.5v-465h-133z" />
    <glyph glyph-name="ograve" unicode="&#xf2;" horiz-adv-x="1130" 
d="M289 1325l63 107l510 -281l-63 -107zM315.5 203.5q94.5 -105.5 247.5 -105.5t249.5 103t96.5 252t-96 252.5t-248.5 103.5t-248 -105t-95.5 -250t94.5 -250.5zM221.5 790.5q133.5 137.5 342.5 137.5t343.5 -136.5t134.5 -337t-132.5 -339t-344 -138.5t-344.5 139
t-133 338t133.5 336.5z" />
    <glyph glyph-name="oacute" unicode="&#xf3;" horiz-adv-x="1130" 
d="M248 1151l510 281l63 -107l-510 -281zM315.5 203.5q94.5 -105.5 247.5 -105.5t249.5 103t96.5 252t-96 252.5t-248.5 103.5t-248 -105t-95.5 -250t94.5 -250.5zM221.5 790.5q133.5 137.5 342.5 137.5t343.5 -136.5t134.5 -337t-132.5 -339t-344 -138.5t-344.5 139
t-133 338t133.5 336.5z" />
    <glyph glyph-name="ocircumflex" unicode="&#xf4;" horiz-adv-x="1130" 
d="M315.5 203.5q94.5 -105.5 247.5 -105.5t249.5 103t96.5 252t-96 252.5t-248.5 103.5t-248 -105t-95.5 -250t94.5 -250.5zM197 1184l368 297l369 -297l-82 -94l-287 229l-284 -229zM221.5 790.5q133.5 137.5 342.5 137.5t343.5 -136.5t134.5 -337t-132.5 -339t-344 -138.5
t-344.5 139t-133 338t133.5 336.5z" />
    <glyph glyph-name="otilde" unicode="&#xf5;" horiz-adv-x="1130" 
d="M315.5 203.5q94.5 -105.5 247.5 -105.5t249.5 103t96.5 252t-96 252.5t-248.5 103.5t-248 -105t-95.5 -250t94.5 -250.5zM404 1251q-49 0 -146 -57l-59 90q114 74 154 76t60 2q39 0 142 -27.5t149 -27.5t158 55l53 -88q-112 -76 -180 -76t-138.5 18.5t-107 26.5t-85.5 8z
M221.5 790.5q133.5 137.5 342.5 137.5t343.5 -136.5t134.5 -337t-132.5 -339t-344 -138.5t-344.5 139t-133 338t133.5 336.5z" />
    <glyph glyph-name="odieresis" unicode="&#xf6;" horiz-adv-x="1130" 
d="M678 1240q0 52 35 87t87 35t87 -35t35 -87t-35 -87t-87 -35t-87 35t-35 87zM315.5 203.5q94.5 -105.5 247.5 -105.5t249.5 103t96.5 252t-96 252.5t-248.5 103.5t-248 -105t-95.5 -250t94.5 -250.5zM207 1240q0 52 34.5 87t86.5 35t87.5 -35t35.5 -87t-35 -87t-87 -35
t-87 35t-35 87zM221.5 790.5q133.5 137.5 342.5 137.5t343.5 -136.5t134.5 -337t-132.5 -339t-344 -138.5t-344.5 139t-133 338t133.5 336.5z" />
    <glyph glyph-name="divide" unicode="&#xf7;" 
d="M463 783q0 52 34.5 87t86.5 35t87.5 -34.5t35.5 -86.5t-35 -87t-87 -35t-87 34.5t-35 86.5zM499 276.5q36 40.5 86 40.5t86 -42t36 -86t-35 -79.5t-88 -35.5t-87 36.5t-34 80.5q0 45 36 85.5zM170 422v119h827v-119h-827z" />
    <glyph glyph-name="oslash" unicode="&#xf8;" horiz-adv-x="1130" 
d="M581 98q62 0 125.5 29t133 103t69.5 223q0 96 -44 175t-122 122l-272 -635q48 -17 110 -17zM221 445q0 -80 37 -155t102 -122l273 633q-41 8 -95 8t-117 -28.5t-107 -78t-68.5 -113.5t-24.5 -144zM537 928q82 0 145 -15l57 136l113 -48l-55 -131q117 -59 181 -170.5
t64 -227.5q0 -219 -134 -357t-343 -138q-80 0 -143 25l-64 -147l-112 49l61 143q-104 63 -161.5 170t-57.5 219t34 199.5t96.5 152t149.5 102.5t169 38z" />
    <glyph glyph-name="ugrave" unicode="&#xf9;" horiz-adv-x="1146" 
d="M291 1325l63 107l510 -281l-63 -107zM150 375v532h131v-493q0 -220 96 -268t169 -48q140 0 220 103t80 241v465h131v-907h-131v199q-39 -92 -126 -157t-220 -65q-178 0 -273 115q-77 93 -77 283z" />
    <glyph glyph-name="uacute" unicode="&#xfa;" horiz-adv-x="1146" 
d="M285 1151l510 281l63 -107l-510 -281zM150 375v532h131v-493q0 -220 96 -268t169 -48q140 0 220 103t80 241v465h131v-907h-131v199q-39 -92 -126 -157t-220 -65q-178 0 -273 115q-77 93 -77 283z" />
    <glyph glyph-name="ucircumflex" unicode="&#xfb;" horiz-adv-x="1148" 
d="M201 1182l368 297l369 -297l-82 -95l-287 232l-284 -229zM150 375v532h131v-493q0 -220 96 -268t169 -48q140 0 220 103t80 241v465h131v-907h-131v199q-39 -92 -126 -157t-220 -65q-178 0 -273 115q-77 93 -77 283z" />
    <glyph glyph-name="udieresis" unicode="&#xfc;" horiz-adv-x="1146" 
d="M678 1240q0 52 35 87t87 35t87 -35t35 -87t-35 -87t-87 -35t-87 35t-35 87zM207 1240q0 52 34.5 87t86.5 35t87.5 -35t35.5 -87t-35 -87t-87 -35t-87 35t-35 87zM150 375v532h131v-493q0 -220 96 -268t169 -48q140 0 220 103t80 241v465h131v-907h-131v199
q-39 -92 -126 -157t-220 -65q-178 0 -273 115q-77 93 -77 283z" />
    <glyph glyph-name="yacute" unicode="&#xfd;" horiz-adv-x="1163" 
d="M305 1151l510 281l64 -107l-510 -281zM868 -86v285q-41 -98 -128.5 -160t-203.5 -62t-181.5 31t-106.5 81q-76 93 -76 296v522h131v-483q0 -235 91 -280.5t169 -45.5q148 0 226.5 101t78.5 243v465h131v-993q0 -246 -109 -354.5t-312 -108.5q-320 0 -370 162t-52 252h129
q4 -143 71 -218t218 -75t222.5 77t71.5 265z" />
    <glyph glyph-name="thorn" unicode="&#xfe;" horiz-adv-x="1208" 
d="M399.5 201q96.5 -103 249.5 -103t247.5 105.5t94.5 250.5t-95.5 250t-248 105t-248.5 -103.5t-96 -252.5t96.5 -252zM170 -526v1960h133v-721q47 102 142 158.5t207 56.5t197 -38t146.5 -102.5t95 -151.5t33.5 -233t-131.5 -286t-330.5 -140q-133 0 -224.5 61.5
t-134.5 154.5v-719h-133z" />
    <glyph glyph-name="ydieresis" unicode="&#xff;" horiz-adv-x="1163" 
d="M717 1239q0 49 33.5 84t83.5 35t84 -35t34 -84t-33.5 -83t-83.5 -34t-84 34t-34 83zM246 1239q0 49 33.5 84t83.5 35t84 -35t34 -84t-33.5 -83t-83.5 -34t-84 34t-34 83zM868 -86v285q-41 -98 -128.5 -160t-203.5 -62t-181.5 31t-106.5 81q-76 93 -76 296v522h131v-483
q0 -235 91 -280.5t169 -45.5q148 0 226.5 101t78.5 243v465h131v-993q0 -246 -109 -354.5t-312 -108.5q-320 0 -370 162t-52 252h129q4 -143 71 -218t218 -75t222.5 77t71.5 265z" />
    <glyph glyph-name="Amacron" unicode="&#x100;" horiz-adv-x="1118" 
d="M289 383h540l-270 831zM193 1638v121h733v-121h-733zM14 0l494 1434h104l494 -1434h-145l-89 258h-626l-86 -258h-146z" />
    <glyph glyph-name="amacron" unicode="&#x101;" horiz-adv-x="1212" 
d="M315.5 203.5q94.5 -105.5 247.5 -105.5t249.5 103t96.5 252t-96 252.5t-248.5 103.5t-248 -105t-95.5 -250t94.5 -250.5zM188 1180v120h734v-120h-734zM219.5 790q131.5 138 329.5 138q123 0 218 -56.5t142 -158.5v194h133v-907h-133v193q-43 -92 -134 -154t-209 -62
t-202.5 38t-180 139.5t-95.5 299.5t131.5 336z" />
    <glyph glyph-name="Abreve" unicode="&#x102;" horiz-adv-x="1118" 
d="M289 383h540l-270 831zM558 1630q108 0 188.5 46t99.5 132h127q-16 -132 -136.5 -215.5t-277.5 -83.5t-272.5 83t-141.5 216h125q25 -86 102.5 -132t185.5 -46zM14 0l494 1434h104l494 -1434h-145l-89 258h-626l-86 -258h-146z" />
    <glyph glyph-name="abreve" unicode="&#x103;" horiz-adv-x="1212" 
d="M315.5 203.5q94.5 -105.5 247.5 -105.5t249.5 103t96.5 252t-96 252.5t-248.5 103.5t-248 -105t-95.5 -250t94.5 -250.5zM551 1255q109 0 189.5 47.5t99.5 131.5h125q-16 -135 -138 -216t-276 -81q-155 0 -271.5 81t-142.5 216h127q23 -86 100.5 -132.5t186.5 -46.5z
M219.5 790q131.5 138 329.5 138q123 0 218 -56.5t142 -158.5v194h133v-907h-133v193q-43 -92 -134 -154t-209 -62t-202.5 38t-180 139.5t-95.5 299.5t131.5 336z" />
    <glyph glyph-name="Aogonek" unicode="&#x104;" horiz-adv-x="1118" 
d="M289 383h540l-270 831zM924 -199q0 -53 36.5 -93t101.5 -40t152 29l-2 -100q-102 -31 -178 -31q-119 0 -178 58t-59 132t40 129.5t124 114.5l-89 258h-626l-86 -258h-146l494 1434h104l494 -1434h-51q-131 -94 -131 -199z" />
    <glyph glyph-name="aogonek" unicode="&#x105;" horiz-adv-x="1212" 
d="M315.5 203.5q94.5 -105.5 247.5 -105.5t249.5 103t96.5 252t-96 252.5t-248.5 103.5t-248 -105t-95.5 -250t94.5 -250.5zM1014 -332q68 0 149 29l-2 -100q-102 -31 -200 -31q-97 0 -156.5 58t-59.5 132t40 129.5t124 114.5v193q-43 -92 -134 -154t-209 -62
q-216 0 -347 139.5t-131 337.5t131.5 336t329.5 138q123 0 218 -56.5t142 -158.5v194h133v-907h-36q-134 -93 -134 -199q0 -53 37 -93t105 -40z" />
    <glyph glyph-name="Cacute" unicode="&#x106;" horiz-adv-x="1587" 
d="M526 1640l510 281l64 -104l-510 -281zM88 716q0 311 201 529.5t538 218.5q274 0 451.5 -142.5t222.5 -369.5h-143q-38 168 -178 277.5t-349 109.5q-277 0 -439.5 -181.5t-162.5 -439.5t169 -440t446 -182t379 129t127 197h151q-60 -198 -238.5 -325.5t-431.5 -127.5
q-333 0 -485.5 163t-205 299.5t-52.5 284.5z" />
    <glyph glyph-name="cacute" unicode="&#x107;" horiz-adv-x="1073" 
d="M250 1065l510 281l63 -107l-510 -281zM217 791q121 139 326 139q206 0 312.5 -106.5t115.5 -248.5h-131q-10 102 -81 168t-217 66t-230.5 -101.5t-84.5 -252.5q0 -242 124.5 -299.5t228.5 -57.5t172.5 58.5t89.5 154.5h133q-20 -147 -130.5 -240.5t-287.5 -93.5
q-219 0 -340 139.5t-121 337.5t121 337z" />
    <glyph glyph-name="Ccircumflex" unicode="&#x108;" horiz-adv-x="1587" 
d="M444 1634l369 297l369 -297l-82 -94l-287 232l-285 -230zM88 716q0 311 201 529.5t538 218.5q274 0 451.5 -142.5t222.5 -369.5h-143q-38 168 -178 277.5t-349 109.5q-277 0 -439.5 -181.5t-162.5 -439.5t169 -440t446 -182t379 129t127 197h151q-60 -198 -238.5 -325.5
t-431.5 -127.5q-333 0 -485.5 163t-205 299.5t-52.5 284.5z" />
    <glyph glyph-name="ccircumflex" unicode="&#x109;" horiz-adv-x="1073" 
d="M174 1182l369 297l368 -297l-82 -95l-286 232l-285 -229zM217 791q121 139 326 139q206 0 312.5 -106.5t115.5 -248.5h-131q-10 102 -81 168t-217 66t-230.5 -101.5t-84.5 -252.5q0 -242 124.5 -299.5t228.5 -57.5t172.5 58.5t89.5 154.5h133q-20 -147 -130.5 -240.5
t-287.5 -93.5q-219 0 -340 139.5t-121 337.5t121 337z" />
    <glyph glyph-name="Cdotaccent" unicode="&#x10a;" horiz-adv-x="1587" 
d="M690 1712q0 51 35 87t87 36t87 -36t35 -87t-35 -86t-87 -35t-87 35t-35 86zM88 716q0 311 201 529.5t538 218.5q274 0 451.5 -142.5t222.5 -369.5h-143q-38 168 -178 277.5t-349 109.5q-277 0 -439.5 -181.5t-162.5 -439.5t169 -440t446 -182t379 129t127 197h151
q-60 -198 -238.5 -325.5t-431.5 -127.5q-333 0 -485.5 163t-205 299.5t-52.5 284.5z" />
    <glyph glyph-name="cdotaccent" unicode="&#x10b;" horiz-adv-x="1073" 
d="M428 1239q0 51 35 87t87 36t87 -36t35 -87t-35 -86t-87 -35t-87 35t-35 86zM217 791q121 139 326 139q206 0 312.5 -106.5t115.5 -248.5h-131q-10 102 -81 168t-217 66t-230.5 -101.5t-84.5 -252.5q0 -242 124.5 -299.5t228.5 -57.5t172.5 58.5t89.5 154.5h133
q-20 -147 -130.5 -240.5t-287.5 -93.5q-219 0 -340 139.5t-121 337.5t121 337z" />
    <glyph glyph-name="Ccaron" unicode="&#x10c;" horiz-adv-x="1587" 
d="M477 1837l74 94l252 -235l256 235l74 -94l-330 -297zM88 716q0 311 201 529.5t538 218.5q274 0 451.5 -142.5t222.5 -369.5h-143q-38 168 -178 277.5t-349 109.5q-277 0 -439.5 -181.5t-162.5 -439.5t169 -440t446 -182t379 129t127 197h151q-60 -198 -238.5 -325.5
t-431.5 -127.5q-333 0 -485.5 163t-205 299.5t-52.5 284.5z" />
    <glyph glyph-name="ccaron" unicode="&#x10d;" horiz-adv-x="1073" 
d="M221 1386l74 93l252 -234l256 234l74 -93l-330 -296zM217 791q121 139 326 139q206 0 312.5 -106.5t115.5 -248.5h-131q-10 102 -81 168t-217 66t-230.5 -101.5t-84.5 -252.5q0 -242 124.5 -299.5t228.5 -57.5t172.5 58.5t89.5 154.5h133q-20 -147 -130.5 -240.5
t-287.5 -93.5q-219 0 -340 139.5t-121 337.5t121 337z" />
    <glyph glyph-name="Dcaron" unicode="&#x10e;" horiz-adv-x="1421" 
d="M362 1837l72 94l254 -235l256 235l74 -94l-330 -297zM309 127h281q275 0 438.5 176t163.5 414.5t-164 415t-438 176.5h-281v-1182zM170 0v1434h420q178 0 316 -61.5t233.5 -162t144.5 -229.5t49 -264t-49 -264t-144.5 -229.5t-233.5 -162t-316 -61.5h-420z" />
    <glyph glyph-name="dcaron" unicode="&#x10f;" horiz-adv-x="1419" 
d="M1143 1354q0 49 33.5 85t93.5 36t104.5 -51.5t44.5 -169.5t-70.5 -178t-191.5 -60v69q110 0 141 84q4 8 10.5 36t0.5 50q-17 -16 -59 -16t-74.5 33t-32.5 82zM315.5 203.5q94.5 -105.5 247.5 -105.5t249.5 103t96.5 252t-96 252.5t-248.5 103.5t-248 -105t-95.5 -250
t94.5 -250.5zM219.5 790q131.5 138 329.5 138q123 0 218 -56.5t142 -158.5v721h133v-1434h-133v193q-43 -92 -134 -154t-209 -62t-202.5 38t-180 139.5t-95.5 299.5t131.5 336z" />
    <glyph glyph-name="Dcroat" unicode="&#x110;" horiz-adv-x="1421" 
d="M309 127h281q275 0 438.5 176t163.5 414.5t-164 415t-438 176.5h-281v-527h299v-118h-299v-537zM-125 664v118h295v652h420q178 0 316 -61.5t233.5 -162t144.5 -229.5t49 -264t-49 -264t-144.5 -229.5t-233.5 -162t-316 -61.5h-420v664h-295z" />
    <glyph glyph-name="dcroat" unicode="&#x111;" horiz-adv-x="1212" 
d="M315.5 203.5q94.5 -105.5 247.5 -105.5t249.5 103t96.5 252t-96 252.5t-248.5 103.5t-248 -105t-95.5 -250t94.5 -250.5zM219.5 790q131.5 138 329.5 138q123 0 218 -56.5t142 -158.5v385h-219v119h219v217h133v-217h127v-119h-127v-1098h-133v193q-43 -92 -134 -154
t-209 -62t-202.5 38t-180 139.5t-95.5 299.5t131.5 336z" />
    <glyph glyph-name="Emacron" unicode="&#x112;" horiz-adv-x="1112" 
d="M190 1638v121h734v-121h-734zM170 0v1434h782v-125h-643v-533h643v-127h-643v-522h643v-127h-782z" />
    <glyph glyph-name="emacron" unicode="&#x113;" horiz-adv-x="1062" 
d="M831 528q0 127 -83.5 207t-213.5 80q-131 0 -212.5 -78t-90.5 -209h600zM166 1219v118h733v-118h-733zM961 544q0 -64 -7 -118h-725q0 -144 81 -239t235 -95q117 0 181.5 50.5t88.5 117.5h133q-26 -119 -135 -201t-270 -82q-215 0 -331 140.5t-116 341.5
q0 202 117.5 335.5t310.5 133.5t283 -86t122 -160t32 -138z" />
    <glyph glyph-name="Ebreve" unicode="&#x114;" horiz-adv-x="1112" 
d="M170 0v1434h782v-125h-643v-533h643v-127h-643v-522h643v-127h-782zM558 1628q108 0 187.5 47t98.5 131h127q-16 -133 -137.5 -215t-276.5 -82t-271.5 81.5t-142.5 215.5h125q25 -86 103.5 -132t186.5 -46z" />
    <glyph glyph-name="ebreve" unicode="&#x115;" horiz-adv-x="1062" 
d="M831 528q0 127 -83.5 207t-213.5 80q-131 0 -212.5 -78t-90.5 -209h600zM537 1255q109 0 189.5 47.5t98.5 131.5h125q-16 -135 -137 -216t-277 -81t-272.5 82t-140.5 215h127q23 -86 100.5 -132.5t186.5 -46.5zM961 544q0 -64 -7 -118h-725q0 -144 81 -239t235 -95
q117 0 181.5 50.5t88.5 117.5h133q-26 -119 -135 -201t-270 -82q-215 0 -331 140.5t-116 341.5q0 202 117.5 335.5t310.5 133.5t283 -86t122 -160t32 -138z" />
    <glyph glyph-name="Edotaccent" unicode="&#x116;" horiz-adv-x="1112" 
d="M434 1713q0 52 35 87t86 35t87 -35t36 -87t-36 -87t-87 -35t-86 35t-35 87zM170 0v1434h782v-125h-643v-533h643v-127h-643v-522h643v-127h-782z" />
    <glyph glyph-name="edotaccent" unicode="&#x117;" horiz-adv-x="1062" 
d="M416 1238q0 52 34 87t86 35t87.5 -35t35.5 -87t-35.5 -87t-86.5 -35t-86 35t-35 87zM831 528q0 127 -83.5 207t-213.5 80q-131 0 -212.5 -78t-90.5 -209h600zM961 544q0 -64 -7 -118h-725q0 -144 81 -239t235 -95q117 0 181.5 50.5t88.5 117.5h133q-26 -119 -135 -201
t-270 -82q-215 0 -331 140.5t-116 341.5q0 202 117.5 335.5t310.5 133.5t283 -86t122 -160t32 -138z" />
    <glyph glyph-name="Eogonek" unicode="&#x118;" horiz-adv-x="1112" 
d="M959 -332q66 0 151 29l-2 -100q-102 -31 -200 -31q-97 0 -156.5 58t-59.5 132t40 129.5t124 114.5h-686v1434h782v-125h-643v-533h643v-127h-643v-522h643v-127q-133 -92 -133 -199q0 -53 37 -93t103 -40z" />
    <glyph glyph-name="eogonek" unicode="&#x119;" horiz-adv-x="1062" 
d="M831 528q0 127 -83.5 207t-213.5 80q-131 0 -212.5 -78t-90.5 -209h600zM358 -236q0 112 138 218q-196 19 -298 154t-102 330t117.5 328.5t310.5 133.5t315 -116.5t122 -289.5q0 -42 -7 -96h-725q0 -144 81 -239t235 -95q117 0 181.5 50.5t88.5 117.5h133
q-24 -107 -118 -187.5t-240 -92.5q-105 -87 -105 -179q0 -55 37 -94t101 -39t153 29l-2 -100q-102 -31 -178 -31q-121 0 -179.5 58.5t-58.5 139.5z" />
    <glyph glyph-name="Ecaron" unicode="&#x11a;" horiz-adv-x="1112" 
d="M227 1837l74 94l252 -235l256 235l74 -94l-330 -297zM170 0v1434h782v-125h-643v-533h643v-127h-643v-522h643v-127h-782z" />
    <glyph glyph-name="ecaron" unicode="&#x11b;" horiz-adv-x="1062" 
d="M831 528q0 127 -83.5 207t-213.5 80q-131 0 -212.5 -78t-90.5 -209h600zM209 1386l72 93l254 -234l256 234l73 -93l-329 -296zM961 544q0 -64 -7 -118h-725q0 -144 81 -239t235 -95q117 0 181.5 50.5t88.5 117.5h133q-26 -119 -135 -201t-270 -82q-215 0 -331 140.5
t-116 341.5q0 202 117.5 335.5t310.5 133.5t283 -86t122 -160t32 -138z" />
    <glyph glyph-name="Gcircumflex" unicode="&#x11c;" horiz-adv-x="1705" 
d="M455 1638l368 297l369 -297l-82 -94l-287 230l-284 -230zM88 712q0 146 50 282t202.5 303t476.5 167q235 0 397 -114t199 -287h-141q-60 189 -213 232.5t-265 43.5t-221.5 -52t-226.5 -184.5t-117 -386.5t161.5 -437t445.5 -183q226 0 357.5 118.5t158.5 322.5h-404v127
h701v-127h-152q-32 -258 -208 -413t-458 -155q-344 0 -543.5 218.5t-199.5 524.5z" />
    <glyph glyph-name="gcircumflex" unicode="&#x11d;" horiz-adv-x="1208" 
d="M812.5 201q96.5 103 96.5 252t-96 252.5t-250 103.5t-248 -105.5t-94 -250.5t96 -250t247.5 -105t248 103zM188 1182l369 297l369 -297l-82 -95l-287 232l-285 -229zM1042 -72q0 -477 -481 -477q-221 0 -334.5 113.5t-126.5 304.5h133q15 -205 127.5 -251t206.5 -46
q158 0 250 83t92 273v267q-43 -92 -134 -155t-209 -63t-202.5 38t-146 103.5t-95.5 152.5t-34 183q0 197 131.5 335.5t331.5 138.5q133 0 224 -60.5t134 -152.5v192h133v-979z" />
    <glyph glyph-name="Gbreve" unicode="&#x11e;" horiz-adv-x="1705" 
d="M822 1630q108 0 189 47t99 131h125q-16 -133 -137.5 -215t-277.5 -82t-272 82.5t-140 214.5h127q23 -86 101 -132t186 -46zM88 712q0 146 50 282t202.5 303t476.5 167q235 0 397 -114t199 -287h-141q-60 189 -213 232.5t-265 43.5t-221.5 -52t-226.5 -184.5t-117 -386.5
t161.5 -437t445.5 -183q226 0 357.5 118.5t158.5 322.5h-404v127h701v-127h-152q-32 -258 -208 -413t-458 -155q-344 0 -543.5 218.5t-199.5 524.5z" />
    <glyph glyph-name="gbreve" unicode="&#x11f;" horiz-adv-x="1208" 
d="M812.5 201q96.5 103 96.5 252t-96 252.5t-250 103.5t-248 -105.5t-94 -250.5t96 -250t247.5 -105t248 103zM558 1255q108 0 187.5 47.5t98.5 131.5h127q-16 -135 -138 -216t-276 -81q-155 0 -271.5 81t-142.5 216h125q25 -86 103.5 -132.5t186.5 -46.5zM1042 -72
q0 -477 -481 -477q-221 0 -334.5 113.5t-126.5 304.5h133q15 -205 127.5 -251t206.5 -46q158 0 250 83t92 273v267q-43 -92 -134 -155t-209 -63t-202.5 38t-146 103.5t-95.5 152.5t-34 183q0 197 131.5 335.5t331.5 138.5q133 0 224 -60.5t134 -152.5v192h133v-979z" />
    <glyph glyph-name="Gdotaccent" unicode="&#x120;" horiz-adv-x="1705" 
d="M700 1713q0 52 35 87t86 35t87 -35t36 -87t-36 -87t-87 -35t-86 35t-35 87zM88 712q0 146 50 282t202.5 303t476.5 167q235 0 397 -114t199 -287h-141q-60 189 -213 232.5t-265 43.5t-221.5 -52t-226.5 -184.5t-117 -386.5t161.5 -437t445.5 -183q226 0 357.5 118.5
t158.5 322.5h-404v127h701v-127h-152q-32 -258 -208 -413t-458 -155q-344 0 -543.5 218.5t-199.5 524.5z" />
    <glyph glyph-name="gdotaccent" unicode="&#x121;" horiz-adv-x="1208" 
d="M428 1238q0 52 35 87t86 35t87 -35t36 -87t-36 -87t-87 -35t-86 35t-35 87zM812.5 201q96.5 103 96.5 252t-96 252.5t-250 103.5t-248 -105.5t-94 -250.5t96 -250t247.5 -105t248 103zM1042 -72q0 -477 -481 -477q-221 0 -334.5 113.5t-126.5 304.5h133
q15 -205 127.5 -251t206.5 -46q158 0 250 83t92 273v267q-43 -92 -134 -155t-209 -63t-202.5 38t-146 103.5t-95.5 152.5t-34 183q0 197 131.5 335.5t331.5 138.5q133 0 224 -60.5t134 -152.5v192h133v-979z" />
    <glyph glyph-name="Gcommaaccent" unicode="&#x122;" horiz-adv-x="1705" 
d="M721 -159q0 40 27.5 70t74.5 30t86 -39.5t39 -139.5t-58.5 -149t-158.5 -49v61q96 0 117 66q8 20 8 39.5t2 27.5q-16 -12 -50 -12t-60.5 27.5t-26.5 67.5zM88 712q0 146 50 282t202.5 303t476.5 167q235 0 397 -114t199 -287h-141q-60 189 -213 232.5t-265 43.5
t-221.5 -52t-226.5 -184.5t-117 -386.5t161.5 -437t445.5 -183q226 0 357.5 118.5t158.5 322.5h-404v127h701v-127h-152q-32 -258 -208 -413t-458 -155q-344 0 -543.5 218.5t-199.5 524.5z" />
    <glyph glyph-name="gcommaaccent" unicode="&#x123;" horiz-adv-x="1208" 
d="M401 1292q0 118 71 178t192 60v-70q-113 0 -142 -86q-16 -47 -10 -84q16 16 58 16t75 -32.5t33 -81.5t-34 -85t-94 -36t-104.5 51.5t-44.5 169.5zM812.5 201q96.5 103 96.5 252t-96 252.5t-250 103.5t-248 -105.5t-94 -250.5t96 -250t247.5 -105t248 103zM1042 -72
q0 -477 -481 -477q-221 0 -334.5 113.5t-126.5 304.5h133q15 -205 127.5 -251t206.5 -46q158 0 250 83t92 273v267q-43 -92 -134 -155t-209 -63t-202.5 38t-146 103.5t-95.5 152.5t-34 183q0 197 131.5 335.5t331.5 138.5q133 0 224 -60.5t134 -152.5v192h133v-979z" />
    <glyph glyph-name="Hcircumflex" unicode="&#x124;" horiz-adv-x="1357" 
d="M309 1634l369 297l369 -297l-82 -94l-287 232l-285 -230zM170 0v1434h139v-658h740v658h139v-1434h-139v649h-740v-649h-139z" />
    <glyph glyph-name="hcircumflex" unicode="&#x125;" horiz-adv-x="1150" 
d="M252 1634l369 297l368 -297l-82 -94l-286 232l-285 -230zM170 0v1434h133v-725q39 92 126 155.5t222 63.5q177 0 263 -106q85 -106 85 -290v-532h-133v494q0 219 -96 267t-169 48q-143 0 -220.5 -103.5t-77.5 -240.5v-465h-133z" />
    <glyph glyph-name="Hbar" unicode="&#x126;" horiz-adv-x="1357" 
d="M309 776h740v260h-740v-260zM170 0v1434h139v-277h740v277h139v-1434h-139v649h-740v-649h-139z" />
    <glyph glyph-name="hbar" unicode="&#x127;" horiz-adv-x="1150" 
d="M0 1098v119h170v217h133v-217h430v-119h-430v-389q39 92 126 155.5t222 63.5q177 0 263 -106q85 -106 85 -290v-532h-133v494q0 219 -96 267t-169 48q-143 0 -220.5 -103.5t-77.5 -240.5v-465h-133v1098h-170z" />
    <glyph glyph-name="Itilde" unicode="&#x128;" horiz-adv-x="483" 
d="M170 0v1434h143v-1434h-143zM88 1673q-49 0 -145 -57l-60 90q114 74 154.5 76t60.5 2q33 0 140.5 -27.5t151.5 -27.5t157 55l53 -88q-112 -76 -180 -76t-138.5 18.5t-107.5 26.5t-86 8z" />
    <glyph glyph-name="itilde" unicode="&#x129;" horiz-adv-x="518" 
d="M193 0v907h133v-907h-133zM107 1217q-47 0 -148 -58l-59 90q114 74 155 76t61 2q39 0 142 -27.5t149 -27.5t158 55l53 -90q-112 -76 -180 -76t-138.5 19.5t-108 28t-84.5 8.5z" />
    <glyph glyph-name="Imacron" unicode="&#x12a;" horiz-adv-x="483" 
d="M170 0v1434h143v-1434h-143zM-125 1638v121h733v-121h-733z" />
    <glyph glyph-name="imacron" unicode="&#x12b;" horiz-adv-x="518" 
d="M203 0v907h131v-907h-131zM-109 1180v118h736v-118h-736z" />
    <glyph glyph-name="Ibreve" unicode="&#x12c;" horiz-adv-x="483" 
d="M170 0v1434h143v-1434h-143zM242 1630q109 0 189.5 46t98.5 132h125q-15 -132 -135.5 -215.5t-277.5 -83.5t-274 84t-140 215h125q25 -86 102.5 -132t186.5 -46z" />
    <glyph glyph-name="ibreve" unicode="&#x12d;" horiz-adv-x="518" 
d="M195 0v907h131v-907h-131zM260 1255q108 0 188 47.5t99 131.5h127q-16 -135 -138 -216t-277 -81q-156 0 -272.5 81t-142.5 216h127q25 -86 103 -132.5t186 -46.5z" />
    <glyph glyph-name="Iogonek" unicode="&#x12e;" horiz-adv-x="483" 
d="M222 -434q-97 0 -156.5 58t-59.5 132t40 129.5t124 114.5v1434h143v-1434h-47q-133 -92 -133 -199q0 -53 37 -93t102 -40t150 29v-100q-103 -31 -200 -31z" />
    <glyph glyph-name="iogonek" unicode="&#x12f;" horiz-adv-x="518" 
d="M154 1263q0 52 34.5 86.5t86.5 34.5t87 -34.5t35 -86.5t-34.5 -87t-86.5 -35t-87 35t-35 87zM312 -332q66 0 151 29l-2 -100q-102 -31 -200 -31q-97 0 -156.5 58t-59.5 132t40 129.5t124 114.5v907h133v-907h-37q-133 -92 -133 -199q0 -53 37 -93t103 -40z" />
    <glyph glyph-name="Idotaccent" unicode="&#x130;" horiz-adv-x="483" 
d="M170 0v1434h143v-1434h-143zM119 1713q0 52 34.5 87t86.5 35t87 -35t35 -87t-34.5 -87t-86.5 -35t-87 35t-35 87z" />
    <glyph glyph-name="dotlessi" unicode="&#x131;" horiz-adv-x="454" 
d="M162 0v907h133v-907h-133z" />
    <glyph glyph-name="IJ" unicode="&#x132;" horiz-adv-x="1579" 
d="M516 444h137q0 -158 93 -253t234 -95q142 0 227 93.5t85 252.5v992h138v-992q0 -210 -123.5 -341.5t-326 -131.5t-333.5 133t-131 342zM170 0v1434h143v-1434h-143z" />
    <glyph glyph-name="ij" unicode="&#x133;" horiz-adv-x="1036" 
d="M659 1263q0 52 35 86.5t87 34.5t87 -34.5t35 -86.5t-34.5 -87t-86.5 -35t-87.5 35t-35.5 87zM590 -426q125 0 125 156v1177h131v-1183q0 -141 -58.5 -204t-145.5 -63t-146 25v115q59 -23 94 -23zM193 0v907h133v-907h-133zM137 1263q0 52 35 86.5t87 34.5t87 -34.5
t35 -86.5t-35 -87t-87 -35t-87 35t-35 87z" />
    <glyph glyph-name="Jcircumflex" unicode="&#x134;" horiz-adv-x="1097" 
d="M510 1634l369 297l368 -297l-82 -94l-286 229l-285 -229zM33 444h139q0 -156 90.5 -252t234.5 -96t228 93.5t84 252.5v992h139v-992q0 -211 -123 -342t-327 -131t-334.5 132.5t-130.5 342.5z" />
    <glyph glyph-name="jcircumflex" unicode="&#x135;" horiz-adv-x="520" 
d="M74 -426q123 0 123 156v1177h133v-1183q0 -141 -58.5 -204t-146.5 -63t-148 25v115q59 -23 97 -23zM-102 1241l368 297l369 -297l-82 -94l-287 229l-284 -229z" />
    <glyph glyph-name="Kcommaaccent" unicode="&#x136;" horiz-adv-x="1173" 
d="M589 -231q-36 0 -62.5 27.5t-26.5 68.5t28.5 69.5t76.5 28.5t86 -41t38 -139t-59.5 -147.5t-157.5 -49.5v62q88 0 112 60q16 38 13 73q-12 -12 -48 -12zM170 0v1434h139v-674l670 674h178l-706 -717l706 -717h-178l-670 674v-674h-139z" />
    <glyph glyph-name="kcommaaccent" unicode="&#x137;" horiz-adv-x="931" 
d="M462 -231q-36 0 -62.5 27.5t-26.5 68.5t28.5 69.5t76.5 28.5t86 -41t38 -139t-59.5 -147.5t-157.5 -49.5v62q89 0 113 60q16 38 12 73q-12 -12 -48 -12zM170 0v1434h133v-953l426 426h174l-450 -454l450 -453h-174l-426 424v-424h-133z" />
    <glyph glyph-name="kgreenlandic" unicode="&#x138;" horiz-adv-x="931" 
d="M170 0v907h133v-426l426 426h174l-450 -454l450 -453h-174l-426 424v-424h-133z" />
    <glyph glyph-name="Lacute" unicode="&#x139;" horiz-adv-x="864" 
d="M170 0v1434h139v-1307h494v-127h-633zM61 1640l510 281l64 -104l-510 -281z" />
    <glyph glyph-name="lacute" unicode="&#x13a;" horiz-adv-x="473" 
d="M170 0v1434h133v-1434h-133zM-51 1642l512 281l63 -104l-510 -281z" />
    <glyph glyph-name="Lcommaaccent" unicode="&#x13b;" horiz-adv-x="864" 
d="M365 -137q0 41 27.5 69.5t76.5 28.5t86 -41.5t37 -139.5t-59.5 -147t-157.5 -49v64q88 0 117 63q10 20 10 70q-18 -14 -51 -14t-59.5 27.5t-26.5 68.5zM170 0v1434h139v-1307h494v-127h-633z" />
    <glyph glyph-name="lcommaaccent" unicode="&#x13c;" horiz-adv-x="473" 
d="M170 0v1434h133v-1434h-133zM131 -136q0 40 27.5 69.5t74.5 29.5t86 -39.5t39 -139.5t-58 -149t-159 -49v62q96 0 117 65q4 14 7 22.5t4 14.5t0 13.5t-1 17.5q-16 -12 -50 -12t-60.5 27.5t-26.5 67.5z" />
    <glyph glyph-name="Lcaron" unicode="&#x13d;" horiz-adv-x="864" 
d="M170 0v1434h139v-1307h494v-127h-633zM-90 1837l72 94l254 -235l256 235l73 -94l-329 -297z" />
    <glyph glyph-name="lcaron" unicode="&#x13e;" horiz-adv-x="679" 
d="M403 1358q0 49 34.5 84t94.5 35t104 -51.5t44 -167.5t-69.5 -178t-192.5 -62v72q136 0 145.5 75.5t5.5 91.5q-16 -16 -58 -16t-75 34t-33 83zM170 0v1434h133v-1434h-133z" />
    <glyph glyph-name="Ldot" unicode="&#x13f;" horiz-adv-x="864" 
d="M522 575q0 51 35 87t87 36t87 -35t35 -87t-35 -86.5t-87 -34.5t-87 34.5t-35 85.5zM170 0v1434h139v-1307h494v-127h-633z" />
    <glyph glyph-name="ldot" unicode="&#x140;" horiz-adv-x="655" 
d="M412 640q0 52 34.5 87t86.5 35t87 -35t35 -87t-34.5 -87t-86.5 -35t-87 35t-35 87zM170 0v1434h133v-1434h-133z" />
    <glyph glyph-name="Lslash" unicode="&#x141;" horiz-adv-x="864" 
d="M170 1434h139v-664l328 160v-131l-328 -158v-514h494v-127h-633v582l-111 -56v131l111 54v723z" />
    <glyph glyph-name="lslash" unicode="&#x142;" horiz-adv-x="473" 
d="M170 1434h143v-613l187 103v-131l-187 -103v-690h-143v614l-176 -94v131l176 94v689z" />
    <glyph glyph-name="Nacute" unicode="&#x143;" horiz-adv-x="1355" 
d="M401 1640l510 281l64 -104l-510 -281zM170 0v1434h154l723 -1194v1194h139v-1434h-154l-723 1196v-1196h-139z" />
    <glyph glyph-name="nacute" unicode="&#x144;" horiz-adv-x="1150" 
d="M311 1151l510 281l64 -107l-510 -281zM170 0v907h133v-198q39 92 126 155.5t222 63.5q177 0 263 -106q85 -106 85 -290v-532h-133v494q0 219 -96 267t-169 48q-143 0 -220.5 -103.5t-77.5 -240.5v-465h-133z" />
    <glyph glyph-name="Ncommaaccent" unicode="&#x145;" horiz-adv-x="1355" 
d="M584 -137q0 41 27.5 69.5t76.5 28.5t86 -41.5t37 -139.5t-59.5 -147t-157.5 -49v64q92 0 117 63q15 40 10 70q-18 -14 -51 -14t-59.5 27.5t-26.5 68.5zM170 0v1434h154l723 -1194v1194h139v-1434h-154l-723 1196v-1196h-139z" />
    <glyph glyph-name="ncommaaccent" unicode="&#x146;" horiz-adv-x="1150" 
d="M498 -136q0 40 27.5 69.5t74.5 29.5t86 -39.5t39 -139.5t-58.5 -149t-158.5 -49v62q94 0 117 65q4 14 7 22.5t4 14.5t0 13.5t-1 17.5q-16 -12 -50 -12t-60.5 27.5t-26.5 67.5zM170 0v907h133v-198q39 92 126 155.5t222 63.5q177 0 263 -106q85 -106 85 -290v-532h-133
v494q0 219 -96 267t-169 48q-143 0 -220.5 -103.5t-77.5 -240.5v-465h-133z" />
    <glyph glyph-name="Ncaron" unicode="&#x147;" horiz-adv-x="1355" 
d="M365 1837l73 94l252 -235l256 235l74 -94l-330 -297zM170 0v1434h154l723 -1194v1194h139v-1434h-154l-723 1196v-1196h-139z" />
    <glyph glyph-name="ncaron" unicode="&#x148;" horiz-adv-x="1150" 
d="M283 1444l73 92l252 -233l256 233l74 -92l-330 -297zM170 0v907h133v-198q39 92 126 155.5t222 63.5q177 0 263 -106q85 -106 85 -290v-532h-133v494q0 219 -96 267t-169 48q-143 0 -220.5 -103.5t-77.5 -240.5v-465h-133z" />
    <glyph glyph-name="napostrophe" unicode="&#x149;" horiz-adv-x="1150" 
d="M170 0v907h133v-198q39 92 126 155.5t222 63.5q177 0 263 -106q85 -106 85 -290v-532h-133v494q0 219 -96 267t-169 48q-143 0 -220.5 -103.5t-77.5 -240.5v-465h-133zM156 1380q0 41 27.5 70t76.5 29t86 -41.5t37 -139.5t-59.5 -147t-157.5 -49v63q93 0 117 64
q12 44 10 69q-18 -14 -51 -14t-59.5 27.5t-26.5 68.5z" />
    <glyph glyph-name="Eng" unicode="&#x14a;" horiz-adv-x="1355" 
d="M1047 -72v70l-738 1198v-1196h-139v1434h143l734 -1186v1186h139v-1506q0 -210 -124 -341.5t-325 -131.5q-237 0 -366 178l90 88q109 -141 263 -141t238.5 92t84.5 256z" />
    <glyph glyph-name="eng" unicode="&#x14b;" horiz-adv-x="1150" 
d="M866 -90v584q0 219 -96 267t-169 48q-143 0 -220.5 -103.5t-77.5 -240.5v-465h-133v907h133v-198q39 92 126 155.5t222 63.5q177 0 263 -106q85 -106 85 -290v-622q0 -203 -120 -331t-322 -128t-336 156l88 84q110 -119 252 -119q141 0 223 91t82 247z" />
    <glyph glyph-name="Omacron" unicode="&#x14c;" horiz-adv-x="1650" 
d="M459 1638v121h733v-121h-733zM396.5 281q163.5 -185 428.5 -185q137 0 248 52.5t187.5 138.5t117.5 197.5t41 232.5t-41 233.5t-117.5 198.5t-187.5 138t-249 52t-247.5 -52t-226.5 -184.5t-117 -384.5t163.5 -437zM88 716q0 146 50 281.5t145.5 238.5t232.5 165.5
t309 62.5t308.5 -62.5t231.5 -165.5t146.5 -238.5t51.5 -280.5t-51.5 -280.5t-146.5 -239t-231.5 -166t-308.5 -62.5t-309 62.5t-232.5 166t-145.5 238t-50 280.5z" />
    <glyph glyph-name="omacron" unicode="&#x14d;" horiz-adv-x="1130" 
d="M315.5 203.5q94.5 -105.5 247.5 -105.5t249.5 103t96.5 252t-96 252.5t-248.5 103.5t-248 -105t-95.5 -250t94.5 -250.5zM199 1180v118h733v-118h-733zM221.5 790.5q133.5 137.5 342.5 137.5t343.5 -136.5t134.5 -337t-132.5 -339t-344 -138.5t-344.5 139t-133 338
t133.5 336.5z" />
    <glyph glyph-name="Obreve" unicode="&#x14e;" horiz-adv-x="1650" 
d="M826 1628q108 0 189 47t99 131h125q-16 -133 -137.5 -215t-277.5 -82t-272 82.5t-140 214.5h127q23 -86 101 -132t186 -46zM396.5 281q163.5 -185 428.5 -185q137 0 248 52.5t187.5 138.5t117.5 197.5t41 232.5t-41 233.5t-117.5 198.5t-187.5 138t-249 52t-247.5 -52
t-226.5 -184.5t-117 -384.5t163.5 -437zM88 716q0 146 50 281.5t145.5 238.5t232.5 165.5t309 62.5t308.5 -62.5t231.5 -165.5t146.5 -238.5t51.5 -280.5t-51.5 -280.5t-146.5 -239t-231.5 -166t-308.5 -62.5t-309 62.5t-232.5 166t-145.5 238t-50 280.5z" />
    <glyph glyph-name="obreve" unicode="&#x14f;" horiz-adv-x="1130" 
d="M315.5 203.5q94.5 -105.5 247.5 -105.5t249.5 103t96.5 252t-96 252.5t-248.5 103.5t-248 -105t-95.5 -250t94.5 -250.5zM566 1255q108 0 188 47.5t98 131.5h127q-16 -135 -138 -216t-277 -81t-271.5 82t-140.5 215h124q25 -86 103.5 -132.5t186.5 -46.5zM221.5 790.5
q133.5 137.5 342.5 137.5t343.5 -136.5t134.5 -337t-132.5 -339t-344 -138.5t-344.5 139t-133 338t133.5 336.5z" />
    <glyph glyph-name="Ohungarumlaut" unicode="&#x150;" horiz-adv-x="1650" 
d="M918 1692l256 340l116 -60l-301 -319zM518 1692l256 340l117 -60l-301 -319zM396.5 281q163.5 -185 428.5 -185q137 0 248 52.5t187.5 138.5t117.5 197.5t41 232.5t-41 233.5t-117.5 198.5t-187.5 138t-249 52t-247.5 -52t-226.5 -184.5t-117 -384.5t163.5 -437zM88 716
q0 146 50 281.5t145.5 238.5t232.5 165.5t309 62.5t308.5 -62.5t231.5 -165.5t146.5 -238.5t51.5 -280.5t-51.5 -280.5t-146.5 -239t-231.5 -166t-308.5 -62.5t-309 62.5t-232.5 166t-145.5 238t-50 280.5z" />
    <glyph glyph-name="ohungarumlaut" unicode="&#x151;" horiz-adv-x="1130" 
d="M655 1108l256 340l117 -57l-301 -322zM256 1108l256 340l117 -57l-301 -320zM315.5 203.5q94.5 -105.5 247.5 -105.5t249.5 103t96.5 252t-96 252.5t-248.5 103.5t-248 -105t-95.5 -250t94.5 -250.5zM221.5 790.5q133.5 137.5 342.5 137.5t343.5 -136.5t134.5 -337
t-132.5 -339t-344 -138.5t-344.5 139t-133 338t133.5 336.5z" />
    <glyph glyph-name="OE" unicode="&#x152;" horiz-adv-x="2361" 
d="M396.5 279q163.5 -185 428.5 -185q137 0 248 52.5t187.5 138.5t117.5 197.5t41 232.5t-41 233.5t-117.5 198.5t-187.5 138t-249 52t-247.5 -52t-226.5 -184.5t-117 -384.5t163.5 -437zM1419 305q-187 -338 -629 -338q-138 0 -273.5 62.5t-231 167t-146.5 240t-51 279.5
t50 279t145.5 238.5t234 166t282.5 62.5t230 -25.5t147.5 -64.5t101.5 -83t64.5 -82t36 -61.5t13.5 -21.5q19 19 22.5 54.5t3.5 49.5v206h783v-125h-643v-533h643v-127h-643v-522h643v-127h-783v305z" />
    <glyph glyph-name="oe" unicode="&#x153;" horiz-adv-x="1878" 
d="M1645 528q0 125 -82.5 206t-215.5 81q-134 0 -215 -82.5t-85 -204.5h598zM316 201.5q95 -103.5 248 -103.5t249 102t96 252t-96 253.5t-249 103.5t-248 -105t-95 -252t95 -250.5zM1774 539q0 -69 -7 -113h-723q0 -231 118 -282.5t216 -51.5t162 50.5t88 117.5h135
q-25 -116 -133.5 -199.5t-263.5 -83.5q-154 0 -251 68t-144 170q-53 -104 -158.5 -171t-231.5 -67q-227 0 -360 139t-133 338t133.5 336.5t341.5 137.5q143 0 247.5 -64.5t158.5 -169.5q49 111 151 172.5t212 61.5t186.5 -31t134 -86t89.5 -129t32 -143z" />
    <glyph glyph-name="Racute" unicode="&#x154;" horiz-adv-x="1232" 
d="M330 1640l510 281l63 -104l-510 -281zM309 610h355q150 0 245 102t95 248t-95 247.5t-245 101.5h-355v-699zM170 0v1434h494q212 0 345.5 -137.5t133.5 -338.5q0 -158 -90.5 -283t-245.5 -169l321 -506h-159l-307 485h-353v-485h-139z" />
    <glyph glyph-name="racute" unicode="&#x155;" horiz-adv-x="722" 
d="M605 795q-58 0 -180 -62.5t-122 -329.5v-403h-133v907h133v-215q41 111 130 169.5t194 58.5q54 0 86 -15v-121q-50 11 -108 11zM111 1171l510 281l63 -106l-510 -281z" />
    <glyph glyph-name="Rcommaaccent" unicode="&#x156;" horiz-adv-x="1232" 
d="M512 -137q0 41 27.5 69.5t76.5 28.5t86 -41.5t37 -139.5t-59 -147t-158 -49v64q135 0 135 108q0 16 -2 20.5t-18 -2.5t-45 -7t-54.5 27.5t-25.5 68.5zM309 610h355q150 0 245 102t95 248t-95 247.5t-245 101.5h-355v-699zM170 0v1434h494q212 0 345.5 -137.5
t133.5 -338.5q0 -158 -90.5 -283t-245.5 -169l321 -506h-159l-307 485h-353v-485h-139z" />
    <glyph glyph-name="rcommaaccent" unicode="&#x157;" horiz-adv-x="722" 
d="M605 795q-58 0 -180 -62.5t-122 -329.5v-403h-133v907h133v-215q41 111 130 169.5t194 58.5q54 0 86 -15v-121q-50 11 -108 11zM131 -136q0 40 27.5 69.5t74.5 29.5t86 -39.5t39 -139.5t-58 -149t-159 -49v62q96 0 117 65q4 14 7 22.5t4 14.5t0 13.5t-1 17.5
q-16 -12 -50 -12t-60.5 27.5t-26.5 67.5z" />
    <glyph glyph-name="Rcaron" unicode="&#x158;" horiz-adv-x="1232" 
d="M309 610h355q150 0 245 102t95 248t-95 247.5t-245 101.5h-355v-699zM268 1839l72 94l254 -235l256 235l74 -94l-330 -297zM170 0v1434h494q212 0 345.5 -137.5t133.5 -338.5q0 -158 -90.5 -283t-245.5 -169l321 -506h-159l-307 485h-353v-485h-139z" />
    <glyph glyph-name="rcaron" unicode="&#x159;" horiz-adv-x="722" 
d="M605 795q-58 0 -180 -62.5t-122 -329.5v-403h-133v907h133v-215q41 111 130 169.5t194 58.5q54 0 86 -15v-121q-50 11 -108 11zM57 1444l72 94l254 -235l256 235l74 -94l-330 -297z" />
    <glyph glyph-name="Sacute" unicode="&#x15a;" horiz-adv-x="1171" 
d="M309 1640l510 281l64 -104l-510 -281zM96 444h140q0 -158 98 -253t260 -95t253 73t91 204q0 181 -131 227.5t-206 68.5t-262 84.5t-187 319.5q0 187 124 289t325 102t320 -117t123 -313h-137q-4 150 -86 227.5t-227 77.5q-210 0 -257.5 -97t-47.5 -164q0 -121 83.5 -177
t203.5 -88q120 -33 309.5 -99.5t189.5 -332.5q0 -191 -134.5 -301.5t-350.5 -110.5q-215 0 -354.5 131.5t-139.5 343.5z" />
    <glyph glyph-name="sacute" unicode="&#x15b;" horiz-adv-x="921" 
d="M172 1151l510 281l63 -107l-509 -281zM90 307h129q0 -113 69.5 -166t180.5 -53q223 0 223 148q0 85 -67.5 113t-122 39.5t-106.5 23.5q-128 30 -201.5 84t-73.5 175t91 189t243 68t251 -81.5t99 -219.5h-129q0 94 -59.5 143t-156.5 49t-154.5 -38t-57.5 -111t61.5 -104
t164.5 -49q103 -19 224 -58.5t121 -217.5q0 -126 -95 -195t-249 -69q-266 0 -325.5 122t-59.5 208z" />
    <glyph glyph-name="Scircumflex" unicode="&#x15c;" horiz-adv-x="1171" 
d="M231 1634l369 297l369 -297l-82 -94l-287 232l-285 -230zM96 444h140q0 -158 98 -253t260 -95t253 73t91 204q0 181 -131 227.5t-206 68.5t-262 84.5t-187 319.5q0 187 124 289t325 102t320 -117t123 -313h-137q-4 150 -86 227.5t-227 77.5q-210 0 -257.5 -97t-47.5 -164
q0 -121 83.5 -177t203.5 -88q120 -33 309.5 -99.5t189.5 -332.5q0 -191 -134.5 -301.5t-350.5 -110.5q-215 0 -354.5 131.5t-139.5 343.5z" />
    <glyph glyph-name="scircumflex" unicode="&#x15d;" horiz-adv-x="921" 
d="M90 1182l369 297l368 -297l-82 -95l-286 232l-285 -229zM90 307h129q0 -113 69.5 -166t180.5 -53q223 0 223 148q0 85 -67.5 113t-122 39.5t-106.5 23.5q-128 30 -201.5 84t-73.5 175t91 189t243 68t251 -81.5t99 -219.5h-129q0 94 -59.5 143t-156.5 49t-154.5 -38
t-57.5 -111t61.5 -104t164.5 -49q103 -19 224 -58.5t121 -217.5q0 -126 -95 -195t-249 -69q-266 0 -325.5 122t-59.5 208z" />
    <glyph glyph-name="Scedilla" unicode="&#x15e;" horiz-adv-x="1171" 
d="M694 -176q-58 0 -90 -66h-76v213q-196 20 -314 149.5t-118 323.5h140q0 -158 98 -253t258 -95t253 72t93 205q0 194 -142 237.5t-206 59.5q-196 50 -317 137t-121 268t122 285t318 104q312 0 381 -163.5t71 -266.5h-137q-4 150 -86 227.5t-221 77.5t-225 -65.5
t-86 -190.5q0 -173 131.5 -216t203.5 -65t261.5 -87t189.5 -341t-177 -337.5t-277 -65.5v-129q32 54 102 54t123 -50.5t53 -130.5q0 -125 -74.5 -159.5t-110.5 -34.5q-83 0 -141 44t-69 138h86q4 -45 33.5 -74.5t78.5 -29.5t80 32.5t31 80.5t-30.5 80t-88.5 32z" />
    <glyph glyph-name="scedilla" unicode="&#x15f;" horiz-adv-x="921" 
d="M565 -176q-58 0 -90 -66h-76v224q-213 26 -261 137.5t-48 187.5h129q0 -113 69.5 -166t180.5 -53q223 0 223 148q0 85 -67.5 113t-122 39.5t-106.5 23.5q-128 30 -201.5 84t-73.5 175t91 189t243 68t251 -81.5t99 -219.5h-129q0 94 -59.5 143t-156.5 49t-154.5 -38
t-57.5 -111t61.5 -104t163.5 -49q102 -19 155.5 -35.5t122 -67t68.5 -173.5q0 -122 -87 -188.5t-240 -75.5v-135q32 54 103 54t123 -50.5t52 -129.5t-51 -137t-139 -58q-120 0 -159.5 64.5t-45.5 117.5h86q4 -45 33.5 -74.5t79.5 -29.5t80 32.5t30 80.5t-30.5 80t-88.5 32z
" />
    <glyph glyph-name="Scaron" unicode="&#x160;" horiz-adv-x="1171" 
d="M276 1862l74 94l252 -236l256 236l74 -94l-330 -297zM96 444h140q0 -158 98 -253t260 -95t253 73t91 204q0 181 -131 227.5t-206 68.5t-262 84.5t-187 319.5q0 190 127 290.5t323 100.5t317 -115t125 -315h-137q-4 150 -86 227.5t-227 77.5q-210 0 -257.5 -97t-47.5 -164
q0 -121 83.5 -177t203.5 -88q120 -33 309.5 -99.5t189.5 -332.5q0 -191 -134.5 -301.5t-350.5 -110.5q-215 0 -354.5 131.5t-139.5 343.5z" />
    <glyph glyph-name="scaron" unicode="&#x161;" horiz-adv-x="921" 
d="M135 1372l72 94l254 -235l256 235l74 -94l-330 -297zM90 307h129q0 -113 69.5 -166t180.5 -53q223 0 223 148q0 85 -67.5 113t-122 39.5t-106.5 23.5q-128 30 -201.5 84t-73.5 175t91 189t243 68t251 -81.5t99 -219.5h-129q0 94 -59.5 143t-156.5 49t-154.5 -38
t-57.5 -111t61.5 -104t164.5 -49q103 -19 224 -58.5t121 -217.5q0 -126 -95 -195t-249 -69q-266 0 -325.5 122t-59.5 208z" />
    <glyph glyph-name="Tcommaaccent" unicode="&#x162;" horiz-adv-x="970" 
d="M383 -137q0 41 28.5 69.5t77.5 28.5t86 -41.5t37 -139.5t-60 -147t-157 -49v64q68 0 101.5 28t33.5 68t-10 35q-6 -2 -15 -7t-39 -5t-56.5 27.5t-26.5 68.5zM29 1309v125h913v-125h-389v-1309h-137v1309h-387z" />
    <glyph glyph-name="tcommaaccent" unicode="&#x163;" horiz-adv-x="673" 
d="M223 -136q0 40 28 69.5t75 29.5t86 -39.5t39 -139.5t-58.5 -149t-159.5 -49v62q96 0 117 65q4 14 7 22.5t4 14.5t0 13.5t-1 17.5q-16 -12 -50 -12t-60.5 27.5t-26.5 67.5zM513.5 -12q-58.5 0 -107 8t-115 62t-66.5 245v490h-184v114h184v336h131v-336h265v-114h-265v-463
q0 -190 65.5 -205.5t118.5 -15.5t113 10v-119q-81 -12 -139.5 -12z" />
    <glyph glyph-name="Tcaron" unicode="&#x164;" horiz-adv-x="970" 
d="M158 1839l71 94l254 -235l256 235l74 -94l-330 -297zM29 1309v125h913v-125h-389v-1309h-137v1309h-387z" />
    <glyph glyph-name="tcaron" unicode="&#x165;" horiz-adv-x="890" 
d="M528 1333q0 49 35 85t95 36t104.5 -51t44.5 -170t-70.5 -178.5t-193.5 -59.5v70q110 0 143 84q19 51 10 86q-16 -16 -59 -16t-76 32.5t-33 81.5zM513.5 -12q-58.5 0 -107 8t-115 62t-66.5 245v490h-184v114h184v336h131v-336h265v-114h-265v-463q0 -190 65.5 -205.5
t118.5 -15.5t113 10v-119q-81 -12 -139.5 -12z" />
    <glyph glyph-name="Tbar" unicode="&#x166;" horiz-adv-x="970" 
d="M29 1309v125h913v-125h-389v-283h303v-121h-303v-905h-137v905h-293v121h293v283h-387z" />
    <glyph glyph-name="tbar" unicode="&#x167;" horiz-adv-x="673" 
d="M513.5 -12q-58.5 0 -107 8t-115 62t-66.5 245v129h-184v115h184v246h-184v114h184v336h131v-336h265v-114h-265v-246h265v-115h-265v-102q0 -190 65.5 -205.5t118.5 -15.5t113 10v-119q-81 -12 -139.5 -12z" />
    <glyph glyph-name="Utilde" unicode="&#x168;" horiz-adv-x="1265" 
d="M629.5 1756.5q107.5 -27.5 151.5 -27.5t157 55l53 -88q-112 -76 -180 -76t-169 26.5t-156 26.5t-152 -57l-60 90q114 74 154.5 76t66.5 2q27 0 134.5 -27.5zM150 451v983h139v-983q0 -149 96.5 -252t247.5 -103t247.5 103t96.5 252v983h139v-983q0 -201 -134 -341.5
t-349 -140.5t-349 140.5t-134 341.5z" />
    <glyph glyph-name="utilde" unicode="&#x169;" horiz-adv-x="1146" 
d="M420 1214q-49 0 -146 -57l-59 90q114 74 154.5 76t60.5 2q39 0 141.5 -27.5t148.5 -27.5t159 55l53 -88q-112 -76 -193 -76q-48 0 -122 18.5t-111 26.5t-86 8zM150 375v532h131v-493q0 -220 96 -268t169 -48q140 0 220 103t80 241v465h131v-907h-131v199
q-39 -92 -126 -157t-220 -65q-178 0 -273 115q-77 93 -77 283z" />
    <glyph glyph-name="Umacron" unicode="&#x16a;" horiz-adv-x="1265" 
d="M266 1638v121h733v-121h-733zM150 451v983h139v-983q0 -149 96.5 -252t247.5 -103t247.5 103t96.5 252v983h139v-983q0 -201 -134 -341.5t-349 -140.5t-349 140.5t-134 341.5z" />
    <glyph glyph-name="umacron" unicode="&#x16b;" horiz-adv-x="1146" 
d="M207 1180v118h733v-118h-733zM150 375v532h131v-493q0 -220 96 -268t169 -48q140 0 220 103t80 241v465h131v-907h-131v199q-39 -92 -126 -157t-220 -65q-178 0 -273 115q-77 93 -77 283z" />
    <glyph glyph-name="Ubreve" unicode="&#x16c;" horiz-adv-x="1265" 
d="M631 1632q109 0 189.5 46t99.5 132h127q-16 -132 -136.5 -215.5t-277.5 -83.5t-274 84t-140 215h125q25 -86 101.5 -132t185.5 -46zM150 451v983h139v-983q0 -149 96.5 -252t247.5 -103t247.5 103t96.5 252v983h139v-983q0 -201 -134 -341.5t-349 -140.5t-349 140.5
t-134 341.5z" />
    <glyph glyph-name="ubreve" unicode="&#x16d;" horiz-adv-x="1146" 
d="M574 1255q108 0 188 47.5t98 131.5h127q-16 -135 -137 -216t-277 -81t-272.5 82t-140.5 215h125q25 -86 103 -132.5t186 -46.5zM150 375v532h131v-493q0 -220 96 -268t169 -48q140 0 220 103t80 241v465h131v-907h-131v199q-39 -92 -126 -157t-220 -65q-178 0 -273 115
q-77 93 -77 283z" />
    <glyph glyph-name="Uring" unicode="&#x16e;" horiz-adv-x="1265" 
d="M481 1749q0 -61 44.5 -106.5t106.5 -45.5t106 45.5t44 106.5t-43 105t-106 44t-107.5 -44t-44.5 -105zM454 1924.5q73 74.5 177 74.5q103 0 178.5 -73.5t75.5 -178.5t-75.5 -178.5t-177.5 -73.5t-176.5 73.5t-74.5 177.5t73 178.5zM150 451v983h139v-983
q0 -149 96.5 -252t247.5 -103t247.5 103t96.5 252v983h139v-983q0 -201 -134 -341.5t-349 -140.5t-349 140.5t-134 341.5z" />
    <glyph glyph-name="uring" unicode="&#x16f;" horiz-adv-x="1146" 
d="M418 1359q0 -62 44 -106.5t106 -44.5t106.5 45t44.5 107t-44.5 105.5t-107.5 43.5t-106 -44t-43 -106zM389 1536q74 74 177 74t178 -73.5t75 -179t-75 -178.5t-176 -73t-177 72.5t-76 178t74 179.5zM150 375v532h131v-493q0 -220 96 -268t169 -48q140 0 220 103t80 241
v465h131v-907h-131v199q-39 -92 -126 -157t-220 -65q-178 0 -273 115q-77 93 -77 283z" />
    <glyph glyph-name="Uhungarumlaut" unicode="&#x170;" horiz-adv-x="1265" 
d="M719 1579l256 340l117 -59l-301 -320zM319 1579l256 340l117 -59l-301 -320zM150 451v983h139v-983q0 -149 96.5 -252t247.5 -103t247.5 103t96.5 252v983h139v-983q0 -201 -134 -341.5t-349 -140.5t-349 140.5t-134 341.5z" />
    <glyph glyph-name="uhungarumlaut" unicode="&#x171;" horiz-adv-x="1146" 
d="M649 1085l256 340l117 -59l-301 -319zM250 1085l256 340l117 -59l-301 -319zM150 375v532h131v-493q0 -220 96 -268t169 -48q140 0 220 103t80 241v465h131v-907h-131v199q-39 -92 -126 -157t-220 -65q-178 0 -273 115q-77 93 -77 283z" />
    <glyph glyph-name="Uogonek" unicode="&#x172;" horiz-adv-x="1265" 
d="M446 -236q0 108 129 209q-190 16 -307.5 153.5t-117.5 324.5v983h139v-983q0 -149 96.5 -252t247.5 -103t247.5 103t96.5 252v983h139v-983q0 -194 -124.5 -331t-323.5 -149q-95 -82 -95 -170q0 -53 37 -93t105 -40t149 29l-2 -100q-102 -31 -178 -31q-121 0 -179.5 58.5
t-58.5 139.5z" />
    <glyph glyph-name="uogonek" unicode="&#x173;" horiz-adv-x="1146" 
d="M947 -332q64 0 153 29l-2 -100q-102 -31 -200 -31q-97 0 -156.5 58t-59.5 132t40 129.5t124 114.5v199q-39 -92 -126 -157t-220 -65q-178 0 -273 115q-77 93 -77 283v532h131v-493q0 -220 96 -268t169 -48q140 0 220 103t80 241v465h131v-907h-37q-131 -94 -131 -199
q0 -53 37 -93t101 -40z" />
    <glyph glyph-name="Wcircumflex" unicode="&#x174;" horiz-adv-x="1935" 
d="M598 1634l369 297l368 -297l-82 -94l-286 232l-285 -230zM12 1434h146l391 -1201l364 1201h109l364 -1201l392 1201h145l-485 -1434h-107l-362 1198l-365 -1198h-106z" />
    <glyph glyph-name="wcircumflex" unicode="&#x175;" horiz-adv-x="1462" 
d="M362 1182l369 297l369 -297l-82 -95l-287 232l-285 -229zM16 907h142l256 -706l252 706h131l252 -706l256 706h141l-350 -907h-95l-270 760l-268 -760h-96z" />
    <glyph glyph-name="Ycircumflex" unicode="&#x176;" horiz-adv-x="1157" 
d="M209 1634l369 297l368 -297l-82 -94l-286 232l-285 -230zM18 1434h160l457 -723l373 723h151l-731 -1434h-154l291 567z" />
    <glyph glyph-name="ycircumflex" unicode="&#x177;" horiz-adv-x="1163" 
d="M213 1182l369 297l368 -297l-82 -95l-286 232l-285 -229zM868 -86v285q-41 -98 -128.5 -160t-203.5 -62t-181.5 31t-106.5 81q-76 93 -76 296v522h131v-483q0 -235 91 -280.5t169 -45.5q148 0 226.5 101t78.5 243v465h131v-993q0 -246 -109 -354.5t-312 -108.5
q-320 0 -370 162t-52 252h129q4 -143 71 -218t218 -75t222.5 77t71.5 265z" />
    <glyph glyph-name="Ydieresis" unicode="&#x178;" horiz-adv-x="1157" 
d="M737 1703q0 50 34 84t83 34t84 -34t35 -84t-35 -84t-84 -34t-83 34t-34 84zM266 1703q0 50 34 84t83 34t84 -34t35 -84t-35 -84t-84 -34t-83 34t-34 84zM18 1434h160l457 -723l373 723h151l-731 -1434h-154l291 567z" />
    <glyph glyph-name="Zacute" unicode="&#x179;" horiz-adv-x="1130" 
d="M305 1649l510 280l64 -104l-510 -281zM76 1309v125h1040l-850 -1307h869v-127h-1102l848 1309h-805z" />
    <glyph glyph-name="zacute" unicode="&#x17a;" horiz-adv-x="882" 
d="M156 1149l510 281l63 -105l-510 -281zM76 786v121h751l-544 -786h546v-121h-776l545 786h-522z" />
    <glyph glyph-name="Zdotaccent" unicode="&#x17b;" horiz-adv-x="1130" 
d="M449 1713q0 52 34.5 87t86.5 35t87 -35t35 -87t-35 -87t-87 -35t-86.5 35t-34.5 87zM76 1309v125h1040l-850 -1307h869v-127h-1102l848 1309h-805z" />
    <glyph glyph-name="zdotaccent" unicode="&#x17c;" horiz-adv-x="882" 
d="M319 1238q0 52 35 87t87 35t87 -35t35 -87t-34.5 -87t-86.5 -35t-87.5 35t-35.5 87zM76 786v121h751l-544 -786h546v-121h-776l545 786h-522z" />
    <glyph glyph-name="Zcaron" unicode="&#x17d;" horiz-adv-x="1130" 
d="M279 1817l73 94l252 -236l256 236l74 -94l-330 -297zM76 1309v125h1040l-850 -1307h869v-127h-1102l848 1309h-805z" />
    <glyph glyph-name="zcaron" unicode="&#x17e;" horiz-adv-x="882" 
d="M129 1343l72 95l254 -236l256 236l73 -95l-329 -296zM76 786v121h751l-544 -786h546v-121h-776l545 786h-522z" />
    <glyph glyph-name="longs" unicode="&#x17f;" horiz-adv-x="686" 
d="M433.5 1288q-48.5 -39 -48.5 -166v-1122h-133v793h-205v114h205v203q0 206 83.5 271t184.5 65q100 0 148 -23v-114q-45 18 -116 18q-70 0 -118.5 -39z" />
    <glyph glyph-name="florin" unicode="&#x192;" horiz-adv-x="841" 
d="M126 -325.5q51 39.5 75 165.5l170 953h-205l20 114h205l35 203q57 336 344 336q85 0 127 -23l-18 -114q-45 18 -94 18q-95 0 -148.5 -41.5t-75.5 -163.5l-39 -215h285l-21 -114h-282l-166 -940q-36 -201 -129.5 -268.5t-195.5 -67.5t-146 22l18 115q48 -19 119 -19
t122 39.5z" />
    <glyph glyph-name="Aringacute" unicode="&#x1fa;" horiz-adv-x="1118" 
d="M483 1539q0 -30 20.5 -52.5t53.5 -22.5t54.5 22.5t21.5 52.5t-21.5 52.5t-53.5 22.5t-53.5 -22.5t-21.5 -52.5zM289 383h540l-270 831zM266 1683l510 281l45 -72l-510 -280zM418 1547q0 50 40 91t99 41t100 -41t41 -90q0 -94 -80 -133l488 -1415h-145l-89 258h-626
l-86 -258h-146l486 1413q-82 35 -82 134z" />
    <glyph glyph-name="aringacute" unicode="&#x1fb;" horiz-adv-x="1212" 
d="M399 1250q0 -62 44.5 -107t106.5 -45t106 45t44 106t-43 105.5t-106 44.5t-107.5 -43.5t-44.5 -105.5zM373.5 1426q74.5 73 175.5 73q102 0 178 -72.5t76 -178.5t-75.5 -179.5t-176.5 -73.5t-176.5 73.5t-75.5 179t74.5 178.5zM252 1585l510 281l63 -105l-510 -280z
M315.5 203.5q94.5 -105.5 247.5 -105.5t249.5 104.5t96.5 253.5q0 148 -99 250.5t-250 102.5t-245 -105.5t-94 -250t94.5 -250zM219.5 790q131.5 138 329.5 138q123 0 218 -56.5t142 -158.5v194h133v-907h-133v193q-43 -92 -134 -154t-209 -62t-202.5 38t-180 139.5
t-95.5 299.5t131.5 336z" />
    <glyph glyph-name="AEacute" unicode="&#x1fc;" horiz-adv-x="1734" 
d="M774 1640l510 281l64 -104l-510 -281zM788 385v895l-442 -895h442zM1569 1434v-125h-643v-533h643v-127h-643v-522h643v-127h-781v258h-503l-129 -258h-150l717 1434h846z" />
    <glyph glyph-name="aeacute" unicode="&#x1fd;" horiz-adv-x="1878" 
d="M1645 528q0 125 -82.5 206t-215.5 81q-134 0 -215 -82.5t-85 -204.5h598zM651 1133l510 280l64 -104l-510 -281zM316 201.5q95 -103.5 248 -103.5t249 104.5t96 252t-96 251t-248.5 103.5t-248 -105t-95.5 -252t95 -250.5zM1042 0h-133v193q-43 -92 -134 -154t-209 -62
q-216 0 -347 139.5t-131 337.5t131.5 336t329.5 138q123 0 218 -56.5t142 -158.5v194h133v-127q102 148 295 148t315 -116.5t122 -289.5q0 -53 -7 -96h-723q0 -231 118 -282.5t218 -51.5t163 52.5t85 115.5h135q-25 -115 -132 -199t-267 -84q-213 0 -322 154v-131z" />
    <glyph glyph-name="Oslashacute" unicode="&#x1fe;" horiz-adv-x="1650" 
d="M840 96q122 0 233 52.5t228.5 184.5t117.5 389t-115.5 376t-187.5 159l-485 -1128q87 -33 209 -33zM539 1640l510 281l63 -106l-510 -281zM233 717q0 -162 74 -305.5t209 -227.5l483 1129q-89 26 -201 26t-220.5 -52t-226.5 -184t-118 -386zM799 1464q144 0 252 -32
l69 163l121 -51l-72 -162q184 -92 289 -275t105 -390q0 -145 -51.5 -280.5t-146.5 -239t-231 -166t-288 -62.5t-264 41l-68 -160l-119 50l68 159q-177 97 -276 274t-99 384q0 145 51 280.5t146.5 238.5t232.5 165.5t281 62.5z" />
    <glyph glyph-name="oslashacute" unicode="&#x1ff;" horiz-adv-x="1130" 
d="M581 98q62 0 125.5 29t133 103t69.5 223q0 96 -44 175t-122 122l-272 -635q48 -17 110 -17zM276 1151l510 281l64 -107l-510 -281zM221 445q0 -80 37 -155t102 -122l273 633q-41 8 -95 8t-117 -28.5t-107 -78t-68.5 -113.5t-24.5 -144zM537 928q82 0 145 -15l57 136
l113 -48l-55 -131q117 -59 181 -170.5t64 -227.5q0 -219 -134 -357t-343 -138q-80 0 -143 25l-64 -147l-112 49l61 143q-104 63 -161.5 170t-57.5 219t34 199.5t96.5 152t149.5 102.5t169 38z" />
    <glyph glyph-name="Scommaaccent" unicode="&#x218;" horiz-adv-x="1171" 
d="M504 -159q0 40 27.5 70t74.5 30t86 -39.5t39 -139.5t-58.5 -149t-158.5 -49v61q68 0 100.5 29t34.5 68q2 38 -8 34q-23 -10 -54 -10q-30 0 -56.5 27.5t-26.5 67.5zM96 444h140q0 -158 98 -253t260 -95t253 73t91 204q0 181 -131 227.5t-206 68.5t-262 84.5t-187 319.5
q0 187 124 289t325 102t320 -117t123 -313h-137q-4 150 -86 227.5t-227 77.5q-210 0 -257.5 -97t-47.5 -164q0 -121 83.5 -177t203.5 -88q120 -33 309.5 -99.5t189.5 -332.5q0 -191 -134.5 -301.5t-350.5 -110.5q-215 0 -354.5 131.5t-139.5 343.5z" />
    <glyph glyph-name="scommaaccent" unicode="&#x219;" horiz-adv-x="921" 
d="M460 -225q-36 0 -62.5 27.5t-26.5 68.5t28.5 69.5t76.5 28.5t86 -41t38 -139t-59.5 -147.5t-157.5 -49.5v62q89 0 113 60q16 38 12 73q-12 -12 -48 -12zM90 307h129q0 -113 69.5 -166t180.5 -53q223 0 223 148q0 85 -67.5 113t-122 39.5t-106.5 23.5q-128 30 -201.5 84
t-73.5 175t91 189t243 68t251 -81.5t99 -219.5h-129q0 94 -59.5 143t-156.5 49t-154.5 -38t-57.5 -111t61.5 -104t164.5 -49q103 -19 224 -58.5t121 -217.5q0 -126 -95 -195t-249 -69q-266 0 -325.5 122t-59.5 208z" />
    <glyph glyph-name="uni021A" unicode="&#x21a;" horiz-adv-x="970" 
d="M383 -137q0 41 28.5 69.5t77.5 28.5t86 -41.5t37 -139.5t-60 -147t-157 -49v64q68 0 101.5 28t33.5 68t-10 35q-6 -2 -15 -7t-39 -5t-56.5 27.5t-26.5 68.5zM29 1309v125h913v-125h-389v-1309h-137v1309h-387z" />
    <glyph glyph-name="uni021B" unicode="&#x21b;" horiz-adv-x="673" 
d="M223 -136q0 40 28 69.5t75 29.5t86 -39.5t39 -139.5t-58.5 -149t-159.5 -49v62q96 0 117 65q4 14 7 22.5t4 14.5t0 13.5t-1 17.5q-16 -12 -50 -12t-60.5 27.5t-26.5 67.5zM513.5 -12q-58.5 0 -107 8t-115 62t-66.5 245v490h-184v114h184v336h131v-336h265v-114h-265v-463
q0 -190 65.5 -205.5t118.5 -15.5t113 10v-119q-81 -12 -139.5 -12z" />
    <glyph glyph-name="apostrophemod" unicode="&#x2bc;" horiz-adv-x="524" 
d="M123 1397q0 49 35.5 84t95.5 35t103.5 -51t43.5 -167t-69.5 -178.5t-194.5 -62.5v71q111 0 144 84q10 27 11 53.5t-1 30.5q-16 -16 -59 -16t-76 34t-33 83z" />
    <glyph glyph-name="circumflex" unicode="&#x2c6;" horiz-adv-x="913" 
d="M86 1427l369 297l368 -297l-82 -94l-286 232l-285 -230z" />
    <glyph glyph-name="caron" unicode="&#x2c7;" horiz-adv-x="821" 
d="M84 1534l72 94l254 -235l256 235l73 -94l-329 -297z" />
    <glyph glyph-name="breve" unicode="&#x2d8;" horiz-adv-x="1064" 
d="M530 1554q108 0 189.5 46.5t99.5 132.5h125q-16 -133 -136.5 -216t-277.5 -83t-273.5 83.5t-139.5 215.5h127q23 -86 100.5 -132.5t185.5 -46.5z" />
    <glyph glyph-name="dotaccent" unicode="&#x2d9;" horiz-adv-x="774" 
d="M266 1326q0 52 35 87t87 35t87 -35t35 -87t-35 -87t-87 -35t-87 35t-35 87z" />
    <glyph glyph-name="ring" unicode="&#x2da;" horiz-adv-x="921" 
d="M311 1460q0 -62 44.5 -106.5t106.5 -44.5t106 45t44 106t-44 105.5t-107 44.5t-106.5 -44t-43.5 -106zM282.5 1636.5q73.5 73.5 176.5 73.5t178.5 -72.5t75.5 -178.5t-75.5 -179.5t-177.5 -73.5t-176.5 73.5t-74.5 178.5t73.5 178.5z" />
    <glyph glyph-name="ogonek" unicode="&#x2db;" horiz-adv-x="835" 
d="M501 -332q73 0 144 29l-2 -100q-102 -31 -200 -31q-97 0 -156.5 58t-59.5 132t40 129.5t124 114.5h96q-133 -92 -133 -199q0 -53 37 -93t110 -40z" />
    <glyph glyph-name="tilde" unicode="&#x2dc;" horiz-adv-x="958" 
d="M343 1323q-48 0 -146 -57l-60 90q114 74 154.5 76t60.5 2q33 0 142 -28t151 -28q41 0 156 56l53 -88q-112 -76 -180 -76t-138.5 18.5t-107.5 26.5t-85 8z" />
    <glyph glyph-name="hungarumlaut" unicode="&#x2dd;" horiz-adv-x="937" 
d="M518 1163l256 340l117 -57l-301 -322zM119 1163l256 340l117 -57l-302 -320z" />
    <glyph glyph-name="Delta" unicode="&#x394;" horiz-adv-x="1118" 
d="M205 127h708l-354 1087zM14 0l494 1434h104l494 -1434h-1092z" />
    <glyph glyph-name="Omega" unicode="&#x3a9;" horiz-adv-x="1474" 
d="M96 830q0 122 44 237t175 254t423 139t467 -185.5t175 -451.5q0 -223 -127 -393t-329 -227v-76h409v-127h-522v283q197 36 313.5 189t116.5 363t-135.5 354t-368 144t-368.5 -144.5t-136 -353.5t116.5 -363t316.5 -189v-283h-523v127h410v78q-203 59 -330 226.5
t-127 398.5z" />
    <glyph glyph-name="mu" unicode="&#x3bc;" 
d="M170 -528v1435h131v-493q0 -220 96.5 -268t168.5 -48q142 0 221 103t79 241v465h131v-907h-131v199q-39 -92 -125.5 -157t-226.5 -65t-213 99v-604h-131z" />
    <glyph glyph-name="pi" unicode="&#x3c0;" 
d="M131 786v121h905v-121h-112v-786h-133v786h-414v-786h-133v786h-113z" />
    <glyph glyph-name="Wgrave" unicode="&#x1e80;" horiz-adv-x="1935" 
d="M682 1817l63 104l510 -281l-63 -104zM12 1434h146l391 -1201l364 1201h109l364 -1201l392 1201h145l-485 -1434h-107l-362 1198l-365 -1198h-106z" />
    <glyph glyph-name="wgrave" unicode="&#x1e81;" horiz-adv-x="1462" 
d="M444 1325l64 107l510 -281l-64 -107zM16 907h142l256 -706l252 706h131l252 -706l256 706h141l-350 -907h-95l-270 760l-268 -760h-96z" />
    <glyph glyph-name="Wacute" unicode="&#x1e82;" horiz-adv-x="1935" 
d="M682 1640l510 281l63 -104l-510 -281zM12 1434h146l391 -1201l364 1201h109l364 -1201l392 1201h145l-485 -1434h-107l-362 1198l-365 -1198h-106z" />
    <glyph glyph-name="wacute" unicode="&#x1e83;" horiz-adv-x="1462" 
d="M444 1151l510 281l64 -107l-510 -281zM16 907h142l256 -706l252 706h131l252 -706l256 706h141l-350 -907h-95l-270 760l-268 -760h-96z" />
    <glyph glyph-name="Wdieresis" unicode="&#x1e84;" horiz-adv-x="1935" 
d="M1085 1717q0 50 34 84t83 34t84 -34t35 -84t-35 -84t-84 -34t-83 34t-34 84zM614 1717q0 50 34 84t83 34t84 -34t35 -84t-35 -84t-84 -34t-83 34t-34 84zM12 1434h146l391 -1201l364 1201h109l364 -1201l392 1201h145l-485 -1434h-107l-362 1198l-365 -1198h-106z" />
    <glyph glyph-name="wdieresis" unicode="&#x1e85;" horiz-adv-x="1462" 
d="M848 1240q0 50 34 84t84 34t83.5 -34t33.5 -84t-33.5 -84t-83.5 -34t-84 34t-34 84zM377 1240q0 50 33.5 84t83.5 34t84 -34t34 -84t-33.5 -84t-83.5 -34t-84 34t-34 84zM16 907h142l256 -706l252 706h131l252 -706l256 706h141l-350 -907h-95l-270 760l-268 -760h-96z
" />
    <glyph glyph-name="Ygrave" unicode="&#x1ef2;" horiz-adv-x="1157" 
d="M291 1817l63 104l510 -281l-63 -104zM18 1434h160l457 -723l373 723h151l-731 -1434h-154l291 567z" />
    <glyph glyph-name="ygrave" unicode="&#x1ef3;" horiz-adv-x="1163" 
d="M295 1325l63 107l510 -281l-63 -107zM868 -86v285q-41 -98 -128.5 -160t-203.5 -62t-181.5 31t-106.5 81q-76 93 -76 296v522h131v-483q0 -235 91 -280.5t169 -45.5q148 0 226.5 101t78.5 243v465h131v-993q0 -246 -109 -354.5t-312 -108.5q-320 0 -370 162t-52 252h129
q4 -143 71 -218t218 -75t222.5 77t71.5 265z" />
    <glyph glyph-name="uni2000" unicode="&#x2000;" horiz-adv-x="1016" 
 />
    <glyph glyph-name="uni2001" unicode="&#x2001;" horiz-adv-x="2032" 
 />
    <glyph glyph-name="uni2002" unicode="&#x2002;" horiz-adv-x="1016" 
 />
    <glyph glyph-name="uni2003" unicode="&#x2003;" horiz-adv-x="2032" 
 />
    <glyph glyph-name="uni2004" unicode="&#x2004;" horiz-adv-x="677" 
 />
    <glyph glyph-name="uni2005" unicode="&#x2005;" horiz-adv-x="508" 
 />
    <glyph glyph-name="uni2006" unicode="&#x2006;" horiz-adv-x="338" 
 />
    <glyph glyph-name="uni2007" unicode="&#x2007;" horiz-adv-x="338" 
 />
    <glyph glyph-name="uni2008" unicode="&#x2008;" horiz-adv-x="254" 
 />
    <glyph glyph-name="uni2009" unicode="&#x2009;" horiz-adv-x="406" 
 />
    <glyph glyph-name="uni200A" unicode="&#x200a;" horiz-adv-x="112" 
 />
    <glyph glyph-name="uni2010" unicode="&#x2010;" horiz-adv-x="602" 
d="M61 524v119h480v-119h-480z" />
    <glyph glyph-name="uni2011" unicode="&#x2011;" horiz-adv-x="602" 
d="M61 524v119h480v-119h-480z" />
    <glyph glyph-name="figuredash" unicode="&#x2012;" horiz-adv-x="602" 
d="M61 524v119h480v-119h-480z" />
    <glyph glyph-name="endash" unicode="&#x2013;" horiz-adv-x="1030" 
d="M102 524v119h826v-119h-826z" />
    <glyph glyph-name="emdash" unicode="&#x2014;" horiz-adv-x="2060" 
d="M102 524v119h1856v-119h-1856z" />
    <glyph glyph-name="quoteleft" unicode="&#x2018;" horiz-adv-x="524" 
d="M123 1278q0 119 70.5 178.5t193.5 59.5v-70q-109 0 -143 -86q-16 -43 -11 -84q15 16 59 16t76.5 -32.5t32.5 -81.5t-34.5 -85t-94.5 -36t-104.5 51t-44.5 170z" />
    <glyph glyph-name="quoteright" unicode="&#x2019;" horiz-adv-x="524" 
d="M123 1397q0 49 35.5 84t95.5 35t103.5 -51t43.5 -167t-69.5 -178.5t-194.5 -62.5v71q111 0 144 84q10 27 11 53.5t-1 30.5q-16 -16 -59 -16t-76 34t-33 83z" />
    <glyph glyph-name="quotesinglbase" unicode="&#x201a;" horiz-adv-x="524" 
d="M123 98q0 49 34.5 84t96.5 35t104.5 -52t42.5 -170t-70.5 -177.5t-193.5 -59.5v70q113 0 144 86q10 27 11 52.5t-1 31.5q-16 -16 -59 -16t-76 33.5t-33 82.5z" />
    <glyph glyph-name="quotedblleft" unicode="&#x201c;" horiz-adv-x="856" 
d="M455 1278q0 119 70.5 178.5t193.5 59.5v-70q-63 0 -95 -22.5t-48 -64.5t-11 -83q16 16 59 16t76 -32.5t33 -81.5t-34.5 -85t-94.5 -36t-104.5 51t-44.5 170zM123 1278q0 119 70.5 178.5t193.5 59.5v-70q-109 0 -143 -86q-16 -43 -11 -84q15 16 59 16t76.5 -32.5
t32.5 -81.5t-34.5 -85t-94.5 -36t-104.5 51t-44.5 170z" />
    <glyph glyph-name="quotedblright" unicode="&#x201d;" horiz-adv-x="856" 
d="M455 1397q0 49 34.5 84t95.5 35t104.5 -51t43.5 -167t-69.5 -178.5t-194.5 -62.5v71q112 0 143 84q10 27 11.5 53.5t-0.5 30.5q-15 -16 -59 -16t-76.5 34t-32.5 83zM123 1397q0 49 35.5 84t95.5 35t103.5 -51t43.5 -167t-69.5 -178.5t-194.5 -62.5v71q111 0 144 84
q10 27 11 53.5t-1 30.5q-16 -16 -59 -16t-76 34t-33 83z" />
    <glyph glyph-name="quotedblbase" unicode="&#x201e;" horiz-adv-x="856" 
d="M455 98q0 49 34.5 84t96.5 35t104.5 -52t42.5 -170t-70.5 -177.5t-193.5 -59.5v70q114 0 143 86q10 27 11.5 52.5t-0.5 31.5q-15 -16 -59 -16t-76.5 33.5t-32.5 82.5zM123 98q0 49 34.5 84t96.5 35t104.5 -52t42.5 -170t-70.5 -177.5t-193.5 -59.5v70q113 0 144 86
q10 27 11 52.5t-1 31.5q-16 -16 -59 -16t-76 33.5t-33 82.5z" />
    <glyph glyph-name="dagger" unicode="&#x2020;" horiz-adv-x="823" 
d="M76 795v120h270v553h131v-553h273v-120h-273v-1168h-131v1168h-270z" />
    <glyph glyph-name="daggerdbl" unicode="&#x2021;" horiz-adv-x="823" 
d="M76 39v117h270v643h-270v116h270v553h131v-553h273v-116h-273v-643h273v-117h-273v-412h-131v412h-270z" />
    <glyph glyph-name="bullet" unicode="&#x2022;" horiz-adv-x="702" 
d="M113 639q0 49 18.5 93t51 77t75.5 51.5t92 18.5t93 -18.5t77 -51.5t51.5 -77t18.5 -93t-18.5 -92t-51.5 -76t-77 -51.5t-93 -18.5t-92 18.5t-75.5 51.5t-51 76t-18.5 92z" />
    <glyph glyph-name="ellipsis" unicode="&#x2026;" horiz-adv-x="1869" 
d="M1513 111q0 51 35 86.5t87 35.5t87 -35.5t35 -86.5t-34.5 -87t-86.5 -36t-87.5 36t-35.5 87zM813 112q0 52 35 86.5t87 34.5t87 -34.5t35 -86.5t-35 -87t-87 -35t-87 35t-35 87zM113 113q0 51 34.5 87t86.5 36t87 -36t35 -87t-35 -87t-87 -36t-86.5 36t-34.5 87z" />
    <glyph glyph-name="uni202F" unicode="&#x202f;" horiz-adv-x="406" 
 />
    <glyph glyph-name="perthousand" unicode="&#x2030;" horiz-adv-x="2555" 
d="M1997 244q0 -70 44 -121t120 -51t121 51t45 121v286q0 70 -45.5 120t-121.5 50t-119.5 -50t-43.5 -120v-286zM1884 244v295q0 107 77.5 182.5t200.5 75.5t199 -79t76 -188v-294q0 -110 -77.5 -185.5t-200.5 -75.5t-199 78.5t-76 190.5zM1237 252q0 -70 44 -121t120 -51
t121 51t45 121v287q0 70 -45 120t-121 50t-120 -50.5t-44 -119.5v-287zM1124 252v295q0 107 77.5 182.5t200.5 75.5t199 -79t76 -187v-295q0 -110 -77 -185t-200 -75t-199.5 78t-76.5 190zM410 -4l895 1544l106 -61l-895 -1545zM231 895q0 -70 44 -121t120 -51t121 51
t45 121v287q0 70 -45 120t-121 50t-120 -50.5t-44 -119.5v-287zM119 895v295q0 107 77 182.5t200 75.5t199.5 -78.5t76.5 -187.5v-295q0 -111 -78 -185.5t-200 -74.5q-123 0 -199 78t-76 190z" />
    <glyph glyph-name="guilsinglleft" unicode="&#x2039;" horiz-adv-x="565" 
d="M82 553v86l401 348v-135l-290 -256l290 -256v-135z" />
    <glyph glyph-name="guilsinglright" unicode="&#x203a;" horiz-adv-x="565" 
d="M82 205v135l293 256l-293 256v135l401 -348v-86z" />
    <glyph glyph-name="fraction" unicode="&#x2044;" horiz-adv-x="428" 
d="M-287 -4l895 1544l107 -61l-895 -1545z" />
    <glyph glyph-name="uni205F" unicode="&#x205f;" horiz-adv-x="508" 
 />
    <glyph glyph-name="Euro" unicode="&#x20ac;" horiz-adv-x="1241" 
d="M180 602v225h-125l25 103h100v47q0 197 133 336t340 139t338.5 -128t141.5 -320h-140q-8 136 -99.5 229.5t-238.5 93.5t-241.5 -101t-94.5 -249v-47h508l-24 -103h-484v-225h504l-26 -104h-478v-43q0 -148 95 -249.5t243 -101.5t243 101t95 250h140q0 -200 -133 -339
t-344 -139t-344.5 140t-133.5 338v43h-131l27 104h104z" />
    <glyph glyph-name="afii61289" unicode="&#x2113;" horiz-adv-x="790" 
d="M641 1150q0 83 -37 146.5t-117 63.5q-166 0 -165 -301v-457q178 170 248.5 286t70.5 262zM205 1038q0 215 62 322.5t205 107.5q142 0 214 -91t72 -252t-103 -315t-333 -355v-119q0 -150 56 -195t136 -45t119 17.5t67 40.5l19 -103q-46 -41 -108 -64t-186 -2t-172 123.5
t-48 235.5v16q-92 -69 -131 -108l-64 100l195 154v532z" />
    <glyph glyph-name="afii61352" unicode="&#x2116;" horiz-adv-x="2160" 
d="M1511.5 871q71.5 -78 189.5 -78t191.5 77.5t73.5 190t-72.5 192.5t-192.5 80t-190.5 -80.5t-70.5 -192t71.5 -189.5zM1414.5 1337q107.5 113 286.5 113q178 0 288 -112t110 -277q0 -164 -110.5 -274.5t-287.5 -110.5t-285.5 111.5t-108.5 273.5q0 163 107.5 276z
M1307 485v119h792v-119h-792zM170 0v1434h154l723 -1194v1194h139v-1434h-154l-723 1196v-1196h-139z" />
    <glyph glyph-name="trademark" unicode="&#x2122;" horiz-adv-x="1648" 
d="M786 600v834h134l260 -672l262 672h125v-834h-88v684l-265 -684h-69l-271 698v-698h-88zM82 1352v82h530v-82h-221v-752h-88v752h-221z" />
    <glyph glyph-name="uni2126" unicode="&#x2126;" horiz-adv-x="1474" 
d="M96 830q0 122 44 237t175 254t423 139t467 -185.5t175 -451.5q0 -223 -127 -393t-329 -227v-76h409v-127h-522v283q197 36 313.5 189t116.5 363t-135.5 354t-368 144t-368.5 -144.5t-136 -353.5t116.5 -363t316.5 -189v-283h-523v127h410v78q-203 59 -330 226.5
t-127 398.5z" />
    <glyph glyph-name="estimated" unicode="&#x212e;" horiz-adv-x="1062" 
d="M281 510h497v293q-99 82 -247 82t-250 -90v-285zM543 -23q-215 0 -331 140.5t-116 342.5t119.5 335t309.5 133q191 0 313.5 -115t122.5 -291v-20q0 -19 -3 -37h-677v-348q107 -94 252 -94t240.5 64.5t125.5 160.5h45q-29 -115 -134.5 -193t-266.5 -78z" />
    <glyph glyph-name="arrowleft" unicode="&#x2190;" 
d="M1300 772v-110h-1210l342 -306l-76 -82l-489 443l489 442l76 -82l-342 -305h1210z" />
    <glyph glyph-name="arrowup" unicode="&#x2191;" 
d="M639 0h-111v1210l-305 -342l-82 76l443 490l442 -490l-82 -76l-305 344v-1212z" />
    <glyph glyph-name="arrowright" unicode="&#x2192;" 
d="M-133 662v110h1210l-342 305l76 82l489 -442l-489 -443l-76 82l344 306h-1212z" />
    <glyph glyph-name="arrowdown" unicode="&#x2193;" 
d="M528 1434h113v-1211l303 342l82 -76l-442 -489l-443 489l82 76l305 -342v1211z" />
    <glyph glyph-name="uni2196" unicode="&#x2196;" 
d="M57 1223l660 -31l-6 -113l-457 27l856 -856l-80 -80l-854 856l27 -457l-113 -4z" />
    <glyph glyph-name="uni2197" unicode="&#x2197;" 
d="M57 250l856 856l-456 -27l-4 113l657 31l-31 -658l-112 4l26 459l-856 -858z" />
    <glyph glyph-name="uni2198" unicode="&#x2198;" 
d="M57 1184l80 80l856 -854l-26 454l112 6l31 -659l-657 33l4 112l458 -26z" />
    <glyph glyph-name="uni2199" unicode="&#x2199;" 
d="M57 211l33 659l113 -6l-27 -456l854 856l80 -80l-854 -854l455 26l6 -112z" />
    <glyph glyph-name="partialdiff" unicode="&#x2202;" 
d="M331 185q89 -93 249 -93t251 103.5t107 349.5q-56 119 -151.5 174t-191.5 55q-95 0 -157.5 -26.5t-129 -97.5t-66.5 -222q0 -150 89 -243zM565 897q247 0 373 -201v29q0 500 -130 558t-211 58q-158 0 -249.5 -104t-91.5 -274h-139q0 216 128 358.5t359 142.5
q230 0 348.5 -174.5t118.5 -571.5q0 -398 -113.5 -573.5t-357.5 -175.5t-366.5 132.5t-122.5 326.5t127 331.5t327 137.5z" />
    <glyph glyph-name="uni2206" unicode="&#x2206;" horiz-adv-x="1118" 
d="M205 127h708l-354 1087zM14 0l494 1434h104l494 -1434h-1092z" />
    <glyph glyph-name="product" unicode="&#x220f;" horiz-adv-x="1280" 
d="M45 1501v125h1190v-125h-113v-2029h-137v2029h-690v-2029h-137v2029h-113z" />
    <glyph glyph-name="summation" unicode="&#x2211;" 
d="M31 1626h1063v-125h-887l729 -932l-731 -962h889v-135h-1063v131l731 952l-731 952v119z" />
    <glyph glyph-name="minus" unicode="&#x2212;" 
d="M170 526v119h827v-119h-827z" />
    <glyph glyph-name="radical" unicode="&#x221a;" horiz-adv-x="1406" 
d="M8 356v119h342l254 -733l651 1884h146l-746 -2105h-104l-297 835h-246z" />
    <glyph glyph-name="infinity" unicode="&#x221e;" horiz-adv-x="1693" 
d="M915 592q101 -293 343 -293q113 0 186.5 86t73.5 207t-73.5 207t-190.5 86q-238 0 -339 -293zM249.5 385q73.5 -86 186.5 -86q242 0 342 293q-51 145 -137 219t-202 74t-189.5 -86t-73.5 -207t73.5 -207zM444 180q-178 0 -286.5 120.5t-108.5 289t107 292.5t288 124
q260 0 402 -275q142 275 403 275q180 0 288 -122t108 -293.5t-109 -291t-287 -119.5q-261 0 -403 273q-142 -273 -402 -273z" />
    <glyph glyph-name="integral" unicode="&#x222b;" horiz-adv-x="567" 
d="M74 -430q123 0 123 156v1634q0 141 58 203.5t146 62.5t146 -24v-115q-57 22 -94 22q-125 0 -125 -155v-1635q0 -141 -57.5 -203.5t-147.5 -62.5t-146 25v114q57 -22 97 -22z" />
    <glyph glyph-name="approxequal" unicode="&#x2248;" 
d="M346 653q80 0 201 -50t170 -69.5t94 -19.5q112 0 223 111v-146q-96 -108 -223 -108q-53 0 -108.5 20.5t-163.5 69.5t-184 49q-75 0 -128 -34t-94 -75v150q84 102 213 102z" />
    <glyph glyph-name="notequal" unicode="&#x2260;" 
d="M170 350v119h272l111 223h-383v121h438l115 242h145l-114 -242h243v-121h-299l-110 -223h409v-119h-460l-117 -244h-146l117 244h-221z" />
    <glyph glyph-name="lessequal" unicode="&#x2264;" 
d="M180 831v99l807 305v-125l-622 -229l622 -232v-125zM180 100v119h807v-119h-807z" />
    <glyph glyph-name="greaterequal" unicode="&#x2265;" 
d="M180 524v125l625 232l-625 229v125l807 -305v-99zM180 100v119h807v-119h-807z" />
    <glyph glyph-name="lozenge" unicode="&#x25ca;" horiz-adv-x="952" 
d="M150 811l327 -668l328 668q-65 125 -163.5 334.5t-164.5 337.5zM10 811l408 815h121l403 -815l-403 -811h-121z" />
    <glyph glyph-name="uniE000" unicode="&#xe000;" horiz-adv-x="911" 
d="M0 0v911h911v-911h-911z" />
    <glyph glyph-name="fi" unicode="&#xfb01;" horiz-adv-x="1202" 
d="M879 0v907h131v-907h-131zM827 1262q0 49 34 83.5t83 34.5t84 -34.5t35 -83.5t-35 -83t-84 -34t-83 34t-34 83zM433.5 1288q-48.5 -39 -48.5 -166v-215h283v-114h-283v-793h-133v793h-205v114h205v203q0 206 83.5 271t184.5 65q100 0 148 -23v-114q-45 18 -116 18
q-70 0 -118.5 -39z" />
    <glyph glyph-name="fl" unicode="&#xfb02;" horiz-adv-x="1157" 
d="M856 0v1434h131v-1434h-131zM433.5 1288q-48.5 -39 -48.5 -166v-215h283v-114h-283v-793h-133v793h-205v114h205v203q0 206 83.5 271t184.5 65q100 0 148 -23v-114q-45 18 -116 18q-70 0 -118.5 -39z" />
    <glyph glyph-name="apple" horiz-adv-x="1482" 
d="M994 694q111 0 188 94q-18 41 -48 69t-59 38q29 -29 29 -75t-30 -74.5t-75 -28.5t-74.5 29.5t-29.5 75.5t31 71q-81 -28 -109 -68q26 -68 77.5 -99.5t99.5 -31.5zM1000 377q-10 0 -37 8t-31 10q22 35 22 62q0 50 -15 89.5t-40 39.5q-8 0 -17.5 -6.5t-9.5 -17.5t1 -12
t13 -16t13 -55q0 -39 -14 -65q-35 16 -66 30.5t-78 14.5t-79.5 -14.5t-63.5 -30.5q-14 26 -14 66t20 65q6 2 6 14q0 27 -26 27q-39 0 -47.5 -53.5t-8.5 -79.5t19 -58q-45 -18 -96 -18q12 -59 46 -103q83 -106 261 -106q104 0 160.5 32.5t78 71.5t17.5 72t-14 33zM588 822
q0 -46 -30 -75.5t-73 -29.5t-74.5 27.5t-31.5 76.5t27 72q-74 -25 -105 -105q70 -94 182 -94q81 0 142 66q25 29 39 65q-39 54 -117 78q41 -35 41 -81zM1359 854q42 0 42 -177t-35.5 -177t-48.5 26q-46 -202 -167 -364t-406 -162q-286 0 -391 137t-137 228.5t-50 164.5
q-15 -30 -37 -30q-47 0 -47 177t41 177q13 0 31.5 -23.5t22.5 -23.5q3 0 5 46t15.5 115.5t45 151.5t94 151.5t160 116t244.5 46.5t244.5 -46.5t160 -116t94.5 -151.5t45 -151.5t15.5 -115.5t5.5 -46q5 0 22.5 23.5t30.5 23.5z" />
    <glyph glyph-name="commaaccent" horiz-adv-x="446" 
d="M115 94q0 41 27.5 70t74.5 29t86 -39.5t39 -139.5t-58.5 -149t-158.5 -49v61q94 0 117 66q13 37 10 69q-18 -14 -51 -14t-59.5 27.5t-26.5 68.5z" />
    <glyph glyph-name="commaturn" horiz-adv-x="446" 
d="M115 1426q0 100 58 149t159 49v-61q-92 -1 -114 -59q-16 -42 -13 -74q14 12 49 12t61.5 -27.5t26.5 -67.5t-27.5 -70t-74.5 -30t-86 39.5t-39 139.5z" />
    </font>
</defs>
</svg>
