<?xml version="1.0" standalone="no"?>
<!DOCTYPE svg PUBLIC "-//W3C//DTD SVG 1.1//EN" "http://www.w3.org/Graphics/SVG/1.1/DTD/svg11.dtd" >
<svg xmlns="http://www.w3.org/2000/svg">
<metadata>
Created by FontPrep 20130207 at Thu Jun 16 14:00:49 2016
 By Nick Villapiano
Copyright (c) 2011 by Grilli Type. All rights reserved.
</metadata>
<defs>
<font id="2fdb4dd88844746d0580a0606b27dcaa" horiz-adv-x='1024' >
  <font-face 
    font-family="GTWalsheim-BoldOblique"
    font-weight="600"
    font-style="oblique"
    font-stretch="normal"
    units-per-em="2048"
    panose-1="2 0 5 3 2 0 0 2 0 3"
    ascent="1593"
    descent="-455"
    x-height="987"
    cap-height="1434"
    bbox="-307 -580 2647.6 2040"
    underline-thickness="102"
    underline-position="-102"
    unicode-range="U+000D-FB02"
  />
<missing-glyph horiz-adv-x="1452" 
d="M920 762q52 -68 129 -68q117 0 200 94q-30 86 -96 109q23 -27 23 -72t-34 -77t-79 -31t-71 27t-27 54q0 63 39 95q-83 -27 -115 -68q11 -37 31 -63zM758 168q106 0 164 30t84 70q26 39 27 72t-7 36t-22 5t-46 14q31 46 31 74q0 52 -12 85q-12 32 -33 32q-8 0 -18 -6
t-11 -19q1 -12 11 -23t10 -52t-23 -72q-33 16 -63 30t-76 15q-47 -1 -81 -15t-66 -30q-9 16 -9 58t18 58q18 17 17 31q0 25 -22 25q-27 0 -49 -48q-21 -48 -21 -86q0 -37 12 -57q-52 -18 -98 -18q8 -113 122 -177q55 -32 161 -32zM369 788q63 -94 163 -94t158 66
q27 29 45 65q-30 52 -108 78q32 -27 32 -75q-1 -48 -35 -80t-76 -31t-70 25t-27 72q0 48 28 75q-46 -15 -74 -47q-28 -33 -36 -54zM168 500q-35 0 -35 121t35 205q12 28 27 28t30 -24t23 -23q2 0 9 46q7 45 27 115q56 190 170 304q162 162 423 162q259 0 387 -162
q91 -118 108 -304q6 -70 3 -115q-3 -46 0 -46q8 -1 25 23q17 23 34 24q28 0 28 -123t-38 -203q-14 -28 -32 -28q-20 0 -34 28q-104 -304 -282 -428q-143 -100 -327 -100t-281 56q-96 56 -152 136q-56 82 -78 174t-31 164q-15 -30 -39 -30z" />
    <glyph glyph-name=".notdef" horiz-adv-x="1452" 
d="M920 762q52 -68 129 -68q117 0 200 94q-30 86 -96 109q23 -27 23 -72t-34 -77t-79 -31t-71 27t-27 54q0 63 39 95q-83 -27 -115 -68q11 -37 31 -63zM758 168q106 0 164 30t84 70q26 39 27 72t-7 36t-22 5t-46 14q31 46 31 74q0 52 -12 85q-12 32 -33 32q-8 0 -18 -6
t-11 -19q1 -12 11 -23t10 -52t-23 -72q-33 16 -63 30t-76 15q-47 -1 -81 -15t-66 -30q-9 16 -9 58t18 58q18 17 17 31q0 25 -22 25q-27 0 -49 -48q-21 -48 -21 -86q0 -37 12 -57q-52 -18 -98 -18q8 -113 122 -177q55 -32 161 -32zM369 788q63 -94 163 -94t158 66
q27 29 45 65q-30 52 -108 78q32 -27 32 -75q-1 -48 -35 -80t-76 -31t-70 25t-27 72q0 48 28 75q-46 -15 -74 -47q-28 -33 -36 -54zM168 500q-35 0 -35 121t35 205q12 28 27 28t30 -24t23 -23q2 0 9 46q7 45 27 115q56 190 170 304q162 162 423 162q259 0 387 -162
q91 -118 108 -304q6 -70 3 -115q-3 -46 0 -46q8 -1 25 23q17 23 34 24q28 0 28 -123t-38 -203q-14 -28 -32 -28q-20 0 -34 28q-104 -304 -282 -428q-143 -100 -327 -100t-281 56q-96 56 -152 136q-56 82 -78 174t-31 164q-15 -30 -39 -30z" />
    <glyph glyph-name=".null" horiz-adv-x="0" 
 />
    <glyph glyph-name=".null" horiz-adv-x="0" 
 />
    <glyph glyph-name="nonmarkingreturn" unicode="&#xd;" horiz-adv-x="512" 
 />
    <glyph glyph-name="space" unicode=" " horiz-adv-x="497" 
 />
    <glyph glyph-name="exclam" unicode="!" horiz-adv-x="692" 
d="M229 496l101 938h336l-101 -938h-336zM152 142q0 112 69.5 178.5t156.5 66.5t144.5 -55t57.5 -141t-71.5 -155t-162.5 -69q-90 0 -142 56.5t-52 118.5z" />
    <glyph glyph-name="quotedbl" unicode="&#x22;" horiz-adv-x="856" 
d="M618 1200l27 256h264l-26 -256l-101 -315h-129zM227 1200l27 256h262l-27 -256l-98 -315h-131z" />
    <glyph glyph-name="numbersign" unicode="#" horiz-adv-x="1208" 
d="M551 590h211l61 254h-211zM92 369l23 221h207l61 254h-180l24 221h211l90 369h230l-90 -369h211l90 369h227l-90 -369h164l-25 -221h-194l-62 -254h168l-22 -221h-199l-90 -369h-228l89 369h-209l-92 -369h-228l90 369h-176z" />
    <glyph glyph-name="dollar" unicode="$" horiz-adv-x="1341" 
d="M708 227q96 0 156 53.5t60 131.5q0 98 -81 133t-149 61q-204 79 -308.5 163t-104.5 253t107.5 282t289.5 150l24 229h304l-25 -229q165 -38 246 -159.5t65 -280.5h-331q10 96 -32 151.5t-128 55.5q-122 0 -155.5 -59.5t-33.5 -111.5q0 -95 187 -165q92 -35 175 -70
t182 -109.5t99 -251.5t-118 -308t-310 -166l-24 -230h-303l24 227q-174 36 -269 167t-75 331h332q-12 -117 44 -182.5t152 -65.5z" />
    <glyph glyph-name="percent" unicode="%" horiz-adv-x="1961" 
d="M1535 160q46 0 76.5 31.5t35.5 74.5l26 256q4 43 -19.5 75t-69.5 32t-74.5 -32t-32.5 -75l-27 -256q-4 -43 17.5 -74.5t67.5 -31.5zM1825.5 724q78.5 -83 66.5 -202l-26 -256q-13 -121 -110.5 -202.5t-240.5 -81.5q-144 0 -220.5 81.5t-63.5 202.5l26 256
q12 118 106.5 201.5t239 83.5t223 -83zM457 0l981 1544l204 -108l-980 -1545zM525 805q46 0 77 31.5t35 74.5l27 256q4 43 -20 75t-70 32t-74.5 -32t-32.5 -75l-27 -256q-4 -43 17.5 -74.5t67.5 -31.5zM816 1369q79 -83 67 -202l-27 -256q-13 -120 -110.5 -202t-241.5 -82
t-219.5 83t-63.5 201l27 256q13 119 106.5 202t238 83t223.5 -83z" />
    <glyph glyph-name="ampersand" unicode="&#x26;" horiz-adv-x="1296" 
d="M397 745q-182 84 -182 288t161 317.5t396 113.5q236 0 349 -127.5t96 -330.5h-332q9 102 -16 140t-57 53t-100 15t-118.5 -44t-50.5 -124t39 -123.5t147 -43.5l-27 -256q-124 0 -183.5 -59.5t-59.5 -149.5q0 -131 73.5 -154.5t108.5 -23.5q88 0 157.5 61t84.5 176h-123
l26 258h543l-26 -258h-95q-24 -229 -188 -366.5t-385 -137.5q-222 0 -367 107.5t-145 298.5q0 250 274 370z" />
    <glyph glyph-name="quotesingle" unicode="'" horiz-adv-x="458" 
d="M225 1200l27 256h262l-27 -256l-98 -315h-131z" />
    <glyph glyph-name="parenleft" unicode="(" horiz-adv-x="817" 
d="M166 92l96 930q25 239 204.5 402t440.5 163l-28 -282q-120 0 -200.5 -82.5t-92.5 -200.5l-99 -930q-13 -120 51.5 -201t182.5 -81l-29 -283q-262 0 -406.5 162.5t-119.5 402.5z" />
    <glyph glyph-name="parenright" unicode=")" horiz-adv-x="817" 
d="M25 -473l30 283q122 0 202 81.5t93 200.5l99 930q12 117 -52.5 200t-185.5 83l31 282q264 0 408.5 -162.5t119.5 -402.5l-98 -930q-25 -239 -204.5 -402t-442.5 -163z" />
    <glyph glyph-name="asterisk" unicode="*" horiz-adv-x="954" 
d="M178 1102l76 170l260 -92l31 288h180l-35 -288l281 92l39 -170l-277 -86l144 -225l-158 -107l-144 238l-192 -238l-137 107l192 225z" />
    <glyph glyph-name="plus" unicode="+" 
d="M238 457l26 252h303l33 311h268l-32 -311h303l-27 -252h-303l-33 -312h-268l33 312h-303z" />
    <glyph glyph-name="comma" unicode="," horiz-adv-x="632" 
d="M272 -18q-64 0 -111.5 53t-47.5 115q0 111 68.5 176t161.5 65q202 0 202 -258q0 -209 -127 -319.5t-344 -110.5l14 127q168 0 213 66.5t51 101.5q-16 -16 -80 -16z" />
    <glyph glyph-name="hyphen" unicode="-" horiz-adv-x="649" 
d="M117 483l26 250h519l-27 -250h-518z" />
    <glyph glyph-name="period" unicode="." horiz-adv-x="618" 
d="M121 152q0 106 66.5 172.5t155.5 66.5t141.5 -53.5t52.5 -115.5q0 -106 -66.5 -173t-156.5 -67t-141.5 54t-51.5 116z" />
    <glyph glyph-name="slash" unicode="/" horiz-adv-x="1005" 
d="M12 -23l895 1672l279 -125l-893 -1671z" />
    <glyph glyph-name="zero" unicode="0" horiz-adv-x="1261" 
d="M677.5 250q71.5 0 139.5 64.5t80 166.5l49 471q10 94 -41 163t-150 69t-165 -68.5t-74 -163.5l-49 -471q-13 -155 63 -193t147.5 -38zM1164 1315q134 -149 114 -363l-49 -471q-20 -207 -188.5 -359.5t-413.5 -152.5t-378.5 149.5t-113.5 362.5l49 471q20 212 188.5 362
t413 150t378.5 -149z" />
    <glyph glyph-name="one" unicode="1" horiz-adv-x="829" 
d="M160 948l24 234q200 0 277.5 58.5t89.5 193.5h293l-152 -1434h-338l101 948h-295z" />
    <glyph glyph-name="two" unicode="2" horiz-adv-x="1181" 
d="M885 1071q0 143 -150 143q-78 0 -135 -48t-68 -160h-329q20 200 168 329t366 129t345.5 -97.5t127.5 -283.5q0 -256 -178 -368.5t-255 -158.5q-163 -97 -215 -151t-60 -137h614l-29 -268h-995q33 322 125 450t167 184t154 101t139 79t134 93.5t74 163.5z" />
    <glyph glyph-name="three" unicode="3" horiz-adv-x="1230" 
d="M638 236q97 0 154.5 63t57.5 145t-43 130.5t-150 48.5h-129l27 256h129q209 0 209 186q0 82 -40 115.5t-127 33.5q-162 0 -185 -208h-332q21 196 162.5 327t364.5 131t356 -95t133 -271q0 -129 -71 -222.5t-177 -130.5q86 -35 143.5 -111.5t57.5 -192.5
q0 -217 -168 -344.5t-413 -127.5t-375.5 141t-104.5 371h332q-12 -117 40 -181t149 -64z" />
    <glyph glyph-name="four" unicode="4" horiz-adv-x="1251" 
d="M158 395l108 1039h332l-80 -758h242l43 395h330l-43 -395h174l-29 -281h-174l-41 -395h-330l41 395h-573z" />
    <glyph glyph-name="five" unicode="5" horiz-adv-x="1300" 
d="M537 856q101 131 320 131q191 0 298 -131.5t107 -312.5q0 -239 -169.5 -406.5t-429.5 -167.5q-259 0 -391.5 150.5t-111.5 367.5h321q-13 -163 68.5 -203t135.5 -40q108 0 180.5 79t72.5 181t-52 166.5t-155 64.5q-135 0 -217 -131h-309l88 830h969l-27 -258h-664z" />
    <glyph glyph-name="six" unicode="6" horiz-adv-x="1228" 
d="M436 448q0 -74 52.5 -137t155.5 -63t176 79.5t73 181.5q0 101 -53.5 163.5t-156.5 62.5t-175 -79t-72 -208zM1214 537q0 -233 -168 -399.5t-418 -166.5t-382.5 134.5t-132.5 328.5t123 354l481 646h373l-332 -430q209 0 332.5 -136t123.5 -331z" />
    <glyph glyph-name="seven" unicode="7" horiz-adv-x="1087" 
d="M137 0l619 1155h-563l30 279h1030l-761 -1434h-355z" />
    <glyph glyph-name="eight" unicode="8" horiz-adv-x="1261" 
d="M551 1006q0 -52 43 -100t130 -48t146.5 57t59.5 130q0 74 -43 121.5t-129 47.5q-139 0 -173 -78t-34 -130zM457 384q0 -58 51 -111.5t153 -53.5t168 64t66 143q0 80 -50 134t-154 54t-169 -64.5t-65 -165.5zM212 608.5q79 104.5 191 139.5q-80 33 -122.5 108.5
t-42.5 165.5q0 184 151 313t383 129t354.5 -107t122.5 -267q0 -113 -62.5 -208.5t-166.5 -133.5q86 -27 140 -113.5t54 -186.5q0 -199 -160 -339t-408 -140t-380.5 114.5t-132.5 267.5t79 257.5z" />
    <glyph glyph-name="nine" unicode="9" horiz-adv-x="1228" 
d="M487 897q0 -74 53.5 -136.5t157.5 -62.5t175 79t71 180q0 102 -52.5 165.5t-156.5 63.5t-176 -78.5t-72 -210.5zM166 906q0 104 43 206t168.5 226t375.5 124t382.5 -134.5t132.5 -326.5t-123 -356l-481 -645h-373l332 430q-210 0 -333.5 136.5t-123.5 339.5z" />
    <glyph glyph-name="colon" unicode=":" horiz-adv-x="620" 
d="M190 808q0 106 67 173.5t156 67.5t141 -54.5t52 -116.5q0 -106 -66.5 -172.5t-155.5 -66.5t-141.5 53.5t-52.5 115.5zM121 152q0 108 68 173.5t156 65.5q87 0 140.5 -53.5t53.5 -115.5q0 -108 -68 -174t-157 -66t-141 54t-52 116z" />
    <glyph glyph-name="semicolon" unicode=";" horiz-adv-x="632" 
d="M190 808q0 106 67 173.5t156 67.5t141 -54.5t52 -116.5q0 -106 -66.5 -172.5t-155.5 -66.5t-141.5 53.5t-52.5 115.5zM280 -18q-64 0 -111.5 53t-47.5 115q0 108 66.5 174.5t161.5 66.5q204 0 204 -256q0 -209 -128 -320.5t-343 -111.5l14 127q167 0 211.5 66.5
t52.5 101.5q-16 -16 -80 -16z" />
    <glyph glyph-name="less" unicode="&#x3c;" 
d="M133 459l27 246l1112 362l-29 -283l-686 -202l643 -203l-31 -285z" />
    <glyph glyph-name="equal" unicode="=" 
d="M258 641l27 250h874l-26 -250h-875zM219 270l27 250h874l-26 -250h-875z" />
    <glyph glyph-name="greater" unicode="&#x3e;" 
d="M109 94l30 285l682 203l-641 202l31 283l1034 -362l-24 -246z" />
    <glyph glyph-name="question" unicode="?" horiz-adv-x="1110" 
d="M559 387q90 0 144.5 -56.5t54.5 -118.5q0 -105 -70 -175t-161 -70t-144 56.5t-53 143.5t69.5 153.5t159.5 66.5zM827 1069q1 145 -157 145q-72 0 -128.5 -48t-68.5 -160h-328q21 201 168 329.5t369 128.5q209 0 340 -96.5t131 -275.5q0 -144 -69.5 -226t-113.5 -114.5
t-82 -59.5q-78 -56 -111.5 -108.5t-41.5 -137.5h-327q16 145 61.5 223.5t150.5 146.5q105 69 156 122t51 131z" />
    <glyph glyph-name="at" unicode="@" horiz-adv-x="1783" 
d="M721 422q0 -62 46 -118t136 -56t154.5 68.5t64.5 156.5t-49 143.5t-138 55.5t-151.5 -70t-62.5 -180zM1589 -242q-289 -155 -690 -155q-186 0 -344 63.5t-262.5 171t-155.5 249.5t-51 312t64.5 338t188.5 297t305 206t381 77q384 0 599 -185t215 -540
q0 -282 -130.5 -452.5t-334.5 -170.5q-123 0 -192 60.5t-92 150.5q-35 -49 -105 -92t-156 -43q-162 0 -260 109.5t-98 281.5q0 171 131.5 304.5t300.5 133.5q94 0 157.5 -39.5t88.5 -93.5l10 115h240l-51 -483q-19 -195 75 -195q74 0 125 110.5t51 265.5q0 289 -151.5 419.5
t-409.5 130.5q-347 0 -530.5 -204.5t-183.5 -479.5t160 -440.5t468 -165.5q199 0 340.5 45t212.5 82z" />
    <glyph glyph-name="A" unicode="A" horiz-adv-x="1351" 
d="M543 434h348l-109 590zM8 0l664 1434h305l366 -1434h-360l-37 174h-510l-74 -174h-354z" />
    <glyph glyph-name="B" unicode="B" horiz-adv-x="1296" 
d="M748 850q119 0 168 59.5t49 128.5q0 99 -62.5 125.5t-120.5 26.5h-198l-35 -340h199zM692 254q118 0 168.5 61t50.5 131q0 105 -62.5 132.5t-117.5 27.5h-209l-37 -352h207zM874 1434q239 0 331.5 -109.5t92.5 -254.5t-81.5 -233t-180.5 -112q75 -15 142 -85.5t67 -211.5
t-72.5 -234.5t-173 -143.5t-264.5 -50h-606l152 1434h593z" />
    <glyph glyph-name="C" unicode="C" horiz-adv-x="1613" 
d="M137 656q0 148 58.5 296t168 263.5t266 185t334.5 69.5q324 0 498 -166.5t178 -426.5h-346q-8 130 -95.5 212t-242.5 82q-214 0 -346.5 -150t-132.5 -339t108 -304.5t267 -115.5t259.5 73t141.5 179h353q-70 -239 -277 -395t-511 -156q-305 0 -493 195.5t-188 497.5z" />
    <glyph glyph-name="D" unicode="D" horiz-adv-x="1474" 
d="M678 287q210 0 340.5 142.5t130.5 316.5t-102.5 287.5t-278.5 113.5h-178l-90 -860h178zM815 1434q316 0 495 -191.5t179 -462.5q0 -147 -57.5 -287.5t-164 -250t-259 -176t-344.5 -66.5h-527l152 1434h526z" />
    <glyph glyph-name="E" unicode="E" horiz-adv-x="1136" 
d="M137 0l152 1434h874l-28 -267h-543l-35 -325h543l-27 -260h-543l-32 -316h542l-28 -266h-875z" />
    <glyph glyph-name="F" unicode="F" horiz-adv-x="1126" 
d="M137 0l152 1434h874l-30 -279h-543l-41 -387h543l-29 -272h-543l-51 -496h-332z" />
    <glyph glyph-name="G" unicode="G" horiz-adv-x="1710" 
d="M135 648q0 148 60.5 300t169 267.5t262 185t318.5 69.5t337 -59.5t259 -248.5q40 -87 40 -184v-9h-354q-9 88 -85 151.5t-193 63.5q-215 0 -343.5 -157t-128.5 -352t99.5 -313t287.5 -118q150 0 247.5 76t127.5 190h-254l27 248h743l-26 -248h-148q-68 -251 -269.5 -399
t-486.5 -148q-330 0 -510 192.5t-180 492.5z" />
    <glyph glyph-name="H" unicode="H" horiz-adv-x="1431" 
d="M137 0l152 1434h332l-62 -580h496l61 580h330l-152 -1434h-329l59 569h-496l-59 -569h-332z" />
    <glyph glyph-name="I" unicode="I" horiz-adv-x="610" 
d="M137 0l152 1434h336l-152 -1434h-336z" />
    <glyph glyph-name="J" unicode="J" horiz-adv-x="1193" 
d="M406 455q0 -79 36 -142t130 -63q95 0 151.5 64.5t69.5 179.5l98 940h330l-99 -940q-27 -256 -179 -392.5t-402 -136.5t-360 136t-110 316q0 38 5 79h332q-2 -21 -2 -41z" />
    <glyph glyph-name="K" unicode="K" horiz-adv-x="1349" 
d="M137 0l152 1434h332l-66 -609l528 609h400l-643 -717l491 -717h-399l-400 606l-63 -606h-332z" />
    <glyph glyph-name="L" unicode="L" horiz-adv-x="927" 
d="M137 0l152 1434h332l-121 -1147h407l-30 -287h-740z" />
    <glyph glyph-name="M" unicode="M" horiz-adv-x="1796" 
d="M137 0l152 1434h383l276 -998l486 998h376l-151 -1434h-324l95 889l-404 -889h-246l-225 889l-94 -889h-324z" />
    <glyph glyph-name="N" unicode="N" horiz-adv-x="1468" 
d="M137 0l152 1434h346l420 -934l98 934h330l-152 -1434h-346l-420 922l-96 -922h-332z" />
    <glyph glyph-name="O" unicode="O" horiz-adv-x="1648" 
d="M479 678q0 -179 102.5 -297.5t288.5 -118.5t320.5 150.5t134.5 335.5t-101 304t-291 119t-288 -112.5t-132 -202.5t-34 -178zM137 658q0 148 60.5 296t170 262.5t263 184t331.5 69.5q331 0 516 -196t185 -486q0 -160 -60.5 -308t-170 -264t-263.5 -184.5t-333 -68.5
t-307 56.5t-216 149.5t-132 217t-44 272z" />
    <glyph glyph-name="P" unicode="P" horiz-adv-x="1300" 
d="M766 668q112 0 185 82t73 183t-56 165.5t-149 64.5h-227l-53 -495h227zM889 1434q214 0 341.5 -137t127.5 -351t-165.5 -381.5t-414.5 -167.5h-268l-41 -397h-332l152 1434h600z" />
    <glyph glyph-name="Q" unicode="Q" horiz-adv-x="1648" 
d="M479 678q0 -179 102.5 -297.5t288.5 -118.5t320.5 150.5t134.5 335.5t-101 304t-291 119t-288 -112.5t-132 -202.5t-34 -178zM137 645q0 160 60.5 308.5t170 263t264 184t332.5 69.5q335 0 517 -197.5t182 -481.5q0 -244 -134.5 -448t-359.5 -300l105 -166l-305 -147
l-148 233q-319 0 -501.5 199.5t-182.5 482.5z" />
    <glyph glyph-name="R" unicode="R" horiz-adv-x="1339" 
d="M766 668q112 0 185 82t73 183t-56 165.5t-149 64.5h-227l-53 -495h227zM891 1434q214 0 341.5 -137t127.5 -334q0 -255 -129 -365.5t-207 -144.5l240 -453h-385l-213 397h-156l-41 -397h-332l152 1434h602z" />
    <glyph glyph-name="S" unicode="S" horiz-adv-x="1241" 
d="M459 436q0 -90 52 -150q53 -60 147 -60t153 52t59 141t-79 125t-147 62t-242.5 101t-174.5 315q0 211 161.5 329.5t399.5 118.5t346 -122.5t108 -279.5q0 -27 -3 -54h-332q2 19 2 37q1 71 -35 121t-118 50t-138.5 -43t-56.5 -111t46.5 -108t140.5 -75t177 -71t181 -111.5
t98 -253.5q0 -218 -166.5 -352t-413.5 -134t-372.5 125.5t-125.5 319.5q0 32 3 67h332q-2 -20 -2 -39z" />
    <glyph glyph-name="T" unicode="T" horiz-adv-x="1042" 
d="M152 1147l30 287h981l-30 -287h-326l-121 -1147h-332l121 1147h-323z" />
    <glyph glyph-name="U" unicode="U" horiz-adv-x="1345" 
d="M496 452q0 -24 10 -61t35.5 -69.5t65.5 -52t114.5 -19.5t145 68.5t83.5 173.5l99 942h331l-98 -945q-24 -226 -193 -376t-421 -150t-390 153q-115 126 -115 311q0 30 3 62l98 945h332l-98 -942q-2 -16 -2 -40z" />
    <glyph glyph-name="V" unicode="V" horiz-adv-x="1318" 
d="M143 1434h355l204 -1012l416 1012h361l-670 -1434h-305z" />
    <glyph glyph-name="W" unicode="W" horiz-adv-x="2119" 
d="M150 1434h350l194 -940l389 940h256l195 -940l389 940h350l-657 -1434h-270l-189 901l-381 -901h-272z" />
    <glyph glyph-name="X" unicode="X" horiz-adv-x="1247" 
d="M8 0l502 717l-350 717h364l201 -463l299 463h367l-502 -717l350 -717h-367l-200 461l-299 -461h-365z" />
    <glyph glyph-name="Y" unicode="Y" horiz-adv-x="1312" 
d="M160 1434h387l246 -564l321 564h367l-863 -1434h-366l321 539z" />
    <glyph glyph-name="Z" unicode="Z" horiz-adv-x="1294" 
d="M35 0l821 1155h-643l31 279h1171l-825 -1155h680l-29 -279h-1206z" />
    <glyph glyph-name="bracketleft" unicode="[" horiz-adv-x="788" 
d="M90 -457l215 2044h529l-29 -272h-215l-158 -1501h215l-29 -271h-528z" />
    <glyph glyph-name="backslash" unicode="\" horiz-adv-x="1005" 
d="M152 1524l305 125l544 -1672l-307 -124z" />
    <glyph glyph-name="bracketright" unicode="]" horiz-adv-x="788" 
d="M76 -457l28 271h215l158 1499h-215l29 274h528l-215 -2044h-528z" />
    <glyph glyph-name="asciicircum" unicode="^" horiz-adv-x="1302" 
d="M152 614l571 922h178l381 -922h-305l-203 555l-323 -555h-299z" />
    <glyph glyph-name="underscore" unicode="_" horiz-adv-x="1193" 
d="M16 -270l21 188h1106l-21 -188h-1106z" />
    <glyph glyph-name="grave" unicode="`" horiz-adv-x="1050" 
d="M305 1292l121 217l539 -262l-121 -217z" />
    <glyph glyph-name="a" unicode="a" horiz-adv-x="1300" 
d="M434 448q0 -74 56.5 -140t161.5 -66t180 81t75 184t-55 170.5t-160 67.5t-181.5 -82t-76.5 -215zM121 452q0 110 42 214t114.5 181t167.5 121t203 44t185.5 -47t110.5 -119l14 141h314l-105 -987h-313l14 139q-43 -68 -130 -116t-189 -48t-179 35t-132.5 97.5t-86 148.5
t-30.5 196z" />
    <glyph glyph-name="b" unicode="b" horiz-adv-x="1304" 
d="M554 307.5q56 -65.5 160 -65.5t180.5 82t76.5 185t-57.5 169.5t-162.5 66.5t-179 -83t-74 -186t56 -168.5zM857 1012q194 0 311.5 -130.5t117.5 -352.5t-154.5 -388t-369.5 -166q-121 0 -197 50.5t-104 113.5l-15 -139h-313l152 1434h313l-63 -588q45 68 132 117t190 49z
" />
    <glyph glyph-name="c" unicode="c" horiz-adv-x="1177" 
d="M117 450q0 102 39 205t158 231t395 128q231 0 355 -128q107 -115 107 -270v-16h-313q-2 63 -42 105.5t-119 42.5q-137 0 -201 -84t-64 -201q0 -158 77 -190.5t145 -32.5q127 0 182 131h313q-37 -174 -184 -286t-372 -112t-350.5 134t-125.5 343z" />
    <glyph glyph-name="d" unicode="d" horiz-adv-x="1300" 
d="M434 448q0 -74 56.5 -140t161.5 -66t180 81t75 184t-55 170.5t-160 67.5t-181.5 -82t-76.5 -215zM121 452q0 110 42 214t114.5 181t167.5 121t203 44t185.5 -47t110.5 -119l62 588h313l-152 -1434h-313l14 139q-43 -68 -130 -116t-189 -48t-179 35t-132.5 97.5t-86 148.5
t-30.5 196z" />
    <glyph glyph-name="e" unicode="e" horiz-adv-x="1181" 
d="M860 627q0 69 -47 117t-137 48t-153.5 -50t-73.5 -144h409q2 15 2 29zM621 199q142 0 194 112h307q-36 -146 -178.5 -242t-357.5 -96t-341 130t-126 354t155.5 390.5t417.5 166.5q220 0 344.5 -122.5t124.5 -324.5q0 -65 -24 -149h-707q-1 -16 -1 -38q0 -182 192 -181z
" />
    <glyph glyph-name="f" unicode="f" horiz-adv-x="778" 
d="M681.5 1192q-37.5 -25 -44.5 -100l-10 -105h231l-24 -233h-230l-80 -754h-313l80 754h-178l24 233h178l9 86q21 234 135.5 308.5t243.5 74.5t202 -26l-24 -226q-50 13 -106 13t-93.5 -25z" />
    <glyph glyph-name="g" unicode="g" horiz-adv-x="1296" 
d="M436 448q0 -74 56.5 -140t160.5 -66t180 80.5t76 184.5q0 103 -55.5 170.5t-160.5 67.5t-181 -82t-76 -215zM389 -76q0 -68 51 -117t155 -49q103 0 176 54.5t85 175.5l16 155q-47 -63 -130 -108t-188 -45q-201 0 -317 126t-116 345t154.5 385t371.5 166q104 0 183 -42
t116 -124l15 141h311l-103 -981q-27 -254 -171 -366.5t-416 -112.5q-418 0 -488 243q-19 61 -19 101t1 53h313z" />
    <glyph glyph-name="h" unicode="h" horiz-adv-x="1222" 
d="M864 1012q175 0 254 -113q42 -59 48 -113q10 -91 -1 -202l-61 -584h-303l53 506q2 26 2 74t-22 98q-30 68 -128 68t-152 -68t-67 -182l-51 -496h-303l152 1434h303l-64 -590q110 168 340 168z" />
    <glyph glyph-name="i" unicode="i" horiz-adv-x="653" 
d="M262 1282q0 105 66 168t151 63q86 0 137.5 -52.5t51.5 -112.5q0 -103 -68 -167.5t-153 -64.5t-135 53t-50 113zM170 0l104 987h314l-105 -987h-313z" />
    <glyph glyph-name="j" unicode="j" horiz-adv-x="659" 
d="M270 1282q0 106 66.5 168.5t152.5 62.5q85 0 136 -52.5t51 -112.5q0 -103 -67 -167.5t-153 -64.5q-85 0 -135.5 53t-50.5 113zM74 -225q39 0 61.5 21.5t28.5 76.5l117 1114h315l-121 -1141q-26 -259 -137 -288t-207 -29t-162 25l25 233q41 -12 80 -12z" />
    <glyph glyph-name="k" unicode="k" horiz-adv-x="1134" 
d="M133 0l152 1434h313l-92 -865l350 418h373l-438 -493l331 -494h-372l-261 414l-43 -414h-313z" />
    <glyph glyph-name="l" unicode="l" horiz-adv-x="579" 
d="M133 0l152 1434h313l-152 -1434h-313z" />
    <glyph glyph-name="m" unicode="m" horiz-adv-x="1798" 
d="M1432 579q0 164 -132 166q-72 0 -124 -53t-68 -196l-51 -496h-303l55 535q3 26 3 70t-22 85q-28 55 -108 55q-123 0 -154.5 -91t-40.5 -165l-51 -489h-303l105 987h303l-17 -143q41 66 117 117t191 51t183 -48.5t93 -129.5q117 178 340 178q188 0 243.5 -104t51.5 -216
q0 -42 -4 -84l-64 -608h-301l56 532q2 25 2 47z" />
    <glyph glyph-name="n" unicode="n" horiz-adv-x="1243" 
d="M879 1012q181 0 262 -113q41 -57 46 -110q8 -88 -1 -203l-62 -586h-313l53 506q2 26 2 74t-22 98q-30 68 -128 68t-152 -68t-66 -182l-52 -496h-313l105 987h313l-16 -143q107 168 344 168z" />
    <glyph glyph-name="o" unicode="o" horiz-adv-x="1226" 
d="M430 448q0 -74 54.5 -140t160.5 -66t182 80.5t76 185.5q0 104 -56 170.5t-161 66.5t-180.5 -81t-75.5 -216zM115 454q0 106 43 209t169.5 227t374.5 124q249 0 382 -135t133 -354t-169 -385.5t-419 -166.5q-249 0 -381.5 135t-132.5 346z" />
    <glyph glyph-name="p" unicode="p" horiz-adv-x="1304" 
d="M552 308.5q56 -66.5 160 -66.5t181.5 80.5t77.5 184.5q0 105 -56.5 171.5t-161.5 66.5t-181 -80.5t-76 -185.5q0 -104 56 -170.5zM857 1012q195 0 312 -132t117 -351t-155 -386.5t-375 -167.5q-110 0 -187 49.5t-108 116.5l-62 -587h-313l152 1433h313l-16 -141
q45 68 132 117t190 49z" />
    <glyph glyph-name="q" unicode="q" horiz-adv-x="1304" 
d="M494.5 308.5q56.5 -66.5 161.5 -66.5t180 81t75 185t-55.5 170.5t-159.5 66.5t-181 -80.5t-77 -184.5q0 -105 56.5 -171.5zM123 450q0 110 42 214t114.5 182t167.5 122t207 44t188 -50.5t106 -115.5l15 141h311l-152 -1433h-311l63 587q-45 -66 -131 -116t-190 -50
t-181 35t-132.5 97.5t-86 147.5t-30.5 195z" />
    <glyph glyph-name="r" unicode="r" horiz-adv-x="854" 
d="M811 717q-133 0 -218 -75t-106 -257l-41 -385h-313l105 987h313l-19 -160q40 71 131.5 124t194.5 53q49 0 88 -17l-31 -285q-58 15 -104 15z" />
    <glyph glyph-name="s" unicode="s" horiz-adv-x="1044" 
d="M718 700q0 109 -116 109q-53 0 -90 -23.5t-37 -58.5t13.5 -51.5t49.5 -33t137 -47.5t154.5 -52t112.5 -65.5t59 -150.5q0 -187 -135 -270.5t-349 -83.5q-213 -1 -315 85t-103 225q0 23 3 47h308q-2 -15 -2 -29q0 -117 143 -117q61 0 100 24t39 62t-14 56t-44 32.5t-77 28
t-111 35.5q-151 51 -215.5 102t-64.5 164q0 158 126 242t338 84q213 0 318 -96q83 -77 81 -204q0 -17 -1 -34h-309q1 11 1 20z" />
    <glyph glyph-name="t" unicode="t" horiz-adv-x="784" 
d="M569 262.5q27 -29.5 98 -29.5t109 7l-26 -240q-169 -29 -315.5 -10t-194.5 148q-27 74 -15 194l45 422h-155l24 233h156l31 293h311l-31 -293h225l-24 -233h-225l-37 -353q-3 -28 -3 -68.5t27 -70z" />
    <glyph glyph-name="u" unicode="u" horiz-adv-x="1243" 
d="M467 -25q-181 0 -265 117q-38 52 -42 104t-4 96t6 109l61 586h312l-54 -506q-8 -107 21 -173q30 -66 128 -66t152 67.5t66 182.5l51 495h313l-102 -987h-313l14 141q-49 -78 -138 -122t-206 -44z" />
    <glyph glyph-name="v" unicode="v" horiz-adv-x="1128" 
d="M100 987h328l174 -620l307 620h328l-551 -987h-250z" />
    <glyph glyph-name="w" unicode="w" horiz-adv-x="1644" 
d="M102 987h324l121 -588l235 588h289l113 -588l243 588h324l-473 -987h-254l-133 629l-270 -629h-254z" />
    <glyph glyph-name="x" unicode="x" horiz-adv-x="1052" 
d="M2 0l393 498l-282 489h362l125 -278l186 278h363l-383 -489l285 -498h-363l-131 287l-192 -287h-363z" />
    <glyph glyph-name="y" unicode="y" horiz-adv-x="1259" 
d="M419 -94q-1 -60 37 -104t139 -44t153.5 53.5t66.5 178.5l19 168q-49 -80 -138.5 -124t-199.5 -44q-190 0 -269 112q-41 56 -45 108t-4 96t6 110l60 571h313l-53 -506q-3 -27 -3 -75t23 -98q29 -66 127 -66t151.5 67.5t65.5 182.5l52 495h313l-103 -981
q-27 -252 -157.5 -365.5t-390.5 -113.5q-390 0 -458 235q-15 48 -15 90t4 72h307q-1 -9 -1 -18z" />
    <glyph glyph-name="z" unicode="z" horiz-adv-x="983" 
d="M37 0l512 721h-410l29 266h893l-510 -721h420l-29 -266h-905z" />
    <glyph glyph-name="braceleft" unicode="{" horiz-adv-x="976" 
d="M799 1587h207l-27 -254h-86q-106 0 -130 -67.5t-26 -98.5l-41 -385q-10 -115 -85 -171t-142 -62q78 -14 134 -67.5t42 -178.5l-35 -342q-15 -106 32.5 -136t88.5 -30h86l-24 -252h-207q-147 0 -230.5 86t-68.5 240l39 367q10 85 -41 129.5t-119 44.5l29 276
q116 0 154 59.5t42 104.5l43 410q15 155 118 241t247 86z" />
    <glyph glyph-name="bar" unicode="|" horiz-adv-x="587" 
d="M102 -334l203 1921h313l-202 -1921h-314z" />
    <glyph glyph-name="braceright" unicode="}" horiz-adv-x="976" 
d="M201 -205q74 0 109.5 45t45.5 121l37 342q23 213 230 246q-119 10 -152 89t-27 144l39 385q5 77 -19 121.5t-102 44.5h-83l26 254h207q144 0 228.5 -86.5t68.5 -240.5l-43 -410q-8 -86 42.5 -125t119.5 -39l-31 -276q-66 0 -125 -41t-72 -133l-36 -367
q-15 -150 -117.5 -238t-249.5 -88h-207l27 252h84z" />
    <glyph glyph-name="asciitilde" unicode="~" horiz-adv-x="1150" 
d="M405 762q95 0 218 -50q122 -50 176.5 -69.5t114.5 -19.5t126 35.5t113 76.5l-25 -246q-111 -120 -266 -120q-66 0 -119 19.5t-112 47.5q-148 71 -239 72q-91 0 -152.5 -31t-126.5 -82l26 246q111 121 266 121z" />
    <glyph glyph-name="nonbreakingspace" unicode="&#xa0;" horiz-adv-x="497" 
 />
    <glyph glyph-name="exclamdown" unicode="&#xa1;" horiz-adv-x="692" 
d="M268 1208q0 109 71.5 175.5t158.5 66.5q86 0 138 -55.5t52 -116.5q0 -107 -69 -174.5t-156 -67.5q-88 0 -141.5 55t-53.5 117zM178 -10l98 932h336l-98 -932h-336z" />
    <glyph glyph-name="cent" unicode="&#xa2;" horiz-adv-x="1241" 
d="M272.5 949.5q114.5 154.5 319.5 203.5l26 238h304l-27 -238q163 -34 240 -142.5t77 -252.5h-313q-2 63 -42 105t-119 42q-138 0 -201.5 -83.5t-63.5 -189.5q0 -235 209 -235q80 0 124 35t71 96h313q-35 -139 -134.5 -241.5t-264.5 -136.5l-25 -234h-303l24 234
q-153 34 -241 158.5t-88 305.5t114.5 335.5z" />
    <glyph glyph-name="sterling" unicode="&#xa3;" horiz-adv-x="1286" 
d="M319 1016q16 189 175.5 318.5t385.5 129.5t354.5 -134t106.5 -343h-331q10 86 -28 141.5t-126 55.5q-184 0 -205 -166l-14 -166h297l-27 -246h-299q-19 -185 -44 -254t-40 -84h645l-28 -268h-1016l25 225q88 88 104 209t22 172h-141l27 246h143q14 154 14 164z" />
    <glyph glyph-name="currency" unicode="&#xa4;" horiz-adv-x="1550" 
d="M635.5 572.5q55.5 -66.5 161.5 -66.5t182 83t76 186t-56.5 169t-162.5 66t-181 -81t-75 -186q0 -104 55.5 -170.5zM266 726q0 161 115 318l-109 121l195 176l117 -133q134 70 290 70t269 -70l145 133l160 -176l-135 -123q55 -93 55 -235q0 -182 -115 -334l107 -121
l-195 -178l-116 131q-124 -67 -281 -67t-272 65l-152 -135l-158 176l136 123q-56 98 -56 259z" />
    <glyph glyph-name="yen" unicode="&#xa5;" horiz-adv-x="1290" 
d="M104 1434h385l250 -564l365 564h385l-569 -807h237l-20 -193h-283l-12 -104h282l-20 -193h-283l-14 -137h-315l14 137h-279l21 193h278l13 104h-279l21 193h225z" />
    <glyph glyph-name="brokenbar" unicode="&#xa6;" horiz-adv-x="917" 
d="M217 766l88 821h313l-88 -821h-313zM102 -334l88 834h314l-88 -834h-314z" />
    <glyph glyph-name="section" unicode="&#xa7;" horiz-adv-x="1177" 
d="M401 561q0 -116 110 -156t169 -57q86 4 152.5 59.5t66.5 134.5t-70 122q-37 23 -93 42t-122 42q-86 -4 -149.5 -53.5t-63.5 -133.5zM903 244q135 -92 135 -268t-148 -292t-363 -116q-214 0 -335.5 117.5t-101.5 314.5h285q-10 -96 38 -152.5t135 -56.5t146.5 44.5
t59.5 114.5q0 71 -53.5 106.5t-139.5 67.5t-164 64.5t-172 101t-94 224.5q0 111 61.5 202t200.5 138q-131 89 -131 267t150 286.5t360 108.5t323 -117.5t97 -298.5h-281q10 92 -36 146t-130 54t-142 -41t-58 -112q0 -70 53 -106.5t130 -64.5t259 -98.5t182 -287.5
q0 -126 -78 -223t-188 -123z" />
    <glyph glyph-name="dieresis" unicode="&#xa8;" horiz-adv-x="1191" 
d="M788 1232q0 99 63 158.5t142 59.5q80 0 127 -49t47 -105q0 -100 -62.5 -159.5t-142.5 -59.5t-127 49.5t-47 105.5zM297 1232q0 99 62 158.5t142 59.5q79 0 127 -50t48 -106q0 -96 -63 -156.5t-142 -60.5q-78 0 -126 49.5t-48 105.5z" />
    <glyph glyph-name="copyright" unicode="&#xa9;" horiz-adv-x="1654" 
d="M602.5 1011q133.5 144 355.5 144q181 0 280 -99t99 -245h-204q-10 70 -57.5 118t-123.5 48q-134 0 -208 -86t-74 -192t59 -174t148 -68q163 0 231 137h209q-36 -132 -158.5 -223.5t-297.5 -91.5q-176 0 -284 114t-108 294t133.5 324zM360 668q0 -221 130.5 -368.5
t357.5 -147.5q260 0 429 186.5t169 435.5q0 212 -130 360t-374 148t-370 -139t-169 -252t-43 -223zM139 658q0 148 60.5 296t170 262.5t264 184t332.5 69.5q331 0 516 -196t185 -486q0 -160 -60.5 -308t-170 -263t-264.5 -184.5t-334 -69.5t-307 56.5t-216 149.5t-132 217
t-44 272z" />
    <glyph glyph-name="ordfeminine" unicode="&#xaa;" horiz-adv-x="1300" 
d="M434 448q0 -74 56.5 -140t161.5 -66t180 81t75 184t-55 170.5t-160 67.5t-181.5 -82t-76.5 -215zM121 452q0 110 42 214t114.5 181t167.5 121t203 44t185.5 -47t110.5 -119l14 141h314l-105 -987h-313l14 139q-43 -68 -130 -116t-189 -48t-179 35t-132.5 97.5t-86 148.5
t-30.5 196z" />
    <glyph glyph-name="guillemotleft" unicode="&#xab;" horiz-adv-x="1048" 
d="M580 514l16 164l475 354l-29 -272l-229 -164l195 -164l-29 -272zM129 514l16 164l476 354l-29 -272l-230 -164l195 -164l-29 -272z" />
    <glyph glyph-name="logicalnot" unicode="&#xac;" 
d="M258 641l27 250h874l-65 -617h-267l39 367h-608z" />
    <glyph glyph-name="softhyphen" unicode="&#xad;" horiz-adv-x="649" 
d="M117 483l26 250h519l-27 -250h-518z" />
    <glyph glyph-name="registered" unicode="&#xae;" horiz-adv-x="1654" 
d="M940 725q59 0 96 43t37 96t-27.5 88t-78.5 35h-133l-27 -262h133zM1016 1147q118 0 190 -77.5t72 -177.5q0 -101 -50 -179t-138 -115l133 -256h-224l-118 225h-90l-25 -225h-197l84 805h363zM360 668q0 -221 130.5 -368.5t357.5 -147.5q260 0 429 186.5t169 435.5
q0 212 -130 360t-374 148t-370 -139t-169 -252t-43 -223zM139 658q0 148 60.5 296t170 262.5t264 184t332.5 69.5q331 0 516 -196t185 -486q0 -160 -60.5 -308t-170 -263t-264.5 -184.5t-334 -69.5t-307 56.5t-216 149.5t-132 217t-44 272z" />
    <glyph glyph-name="macron" unicode="&#xaf;" horiz-adv-x="1062" 
d="M305 1444l25 235h753l-24 -235h-754z" />
    <glyph glyph-name="degree" unicode="&#xb0;" horiz-adv-x="704" 
d="M356 1168q0 -48 31 -79.5t79 -31.5t88 38t40 87t-31 81.5t-79 32.5t-88 -40t-40 -88zM265 1387.5q103 99.5 233 99.5q131 0 210.5 -79.5t79.5 -212.5t-103.5 -232t-233.5 -99q-129 0 -209 80t-80 212t103 231.5z" />
    <glyph glyph-name="plusminus" unicode="&#xb1;" 
d="M268 762l27 250h305l33 313h266l-33 -313h305l-26 -250h-305l-33 -313h-266l32 313h-305zM188 0l27 250h877l-27 -250h-877z" />
    <glyph glyph-name="twosuperior" unicode="&#xb2;" horiz-adv-x="813" 
d="M551 1300q-81 0 -92 -104h-219q13 107 96 181.5t227 74.5q181 0 226 -78t45 -134q0 -98 -63 -163t-140 -108q-135 -77 -156.5 -98t-25.5 -56h335l-18 -170h-588q19 184 78 266.5t172 149.5q37 20 72 38.5t76.5 49t41.5 86.5q0 65 -67 65z" />
    <glyph glyph-name="threesuperior" unicode="&#xb3;" horiz-adv-x="827" 
d="M621 1225q0 75 -70 75q-47 0 -66.5 -28.5t-23.5 -75.5h-219q15 170 126.5 213t181.5 43q138 0 214 -50t76 -139q0 -88 -44 -141t-100 -69q45 -16 79 -59.5t34 -109.5q0 -123 -94 -190t-244 -67t-221.5 80t-56.5 204h219q-12 -119 82 -118q49 0 73.5 32.5t24.5 73.5
q0 78 -88 78h-84l16 162h84q101 0 101 86z" />
    <glyph glyph-name="acute" unicode="&#xb4;" horiz-adv-x="1050" 
d="M248 1247l592 262l75 -217l-591 -262z" />
    <glyph glyph-name="uni00B5" unicode="&#xb5;" 
d="M644 242q97 0 150.5 67.5t65.5 182.5l51 495h316l-105 -987h-313l14 141q-94 -145 -297 -161q-47 0 -84 12l-45 -438h-311l152 1433h309l-53 -510q-10 -104 21.5 -169.5t128.5 -65.5z" />
    <glyph glyph-name="paragraph" unicode="&#xb6;" horiz-adv-x="1390" 
d="M135 1016q0 114 55.5 204.5t174 169t323.5 78.5h744l-25 -219h-115l-166 -1589h-245l166 1589h-181l-166 -1589h-247l100 950q-293 0 -355.5 146t-62.5 260z" />
    <glyph glyph-name="periodcentered" unicode="&#xb7;" horiz-adv-x="606" 
d="M162 604q0 106 66.5 173t155.5 67t141.5 -54t52.5 -116q0 -107 -67.5 -173.5t-155.5 -66.5q-89 0 -141 54t-52 116z" />
    <glyph glyph-name="cedilla" unicode="&#xb8;" horiz-adv-x="968" 
d="M530 -258q0 63 -65 63q-39 0 -59 -32h-134l27 252h160l-15 -138q32 31 92 31t104 -46t44 -104q0 -104 -67.5 -171.5t-170.5 -67.5q-134 0 -172 65.5t-38 124.5h151q8 -61 64 -61q35 0 57 24.5t22 59.5z" />
    <glyph glyph-name="onesuperior" unicode="&#xb9;" horiz-adv-x="610" 
d="M215 1143l16 147q160 0 182.5 54.5t26.5 89.5h189l-84 -789h-221l53 498h-162z" />
    <glyph glyph-name="ordmasculine" unicode="&#xba;" horiz-adv-x="1226" 
d="M430 448q0 -74 54.5 -140t160.5 -66t182 80.5t76 185.5q0 104 -56 170.5t-161 66.5t-180.5 -81t-75.5 -216zM115 454q0 106 43 209t169.5 227t374.5 124q249 0 382 -135t133 -354t-169 -385.5t-419 -166.5q-249 0 -381.5 135t-132.5 346z" />
    <glyph glyph-name="guillemotright" unicode="&#xbb;" horiz-adv-x="1048" 
d="M553 160l29 272l225 164l-191 164l29 272l399 -354l-18 -164zM102 160l29 272l225 164l-190 164l29 272l399 -354l-19 -164z" />
    <glyph glyph-name="onequarter" unicode="&#xbc;" horiz-adv-x="1961" 
d="M1167 205l62 583h219l-43 -403h115l22 205h217l-22 -205h88l-19 -180h-88l-22 -205h-217l22 205h-334zM422 0l983 1544l203 -108l-981 -1545zM297 1143l16 147q160 0 182.5 54.5t26.5 89.5h189l-84 -789h-221l53 498h-162z" />
    <glyph glyph-name="onehalf" unicode="&#xbd;" horiz-adv-x="1961" 
d="M1550 655q-79 0 -90 -104h-219q9 105 93 180.5t229 75.5q184 0 228 -78t44 -134q0 -155 -201 -270q-79 -45 -109 -62t-51.5 -37t-25.5 -56h336l-19 -170h-587q26 255 118.5 324.5t168 111t115.5 70.5t40 82q0 67 -70 67zM436 0l983 1544l203 -108l-981 -1545zM311 1143
l17 147q159 0 181.5 54.5t27.5 89.5h188l-84 -789h-221l53 498h-162z" />
    <glyph glyph-name="threequarters" unicode="&#xbe;" horiz-adv-x="1961" 
d="M1200 205l62 583h219l-43 -403h114l23 205h217l-23 -205h89l-19 -180h-88l-22 -205h-218l23 205h-334zM434 0l983 1544l203 -108l-981 -1545zM670 1225q0 75 -70 75q-47 0 -66.5 -28.5t-23.5 -75.5h-219q14 170 125.5 213t181.5 43q138 0 214.5 -50t76.5 -139
q0 -88 -44 -141t-100 -69q45 -16 79 -59.5t34 -109.5q0 -123 -94 -190t-244 -67t-220.5 79t-57.5 205h219q-12 -119 82 -118q49 0 73.5 32.5t24.5 73.5q0 78 -88 78h-84l16 162h84q101 0 101 86z" />
    <glyph glyph-name="questiondown" unicode="&#xbf;" horiz-adv-x="1110" 
d="M572.5 1400q68.5 70 160.5 70t145.5 -56t53.5 -120q0 -110 -70 -177.5t-160 -67.5q-89 0 -143.5 56.5t-54.5 140.5t68.5 154zM186 580q77 90 183 161q84 61 116.5 113t40.5 135h328q-16 -142 -52 -203t-75 -97.5t-80 -64.5t-74.5 -50.5t-86 -75t-52.5 -130.5
q0 -145 152 -145q78 0 134 48t68 159h328q-20 -200 -167.5 -328.5t-364.5 -128.5q-216 0 -345.5 96.5t-129.5 258.5t77 252z" />
    <glyph glyph-name="Agrave" unicode="&#xc0;" horiz-adv-x="1351" 
d="M557 1772l121 217l539 -263l-123 -217zM543 434h348l-109 590zM8 0l664 1434h305l366 -1434h-360l-37 174h-510l-74 -174h-354z" />
    <glyph glyph-name="Aacute" unicode="&#xc1;" horiz-adv-x="1351" 
d="M543 434h348l-109 590zM524 1706l592 262l78 -217l-594 -262zM8 0l664 1434h305l366 -1434h-360l-37 174h-510l-74 -174h-354z" />
    <glyph glyph-name="Acircumflex" unicode="&#xc2;" horiz-adv-x="1351" 
d="M543 434h348l-109 590zM455 1714l432 322l370 -322l-180 -178l-219 190l-258 -190zM8 0l664 1434h305l366 -1434h-360l-37 174h-510l-74 -174h-354z" />
    <glyph glyph-name="Atilde" unicode="&#xc3;" horiz-adv-x="1351" 
d="M543 434h348l-109 590zM1260 1679q-126 -92 -246 -92q-35 0 -154 26.5t-164 26.5t-143 -43l-84 187q141 78 201 78q59 0 181 -28t168 -28t167 56zM8 0l664 1434h305l366 -1434h-360l-37 174h-510l-74 -174h-354z" />
    <glyph glyph-name="Adieresis" unicode="&#xc4;" horiz-adv-x="1351" 
d="M909 1714q0 97 61.5 160t145.5 63t133 -51.5t49 -109.5q0 -99 -64 -160.5t-147 -61.5q-82 0 -130 51t-48 109zM543 434h348l-109 590zM416 1714q0 98 63.5 160.5t145.5 62.5t132 -51.5t50 -109.5q0 -97 -64 -159.5t-146 -62.5q-83 0 -132 51t-49 109zM8 0l664 1434h305
l366 -1434h-360l-37 174h-510l-74 -174h-354z" />
    <glyph glyph-name="Aring" unicode="&#xc5;" horiz-adv-x="1351" 
d="M768 1756q0 -38 24.5 -61.5t61.5 -23.5t68.5 28.5t31.5 66.5t-24.5 62.5t-63.5 24.5t-68.5 -29.5t-29.5 -67.5zM676.5 1947.5q90.5 88.5 202.5 88.5t185 -73t73 -186t-90.5 -202.5t-205.5 -89.5q-116 0 -185.5 73.5t-69.5 187.5q0 113 90.5 201.5zM543 434h348l-109 590z
M8 0l664 1434h305l366 -1434h-360l-37 174h-510l-74 -174h-354z" />
    <glyph glyph-name="AE" unicode="&#xc6;" horiz-adv-x="1882" 
d="M600 436h320l73 701zM2 0l840 1434h1059l-29 -267h-543l-35 -325h543l-27 -260h-542l-33 -316h543l-29 -266h-875l19 176h-434l-97 -176h-360z" />
    <glyph glyph-name="Ccedilla" unicode="&#xc7;" horiz-adv-x="1613" 
d="M975 -248q0 66 -69 66q-34 0 -58 -35h-133l20 186q-280 27 -439 218.5t-159 457.5q0 158 58.5 306.5t168 264t266 185t334.5 69.5q327 0 499.5 -167t176.5 -426h-346q-8 130 -95.5 212t-242.5 82q-214 0 -346.5 -150t-132.5 -339t108 -304.5t267 -115.5t259.5 73
t141.5 179h353q-63 -222 -257 -377t-454 -170l-8 -67q35 30 95 30t103 -47t43 -103q0 -102 -66 -170.5t-187 -68.5t-158 66.5t-37 124.5h151q9 -62 64 -62q35 0 57.5 23.5t22.5 58.5z" />
    <glyph glyph-name="Egrave" unicode="&#xc8;" horiz-adv-x="1136" 
d="M453 1753l120 217l539 -262l-121 -217zM137 0l152 1434h874l-28 -267h-543l-35 -325h543l-27 -260h-543l-32 -316h542l-28 -266h-875z" />
    <glyph glyph-name="Eacute" unicode="&#xc9;" horiz-adv-x="1136" 
d="M424 1733l592 262l76 -217l-592 -262zM137 0l152 1434h874l-28 -267h-543l-35 -325h543l-27 -260h-543l-32 -316h542l-28 -266h-875z" />
    <glyph glyph-name="Ecircumflex" unicode="&#xca;" horiz-adv-x="1136" 
d="M358 1688l433 321l370 -321l-182 -179l-219 191l-258 -191zM137 0l152 1434h874l-28 -267h-543l-35 -325h543l-27 -260h-543l-32 -316h542l-28 -266h-875z" />
    <glyph glyph-name="Edieresis" unicode="&#xcb;" horiz-adv-x="1136" 
d="M831 1714q0 98 62.5 160.5t145.5 62.5t132.5 -51.5t49.5 -109.5q0 -98 -64.5 -160t-146.5 -62t-130.5 51t-48.5 109zM338 1714q0 98 63.5 160.5t145.5 62.5t132 -51.5t50 -109.5q0 -97 -64 -159.5t-146 -62.5q-83 0 -132 51t-49 109zM137 0l152 1434h874l-28 -267h-543
l-35 -325h543l-27 -260h-543l-32 -316h542l-28 -266h-875z" />
    <glyph glyph-name="Igrave" unicode="&#xcc;" horiz-adv-x="610" 
d="M158 1751l121 217l538 -262l-123 -217zM137 0l152 1434h336l-152 -1434h-336z" />
    <glyph glyph-name="Iacute" unicode="&#xcd;" horiz-adv-x="610" 
d="M154 1706l591 262l76 -217l-594 -262zM137 0l152 1434h336l-152 -1434h-336z" />
    <glyph glyph-name="Icircumflex" unicode="&#xce;" horiz-adv-x="610" 
d="M137 0l152 1434h336l-152 -1434h-336zM84 1688l434 321l369 -321l-182 -179l-218 191l-258 -191z" />
    <glyph glyph-name="Idieresis" unicode="&#xcf;" horiz-adv-x="610" 
d="M563 1714q0 98 63.5 160.5t145.5 62.5t131 -51.5t49 -109.5q0 -98 -62.5 -160t-145.5 -62t-132 51t-49 109zM137 0l152 1434h336l-152 -1434h-336zM72 1714q0 98 62 160.5t146 62.5t132.5 -51.5t48.5 -109.5q0 -97 -64 -159.5t-146 -62.5q-83 0 -131 51t-48 109z" />
    <glyph glyph-name="Eth" unicode="&#xd0;" horiz-adv-x="1474" 
d="M676 287q208 0 340.5 143.5t132.5 316.5q0 174 -102.5 287t-280.5 113h-178l-31 -305h231l-26 -250h-232l-32 -305h178zM813 1434q313 0 493.5 -191t180.5 -461q0 -147 -57.5 -287.5t-165 -251t-259 -177t-341.5 -66.5h-527l62 592h-226l27 250h225l62 592h526z" />
    <glyph glyph-name="Ntilde" unicode="&#xd1;" horiz-adv-x="1468" 
d="M1298 1679q-124 -92 -244 -92q-35 0 -154.5 26.5t-164.5 26.5t-143 -43l-82 189q136 78 198 78t184 -28t167 -28t166 56zM137 0l152 1434h346l420 -934l98 934h330l-152 -1434h-346l-420 922l-96 -922h-332z" />
    <glyph glyph-name="Ograve" unicode="&#xd2;" horiz-adv-x="1648" 
d="M705 1778l120 217l537 -262l-121 -217zM479 678q0 -179 102.5 -297.5t288.5 -118.5t320.5 150.5t134.5 335.5t-101 304t-291 119t-288 -112.5t-132 -202.5t-34 -178zM137 658q0 148 60.5 296t170 262.5t263 184t331.5 69.5q331 0 516 -196t185 -486q0 -160 -60.5 -308
t-170 -264t-263.5 -184.5t-333 -68.5t-307 56.5t-216 149.5t-132 217t-44 272z" />
    <glyph glyph-name="Oacute" unicode="&#xd3;" horiz-adv-x="1648" 
d="M645 1733l594 262l76 -217l-594 -262zM479 678q0 -179 102.5 -297.5t288.5 -118.5t320.5 150.5t134.5 335.5t-101 304t-291 119t-288 -112.5t-132 -202.5t-34 -178zM137 658q0 148 60.5 296t170 262.5t263 184t331.5 69.5q331 0 516 -196t185 -486q0 -160 -60.5 -308
t-170 -264t-263.5 -184.5t-333 -68.5t-307 56.5t-216 149.5t-132 217t-44 272z" />
    <glyph glyph-name="Ocircumflex" unicode="&#xd4;" horiz-adv-x="1648" 
d="M602 1688l436 321l367 -321l-180 -179l-219 191l-258 -191zM479 678q0 -179 102.5 -297.5t288.5 -118.5t320.5 150.5t134.5 335.5t-101 304t-291 119t-288 -112.5t-132 -202.5t-34 -178zM137 658q0 148 60.5 296t170 262.5t263 184t331.5 69.5q331 0 516 -196t185 -486
q0 -160 -60.5 -308t-170 -264t-263.5 -184.5t-333 -68.5t-307 56.5t-216 149.5t-132 217t-44 272z" />
    <glyph glyph-name="Otilde" unicode="&#xd5;" horiz-adv-x="1648" 
d="M610 1784q142 78 201 78t181 -28t165 -28q42 0 170 56l76 -183q-128 -92 -238 -92q-41 0 -161.5 26.5t-165.5 26.5t-144 -43zM479 678q0 -179 102.5 -297.5t288.5 -118.5t320.5 150.5t134.5 335.5t-101 304t-291 119t-288 -112.5t-132 -202.5t-34 -178zM137 658
q0 148 60.5 296t170 262.5t263 184t331.5 69.5q331 0 516 -196t185 -486q0 -160 -60.5 -308t-170 -264t-263.5 -184.5t-333 -68.5t-307 56.5t-216 149.5t-132 217t-44 272z" />
    <glyph glyph-name="Odieresis" unicode="&#xd6;" horiz-adv-x="1648" 
d="M1059 1718q0 97 62 160.5t146 63.5q83 0 132 -51t49 -109q0 -99 -65 -161t-147 -62q-83 0 -130 50.5t-47 108.5zM565 1718q0 98 64 161t145 63q82 0 131 -52t49 -110q0 -98 -62 -159.5t-146 -61.5t-132.5 50.5t-48.5 108.5zM479 678q0 -179 102.5 -297.5t288.5 -118.5
t320.5 150.5t134.5 335.5t-101 304t-291 119t-288 -112.5t-132 -202.5t-34 -178zM137 658q0 148 60.5 296t170 262.5t263 184t331.5 69.5q331 0 516 -196t185 -486q0 -160 -60.5 -308t-170 -264t-263.5 -184.5t-333 -68.5t-307 56.5t-216 149.5t-132 217t-44 272z" />
    <glyph glyph-name="multiply" unicode="&#xd7;" 
d="M262 369l244 219l-193 215l195 178l192 -215l246 221l168 -188l-244 -221l195 -216l-197 -176l-192 213l-246 -219z" />
    <glyph glyph-name="Oslash" unicode="&#xd8;" horiz-adv-x="1648" 
d="M854 262q204 0 337.5 149.5t133.5 329.5t-84 289l-410 -768h23zM479 682q0 -176 80 -281l412 770h-21q-207 0 -305 -112.5t-132 -202.5t-34 -174zM137 645q0 160 59.5 308.5t170 263t266 184t346.5 69.5q78 0 143 -12l90 164l279 -125l-84 -158q187 -139 221.5 -305
t34.5 -248q0 -158 -59.5 -306t-170 -263t-265 -184.5t-345.5 -69.5q-78 0 -147 12l-78 -149l-281 125l76 141q-186 133 -221 302t-35 251z" />
    <glyph glyph-name="Ugrave" unicode="&#xd9;" horiz-adv-x="1345" 
d="M547 1778l121 217l538 -262l-121 -217zM866.5 318.5q70.5 68.5 83.5 173.5l99 942h331l-98 -945q-24 -226 -193 -376t-420.5 -150t-389.5 150.5t-113 375.5l98 945h332l-98 -942q-12 -100 44 -171t155 -71t169.5 68.5z" />
    <glyph glyph-name="Uacute" unicode="&#xda;" horiz-adv-x="1345" 
d="M489 1733l592 262l76 -217l-592 -262zM866.5 318.5q70.5 68.5 83.5 173.5l99 942h331l-98 -945q-24 -226 -193 -376t-420.5 -150t-389.5 150.5t-113 375.5l98 945h332l-98 -942q-12 -100 44 -171t155 -71t169.5 68.5z" />
    <glyph glyph-name="Ucircumflex" unicode="&#xdb;" horiz-adv-x="1345" 
d="M442 1688l432 321l371 -321l-182 -179l-219 191l-258 -191zM866.5 318.5q70.5 68.5 83.5 173.5l99 942h331l-98 -945q-24 -226 -193 -376t-420.5 -150t-389.5 150.5t-113 375.5l98 945h332l-98 -942q-12 -100 44 -171t155 -71t169.5 68.5z" />
    <glyph glyph-name="Udieresis" unicode="&#xdc;" horiz-adv-x="1345" 
d="M903 1714q0 97 61.5 160t145.5 63t133 -51.5t49 -109.5q0 -97 -64 -159.5t-146 -62.5q-83 0 -131 51t-48 109zM410 1714q0 100 63.5 161.5t145.5 61.5t131 -51.5t49 -109.5q0 -96 -62 -159t-146 -63q-83 0 -132 51t-49 109zM866.5 318.5q70.5 68.5 83.5 173.5l99 942h331
l-98 -945q-24 -226 -193 -376t-420.5 -150t-389.5 150.5t-113 375.5l98 945h332l-98 -942q-12 -100 44 -171t155 -71t169.5 68.5z" />
    <glyph glyph-name="Yacute" unicode="&#xdd;" horiz-adv-x="1312" 
d="M588 1726l592 263l75 -215l-591 -263zM160 1434h387l246 -564l321 564h367l-863 -1434h-366l321 539z" />
    <glyph glyph-name="Thorn" unicode="&#xde;" horiz-adv-x="1103" 
d="M573 475q115 0 184.5 76t69.5 178q0 139 -76.5 174t-127.5 35h-91l-49 -463h90zM649 1198q230 0 358 -130t128 -316q0 -102 -40 -199.5t-161.5 -217.5t-386.5 -120h-90l-23 -215h-303l152 1434h303l-27 -236h90z" />
    <glyph glyph-name="germandbls" unicode="&#xdf;" horiz-adv-x="1214" 
d="M633 227q97 0 163 59.5t66 153.5q0 121 -67.5 153t-116.5 32h-60l27 249h55q106 0 156.5 55.5t50.5 134.5t-46 119t-125 40t-132 -59.5t-63 -157.5l-107 -1006h-323l106 1006q17 194 159.5 326t365.5 132t356 -95t133 -273q0 -132 -74 -223t-186 -128q211 -82 211 -323
q0 -204 -148 -326.5t-358 -122.5q-106 0 -182 27l26 244q62 -17 113 -17z" />
    <glyph glyph-name="agrave" unicode="&#xe0;" horiz-adv-x="1300" 
d="M434 448q0 -74 56.5 -140t161.5 -66t180 81t75 184t-55 170.5t-160 67.5t-181.5 -82t-76.5 -215zM383 1305l121 217l538 -262l-120 -218zM121 452q0 110 42 214t114.5 181t167.5 121t203 44t185.5 -47t110.5 -119l14 141h314l-105 -987h-313l14 139q-43 -68 -130 -116
t-189 -48t-179 35t-132.5 97.5t-86 148.5t-30.5 196z" />
    <glyph glyph-name="aacute" unicode="&#xe1;" horiz-adv-x="1300" 
d="M434 448q0 -74 56.5 -140t161.5 -66t180 81t75 184t-55 170.5t-160 67.5t-181.5 -82t-76.5 -215zM336 1260l592 262l78 -217l-592 -263zM121 452q0 110 42 214t114.5 181t167.5 121t203 44t185.5 -47t110.5 -119l14 141h314l-105 -987h-313l14 139q-43 -68 -130 -116
t-189 -48t-179 35t-132.5 97.5t-86 148.5t-30.5 196z" />
    <glyph glyph-name="acircumflex" unicode="&#xe2;" horiz-adv-x="1300" 
d="M434 448q0 -74 56.5 -140t161.5 -66t180 81t75 184t-55 170.5t-160 67.5t-181.5 -82t-76.5 -215zM340 1245l434 322l369 -322l-180 -178l-220 190l-258 -190zM121 452q0 110 42 214t114.5 181t167.5 121t203 44t185.5 -47t110.5 -119l14 141h314l-105 -987h-313l14 139
q-43 -68 -130 -116t-189 -48t-179 35t-132.5 97.5t-86 148.5t-30.5 196z" />
    <glyph glyph-name="atilde" unicode="&#xe3;" horiz-adv-x="1300" 
d="M434 448q0 -74 56.5 -140t161.5 -66t180 81t75 184t-55 170.5t-160 67.5t-181.5 -82t-76.5 -215zM350 1391q140 77 202 77t182 -27.5t162 -27.5t171 55l74 -184q-59 -37 -114 -64.5t-105 -27.5q-73 0 -184 26.5t-157 26.5t-149 -43zM121 452q0 110 42 214t114.5 181
t167.5 121t203 44t185.5 -47t110.5 -119l14 141h314l-105 -987h-313l14 139q-43 -68 -130 -116t-189 -48t-179 35t-132.5 97.5t-86 148.5t-30.5 196z" />
    <glyph glyph-name="adieresis" unicode="&#xe4;" horiz-adv-x="1300" 
d="M803 1260q0 98 62.5 160.5t145.5 62.5t132 -51.5t49 -109.5q0 -98 -64 -160t-147 -62q-82 0 -130 51t-48 109zM434 448q0 -74 56.5 -140t161.5 -66t180 81t75 184t-55 170.5t-160 67.5t-181.5 -82t-76.5 -215zM309 1260q0 100 64 161.5t146 61.5q81 0 130 -51.5
t49 -109.5q0 -99 -63 -160.5t-145 -61.5q-83 0 -132 51t-49 109zM121 452q0 110 42 214t114.5 181t167.5 121t203 44t185.5 -47t110.5 -119l14 141h314l-105 -987h-313l14 139q-43 -68 -130 -116t-189 -48t-179 35t-132.5 97.5t-86 148.5t-30.5 196z" />
    <glyph glyph-name="aring" unicode="&#xe5;" horiz-adv-x="1300" 
d="M688 1327q0 -37 23.5 -60.5t60.5 -23.5t67.5 29.5t30.5 67.5t-22 61.5t-61 23.5t-69 -30.5t-30 -67.5zM592.5 1519.5q90.5 88.5 205.5 88.5t187 -72t72 -185t-92.5 -203.5t-205.5 -90.5q-112 0 -184.5 72.5t-72.5 187.5q0 114 90.5 202.5zM434 448q0 -74 56.5 -140
t161.5 -66t180 81t75 184t-55 170.5t-160 67.5t-181.5 -82t-76.5 -215zM121 452q0 110 42 214t114.5 181t167.5 121t203 44t185.5 -47t110.5 -119l14 141h314l-105 -987h-313l14 139q-43 -68 -130 -116t-189 -48t-179 35t-132.5 97.5t-86 148.5t-30.5 196z" />
    <glyph glyph-name="ae" unicode="&#xe6;" horiz-adv-x="1968" 
d="M1463 793q-89 0 -153.5 -50.5t-74.5 -144.5h407q10 88 -40 141.5t-139 53.5zM490.5 308.5q56.5 -66.5 161.5 -66.5t180 81t75 186t-56 170.5t-162 65.5t-180.5 -82.5t-74.5 -184.5q0 -103 56.5 -169.5zM1369 -27q-122 0 -228 54l-4 -27h-283l14 139q-43 -68 -130 -116
t-189 -48q-194 0 -311 132t-117 353t155.5 386.5t371.5 165.5q108 0 185.5 -47t110.5 -119l14 141h283l-2 -24q118 51 237 51q225 0 348.5 -123.5t123.5 -321.5q0 -61 -9.5 -94t-15.5 -57h-709q-10 -92 34 -155.5t172 -63.5t182 112h307q-36 -146 -180.5 -242t-359.5 -96z
" />
    <glyph glyph-name="ccedilla" unicode="&#xe7;" horiz-adv-x="1177" 
d="M725 -233q0 65 -71 65q-36 0 -56 -35h-133l18 187q-177 31 -271.5 157t-94.5 301q0 232 158 402t434 170q232 0 350 -123.5t112 -290.5h-313q-2 63 -42 105.5t-119 42.5q-137 0 -201 -84t-64 -201q0 -158 77 -190.5t145 -32.5q127 0 182 131h313q-65 -261 -232 -325
t-274 -71l-6 -63q33 33 93 33t104.5 -45.5t44.5 -103.5q0 -104 -67.5 -172t-184.5 -68t-157 64.5t-40 123.5h152q6 -59 63 -59q35 0 57.5 23.5t22.5 58.5z" />
    <glyph glyph-name="egrave" unicode="&#xe8;" horiz-adv-x="1181" 
d="M676 793q-90 0 -153.5 -50.5t-73.5 -144.5h409q10 90 -41 142.5t-141 52.5zM442 1305l123 217l537 -262l-121 -218zM1122 311q-36 -146 -178.5 -242t-357.5 -96t-341 130t-126 354t155.5 390.5t417.5 166.5q220 0 344.5 -122.5t124.5 -324.5q0 -65 -24 -149h-707
q-19 -219 191 -219q142 0 194 112h307z" />
    <glyph glyph-name="eacute" unicode="&#xe9;" horiz-adv-x="1181" 
d="M676 793q-90 0 -153.5 -50.5t-73.5 -144.5h409q10 90 -41 142.5t-141 52.5zM379 1260l594 262l74 -217l-592 -263zM1122 311q-36 -146 -178.5 -242t-357.5 -96t-341 130t-126 354t155.5 390.5t417.5 166.5q220 0 344.5 -122.5t124.5 -324.5q0 -65 -24 -149h-707
q-19 -219 191 -219q142 0 194 112h307z" />
    <glyph glyph-name="ecircumflex" unicode="&#xea;" horiz-adv-x="1181" 
d="M676 793q-90 0 -153.5 -50.5t-73.5 -144.5h409q10 90 -41 142.5t-141 52.5zM324 1245l434 322l368 -322l-180 -178l-219 190l-258 -190zM1122 311q-36 -146 -178.5 -242t-357.5 -96t-341 130t-126 354t155.5 390.5t417.5 166.5q220 0 344.5 -122.5t124.5 -324.5
q0 -65 -24 -149h-707q-19 -219 191 -219q142 0 194 112h307z" />
    <glyph glyph-name="edieresis" unicode="&#xeb;" horiz-adv-x="1181" 
d="M776 1260q0 100 64 161.5t147 61.5q82 0 130 -51.5t48 -109.5q0 -97 -62.5 -159.5t-145.5 -62.5t-132 51t-49 109zM676 793q-90 0 -153.5 -50.5t-73.5 -144.5h409q10 90 -41 142.5t-141 52.5zM285 1260q0 101 64.5 162t145.5 61t130 -51.5t49 -109.5q0 -98 -64 -160
t-147 -62q-82 0 -130 51t-48 109zM1122 311q-36 -146 -178.5 -242t-357.5 -96t-341 130t-126 354t155.5 390.5t417.5 166.5q220 0 344.5 -122.5t124.5 -324.5q0 -65 -24 -149h-707q-19 -219 191 -219q142 0 194 112h307z" />
    <glyph glyph-name="igrave" unicode="&#xec;" horiz-adv-x="653" 
d="M170 0l102 987h314l-103 -987h-313zM135 1331l121 217l539 -262l-121 -217z" />
    <glyph glyph-name="iacute" unicode="&#xed;" horiz-adv-x="653" 
d="M170 0l104 987h314l-105 -987h-313zM131 1286l592 262l76 -217l-592 -262z" />
    <glyph glyph-name="icircumflex" unicode="&#xee;" horiz-adv-x="653" 
d="M172 0l104 987h314l-105 -987h-313zM57 1245l435 322l368 -322l-180 -178l-219 190l-258 -190z" />
    <glyph glyph-name="idieresis" unicode="&#xef;" horiz-adv-x="653" 
d="M516 1260q0 98 62.5 160.5t145.5 62.5t132 -51.5t49 -109.5q0 -98 -64 -160t-147 -62q-82 0 -130 51t-48 109zM160 0l104 987h311l-104 -987h-311zM23 1260q0 101 64.5 162t145.5 61t131 -51.5t50 -109.5q0 -99 -65 -160.5t-146 -61.5q-82 0 -131 51t-49 109z" />
    <glyph glyph-name="eth" unicode="&#xf0;" horiz-adv-x="1220" 
d="M426 446q0 -74 54 -141t160 -67t182.5 82t76.5 186t-56.5 169.5t-160.5 65.5t-180 -80.5t-76 -214.5zM111 460q0 114 51 218t132 176t179 111t193 39l-39 69l-236 -102l-72 209l199 90l-104 198h372l35 -73l199 86l76 -207l-166 -76l223 -412q59 -108 59 -235
q0 -246 -167 -414t-418 -168t-383.5 134.5t-132.5 356.5z" />
    <glyph glyph-name="ntilde" unicode="&#xf1;" horiz-adv-x="1243" 
d="M360 1382q139 78 203 78t179.5 -27.5t161.5 -27.5q45 0 171 55l76 -182q-128 -92 -238 -92q-49 0 -163 26.5t-156 26.5t-152 -43zM879 1012q181 0 262 -113q41 -57 48 -132t-3 -181l-62 -586h-313l53 506q10 104 -20.5 171.5t-127.5 67.5t-151.5 -67.5t-66.5 -181.5
l-52 -496h-313l105 987h313l-16 -143q107 168 344 168z" />
    <glyph glyph-name="ograve" unicode="&#xf2;" horiz-adv-x="1226" 
d="M438 1305l121 217l539 -262l-121 -218zM430 448q0 -74 54.5 -140t160.5 -66t182 80.5t76 185.5q0 104 -56 170.5t-161 66.5t-180.5 -81t-75.5 -216zM115 454q0 106 43 209t169.5 227t374.5 124q249 0 382 -135t133 -354t-169 -385.5t-419 -166.5q-249 0 -381.5 135
t-132.5 346z" />
    <glyph glyph-name="oacute" unicode="&#xf3;" horiz-adv-x="1226" 
d="M430 448q0 -74 54.5 -140t160.5 -66t182 80.5t76 185.5q0 104 -56 170.5t-161 66.5t-180.5 -81t-75.5 -216zM367 1260l591 262l78 -217l-592 -263zM115 454q0 106 43 209t169.5 227t374.5 124q249 0 382 -135t133 -354t-169 -385.5t-419 -166.5q-249 0 -381.5 135
t-132.5 346z" />
    <glyph glyph-name="ocircumflex" unicode="&#xf4;" horiz-adv-x="1226" 
d="M430 448q0 -74 54.5 -140t160.5 -66t182 80.5t76 185.5q0 104 -56 170.5t-161 66.5t-180.5 -81t-75.5 -216zM344 1245l436 322l367 -322l-180 -178l-219 190l-259 -190zM115 454q0 106 43 209t169.5 227t374.5 124q249 0 382 -135t133 -354t-169 -385.5t-419 -166.5
q-249 0 -381.5 135t-132.5 346z" />
    <glyph glyph-name="otilde" unicode="&#xf5;" horiz-adv-x="1226" 
d="M430 448q0 -74 54.5 -140t160.5 -66t182 80.5t76 185.5q0 104 -56 170.5t-161 66.5t-180.5 -81t-75.5 -216zM344 1356q142 78 201 78t181 -28t165 -28q42 0 170 56l74 -183q-59 -37 -114 -64.5t-105 -27.5q-66 0 -182 26.5t-160 26.5t-148 -43zM115 454q0 106 43 209
t169.5 227t374.5 124q249 0 382 -135t133 -354t-169 -385.5t-419 -166.5q-249 0 -381.5 135t-132.5 346z" />
    <glyph glyph-name="odieresis" unicode="&#xf6;" horiz-adv-x="1226" 
d="M799 1260q0 98 62.5 160.5t145.5 62.5t132 -51.5t49 -109.5q0 -98 -64 -160t-147 -62q-82 0 -130 51t-48 109zM430 448q0 -74 54.5 -140t160.5 -66t182 80.5t76 185.5q0 104 -56 170.5t-161 66.5t-180.5 -81t-75.5 -216zM305 1260q0 100 64 161.5t146 61.5
q81 0 130 -51.5t49 -109.5q0 -97 -62.5 -159.5t-145.5 -62.5t-132 51t-49 109zM115 454q0 106 43 209t169.5 227t374.5 124q249 0 382 -135t133 -354t-169 -385.5t-419 -166.5q-249 0 -381.5 135t-132.5 346z" />
    <glyph glyph-name="divide" unicode="&#xf7;" 
d="M526 864q0 99 64 161t146 62q81 0 130 -51.5t49 -109.5q0 -98 -61.5 -159.5t-145.5 -61.5t-133 50.5t-49 108.5zM449 114q0 102 65.5 162t145.5 60t129 -50t49 -108q0 -99 -65 -161t-145 -62q-81 0 -130 50.5t-49 108.5zM231 389l27 250h875l-27 -250h-875z" />
    <glyph glyph-name="oslash" unicode="&#xf8;" horiz-adv-x="1226" 
d="M903 504q0 101 -41 158l-223 -420q111 0 187.5 80.5t76.5 181.5zM430 483q0 -97 35 -153l225 415q-110 0 -185 -82.5t-75 -179.5zM115 440q0 240 168 407t432 167q47 0 112 -10l86 161l177 -78l-80 -149q102 -61 154.5 -166.5t52.5 -225.5q0 -239 -169 -406t-434 -167
q-42 0 -114 11l-84 -162l-178 84l77 143q-98 61 -149 167t-51 224z" />
    <glyph glyph-name="ugrave" unicode="&#xf9;" horiz-adv-x="1243" 
d="M436 1305l121 217l537 -262l-121 -218zM630 242q98 0 152 67.5t66 182.5l51 495h313l-102 -987h-313l14 141q-49 -78 -138 -122t-199 -44q-189 0 -269 113q-41 57 -47 132t4 181l61 586h312l-54 -506q-10 -106 20.5 -172.5t128.5 -66.5z" />
    <glyph glyph-name="uacute" unicode="&#xfa;" horiz-adv-x="1243" 
d="M422 1260l594 262l76 -217l-594 -263zM630 242q98 0 152 67.5t66 182.5l51 495h313l-102 -987h-313l14 141q-49 -78 -138 -122t-199 -44q-189 0 -269 113q-41 57 -47 132t4 181l61 586h312l-54 -506q-10 -106 20.5 -172.5t128.5 -66.5z" />
    <glyph glyph-name="ucircumflex" unicode="&#xfb;" horiz-adv-x="1243" 
d="M342 1260l434 321l369 -321l-180 -181l-220 193l-258 -191zM630 242q98 0 152 67.5t66 182.5l51 495h313l-102 -987h-313l14 141q-49 -78 -138 -122t-199 -44q-189 0 -269 113q-41 57 -47 132t4 181l61 586h312l-54 -506q-10 -106 20.5 -172.5t128.5 -66.5z" />
    <glyph glyph-name="udieresis" unicode="&#xfc;" horiz-adv-x="1243" 
d="M797 1260q0 101 64.5 162t145.5 61t130 -51.5t49 -109.5q0 -98 -64 -160t-147 -62q-82 0 -130 51t-48 109zM303 1260q0 100 64 161.5t147 61.5q82 0 131 -51.5t49 -109.5q0 -98 -64 -160t-147 -62q-82 0 -131 51t-49 109zM630 242q98 0 152 67.5t66 182.5l51 495h313
l-102 -987h-313l14 141q-49 -78 -138 -122t-199 -44q-189 0 -269 113q-41 57 -47 132t4 181l61 586h312l-54 -506q-10 -106 20.5 -172.5t128.5 -66.5z" />
    <glyph glyph-name="yacute" unicode="&#xfd;" horiz-adv-x="1259" 
d="M430 1260l592 262l78 -217l-594 -263zM595 -242q101 0 153.5 53.5t66.5 178.5l19 168q-49 -80 -138.5 -124t-199.5 -44q-190 0 -269 112q-41 57 -47 132t4 182l60 571h313l-53 -506q-10 -106 19.5 -172.5t127.5 -66.5t151.5 67.5t65.5 182.5l52 495h313l-103 -981
q-27 -252 -157.5 -365.5t-390.5 -113.5q-390 0 -435 154.5t-34 242.5h307q-6 -72 34 -119t141 -47z" />
    <glyph glyph-name="thorn" unicode="&#xfe;" horiz-adv-x="1294" 
d="M500 448q0 -74 56.5 -140t160.5 -66t181 80.5t77 184.5q0 105 -56.5 171.5t-161.5 66.5t-181 -82.5t-76 -214.5zM862 1012q192 0 309 -132t117 -351t-156 -386.5t-374 -167.5q-110 0 -187 48.5t-106 115.5l-62 -585h-313l197 1880h313l-61 -588q47 72 135 119t188 47z
" />
    <glyph glyph-name="ydieresis" unicode="&#xff;" horiz-adv-x="1273" 
d="M852 1258q0 99 62 159t142 60q79 0 127 -49.5t48 -105.5q0 -96 -63 -157t-143 -61q-79 0 -126 49t-47 105zM358 1258q0 99 63 159t141 60q79 0 127 -49.5t48 -105.5q0 -100 -62.5 -159t-141.5 -59t-127 49t-48 105zM595 -242q101 0 153.5 53.5t66.5 178.5l19 168
q-49 -80 -138.5 -124t-199.5 -44q-190 0 -269 112q-41 57 -47 132t4 182l60 571h313l-53 -506q-10 -106 19.5 -172.5t127.5 -66.5t151.5 67.5t65.5 182.5l52 495h313l-103 -981q-27 -252 -157.5 -365.5t-390.5 -113.5q-390 0 -435 154.5t-34 242.5h307q-6 -72 34 -119
t141 -47z" />
    <glyph glyph-name="Amacron" unicode="&#x100;" horiz-adv-x="1351" 
d="M543 434h348l-109 590zM465 1626l27 236h753l-26 -236h-754zM8 0l664 1434h305l366 -1434h-360l-37 174h-510l-74 -174h-354z" />
    <glyph glyph-name="amacron" unicode="&#x101;" horiz-adv-x="1300" 
d="M434 448q0 -74 56.5 -140t161.5 -66t180 81t75 184t-55 170.5t-160 67.5t-181.5 -82t-76.5 -215zM336 1174l24 233h754l-24 -233h-754zM121 452q0 110 42 214t114.5 181t167.5 121t203 44t185.5 -47t110.5 -119l14 141h314l-105 -987h-313l14 139q-43 -68 -130 -116
t-189 -48t-179 35t-132.5 97.5t-86 148.5t-30.5 196z" />
    <glyph glyph-name="Abreve" unicode="&#x102;" horiz-adv-x="1351" 
d="M543 434h348l-109 590zM1327 1870q-39 -156 -178.5 -254t-314.5 -98t-290.5 96t-127.5 256h250q42 -123 192 -123t217 123h252zM8 0l664 1434h305l366 -1434h-360l-37 174h-510l-74 -174h-354z" />
    <glyph glyph-name="abreve" unicode="&#x103;" horiz-adv-x="1300" 
d="M434 448q0 -74 56.5 -140t161.5 -66t180 81t75 184t-55 170.5t-160 67.5t-181.5 -82t-76.5 -215zM1208 1460q-39 -157 -178 -254.5t-314.5 -97.5t-291 96.5t-127.5 255.5h250q46 -123 194 -123t215 123h252zM121 452q0 110 42 214t114.5 181t167.5 121t203 44t185.5 -47
t110.5 -119l14 141h314l-105 -987h-313l14 139q-43 -68 -130 -116t-189 -48t-179 35t-132.5 97.5t-86 148.5t-30.5 196z" />
    <glyph glyph-name="Aogonek" unicode="&#x104;" horiz-adv-x="1351" 
d="M543 434h348l-109 590zM1049 -158q0 -110 88 -110q56 0 112 24l-20 -159q-91 -31 -204 -31q-114 0 -172 53t-58 127t46 132.5t142 121.5l-37 174h-510l-74 -174h-354l664 1434h305l366 -1434h-161q-47 -29 -90 -67.5t-43 -90.5z" />
    <glyph glyph-name="aogonek" unicode="&#x105;" horiz-adv-x="1300" 
d="M434 448q0 -74 56.5 -140t161.5 -66t180 81t75 184t-55 170.5t-160 67.5t-181.5 -82t-76.5 -215zM924 -170q0 -98 88 -98q52 0 112 24l-20 -159q-91 -31 -207 -31q-117 0 -173 53t-56 126t45 132.5t141 122.5l14 139q-43 -68 -130 -116t-189 -48q-194 0 -311 132
t-117 353t155.5 386.5t371.5 165.5q108 0 185.5 -47t110.5 -119l14 141h314l-105 -987h-112q-47 -29 -89 -67.5t-42 -102.5z" />
    <glyph glyph-name="Cacute" unicode="&#x106;" horiz-adv-x="1613" 
d="M657 1731l594 262l76 -215l-594 -262zM137 656q0 148 58.5 296t168 263.5t266 185t334.5 69.5q324 0 498 -166.5t178 -426.5h-346q-8 130 -95.5 212t-242.5 82q-214 0 -346.5 -150t-132.5 -339t108 -304.5t267 -115.5t259.5 73t141.5 179h353q-70 -239 -277 -395
t-511 -156q-305 0 -493 195.5t-188 497.5z" />
    <glyph glyph-name="cacute" unicode="&#x107;" horiz-adv-x="1177" 
d="M389 1260l592 262l76 -217l-592 -263zM117 450q0 102 39 205t158 231t395 128q232 0 350 -123.5t112 -290.5h-313q-2 63 -42 105.5t-119 42.5q-137 0 -201 -84t-64 -201q0 -158 77 -190.5t145 -32.5q127 0 182 131h313q-37 -174 -184 -286t-372 -112t-350.5 134
t-125.5 343z" />
    <glyph glyph-name="Ccircumflex" unicode="&#x108;" horiz-adv-x="1613" 
d="M600 1716l434 322l369 -322l-182 -180l-220 193l-258 -191zM137 656q0 148 58.5 296t168 263.5t266 185t334.5 69.5q324 0 498 -166.5t178 -426.5h-346q-8 130 -95.5 212t-242.5 82q-214 0 -346.5 -150t-132.5 -339t108 -304.5t267 -115.5t259.5 73t141.5 179h353
q-70 -239 -277 -395t-511 -156q-305 0 -493 195.5t-188 497.5z" />
    <glyph glyph-name="ccircumflex" unicode="&#x109;" horiz-adv-x="1177" 
d="M319 1245l437 322l366 -322l-182 -178l-217 190l-258 -190zM117 450q0 102 39 205t158 231t395 128q232 0 350 -123.5t112 -290.5h-313q-2 63 -42 105.5t-119 42.5q-137 0 -201 -84t-64 -201q0 -158 77 -190.5t145 -32.5q127 0 182 131h313q-37 -174 -184 -286t-372 -112
t-350.5 134t-125.5 343z" />
    <glyph glyph-name="Cdotaccent" unicode="&#x10a;" horiz-adv-x="1613" 
d="M809 1732q0 100 64 162t147 62q82 0 130 -52.5t48 -109.5q0 -99 -64 -161t-146 -62q-81 0 -130 51.5t-49 109.5zM137 656q0 148 58.5 296t168 263.5t266 185t334.5 69.5q324 0 498 -166.5t178 -426.5h-346q-8 130 -95.5 212t-242.5 82q-214 0 -346.5 -150t-132.5 -339
t108 -304.5t267 -115.5t259.5 73t141.5 179h353q-70 -239 -277 -395t-511 -156q-305 0 -493 195.5t-188 497.5z" />
    <glyph glyph-name="cdotaccent" unicode="&#x10b;" horiz-adv-x="1177" 
d="M539 1258q0 101 64.5 162t145.5 61t131 -51.5t50 -109.5q0 -98 -63.5 -160t-146.5 -62t-132 51t-49 109zM117 450q0 102 39 205t158 231t395 128q232 0 350 -123.5t112 -290.5h-313q-2 63 -42 105.5t-119 42.5q-137 0 -201 -84t-64 -201q0 -158 77 -190.5t145 -32.5
q127 0 182 131h313q-37 -174 -184 -286t-372 -112t-350.5 134t-125.5 343z" />
    <glyph glyph-name="Ccaron" unicode="&#x10c;" horiz-adv-x="1613" 
d="M627 1841l168 178l202 -198l246 198l133 -178l-411 -321zM137 656q0 148 58.5 296t168 263.5t266 185t334.5 69.5q324 0 498 -166.5t178 -426.5h-346q-8 130 -95.5 212t-242.5 82q-214 0 -346.5 -150t-132.5 -339t108 -304.5t267 -115.5t259.5 73t141.5 179h353
q-70 -239 -277 -395t-511 -156q-305 0 -493 195.5t-188 497.5z" />
    <glyph glyph-name="ccaron" unicode="&#x10d;" horiz-adv-x="1177" 
d="M373 1389l166 178l204 -199l246 199l131 -178l-409 -322zM117 450q0 102 39 205t158 231t395 128q232 0 350 -123.5t112 -290.5h-313q-2 63 -42 105.5t-119 42.5q-137 0 -201 -84t-64 -201q0 -158 77 -190.5t145 -32.5q127 0 182 131h313q-37 -174 -184 -286t-372 -112
t-350.5 134t-125.5 343z" />
    <glyph glyph-name="Dcaron" unicode="&#x10e;" horiz-adv-x="1474" 
d="M528 1831l166 178l205 -199l246 199l131 -178l-410 -322zM678 287q210 0 340.5 142.5t130.5 316.5t-102.5 287.5t-278.5 113.5h-178l-90 -860h178zM815 1434q316 0 495 -191.5t179 -462.5q0 -147 -57.5 -287.5t-164 -250t-259 -176t-344.5 -66.5h-527l152 1434h526z" />
    <glyph glyph-name="dcaron" unicode="&#x10f;" horiz-adv-x="1728" 
d="M1582 1122q-62 0 -106 50t-44 108q0 102 62.5 166.5t154.5 64.5q192 0 192 -243q0 -193 -115.5 -302.5t-332.5 -109.5l12 121q110 0 175 47t79 113q-15 -15 -77 -15zM434 448q0 -74 56.5 -140t161.5 -66t180 81t75 184t-55 170.5t-160 67.5t-181.5 -82t-76.5 -215z
M121 452q0 110 42 214t114.5 181t167.5 121t203 44t185.5 -47t110.5 -119l62 588h313l-152 -1434h-313l14 139q-43 -68 -130 -116t-189 -48t-179 35t-132.5 97.5t-86 148.5t-30.5 196z" />
    <glyph glyph-name="Dcroat" unicode="&#x110;" horiz-adv-x="1474" 
d="M678 287q210 0 340.5 142.5t130.5 316.5t-102.5 287.5t-278.5 113.5h-178l-33 -313h215l-24 -234h-216l-32 -313h178zM815 1434q316 0 495 -191.5t179 -462.5q0 -147 -57.5 -287.5t-164 -250t-259 -176t-344.5 -66.5h-527l64 600h-207l24 234h207l64 600h526z" />
    <glyph glyph-name="dcroat" unicode="&#x111;" horiz-adv-x="1300" 
d="M434 448q0 -74 56.5 -140t161.5 -66t180 81t75 184t-55 170.5t-160 67.5t-181.5 -82t-76.5 -215zM121 452q0 110 42 214t114.5 181t167.5 121t203 44t185.5 -47t110.5 -119l21 201h-142l27 249h141l15 138h313l-14 -138h84l-27 -249h-84l-111 -1047h-313l14 139
q-43 -68 -130 -116t-189 -48t-179 35t-132.5 97.5t-86 148.5t-30.5 196z" />
    <glyph glyph-name="Emacron" unicode="&#x112;" horiz-adv-x="1136" 
d="M362 1626l27 236h754l-27 -236h-754zM137 0l152 1434h874l-28 -267h-543l-35 -325h543l-27 -260h-543l-32 -316h542l-28 -266h-875z" />
    <glyph glyph-name="emacron" unicode="&#x113;" horiz-adv-x="1181" 
d="M676 793q-90 0 -153.5 -50.5t-73.5 -144.5h409q10 90 -41 142.5t-141 52.5zM344 1223l25 235h753l-24 -235h-754zM1122 311q-36 -146 -178.5 -242t-357.5 -96t-341 130t-126 354t155.5 390.5t417.5 166.5q220 0 344.5 -122.5t124.5 -324.5q0 -65 -24 -149h-707
q-19 -219 191 -219q142 0 194 112h307z" />
    <glyph glyph-name="Ebreve" unicode="&#x114;" horiz-adv-x="1136" 
d="M752 1745q90 0 141 39t76 86h254q-39 -157 -180 -254.5t-314 -97.5q-174 0 -291 97t-129 255h252q41 -125 191 -125zM137 0l152 1434h874l-28 -267h-543l-35 -325h543l-27 -260h-543l-32 -316h542l-28 -266h-875z" />
    <glyph glyph-name="ebreve" unicode="&#x115;" horiz-adv-x="1181" 
d="M676 793q-90 0 -153.5 -50.5t-73.5 -144.5h409q10 90 -41 142.5t-141 52.5zM1200 1460q-40 -159 -179.5 -255.5t-313.5 -96.5t-290 97.5t-128 254.5h252q42 -123 190 -123q90 0 141.5 38t75.5 85h252zM1122 311q-36 -146 -178.5 -242t-357.5 -96t-341 130t-126 354
t155.5 390.5t417.5 166.5q220 0 344.5 -122.5t124.5 -324.5q0 -65 -24 -149h-707q-19 -219 191 -219q142 0 194 112h307z" />
    <glyph glyph-name="Edotaccent" unicode="&#x116;" horiz-adv-x="1136" 
d="M559 1732q0 98 62.5 161t145.5 63t132 -52.5t49 -109.5q0 -99 -64 -161t-147 -62q-82 0 -130 51.5t-48 109.5zM137 0l152 1434h874l-28 -267h-543l-35 -325h543l-27 -260h-543l-32 -316h542l-28 -266h-875z" />
    <glyph glyph-name="edotaccent" unicode="&#x117;" horiz-adv-x="1181" 
d="M532 1258q0 99 63.5 161t145.5 62t131.5 -51.5t49.5 -109.5q0 -98 -64 -160t-147 -62q-82 0 -130.5 51t-48.5 109zM676 793q-90 0 -153.5 -50.5t-73.5 -144.5h409q10 90 -41 142.5t-141 52.5zM1122 311q-36 -146 -178.5 -242t-357.5 -96t-341 130t-126 354t155.5 390.5
t417.5 166.5q220 0 344.5 -122.5t124.5 -324.5q0 -65 -24 -149h-707q-19 -219 191 -219q142 0 194 112h307z" />
    <glyph glyph-name="Eogonek" unicode="&#x118;" horiz-adv-x="1136" 
d="M879 -158q0 -110 88 -110q56 0 112 24l-20 -159q-91 -31 -204 -31q-114 0 -172 53t-58 127t46 132.5t142 121.5h-676l152 1434h874l-28 -267h-543l-35 -325h543l-27 -260h-543l-32 -316h542l-28 -266q-47 -29 -90 -67.5t-43 -90.5z" />
    <glyph glyph-name="eogonek" unicode="&#x119;" horiz-adv-x="1181" 
d="M676 793q-90 0 -153.5 -50.5t-73.5 -144.5h409q10 90 -41 142.5t-141 52.5zM588 -164q0 -104 88 -104q52 0 112 24l-20 -159q-91 -31 -205 -31t-171.5 52t-57.5 126t41 129t119 109q-181 28 -278 153t-97 307q0 238 155.5 405t417.5 167q220 0 344.5 -122.5t124.5 -324.5
q0 -65 -24 -149h-707q-19 -219 191 -219q142 0 194 112h307q-35 -125 -146.5 -218t-289.5 -113q-98 -72 -98 -144z" />
    <glyph glyph-name="Ecaron" unicode="&#x11a;" horiz-adv-x="1136" 
d="M387 1831l166 178l205 -199l246 199l131 -178l-410 -322zM137 0l152 1434h874l-28 -267h-543l-35 -325h543l-27 -260h-543l-32 -316h542l-28 -266h-875z" />
    <glyph glyph-name="ecaron" unicode="&#x11b;" horiz-adv-x="1181" 
d="M676 793q-90 0 -153.5 -50.5t-73.5 -144.5h409q10 90 -41 142.5t-141 52.5zM362 1389l168 178l203 -199l246 199l133 -178l-412 -322zM1122 311q-36 -146 -178.5 -242t-357.5 -96t-341 130t-126 354t155.5 390.5t417.5 166.5q220 0 344.5 -122.5t124.5 -324.5
q0 -65 -24 -149h-707q-19 -219 191 -219q142 0 194 112h307z" />
    <glyph glyph-name="Gcircumflex" unicode="&#x11c;" horiz-adv-x="1710" 
d="M594 1694l434 321l369 -321l-180 -181l-222 193l-256 -190zM135 648q0 148 60.5 300t169 267.5t262 185t318.5 69.5q302 0 471 -145.5t165 -355.5h-354q-9 88 -85 151.5t-193 63.5q-215 0 -343.5 -157t-128.5 -352t99.5 -313t287.5 -118q150 0 247.5 76t127.5 190h-254
l27 248h743l-26 -248h-148q-68 -251 -269.5 -399t-486.5 -148q-330 0 -510 192.5t-180 492.5z" />
    <glyph glyph-name="gcircumflex" unicode="&#x11d;" horiz-adv-x="1296" 
d="M436 448q0 -74 56.5 -140t160.5 -66t180 80.5t76 184.5q0 103 -55.5 170.5t-160.5 67.5t-181 -82t-76 -215zM340 1245l436 322l367 -322l-182 -178l-218 190l-258 -190zM389 -76q0 -68 51 -117t155 -49q103 0 176 54.5t85 175.5l16 155q-47 -63 -130 -108t-188 -45
q-201 0 -317 126t-116 345t154.5 385t371.5 166q104 0 183 -42t116 -124l15 141h311l-103 -981q-27 -254 -171 -366.5t-416 -112.5q-417 0 -463.5 157.5t-42.5 239.5h313z" />
    <glyph glyph-name="Gbreve" unicode="&#x11e;" horiz-adv-x="1710" 
d="M1004 1747q86 0 137 39t76 86h251q-40 -160 -179 -256t-313 -96t-290.5 97.5t-128.5 254.5h252q37 -125 195 -125zM135 648q0 148 60.5 300t169 267.5t262 185t318.5 69.5q302 0 471 -145.5t165 -355.5h-354q-9 88 -85 151.5t-193 63.5q-215 0 -343.5 -157t-128.5 -352
t99.5 -313t287.5 -118q150 0 247.5 76t127.5 190h-254l27 248h743l-26 -248h-148q-68 -251 -269.5 -399t-486.5 -148q-330 0 -510 192.5t-180 492.5z" />
    <glyph glyph-name="gbreve" unicode="&#x11f;" horiz-adv-x="1296" 
d="M436 448q0 -74 56.5 -140t160.5 -66t180 80.5t76 184.5q0 103 -55.5 170.5t-160.5 67.5t-181 -82t-76 -215zM752 1337q149 0 219 123h252q-39 -156 -178.5 -254t-314.5 -98t-291 96t-128 256h250q42 -123 191 -123zM389 -76q0 -68 51 -117t155 -49q103 0 176 54.5
t85 175.5l16 155q-47 -63 -130 -108t-188 -45q-201 0 -317 126t-116 345t154.5 385t371.5 166q104 0 183 -42t116 -124l15 141h311l-103 -981q-27 -254 -171 -366.5t-416 -112.5q-417 0 -463.5 157.5t-42.5 239.5h313z" />
    <glyph glyph-name="Gdotaccent" unicode="&#x120;" horiz-adv-x="1710" 
d="M809 1732q0 98 62.5 161t145.5 63t132 -52.5t49 -109.5q0 -99 -64 -161t-147 -62q-82 0 -130 51.5t-48 109.5zM135 648q0 148 60.5 300t169 267.5t262 185t318.5 69.5q302 0 471 -145.5t165 -355.5h-354q-9 88 -85 151.5t-193 63.5q-215 0 -343.5 -157t-128.5 -352
t99.5 -313t287.5 -118q150 0 247.5 76t127.5 190h-254l27 248h743l-26 -248h-148q-68 -251 -269.5 -399t-486.5 -148q-330 0 -510 192.5t-180 492.5z" />
    <glyph glyph-name="gdotaccent" unicode="&#x121;" horiz-adv-x="1296" 
d="M543 1256q0 98 63.5 161.5t144.5 63.5t132 -53t51 -110q0 -99 -65 -160.5t-147 -61.5q-83 0 -131 51t-48 109zM436 448q0 -74 56.5 -140t160.5 -66t180 80.5t76 184.5q0 103 -55.5 170.5t-160.5 67.5t-181 -82t-76 -215zM389 -76q0 -68 51 -117t155 -49q103 0 176 54.5
t85 175.5l16 155q-47 -63 -130 -108t-188 -45q-201 0 -317 126t-116 345t154.5 385t371.5 166q104 0 183 -42t116 -124l15 141h311l-103 -981q-27 -254 -171 -366.5t-416 -112.5q-417 0 -463.5 157.5t-42.5 239.5h313z" />
    <glyph glyph-name="Gcommaaccent" unicode="&#x122;" horiz-adv-x="1710" 
d="M764 -367q-48 0 -84.5 41.5t-36.5 105.5t50 115.5t122 51.5t114 -47t42 -152q0 -158 -97.5 -243t-261.5 -85l11 99q91 0 139 36t63 91q-13 -13 -61 -13zM135 648q0 148 60.5 300t169 267.5t262 185t318.5 69.5q302 0 471 -145.5t165 -355.5h-354q-9 88 -85 151.5
t-193 63.5q-215 0 -343.5 -157t-128.5 -352t99.5 -313t287.5 -118q150 0 247.5 76t127.5 190h-254l27 248h743l-26 -248h-148q-68 -251 -269.5 -399t-486.5 -148q-330 0 -510 192.5t-180 492.5z" />
    <glyph glyph-name="gcommaaccent" unicode="&#x123;" horiz-adv-x="1296" 
d="M782 1462q58 0 101 -48t43 -102q0 -95 -59.5 -155.5t-144.5 -60.5q-181 0 -181 231q0 186 112.5 285.5t307.5 99.5l-13 -115q-111 0 -170 -47q-54 -39 -67 -102q13 14 71 14zM436 448q0 -74 56.5 -140t160.5 -66t180 80.5t76 184.5q0 103 -55 170.5t-160 67.5t-181.5 -82
t-76.5 -215zM389 -76q0 -68 51 -117t155 -49q103 0 176 54.5t85 175.5l16 155q-47 -63 -130 -108t-188 -45q-201 0 -317 126t-116 345t154.5 385t371.5 166q104 0 183 -42t116 -124l15 141h311l-103 -981q-27 -254 -171 -366.5t-416 -112.5q-417 0 -463.5 157.5t-42.5 239.5
h313z" />
    <glyph glyph-name="Hcircumflex" unicode="&#x124;" horiz-adv-x="1431" 
d="M492 1690l434 321l368 -321l-182 -181l-219 193l-256 -191zM137 0l152 1434h332l-62 -580h496l61 580h330l-152 -1434h-329l59 569h-496l-59 -569h-332z" />
    <glyph glyph-name="hcircumflex" unicode="&#x125;" horiz-adv-x="1222" 
d="M422 1688l434 321l369 -321l-183 -181l-219 193l-258 -191zM864 1012q175 0 254 -113q41 -59 49.5 -134t-2.5 -181l-61 -584h-303l53 506q10 104 -20.5 171.5t-127.5 67.5t-151.5 -67.5t-67.5 -181.5l-51 -496h-303l152 1434h303l-64 -590q110 168 340 168z" />
    <glyph glyph-name="Hbar" unicode="&#x126;" horiz-adv-x="1431" 
d="M559 854h496l16 166h-496zM137 0l152 1434h332l-21 -179h496l20 179h330l-152 -1434h-329l59 569h-496l-59 -569h-332z" />
    <glyph glyph-name="hbar" unicode="&#x127;" horiz-adv-x="1222" 
d="M854 1012q187 0 266 -113q41 -59 48.5 -134t-3.5 -181l-61 -584h-303l53 506q28 239 -145 239q-98 0 -152.5 -67.5t-67.5 -181.5l-51 -496h-305l111 1047h-133l26 249h133l15 138h303l-15 -138h273l-27 -249h-272l-21 -203q49 78 135.5 123t192.5 45z" />
    <glyph glyph-name="Itilde" unicode="&#x128;" horiz-adv-x="610" 
d="M137 0l152 1434h336l-152 -1434h-336zM92 1784q142 78 201 78t181 -28t165 -28q42 0 170 56l76 -183q-128 -92 -238 -92q-43 0 -162 26.5t-165 26.5t-144 -43z" />
    <glyph glyph-name="itilde" unicode="&#x129;" horiz-adv-x="653" 
d="M170 0l104 987h314l-105 -987h-313zM68 1343q142 78 204 78t177.5 -27.5t164.5 -27.5t170 55l76 -184q-125 -92 -246 -92q-45 0 -156 26.5t-156 26.5t-152 -43z" />
    <glyph glyph-name="Imacron" unicode="&#x12a;" horiz-adv-x="610" 
d="M137 0l150 1434h336l-150 -1434h-336zM100 1626l25 236h754l-25 -236h-754z" />
    <glyph glyph-name="imacron" unicode="&#x12b;" horiz-adv-x="653" 
d="M172 0l104 987h314l-105 -987h-313zM74 1171l24 236h754l-25 -236h-753z" />
    <glyph glyph-name="Ibreve" unicode="&#x12c;" horiz-adv-x="610" 
d="M137 0l152 1434h336l-152 -1434h-336zM494 1747q86 0 137 38t76 85h251q-40 -160 -179 -256t-313 -96t-290.5 97.5t-128.5 254.5h252q16 -53 62.5 -88t132.5 -35z" />
    <glyph glyph-name="ibreve" unicode="&#x12d;" horiz-adv-x="653" 
d="M172 0l104 987h314l-105 -987h-313zM938 1460q-39 -157 -180 -254.5t-314 -97.5q-174 0 -290.5 96.5t-128.5 255.5h251q42 -123 192 -123t216 123h254z" />
    <glyph glyph-name="Iogonek" unicode="&#x12e;" horiz-adv-x="610" 
d="M-51 -254q0 74 46 132.5t142 121.5l150 1434h336l-150 -1434h-135q-47 -29 -90 -67.5t-43 -90.5q0 -110 88 -110q51 0 113 24l-21 -159q-91 -31 -206 -31t-172.5 53t-57.5 127z" />
    <glyph glyph-name="iogonek" unicode="&#x12f;" horiz-adv-x="653" 
d="M322 1282q0 108 66 169.5t150 61.5q83 0 135 -52t52 -135t-67.5 -146.5t-151.5 -63.5t-134 52t-50 114zM41 -255q0 75 46 133.5t142 121.5l103 987h311l-102 -987h-113q-47 -29 -90 -67.5t-43 -90.5q0 -110 88 -110q51 0 113 24l-21 -159q-91 -31 -205 -31t-171.5 52
t-57.5 127z" />
    <glyph glyph-name="Idotaccent" unicode="&#x130;" horiz-adv-x="610" 
d="M295 1732q0 100 64 162t146 62q81 0 131 -51.5t50 -109.5q0 -98 -64 -160t-147 -62q-82 0 -131 50.5t-49 108.5zM137 0l152 1434h336l-152 -1434h-336z" />
    <glyph glyph-name="dotlessi" unicode="&#x131;" horiz-adv-x="528" 
d="M109 0l104 987h313l-104 -987h-313z" />
    <glyph glyph-name="IJ" unicode="&#x132;" horiz-adv-x="1804" 
d="M1182 250q96 0 152.5 64.5t68.5 179.5l98 940h332l-98 -940q-27 -256 -180.5 -392.5t-402.5 -136.5t-370 148t-96 383h332q-10 -106 29 -176t135 -70zM137 0l152 1434h336l-152 -1434h-336z" />
    <glyph glyph-name="ij" unicode="&#x133;" horiz-adv-x="1314" 
d="M926 1282q0 104 67 167.5t150 63.5q84 0 135 -52.5t51 -112.5q0 -105 -66 -168.5t-153 -63.5q-86 0 -135 53t-49 113zM728 -225q80 0 91 98l117 1114h313l-121 -1141q-26 -259 -136.5 -288t-207.5 -29t-161 25l24 233q43 -12 81 -12zM262 1282q0 105 66 168t151 63
q86 0 137.5 -52.5t51.5 -112.5q0 -103 -68 -167.5t-153 -64.5t-135 53t-50 113zM170 0l104 987h314l-105 -987h-313z" />
    <glyph glyph-name="Jcircumflex" unicode="&#x134;" horiz-adv-x="1193" 
d="M682 1688l434 321l369 -321l-182 -179l-220 191l-258 -191zM572 250q95 0 151.5 64.5t69.5 179.5l98 940h330l-99 -940q-27 -256 -179 -392.5t-402 -136.5t-371 149.5t-94 381.5h332q-10 -106 29.5 -176t134.5 -70z" />
    <glyph glyph-name="jcircumflex" unicode="&#x135;" horiz-adv-x="659" 
d="M74 1323l434 322l369 -322l-183 -178l-219 190l-256 -190zM74 -225q39 0 61.5 21.5t28.5 76.5l117 1114h315l-121 -1141q-26 -259 -137 -288t-207 -29t-162 25l25 233q41 -12 80 -12z" />
    <glyph glyph-name="Kcommaaccent" unicode="&#x136;" horiz-adv-x="1349" 
d="M619 -346q-49 0 -85 41t-36 105t50 115.5t122 51.5q155 0 155 -198q0 -158 -97 -243t-261 -85l10 98q89 0 138.5 35.5t64.5 91.5q-12 -12 -61 -12zM137 0l152 1434h332l-66 -609l528 609h400l-643 -717l491 -717h-399l-400 606l-63 -606h-332z" />
    <glyph glyph-name="kcommaaccent" unicode="&#x137;" horiz-adv-x="1134" 
d="M503 -346q-48 0 -84 41t-36 105t50 115.5t122 51.5q156 0 156 -196q0 -158 -97.5 -244t-263.5 -86l10 98q94 0 146 41q46 27 57 86q-12 -12 -60 -12zM133 0l152 1434h313l-92 -865l350 418h373l-438 -493l331 -494h-372l-261 414l-43 -414h-313z" />
    <glyph glyph-name="kgreenlandic" unicode="&#x138;" horiz-adv-x="1134" 
d="M133 0l105 987h313l-45 -418l350 418h373l-438 -493l331 -494h-372l-261 414l-43 -414h-313z" />
    <glyph glyph-name="Lacute" unicode="&#x139;" horiz-adv-x="927" 
d="M156 1733l592 262l75 -217l-592 -262zM137 0l152 1434h332l-121 -1147h407l-30 -287h-740z" />
    <glyph glyph-name="lacute" unicode="&#x13a;" horiz-adv-x="579" 
d="M143 1747l592 262l76 -217l-592 -262zM133 0l152 1434h313l-152 -1434h-313z" />
    <glyph glyph-name="Lcommaaccent" unicode="&#x13b;" horiz-adv-x="927" 
d="M399 -346q-48 0 -85.5 41t-37.5 105t50.5 115.5t122.5 51.5q155 0 155 -198q0 -158 -97 -243t-261 -85l10 98q90 0 139 36t64 91q-12 -12 -60 -12zM137 0l152 1434h332l-121 -1147h407l-30 -287h-740z" />
    <glyph glyph-name="lcommaaccent" unicode="&#x13c;" horiz-adv-x="579" 
d="M133 0l150 1434h313l-150 -1434h-313zM225 -346q-48 0 -85.5 41t-37.5 105t51.5 115.5t123.5 51.5q155 0 155 -198q0 -156 -97 -242t-263 -86l10 98q95 0 145 41q48 31 58 86q-12 -12 -60 -12z" />
    <glyph glyph-name="Lcaron" unicode="&#x13d;" horiz-adv-x="927" 
d="M137 0l152 1434h332l-121 -1147h407l-30 -287h-740zM119 1831l168 178l202 -199l246 199l133 -178l-411 -322z" />
    <glyph glyph-name="lcaron" unicode="&#x13e;" horiz-adv-x="1007" 
d="M862 1126q-61 0 -106 50t-45 108q0 102 63 167t154 65q192 0 192 -244q0 -193 -115.5 -302.5t-332.5 -109.5l12 121q168 0 208 65.5t46 94.5q-15 -15 -76 -15zM133 0l152 1434h313l-152 -1434h-313z" />
    <glyph glyph-name="Ldot" unicode="&#x13f;" horiz-adv-x="978" 
d="M653 640q0 108 68.5 174.5t157.5 66.5q88 0 140 -54.5t52 -116.5q0 -108 -68 -173.5t-157 -65.5q-88 0 -140.5 53.5t-52.5 115.5zM137 0l152 1434h332l-121 -1147h407l-30 -287h-740z" />
    <glyph glyph-name="ldot" unicode="&#x140;" horiz-adv-x="948" 
d="M586 604q0 106 66.5 173t155.5 67t141 -54t52 -116q0 -108 -67 -174t-155 -66q-89 0 -141 54t-52 116zM133 0l152 1434h313l-152 -1434h-313z" />
    <glyph glyph-name="Lslash" unicode="&#x141;" horiz-adv-x="933" 
d="M109 479l26 252l90 33l70 670h332l-58 -547l293 112l-26 -251l-293 -113l-37 -348h407l-30 -287h-740l56 512z" />
    <glyph glyph-name="lslash" unicode="&#x142;" horiz-adv-x="593" 
d="M57 479l27 252l135 60l68 643h336l-54 -498l144 63l-27 -251l-141 -64l-74 -684h-336l58 539z" />
    <glyph glyph-name="Nacute" unicode="&#x143;" horiz-adv-x="1468" 
d="M584 1733l592 262l75 -217l-592 -262zM137 0l152 1434h346l420 -934l98 934h330l-152 -1434h-346l-420 922l-96 -922h-332z" />
    <glyph glyph-name="nacute" unicode="&#x144;" horiz-adv-x="1243" 
d="M422 1260l592 262l78 -217l-594 -263zM879 1012q181 0 262 -113q41 -57 48 -132t-3 -181l-62 -586h-313l53 506q10 104 -20.5 171.5t-127.5 67.5t-151.5 -67.5t-66.5 -181.5l-52 -496h-313l105 987h313l-16 -143q107 168 344 168z" />
    <glyph glyph-name="Ncommaaccent" unicode="&#x145;" horiz-adv-x="1468" 
d="M669 -346q-48 0 -85 41t-37 105t50 115.5t122 51.5q155 0 155 -198q0 -158 -97 -243t-261 -85l10 98q89 0 138.5 35.5t64.5 91.5q-12 -12 -60 -12zM137 0l152 1434h346l420 -934l98 934h330l-152 -1434h-346l-420 922l-96 -922h-332z" />
    <glyph glyph-name="ncommaaccent" unicode="&#x146;" horiz-adv-x="1243" 
d="M577 -346q-48 0 -84 41t-36 105t50 115.5t122 51.5q155 0 155 -196q0 -158 -97 -244t-263 -86l10 98q94 0 146 41q46 27 57 86q-12 -12 -60 -12zM879 1012q181 0 262 -113q41 -57 48 -132t-3 -181l-62 -586h-313l53 506q10 104 -20.5 171.5t-127.5 67.5t-151.5 -67.5
t-66.5 -181.5l-52 -496h-313l105 987h313l-16 -143q107 168 344 168z" />
    <glyph glyph-name="Ncaron" unicode="&#x147;" horiz-adv-x="1468" 
d="M553 1831l168 178l203 -199l245 199l131 -178l-409 -322zM137 0l152 1434h346l420 -934l98 934h330l-152 -1434h-346l-420 922l-96 -922h-332z" />
    <glyph glyph-name="ncaron" unicode="&#x148;" horiz-adv-x="1243" 
d="M422 1464l166 181l205 -201l245 201l131 -181l-407 -321zM879 1012q181 0 262 -113q41 -57 48 -132t-3 -181l-62 -586h-313l53 506q10 104 -20.5 171.5t-127.5 67.5t-151.5 -67.5t-66.5 -181.5l-52 -496h-313l105 987h313l-16 -143q107 168 344 168z" />
    <glyph glyph-name="napostrophe" unicode="&#x149;" horiz-adv-x="1243" 
d="M396 1305q-49 0 -89.5 42.5t-40.5 112.5t55.5 124t132.5 54q162 0 162 -208q0 -164 -101 -258.5t-282 -94.5l13 107q99 0 155 41q49 39 62 92q-18 -12 -67 -12zM879 1012q181 0 262 -113q41 -57 48 -132t-3 -181l-62 -586h-313l53 506q10 104 -20.5 171.5t-127.5 67.5
t-151.5 -67.5t-66.5 -181.5l-52 -496h-313l105 987h313l-16 -143q107 168 344 168z" />
    <glyph glyph-name="Eng" unicode="&#x14a;" horiz-adv-x="1468" 
d="M762 -502q-121 0 -200 41t-138 115l215 205q35 -35 65.5 -56.5t78.5 -21.5q90 0 148 63t66 158l-432 920l-96 -922h-332l152 1434h332l434 -934l98 934h328l-148 -1409q-24 -251 -179.5 -389t-391.5 -138z" />
    <glyph glyph-name="eng" unicode="&#x14b;" horiz-adv-x="1243" 
d="M879 1012q181 0 262 -113q41 -57 48 -132t-3 -181l-64 -611q-23 -217 -146.5 -332.5t-317.5 -115.5t-306 123l142 194q29 -29 55 -47t72 -18q84 0 131 58.5t57 150.5l55 518q10 104 -20.5 171.5t-127.5 67.5t-151.5 -67.5t-66.5 -181.5l-52 -496h-313l105 987h313
l-16 -143q107 168 344 168z" />
    <glyph glyph-name="Omacron" unicode="&#x14c;" horiz-adv-x="1648" 
d="M621 1626l24 236h754l-25 -236h-753zM479 678q0 -179 102.5 -297.5t288.5 -118.5t320.5 150.5t134.5 335.5t-101 304t-291 119t-288 -112.5t-132 -202.5t-34 -178zM137 658q0 148 60.5 296t170 262.5t263 184t331.5 69.5q331 0 516 -196t185 -486q0 -160 -60.5 -308
t-170 -264t-263.5 -184.5t-333 -68.5t-307 56.5t-216 149.5t-132 217t-44 272z" />
    <glyph glyph-name="omacron" unicode="&#x14d;" horiz-adv-x="1226" 
d="M430 448q0 -74 54.5 -140t160.5 -66t182 80.5t76 185.5q0 104 -56 170.5t-161 66.5t-180.5 -81t-75.5 -216zM360 1171l25 236h754l-25 -236h-754zM115 454q0 106 43 209t169.5 227t374.5 124q249 0 382 -135t133 -354t-169 -385.5t-419 -166.5q-249 0 -381.5 135
t-132.5 346z" />
    <glyph glyph-name="Obreve" unicode="&#x14e;" horiz-adv-x="1648" 
d="M1008 1745q90 0 141 39t76 86h252q-40 -159 -179.5 -255.5t-312.5 -96.5q-174 0 -291 97t-129 255h252q41 -125 191 -125zM479 678q0 -179 102.5 -297.5t288.5 -118.5t320.5 150.5t134.5 335.5t-101 304t-291 119t-288 -112.5t-132 -202.5t-34 -178zM137 658
q0 148 60.5 296t170 262.5t263 184t331.5 69.5q331 0 516 -196t185 -486q0 -160 -60.5 -308t-170 -264t-263.5 -184.5t-333 -68.5t-307 56.5t-216 149.5t-132 217t-44 272z" />
    <glyph glyph-name="obreve" unicode="&#x14f;" horiz-adv-x="1226" 
d="M430 448q0 -74 54.5 -140t160.5 -66t182 80.5t76 185.5q0 104 -56 170.5t-161 66.5t-180.5 -81t-75.5 -216zM754 1337q152 0 217 123h252q-40 -159 -179.5 -255.5t-312.5 -96.5q-174 0 -291 97t-129 255h252q16 -53 62.5 -88t128.5 -35zM115 454q0 106 43 209t169.5 227
t374.5 124q249 0 382 -135t133 -354t-169 -385.5t-419 -166.5q-249 0 -381.5 135t-132.5 346z" />
    <glyph glyph-name="Ohungarumlaut" unicode="&#x150;" horiz-adv-x="1648" 
d="M1141 1634l295 369l204 -127l-378 -299zM731 1634l295 369l205 -127l-379 -299zM479 678q0 -179 102.5 -297.5t288.5 -118.5t320.5 150.5t134.5 335.5t-101 304t-291 119t-288 -112.5t-132 -202.5t-34 -178zM137 658q0 148 60.5 296t170 262.5t263 184t331.5 69.5
q331 0 516 -196t185 -486q0 -160 -60.5 -308t-170 -264t-263.5 -184.5t-333 -68.5t-307 56.5t-216 149.5t-132 217t-44 272z" />
    <glyph glyph-name="ohungarumlaut" unicode="&#x151;" horiz-adv-x="1226" 
d="M776 1178l293 366l205 -125l-377 -299zM430 448q0 -74 54.5 -140t160.5 -66t182 80.5t76 185.5q0 104 -56 170.5t-161 66.5t-180.5 -81t-75.5 -216zM377 1178l293 366l204 -125l-376 -299zM115 454q0 106 43 209t169.5 227t374.5 124q249 0 382 -135t133 -354
t-169 -385.5t-419 -166.5q-249 0 -381.5 135t-132.5 346z" />
    <glyph glyph-name="OE" unicode="&#x152;" horiz-adv-x="2246" 
d="M477 675q0 -178 102.5 -296.5t291.5 -118.5t320.5 152t131.5 335t-102.5 301.5t-290.5 118.5t-286.5 -112.5t-132.5 -202.5t-34 -177zM135 643q0 158 60.5 306.5t170 264t263 185t342.5 69.5q254 0 415 -137l11 103h874l-28 -267h-545l-33 -325h545l-29 -260h-545
l-32 -316h544l-26 -266h-875l8 96q-189 -135 -438 -135q-312 0 -497 197.5t-185 484.5z" />
    <glyph glyph-name="oe" unicode="&#x153;" horiz-adv-x="1961" 
d="M1458 793q-90 0 -153.5 -50.5t-73.5 -144.5h407q10 90 -40 142.5t-140 52.5zM430 448q0 -74 54.5 -140t161.5 -66t182 81.5t75 186.5q0 106 -57.5 170.5t-161.5 64.5t-179 -81t-75 -216zM1012 119q-168 -146 -400 -146t-364.5 134.5t-132.5 352.5t169 386t417 168
t389 -146q155 146 378 146q224 0 351 -117.5t127 -300.5q0 -64 -29 -178h-707q-10 -94 33 -156.5t158 -62.5q144 0 196 112h308q-40 -147 -183 -242.5t-340 -95.5q-243 0 -370 146z" />
    <glyph glyph-name="Racute" unicode="&#x154;" horiz-adv-x="1339" 
d="M766 668q112 0 185 82t73 183t-56 165.5t-149 64.5h-227l-53 -495h227zM520 1733l592 262l76 -217l-592 -262zM891 1434q214 0 341.5 -137t127.5 -334q0 -255 -129 -365.5t-207 -144.5l240 -453h-385l-213 397h-156l-41 -397h-332l152 1434h602z" />
    <glyph glyph-name="racute" unicode="&#x155;" horiz-adv-x="854" 
d="M231 1286l592 262l76 -217l-592 -262zM811 717q-133 0 -218 -75t-106 -257l-41 -385h-313l105 987h313l-19 -160q40 71 131.5 124t194.5 53q49 0 88 -17l-31 -285q-58 15 -104 15z" />
    <glyph glyph-name="Rcommaaccent" unicode="&#x156;" horiz-adv-x="1339" 
d="M766 668q112 0 185 82t73 183t-56 165.5t-149 64.5h-227l-53 -495h227zM604 -346q-48 0 -84.5 41t-36.5 105t50.5 115.5t122.5 51.5q155 0 155 -196q0 -158 -97.5 -244t-262.5 -86l10 98q100 0 146 40t57 87q-12 -12 -60 -12zM891 1434q214 0 341.5 -137t127.5 -334
q0 -255 -129 -365.5t-207 -144.5l240 -453h-385l-213 397h-156l-41 -397h-332l152 1434h602z" />
    <glyph glyph-name="rcommaaccent" unicode="&#x157;" horiz-adv-x="854" 
d="M809 717q-133 0 -218 -75t-106 -257l-41 -385h-311l103 987h313l-17 -160q68 119 169.5 148t154.5 29t88 -17l-29 -285q-62 15 -106 15zM224 -346q-47 0 -84.5 41t-37.5 105t50.5 115.5t122.5 51.5t114.5 -47t42.5 -151q0 -158 -98 -242t-262 -84l10 98q94 0 143 37
t60 90q-14 -14 -61 -14z" />
    <glyph glyph-name="Rcaron" unicode="&#x158;" horiz-adv-x="1339" 
d="M766 668q112 0 185 82t73 183t-56 165.5t-149 64.5h-227l-53 -495h227zM459 1833l168 180l202 -201l246 201l133 -180l-409 -322zM891 1434q214 0 341.5 -137t127.5 -334q0 -255 -129 -365.5t-207 -144.5l240 -453h-385l-213 397h-156l-41 -397h-332l152 1434h602z" />
    <glyph glyph-name="rcaron" unicode="&#x159;" horiz-adv-x="854" 
d="M207 1466l168 179l203 -199l245 199l131 -179l-407 -321zM811 717q-133 0 -218 -75t-106 -257l-41 -385h-313l105 987h313l-19 -160q40 71 131.5 124t194.5 53q49 0 88 -17l-31 -285q-58 15 -104 15z" />
    <glyph glyph-name="Sacute" unicode="&#x15a;" horiz-adv-x="1241" 
d="M469 1733l594 262l78 -217l-594 -262zM658 227q94 0 153 51.5t59 140.5t-79 125t-147 62t-242.5 101t-174.5 315q0 211 161.5 329.5t399.5 118.5t355 -132.5t96 -323.5h-332q10 96 -29.5 151.5t-121.5 55.5t-138.5 -42.5t-56.5 -110.5t46.5 -108t140.5 -75t177 -71
t181 -111.5t98 -253.5q0 -218 -166.5 -352t-413.5 -134t-382.5 135.5t-112.5 376.5h332q-12 -117 45.5 -182.5t151.5 -65.5z" />
    <glyph glyph-name="sacute" unicode="&#x15b;" horiz-adv-x="1044" 
d="M322 1260l593 262l76 -217l-594 -263zM475 727q0 -35 13.5 -51.5t49.5 -33t137 -47.5t154.5 -52t112.5 -65.5t59 -150.5q0 -185 -134.5 -269.5t-348.5 -84.5q-213 0 -323.5 92.5t-92.5 266.5h308q-10 -78 30 -113t106 -35q144 0 144 97q0 48 -43.5 69t-154.5 57
q-111 35 -219.5 79.5t-108.5 202.5t126 241.5t339 83.5t311.5 -91.5t85.5 -242.5h-309q13 129 -115 129q-53 0 -90 -23.5t-37 -58.5z" />
    <glyph glyph-name="Scircumflex" unicode="&#x15c;" horiz-adv-x="1241" 
d="M401 1690l437 321l366 -321l-180 -181l-219 193l-258 -191zM658 227q94 0 153 51.5t59 140.5t-79 125t-147 62t-242.5 101t-174.5 315q0 211 161.5 329.5t399.5 118.5t355 -132.5t96 -323.5h-332q10 96 -29.5 151.5t-121.5 55.5t-138.5 -42.5t-56.5 -110.5t46.5 -108
t140.5 -75t177 -71t181 -111.5t98 -253.5q0 -218 -166.5 -352t-413.5 -134t-382.5 135.5t-112.5 376.5h332q-12 -117 45.5 -182.5t151.5 -65.5z" />
    <glyph glyph-name="scircumflex" unicode="&#x15d;" horiz-adv-x="1044" 
d="M252 1245l434 322l369 -322l-181 -178l-221 190l-256 -190zM475 727q0 -35 13.5 -51.5t49.5 -33t137 -47.5t154.5 -52t112.5 -65.5t59 -150.5q0 -185 -134.5 -269.5t-348.5 -84.5q-213 0 -323.5 92.5t-92.5 266.5h308q-10 -78 30 -113t106 -35q144 0 144 97
q0 48 -43.5 69t-154.5 57q-111 35 -219.5 79.5t-108.5 202.5t126 241.5t339 83.5t311.5 -91.5t85.5 -242.5h-309q13 129 -115 129q-53 0 -90 -23.5t-37 -58.5z" />
    <glyph glyph-name="Scedilla" unicode="&#x15e;" horiz-adv-x="1241" 
d="M774 -268q0 65 -71 65q-36 0 -56 -35h-133l21 205q-318 39 -369 217t-39 291h332q-12 -117 46.5 -182.5t152.5 -65.5t153 51.5t59 140.5t-79 125t-147 62t-242.5 101t-174.5 317q0 213 162.5 329.5t397.5 116.5t352 -131.5t100 -324.5h-332q10 96 -29.5 151.5
t-121.5 55.5t-138.5 -42t-56.5 -112t48 -109.5t137 -72.5t172 -68t184.5 -111.5t101.5 -266.5q0 -189 -144.5 -322.5t-365.5 -149.5l-8 -88q36 31 94 31t103 -46t45 -104q0 -105 -68.5 -172t-186.5 -67t-156 65.5t-38 124.5h152q8 -61 63 -61q35 0 57.5 23.5t22.5 58.5z" />
    <glyph glyph-name="scedilla" unicode="&#x15f;" horiz-adv-x="1044" 
d="M657 -266q0 67 -70 67q-34 0 -59 -34h-133l23 215q-166 23 -249 111.5t-67 238.5h308q-8 -78 32 -113t106 -35q144 0 144 97q0 50 -45 71t-92 34.5t-111 35.5q-151 51 -214.5 101.5t-63.5 164.5q0 158 124 242t338 84t314.5 -93t83.5 -241h-309q13 129 -113 129
q-51 0 -90 -22.5t-39 -58.5t13.5 -52.5t44.5 -31.5t138 -50q108 -35 161 -54.5t111 -64.5t58 -162q0 -161 -119 -243t-304 -93l-11 -94q36 31 95 31t103 -46t44 -104q0 -103 -66 -171t-184 -68q-119 0 -158 65.5t-39 124.5h152q8 -61 61 -61q35 0 58.5 23.5t23.5 56.5z" />
    <glyph glyph-name="Scaron" unicode="&#x160;" horiz-adv-x="1241" 
d="M451 1862l167 178l203 -199l246 199l133 -178l-412 -324zM658 227q94 0 153 51.5t59 140.5t-80 125t-146 62t-241.5 101t-175.5 317q0 214 165 330t401 116q235 0 351 -131.5t95 -324.5h-332q10 96 -29.5 151.5t-121.5 55.5t-138.5 -42.5t-56.5 -110.5t46.5 -108
t140.5 -75t177 -71t181 -111.5t98 -253.5q0 -218 -166.5 -352t-413.5 -134t-382.5 135.5t-112.5 376.5h332q-12 -117 45.5 -182.5t151.5 -65.5z" />
    <glyph glyph-name="scaron" unicode="&#x161;" horiz-adv-x="1044" 
d="M293 1382l168 181l203 -201l245 201l133 -181l-411 -321zM475 727q0 -35 13.5 -51.5t49.5 -33t137 -47.5t154.5 -52t112.5 -65.5t59 -150.5q0 -185 -134.5 -269.5t-348.5 -84.5q-213 0 -323.5 92.5t-92.5 266.5h308q-10 -78 30 -113t106 -35q144 0 144 97q0 48 -43.5 69
t-154.5 57q-111 35 -219.5 79.5t-108.5 202.5t126 241.5t339 83.5t311.5 -91.5t85.5 -242.5h-309q13 129 -115 129q-53 0 -90 -23.5t-37 -58.5z" />
    <glyph glyph-name="Tcommaaccent" unicode="&#x162;" horiz-adv-x="1042" 
d="M460 -346q-48 0 -84 41t-36 105t50 115.5t122 51.5q156 0 156 -196q0 -158 -97.5 -244t-263.5 -86l10 98q100 0 146.5 40t56.5 87q-12 -12 -60 -12zM152 1147l30 287h981l-30 -287h-326l-121 -1147h-332l121 1147h-323z" />
    <glyph glyph-name="tcommaaccent" unicode="&#x163;" horiz-adv-x="784" 
d="M344 -346q-47 0 -84 40t-37 106t51.5 116.5t121.5 50.5t112.5 -46t42.5 -150q0 -158 -97.5 -244t-260.5 -86l10 98q95 0 145 41q45 29 55 86q-12 -12 -59 -12zM583 244.5q54 -11.5 104 -11.5t89 7l-26 -240q-169 -29 -315.5 -10t-184 119t-25.5 223l45 422h-155l24 233
h156l31 293h311l-31 -293h225l-24 -233h-225l-37 -353q-16 -145 38 -156.5z" />
    <glyph glyph-name="Tcaron" unicode="&#x164;" horiz-adv-x="1042" 
d="M340 1833l166 180l205 -201l245 201l131 -180l-407 -322zM152 1147l30 287h981l-30 -287h-326l-121 -1147h-332l121 1147h-323z" />
    <glyph glyph-name="tcaron" unicode="&#x165;" horiz-adv-x="1300" 
d="M1063 1096q-62 0 -107 50t-45 108q0 102 63.5 166.5t154.5 64.5q192 0 192 -246q0 -193 -115.5 -302.5t-331.5 -109.5l13 123q110 0 182 51q58 46 70 109q-14 -14 -76 -14zM583 244.5q54 -11.5 104 -11.5t89 7l-26 -240q-169 -29 -315.5 -10t-184 119t-25.5 223l45 422
h-155l24 233h156l31 293h311l-31 -293h225l-24 -233h-225l-37 -353q-16 -145 38 -156.5z" />
    <glyph glyph-name="Tbar" unicode="&#x166;" horiz-adv-x="1042" 
d="M152 1147l30 287h981l-30 -287h-326l-19 -182h211l-24 -236h-211l-78 -729h-332l78 729h-211l25 236h211l18 182h-323z" />
    <glyph glyph-name="tbar" unicode="&#x167;" horiz-adv-x="784" 
d="M689 233q46 0 85 7l-24 -240q-175 -28 -365 -3t-160 335l6 61h-155l22 211h156l14 150h-155l24 233h156l33 293h311l-33 -293h225l-24 -233h-225l-15 -150h226l-23 -211h-221q-23 -139 36.5 -149.5t105.5 -10.5z" />
    <glyph glyph-name="Utilde" unicode="&#x168;" horiz-adv-x="1345" 
d="M459 1784q136 78 199 78t182.5 -28t163.5 -28t172 56l73 -183q-117 -75 -158.5 -83.5t-75.5 -8.5q-48 0 -167 26.5t-161 26.5t-146 -43zM866.5 318.5q70.5 68.5 83.5 173.5l99 942h331l-98 -945q-24 -226 -193 -376t-420.5 -150t-389.5 150.5t-113 375.5l98 945h332
l-98 -942q-12 -100 44 -171t155 -71t169.5 68.5z" />
    <glyph glyph-name="utilde" unicode="&#x169;" horiz-adv-x="1243" 
d="M1151 1237q-125 -92 -245 -92q-42 0 -156 26.5t-157 26.5q-44 0 -149 -43l-84 186q139 78 204 78t179 -27.5t160 -27.5t172 55zM630 242q98 0 152 67.5t66 182.5l51 495h313l-102 -987h-313l14 141q-49 -78 -138 -122t-199 -44q-189 0 -269 113q-41 57 -47 132t4 181
l61 586h312l-54 -506q-10 -106 20.5 -172.5t128.5 -66.5z" />
    <glyph glyph-name="Umacron" unicode="&#x16a;" horiz-adv-x="1345" 
d="M469 1663l25 233h753l-24 -233h-754zM866.5 318.5q70.5 68.5 83.5 173.5l99 942h331l-98 -945q-24 -226 -193 -376t-420.5 -150t-389.5 150.5t-113 375.5l98 945h332l-98 -942q-12 -100 44 -171t155 -71t169.5 68.5z" />
    <glyph glyph-name="umacron" unicode="&#x16b;" horiz-adv-x="1243" 
d="M367 1171l24 236h754l-25 -236h-753zM630 242q98 0 152 67.5t66 182.5l51 495h313l-102 -987h-313l14 141q-49 -78 -138 -122t-199 -44q-189 0 -269 113q-41 57 -47 132t4 181l61 586h312l-54 -506q-10 -106 20.5 -172.5t128.5 -66.5z" />
    <glyph glyph-name="Ubreve" unicode="&#x16c;" horiz-adv-x="1345" 
d="M855 1749q150 0 218 125h252q-39 -156 -178.5 -254t-314.5 -98t-290.5 96t-127.5 256h250q41 -125 191 -125zM866.5 318.5q70.5 68.5 83.5 173.5l99 942h331l-98 -945q-24 -226 -193 -376t-420.5 -150t-389.5 150.5t-113 375.5l98 945h332l-98 -942q-12 -100 44 -171
t155 -71t169.5 68.5z" />
    <glyph glyph-name="ubreve" unicode="&#x16d;" horiz-adv-x="1243" 
d="M1231 1460q-39 -156 -178.5 -254t-314.5 -98t-290 95.5t-129 256.5h250q42 -123 191 -123t219 123h252zM630 242q98 0 152 67.5t66 182.5l51 495h313l-102 -987h-313l14 141q-49 -78 -138 -122t-199 -44q-189 0 -269 113q-41 57 -47 132t4 181l61 586h312l-54 -506
q-10 -106 20.5 -172.5t128.5 -66.5z" />
    <glyph glyph-name="Uring" unicode="&#x16e;" horiz-adv-x="1345" 
d="M766 1756q0 -38 23.5 -61.5t60.5 -23.5t68.5 28.5t31.5 66.5t-23.5 62.5t-62.5 24.5t-68.5 -29.5t-29.5 -67.5zM672.5 1947.5q90.5 88.5 203.5 88.5t186 -73t73 -187t-91 -202.5t-207 -88.5t-185.5 73t-69.5 187t90.5 202.5zM866.5 318.5q70.5 68.5 83.5 173.5l99 942
h331l-98 -945q-24 -226 -193 -376t-420.5 -150t-389.5 150.5t-113 375.5l98 945h332l-98 -942q-12 -100 44 -171t155 -71t169.5 68.5z" />
    <glyph glyph-name="uring" unicode="&#x16f;" horiz-adv-x="1243" 
d="M659 1328q0 -38 22.5 -61.5t60.5 -23.5t69 29.5t31 67.5t-23.5 61.5t-61.5 23.5t-68 -29.5t-30 -67.5zM563.5 1519.5q90.5 88.5 206.5 88.5t187 -74t71 -186t-91.5 -201.5t-204.5 -89.5t-186 72t-73 187t90.5 203.5zM630 242q98 0 152 67.5t66 182.5l51 495h313
l-102 -987h-313l14 141q-49 -78 -138 -122t-199 -44q-189 0 -269 113q-41 57 -47 132t4 181l61 586h312l-54 -506q-10 -106 20.5 -172.5t128.5 -66.5z" />
    <glyph glyph-name="Uhungarumlaut" unicode="&#x170;" horiz-adv-x="1345" 
d="M864 1634l295 369l203 -127l-377 -299zM465 1634l295 369l203 -127l-377 -299zM866.5 318.5q70.5 68.5 83.5 173.5l99 942h331l-98 -945q-24 -226 -193 -376t-420.5 -150t-389.5 150.5t-113 375.5l98 945h332l-98 -942q-12 -100 44 -171t155 -71t169.5 68.5z" />
    <glyph glyph-name="uhungarumlaut" unicode="&#x171;" horiz-adv-x="1243" 
d="M766 1145l295 368l205 -127l-379 -299zM367 1145l295 368l204 -127l-379 -299zM630 242q98 0 152 67.5t66 182.5l51 495h313l-102 -987h-313l14 141q-49 -78 -138 -122t-199 -44q-189 0 -269 113q-41 57 -47 132t4 181l61 586h312l-54 -506q-10 -106 20.5 -172.5
t128.5 -66.5z" />
    <glyph glyph-name="Uogonek" unicode="&#x172;" horiz-adv-x="1345" 
d="M664 -170q0 -98 88 -98q52 0 112 24l-20 -159q-91 -31 -207 -31q-117 0 -172 52t-55 120t32.5 122t114.5 111q-202 32 -306.5 175.5t-84.5 342.5l98 945h334l-98 -942q-13 -103 44 -172.5t155.5 -69.5t169 68.5t83.5 173.5l99 942h329l-98 -945q-20 -206 -164 -350
t-368 -170q-86 -61 -86 -139z" />
    <glyph glyph-name="uogonek" unicode="&#x173;" horiz-adv-x="1243" 
d="M630 242q98 0 152 67.5t66 182.5l51 495h313l-102 -987h-113q-47 -29 -90 -67.5t-43 -90.5q0 -110 88 -110q51 0 113 24l-21 -159q-91 -31 -205 -31t-172.5 52t-58.5 126t45 133.5t144 122.5l14 141q-49 -78 -138 -122t-199 -44q-189 0 -269 113q-41 57 -47 132t4 181
l61 586h312l-54 -506q-10 -106 20.5 -172.5t128.5 -66.5z" />
    <glyph glyph-name="Wcircumflex" unicode="&#x174;" horiz-adv-x="2119" 
d="M836 1690l436 321l366 -321l-180 -181l-219 193l-258 -191zM150 1434h350l194 -940l389 940h256l195 -940l389 940h350l-657 -1434h-270l-189 901l-381 -901h-272z" />
    <glyph glyph-name="wcircumflex" unicode="&#x175;" horiz-adv-x="1644" 
d="M551 1245l436 322l367 -322l-180 -178l-220 190l-258 -190zM102 987h324l121 -588l235 588h289l113 -588l243 588h324l-473 -987h-254l-133 629l-270 -629h-254z" />
    <glyph glyph-name="Ycircumflex" unicode="&#x176;" horiz-adv-x="1312" 
d="M432 1690l436 321l367 -321l-180 -181l-219 193l-258 -191zM160 1434h387l246 -564l321 564h367l-863 -1434h-366l321 539z" />
    <glyph glyph-name="ycircumflex" unicode="&#x177;" horiz-adv-x="1259" 
d="M358 1245l435 322l368 -322l-180 -178l-219 190l-258 -190zM595 -242q101 0 153.5 53.5t66.5 178.5l19 168q-49 -80 -138.5 -124t-199.5 -44q-190 0 -269 112q-41 57 -47 132t4 182l60 571h313l-53 -506q-10 -106 19.5 -172.5t127.5 -66.5t151.5 67.5t65.5 182.5l52 495
h313l-103 -981q-27 -252 -157.5 -365.5t-390.5 -113.5q-390 0 -435 154.5t-34 242.5h307q-6 -72 34 -119t141 -47z" />
    <glyph glyph-name="Ydieresis" unicode="&#x178;" horiz-adv-x="1312" 
d="M942 1714q0 98 61.5 158.5t141.5 60.5t128 -49.5t48 -105.5q0 -94 -62.5 -155.5t-142.5 -61.5t-127 47.5t-47 105.5zM449 1716q0 99 61.5 158t142.5 59q80 0 127 -49.5t47 -105.5q0 -98 -61.5 -157.5t-141.5 -59.5t-127.5 49.5t-47.5 105.5zM160 1434h387l246 -564
l321 564h367l-863 -1434h-366l321 539z" />
    <glyph glyph-name="Zacute" unicode="&#x179;" horiz-adv-x="1294" 
d="M506 1733l592 262l76 -217l-592 -262zM35 0l821 1155h-643l31 279h1171l-825 -1155h680l-29 -279h-1206z" />
    <glyph glyph-name="zacute" unicode="&#x17a;" horiz-adv-x="983" 
d="M293 1257l592 263l78 -217l-594 -263zM37 0l512 721h-410l29 266h893l-510 -721h420l-29 -266h-905z" />
    <glyph glyph-name="Zdotaccent" unicode="&#x17b;" horiz-adv-x="1294" 
d="M643 1732q0 98 62.5 161t145.5 63t132 -52.5t49 -109.5q0 -99 -64 -161t-147 -62q-82 0 -130 51.5t-48 109.5zM35 0l821 1155h-643l31 279h1171l-825 -1155h680l-29 -279h-1206z" />
    <glyph glyph-name="zdotaccent" unicode="&#x17c;" horiz-adv-x="983" 
d="M434 1258q0 98 62.5 160.5t145.5 62.5t132 -51.5t49 -109.5q0 -98 -63.5 -160t-146.5 -62t-131 51t-48 109zM37 0l512 721h-410l29 266h893l-510 -721h420l-29 -266h-905z" />
    <glyph glyph-name="Zcaron" unicode="&#x17d;" horiz-adv-x="1294" 
d="M477 1804l168 178l203 -198l246 198l131 -178l-410 -323zM35 0l821 1155h-643l31 279h1171l-825 -1155h680l-29 -279h-1206z" />
    <glyph glyph-name="zcaron" unicode="&#x17e;" horiz-adv-x="983" 
d="M281 1354l168 178l202 -199l248 199l129 -178l-407 -324zM37 0l512 721h-410l29 266h893l-510 -721h420l-29 -266h-905z" />
    <glyph glyph-name="longs" unicode="&#x17f;" horiz-adv-x="778" 
d="M681.5 1192q-37.5 -25 -44.5 -100l-115 -1092h-311l80 754h-178l24 233h178l9 86q21 234 135.5 308.5t243.5 74.5t202 -26l-24 -226q-50 13 -106 13t-93.5 -25z" />
    <glyph glyph-name="florin" unicode="&#x192;" horiz-adv-x="974" 
d="M108 -122q41 25 70 106l215 770h-178l66 233h178l24 86q65 235 191 309t259 74t191 -26l-63 -226q-50 13 -85 13q-72 0 -112.5 -24.5t-62.5 -100.5l-29 -105h227l-65 -233h-229l-213 -758q-67 -233 -189 -308t-257 -75t-196 27l64 225q46 -12 99 -12q54 0 95 25z" />
    <glyph glyph-name="Aringacute" unicode="&#x1fa;" horiz-adv-x="1351" 
d="M776 1548q0 -22 16 -37.5t38 -15.5t40.5 18.5t18.5 39.5t-13 37t-37 16t-43.5 -18t-19.5 -40zM567 1788l506 233l49 -133l-506 -235zM543 434h348l-109 590zM1004 1559q0 -69 -62 -125h35l366 -1434h-360l-37 174h-510l-74 -174h-354l660 1432h34q-38 39 -38 90
q1 86 54.5 141t125.5 55t116 -45t44 -114z" />
    <glyph glyph-name="aringacute" unicode="&#x1fb;" horiz-adv-x="1300" 
d="M635 1271q0 -36 21.5 -57.5t56.5 -21.5t63.5 27.5t28.5 63.5t-21.5 58.5t-59.5 22.5t-63.5 -28.5t-25.5 -64.5zM548 1449q87 83 192 83t171 -68t66 -173t-85.5 -188t-192.5 -83q-106 0 -172 68t-66 173t87 188zM434 448q0 -74 56.5 -140t161.5 -66t180 81t75 184
t-55 170.5t-160 67.5t-181.5 -82t-76.5 -215zM428 1677l553 250l74 -198l-553 -248zM121 452q0 110 42 214t114.5 181t167.5 121t203 44t185.5 -47t110.5 -119l14 141h314l-105 -987h-313l14 139q-43 -68 -130 -116t-189 -48t-179 35t-132.5 97.5t-86 148.5t-30.5 196z" />
    <glyph glyph-name="AEacute" unicode="&#x1fc;" horiz-adv-x="1882" 
d="M934 1733l592 262l78 -217l-592 -262zM600 436h320l73 701zM2 0l840 1434h1059l-29 -267h-543l-35 -325h543l-27 -260h-542l-33 -316h543l-29 -266h-875l19 176h-434l-97 -176h-360z" />
    <glyph glyph-name="aeacute" unicode="&#x1fd;" horiz-adv-x="1968" 
d="M1463 793q-89 0 -153.5 -50.5t-74.5 -144.5h407q10 88 -40 141.5t-139 53.5zM782 1235l592 262l76 -215l-592 -262zM490.5 308.5q56.5 -66.5 161.5 -66.5t180 81t75 186t-56 170.5t-162 65.5t-180.5 -82.5t-74.5 -184.5q0 -103 56.5 -169.5zM1369 -27q-122 0 -228 54
l-4 -27h-283l14 139q-43 -68 -130 -116t-189 -48q-194 0 -311 132t-117 353t155.5 386.5t371.5 165.5q108 0 185.5 -47t110.5 -119l14 141h283l-2 -24q118 51 237 51q225 0 348.5 -123.5t123.5 -321.5q0 -61 -9.5 -94t-15.5 -57h-709q-10 -92 34 -155.5t172 -63.5t182 112
h307q-36 -146 -180.5 -242t-359.5 -96z" />
    <glyph glyph-name="Oslashacute" unicode="&#x1fe;" horiz-adv-x="1648" 
d="M854 262q204 0 337.5 149.5t133.5 329.5t-84 289l-410 -768h23zM674 1733l594 262l75 -217l-593 -262zM479 682q0 -176 80 -281l412 770h-21q-207 0 -305 -112.5t-132 -202.5t-34 -174zM137 645q0 160 59.5 308.5t170 263t266 184t346.5 69.5q78 0 143 -12l90 164
l279 -125l-84 -158q187 -139 221.5 -305t34.5 -248q0 -158 -59.5 -306t-170 -263t-265 -184.5t-345.5 -69.5q-78 0 -147 12l-78 -149l-281 125l76 141q-186 133 -221 302t-35 251z" />
    <glyph glyph-name="oslashacute" unicode="&#x1ff;" horiz-adv-x="1226" 
d="M903 504q0 101 -41 158l-223 -420q111 0 187.5 80.5t76.5 181.5zM430 483q0 -97 35 -153l225 415q-110 0 -185 -82.5t-75 -179.5zM414 1260l592 262l75 -217l-592 -263zM115 440q0 240 168 407t432 167q47 0 112 -10l86 161l177 -78l-80 -149q102 -61 154.5 -166.5
t52.5 -225.5q0 -239 -169 -406t-434 -167q-42 0 -114 11l-84 -162l-178 84l77 143q-98 61 -149 167t-51 224z" />
    <glyph glyph-name="Scommaaccent" unicode="&#x218;" horiz-adv-x="1241" 
d="M558 -367q-46 0 -83 41.5t-37 105.5t52 115.5t122 51.5t112 -46t42 -151q0 -158 -97.5 -244t-260.5 -86l10 99q100 0 145 40t55 87q-14 -13 -60 -13zM658 227q94 0 153 51.5t59 140.5t-79 125t-147 62t-242.5 101t-174.5 315q0 211 161.5 329.5t399.5 118.5t355 -132.5
t96 -323.5h-332q10 96 -29.5 151.5t-121.5 55.5t-138.5 -42.5t-56.5 -110.5t46.5 -108t140.5 -75t177 -71t181 -111.5t98 -253.5q0 -218 -166.5 -352t-413.5 -134t-382.5 135.5t-112.5 376.5h332q-12 -117 45.5 -182.5t151.5 -65.5z" />
    <glyph glyph-name="scommaaccent" unicode="&#x219;" horiz-adv-x="1044" 
d="M460 -350q-48 0 -85 42t-37 106t51 114.5t123 50.5q154 0 154 -196q0 -160 -97.5 -244t-259.5 -84l10 98q125 0 161 49t42 78q-14 -14 -62 -14zM475 727q0 -35 13.5 -51.5t44.5 -31.5t137 -49q106 -33 218.5 -77t112.5 -192q0 -184 -134.5 -268.5t-348.5 -84.5
q-213 0 -323.5 92.5t-92.5 266.5l308 -2q-10 -78 30 -112t106 -34q144 0 144 97q0 48 -43.5 69t-154.5 57q-111 35 -219.5 79.5t-108.5 202.5t126 241.5t339 83.5t311.5 -91.5t85.5 -242.5h-309q13 129 -115 129q-53 0 -90 -23.5t-37 -58.5z" />
    <glyph glyph-name="uni021A" unicode="&#x21a;" horiz-adv-x="1042" 
d="M460 -346q-48 0 -84 41t-36 105t50 115.5t122 51.5q156 0 156 -196q0 -158 -97.5 -244t-263.5 -86l10 98q100 0 146.5 40t56.5 87q-12 -12 -60 -12zM152 1147l30 287h981l-30 -287h-326l-121 -1147h-332l121 1147h-323z" />
    <glyph glyph-name="uni021B" unicode="&#x21b;" horiz-adv-x="784" 
d="M341 -346q-48 0 -85 40t-37 106t51.5 116.5t123.5 50.5q154 0 153 -196q0 -160 -97.5 -245t-259.5 -85l11 98q90 0 140 37t60 90q-12 -12 -60 -12zM583 244.5q54 -11.5 104 -11.5t89 7l-26 -240q-169 -29 -315.5 -10t-184 119t-25.5 223l45 422h-155l24 233h156l31 293
h311l-31 -293h225l-24 -233h-225l-37 -353q-16 -145 38 -156.5z" />
    <glyph glyph-name="apostrophemod" unicode="&#x2bc;" horiz-adv-x="610" 
d="M401 1126q-78 0 -124 51t-46 109q0 104 65.5 167t155.5 63q189 0 189 -244q0 -190 -113.5 -301t-332.5 -111l12 121q110 0 175 47t79 113q-23 -15 -60 -15z" />
    <glyph glyph-name="circumflex" unicode="&#x2c6;" horiz-adv-x="999" 
d="M242 1403l436 321l366 -321l-180 -180l-219 192l-258 -190z" />
    <glyph glyph-name="caron" unicode="&#x2c7;" horiz-adv-x="944" 
d="M262 1559l168 180l203 -201l246 201l131 -180l-410 -322z" />
    <glyph glyph-name="breve" unicode="&#x2d8;" horiz-adv-x="1118" 
d="M733 1626q86 0 137.5 39t75.5 86h252q-40 -159 -179.5 -255.5t-312.5 -96.5q-174 0 -290.5 96.5t-128.5 255.5h252q36 -125 194 -125z" />
    <glyph glyph-name="dotaccent" unicode="&#x2d9;" horiz-adv-x="1015" 
d="M446 1242q0 100 64 162t146 62q81 0 131.5 -51t50.5 -109q0 -98 -64.5 -160.5t-146.5 -62.5t-131.5 50.5t-49.5 108.5z" />
    <glyph glyph-name="ring" unicode="&#x2da;" horiz-adv-x="1015" 
d="M569 1454q0 -37 24.5 -61.5t61.5 -24.5t67 29.5t30 67.5t-22.5 62.5t-61.5 24.5t-69 -30.5t-30 -67.5zM473.5 1644.5q90.5 88.5 204.5 88.5t186 -72t72 -186t-90.5 -202.5t-205.5 -88.5t-186 73t-71 186t90.5 201.5z" />
    <glyph glyph-name="ogonek" unicode="&#x2db;" horiz-adv-x="976" 
d="M233 -254q0 74 46.5 132.5t142.5 121.5h201q-47 -29 -90.5 -67.5t-43.5 -90.5q0 -110 89 -110q50 0 112 24l-20 -159q-91 -31 -205 -31q-115 0 -173.5 53t-58.5 127z" />
    <glyph glyph-name="tilde" unicode="&#x2dc;" horiz-adv-x="1050" 
d="M268 1356q139 78 199 78t182.5 -28t164.5 -28q41 0 169 56l76 -185q-128 -92 -238 -92q-42 0 -161.5 26.5t-165.5 26.5t-144 -43z" />
    <glyph glyph-name="hungarumlaut" unicode="&#x2dd;" horiz-adv-x="1042" 
d="M653 1163l295 367l203 -125l-377 -299zM254 1163l295 367l203 -125l-377 -299z" />
    <glyph glyph-name="Delta" unicode="&#x394;" horiz-adv-x="1351" 
d="M473 260h451l-142 764zM8 0l664 1434h305l366 -1434h-1335z" />
    <glyph glyph-name="Omega" unicode="&#x3a9;" horiz-adv-x="1480" 
d="M164 760q0 146 52 269.5t147.5 218.5t229 152.5t287.5 57.5q288 0 449.5 -166.5t161.5 -408.5q0 -195 -107 -354.5t-292 -237.5l-5 -31h308l-27 -260h-563l47 446q154 34 229.5 150.5t75.5 255.5q0 213 -110.5 261t-191.5 48q-164 0 -262.5 -114.5t-98.5 -287.5
t82.5 -235.5t146.5 -77.5l-47 -446h-563l26 260h307l5 31q-139 66 -213 194.5t-74 274.5z" />
    <glyph glyph-name="mu" unicode="&#x3bc;" 
d="M644 242q97 0 150.5 67.5t65.5 182.5l51 495h316l-105 -987h-313l14 141q-94 -145 -297 -161q-47 0 -84 12l-45 -438h-311l152 1433h309l-53 -510q-10 -104 21.5 -169.5t128.5 -65.5z" />
    <glyph glyph-name="pi" unicode="&#x3c0;" 
d="M123 752l24 235h1170l-25 -235h-143l-80 -752h-313l80 752h-256l-80 -752h-314l80 752h-143z" />
    <glyph glyph-name="Wgrave" unicode="&#x1e80;" horiz-adv-x="2119" 
d="M915 1778l123 217l537 -262l-123 -217zM150 1434h350l194 -940l389 940h256l195 -940l389 940h350l-657 -1434h-270l-189 901l-381 -901h-272z" />
    <glyph glyph-name="wgrave" unicode="&#x1e81;" horiz-adv-x="1644" 
d="M627 1305l123 217l538 -262l-123 -218zM102 987h324l121 -588l235 588h289l113 -588l243 588h324l-473 -987h-254l-133 629l-270 -629h-254z" />
    <glyph glyph-name="Wacute" unicode="&#x1e82;" horiz-adv-x="2119" 
d="M909 1733l594 262l78 -217l-594 -262zM150 1434h350l194 -940l389 940h256l195 -940l389 940h350l-657 -1434h-270l-189 901l-381 -901h-272z" />
    <glyph glyph-name="wacute" unicode="&#x1e83;" horiz-adv-x="1644" 
d="M623 1260l591 262l78 -217l-592 -263zM102 987h324l121 -588l235 588h289l113 -588l243 588h324l-473 -987h-254l-133 629l-270 -629h-254z" />
    <glyph glyph-name="Wdieresis" unicode="&#x1e84;" horiz-adv-x="2119" 
d="M1305 1736q0 101 62.5 160.5t140.5 59.5q79 0 126 -50.5t47 -105.5q0 -99 -62.5 -158t-140.5 -59q-79 0 -126 47.5t-47 105.5zM811 1738q0 99 62 158.5t143 59.5q80 0 127 -50.5t47 -105.5q0 -97 -62 -157t-143 -60q-80 0 -127 49.5t-47 105.5zM150 1434h350l194 -940
l389 940h256l195 -940l389 940h350l-657 -1434h-270l-189 901l-381 -901h-272z" />
    <glyph glyph-name="wdieresis" unicode="&#x1e85;" horiz-adv-x="1644" 
d="M1016 1258q0 100 62 159.5t142 59.5q79 0 126 -50.5t47 -105.5q0 -97 -62 -157t-142 -60q-79 0 -126 48t-47 106zM522 1258q0 99 62 159t143 60q80 0 127 -50.5t47 -105.5q0 -97 -62 -157t-143 -60q-80 0 -127 49t-47 105zM102 987h324l121 -588l235 588h289l113 -588
l243 588h324l-473 -987h-254l-133 629l-270 -629h-254z" />
    <glyph glyph-name="Ygrave" unicode="&#x1ef2;" horiz-adv-x="1312" 
d="M512 1778l121 217l536 -262l-120 -217zM160 1434h387l246 -564l321 564h367l-863 -1434h-366l321 539z" />
    <glyph glyph-name="ygrave" unicode="&#x1ef3;" horiz-adv-x="1259" 
d="M434 1305l121 217l539 -262l-123 -218zM595 -242q101 0 153.5 53.5t66.5 178.5l19 168q-49 -80 -138.5 -124t-199.5 -44q-190 0 -269 112q-41 57 -47 132t4 182l60 571h313l-53 -506q-10 -106 19.5 -172.5t127.5 -66.5t151.5 67.5t65.5 182.5l52 495h313l-103 -981
q-27 -252 -157.5 -365.5t-390.5 -113.5q-390 0 -435 154.5t-34 242.5h307q-6 -72 34 -119t141 -47z" />
    <glyph glyph-name="uni2000" unicode="&#x2000;" horiz-adv-x="1020" 
 />
    <glyph glyph-name="uni2001" unicode="&#x2001;" horiz-adv-x="2040" 
 />
    <glyph glyph-name="uni2002" unicode="&#x2002;" horiz-adv-x="1020" 
 />
    <glyph glyph-name="uni2003" unicode="&#x2003;" horiz-adv-x="2040" 
 />
    <glyph glyph-name="uni2004" unicode="&#x2004;" horiz-adv-x="680" 
 />
    <glyph glyph-name="uni2005" unicode="&#x2005;" horiz-adv-x="510" 
 />
    <glyph glyph-name="uni2006" unicode="&#x2006;" horiz-adv-x="340" 
 />
    <glyph glyph-name="uni2007" unicode="&#x2007;" horiz-adv-x="340" 
 />
    <glyph glyph-name="uni2008" unicode="&#x2008;" horiz-adv-x="255" 
 />
    <glyph glyph-name="uni2009" unicode="&#x2009;" horiz-adv-x="408" 
 />
    <glyph glyph-name="uni200A" unicode="&#x200a;" horiz-adv-x="113" 
 />
    <glyph glyph-name="uni2010" unicode="&#x2010;" horiz-adv-x="649" 
d="M117 483l26 250h519l-27 -250h-518z" />
    <glyph glyph-name="uni2011" unicode="&#x2011;" horiz-adv-x="649" 
d="M117 483l26 250h519l-27 -250h-518z" />
    <glyph glyph-name="figuredash" unicode="&#x2012;" horiz-adv-x="649" 
d="M117 483l26 250h519l-27 -250h-518z" />
    <glyph glyph-name="endash" unicode="&#x2013;" horiz-adv-x="1030" 
d="M133 483l27 250h866l-27 -250h-866z" />
    <glyph glyph-name="emdash" unicode="&#x2014;" horiz-adv-x="2060" 
d="M143 483l27 250h1876l-27 -250h-1876z" />
    <glyph glyph-name="quoteleft" unicode="&#x2018;" horiz-adv-x="610" 
d="M219 1104q0 197 118 304.5t329 107.5l-15 -123q-208 0 -252 -158q29 14 60 14q76 0 123 -51.5t47 -109.5q0 -103 -65 -165.5t-155 -62.5q-190 0 -190 244z" />
    <glyph glyph-name="quoteright" unicode="&#x2019;" horiz-adv-x="610" 
d="M401 1126q-78 0 -124 51t-46 109q0 104 65.5 167t155.5 63q189 0 189 -244q0 -190 -113.5 -301t-332.5 -111l12 121q110 0 175 47t79 113q-23 -15 -60 -15z" />
    <glyph glyph-name="quotesinglbase" unicode="&#x201a;" horiz-adv-x="610" 
d="M260 -37q-62 0 -106.5 50.5t-44.5 108.5q0 104 64 167t153 63q192 0 192 -243q0 -190 -114.5 -301t-331.5 -111l12 121q115 0 177 46q61 46 75 113q-14 -14 -76 -14z" />
    <glyph glyph-name="quotedblleft" unicode="&#x201c;" horiz-adv-x="1071" 
d="M936 1249q62 0 108 -50.5t46 -108.5q0 -104 -66 -167t-155 -63q-189 0 -189 244q0 193 115.5 302.5t330.5 109.5l-14 -123q-117 0 -180 -50q-56 -40 -72 -108q14 14 76 14zM219 1104q0 197 118 304.5t329 107.5l-15 -123q-208 0 -252 -158q29 14 60 14q76 0 123 -51.5
t47 -109.5q0 -103 -65 -165.5t-155 -62.5q-190 0 -190 244z" />
    <glyph glyph-name="quotedblright" unicode="&#x201d;" horiz-adv-x="1071" 
d="M860 1126q-76 0 -122 51t-46 109q0 103 65 166.5t155 63.5q190 0 190 -244q0 -193 -117 -302.5t-330 -109.5l13 121q110 0 182 51q50 37 72 109q-22 -15 -62 -15zM384 1126q-62 0 -107.5 51t-45.5 109q0 104 65.5 167t155.5 63q189 0 189 -244q0 -190 -113.5 -301
t-332.5 -111l12 121q110 0 175 47t79 113q-15 -15 -77 -15z" />
    <glyph glyph-name="quotedblbase" unicode="&#x201e;" horiz-adv-x="1071" 
d="M723 -37q-60 0 -107 50.5t-47 108.5q0 103 64.5 166.5t153.5 63.5q192 0 192 -243q0 -193 -115.5 -302.5t-331.5 -109.5l13 121q113 0 170.5 42.5t81.5 116.5q-14 -14 -74 -14zM260 -37q-62 0 -106.5 50.5t-44.5 108.5q0 104 64 167t153 63q192 0 192 -243
q0 -190 -114.5 -301t-331.5 -111l12 121q115 0 177 46q61 46 75 113q-14 -14 -76 -14z" />
    <glyph glyph-name="dagger" unicode="&#x2020;" horiz-adv-x="954" 
d="M188 715l25 229h238l55 524h254l-55 -524h235l-25 -229h-235l-115 -1088h-254l115 1088h-238z" />
    <glyph glyph-name="daggerdbl" unicode="&#x2021;" horiz-adv-x="954" 
d="M113 0l22 223h238l57 539h-237l24 225h238l49 481h254l-49 -481h235l-24 -225h-236l-57 -539h235l-22 -223h-236l-39 -373h-254l39 373h-237z" />
    <glyph glyph-name="bullet" unicode="&#x2022;" horiz-adv-x="743" 
d="M252.5 824.5q90.5 88.5 205.5 88.5t187 -71t72 -185q0 -113 -90.5 -201.5t-207.5 -88.5t-187 72t-70 185q0 112 90.5 200.5z" />
    <glyph glyph-name="ellipsis" unicode="&#x2026;" horiz-adv-x="2019" 
d="M1522 150q0 106 66.5 172.5t155.5 66.5t141 -53.5t52 -115.5q0 -108 -65.5 -174t-155.5 -66t-142 54t-52 116zM821 150q0 108 70 174.5t156 66.5t138 -54.5t52 -116.5q0 -106 -65.5 -173t-156.5 -67t-142.5 54t-51.5 116zM121 152q0 108 69 174.5t156 66.5
q86 0 138.5 -54.5t52.5 -116.5q0 -106 -66.5 -173t-156.5 -67t-141.5 54t-51.5 116z" />
    <glyph glyph-name="uni202F" unicode="&#x202f;" horiz-adv-x="408" 
 />
    <glyph glyph-name="perthousand" unicode="&#x2030;" horiz-adv-x="2715" 
d="M2289 160q46 0 76.5 31.5t34.5 74.5l27 256q4 43 -19.5 75t-69.5 32t-75 -32t-33 -75l-26 -256q-4 -43 17.5 -74.5t67.5 -31.5zM2580 723.5q78 -83.5 66 -201.5l-27 -256q-13 -122 -110 -203t-240.5 -81t-221 82.5t-62.5 201.5l26 256q12 118 106.5 201.5t239.5 83.5
t223 -83.5zM1535 160q46 0 76.5 31.5t35.5 74.5l26 256q4 43 -19.5 75t-69.5 32t-74.5 -32t-32.5 -75l-27 -256q-4 -43 17.5 -74.5t67.5 -31.5zM1825.5 724q78.5 -83 66.5 -202l-26 -256q-13 -121 -110.5 -202.5t-240.5 -81.5q-144 0 -220.5 81.5t-63.5 202.5l26 256
q12 118 106.5 201.5t239 83.5t223 -83zM457 0l981 1544l204 -108l-980 -1545zM525 805q46 0 77 31.5t35 74.5l27 256q4 43 -20 75t-70 32t-74.5 -32t-32.5 -75l-27 -256q-4 -43 17.5 -74.5t67.5 -31.5zM816 1369q79 -83 67 -202l-27 -256q-13 -120 -110.5 -202t-241.5 -82
t-219.5 83t-63.5 201l27 256q13 119 106.5 202t238 83t223.5 -83z" />
    <glyph glyph-name="guilsinglleft" unicode="&#x2039;" horiz-adv-x="598" 
d="M129 514l16 164l476 354l-29 -272l-230 -164l195 -164l-29 -272z" />
    <glyph glyph-name="guilsinglright" unicode="&#x203a;" horiz-adv-x="598" 
d="M102 160l29 272l225 164l-190 164l29 272l399 -354l-19 -164z" />
    <glyph glyph-name="fraction" unicode="&#x2044;" horiz-adv-x="419" 
d="M-307 0l981 1544l205 -108l-983 -1545z" />
    <glyph glyph-name="uni205F" unicode="&#x205f;" horiz-adv-x="510" 
 />
    <glyph glyph-name="Euro" unicode="&#x20ac;" horiz-adv-x="1290" 
d="M1211.5 1328.5q135.5 -135.5 127.5 -341.5h-331q-2 84 -52.5 140.5t-145.5 56.5t-159.5 -67t-75.5 -167h351l-60 -178h-309l-12 -108h350l-59 -181h-310q-12 -98 40.5 -165.5t148.5 -67.5t162 66t79 167h332q-20 -211 -188.5 -362.5t-413 -151.5t-379 151t-112.5 363
h-127l59 181h86l12 108h-127l60 178h86q21 214 187 364t405 150q240 0 375.5 -135.5z" />
    <glyph glyph-name="afii61289" unicode="&#x2113;" horiz-adv-x="976" 
d="M821 1132q0 106 -65 107q-45 0 -76 -47t-39 -119l-31 -289q113 90 162 166t49 182zM764 1468q164 0 236.5 -96t72.5 -221t-39 -215t-127.5 -193.5t-326.5 -265.5l-13 -119q-15 -124 56 -133.5t138 -9.5t130 14l-25 -233q-77 -25 -191 -25t-174.5 6.5t-144.5 57.5t-75 252
l-138 -88l-94 223l256 158l49 458q23 211 134.5 320.5t275.5 109.5z" />
    <glyph glyph-name="afii61352" unicode="&#x2116;" horiz-adv-x="2373" 
d="M1804 1022q0 -78 42 -126t121 -48t134.5 60.5t55.5 137.5t-42 125t-121 48t-134.5 -59.5t-55.5 -137.5zM1526 1001q0 86 34.5 170t138 184.5t313.5 100.5q209 0 316 -109t107 -287t-139.5 -313t-347.5 -135t-315 109t-107 280zM1456 352l25 223h905l-25 -223h-905zM137 0
l152 1434h346l420 -934l98 934h330l-152 -1434h-346l-420 922l-96 -922h-332z" />
    <glyph glyph-name="trademark" unicode="&#x2122;" horiz-adv-x="1714" 
d="M801 600l88 834h285l114 -543l230 543h274l-88 -834h-188l63 598l-252 -598h-137l-137 619l-66 -619h-186zM199 1266l18 168h561l-18 -168h-185l-69 -666h-193l70 666h-184z" />
    <glyph glyph-name="uni2126" unicode="&#x2126;" horiz-adv-x="1480" 
d="M164 760q0 146 52 269.5t147.5 218.5t229 152.5t287.5 57.5q288 0 449.5 -166.5t161.5 -408.5q0 -195 -107 -354.5t-292 -237.5l-5 -31h308l-27 -260h-563l47 446q154 34 229.5 150.5t75.5 255.5q0 213 -110.5 261t-191.5 48q-164 0 -262.5 -114.5t-98.5 -287.5
t82.5 -235.5t146.5 -77.5l-47 -446h-563l26 260h307l5 31q-139 66 -213 194.5t-74 274.5z" />
    <glyph glyph-name="estimated" unicode="&#x212e;" horiz-adv-x="1091" 
d="M844 920q-83 49 -197 49q-113 0 -209 -54l-39 -364h406zM557 -25q-215 0 -326.5 134.5t-111.5 334.5q0 243 150 406.5t380 163.5q186 0 307 -113.5t121 -300.5q0 -28 -12 -94h-670l-45 -430q85 -56 187 -56q169 0 282 70.5t160 179.5h45q-52 -131 -175.5 -213t-291.5 -82
z" />
    <glyph glyph-name="arrowleft" unicode="&#x2190;" 
d="M-12 717l583 491l127 -157l-270 -222h1006l-25 -227h-1003l223 -219l-160 -158z" />
    <glyph glyph-name="arrowup" unicode="&#x2191;" 
d="M231 901l547 533l436 -533l-172 -145l-196 248l-105 -1004h-227l104 1001l-245 -245z" />
    <glyph glyph-name="arrowright" unicode="&#x2192;" 
d="M778 1051q157 157 162 157l481 -491l-583 -492l-129 158l270 221h-1004l25 227h1001z" />
    <glyph glyph-name="arrowdown" unicode="&#x2193;" 
d="M193 532l169 146l199 -250l105 1006h225l-105 -1004l246 248l144 -146l-547 -532z" />
    <glyph glyph-name="uni2196" unicode="&#x2196;" 
d="M162 500l49 723l721 -27l-33 -215l-330 18l635 -708l-176 -162l-635 709l-16 -330z" />
    <glyph glyph-name="uni2197" unicode="&#x2197;" 
d="M563 981l12 215l728 27l-103 -723l-215 8l55 332l-784 -711l-143 162l780 708z" />
    <glyph glyph-name="uni2198" unicode="&#x2198;" 
d="M203 1143l176 162l635 -709l16 330l215 8l-49 -723l-719 27l33 215l330 -19z" />
    <glyph glyph-name="uni2199" unicode="&#x2199;" 
d="M842 453q-13 -192 -13 -215l-725 -27l103 723l215 -8l-53 -332l782 711l143 -162l-782 -709z" />
    <glyph glyph-name="partialdiff" unicode="&#x2202;" 
d="M909 596q-84 72 -206 72t-187 -77.5t-65 -178.5q0 -131 69.5 -161t117.5 -30q107 0 176 83t95 292zM687 924q130 0 245 -76q12 214 -29 295.5t-143 81.5t-162.5 -66.5t-71.5 -177.5h-331q22 207 174.5 348t412.5 141q261 0 366 -160.5t105 -486.5q0 -667 -244.5 -765.5
t-387.5 -98.5q-240 0 -367 114.5t-127 325.5t158 368t402 157z" />
    <glyph glyph-name="uni2206" unicode="&#x2206;" horiz-adv-x="1351" 
d="M473 260h451l-142 764zM8 0l664 1434h305l366 -1434h-1335z" />
    <glyph glyph-name="product" unicode="&#x220f;" horiz-adv-x="1433" 
d="M90 -446l189 1783h-144l29 289h1446l-29 -289h-143l-189 -1783h-331l188 1783h-496l-188 -1783h-332z" />
    <glyph glyph-name="summation" unicode="&#x2211;" 
d="M-8 -446l31 288l811 758l-654 750l29 276h1177l-28 -287h-768l653 -708l-811 -778h768l-31 -299h-1177z" />
    <glyph glyph-name="minus" unicode="&#x2212;" 
d="M238 457l26 252h875l-27 -252h-874z" />
    <glyph glyph-name="radical" unicode="&#x221a;" horiz-adv-x="1583" 
d="M18 248l29 278h506l119 -583l737 1683h363l-992 -2105h-305l-190 727h-267z" />
    <glyph glyph-name="infinity" unicode="&#x221e;" horiz-adv-x="1732" 
d="M1487 605q0 77 -43 126t-114 49q-147 0 -273 -188q85 -189 231 -189q85 0 142 62.5t57 139.5zM569 780q-86 0 -142 -60.5t-56 -139.5t43 -128t112 -49q145 0 273 189q-88 188 -230 188zM952 817q188 213 394 213q197 0 303 -113.5t106 -294.5q0 -182 -135.5 -325
t-351.5 -143q-111 0 -198 48t-165 165q-104 -117 -199.5 -165t-198.5 -48t-178 32.5t-125 88t-76 126t-26 154.5t34 171t136 195.5t318 108.5q117 0 200.5 -51t161.5 -162z" />
    <glyph glyph-name="integral" unicode="&#x222b;" horiz-adv-x="669" 
d="M72 -254q39 0 61.5 21.5t28.5 76.5l155 1465q26 258 136.5 287.5t152.5 29.5q132 0 217 -24l-24 -234q-43 12 -82 12q-81 0 -92 -98l-154 -1464q-26 -259 -136 -288.5t-203 -29.5t-165 25l25 233q41 -12 80 -12z" />
    <glyph glyph-name="approxequal" unicode="&#x2248;" 
d="M242 770q105 121 263 121q71 0 220 -66q63 -27 118.5 -50t113.5 -23t120 35.5t107 76.5l-25 -243q-105 -121 -250 -121q-57 0 -105 20t-108 48t-115 49.5t-125 21.5t-127 -33t-114 -80zM450 520q84 0 191 -46q108 -46 163.5 -69.5t113.5 -23.5q103 0 227 113l-25 -244
q-105 -121 -250 -121q-57 0 -104.5 19.5t-107.5 48.5t-116 50t-126 21t-126.5 -32.5t-113.5 -79.5l27 243q105 121 247 121z" />
    <glyph glyph-name="notequal" unicode="&#x2260;" 
d="M219 270l27 250h264l65 121h-317l27 250h424l114 213h281l-113 -213h168l-26 -250h-277l-65 -121h329l-26 -250h-437l-112 -213h-283l115 213h-158z" />
    <glyph glyph-name="lessequal" unicode="&#x2264;" 
d="M274 801l27 246l905 294l-28 -276l-494 -141l463 -142l-29 -276zM190 0l27 250h875l-27 -250h-875z" />
    <glyph glyph-name="greaterequal" unicode="&#x2265;" 
d="M244 506l28 276l492 142l-461 141l29 276l844 -294l-27 -246zM190 0l27 250h875l-27 -250h-875z" />
    <glyph glyph-name="lozenge" unicode="&#x25ca;" horiz-adv-x="1142" 
d="M428 811l176 -504l283 504l-176 504zM92 811l475 815h353l301 -815l-471 -811h-355z" />
    <glyph glyph-name="uniE000" unicode="&#xe000;" horiz-adv-x="983" 
d="M0 0v983h983v-983h-983z" />
    <glyph glyph-name="fi" unicode="&#xfb01;" horiz-adv-x="1429" 
d="M1044 1280q0 103 64 165t147 62t133 -51.5t50 -109.5q0 -103 -65 -164.5t-146 -61.5q-82 0 -132.5 51t-50.5 109zM946 0l105 987h313l-104 -987h-314zM681.5 1192q-37.5 -25 -44.5 -100l-10 -105h229l-25 -233h-229l-80 -754h-313l80 754h-176l24 233h176l9 86
q21 234 135.5 308.5t246.5 74.5t199 -26l-24 -226q-50 13 -105 13t-92.5 -25z" />
    <glyph glyph-name="fl" unicode="&#xfb02;" horiz-adv-x="1355" 
d="M909 0l152 1434h313l-151 -1434h-314zM681.5 1192q-37.5 -25 -44.5 -100l-10 -105h229l-25 -233h-229l-80 -754h-313l80 754h-176l24 233h176l9 86q21 234 135.5 308.5t246.5 74.5t199 -26l-24 -226q-50 13 -105 13t-92.5 -25z" />
    <glyph glyph-name="apple" horiz-adv-x="1452" 
d="M920 762q52 -68 129 -68q117 0 200 94q-30 86 -96 109q23 -27 23 -72t-34 -76.5t-79 -31.5t-71.5 26.5t-26.5 54.5q0 63 39 95q-83 -27 -115 -68q11 -37 31 -63zM758 168q106 0 164.5 30.5t84 69.5t26.5 72t-7 36t-21.5 5t-46.5 14q31 46 31 74q0 52 -12.5 84.5
t-32.5 32.5q-8 0 -18.5 -6.5t-10.5 -18.5q1 -12 11 -23t10 -52t-23 -72q-33 16 -62.5 30.5t-76.5 14.5t-81 -14.5t-66 -30.5q-9 16 -9 58t18 58q18 17 17 31q0 25 -22 25q-27 0 -48.5 -48.5t-21.5 -85.5t12 -57q-52 -18 -98 -18q8 -113 92.5 -161t190.5 -48zM369 788
q63 -94 163 -94t158 66q27 29 45 65q-30 52 -108 78q32 -27 32 -75t-34.5 -79.5t-76.5 -31.5t-69.5 24.5t-27.5 72.5t28 75q-46 -15 -74 -47q-28 -33 -36 -54zM168 500q-35 0 -35 121t23.5 177t38.5 56t30 -23.5t23 -23.5q2 0 9 46t45 175t176.5 267.5t398.5 138.5
t369.5 -139.5t120.5 -267.5t8 -174t0 -46q8 0 25 23.5t34 23.5q28 0 28 -123t-25 -177t-45 -54t-34 28q-104 -304 -264.5 -416t-344.5 -112t-281 55.5t-152.5 137t-77 173t-31.5 164.5q-15 -30 -39 -30z" />
    <glyph glyph-name="commaaccent" horiz-adv-x="497" 
d="M220 -61q-48 0 -85 41.5t-37 105.5t50 115t122 51t115 -47t43 -152q0 -158 -98.5 -241.5t-261.5 -83.5l10 98q94 0 143 37t60 90q-13 -14 -61 -14z" />
    <glyph glyph-name="commaturn" horiz-adv-x="497" 
d="M436 1456q49 0 85 -41t36 -105t-50 -115.5t-122 -51.5t-114 47t-42 151q0 158 97.5 243t261.5 85l-10 -98q-168 0 -203 -127q12 12 61 12z" />
    </font>
</defs>
</svg>
