<?xml version="1.0" standalone="no"?>
<!DOCTYPE svg PUBLIC "-//W3C//DTD SVG 1.1//EN" "http://www.w3.org/Graphics/SVG/1.1/DTD/svg11.dtd" >
<svg xmlns="http://www.w3.org/2000/svg">
<metadata>
Created by FontPrep 20130207 at Mon Jun 20 14:55:25 2016
 By Nick Villapiano
Copyright (c) 2012 by Dominik Huber &#38; Moire. All rights reserved.
</metadata>
<defs>
<font id="155fe2391989f2a7cd7c0301f3f836c6" horiz-adv-x='1024' >
  <font-face 
    font-family="GTPressuraMonoTrial-Light"
    font-weight="300"
    font-stretch="normal"
    units-per-em="2048"
    panose-1="2 0 5 6 2 0 0 2 0 4"
    ascent="1536"
    descent="-512"
    x-height="1024"
    cap-height="1434"
    bbox="69.8824 -430 2124 1450"
    underline-thickness="102"
    underline-position="-51"
    unicode-range="U+0020-FB01"
  />
<missing-glyph 
d="M782 406q0 -57 -49 -58q-35 0 -35 27t47 33l37 4v-6zM637 373q0 -68 78 -70q51 0 71 39q0 -23 2 -33h60q-6 31 -6 43v82q0 55 -20 80t-74 25q-100 0 -105 -76h59q2 31 41 31t39 -45q-66 -6 -102 -17q-43 -18 -43 -59zM770 700v324h-59v-324h59zM623 633h-66v-62h66v62z
M297 750q-84 0 -84 110t87 111q44 0 58 -47l62 24q-29 80 -112 80t-123 -47t-40 -120t37 -120t102 -47t87 41l8 -35h47v179h-137v-58h82v-4q-1 -25 -19 -47t-55 -20zM897 1024v-59h66v59h-66zM616 1024v-59h66v59h-66zM524 539q-41 0 -61 -43v36h-57v-223h61v101q0 72 57 71
q13 0 21 -2v58q-6 2 -21 2zM874 309h60v324h-60v-324zM182 629v-60h90v-260h62v260h90v60h-242zM899 926v-226h62v226h-62zM582 932q-37 0 -64 -43v37h-55v-226h59v103q0 72 62 71q14 0 20 -2v56q-12 4 -22 4zM621 532h-62v-223h62v223zM102 0v1434h922v-1434h-922zM618 926
v-226h62v226h-62zM864 700v324h-61v-324h61z" />
    <glyph glyph-name=".notdef" 
d="M782 406q0 -57 -49 -58q-35 0 -35 27t47 33l37 4v-6zM637 373q0 -68 78 -70q51 0 71 39q0 -23 2 -33h60q-6 31 -6 43v82q0 55 -20 80t-74 25q-100 0 -105 -76h59q2 31 41 31t39 -45q-66 -6 -102 -17q-43 -18 -43 -59zM770 700v324h-59v-324h59zM623 633h-66v-62h66v62z
M297 750q-84 0 -84 110t87 111q44 0 58 -47l62 24q-29 80 -112 80t-123 -47t-40 -120t37 -120t102 -47t87 41l8 -35h47v179h-137v-58h82v-4q-1 -25 -19 -47t-55 -20zM897 1024v-59h66v59h-66zM616 1024v-59h66v59h-66zM524 539q-41 0 -61 -43v36h-57v-223h61v101q0 72 57 71
q13 0 21 -2v58q-6 2 -21 2zM874 309h60v324h-60v-324zM182 629v-60h90v-260h62v260h90v60h-242zM899 926v-226h62v226h-62zM582 932q-37 0 -64 -43v37h-55v-226h59v103q0 72 62 71q14 0 20 -2v56q-12 4 -22 4zM621 532h-62v-223h62v223zM102 0v1434h922v-1434h-922zM618 926
v-226h62v226h-62zM864 700v324h-61v-324h61z" />
    <glyph glyph-name=".null" horiz-adv-x="0" 
 />
    <glyph glyph-name="nonmarkingreturn" horiz-adv-x="681" 
 />
    <glyph glyph-name="space" unicode=" " 
 />
    <glyph glyph-name="exclam" unicode="!" 
d="M676 184v-143q0 -17 -12 -29t-29 -12h-143q-16 0 -29 12q-12 12 -12 29v143q0 16 12 28t29 13h143q16 0 29 -12q12 -13 12 -29z" />
    <glyph glyph-name="comma" unicode="," 
d="M514 0h-20q-16 0 -29 12q-12 12 -12 29v143q0 16 12 28t29 13h143q17 0 29 -12t12 -29v-153q0 -55 -33 -105l-82 -114q-27 -37 -59 -37h-21q-18 0 -28 15t-2 34l77 145q6 11 1 21t-17 10z" />
    <glyph glyph-name="hyphen" unicode="-" 
d="M283 623h559q16 -1 28 -13t13 -28v-72q-1 -16 -13 -28t-28 -13h-559q-16 0 -29 12q-12 12 -12 29v72q0 16 12 28t29 13z" />
    <glyph glyph-name="period" unicode="." 
d="M676 184v-143q0 -17 -12 -29t-29 -12h-143q-16 0 -29 12q-12 12 -12 29v143q0 16 12 28t29 13h143q16 0 29 -12q12 -13 12 -29z" />
    <glyph glyph-name="zero" unicode="0" 
d="M570 1329q-138 0 -218 -90t-95 -217t-15 -305t16 -301t89 -217q73 -95 211 -95t215 90t95 217q18 128 19 306t-17 302t-90 217t-210 93zM559 1450q186 0 298 -113t136 -313q15 -127 15 -307t-15 -307q-20 -184 -130 -306t-296 -120q-186 0 -298 112t-136 314
q-14 125 -14 308t14 306q23 182 131 304q109 122 295 122z" />
    <glyph glyph-name="one" unicode="1" 
d="M551 1221q0 12 -7 12t-12 -4l-286 -361q-12 -14 -29 -7q-16 7 -16 24v86q0 37 41 84l286 360q12 18 41 19h64q17 0 29 -12t12 -29v-1248q0 -20 20 -20h248q16 0 28 -12t13 -29v-43q0 -17 -12 -29t-29 -12h-719q-16 0 -28 12t-13 29v43q0 16 12 28t29 13h307q21 0 21 20
v1076z" />
    <glyph glyph-name="two" unicode="2" 
d="M817 1078q1 94 -67 172t-188 79q-120 0 -192 -83t-73 -187v-31q0 -16 -12 -28t-29 -13h-47q-16 0 -29 12q-12 12 -12 29v31q0 163 113 277t279 114t274 -108q109 -108 108 -283q0 -211 -172 -404l-448 -497q-8 -10 -4 -22q5 -11 20 -11h596q16 0 28 -12t13 -29v-43
q0 -17 -12 -29t-29 -12h-741q-16 0 -29 12q-12 12 -12 29v76q0 33 18 51l494 555q53 59 80 97q73 99 73 258z" />
    <glyph glyph-name="three" unicode="3" 
d="M856 404q0 122 -72 202t-213 80h-14q-16 0 -29 12q-12 12 -12 29v45q0 16 12 28t29 13h14q117 0 186 71q69 72 69 178t-68 182t-192 75q-124 0 -196 -79t-73 -181v-31q0 -16 -12 -28t-29 -13h-47q-16 0 -29 12q-12 12 -12 29v31q0 163 116 277t282 114t279 -113
q111 -113 111 -283t-118 -276q-29 -25 -2 -49q152 -131 152 -316t-122 -307q-121 -122 -300 -122t-304 122t-125 300v14q1 16 13 28t28 13h47q17 0 29 -12t12 -29v-14q0 -121 87 -206t216 -85t208 84t79 205z" />
    <glyph glyph-name="four" unicode="4" 
d="M270 408h424q20 0 21 20v799q0 8 -7 9q-8 1 -10 -5l-436 -807q-10 -16 8 -16zM856 408h115q16 0 28 -12t13 -29v-39q0 -16 -12 -28t-29 -13h-115q-20 0 -20 -21v-225q0 -17 -12 -29t-29 -12h-39q-16 0 -29 12q-12 12 -12 29v225q0 20 -21 21h-538q-16 0 -29 12
q-12 12 -12 29v26q0 39 32 101l521 950q16 29 43 29h84q16 0 28 -12t13 -29v-965q0 -20 20 -20z" />
    <glyph glyph-name="five" unicode="5" 
d="M879 1311h-549q-20 0 -21 -21v-379q-1 -18 11 -24t34 8q74 59 197 59q186 0 304 -139t118 -342t-116 -346t-293 -143t-294 108t-116 266q0 41 41 41h43q41 0 41 -41q-1 -100 81 -176t204 -76t205 109t83 259t-83 254q-83 103 -218 103q-154 0 -225 -184q-10 -23 -39 -22
h-56q-16 0 -28 12t-13 29v727q0 16 12 28t29 13h648q16 0 28 -12t13 -29v-41q0 -16 -12 -28t-29 -13z" />
    <glyph glyph-name="six" unicode="6" 
d="M572 111q124 0 201 83q111 120 89 314q-12 119 -90 205t-203 86t-201 -78t-87 -213q-4 -70 0 -111q12 -121 89 -203q78 -82 202 -83zM581 926q160 0 279 -122q148 -152 131 -405q-10 -176 -129 -296q-119 -119 -291 -119q-173 0 -287 120t-137 306q-14 127 -14 307
t14 307q21 184 131 305t278 121t282 -114q115 -114 114 -277q0 -17 -12 -29t-29 -12h-45q-16 0 -28 12t-13 29q0 106 -70 187q-71 81 -191 81t-196 -87t-89 -216q-10 -88 -7 -172q0 -12 10 -17t23 3q116 88 276 88z" />
    <glyph glyph-name="seven" unicode="7" 
d="M195 1311q-16 0 -29 12q-12 12 -12 29v41q0 16 12 28t29 13h737q16 0 28 -12t13 -29v-76q0 -18 -10 -41l-517 -1245q-14 -31 -38 -31h-48q-26 0 -34 16t-2 33l514 1241q8 20 -15 21h-628z" />
    <glyph glyph-name="eight" unicode="8" 
d="M563 1450q168 0 281 -117q112 -117 112 -277t-116 -278q-27 -27 -2 -49q152 -131 152 -317t-118 -308t-310 -120q-192 0 -308 120t-117 308q0 187 152 317q25 23 -2 49q-117 117 -117 278q0 162 112 278t281 116zM563 807q121 0 194 71t73 179t-75 186t-192 78t-191 -78
q-74 -79 -75 -187q1 -108 73 -178t193 -71zM563 113q133 0 216 82t83 211q0 128 -79 206t-220 78t-220 -78t-79 -206t83 -211q83 -82 216 -82z" />
    <glyph glyph-name="nine" unicode="9" 
d="M270 375q0 -105 86 -187t205 -82t196 83t96 200t11 207q-2 14 -12 18t-25 -6q-125 -100 -285 -100t-280 122q-149 152 -131 404q10 176 129 296t292 120t288 -121t137 -305q16 -129 17 -298t-17 -306q-29 -211 -135 -324q-106 -112 -278 -112t-296 114q-125 114 -125 277
q1 16 13 28t28 13h45q17 0 29 -12t12 -29zM552 1323q-130 0 -202 -82t-90 -205q-8 -49 0 -110q18 -125 90 -208t202 -83t203 79q108 117 87 322q-14 113 -87 200t-203 87z" />
    <glyph glyph-name="colon" unicode=":" 
d="M676 184v-143q0 -17 -12 -29t-29 -12h-143q-16 0 -29 12q-12 12 -12 29v143q0 16 12 28t29 13h143q16 0 29 -12q12 -13 12 -29z" />
    <glyph glyph-name="semicolon" unicode=";" 
d="M514 0h-20q-16 0 -29 12q-12 12 -12 29v143q0 16 12 28t29 13h143q17 0 29 -12t12 -29v-153q0 -55 -33 -105l-82 -114q-27 -37 -59 -37h-21q-18 0 -28 15t-2 34l77 145q6 11 1 21t-17 10z" />
    <glyph glyph-name="question" unicode="?" 
d="M676 184v-143q0 -17 -12 -29t-29 -12h-143q-16 0 -29 12q-12 12 -12 29v143q0 16 12 28t29 13h143q16 0 29 -12q12 -13 12 -29z" />
    <glyph glyph-name="A" unicode="A" 
d="M383 532h360q23 0 17 23l-187 696q-4 12 -8 13h-4q-4 -1 -8 -13l-186 -696q-6 -23 16 -23zM174 0h-51q-23 0 -34 12t-7 29l391 1362q6 31 39 31h102q33 0 39 -31l391 -1362q4 -17 -7 -29t-33 -12h-52q-33 0 -39 31l-100 346q-10 29 -39 29h-422q-29 0 -39 -29l-100 -346
q-6 -31 -39 -31z" />
    <glyph glyph-name="B" unicode="B" 
d="M315 131h275q116 0 198 82t82 199q0 116 -82 198t-198 82h-275q-20 0 -20 -20v-520q0 -21 20 -21zM598 1303h-283q-20 0 -20 -21v-448q0 -20 20 -21h283q100 0 171 71t71 173t-71 174t-171 72zM997 418q0 -176 -126 -297t-304 -121h-358q-16 0 -29 12q-12 12 -12 29v1352
q0 16 12 28t29 13h358q168 0 285 -109t117 -272q0 -76 -31 -152t-86 -125q-29 -25 0 -45q63 -51 104 -139t41 -174z" />
    <glyph glyph-name="C" unicode="C" 
d="M891 410v8q0 16 12 28t29 13h55q17 -1 29 -13t12 -28v-8q0 -193 -132 -310q-132 -116 -320 -116t-312 114q-123 114 -149 312q-16 125 -17 308q0 183 17 306q25 180 144 303t315 123t325 -126t129 -300v-8q0 -16 -12 -28t-29 -13h-55q-16 0 -29 12q-12 12 -12 29v8
q0 119 -89 207q-88 88 -228 88t-222 -86t-100 -210t-18 -306t16 -301q18 -119 95 -210t227 -91q150 1 235 95q84 94 84 200z" />
    <glyph glyph-name="D" unicode="D" 
d="M293 131h258q149 0 227 84t94 202t17 300q-1 182 -19 305t-100 202t-219 79h-258q-20 0 -21 -21v-1130q1 -21 21 -21zM551 0h-369q-16 0 -28 12t-13 29v1352q1 16 13 28t28 13h369q195 0 313 -116t144 -294q16 -123 16 -306t-16 -308q-27 -194 -149 -302t-308 -108z" />
    <glyph glyph-name="E" unicode="E" 
d="M330 1282v-465q0 -20 20 -20h549q17 -1 29 -13t12 -28v-47q0 -17 -12 -29t-29 -12h-549q-20 0 -20 -21v-495q0 -20 20 -21h576q16 0 28 -12t13 -29v-49q-1 -17 -13 -29t-28 -12h-686q-16 0 -29 12q-12 12 -12 29v1352q0 16 12 28t29 13h682q16 0 28 -12t13 -29v-50
q-1 -16 -13 -28t-28 -12h-572q-20 -1 -20 -21z" />
    <glyph glyph-name="F" unicode="F" 
d="M330 647v-606q0 -17 -12 -29t-29 -12h-49q-16 0 -29 12q-12 12 -12 29v1352q0 16 12 28t29 13h682q16 0 28 -12t13 -29v-50q-1 -16 -13 -28t-28 -12h-572q-20 0 -20 -21v-463q0 -20 20 -20h549q17 -1 29 -13t12 -28v-49q0 -17 -12 -29t-29 -12h-549q-20 -1 -20 -21z" />
    <glyph glyph-name="G" unicode="G" 
d="M897 410v221q0 20 -20 20h-250q-17 1 -29 13t-12 28v49q0 17 12 29t29 12h360q17 0 29 -12t12 -29v-331q0 -193 -132 -310q-132 -116 -320 -116t-312 114q-123 114 -149 312q-16 125 -17 308q0 183 17 306q25 180 144 303t315 123t325 -123t129 -303v-8q0 -16 -12 -28
t-29 -13h-55q-16 0 -29 12q-12 12 -12 29v8q0 129 -88 212q-89 83 -229 83t-222 -86t-100 -210t-18 -306t16 -301q18 -119 95 -210t227 -91q150 1 238 95q87 94 87 200z" />
    <glyph glyph-name="H" unicode="H" 
d="M274 1393v-574q0 -20 21 -20h536q20 0 21 20v574q0 16 12 28t29 13h49q16 0 28 -12t13 -29v-1352q0 -17 -12 -29t-29 -12h-49q-16 0 -29 12q-12 12 -12 29v606q0 20 -21 21h-536q-20 0 -21 -21v-606q0 -17 -12 -29t-29 -12h-49q-16 0 -28 12t-13 29v1352q1 16 13 28
t28 13h49q17 0 29 -12t12 -29z" />
    <glyph glyph-name="I" unicode="I" 
d="M496 145v1145q0 20 -21 21h-256q-16 0 -29 12q-12 12 -12 29v41q0 16 12 28t29 13h686q17 0 29 -12t12 -29v-41q0 -16 -12 -28t-29 -13h-256q-20 0 -20 -21v-1145q0 -20 20 -20h277q16 0 28 -12t13 -29v-43q-1 -17 -13 -29t-28 -12h-727q-16 0 -29 12q-12 12 -12 29v43
q0 16 12 28t29 13h276q21 0 21 20z" />
    <glyph glyph-name="J" unicode="J" 
d="M246 410v-17q0 -115 78 -197t202 -81q124 -1 200 73q75 74 75 226v979q0 16 12 28t29 13h49q17 0 29 -12t12 -29v-1000q0 -186 -116 -298q-116 -111 -290 -111t-294 120t-119 289v17q0 16 12 28t29 13h51q17 -1 29 -13t12 -28z" />
    <glyph glyph-name="K" unicode="K" 
d="M924 1434h32q35 0 45 -27t-10 -47l-547 -596q-20 -29 -2 -49l582 -639q20 -20 10 -48t-47 -28h-45q-27 0 -53 27l-531 585q-2 4 -9 4t-7 -8v-567q0 -17 -12 -29t-29 -12h-49q-16 0 -29 12q-12 12 -12 29v1352q0 16 12 28t29 13h49q17 0 29 -12t12 -29v-541q0 -8 7 -8t9 4
l512 563q16 23 54 23z" />
    <glyph glyph-name="L" unicode="L" 
d="M377 1393v-1241q0 -20 20 -21h543q16 0 28 -12t13 -29v-49q0 -17 -12 -29t-29 -12h-653q-16 0 -29 12q-12 12 -12 29v1352q0 16 12 28t29 13h49q16 0 28 -12t13 -29z" />
    <glyph glyph-name="M" unicode="M" 
d="M825 1434h123q16 0 28 -12t13 -29v-1352q0 -17 -12 -29t-29 -12h-41q-16 0 -28 12t-13 29v1173q0 10 -9 12q-9 1 -11 -7l-211 -672q-12 -35 -43 -35h-57q-31 0 -43 35l-211 672q-1 8 -11 7t-10 -12v-1173q0 -17 -12 -29t-29 -12h-41q-16 0 -28 12t-13 29v1352q1 16 13 28
t28 13h123q31 0 43 -35l209 -656q2 -6 9 -7t11 7l209 656q12 35 43 35z" />
    <glyph glyph-name="N" unicode="N" 
d="M973 1393v-1352q0 -17 -12 -29t-29 -12h-107q-29 0 -43 35l-489 1175q-2 6 -9 5t-8 -9v-1165q0 -17 -12 -29t-28 -12h-41q-16 0 -29 12q-12 12 -12 29v1352q0 16 12 28t29 13h106q29 0 43 -35l490 -1166q2 -6 9 -5t7 10v1155q0 16 12 28t29 13h41q16 0 28 -12t13 -29z
" />
    <glyph glyph-name="O" unicode="O" 
d="M563 1450q193 0 313 -123t144 -303q16 -123 16 -306t-16 -308q-27 -199 -150 -313q-123 -113 -307 -113t-307 114t-150 312q-16 125 -16 308t16 306q24 180 144 303t313 123zM563 1319q-137 0 -219 -86t-100 -210t-18 -306t16 -301q18 -119 95 -210t227 -91t226 91
q77 91 94 210t17 301t-18 306q-19 124 -101 210t-219 86z" />
    <glyph glyph-name="P" unicode="P" 
d="M563 1303h-237q-20 0 -21 -21v-557q0 -20 21 -20h237q123 0 211 88t88 211t-88 211t-211 88zM305 553v-512q0 -17 -12 -29t-29 -12h-49q-16 0 -29 12q-12 12 -12 29v1352q0 16 12 28t29 13h348q178 0 304 -126t126 -304t-126 -304t-304 -127h-237q-21 0 -21 -20z" />
    <glyph glyph-name="Q" unicode="Q" 
d="M936 -184h-57q-25 0 -41 30l-86 154q-10 16 -62 0t-127 -16q-184 0 -307 114t-150 312q-16 125 -16 308t16 306q25 180 145 303q121 123 313 123t312 -123t144 -303q16 -123 16 -306t-16 -308q-25 -197 -150 -312q-12 -12 -6 -28l105 -197q10 -21 -1 -39t-32 -18z
M563 1319q-137 0 -219 -86t-100 -210t-18 -306t16 -301q18 -119 95 -210t227 -91t226 91q77 91 94 210t17 301t-18 306q-19 124 -101 210t-219 86z" />
    <glyph glyph-name="R" unicode="R" 
d="M545 573h-223q-20 0 -21 -20v-512q0 -17 -12 -29t-29 -12h-49q-16 0 -29 12q-12 12 -12 29v1352q0 16 12 28t29 13h348q178 0 304 -126t126 -304q0 -238 -244 -390q-37 -25 -14 -65l258 -488q12 -23 2 -42t-41 -19h-45q-40 0 -60 40q-7 13 -20 40q-12 27 -16 35l-225 434
q-12 24 -39 24zM559 1303h-237q-20 0 -21 -21v-557q0 -20 21 -20h237q123 0 211 88t88 211t-88 211t-211 88z" />
    <glyph glyph-name="S" unicode="S" 
d="M162 1065q0 177 118 281t290 104t282 -112q111 -112 111 -273v-27q-1 -16 -13 -28t-28 -13h-50q-16 1 -28 13t-13 28v27q-1 111 -77 183t-198 71q-122 0 -192 -75q-70 -74 -69 -168q0 -94 53 -147q30 -33 93 -54t115 -35q250 -67 348 -161q100 -93 100 -279t-130 -301
t-318 -115t-310 124t-123 302v32q0 16 12 28t29 13h51q17 0 29 -12t12 -29v-32q0 -117 82 -206t223 -89t224 82t85 213t-85 194t-279 109q-344 80 -344 352z" />
    <glyph glyph-name="T" unicode="T" 
d="M479 1303h-344q-16 0 -29 12q-12 12 -12 28v50q0 16 12 28t29 13h860q17 0 29 -12t12 -29v-50q0 -16 -12 -28t-29 -12h-342q-20 0 -20 -21v-1241q0 -17 -12 -29t-29 -12h-51q-16 0 -29 12q-12 12 -12 29v1241q-1 21 -21 21z" />
    <glyph glyph-name="U" unicode="U" 
d="M254 1393v-969q0 -125 90 -217t219 -92t219 92t90 217v969q0 16 12 28t29 13h50q16 0 28 -12t13 -29v-969q0 -182 -130 -311t-311 -129q-182 0 -311 129t-129 311v969q0 16 12 28t29 13h49q17 0 29 -12t12 -29z" />
    <glyph glyph-name="V" unicode="V" 
d="M954 1434h60q23 0 33 -14t6 -34l-391 -1355q-10 -31 -39 -31h-123q-29 0 -39 31l-389 1353q-6 16 5 32t34 18h59q31 0 39 -31l338 -1208q2 -12 12 -13h4q10 1 12 13l340 1208q8 31 39 31z" />
    <glyph glyph-name="W" unicode="W" 
d="M772 217q10 0 12 10l127 1176q2 31 39 31h51q45 0 41 -41l-168 -1362q-2 -31 -38 -31h-138q-35 0 -39 31l-86 741q-2 14 -12 0l-115 -741q-6 -31 -38 -31h-138q-37 0 -39 31l-149 1362q-4 41 41 41h51q37 0 39 -31l119 -1176q2 -10 12 -10t12 10l123 766q6 31 39 31h94
q33 0 39 -31l109 -766q2 -10 12 -10z" />
    <glyph glyph-name="X" unicode="X" 
d="M221 0h-67q-20 0 -32 18q-11 18 -1 39l356 672q10 16 2 29l-327 618q-10 20 1 38t31 20h64q25 0 39 -31l266 -512q8 -20 16 0l267 512q14 31 38 31h64q20 0 32 -18t1 -40l-328 -618q-8 -12 2 -29l359 -672q10 -21 -2 -39t-31 -18h-72q-27 0 -41 31l-289 561q-8 20 -16 0
l-289 -561q-14 -31 -43 -31z" />
    <glyph glyph-name="Y" unicode="Y" 
d="M893 1434h65q20 0 30 -18t3 -40l-358 -882v-453q0 -17 -12 -29t-29 -12h-53q-16 0 -29 12q-12 12 -12 29v451l-363 884q-8 23 2 40t31 18h65q29 0 39 -31l285 -731q8 -20 16 0l281 731q10 31 39 31z" />
    <glyph glyph-name="Z" unicode="Z" 
d="M944 133q16 0 28 -12t13 -29v-51q0 -17 -12 -29t-29 -12h-762q-16 0 -28 12t-13 29v96q0 16 11 33l665 1112q12 20 -12 21h-602q-16 0 -29 12q-12 12 -12 28v50q0 16 12 28t29 13h721q16 0 28 -12t13 -29v-90q-1 -17 -11 -33l-657 -1116q-12 -20 12 -21h635z" />
    <glyph glyph-name="underscore" unicode="_" 
d="M283 623h559q16 -1 28 -13t13 -28v-72q-1 -16 -13 -28t-28 -13h-559q-16 0 -29 12q-12 12 -12 29v72q0 16 12 28t29 13z" />
    <glyph glyph-name="a" unicode="a" 
d="M827 707q0 101 -69 163q-70 62 -172 62t-174 -51t-72 -129q0 -35 -47 -35h-29q-41 0 -41 41q0 135 108 211q109 75 259 75t254 -87t104 -252v-664q0 -17 -12 -29t-29 -12h-18q-19 0 -25 8t-14 28t-22 21q-13 0 -101 -39t-178 -38q-180 0 -277 94q-96 94 -96 229t90 219
t248 84h293q20 0 20 21v80zM813 494h-299q-92 0 -154 -50t-63 -144q0 -95 70 -150q69 -56 191 -56t199 66t77 190v123q-1 21 -21 21z" />
    <glyph glyph-name="b" unicode="b" 
d="M559 -20q-88 0 -151 34t-84 33q-20 1 -42 -23t-36 -24h-33q-16 0 -29 12q-12 12 -12 29v1366q0 17 12 29t29 12h39q16 0 28 -12t13 -29v-363q0 -51 51 -51q8 0 74 26t141 25q157 0 267 -112t121 -266t0 -308t-121 -266t-267 -112zM555 100q129 0 193 82q116 150 75 473
q-12 105 -77 187q-64 82 -192 82t-187 -82t-70 -187q-33 -331 69 -473q60 -82 189 -82z" />
    <glyph glyph-name="c" unicode="c" 
d="M574 100q132 0 200 72t68 162q0 35 39 35h43q16 -1 28 -13t13 -28q0 -144 -109 -246q-110 -102 -282 -102t-284 110t-123 266t0 312t123 266t285 110t281 -102t109 -246q0 -41 -35 -41h-47q-39 0 -39 33q0 96 -72 166t-200 70t-200 -83q-71 -83 -83 -206t0 -245t83 -206
t202 -84z" />
    <glyph glyph-name="d" unicode="d" 
d="M567 -20q-157 0 -267 112t-121 266t0 308t121 266q110 113 267 112q76 0 142 -26t73 -25q51 0 52 51v363q0 17 12 29t28 12h39q17 0 29 -12t12 -29v-1366q0 -17 -12 -29t-29 -12h-32q-14 0 -29 14q-29 33 -49 33q-20 1 -84 -33t-152 -34zM572 100q129 0 188 82
q101 141 69 473q-10 105 -69 187t-187 82t-193 -82t-77 -187q-41 -323 76 -473q64 -82 193 -82z" />
    <glyph glyph-name="e" unicode="e" 
d="M274 598q0 -20 21 -20h553q20 0 20 20q0 152 -83 239t-217 87t-214 -85t-80 -241zM270 442q0 -156 75 -248t226 -94q111 0 180 56t95 137q10 35 47 35h41q41 0 35 -41q-18 -135 -129 -221t-279 -86q-169 0 -283 112t-125 266t0 308t126 267q115 111 289 111t294 -120
q119 -120 119 -289v-131q0 -16 -12 -28t-29 -13h-649q-21 -1 -21 -21z" />
    <glyph glyph-name="f" unicode="f" 
d="M453 893h-281q-16 0 -29 12q-12 12 -12 29v39q0 16 12 28t29 13h281q20 0 20 20v31q0 172 97 277t251 106h92q17 0 29 -12t12 -29v-33q0 -16 -12 -28t-29 -13h-92q-111 0 -168 -77t-57 -191v-31q0 -20 20 -20h336q16 0 28 -12t13 -29v-39q0 -16 -12 -28t-29 -13h-336
q-20 0 -20 -21v-831q0 -17 -12 -29t-29 -12h-41q-16 0 -29 12q-12 12 -12 29v831q0 21 -20 21z" />
    <glyph glyph-name="g" unicode="g" 
d="M572 924q-128 0 -192 -82q-117 -151 -77 -473q12 -105 77 -187t193 -82t187 82t69 187q32 331 -69 473q-59 82 -188 82zM881 1024h32q17 0 29 -12t12 -29v-1044q0 -154 -102 -262q-102 -107 -246 -107t-248 74q-102 74 -131 206q-10 47 37 48h33q39 0 53 -41
q25 -68 83 -117t163 -49q106 0 172 75t66 173v41q0 51 -46 51q-14 0 -91 -26t-130 -25q-157 0 -267 112t-121 266t0 308t121 266q110 113 267 112q87 0 151 -34t85 -33q21 0 49 33q15 14 29 14z" />
    <glyph glyph-name="h" unicode="h" 
d="M272 0h-39q-16 0 -28 12t-12 29v1366q0 17 12 29t28 12h39q16 0 28 -12t13 -29v-371q1 -16 13 -29t27 -13t85 25q70 26 140 25q158 0 257 -104t99 -252v-647q0 -17 -12 -29t-29 -12h-39q-16 0 -29 12q-12 12 -12 29v647q0 102 -70 169q-69 67 -179 67t-180 -65t-71 -161
v-657q0 -16 -12 -29q-13 -12 -29 -12z" />
    <glyph glyph-name="i" unicode="i" 
d="M524 901h-256q-16 0 -28 12t-13 29v41q1 17 13 29t28 12h359q16 0 28 -12t13 -29v-840q0 -20 20 -20h268q16 0 28 -12t13 -29v-41q0 -17 -12 -29t-29 -12h-708q-16 0 -29 12q-12 12 -12 29v41q0 16 12 28t29 13h276q20 0 21 20v738q-1 20 -21 20zM680 1415v-108
q0 -33 -33 -33h-106q-33 0 -33 33v108q0 13 9 23t24 10h106q14 0 24 -10q9 -11 9 -23z" />
    <glyph glyph-name="j" unicode="j" 
d="M786 -72q0 -176 -88 -267t-227 -91t-235 96t-97 232q1 16 13 28t30 13h43q17 -1 29 -13t12 -28q0 -80 58 -140t145 -61q88 0 140 53t53 154v977q0 20 -21 20h-305q-16 0 -29 12q-12 12 -12 29v41q0 17 12 29t29 12h409q17 0 29 -12t12 -29v-1055zM788 1415v-108
q0 -33 -32 -33h-107q-33 0 -33 33v108q0 13 10 23t23 10h107q14 0 23 -10t9 -23z" />
    <glyph glyph-name="k" unicode="k" 
d="M371 432q-6 0 -6 -8v-383q-1 -17 -13 -29t-28 -12h-39q-16 0 -29 12q-12 12 -12 29v1366q0 17 12 29t29 12h39q16 0 28 -12t13 -29v-768q0 -16 16 -4l412 362q27 27 57 27h37q33 0 40 -27t-12 -41l-448 -399q-27 -27 0 -49l479 -436q22 -20 12 -46t-40 -26h-41
q-31 0 -62 31l-434 397q-4 4 -10 4z" />
    <glyph glyph-name="l" unicode="l" 
d="M483 1325h-247q-16 0 -29 12q-12 12 -12 29v41q0 17 12 29t29 12h350q16 0 28 -12t13 -29v-1264q0 -20 20 -20h260q17 0 29 -12t12 -29v-41q0 -17 -12 -29t-29 -12h-712q-16 0 -29 12q-12 12 -12 29v41q0 16 12 28t29 13h284q25 0 25 20v1162q-1 20 -21 20z" />
    <glyph glyph-name="m" unicode="m" 
d="M969 799v-758q-1 -17 -13 -29t-28 -12h-39q-16 0 -29 12q-12 12 -12 29v784q0 49 -35 74t-80 25t-78 -28t-32 -71v-784q-1 -17 -13 -29t-28 -12h-39q-16 0 -29 12q-12 12 -12 29v784q0 43 -35 71t-78 28t-79 -28t-36 -71v-784q0 -17 -12 -29t-29 -12h-38q-16 0 -29 12
q-12 12 -12 29v942q0 17 12 29t29 12h12q14 0 29 -14q12 -16 20 -16t50 25q42 26 100 25q88 0 141 -73q7 -12 21 -12t22 12q60 73 168 73t160 -71q51 -72 51 -174z" />
    <glyph glyph-name="n" unicode="n" 
d="M333 977q19 0 88 34t157 33q166 0 266 -93t100 -263v-647q0 -17 -12 -29t-29 -12h-39q-16 0 -28 12t-13 29v647q0 236 -260 236q-111 0 -185 -65t-75 -161v-657q0 -17 -12 -29t-29 -12h-39q-16 0 -28 12t-13 29v942q0 17 12 29t29 12h33q14 0 29 -14q29 -33 48 -33z" />
    <glyph glyph-name="o" unicode="o" 
d="M563 924q-343 0 -291 -534q12 -122 83 -206t208 -84q343 0 291 534q-12 122 -83 206t-208 84zM563 1044q178 0 290 -110t123 -266t0 -312t-123 -266t-290 -110t-290 110q-113 110 -123 266t1 312t122 266q112 110 290 110z" />
    <glyph glyph-name="p" unicode="p" 
d="M559 1044q157 0 267 -112t121 -266t0 -308t-121 -266q-110 -113 -267 -112q-75 0 -143 26t-76 25q-47 0 -47 -51v-349q0 -16 -12 -28t-29 -13h-39q-17 0 -29 12t-12 29v1352q0 17 12 29t29 12h33q14 0 36 -24t42 -23q20 -1 84 33t151 34zM555 924q-129 0 -188 -82
q-102 -142 -70 -473q9 -105 69 -187t188 -82t192 82q117 149 77 473q-12 104 -75 187q-64 82 -193 82z" />
    <glyph glyph-name="q" unicode="q" 
d="M567 1044q87 0 151 -34t85 -33q21 0 49 33q14 14 29 14h32q17 0 29 -12t12 -29v-1352q0 -16 -12 -28t-29 -13h-39q-16 0 -28 12t-12 29v349q0 51 -48 51q-8 0 -74 -26t-145 -25q-157 0 -267 112t-121 266t0 308t121 266t267 112zM572 924q-128 0 -192 -82
q-117 -151 -77 -473q12 -105 77 -187t193 -82t187 82t69 187q32 331 -69 473q-59 82 -188 82z" />
    <glyph glyph-name="r" unicode="r" 
d="M897 696q0 98 -71 163q-70 65 -186 65t-192 -71t-75 -177v-635q-1 -17 -13 -29t-28 -12h-39q-16 0 -29 12q-12 12 -12 29v942q0 17 12 29t29 12h33q14 0 36 -24t42 -23q20 0 92 34t159 33q160 0 261 -95t102 -253q0 -16 -12 -28t-29 -13h-39q-16 1 -28 13t-13 28z" />
    <glyph glyph-name="s" unicode="s" 
d="M168 334q0 16 12 28t29 13h39q16 -1 28 -13t13 -28q0 -109 78 -172q79 -64 199 -64t195 56t75 143q0 147 -283 188q-160 25 -255 86t-95 185t108 206q109 82 253 82t249 -83q104 -84 105 -224q0 -16 -12 -28t-29 -13h-39q-16 0 -28 12t-13 29q0 80 -65 136
q-65 57 -169 57t-171 -50t-66 -118q0 -110 162 -141q201 -37 270 -66t107 -59q93 -75 92 -204q-1 -128 -111 -220t-278 -92t-284 94t-116 260z" />
    <glyph glyph-name="t" unicode="t" 
d="M489 872v-544q1 -104 57 -164t140 -62q84 0 135 58t51 147q0 17 12 29t29 12h43q16 0 28 -12t13 -29q0 -137 -90 -232t-224 -95t-225 96t-91 231v565q0 20 -21 21h-227q-16 0 -29 12q-12 12 -12 29v39q0 16 12 28t29 13h227q20 0 21 20v318q0 16 12 28t29 13h41
q16 -1 28 -13t12 -28v-318q0 -20 21 -20h340q16 0 28 -12t13 -29v-39q0 -16 -12 -28t-29 -13h-340q-21 -1 -21 -21z" />
    <glyph glyph-name="u" unicode="u" 
d="M870 0q-14 0 -36 24t-40 23q-19 0 -88 -34t-157 -33q-166 0 -266 93t-101 263v647q0 17 12 29t29 12h39q16 0 28 -12t13 -29v-647q0 -236 260 -236q111 0 186 65t74 161v657q1 17 13 29t28 12h39q17 0 29 -12t12 -29v-942q0 -17 -12 -29t-29 -12h-33z" />
    <glyph glyph-name="v" unicode="v" 
d="M924 1024h53q23 0 34 -15t5 -32l-363 -946q-12 -31 -39 -31h-104q-27 0 -39 31l-362 946q-6 15 5 31t33 16h54q29 0 39 -31l307 -829q3 -12 15 -12t16 12l307 829q10 31 39 31z" />
    <glyph glyph-name="w" unicode="w" 
d="M530 799h66q33 0 39 -31l100 -516q3 -12 15 -12t14 12l137 741q6 31 39 31h43q23 0 33 -14t6 -33l-193 -946q-6 -31 -38 -31h-76q-33 0 -39 31l-101 528q-2 10 -12 10t-12 -10l-100 -528q-6 -31 -39 -31h-76q-33 0 -39 31l-193 946q-4 19 6 33t33 14h43q33 0 39 -31
l137 -741q2 -12 14 -12t15 12l101 516q5 31 38 31z" />
    <glyph glyph-name="x" unicode="x" 
d="M262 0h-49q-29 0 -39 22t6 46l305 464q8 14 2 27l-272 397q-16 24 -6 46t39 22h45q33 0 45 -20l217 -338q8 -16 16 0l217 338q12 20 46 20h45q29 0 39 -22t-7 -46l-272 -397q-6 -12 2 -27l305 -464q16 -24 6 -46t-39 -22h-49q-33 0 -45 20l-248 390q-8 16 -16 0
l-248 -390q-12 -20 -45 -20z" />
    <glyph glyph-name="y" unicode="y" 
d="M905 1024h58q23 0 33 -15t5 -32l-520 -1356q-10 -31 -39 -31h-45q-23 0 -33 16t-6 32l152 411q6 16 2 27l-387 901q-6 15 5 31t34 16h57q29 0 39 -31l315 -753q8 -20 17 0l274 753q10 31 39 31z" />
    <glyph glyph-name="z" unicode="z" 
d="M225 905q-16 1 -28 13t-13 28v37q0 17 12 29t29 12h676q17 0 29 -12t12 -29v-59q0 -35 -41 -84l-582 -701q-6 -8 -3 -14t14 -6h592q16 -1 28 -13t13 -28v-37q-1 -17 -13 -29t-28 -12h-717q-16 0 -29 12q-12 12 -12 29v63q-1 33 26 64l598 717q15 20 -10 20h-553z" />
    <glyph glyph-name="Agrave" unicode="&#xc0;" 
d="M383 532h360q23 0 17 23l-187 696q-4 12 -8 13h-4q-4 -1 -8 -13l-186 -696q-6 -23 16 -23zM174 0h-51q-23 0 -34 12t-7 29l391 1362q6 31 39 31h102q33 0 39 -31l391 -1362q4 -17 -7 -29t-33 -12h-52q-33 0 -39 31l-100 346q-10 29 -39 29h-422q-29 0 -39 -29l-100 -346
q-6 -31 -39 -31z" />
    <glyph glyph-name="Aacute" unicode="&#xc1;" 
d="M383 532h360q23 0 17 23l-187 696q-4 12 -8 13h-4q-4 -1 -8 -13l-186 -696q-6 -23 16 -23zM174 0h-51q-23 0 -34 12t-7 29l391 1362q6 31 39 31h102q33 0 39 -31l391 -1362q4 -17 -7 -29t-33 -12h-52q-33 0 -39 31l-100 346q-10 29 -39 29h-422q-29 0 -39 -29l-100 -346
q-6 -31 -39 -31z" />
    <glyph glyph-name="Acircumflex" unicode="&#xc2;" 
d="M383 532h360q23 0 17 23l-187 696q-4 12 -8 13h-4q-4 -1 -8 -13l-186 -696q-6 -23 16 -23zM174 0h-51q-23 0 -34 12t-7 29l391 1362q6 31 39 31h102q33 0 39 -31l391 -1362q4 -17 -7 -29t-33 -12h-52q-33 0 -39 31l-100 346q-10 29 -39 29h-422q-29 0 -39 -29l-100 -346
q-6 -31 -39 -31z" />
    <glyph glyph-name="Atilde" unicode="&#xc3;" 
d="M383 532h360q23 0 17 23l-187 696q-4 12 -8 13h-4q-4 -1 -8 -13l-186 -696q-6 -23 16 -23zM174 0h-51q-23 0 -34 12t-7 29l391 1362q6 31 39 31h102q33 0 39 -31l391 -1362q4 -17 -7 -29t-33 -12h-52q-33 0 -39 31l-100 346q-10 29 -39 29h-422q-29 0 -39 -29l-100 -346
q-6 -31 -39 -31z" />
    <glyph glyph-name="Adieresis" unicode="&#xc4;" 
d="M383 532h360q23 0 17 23l-187 696q-4 12 -8 13h-4q-4 -1 -8 -13l-186 -696q-6 -23 16 -23zM174 0h-51q-23 0 -34 12t-7 29l391 1362q6 31 39 31h102q33 0 39 -31l391 -1362q4 -17 -7 -29t-33 -12h-52q-33 0 -39 31l-100 346q-10 29 -39 29h-422q-29 0 -39 -29l-100 -346
q-6 -31 -39 -31z" />
    <glyph glyph-name="Aring" unicode="&#xc5;" 
d="M383 532h360q23 0 17 23l-187 696q-4 12 -8 13h-4q-4 -1 -8 -13l-186 -696q-6 -23 16 -23zM174 0h-51q-23 0 -34 12t-7 29l391 1362q6 31 39 31h102q33 0 39 -31l391 -1362q4 -17 -7 -29t-33 -12h-52q-33 0 -39 31l-100 346q-10 29 -39 29h-422q-29 0 -39 -29l-100 -346
q-6 -31 -39 -31z" />
    <glyph glyph-name="AE" unicode="&#xc6;" horiz-adv-x="2252" 
d="M1456 1282v-465q0 -20 21 -20h548q17 -1 29 -13t12 -28v-47q0 -17 -12 -29t-29 -12h-548q-20 0 -21 -21v-495q0 -20 21 -21h575q16 0 28 -12t13 -29v-49q0 -17 -12 -29t-29 -12h-686q-16 0 -29 12q-12 12 -12 29v1352q0 16 12 28t29 13h682q16 0 28 -12t13 -29v-50
q0 -16 -12 -28t-29 -12h-571q-21 -1 -21 -21zM383 532h360q23 0 17 23l-187 696q-4 12 -8 13h-4q-4 -1 -8 -13l-186 -696q-6 -23 16 -23zM174 0h-51q-23 0 -34 12t-7 29l391 1362q6 31 39 31h102q33 0 39 -31l391 -1362q4 -17 -7 -29t-33 -12h-52q-33 0 -39 31l-100 346
q-10 29 -39 29h-422q-29 0 -39 -29l-100 -346q-6 -31 -39 -31z" />
    <glyph glyph-name="Ccedilla" unicode="&#xc7;" 
d="M891 410v8q0 16 12 28t29 13h55q17 -1 29 -13t12 -28v-8q0 -193 -132 -310q-132 -116 -320 -116t-312 114q-123 114 -149 312q-16 125 -17 308q0 183 17 306q25 180 144 303t315 123t325 -126t129 -300v-8q0 -16 -12 -28t-29 -13h-55q-16 0 -29 12q-12 12 -12 29v8
q0 119 -89 207q-88 88 -228 88t-222 -86t-100 -210t-18 -306t16 -301q18 -119 95 -210t227 -91q150 1 235 95q84 94 84 200z" />
    <glyph glyph-name="Egrave" unicode="&#xc8;" 
d="M330 1282v-465q0 -20 20 -20h549q17 -1 29 -13t12 -28v-47q0 -17 -12 -29t-29 -12h-549q-20 0 -20 -21v-495q0 -20 20 -21h576q16 0 28 -12t13 -29v-49q-1 -17 -13 -29t-28 -12h-686q-16 0 -29 12q-12 12 -12 29v1352q0 16 12 28t29 13h682q16 0 28 -12t13 -29v-50
q-1 -16 -13 -28t-28 -12h-572q-20 -1 -20 -21z" />
    <glyph glyph-name="Eacute" unicode="&#xc9;" 
d="M330 1282v-465q0 -20 20 -20h549q17 -1 29 -13t12 -28v-47q0 -17 -12 -29t-29 -12h-549q-20 0 -20 -21v-495q0 -20 20 -21h576q16 0 28 -12t13 -29v-49q-1 -17 -13 -29t-28 -12h-686q-16 0 -29 12q-12 12 -12 29v1352q0 16 12 28t29 13h682q16 0 28 -12t13 -29v-50
q-1 -16 -13 -28t-28 -12h-572q-20 -1 -20 -21z" />
    <glyph glyph-name="Ecircumflex" unicode="&#xca;" 
d="M330 1282v-465q0 -20 20 -20h549q17 -1 29 -13t12 -28v-47q0 -17 -12 -29t-29 -12h-549q-20 0 -20 -21v-495q0 -20 20 -21h576q16 0 28 -12t13 -29v-49q-1 -17 -13 -29t-28 -12h-686q-16 0 -29 12q-12 12 -12 29v1352q0 16 12 28t29 13h682q16 0 28 -12t13 -29v-50
q-1 -16 -13 -28t-28 -12h-572q-20 -1 -20 -21z" />
    <glyph glyph-name="Edieresis" unicode="&#xcb;" 
d="M330 1282v-465q0 -20 20 -20h549q17 -1 29 -13t12 -28v-47q0 -17 -12 -29t-29 -12h-549q-20 0 -20 -21v-495q0 -20 20 -21h576q16 0 28 -12t13 -29v-49q-1 -17 -13 -29t-28 -12h-686q-16 0 -29 12q-12 12 -12 29v1352q0 16 12 28t29 13h682q16 0 28 -12t13 -29v-50
q-1 -16 -13 -28t-28 -12h-572q-20 -1 -20 -21z" />
    <glyph glyph-name="Igrave" unicode="&#xcc;" 
d="M496 145v1145q0 20 -21 21h-256q-16 0 -29 12q-12 12 -12 29v41q0 16 12 28t29 13h686q17 0 29 -12t12 -29v-41q0 -16 -12 -28t-29 -13h-256q-20 0 -20 -21v-1145q0 -20 20 -20h277q16 0 28 -12t13 -29v-43q-1 -17 -13 -29t-28 -12h-727q-16 0 -29 12q-12 12 -12 29v43
q0 16 12 28t29 13h276q21 0 21 20z" />
    <glyph glyph-name="Iacute" unicode="&#xcd;" 
d="M496 145v1145q0 20 -21 21h-256q-16 0 -29 12q-12 12 -12 29v41q0 16 12 28t29 13h686q17 0 29 -12t12 -29v-41q0 -16 -12 -28t-29 -13h-256q-20 0 -20 -21v-1145q0 -20 20 -20h277q16 0 28 -12t13 -29v-43q-1 -17 -13 -29t-28 -12h-727q-16 0 -29 12q-12 12 -12 29v43
q0 16 12 28t29 13h276q21 0 21 20z" />
    <glyph glyph-name="Icircumflex" unicode="&#xce;" 
d="M496 145v1145q0 20 -21 21h-256q-16 0 -29 12q-12 12 -12 29v41q0 16 12 28t29 13h686q17 0 29 -12t12 -29v-41q0 -16 -12 -28t-29 -13h-256q-20 0 -20 -21v-1145q0 -20 20 -20h277q16 0 28 -12t13 -29v-43q-1 -17 -13 -29t-28 -12h-727q-16 0 -29 12q-12 12 -12 29v43
q0 16 12 28t29 13h276q21 0 21 20z" />
    <glyph glyph-name="Idieresis" unicode="&#xcf;" 
d="M496 145v1145q0 20 -21 21h-256q-16 0 -29 12q-12 12 -12 29v41q0 16 12 28t29 13h686q17 0 29 -12t12 -29v-41q0 -16 -12 -28t-29 -13h-256q-20 0 -20 -21v-1145q0 -20 20 -20h277q16 0 28 -12t13 -29v-43q-1 -17 -13 -29t-28 -12h-727q-16 0 -29 12q-12 12 -12 29v43
q0 16 12 28t29 13h276q21 0 21 20z" />
    <glyph glyph-name="Eth" unicode="&#xd0;" 
d="M293 131h258q149 0 227 84t94 202t17 300q-1 182 -19 305t-100 202t-219 79h-258q-20 0 -21 -21v-1130q1 -21 21 -21zM551 0h-369q-16 0 -28 12t-13 29v1352q1 16 13 28t28 13h369q195 0 313 -116t144 -294q16 -123 16 -306t-16 -308q-27 -194 -149 -302t-308 -108z" />
    <glyph glyph-name="Ntilde" unicode="&#xd1;" 
d="M973 1393v-1352q0 -17 -12 -29t-29 -12h-107q-29 0 -43 35l-489 1175q-2 6 -9 5t-8 -9v-1165q0 -17 -12 -29t-28 -12h-41q-16 0 -29 12q-12 12 -12 29v1352q0 16 12 28t29 13h106q29 0 43 -35l490 -1166q2 -6 9 -5t7 10v1155q0 16 12 28t29 13h41q16 0 28 -12t13 -29z
" />
    <glyph glyph-name="Ograve" unicode="&#xd2;" 
d="M563 1450q193 0 313 -123t144 -303q16 -123 16 -306t-16 -308q-27 -199 -150 -313q-123 -113 -307 -113t-307 114t-150 312q-16 125 -16 308t16 306q24 180 144 303t313 123zM563 1319q-137 0 -219 -86t-100 -210t-18 -306t16 -301q18 -119 95 -210t227 -91t226 91
q77 91 94 210t17 301t-18 306q-19 124 -101 210t-219 86z" />
    <glyph glyph-name="Oacute" unicode="&#xd3;" 
d="M563 1450q193 0 313 -123t144 -303q16 -123 16 -306t-16 -308q-27 -199 -150 -313q-123 -113 -307 -113t-307 114t-150 312q-16 125 -16 308t16 306q24 180 144 303t313 123zM563 1319q-137 0 -219 -86t-100 -210t-18 -306t16 -301q18 -119 95 -210t227 -91t226 91
q77 91 94 210t17 301t-18 306q-19 124 -101 210t-219 86z" />
    <glyph glyph-name="Ocircumflex" unicode="&#xd4;" 
d="M563 1450q193 0 313 -123t144 -303q16 -123 16 -306t-16 -308q-27 -199 -150 -313q-123 -113 -307 -113t-307 114t-150 312q-16 125 -16 308t16 306q24 180 144 303t313 123zM563 1319q-137 0 -219 -86t-100 -210t-18 -306t16 -301q18 -119 95 -210t227 -91t226 91
q77 91 94 210t17 301t-18 306q-19 124 -101 210t-219 86z" />
    <glyph glyph-name="Otilde" unicode="&#xd5;" 
d="M563 1450q193 0 313 -123t144 -303q16 -123 16 -306t-16 -308q-27 -199 -150 -313q-123 -113 -307 -113t-307 114t-150 312q-16 125 -16 308t16 306q24 180 144 303t313 123zM563 1319q-137 0 -219 -86t-100 -210t-18 -306t16 -301q18 -119 95 -210t227 -91t226 91
q77 91 94 210t17 301t-18 306q-19 124 -101 210t-219 86z" />
    <glyph glyph-name="Odieresis" unicode="&#xd6;" 
d="M563 1450q193 0 313 -123t144 -303q16 -123 16 -306t-16 -308q-27 -199 -150 -313q-123 -113 -307 -113t-307 114t-150 312q-16 125 -16 308t16 306q24 180 144 303t313 123zM563 1319q-137 0 -219 -86t-100 -210t-18 -306t16 -301q18 -119 95 -210t227 -91t226 91
q77 91 94 210t17 301t-18 306q-19 124 -101 210t-219 86z" />
    <glyph glyph-name="Oslash" unicode="&#xd8;" 
d="M563 1450q193 0 313 -123t144 -303q16 -123 16 -306t-16 -308q-27 -199 -150 -313q-123 -113 -307 -113t-307 114t-150 312q-16 125 -16 308t16 306q24 180 144 303t313 123zM563 1319q-137 0 -219 -86t-100 -210t-18 -306t16 -301q18 -119 95 -210t227 -91t226 91
q77 91 94 210t17 301t-18 306q-19 124 -101 210t-219 86z" />
    <glyph glyph-name="Ugrave" unicode="&#xd9;" 
d="M254 1393v-969q0 -125 90 -217t219 -92t219 92t90 217v969q0 16 12 28t29 13h50q16 0 28 -12t13 -29v-969q0 -182 -130 -311t-311 -129q-182 0 -311 129t-129 311v969q0 16 12 28t29 13h49q17 0 29 -12t12 -29z" />
    <glyph glyph-name="Uacute" unicode="&#xda;" 
d="M254 1393v-969q0 -125 90 -217t219 -92t219 92t90 217v969q0 16 12 28t29 13h50q16 0 28 -12t13 -29v-969q0 -182 -130 -311t-311 -129q-182 0 -311 129t-129 311v969q0 16 12 28t29 13h49q17 0 29 -12t12 -29z" />
    <glyph glyph-name="Ucircumflex" unicode="&#xdb;" 
d="M254 1393v-969q0 -125 90 -217t219 -92t219 92t90 217v969q0 16 12 28t29 13h50q16 0 28 -12t13 -29v-969q0 -182 -130 -311t-311 -129q-182 0 -311 129t-129 311v969q0 16 12 28t29 13h49q17 0 29 -12t12 -29z" />
    <glyph glyph-name="Udieresis" unicode="&#xdc;" 
d="M254 1393v-969q0 -125 90 -217t219 -92t219 92t90 217v969q0 16 12 28t29 13h50q16 0 28 -12t13 -29v-969q0 -182 -130 -311t-311 -129q-182 0 -311 129t-129 311v969q0 16 12 28t29 13h49q17 0 29 -12t12 -29z" />
    <glyph glyph-name="Yacute" unicode="&#xdd;" 
d="M893 1434h65q20 0 30 -18t3 -40l-358 -882v-453q0 -17 -12 -29t-29 -12h-53q-16 0 -29 12q-12 12 -12 29v451l-363 884q-8 23 2 40t31 18h65q29 0 39 -31l285 -731q8 -20 16 0l281 731q10 31 39 31z" />
    <glyph glyph-name="Thorn" unicode="&#xde;" 
d="M563 1303h-237q-20 0 -21 -21v-557q0 -20 21 -20h237q123 0 211 88t88 211t-88 211t-211 88zM305 553v-512q0 -17 -12 -29t-29 -12h-49q-16 0 -29 12q-12 12 -12 29v1352q0 16 12 28t29 13h348q178 0 304 -126t126 -304t-126 -304t-304 -127h-237q-21 0 -21 -20z" />
    <glyph glyph-name="germandbls" unicode="&#xdf;" horiz-adv-x="2252" 
d="M1294 334q0 16 12 28t29 13h39q16 -1 28 -13t13 -28q0 -109 78 -172q78 -64 199 -64q122 0 196 56t74 143q0 147 -283 188q-160 25 -255 86t-95 185t109 206t253 82t248 -84t105 -223q0 -16 -12 -28t-29 -13h-39q-16 0 -28 12t-13 29q0 80 -64 136q-65 57 -169 57
t-171 -50t-67 -118q0 -111 163 -141q199 -36 269 -66q69 -29 108 -59q91 -74 91 -203t-110 -221q-111 -92 -279 -92t-284 94t-116 260zM168 334q0 16 12 28t29 13h39q16 -1 28 -13t13 -28q0 -109 78 -172q79 -64 199 -64t195 56t75 143q0 147 -283 188q-160 25 -255 86
t-95 185t108 206q109 82 253 82t249 -83q104 -84 105 -224q0 -16 -12 -28t-29 -13h-39q-16 0 -28 12t-13 29q0 80 -65 136q-65 57 -169 57t-171 -50t-66 -118q0 -110 162 -141q201 -37 270 -66t107 -59q93 -75 92 -204q-1 -128 -111 -220t-278 -92t-284 94t-116 260z" />
    <glyph glyph-name="agrave" unicode="&#xe0;" 
d="M827 707q0 101 -69 163q-70 62 -172 62t-174 -51t-72 -129q0 -35 -47 -35h-29q-41 0 -41 41q0 135 108 211q109 75 259 75t254 -87t104 -252v-664q0 -17 -12 -29t-29 -12h-18q-19 0 -25 8t-14 28t-22 21q-13 0 -101 -39t-178 -38q-180 0 -277 94q-96 94 -96 229t90 219
t248 84h293q20 0 20 21v80zM813 494h-299q-92 0 -154 -50t-63 -144q0 -95 70 -150q69 -56 191 -56t199 66t77 190v123q-1 21 -21 21z" />
    <glyph glyph-name="aacute" unicode="&#xe1;" 
d="M827 707q0 101 -69 163q-70 62 -172 62t-174 -51t-72 -129q0 -35 -47 -35h-29q-41 0 -41 41q0 135 108 211q109 75 259 75t254 -87t104 -252v-664q0 -17 -12 -29t-29 -12h-18q-19 0 -25 8t-14 28t-22 21q-13 0 -101 -39t-178 -38q-180 0 -277 94q-96 94 -96 229t90 219
t248 84h293q20 0 20 21v80zM813 494h-299q-92 0 -154 -50t-63 -144q0 -95 70 -150q69 -56 191 -56t199 66t77 190v123q-1 21 -21 21z" />
    <glyph glyph-name="acircumflex" unicode="&#xe2;" 
d="M827 707q0 101 -69 163q-70 62 -172 62t-174 -51t-72 -129q0 -35 -47 -35h-29q-41 0 -41 41q0 135 108 211q109 75 259 75t254 -87t104 -252v-664q0 -17 -12 -29t-29 -12h-18q-19 0 -25 8t-14 28t-22 21q-13 0 -101 -39t-178 -38q-180 0 -277 94q-96 94 -96 229t90 219
t248 84h293q20 0 20 21v80zM813 494h-299q-92 0 -154 -50t-63 -144q0 -95 70 -150q69 -56 191 -56t199 66t77 190v123q-1 21 -21 21z" />
    <glyph glyph-name="atilde" unicode="&#xe3;" 
d="M827 707q0 101 -69 163q-70 62 -172 62t-174 -51t-72 -129q0 -35 -47 -35h-29q-41 0 -41 41q0 135 108 211q109 75 259 75t254 -87t104 -252v-664q0 -17 -12 -29t-29 -12h-18q-19 0 -25 8t-14 28t-22 21q-13 0 -101 -39t-178 -38q-180 0 -277 94q-96 94 -96 229t90 219
t248 84h293q20 0 20 21v80zM813 494h-299q-92 0 -154 -50t-63 -144q0 -95 70 -150q69 -56 191 -56t199 66t77 190v123q-1 21 -21 21z" />
    <glyph glyph-name="adieresis" unicode="&#xe4;" 
d="M827 707q0 101 -69 163q-70 62 -172 62t-174 -51t-72 -129q0 -35 -47 -35h-29q-41 0 -41 41q0 135 108 211q109 75 259 75t254 -87t104 -252v-664q0 -17 -12 -29t-29 -12h-18q-19 0 -25 8t-14 28t-22 21q-13 0 -101 -39t-178 -38q-180 0 -277 94q-96 94 -96 229t90 219
t248 84h293q20 0 20 21v80zM813 494h-299q-92 0 -154 -50t-63 -144q0 -95 70 -150q69 -56 191 -56t199 66t77 190v123q-1 21 -21 21z" />
    <glyph glyph-name="aring" unicode="&#xe5;" 
d="M827 707q0 101 -69 163q-70 62 -172 62t-174 -51t-72 -129q0 -35 -47 -35h-29q-41 0 -41 41q0 135 108 211q109 75 259 75t254 -87t104 -252v-664q0 -17 -12 -29t-29 -12h-18q-19 0 -25 8t-14 28t-22 21q-13 0 -101 -39t-178 -38q-180 0 -277 94q-96 94 -96 229t90 219
t248 84h293q20 0 20 21v80zM813 494h-299q-92 0 -154 -50t-63 -144q0 -95 70 -150q69 -56 191 -56t199 66t77 190v123q-1 21 -21 21z" />
    <glyph glyph-name="ae" unicode="&#xe6;" horiz-adv-x="2252" 
d="M1401 598q0 -20 20 -20h553q20 0 21 20q0 152 -83 239t-217 87t-214 -85t-80 -241zM1397 442q1 -156 75 -248t226 -94q112 0 180 56t94 137q10 35 47 35h41q41 0 35 -41q-18 -135 -129 -221q-110 -86 -278 -86t-283 112t-126 266t0 308t126 267q115 111 290 111t294 -120
t118 -289v-131q0 -16 -12 -28t-29 -13h-649q-20 -1 -20 -21zM827 707q0 101 -69 163q-70 62 -172 62t-174 -51t-72 -129q0 -35 -47 -35h-29q-41 0 -41 41q0 135 108 211q109 75 259 75t254 -87t104 -252v-664q0 -17 -12 -29t-29 -12h-18q-19 0 -25 8t-14 28t-22 21
q-13 0 -101 -39t-178 -38q-180 0 -277 94q-96 94 -96 229t90 219t248 84h293q20 0 20 21v80zM813 494h-299q-92 0 -154 -50t-63 -144q0 -95 70 -150q69 -56 191 -56t199 66t77 190v123q-1 21 -21 21z" />
    <glyph glyph-name="ccedilla" unicode="&#xe7;" 
d="M574 100q132 0 200 72t68 162q0 35 39 35h43q16 -1 28 -13t13 -28q0 -144 -109 -246q-110 -102 -282 -102t-284 110t-123 266t0 312t123 266t285 110t281 -102t109 -246q0 -41 -35 -41h-47q-39 0 -39 33q0 96 -72 166t-200 70t-200 -83q-71 -83 -83 -206t0 -245t83 -206
t202 -84z" />
    <glyph glyph-name="egrave" unicode="&#xe8;" 
d="M274 598q0 -20 21 -20h553q20 0 20 20q0 152 -83 239t-217 87t-214 -85t-80 -241zM270 442q0 -156 75 -248t226 -94q111 0 180 56t95 137q10 35 47 35h41q41 0 35 -41q-18 -135 -129 -221t-279 -86q-169 0 -283 112t-125 266t0 308t126 267q115 111 289 111t294 -120
q119 -120 119 -289v-131q0 -16 -12 -28t-29 -13h-649q-21 -1 -21 -21z" />
    <glyph glyph-name="eacute" unicode="&#xe9;" 
d="M274 598q0 -20 21 -20h553q20 0 20 20q0 152 -83 239t-217 87t-214 -85t-80 -241zM270 442q0 -156 75 -248t226 -94q111 0 180 56t95 137q10 35 47 35h41q41 0 35 -41q-18 -135 -129 -221t-279 -86q-169 0 -283 112t-125 266t0 308t126 267q115 111 289 111t294 -120
q119 -120 119 -289v-131q0 -16 -12 -28t-29 -13h-649q-21 -1 -21 -21z" />
    <glyph glyph-name="ecircumflex" unicode="&#xea;" 
d="M274 598q0 -20 21 -20h553q20 0 20 20q0 152 -83 239t-217 87t-214 -85t-80 -241zM270 442q0 -156 75 -248t226 -94q111 0 180 56t95 137q10 35 47 35h41q41 0 35 -41q-18 -135 -129 -221t-279 -86q-169 0 -283 112t-125 266t0 308t126 267q115 111 289 111t294 -120
q119 -120 119 -289v-131q0 -16 -12 -28t-29 -13h-649q-21 -1 -21 -21z" />
    <glyph glyph-name="edieresis" unicode="&#xeb;" 
d="M274 598q0 -20 21 -20h553q20 0 20 20q0 152 -83 239t-217 87t-214 -85t-80 -241zM270 442q0 -156 75 -248t226 -94q111 0 180 56t95 137q10 35 47 35h41q41 0 35 -41q-18 -135 -129 -221t-279 -86q-169 0 -283 112t-125 266t0 308t126 267q115 111 289 111t294 -120
q119 -120 119 -289v-131q0 -16 -12 -28t-29 -13h-649q-21 -1 -21 -21z" />
    <glyph glyph-name="igrave" unicode="&#xec;" 
d="M524 901h-256q-16 0 -28 12t-13 29v41q1 17 13 29t28 12h359q16 0 28 -12t13 -29v-840q0 -20 20 -20h268q16 0 28 -12t13 -29v-41q0 -17 -12 -29t-29 -12h-708q-16 0 -29 12q-12 12 -12 29v41q0 16 12 28t29 13h276q20 0 21 20v738q-1 20 -21 20zM680 1415v-108
q0 -33 -33 -33h-106q-33 0 -33 33v108q0 13 9 23t24 10h106q14 0 24 -10q9 -11 9 -23z" />
    <glyph glyph-name="iacute" unicode="&#xed;" 
d="M524 901h-256q-16 0 -28 12t-13 29v41q1 17 13 29t28 12h359q16 0 28 -12t13 -29v-840q0 -20 20 -20h268q16 0 28 -12t13 -29v-41q0 -17 -12 -29t-29 -12h-708q-16 0 -29 12q-12 12 -12 29v41q0 16 12 28t29 13h276q20 0 21 20v738q-1 20 -21 20zM680 1415v-108
q0 -33 -33 -33h-106q-33 0 -33 33v108q0 13 9 23t24 10h106q14 0 24 -10q9 -11 9 -23z" />
    <glyph glyph-name="icircumflex" unicode="&#xee;" 
d="M524 901h-256q-16 0 -28 12t-13 29v41q1 17 13 29t28 12h359q16 0 28 -12t13 -29v-840q0 -20 20 -20h268q16 0 28 -12t13 -29v-41q0 -17 -12 -29t-29 -12h-708q-16 0 -29 12q-12 12 -12 29v41q0 16 12 28t29 13h276q20 0 21 20v738q-1 20 -21 20zM680 1415v-108
q0 -33 -33 -33h-106q-33 0 -33 33v108q0 13 9 23t24 10h106q14 0 24 -10q9 -11 9 -23z" />
    <glyph glyph-name="idieresis" unicode="&#xef;" 
d="M524 901h-256q-16 0 -28 12t-13 29v41q1 17 13 29t28 12h359q16 0 28 -12t13 -29v-840q0 -20 20 -20h268q16 0 28 -12t13 -29v-41q0 -17 -12 -29t-29 -12h-708q-16 0 -29 12q-12 12 -12 29v41q0 16 12 28t29 13h276q20 0 21 20v738q-1 20 -21 20zM680 1415v-108
q0 -33 -33 -33h-106q-33 0 -33 33v108q0 13 9 23t24 10h106q14 0 24 -10q9 -11 9 -23z" />
    <glyph glyph-name="ntilde" unicode="&#xf1;" 
d="M333 977q19 0 88 34t157 33q166 0 266 -93t100 -263v-647q0 -17 -12 -29t-29 -12h-39q-16 0 -28 12t-13 29v647q0 236 -260 236q-111 0 -185 -65t-75 -161v-657q0 -17 -12 -29t-29 -12h-39q-16 0 -28 12t-13 29v942q0 17 12 29t29 12h33q14 0 29 -14q29 -33 48 -33z" />
    <glyph glyph-name="ograve" unicode="&#xf2;" 
d="M563 924q-343 0 -291 -534q12 -122 83 -206t208 -84q343 0 291 534q-12 122 -83 206t-208 84zM563 1044q178 0 290 -110t123 -266t0 -312t-123 -266t-290 -110t-290 110q-113 110 -123 266t1 312t122 266q112 110 290 110z" />
    <glyph glyph-name="oacute" unicode="&#xf3;" 
d="M563 924q-343 0 -291 -534q12 -122 83 -206t208 -84q343 0 291 534q-12 122 -83 206t-208 84zM563 1044q178 0 290 -110t123 -266t0 -312t-123 -266t-290 -110t-290 110q-113 110 -123 266t1 312t122 266q112 110 290 110z" />
    <glyph glyph-name="ocircumflex" unicode="&#xf4;" 
d="M563 924q-343 0 -291 -534q12 -122 83 -206t208 -84q343 0 291 534q-12 122 -83 206t-208 84zM563 1044q178 0 290 -110t123 -266t0 -312t-123 -266t-290 -110t-290 110q-113 110 -123 266t1 312t122 266q112 110 290 110z" />
    <glyph glyph-name="otilde" unicode="&#xf5;" 
d="M563 924q-343 0 -291 -534q12 -122 83 -206t208 -84q343 0 291 534q-12 122 -83 206t-208 84zM563 1044q178 0 290 -110t123 -266t0 -312t-123 -266t-290 -110t-290 110q-113 110 -123 266t1 312t122 266q112 110 290 110z" />
    <glyph glyph-name="odieresis" unicode="&#xf6;" 
d="M563 924q-343 0 -291 -534q12 -122 83 -206t208 -84q343 0 291 534q-12 122 -83 206t-208 84zM563 1044q178 0 290 -110t123 -266t0 -312t-123 -266t-290 -110t-290 110q-113 110 -123 266t1 312t122 266q112 110 290 110z" />
    <glyph glyph-name="oslash" unicode="&#xf8;" 
d="M563 924q-343 0 -291 -534q12 -122 83 -206t208 -84q343 0 291 534q-12 122 -83 206t-208 84zM563 1044q178 0 290 -110t123 -266t0 -312t-123 -266t-290 -110t-290 110q-113 110 -123 266t1 312t122 266q112 110 290 110z" />
    <glyph glyph-name="ugrave" unicode="&#xf9;" 
d="M870 0q-14 0 -36 24t-40 23q-19 0 -88 -34t-157 -33q-166 0 -266 93t-101 263v647q0 17 12 29t29 12h39q16 0 28 -12t13 -29v-647q0 -236 260 -236q111 0 186 65t74 161v657q1 17 13 29t28 12h39q17 0 29 -12t12 -29v-942q0 -17 -12 -29t-29 -12h-33z" />
    <glyph glyph-name="uacute" unicode="&#xfa;" 
d="M870 0q-14 0 -36 24t-40 23q-19 0 -88 -34t-157 -33q-166 0 -266 93t-101 263v647q0 17 12 29t29 12h39q16 0 28 -12t13 -29v-647q0 -236 260 -236q111 0 186 65t74 161v657q1 17 13 29t28 12h39q17 0 29 -12t12 -29v-942q0 -17 -12 -29t-29 -12h-33z" />
    <glyph glyph-name="ucircumflex" unicode="&#xfb;" 
d="M870 0q-14 0 -36 24t-40 23q-19 0 -88 -34t-157 -33q-166 0 -266 93t-101 263v647q0 17 12 29t29 12h39q16 0 28 -12t13 -29v-647q0 -236 260 -236q111 0 186 65t74 161v657q1 17 13 29t28 12h39q17 0 29 -12t12 -29v-942q0 -17 -12 -29t-29 -12h-33z" />
    <glyph glyph-name="udieresis" unicode="&#xfc;" 
d="M870 0q-14 0 -36 24t-40 23q-19 0 -88 -34t-157 -33q-166 0 -266 93t-101 263v647q0 17 12 29t29 12h39q16 0 28 -12t13 -29v-647q0 -236 260 -236q111 0 186 65t74 161v657q1 17 13 29t28 12h39q17 0 29 -12t12 -29v-942q0 -17 -12 -29t-29 -12h-33z" />
    <glyph glyph-name="yacute" unicode="&#xfd;" 
d="M905 1024h58q23 0 33 -15t5 -32l-520 -1356q-10 -31 -39 -31h-45q-23 0 -33 16t-6 32l152 411q6 16 2 27l-387 901q-6 15 5 31t34 16h57q29 0 39 -31l315 -753q8 -20 17 0l274 753q10 31 39 31z" />
    <glyph glyph-name="thorn" unicode="&#xfe;" 
d="M559 1044q157 0 267 -112t121 -266t0 -308t-121 -266q-110 -113 -267 -112q-75 0 -143 26t-76 25q-47 0 -47 -51v-349q0 -16 -12 -28t-29 -13h-39q-17 0 -29 12t-12 29v1352q0 17 12 29t29 12h33q14 0 36 -24t42 -23q20 -1 84 33t151 34zM555 924q-129 0 -188 -82
q-102 -142 -70 -473q9 -105 69 -187t188 -82t192 82q117 149 77 473q-12 104 -75 187q-64 82 -193 82z" />
    <glyph glyph-name="ydieresis" unicode="&#xff;" 
d="M905 1024h58q23 0 33 -15t5 -32l-520 -1356q-10 -31 -39 -31h-45q-23 0 -33 16t-6 32l152 411q6 16 2 27l-387 901q-6 15 5 31t34 16h57q29 0 39 -31l315 -753q8 -20 17 0l274 753q10 31 39 31z" />
    <glyph glyph-name="Amacron" unicode="&#x100;" 
d="M383 532h360q23 0 17 23l-187 696q-4 12 -8 13h-4q-4 -1 -8 -13l-186 -696q-6 -23 16 -23zM174 0h-51q-23 0 -34 12t-7 29l391 1362q6 31 39 31h102q33 0 39 -31l391 -1362q4 -17 -7 -29t-33 -12h-52q-33 0 -39 31l-100 346q-10 29 -39 29h-422q-29 0 -39 -29l-100 -346
q-6 -31 -39 -31z" />
    <glyph glyph-name="amacron" unicode="&#x101;" 
d="M827 707q0 101 -69 163q-70 62 -172 62t-174 -51t-72 -129q0 -35 -47 -35h-29q-41 0 -41 41q0 135 108 211q109 75 259 75t254 -87t104 -252v-664q0 -17 -12 -29t-29 -12h-18q-19 0 -25 8t-14 28t-22 21q-13 0 -101 -39t-178 -38q-180 0 -277 94q-96 94 -96 229t90 219
t248 84h293q20 0 20 21v80zM813 494h-299q-92 0 -154 -50t-63 -144q0 -95 70 -150q69 -56 191 -56t199 66t77 190v123q-1 21 -21 21z" />
    <glyph glyph-name="Abreve" unicode="&#x102;" 
d="M383 532h360q23 0 17 23l-187 696q-4 12 -8 13h-4q-4 -1 -8 -13l-186 -696q-6 -23 16 -23zM174 0h-51q-23 0 -34 12t-7 29l391 1362q6 31 39 31h102q33 0 39 -31l391 -1362q4 -17 -7 -29t-33 -12h-52q-33 0 -39 31l-100 346q-10 29 -39 29h-422q-29 0 -39 -29l-100 -346
q-6 -31 -39 -31z" />
    <glyph glyph-name="abreve" unicode="&#x103;" 
d="M827 707q0 101 -69 163q-70 62 -172 62t-174 -51t-72 -129q0 -35 -47 -35h-29q-41 0 -41 41q0 135 108 211q109 75 259 75t254 -87t104 -252v-664q0 -17 -12 -29t-29 -12h-18q-19 0 -25 8t-14 28t-22 21q-13 0 -101 -39t-178 -38q-180 0 -277 94q-96 94 -96 229t90 219
t248 84h293q20 0 20 21v80zM813 494h-299q-92 0 -154 -50t-63 -144q0 -95 70 -150q69 -56 191 -56t199 66t77 190v123q-1 21 -21 21z" />
    <glyph glyph-name="Aogonek" unicode="&#x104;" 
d="M383 532h360q23 0 17 23l-187 696q-4 12 -8 13h-4q-4 -1 -8 -13l-186 -696q-6 -23 16 -23zM174 0h-51q-23 0 -34 12t-7 29l391 1362q6 31 39 31h102q33 0 39 -31l391 -1362q4 -17 -7 -29t-33 -12h-52q-33 0 -39 31l-100 346q-10 29 -39 29h-422q-29 0 -39 -29l-100 -346
q-6 -31 -39 -31z" />
    <glyph glyph-name="aogonek" unicode="&#x105;" 
d="M827 707q0 101 -69 163q-70 62 -172 62t-174 -51t-72 -129q0 -35 -47 -35h-29q-41 0 -41 41q0 135 108 211q109 75 259 75t254 -87t104 -252v-664q0 -17 -12 -29t-29 -12h-18q-19 0 -25 8t-14 28t-22 21q-13 0 -101 -39t-178 -38q-180 0 -277 94q-96 94 -96 229t90 219
t248 84h293q20 0 20 21v80zM813 494h-299q-92 0 -154 -50t-63 -144q0 -95 70 -150q69 -56 191 -56t199 66t77 190v123q-1 21 -21 21z" />
    <glyph glyph-name="Cacute" unicode="&#x106;" 
d="M891 410v8q0 16 12 28t29 13h55q17 -1 29 -13t12 -28v-8q0 -193 -132 -310q-132 -116 -320 -116t-312 114q-123 114 -149 312q-16 125 -17 308q0 183 17 306q25 180 144 303t315 123t325 -126t129 -300v-8q0 -16 -12 -28t-29 -13h-55q-16 0 -29 12q-12 12 -12 29v8
q0 119 -89 207q-88 88 -228 88t-222 -86t-100 -210t-18 -306t16 -301q18 -119 95 -210t227 -91q150 1 235 95q84 94 84 200z" />
    <glyph glyph-name="cacute" unicode="&#x107;" 
d="M574 100q132 0 200 72t68 162q0 35 39 35h43q16 -1 28 -13t13 -28q0 -144 -109 -246q-110 -102 -282 -102t-284 110t-123 266t0 312t123 266t285 110t281 -102t109 -246q0 -41 -35 -41h-47q-39 0 -39 33q0 96 -72 166t-200 70t-200 -83q-71 -83 -83 -206t0 -245t83 -206
t202 -84z" />
    <glyph glyph-name="Ccircumflex" unicode="&#x108;" 
d="M891 410v8q0 16 12 28t29 13h55q17 -1 29 -13t12 -28v-8q0 -193 -132 -310q-132 -116 -320 -116t-312 114q-123 114 -149 312q-16 125 -17 308q0 183 17 306q25 180 144 303t315 123t325 -126t129 -300v-8q0 -16 -12 -28t-29 -13h-55q-16 0 -29 12q-12 12 -12 29v8
q0 119 -89 207q-88 88 -228 88t-222 -86t-100 -210t-18 -306t16 -301q18 -119 95 -210t227 -91q150 1 235 95q84 94 84 200z" />
    <glyph glyph-name="ccircumflex" unicode="&#x109;" 
d="M574 100q132 0 200 72t68 162q0 35 39 35h43q16 -1 28 -13t13 -28q0 -144 -109 -246q-110 -102 -282 -102t-284 110t-123 266t0 312t123 266t285 110t281 -102t109 -246q0 -41 -35 -41h-47q-39 0 -39 33q0 96 -72 166t-200 70t-200 -83q-71 -83 -83 -206t0 -245t83 -206
t202 -84z" />
    <glyph glyph-name="Cdotaccent" unicode="&#x10a;" 
d="M891 410v8q0 16 12 28t29 13h55q17 -1 29 -13t12 -28v-8q0 -193 -132 -310q-132 -116 -320 -116t-312 114q-123 114 -149 312q-16 125 -17 308q0 183 17 306q25 180 144 303t315 123t325 -126t129 -300v-8q0 -16 -12 -28t-29 -13h-55q-16 0 -29 12q-12 12 -12 29v8
q0 119 -89 207q-88 88 -228 88t-222 -86t-100 -210t-18 -306t16 -301q18 -119 95 -210t227 -91q150 1 235 95q84 94 84 200z" />
    <glyph glyph-name="cdotaccent" unicode="&#x10b;" 
d="M574 100q132 0 200 72t68 162q0 35 39 35h43q16 -1 28 -13t13 -28q0 -144 -109 -246q-110 -102 -282 -102t-284 110t-123 266t0 312t123 266t285 110t281 -102t109 -246q0 -41 -35 -41h-47q-39 0 -39 33q0 96 -72 166t-200 70t-200 -83q-71 -83 -83 -206t0 -245t83 -206
t202 -84z" />
    <glyph glyph-name="Ccaron" unicode="&#x10c;" 
d="M891 410v8q0 16 12 28t29 13h55q17 -1 29 -13t12 -28v-8q0 -193 -132 -310q-132 -116 -320 -116t-312 114q-123 114 -149 312q-16 125 -17 308q0 183 17 306q25 180 144 303t315 123t325 -126t129 -300v-8q0 -16 -12 -28t-29 -13h-55q-16 0 -29 12q-12 12 -12 29v8
q0 119 -89 207q-88 88 -228 88t-222 -86t-100 -210t-18 -306t16 -301q18 -119 95 -210t227 -91q150 1 235 95q84 94 84 200z" />
    <glyph glyph-name="ccaron" unicode="&#x10d;" 
d="M574 100q132 0 200 72t68 162q0 35 39 35h43q16 -1 28 -13t13 -28q0 -144 -109 -246q-110 -102 -282 -102t-284 110t-123 266t0 312t123 266t285 110t281 -102t109 -246q0 -41 -35 -41h-47q-39 0 -39 33q0 96 -72 166t-200 70t-200 -83q-71 -83 -83 -206t0 -245t83 -206
t202 -84z" />
    <glyph glyph-name="Dcaron" unicode="&#x10e;" 
d="M293 131h258q149 0 227 84t94 202t17 300q-1 182 -19 305t-100 202t-219 79h-258q-20 0 -21 -21v-1130q1 -21 21 -21zM551 0h-369q-16 0 -28 12t-13 29v1352q1 16 13 28t28 13h369q195 0 313 -116t144 -294q16 -123 16 -306t-16 -308q-27 -194 -149 -302t-308 -108z" />
    <glyph glyph-name="dcaron" unicode="&#x10f;" 
d="M567 -20q-157 0 -267 112t-121 266t0 308t121 266q110 113 267 112q76 0 142 -26t73 -25q51 0 52 51v363q0 17 12 29t28 12h39q17 0 29 -12t12 -29v-1366q0 -17 -12 -29t-29 -12h-32q-14 0 -29 14q-29 33 -49 33q-20 1 -84 -33t-152 -34zM572 100q129 0 188 82
q101 141 69 473q-10 105 -69 187t-187 82t-193 -82t-77 -187q-41 -323 76 -473q64 -82 193 -82z" />
    <glyph glyph-name="Dcroat" unicode="&#x110;" 
d="M293 131h258q149 0 227 84t94 202t17 300q-1 182 -19 305t-100 202t-219 79h-258q-20 0 -21 -21v-1130q1 -21 21 -21zM551 0h-369q-16 0 -28 12t-13 29v1352q1 16 13 28t28 13h369q195 0 313 -116t144 -294q16 -123 16 -306t-16 -308q-27 -194 -149 -302t-308 -108z" />
    <glyph glyph-name="dcroat" unicode="&#x111;" 
d="M567 -20q-157 0 -267 112t-121 266t0 308t121 266q110 113 267 112q76 0 142 -26t73 -25q51 0 52 51v363q0 17 12 29t28 12h39q17 0 29 -12t12 -29v-1366q0 -17 -12 -29t-29 -12h-32q-14 0 -29 14q-29 33 -49 33q-20 1 -84 -33t-152 -34zM572 100q129 0 188 82
q101 141 69 473q-10 105 -69 187t-187 82t-193 -82t-77 -187q-41 -323 76 -473q64 -82 193 -82z" />
    <glyph glyph-name="Emacron" unicode="&#x112;" 
d="M330 1282v-465q0 -20 20 -20h549q17 -1 29 -13t12 -28v-47q0 -17 -12 -29t-29 -12h-549q-20 0 -20 -21v-495q0 -20 20 -21h576q16 0 28 -12t13 -29v-49q-1 -17 -13 -29t-28 -12h-686q-16 0 -29 12q-12 12 -12 29v1352q0 16 12 28t29 13h682q16 0 28 -12t13 -29v-50
q-1 -16 -13 -28t-28 -12h-572q-20 -1 -20 -21z" />
    <glyph glyph-name="emacron" unicode="&#x113;" 
d="M274 598q0 -20 21 -20h553q20 0 20 20q0 152 -83 239t-217 87t-214 -85t-80 -241zM270 442q0 -156 75 -248t226 -94q111 0 180 56t95 137q10 35 47 35h41q41 0 35 -41q-18 -135 -129 -221t-279 -86q-169 0 -283 112t-125 266t0 308t126 267q115 111 289 111t294 -120
q119 -120 119 -289v-131q0 -16 -12 -28t-29 -13h-649q-21 -1 -21 -21z" />
    <glyph glyph-name="Ebreve" unicode="&#x114;" 
d="M330 1282v-465q0 -20 20 -20h549q17 -1 29 -13t12 -28v-47q0 -17 -12 -29t-29 -12h-549q-20 0 -20 -21v-495q0 -20 20 -21h576q16 0 28 -12t13 -29v-49q-1 -17 -13 -29t-28 -12h-686q-16 0 -29 12q-12 12 -12 29v1352q0 16 12 28t29 13h682q16 0 28 -12t13 -29v-50
q-1 -16 -13 -28t-28 -12h-572q-20 -1 -20 -21z" />
    <glyph glyph-name="ebreve" unicode="&#x115;" 
d="M274 598q0 -20 21 -20h553q20 0 20 20q0 152 -83 239t-217 87t-214 -85t-80 -241zM270 442q0 -156 75 -248t226 -94q111 0 180 56t95 137q10 35 47 35h41q41 0 35 -41q-18 -135 -129 -221t-279 -86q-169 0 -283 112t-125 266t0 308t126 267q115 111 289 111t294 -120
q119 -120 119 -289v-131q0 -16 -12 -28t-29 -13h-649q-21 -1 -21 -21z" />
    <glyph glyph-name="Edotaccent" unicode="&#x116;" 
d="M330 1282v-465q0 -20 20 -20h549q17 -1 29 -13t12 -28v-47q0 -17 -12 -29t-29 -12h-549q-20 0 -20 -21v-495q0 -20 20 -21h576q16 0 28 -12t13 -29v-49q-1 -17 -13 -29t-28 -12h-686q-16 0 -29 12q-12 12 -12 29v1352q0 16 12 28t29 13h682q16 0 28 -12t13 -29v-50
q-1 -16 -13 -28t-28 -12h-572q-20 -1 -20 -21z" />
    <glyph glyph-name="edotaccent" unicode="&#x117;" 
d="M274 598q0 -20 21 -20h553q20 0 20 20q0 152 -83 239t-217 87t-214 -85t-80 -241zM270 442q0 -156 75 -248t226 -94q111 0 180 56t95 137q10 35 47 35h41q41 0 35 -41q-18 -135 -129 -221t-279 -86q-169 0 -283 112t-125 266t0 308t126 267q115 111 289 111t294 -120
q119 -120 119 -289v-131q0 -16 -12 -28t-29 -13h-649q-21 -1 -21 -21z" />
    <glyph glyph-name="Eogonek" unicode="&#x118;" 
d="M330 1282v-465q0 -20 20 -20h549q17 -1 29 -13t12 -28v-47q0 -17 -12 -29t-29 -12h-549q-20 0 -20 -21v-495q0 -20 20 -21h576q16 0 28 -12t13 -29v-49q-1 -17 -13 -29t-28 -12h-686q-16 0 -29 12q-12 12 -12 29v1352q0 16 12 28t29 13h682q16 0 28 -12t13 -29v-50
q-1 -16 -13 -28t-28 -12h-572q-20 -1 -20 -21z" />
    <glyph glyph-name="eogonek" unicode="&#x119;" 
d="M274 598q0 -20 21 -20h553q20 0 20 20q0 152 -83 239t-217 87t-214 -85t-80 -241zM270 442q0 -156 75 -248t226 -94q111 0 180 56t95 137q10 35 47 35h41q41 0 35 -41q-18 -135 -129 -221t-279 -86q-169 0 -283 112t-125 266t0 308t126 267q115 111 289 111t294 -120
q119 -120 119 -289v-131q0 -16 -12 -28t-29 -13h-649q-21 -1 -21 -21z" />
    <glyph glyph-name="Ecaron" unicode="&#x11a;" 
d="M330 1282v-465q0 -20 20 -20h549q17 -1 29 -13t12 -28v-47q0 -17 -12 -29t-29 -12h-549q-20 0 -20 -21v-495q0 -20 20 -21h576q16 0 28 -12t13 -29v-49q-1 -17 -13 -29t-28 -12h-686q-16 0 -29 12q-12 12 -12 29v1352q0 16 12 28t29 13h682q16 0 28 -12t13 -29v-50
q-1 -16 -13 -28t-28 -12h-572q-20 -1 -20 -21z" />
    <glyph glyph-name="ecaron" unicode="&#x11b;" 
d="M274 598q0 -20 21 -20h553q20 0 20 20q0 152 -83 239t-217 87t-214 -85t-80 -241zM270 442q0 -156 75 -248t226 -94q111 0 180 56t95 137q10 35 47 35h41q41 0 35 -41q-18 -135 -129 -221t-279 -86q-169 0 -283 112t-125 266t0 308t126 267q115 111 289 111t294 -120
q119 -120 119 -289v-131q0 -16 -12 -28t-29 -13h-649q-21 -1 -21 -21z" />
    <glyph glyph-name="Gcircumflex" unicode="&#x11c;" 
d="M897 410v221q0 20 -20 20h-250q-17 1 -29 13t-12 28v49q0 17 12 29t29 12h360q17 0 29 -12t12 -29v-331q0 -193 -132 -310q-132 -116 -320 -116t-312 114q-123 114 -149 312q-16 125 -17 308q0 183 17 306q25 180 144 303t315 123t325 -123t129 -303v-8q0 -16 -12 -28
t-29 -13h-55q-16 0 -29 12q-12 12 -12 29v8q0 129 -88 212q-89 83 -229 83t-222 -86t-100 -210t-18 -306t16 -301q18 -119 95 -210t227 -91q150 1 238 95q87 94 87 200z" />
    <glyph glyph-name="gcircumflex" unicode="&#x11d;" 
d="M572 924q-128 0 -192 -82q-117 -151 -77 -473q12 -105 77 -187t193 -82t187 82t69 187q32 331 -69 473q-59 82 -188 82zM881 1024h32q17 0 29 -12t12 -29v-1044q0 -154 -102 -262q-102 -107 -246 -107t-248 74q-102 74 -131 206q-10 47 37 48h33q39 0 53 -41
q25 -68 83 -117t163 -49q106 0 172 75t66 173v41q0 51 -46 51q-14 0 -91 -26t-130 -25q-157 0 -267 112t-121 266t0 308t121 266q110 113 267 112q87 0 151 -34t85 -33q21 0 49 33q15 14 29 14z" />
    <glyph glyph-name="Gbreve" unicode="&#x11e;" 
d="M897 410v221q0 20 -20 20h-250q-17 1 -29 13t-12 28v49q0 17 12 29t29 12h360q17 0 29 -12t12 -29v-331q0 -193 -132 -310q-132 -116 -320 -116t-312 114q-123 114 -149 312q-16 125 -17 308q0 183 17 306q25 180 144 303t315 123t325 -123t129 -303v-8q0 -16 -12 -28
t-29 -13h-55q-16 0 -29 12q-12 12 -12 29v8q0 129 -88 212q-89 83 -229 83t-222 -86t-100 -210t-18 -306t16 -301q18 -119 95 -210t227 -91q150 1 238 95q87 94 87 200z" />
    <glyph glyph-name="gbreve" unicode="&#x11f;" 
d="M572 924q-128 0 -192 -82q-117 -151 -77 -473q12 -105 77 -187t193 -82t187 82t69 187q32 331 -69 473q-59 82 -188 82zM881 1024h32q17 0 29 -12t12 -29v-1044q0 -154 -102 -262q-102 -107 -246 -107t-248 74q-102 74 -131 206q-10 47 37 48h33q39 0 53 -41
q25 -68 83 -117t163 -49q106 0 172 75t66 173v41q0 51 -46 51q-14 0 -91 -26t-130 -25q-157 0 -267 112t-121 266t0 308t121 266q110 113 267 112q87 0 151 -34t85 -33q21 0 49 33q15 14 29 14z" />
    <glyph glyph-name="Gdotaccent" unicode="&#x120;" 
d="M897 410v221q0 20 -20 20h-250q-17 1 -29 13t-12 28v49q0 17 12 29t29 12h360q17 0 29 -12t12 -29v-331q0 -193 -132 -310q-132 -116 -320 -116t-312 114q-123 114 -149 312q-16 125 -17 308q0 183 17 306q25 180 144 303t315 123t325 -123t129 -303v-8q0 -16 -12 -28
t-29 -13h-55q-16 0 -29 12q-12 12 -12 29v8q0 129 -88 212q-89 83 -229 83t-222 -86t-100 -210t-18 -306t16 -301q18 -119 95 -210t227 -91q150 1 238 95q87 94 87 200z" />
    <glyph glyph-name="gdotaccent" unicode="&#x121;" 
d="M572 924q-128 0 -192 -82q-117 -151 -77 -473q12 -105 77 -187t193 -82t187 82t69 187q32 331 -69 473q-59 82 -188 82zM881 1024h32q17 0 29 -12t12 -29v-1044q0 -154 -102 -262q-102 -107 -246 -107t-248 74q-102 74 -131 206q-10 47 37 48h33q39 0 53 -41
q25 -68 83 -117t163 -49q106 0 172 75t66 173v41q0 51 -46 51q-14 0 -91 -26t-130 -25q-157 0 -267 112t-121 266t0 308t121 266q110 113 267 112q87 0 151 -34t85 -33q21 0 49 33q15 14 29 14z" />
    <glyph glyph-name="Gcommaaccent" unicode="&#x122;" 
d="M897 410v221q0 20 -20 20h-250q-17 1 -29 13t-12 28v49q0 17 12 29t29 12h360q17 0 29 -12t12 -29v-331q0 -193 -132 -310q-132 -116 -320 -116t-312 114q-123 114 -149 312q-16 125 -17 308q0 183 17 306q25 180 144 303t315 123t325 -123t129 -303v-8q0 -16 -12 -28
t-29 -13h-55q-16 0 -29 12q-12 12 -12 29v8q0 129 -88 212q-89 83 -229 83t-222 -86t-100 -210t-18 -306t16 -301q18 -119 95 -210t227 -91q150 1 238 95q87 94 87 200z" />
    <glyph glyph-name="gcommaaccent" unicode="&#x123;" 
d="M572 924q-128 0 -192 -82q-117 -151 -77 -473q12 -105 77 -187t193 -82t187 82t69 187q32 331 -69 473q-59 82 -188 82zM881 1024h32q17 0 29 -12t12 -29v-1044q0 -154 -102 -262q-102 -107 -246 -107t-248 74q-102 74 -131 206q-10 47 37 48h33q39 0 53 -41
q25 -68 83 -117t163 -49q106 0 172 75t66 173v41q0 51 -46 51q-14 0 -91 -26t-130 -25q-157 0 -267 112t-121 266t0 308t121 266q110 113 267 112q87 0 151 -34t85 -33q21 0 49 33q15 14 29 14z" />
    <glyph glyph-name="Hcircumflex" unicode="&#x124;" 
d="M274 1393v-574q0 -20 21 -20h536q20 0 21 20v574q0 16 12 28t29 13h49q16 0 28 -12t13 -29v-1352q0 -17 -12 -29t-29 -12h-49q-16 0 -29 12q-12 12 -12 29v606q0 20 -21 21h-536q-20 0 -21 -21v-606q0 -17 -12 -29t-29 -12h-49q-16 0 -28 12t-13 29v1352q1 16 13 28
t28 13h49q17 0 29 -12t12 -29z" />
    <glyph glyph-name="hcircumflex" unicode="&#x125;" 
d="M272 0h-39q-16 0 -28 12t-12 29v1366q0 17 12 29t28 12h39q16 0 28 -12t13 -29v-371q1 -16 13 -29t27 -13t85 25q70 26 140 25q158 0 257 -104t99 -252v-647q0 -17 -12 -29t-29 -12h-39q-16 0 -29 12q-12 12 -12 29v647q0 102 -70 169q-69 67 -179 67t-180 -65t-71 -161
v-657q0 -16 -12 -29q-13 -12 -29 -12z" />
    <glyph glyph-name="Hbar" unicode="&#x126;" 
d="M274 1393v-574q0 -20 21 -20h536q20 0 21 20v574q0 16 12 28t29 13h49q16 0 28 -12t13 -29v-1352q0 -17 -12 -29t-29 -12h-49q-16 0 -29 12q-12 12 -12 29v606q0 20 -21 21h-536q-20 0 -21 -21v-606q0 -17 -12 -29t-29 -12h-49q-16 0 -28 12t-13 29v1352q1 16 13 28
t28 13h49q17 0 29 -12t12 -29z" />
    <glyph glyph-name="hbar" unicode="&#x127;" 
d="M272 0h-39q-16 0 -28 12t-12 29v1366q0 17 12 29t28 12h39q16 0 28 -12t13 -29v-371q1 -16 13 -29t27 -13t85 25q70 26 140 25q158 0 257 -104t99 -252v-647q0 -17 -12 -29t-29 -12h-39q-16 0 -29 12q-12 12 -12 29v647q0 102 -70 169q-69 67 -179 67t-180 -65t-71 -161
v-657q0 -16 -12 -29q-13 -12 -29 -12z" />
    <glyph glyph-name="Itilde" unicode="&#x128;" 
d="M496 145v1145q0 20 -21 21h-256q-16 0 -29 12q-12 12 -12 29v41q0 16 12 28t29 13h686q17 0 29 -12t12 -29v-41q0 -16 -12 -28t-29 -13h-256q-20 0 -20 -21v-1145q0 -20 20 -20h277q16 0 28 -12t13 -29v-43q-1 -17 -13 -29t-28 -12h-727q-16 0 -29 12q-12 12 -12 29v43
q0 16 12 28t29 13h276q21 0 21 20z" />
    <glyph glyph-name="itilde" unicode="&#x129;" 
d="M524 901h-256q-16 0 -28 12t-13 29v41q1 17 13 29t28 12h359q16 0 28 -12t13 -29v-840q0 -20 20 -20h268q16 0 28 -12t13 -29v-41q0 -17 -12 -29t-29 -12h-708q-16 0 -29 12q-12 12 -12 29v41q0 16 12 28t29 13h276q20 0 21 20v738q-1 20 -21 20zM680 1415v-108
q0 -33 -33 -33h-106q-33 0 -33 33v108q0 13 9 23t24 10h106q14 0 24 -10q9 -11 9 -23z" />
    <glyph glyph-name="Imacron" unicode="&#x12a;" 
d="M496 145v1145q0 20 -21 21h-256q-16 0 -29 12q-12 12 -12 29v41q0 16 12 28t29 13h686q17 0 29 -12t12 -29v-41q0 -16 -12 -28t-29 -13h-256q-20 0 -20 -21v-1145q0 -20 20 -20h277q16 0 28 -12t13 -29v-43q-1 -17 -13 -29t-28 -12h-727q-16 0 -29 12q-12 12 -12 29v43
q0 16 12 28t29 13h276q21 0 21 20z" />
    <glyph glyph-name="imacron" unicode="&#x12b;" 
d="M524 901h-256q-16 0 -28 12t-13 29v41q1 17 13 29t28 12h359q16 0 28 -12t13 -29v-840q0 -20 20 -20h268q16 0 28 -12t13 -29v-41q0 -17 -12 -29t-29 -12h-708q-16 0 -29 12q-12 12 -12 29v41q0 16 12 28t29 13h276q20 0 21 20v738q-1 20 -21 20zM680 1415v-108
q0 -33 -33 -33h-106q-33 0 -33 33v108q0 13 9 23t24 10h106q14 0 24 -10q9 -11 9 -23z" />
    <glyph glyph-name="Ibreve" unicode="&#x12c;" 
d="M496 145v1145q0 20 -21 21h-256q-16 0 -29 12q-12 12 -12 29v41q0 16 12 28t29 13h686q17 0 29 -12t12 -29v-41q0 -16 -12 -28t-29 -13h-256q-20 0 -20 -21v-1145q0 -20 20 -20h277q16 0 28 -12t13 -29v-43q-1 -17 -13 -29t-28 -12h-727q-16 0 -29 12q-12 12 -12 29v43
q0 16 12 28t29 13h276q21 0 21 20z" />
    <glyph glyph-name="ibreve" unicode="&#x12d;" 
d="M524 901h-256q-16 0 -28 12t-13 29v41q1 17 13 29t28 12h359q16 0 28 -12t13 -29v-840q0 -20 20 -20h268q16 0 28 -12t13 -29v-41q0 -17 -12 -29t-29 -12h-708q-16 0 -29 12q-12 12 -12 29v41q0 16 12 28t29 13h276q20 0 21 20v738q-1 20 -21 20zM680 1415v-108
q0 -33 -33 -33h-106q-33 0 -33 33v108q0 13 9 23t24 10h106q14 0 24 -10q9 -11 9 -23z" />
    <glyph glyph-name="Iogonek" unicode="&#x12e;" 
d="M496 145v1145q0 20 -21 21h-256q-16 0 -29 12q-12 12 -12 29v41q0 16 12 28t29 13h686q17 0 29 -12t12 -29v-41q0 -16 -12 -28t-29 -13h-256q-20 0 -20 -21v-1145q0 -20 20 -20h277q16 0 28 -12t13 -29v-43q-1 -17 -13 -29t-28 -12h-727q-16 0 -29 12q-12 12 -12 29v43
q0 16 12 28t29 13h276q21 0 21 20z" />
    <glyph glyph-name="iogonek" unicode="&#x12f;" 
d="M524 901h-256q-16 0 -28 12t-13 29v41q1 17 13 29t28 12h359q16 0 28 -12t13 -29v-840q0 -20 20 -20h268q16 0 28 -12t13 -29v-41q0 -17 -12 -29t-29 -12h-708q-16 0 -29 12q-12 12 -12 29v41q0 16 12 28t29 13h276q20 0 21 20v738q-1 20 -21 20zM680 1415v-108
q0 -33 -33 -33h-106q-33 0 -33 33v108q0 13 9 23t24 10h106q14 0 24 -10q9 -11 9 -23z" />
    <glyph glyph-name="Idotaccent" unicode="&#x130;" 
d="M496 145v1145q0 20 -21 21h-256q-16 0 -29 12q-12 12 -12 29v41q0 16 12 28t29 13h686q17 0 29 -12t12 -29v-41q0 -16 -12 -28t-29 -13h-256q-20 0 -20 -21v-1145q0 -20 20 -20h277q16 0 28 -12t13 -29v-43q-1 -17 -13 -29t-28 -12h-727q-16 0 -29 12q-12 12 -12 29v43
q0 16 12 28t29 13h276q21 0 21 20z" />
    <glyph glyph-name="dotlessi" unicode="&#x131;" 
d="M524 901h-256q-16 0 -28 12t-13 29v41q1 17 13 29t28 12h359q16 0 28 -12t13 -29v-840q0 -20 20 -20h268q16 0 28 -12t13 -29v-41q0 -17 -12 -29t-29 -12h-708q-16 0 -29 12q-12 12 -12 29v41q0 16 12 28t29 13h276q20 0 21 20v738q-1 20 -21 20zM680 1415v-108
q0 -33 -33 -33h-106q-33 0 -33 33v108q0 13 9 23t24 10h106q14 0 24 -10q9 -11 9 -23z" />
    <glyph glyph-name="IJ" unicode="&#x132;" horiz-adv-x="2252" 
d="M1372 410v-17q0 -115 78 -197t203 -81q125 -1 199 73t75 226v979q0 16 12 28t29 13h49q17 0 29 -12t12 -29v-1000q0 -186 -116 -298q-116 -111 -289 -111q-174 0 -294 120t-120 289v17q0 16 12 28t29 13h51q17 -1 29 -13t12 -28zM496 145v1145q0 20 -21 21h-256
q-16 0 -29 12q-12 12 -12 29v41q0 16 12 28t29 13h686q17 0 29 -12t12 -29v-41q0 -16 -12 -28t-29 -13h-256q-20 0 -20 -21v-1145q0 -20 20 -20h277q16 0 28 -12t13 -29v-43q-1 -17 -13 -29t-28 -12h-727q-16 0 -29 12q-12 12 -12 29v43q0 16 12 28t29 13h276q21 0 21 20z
" />
    <glyph glyph-name="ij" unicode="&#x133;" horiz-adv-x="2252" 
d="M1913 -72q0 -176 -88 -267q-87 -91 -227 -91t-236 96t-96 232q0 16 12 28t31 13h43q16 -1 28 -13t13 -28q0 -80 57 -140t145 -61q88 0 141 53q52 53 52 154v977q0 20 -21 20h-305q-16 0 -28 12t-13 29v41q1 17 13 29t28 12h410q16 0 28 -12t13 -29v-1055zM1915 1415v-108
q0 -33 -33 -33h-106q-33 0 -33 33v108q0 13 9 23t24 10h106q14 0 24 -10q9 -11 9 -23zM524 901h-256q-16 0 -28 12t-13 29v41q1 17 13 29t28 12h359q16 0 28 -12t13 -29v-840q0 -20 20 -20h268q16 0 28 -12t13 -29v-41q0 -17 -12 -29t-29 -12h-708q-16 0 -29 12
q-12 12 -12 29v41q0 16 12 28t29 13h276q20 0 21 20v738q-1 20 -21 20zM680 1415v-108q0 -33 -33 -33h-106q-33 0 -33 33v108q0 13 9 23t24 10h106q14 0 24 -10q9 -11 9 -23z" />
    <glyph glyph-name="Jcircumflex" unicode="&#x134;" 
d="M246 410v-17q0 -115 78 -197t202 -81q124 -1 200 73q75 74 75 226v979q0 16 12 28t29 13h49q17 0 29 -12t12 -29v-1000q0 -186 -116 -298q-116 -111 -290 -111t-294 120t-119 289v17q0 16 12 28t29 13h51q17 -1 29 -13t12 -28z" />
    <glyph glyph-name="jcircumflex" unicode="&#x135;" 
d="M786 -72q0 -176 -88 -267t-227 -91t-235 96t-97 232q1 16 13 28t30 13h43q17 -1 29 -13t12 -28q0 -80 58 -140t145 -61q88 0 140 53t53 154v977q0 20 -21 20h-305q-16 0 -29 12q-12 12 -12 29v41q0 17 12 29t29 12h409q17 0 29 -12t12 -29v-1055zM788 1415v-108
q0 -33 -32 -33h-107q-33 0 -33 33v108q0 13 10 23t23 10h107q14 0 23 -10t9 -23z" />
    <glyph glyph-name="Kcommaaccent" unicode="&#x136;" 
d="M924 1434h32q35 0 45 -27t-10 -47l-547 -596q-20 -29 -2 -49l582 -639q20 -20 10 -48t-47 -28h-45q-27 0 -53 27l-531 585q-2 4 -9 4t-7 -8v-567q0 -17 -12 -29t-29 -12h-49q-16 0 -29 12q-12 12 -12 29v1352q0 16 12 28t29 13h49q17 0 29 -12t12 -29v-541q0 -8 7 -8t9 4
l512 563q16 23 54 23z" />
    <glyph glyph-name="kcommaaccent" unicode="&#x137;" 
d="M371 432q-6 0 -6 -8v-383q-1 -17 -13 -29t-28 -12h-39q-16 0 -29 12q-12 12 -12 29v1366q0 17 12 29t29 12h39q16 0 28 -12t13 -29v-768q0 -16 16 -4l412 362q27 27 57 27h37q33 0 40 -27t-12 -41l-448 -399q-27 -27 0 -49l479 -436q22 -20 12 -46t-40 -26h-41
q-31 0 -62 31l-434 397q-4 4 -10 4z" />
    <glyph glyph-name="kgreenlandic" unicode="&#x138;" 
d="M371 432q-6 0 -6 -8v-383q-1 -17 -13 -29t-28 -12h-39q-16 0 -29 12q-12 12 -12 29v1366q0 17 12 29t29 12h39q16 0 28 -12t13 -29v-768q0 -16 16 -4l412 362q27 27 57 27h37q33 0 40 -27t-12 -41l-448 -399q-27 -27 0 -49l479 -436q22 -20 12 -46t-40 -26h-41
q-31 0 -62 31l-434 397q-4 4 -10 4z" />
    <glyph glyph-name="Lacute" unicode="&#x139;" 
d="M377 1393v-1241q0 -20 20 -21h543q16 0 28 -12t13 -29v-49q0 -17 -12 -29t-29 -12h-653q-16 0 -29 12q-12 12 -12 29v1352q0 16 12 28t29 13h49q16 0 28 -12t13 -29z" />
    <glyph glyph-name="lacute" unicode="&#x13a;" 
d="M483 1325h-247q-16 0 -29 12q-12 12 -12 29v41q0 17 12 29t29 12h350q16 0 28 -12t13 -29v-1264q0 -20 20 -20h260q17 0 29 -12t12 -29v-41q0 -17 -12 -29t-29 -12h-712q-16 0 -29 12q-12 12 -12 29v41q0 16 12 28t29 13h284q25 0 25 20v1162q-1 20 -21 20z" />
    <glyph glyph-name="Lcommaaccent" unicode="&#x13b;" 
d="M377 1393v-1241q0 -20 20 -21h543q16 0 28 -12t13 -29v-49q0 -17 -12 -29t-29 -12h-653q-16 0 -29 12q-12 12 -12 29v1352q0 16 12 28t29 13h49q16 0 28 -12t13 -29z" />
    <glyph glyph-name="lcommaaccent" unicode="&#x13c;" 
d="M483 1325h-247q-16 0 -29 12q-12 12 -12 29v41q0 17 12 29t29 12h350q16 0 28 -12t13 -29v-1264q0 -20 20 -20h260q17 0 29 -12t12 -29v-41q0 -17 -12 -29t-29 -12h-712q-16 0 -29 12q-12 12 -12 29v41q0 16 12 28t29 13h284q25 0 25 20v1162q-1 20 -21 20z" />
    <glyph glyph-name="Lcaron" unicode="&#x13d;" 
d="M377 1393v-1241q0 -20 20 -21h543q16 0 28 -12t13 -29v-49q0 -17 -12 -29t-29 -12h-653q-16 0 -29 12q-12 12 -12 29v1352q0 16 12 28t29 13h49q16 0 28 -12t13 -29z" />
    <glyph glyph-name="lcaron" unicode="&#x13e;" 
d="M483 1325h-247q-16 0 -29 12q-12 12 -12 29v41q0 17 12 29t29 12h350q16 0 28 -12t13 -29v-1264q0 -20 20 -20h260q17 0 29 -12t12 -29v-41q0 -17 -12 -29t-29 -12h-712q-16 0 -29 12q-12 12 -12 29v41q0 16 12 28t29 13h284q25 0 25 20v1162q-1 20 -21 20z" />
    <glyph glyph-name="Ldot" unicode="&#x13f;" 
d="M377 1393v-1241q0 -20 20 -21h543q16 0 28 -12t13 -29v-49q0 -17 -12 -29t-29 -12h-653q-16 0 -29 12q-12 12 -12 29v1352q0 16 12 28t29 13h49q16 0 28 -12t13 -29z" />
    <glyph glyph-name="ldot" unicode="&#x140;" 
d="M483 1325h-247q-16 0 -29 12q-12 12 -12 29v41q0 17 12 29t29 12h350q16 0 28 -12t13 -29v-1264q0 -20 20 -20h260q17 0 29 -12t12 -29v-41q0 -17 -12 -29t-29 -12h-712q-16 0 -29 12q-12 12 -12 29v41q0 16 12 28t29 13h284q25 0 25 20v1162q-1 20 -21 20z" />
    <glyph glyph-name="Lslash" unicode="&#x141;" 
d="M377 1393v-1241q0 -20 20 -21h543q16 0 28 -12t13 -29v-49q0 -17 -12 -29t-29 -12h-653q-16 0 -29 12q-12 12 -12 29v1352q0 16 12 28t29 13h49q16 0 28 -12t13 -29z" />
    <glyph glyph-name="lslash" unicode="&#x142;" 
d="M483 1325h-247q-16 0 -29 12q-12 12 -12 29v41q0 17 12 29t29 12h350q16 0 28 -12t13 -29v-1264q0 -20 20 -20h260q17 0 29 -12t12 -29v-41q0 -17 -12 -29t-29 -12h-712q-16 0 -29 12q-12 12 -12 29v41q0 16 12 28t29 13h284q25 0 25 20v1162q-1 20 -21 20z" />
    <glyph glyph-name="Nacute" unicode="&#x143;" 
d="M973 1393v-1352q0 -17 -12 -29t-29 -12h-107q-29 0 -43 35l-489 1175q-2 6 -9 5t-8 -9v-1165q0 -17 -12 -29t-28 -12h-41q-16 0 -29 12q-12 12 -12 29v1352q0 16 12 28t29 13h106q29 0 43 -35l490 -1166q2 -6 9 -5t7 10v1155q0 16 12 28t29 13h41q16 0 28 -12t13 -29z
" />
    <glyph glyph-name="nacute" unicode="&#x144;" 
d="M333 977q19 0 88 34t157 33q166 0 266 -93t100 -263v-647q0 -17 -12 -29t-29 -12h-39q-16 0 -28 12t-13 29v647q0 236 -260 236q-111 0 -185 -65t-75 -161v-657q0 -17 -12 -29t-29 -12h-39q-16 0 -28 12t-13 29v942q0 17 12 29t29 12h33q14 0 29 -14q29 -33 48 -33z" />
    <glyph glyph-name="Ncommaaccent" unicode="&#x145;" 
d="M973 1393v-1352q0 -17 -12 -29t-29 -12h-107q-29 0 -43 35l-489 1175q-2 6 -9 5t-8 -9v-1165q0 -17 -12 -29t-28 -12h-41q-16 0 -29 12q-12 12 -12 29v1352q0 16 12 28t29 13h106q29 0 43 -35l490 -1166q2 -6 9 -5t7 10v1155q0 16 12 28t29 13h41q16 0 28 -12t13 -29z
" />
    <glyph glyph-name="ncommaaccent" unicode="&#x146;" 
d="M333 977q19 0 88 34t157 33q166 0 266 -93t100 -263v-647q0 -17 -12 -29t-29 -12h-39q-16 0 -28 12t-13 29v647q0 236 -260 236q-111 0 -185 -65t-75 -161v-657q0 -17 -12 -29t-29 -12h-39q-16 0 -28 12t-13 29v942q0 17 12 29t29 12h33q14 0 29 -14q29 -33 48 -33z" />
    <glyph glyph-name="Ncaron" unicode="&#x147;" 
d="M973 1393v-1352q0 -17 -12 -29t-29 -12h-107q-29 0 -43 35l-489 1175q-2 6 -9 5t-8 -9v-1165q0 -17 -12 -29t-28 -12h-41q-16 0 -29 12q-12 12 -12 29v1352q0 16 12 28t29 13h106q29 0 43 -35l490 -1166q2 -6 9 -5t7 10v1155q0 16 12 28t29 13h41q16 0 28 -12t13 -29z
" />
    <glyph glyph-name="ncaron" unicode="&#x148;" 
d="M333 977q19 0 88 34t157 33q166 0 266 -93t100 -263v-647q0 -17 -12 -29t-29 -12h-39q-16 0 -28 12t-13 29v647q0 236 -260 236q-111 0 -185 -65t-75 -161v-657q0 -17 -12 -29t-29 -12h-39q-16 0 -28 12t-13 29v942q0 17 12 29t29 12h33q14 0 29 -14q29 -33 48 -33z" />
    <glyph glyph-name="napostrophe" unicode="&#x149;" 
d="M333 977q19 0 88 34t157 33q166 0 266 -93t100 -263v-647q0 -17 -12 -29t-29 -12h-39q-16 0 -28 12t-13 29v647q0 236 -260 236q-111 0 -185 -65t-75 -161v-657q0 -17 -12 -29t-29 -12h-39q-16 0 -28 12t-13 29v942q0 17 12 29t29 12h33q14 0 29 -14q29 -33 48 -33z" />
    <glyph glyph-name="Eng" unicode="&#x14a;" 
d="M973 1393v-1352q0 -17 -12 -29t-29 -12h-107q-29 0 -43 35l-489 1175q-2 6 -9 5t-8 -9v-1165q0 -17 -12 -29t-28 -12h-41q-16 0 -29 12q-12 12 -12 29v1352q0 16 12 28t29 13h106q29 0 43 -35l490 -1166q2 -6 9 -5t7 10v1155q0 16 12 28t29 13h41q16 0 28 -12t13 -29z
" />
    <glyph glyph-name="eng" unicode="&#x14b;" 
d="M333 977q19 0 88 34t157 33q166 0 266 -93t100 -263v-647q0 -17 -12 -29t-29 -12h-39q-16 0 -28 12t-13 29v647q0 236 -260 236q-111 0 -185 -65t-75 -161v-657q0 -17 -12 -29t-29 -12h-39q-16 0 -28 12t-13 29v942q0 17 12 29t29 12h33q14 0 29 -14q29 -33 48 -33z" />
    <glyph glyph-name="Omacron" unicode="&#x14c;" 
d="M563 1450q193 0 313 -123t144 -303q16 -123 16 -306t-16 -308q-27 -199 -150 -313q-123 -113 -307 -113t-307 114t-150 312q-16 125 -16 308t16 306q24 180 144 303t313 123zM563 1319q-137 0 -219 -86t-100 -210t-18 -306t16 -301q18 -119 95 -210t227 -91t226 91
q77 91 94 210t17 301t-18 306q-19 124 -101 210t-219 86z" />
    <glyph glyph-name="omacron" unicode="&#x14d;" 
d="M563 924q-343 0 -291 -534q12 -122 83 -206t208 -84q343 0 291 534q-12 122 -83 206t-208 84zM563 1044q178 0 290 -110t123 -266t0 -312t-123 -266t-290 -110t-290 110q-113 110 -123 266t1 312t122 266q112 110 290 110z" />
    <glyph glyph-name="Obreve" unicode="&#x14e;" 
d="M563 1450q193 0 313 -123t144 -303q16 -123 16 -306t-16 -308q-27 -199 -150 -313q-123 -113 -307 -113t-307 114t-150 312q-16 125 -16 308t16 306q24 180 144 303t313 123zM563 1319q-137 0 -219 -86t-100 -210t-18 -306t16 -301q18 -119 95 -210t227 -91t226 91
q77 91 94 210t17 301t-18 306q-19 124 -101 210t-219 86z" />
    <glyph glyph-name="obreve" unicode="&#x14f;" 
d="M563 924q-343 0 -291 -534q12 -122 83 -206t208 -84q343 0 291 534q-12 122 -83 206t-208 84zM563 1044q178 0 290 -110t123 -266t0 -312t-123 -266t-290 -110t-290 110q-113 110 -123 266t1 312t122 266q112 110 290 110z" />
    <glyph glyph-name="Ohungarumlaut" unicode="&#x150;" 
d="M563 1450q193 0 313 -123t144 -303q16 -123 16 -306t-16 -308q-27 -199 -150 -313q-123 -113 -307 -113t-307 114t-150 312q-16 125 -16 308t16 306q24 180 144 303t313 123zM563 1319q-137 0 -219 -86t-100 -210t-18 -306t16 -301q18 -119 95 -210t227 -91t226 91
q77 91 94 210t17 301t-18 306q-19 124 -101 210t-219 86z" />
    <glyph glyph-name="ohungarumlaut" unicode="&#x151;" 
d="M563 924q-343 0 -291 -534q12 -122 83 -206t208 -84q343 0 291 534q-12 122 -83 206t-208 84zM563 1044q178 0 290 -110t123 -266t0 -312t-123 -266t-290 -110t-290 110q-113 110 -123 266t1 312t122 266q112 110 290 110z" />
    <glyph glyph-name="OE" unicode="&#x152;" horiz-adv-x="2252" 
d="M1456 1282v-465q0 -20 21 -20h548q17 -1 29 -13t12 -28v-47q0 -17 -12 -29t-29 -12h-548q-20 0 -21 -21v-495q0 -20 21 -21h575q16 0 28 -12t13 -29v-49q0 -17 -12 -29t-29 -12h-686q-16 0 -29 12q-12 12 -12 29v1352q0 16 12 28t29 13h682q16 0 28 -12t13 -29v-50
q0 -16 -12 -28t-29 -12h-571q-21 -1 -21 -21zM563 1450q193 0 313 -123t144 -303q16 -123 16 -306t-16 -308q-27 -199 -150 -313q-123 -113 -307 -113t-307 114t-150 312q-16 125 -16 308t16 306q24 180 144 303t313 123zM563 1319q-137 0 -219 -86t-100 -210t-18 -306
t16 -301q18 -119 95 -210t227 -91t226 91q77 91 94 210t17 301t-18 306q-19 124 -101 210t-219 86z" />
    <glyph glyph-name="oe" unicode="&#x153;" horiz-adv-x="2252" 
d="M1401 598q0 -20 20 -20h553q20 0 21 20q0 152 -83 239t-217 87t-214 -85t-80 -241zM1397 442q1 -156 75 -248t226 -94q112 0 180 56t94 137q10 35 47 35h41q41 0 35 -41q-18 -135 -129 -221q-110 -86 -278 -86t-283 112t-126 266t0 308t126 267q115 111 290 111t294 -120
t118 -289v-131q0 -16 -12 -28t-29 -13h-649q-20 -1 -20 -21zM563 924q-343 0 -291 -534q12 -122 83 -206t208 -84q343 0 291 534q-12 122 -83 206t-208 84zM563 1044q178 0 290 -110t123 -266t0 -312t-123 -266t-290 -110t-290 110q-113 110 -123 266t1 312t122 266
q112 110 290 110z" />
    <glyph glyph-name="Racute" unicode="&#x154;" 
d="M545 573h-223q-20 0 -21 -20v-512q0 -17 -12 -29t-29 -12h-49q-16 0 -29 12q-12 12 -12 29v1352q0 16 12 28t29 13h348q178 0 304 -126t126 -304q0 -238 -244 -390q-37 -25 -14 -65l258 -488q12 -23 2 -42t-41 -19h-45q-40 0 -60 40q-7 13 -20 40q-12 27 -16 35l-225 434
q-12 24 -39 24zM559 1303h-237q-20 0 -21 -21v-557q0 -20 21 -20h237q123 0 211 88t88 211t-88 211t-211 88z" />
    <glyph glyph-name="racute" unicode="&#x155;" 
d="M897 696q0 98 -71 163q-70 65 -186 65t-192 -71t-75 -177v-635q-1 -17 -13 -29t-28 -12h-39q-16 0 -29 12q-12 12 -12 29v942q0 17 12 29t29 12h33q14 0 36 -24t42 -23q20 0 92 34t159 33q160 0 261 -95t102 -253q0 -16 -12 -28t-29 -13h-39q-16 1 -28 13t-13 28z" />
    <glyph glyph-name="Rcommaaccent" unicode="&#x156;" 
d="M545 573h-223q-20 0 -21 -20v-512q0 -17 -12 -29t-29 -12h-49q-16 0 -29 12q-12 12 -12 29v1352q0 16 12 28t29 13h348q178 0 304 -126t126 -304q0 -238 -244 -390q-37 -25 -14 -65l258 -488q12 -23 2 -42t-41 -19h-45q-40 0 -60 40q-7 13 -20 40q-12 27 -16 35l-225 434
q-12 24 -39 24zM559 1303h-237q-20 0 -21 -21v-557q0 -20 21 -20h237q123 0 211 88t88 211t-88 211t-211 88z" />
    <glyph glyph-name="rcommaaccent" unicode="&#x157;" 
d="M897 696q0 98 -71 163q-70 65 -186 65t-192 -71t-75 -177v-635q-1 -17 -13 -29t-28 -12h-39q-16 0 -29 12q-12 12 -12 29v942q0 17 12 29t29 12h33q14 0 36 -24t42 -23q20 0 92 34t159 33q160 0 261 -95t102 -253q0 -16 -12 -28t-29 -13h-39q-16 1 -28 13t-13 28z" />
    <glyph glyph-name="Rcaron" unicode="&#x158;" 
d="M545 573h-223q-20 0 -21 -20v-512q0 -17 -12 -29t-29 -12h-49q-16 0 -29 12q-12 12 -12 29v1352q0 16 12 28t29 13h348q178 0 304 -126t126 -304q0 -238 -244 -390q-37 -25 -14 -65l258 -488q12 -23 2 -42t-41 -19h-45q-40 0 -60 40q-7 13 -20 40q-12 27 -16 35l-225 434
q-12 24 -39 24zM559 1303h-237q-20 0 -21 -21v-557q0 -20 21 -20h237q123 0 211 88t88 211t-88 211t-211 88z" />
    <glyph glyph-name="rcaron" unicode="&#x159;" 
d="M897 696q0 98 -71 163q-70 65 -186 65t-192 -71t-75 -177v-635q-1 -17 -13 -29t-28 -12h-39q-16 0 -29 12q-12 12 -12 29v942q0 17 12 29t29 12h33q14 0 36 -24t42 -23q20 0 92 34t159 33q160 0 261 -95t102 -253q0 -16 -12 -28t-29 -13h-39q-16 1 -28 13t-13 28z" />
    <glyph glyph-name="Sacute" unicode="&#x15a;" 
d="M162 1065q0 177 118 281t290 104t282 -112q111 -112 111 -273v-27q-1 -16 -13 -28t-28 -13h-50q-16 1 -28 13t-13 28v27q-1 111 -77 183t-198 71q-122 0 -192 -75q-70 -74 -69 -168q0 -94 53 -147q30 -33 93 -54t115 -35q250 -67 348 -161q100 -93 100 -279t-130 -301
t-318 -115t-310 124t-123 302v32q0 16 12 28t29 13h51q17 0 29 -12t12 -29v-32q0 -117 82 -206t223 -89t224 82t85 213t-85 194t-279 109q-344 80 -344 352z" />
    <glyph glyph-name="sacute" unicode="&#x15b;" 
d="M168 334q0 16 12 28t29 13h39q16 -1 28 -13t13 -28q0 -109 78 -172q79 -64 199 -64t195 56t75 143q0 147 -283 188q-160 25 -255 86t-95 185t108 206q109 82 253 82t249 -83q104 -84 105 -224q0 -16 -12 -28t-29 -13h-39q-16 0 -28 12t-13 29q0 80 -65 136
q-65 57 -169 57t-171 -50t-66 -118q0 -110 162 -141q201 -37 270 -66t107 -59q93 -75 92 -204q-1 -128 -111 -220t-278 -92t-284 94t-116 260z" />
    <glyph glyph-name="Scircumflex" unicode="&#x15c;" 
d="M162 1065q0 177 118 281t290 104t282 -112q111 -112 111 -273v-27q-1 -16 -13 -28t-28 -13h-50q-16 1 -28 13t-13 28v27q-1 111 -77 183t-198 71q-122 0 -192 -75q-70 -74 -69 -168q0 -94 53 -147q30 -33 93 -54t115 -35q250 -67 348 -161q100 -93 100 -279t-130 -301
t-318 -115t-310 124t-123 302v32q0 16 12 28t29 13h51q17 0 29 -12t12 -29v-32q0 -117 82 -206t223 -89t224 82t85 213t-85 194t-279 109q-344 80 -344 352z" />
    <glyph glyph-name="scircumflex" unicode="&#x15d;" 
d="M168 334q0 16 12 28t29 13h39q16 -1 28 -13t13 -28q0 -109 78 -172q79 -64 199 -64t195 56t75 143q0 147 -283 188q-160 25 -255 86t-95 185t108 206q109 82 253 82t249 -83q104 -84 105 -224q0 -16 -12 -28t-29 -13h-39q-16 0 -28 12t-13 29q0 80 -65 136
q-65 57 -169 57t-171 -50t-66 -118q0 -110 162 -141q201 -37 270 -66t107 -59q93 -75 92 -204q-1 -128 -111 -220t-278 -92t-284 94t-116 260z" />
    <glyph glyph-name="Scedilla" unicode="&#x15e;" 
d="M162 1065q0 177 118 281t290 104t282 -112q111 -112 111 -273v-27q-1 -16 -13 -28t-28 -13h-50q-16 1 -28 13t-13 28v27q-1 111 -77 183t-198 71q-122 0 -192 -75q-70 -74 -69 -168q0 -94 53 -147q30 -33 93 -54t115 -35q250 -67 348 -161q100 -93 100 -279t-130 -301
t-318 -115t-310 124t-123 302v32q0 16 12 28t29 13h51q17 0 29 -12t12 -29v-32q0 -117 82 -206t223 -89t224 82t85 213t-85 194t-279 109q-344 80 -344 352z" />
    <glyph glyph-name="scedilla" unicode="&#x15f;" 
d="M168 334q0 16 12 28t29 13h39q16 -1 28 -13t13 -28q0 -109 78 -172q79 -64 199 -64t195 56t75 143q0 147 -283 188q-160 25 -255 86t-95 185t108 206q109 82 253 82t249 -83q104 -84 105 -224q0 -16 -12 -28t-29 -13h-39q-16 0 -28 12t-13 29q0 80 -65 136
q-65 57 -169 57t-171 -50t-66 -118q0 -110 162 -141q201 -37 270 -66t107 -59q93 -75 92 -204q-1 -128 -111 -220t-278 -92t-284 94t-116 260z" />
    <glyph glyph-name="Scaron" unicode="&#x160;" 
d="M162 1065q0 177 118 281t290 104t282 -112q111 -112 111 -273v-27q-1 -16 -13 -28t-28 -13h-50q-16 1 -28 13t-13 28v27q-1 111 -77 183t-198 71q-122 0 -192 -75q-70 -74 -69 -168q0 -94 53 -147q30 -33 93 -54t115 -35q250 -67 348 -161q100 -93 100 -279t-130 -301
t-318 -115t-310 124t-123 302v32q0 16 12 28t29 13h51q17 0 29 -12t12 -29v-32q0 -117 82 -206t223 -89t224 82t85 213t-85 194t-279 109q-344 80 -344 352z" />
    <glyph glyph-name="scaron" unicode="&#x161;" 
d="M168 334q0 16 12 28t29 13h39q16 -1 28 -13t13 -28q0 -109 78 -172q79 -64 199 -64t195 56t75 143q0 147 -283 188q-160 25 -255 86t-95 185t108 206q109 82 253 82t249 -83q104 -84 105 -224q0 -16 -12 -28t-29 -13h-39q-16 0 -28 12t-13 29q0 80 -65 136
q-65 57 -169 57t-171 -50t-66 -118q0 -110 162 -141q201 -37 270 -66t107 -59q93 -75 92 -204q-1 -128 -111 -220t-278 -92t-284 94t-116 260z" />
    <glyph glyph-name="Tcommaaccent" unicode="&#x162;" 
d="M479 1303h-344q-16 0 -29 12q-12 12 -12 28v50q0 16 12 28t29 13h860q17 0 29 -12t12 -29v-50q0 -16 -12 -28t-29 -12h-342q-20 0 -20 -21v-1241q0 -17 -12 -29t-29 -12h-51q-16 0 -29 12q-12 12 -12 29v1241q-1 21 -21 21z" />
    <glyph glyph-name="tcommaaccent" unicode="&#x163;" 
d="M489 872v-544q1 -104 57 -164t140 -62q84 0 135 58t51 147q0 17 12 29t29 12h43q16 0 28 -12t13 -29q0 -137 -90 -232t-224 -95t-225 96t-91 231v565q0 20 -21 21h-227q-16 0 -29 12q-12 12 -12 29v39q0 16 12 28t29 13h227q20 0 21 20v318q0 16 12 28t29 13h41
q16 -1 28 -13t12 -28v-318q0 -20 21 -20h340q16 0 28 -12t13 -29v-39q0 -16 -12 -28t-29 -13h-340q-21 -1 -21 -21z" />
    <glyph glyph-name="Tcaron" unicode="&#x164;" 
d="M479 1303h-344q-16 0 -29 12q-12 12 -12 28v50q0 16 12 28t29 13h860q17 0 29 -12t12 -29v-50q0 -16 -12 -28t-29 -12h-342q-20 0 -20 -21v-1241q0 -17 -12 -29t-29 -12h-51q-16 0 -29 12q-12 12 -12 29v1241q-1 21 -21 21z" />
    <glyph glyph-name="tcaron" unicode="&#x165;" 
d="M489 872v-544q1 -104 57 -164t140 -62q84 0 135 58t51 147q0 17 12 29t29 12h43q16 0 28 -12t13 -29q0 -137 -90 -232t-224 -95t-225 96t-91 231v565q0 20 -21 21h-227q-16 0 -29 12q-12 12 -12 29v39q0 16 12 28t29 13h227q20 0 21 20v318q0 16 12 28t29 13h41
q16 -1 28 -13t12 -28v-318q0 -20 21 -20h340q16 0 28 -12t13 -29v-39q0 -16 -12 -28t-29 -13h-340q-21 -1 -21 -21z" />
    <glyph glyph-name="Tbar" unicode="&#x166;" 
d="M479 1303h-344q-16 0 -29 12q-12 12 -12 28v50q0 16 12 28t29 13h860q17 0 29 -12t12 -29v-50q0 -16 -12 -28t-29 -12h-342q-20 0 -20 -21v-1241q0 -17 -12 -29t-29 -12h-51q-16 0 -29 12q-12 12 -12 29v1241q-1 21 -21 21z" />
    <glyph glyph-name="tbar" unicode="&#x167;" 
d="M489 872v-544q1 -104 57 -164t140 -62q84 0 135 58t51 147q0 17 12 29t29 12h43q16 0 28 -12t13 -29q0 -137 -90 -232t-224 -95t-225 96t-91 231v565q0 20 -21 21h-227q-16 0 -29 12q-12 12 -12 29v39q0 16 12 28t29 13h227q20 0 21 20v318q0 16 12 28t29 13h41
q16 -1 28 -13t12 -28v-318q0 -20 21 -20h340q16 0 28 -12t13 -29v-39q0 -16 -12 -28t-29 -13h-340q-21 -1 -21 -21z" />
    <glyph glyph-name="Utilde" unicode="&#x168;" 
d="M254 1393v-969q0 -125 90 -217t219 -92t219 92t90 217v969q0 16 12 28t29 13h50q16 0 28 -12t13 -29v-969q0 -182 -130 -311t-311 -129q-182 0 -311 129t-129 311v969q0 16 12 28t29 13h49q17 0 29 -12t12 -29z" />
    <glyph glyph-name="utilde" unicode="&#x169;" 
d="M870 0q-14 0 -36 24t-40 23q-19 0 -88 -34t-157 -33q-166 0 -266 93t-101 263v647q0 17 12 29t29 12h39q16 0 28 -12t13 -29v-647q0 -236 260 -236q111 0 186 65t74 161v657q1 17 13 29t28 12h39q17 0 29 -12t12 -29v-942q0 -17 -12 -29t-29 -12h-33z" />
    <glyph glyph-name="Umacron" unicode="&#x16a;" 
d="M254 1393v-969q0 -125 90 -217t219 -92t219 92t90 217v969q0 16 12 28t29 13h50q16 0 28 -12t13 -29v-969q0 -182 -130 -311t-311 -129q-182 0 -311 129t-129 311v969q0 16 12 28t29 13h49q17 0 29 -12t12 -29z" />
    <glyph glyph-name="umacron" unicode="&#x16b;" 
d="M870 0q-14 0 -36 24t-40 23q-19 0 -88 -34t-157 -33q-166 0 -266 93t-101 263v647q0 17 12 29t29 12h39q16 0 28 -12t13 -29v-647q0 -236 260 -236q111 0 186 65t74 161v657q1 17 13 29t28 12h39q17 0 29 -12t12 -29v-942q0 -17 -12 -29t-29 -12h-33z" />
    <glyph glyph-name="Ubreve" unicode="&#x16c;" 
d="M254 1393v-969q0 -125 90 -217t219 -92t219 92t90 217v969q0 16 12 28t29 13h50q16 0 28 -12t13 -29v-969q0 -182 -130 -311t-311 -129q-182 0 -311 129t-129 311v969q0 16 12 28t29 13h49q17 0 29 -12t12 -29z" />
    <glyph glyph-name="ubreve" unicode="&#x16d;" 
d="M870 0q-14 0 -36 24t-40 23q-19 0 -88 -34t-157 -33q-166 0 -266 93t-101 263v647q0 17 12 29t29 12h39q16 0 28 -12t13 -29v-647q0 -236 260 -236q111 0 186 65t74 161v657q1 17 13 29t28 12h39q17 0 29 -12t12 -29v-942q0 -17 -12 -29t-29 -12h-33z" />
    <glyph glyph-name="Uring" unicode="&#x16e;" 
d="M254 1393v-969q0 -125 90 -217t219 -92t219 92t90 217v969q0 16 12 28t29 13h50q16 0 28 -12t13 -29v-969q0 -182 -130 -311t-311 -129q-182 0 -311 129t-129 311v969q0 16 12 28t29 13h49q17 0 29 -12t12 -29z" />
    <glyph glyph-name="uring" unicode="&#x16f;" 
d="M870 0q-14 0 -36 24t-40 23q-19 0 -88 -34t-157 -33q-166 0 -266 93t-101 263v647q0 17 12 29t29 12h39q16 0 28 -12t13 -29v-647q0 -236 260 -236q111 0 186 65t74 161v657q1 17 13 29t28 12h39q17 0 29 -12t12 -29v-942q0 -17 -12 -29t-29 -12h-33z" />
    <glyph glyph-name="Uhungarumlaut" unicode="&#x170;" 
d="M254 1393v-969q0 -125 90 -217t219 -92t219 92t90 217v969q0 16 12 28t29 13h50q16 0 28 -12t13 -29v-969q0 -182 -130 -311t-311 -129q-182 0 -311 129t-129 311v969q0 16 12 28t29 13h49q17 0 29 -12t12 -29z" />
    <glyph glyph-name="uhungarumlaut" unicode="&#x171;" 
d="M870 0q-14 0 -36 24t-40 23q-19 0 -88 -34t-157 -33q-166 0 -266 93t-101 263v647q0 17 12 29t29 12h39q16 0 28 -12t13 -29v-647q0 -236 260 -236q111 0 186 65t74 161v657q1 17 13 29t28 12h39q17 0 29 -12t12 -29v-942q0 -17 -12 -29t-29 -12h-33z" />
    <glyph glyph-name="Uogonek" unicode="&#x172;" 
d="M254 1393v-969q0 -125 90 -217t219 -92t219 92t90 217v969q0 16 12 28t29 13h50q16 0 28 -12t13 -29v-969q0 -182 -130 -311t-311 -129q-182 0 -311 129t-129 311v969q0 16 12 28t29 13h49q17 0 29 -12t12 -29z" />
    <glyph glyph-name="uogonek" unicode="&#x173;" 
d="M870 0q-14 0 -36 24t-40 23q-19 0 -88 -34t-157 -33q-166 0 -266 93t-101 263v647q0 17 12 29t29 12h39q16 0 28 -12t13 -29v-647q0 -236 260 -236q111 0 186 65t74 161v657q1 17 13 29t28 12h39q17 0 29 -12t12 -29v-942q0 -17 -12 -29t-29 -12h-33z" />
    <glyph glyph-name="Wcircumflex" unicode="&#x174;" 
d="M772 217q10 0 12 10l127 1176q2 31 39 31h51q45 0 41 -41l-168 -1362q-2 -31 -38 -31h-138q-35 0 -39 31l-86 741q-2 14 -12 0l-115 -741q-6 -31 -38 -31h-138q-37 0 -39 31l-149 1362q-4 41 41 41h51q37 0 39 -31l119 -1176q2 -10 12 -10t12 10l123 766q6 31 39 31h94
q33 0 39 -31l109 -766q2 -10 12 -10z" />
    <glyph glyph-name="wcircumflex" unicode="&#x175;" 
d="M530 799h66q33 0 39 -31l100 -516q3 -12 15 -12t14 12l137 741q6 31 39 31h43q23 0 33 -14t6 -33l-193 -946q-6 -31 -38 -31h-76q-33 0 -39 31l-101 528q-2 10 -12 10t-12 -10l-100 -528q-6 -31 -39 -31h-76q-33 0 -39 31l-193 946q-4 19 6 33t33 14h43q33 0 39 -31
l137 -741q2 -12 14 -12t15 12l101 516q5 31 38 31z" />
    <glyph glyph-name="Ycircumflex" unicode="&#x176;" 
d="M893 1434h65q20 0 30 -18t3 -40l-358 -882v-453q0 -17 -12 -29t-29 -12h-53q-16 0 -29 12q-12 12 -12 29v451l-363 884q-8 23 2 40t31 18h65q29 0 39 -31l285 -731q8 -20 16 0l281 731q10 31 39 31z" />
    <glyph glyph-name="ycircumflex" unicode="&#x177;" 
d="M905 1024h58q23 0 33 -15t5 -32l-520 -1356q-10 -31 -39 -31h-45q-23 0 -33 16t-6 32l152 411q6 16 2 27l-387 901q-6 15 5 31t34 16h57q29 0 39 -31l315 -753q8 -20 17 0l274 753q10 31 39 31z" />
    <glyph glyph-name="Ydieresis" unicode="&#x178;" 
d="M893 1434h65q20 0 30 -18t3 -40l-358 -882v-453q0 -17 -12 -29t-29 -12h-53q-16 0 -29 12q-12 12 -12 29v451l-363 884q-8 23 2 40t31 18h65q29 0 39 -31l285 -731q8 -20 16 0l281 731q10 31 39 31z" />
    <glyph glyph-name="Zacute" unicode="&#x179;" 
d="M944 133q16 0 28 -12t13 -29v-51q0 -17 -12 -29t-29 -12h-762q-16 0 -28 12t-13 29v96q0 16 11 33l665 1112q12 20 -12 21h-602q-16 0 -29 12q-12 12 -12 28v50q0 16 12 28t29 13h721q16 0 28 -12t13 -29v-90q-1 -17 -11 -33l-657 -1116q-12 -20 12 -21h635z" />
    <glyph glyph-name="zacute" unicode="&#x17a;" 
d="M225 905q-16 1 -28 13t-13 28v37q0 17 12 29t29 12h676q17 0 29 -12t12 -29v-59q0 -35 -41 -84l-582 -701q-6 -8 -3 -14t14 -6h592q16 -1 28 -13t13 -28v-37q-1 -17 -13 -29t-28 -12h-717q-16 0 -29 12q-12 12 -12 29v63q-1 33 26 64l598 717q15 20 -10 20h-553z" />
    <glyph glyph-name="Zdotaccent" unicode="&#x17b;" 
d="M944 133q16 0 28 -12t13 -29v-51q0 -17 -12 -29t-29 -12h-762q-16 0 -28 12t-13 29v96q0 16 11 33l665 1112q12 20 -12 21h-602q-16 0 -29 12q-12 12 -12 28v50q0 16 12 28t29 13h721q16 0 28 -12t13 -29v-90q-1 -17 -11 -33l-657 -1116q-12 -20 12 -21h635z" />
    <glyph glyph-name="zdotaccent" unicode="&#x17c;" 
d="M225 905q-16 1 -28 13t-13 28v37q0 17 12 29t29 12h676q17 0 29 -12t12 -29v-59q0 -35 -41 -84l-582 -701q-6 -8 -3 -14t14 -6h592q16 -1 28 -13t13 -28v-37q-1 -17 -13 -29t-28 -12h-717q-16 0 -29 12q-12 12 -12 29v63q-1 33 26 64l598 717q15 20 -10 20h-553z" />
    <glyph glyph-name="Zcaron" unicode="&#x17d;" 
d="M944 133q16 0 28 -12t13 -29v-51q0 -17 -12 -29t-29 -12h-762q-16 0 -28 12t-13 29v96q0 16 11 33l665 1112q12 20 -12 21h-602q-16 0 -29 12q-12 12 -12 28v50q0 16 12 28t29 13h721q16 0 28 -12t13 -29v-90q-1 -17 -11 -33l-657 -1116q-12 -20 12 -21h635z" />
    <glyph glyph-name="zcaron" unicode="&#x17e;" 
d="M225 905q-16 1 -28 13t-13 28v37q0 17 12 29t29 12h676q17 0 29 -12t12 -29v-59q0 -35 -41 -84l-582 -701q-6 -8 -3 -14t14 -6h592q16 -1 28 -13t13 -28v-37q-1 -17 -13 -29t-28 -12h-717q-16 0 -29 12q-12 12 -12 29v63q-1 33 26 64l598 717q15 20 -10 20h-553z" />
    <glyph glyph-name="Aringacute" unicode="&#x1fa;" 
d="M383 532h360q23 0 17 23l-187 696q-4 12 -8 13h-4q-4 -1 -8 -13l-186 -696q-6 -23 16 -23zM174 0h-51q-23 0 -34 12t-7 29l391 1362q6 31 39 31h102q33 0 39 -31l391 -1362q4 -17 -7 -29t-33 -12h-52q-33 0 -39 31l-100 346q-10 29 -39 29h-422q-29 0 -39 -29l-100 -346
q-6 -31 -39 -31z" />
    <glyph glyph-name="aringacute" unicode="&#x1fb;" 
d="M827 707q0 101 -69 163q-70 62 -172 62t-174 -51t-72 -129q0 -35 -47 -35h-29q-41 0 -41 41q0 135 108 211q109 75 259 75t254 -87t104 -252v-664q0 -17 -12 -29t-29 -12h-18q-19 0 -25 8t-14 28t-22 21q-13 0 -101 -39t-178 -38q-180 0 -277 94q-96 94 -96 229t90 219
t248 84h293q20 0 20 21v80zM813 494h-299q-92 0 -154 -50t-63 -144q0 -95 70 -150q69 -56 191 -56t199 66t77 190v123q-1 21 -21 21z" />
    <glyph glyph-name="AEacute" unicode="&#x1fc;" horiz-adv-x="2252" 
d="M1456 1282v-465q0 -20 21 -20h548q17 -1 29 -13t12 -28v-47q0 -17 -12 -29t-29 -12h-548q-20 0 -21 -21v-495q0 -20 21 -21h575q16 0 28 -12t13 -29v-49q0 -17 -12 -29t-29 -12h-686q-16 0 -29 12q-12 12 -12 29v1352q0 16 12 28t29 13h682q16 0 28 -12t13 -29v-50
q0 -16 -12 -28t-29 -12h-571q-21 -1 -21 -21zM383 532h360q23 0 17 23l-187 696q-4 12 -8 13h-4q-4 -1 -8 -13l-186 -696q-6 -23 16 -23zM174 0h-51q-23 0 -34 12t-7 29l391 1362q6 31 39 31h102q33 0 39 -31l391 -1362q4 -17 -7 -29t-33 -12h-52q-33 0 -39 31l-100 346
q-10 29 -39 29h-422q-29 0 -39 -29l-100 -346q-6 -31 -39 -31z" />
    <glyph glyph-name="aeacute" unicode="&#x1fd;" horiz-adv-x="2252" 
d="M1401 598q0 -20 20 -20h553q20 0 21 20q0 152 -83 239t-217 87t-214 -85t-80 -241zM1397 442q1 -156 75 -248t226 -94q112 0 180 56t94 137q10 35 47 35h41q41 0 35 -41q-18 -135 -129 -221q-110 -86 -278 -86t-283 112t-126 266t0 308t126 267q115 111 290 111t294 -120
t118 -289v-131q0 -16 -12 -28t-29 -13h-649q-20 -1 -20 -21zM827 707q0 101 -69 163q-70 62 -172 62t-174 -51t-72 -129q0 -35 -47 -35h-29q-41 0 -41 41q0 135 108 211q109 75 259 75t254 -87t104 -252v-664q0 -17 -12 -29t-29 -12h-18q-19 0 -25 8t-14 28t-22 21
q-13 0 -101 -39t-178 -38q-180 0 -277 94q-96 94 -96 229t90 219t248 84h293q20 0 20 21v80zM813 494h-299q-92 0 -154 -50t-63 -144q0 -95 70 -150q69 -56 191 -56t199 66t77 190v123q-1 21 -21 21z" />
    <glyph glyph-name="Oslashacute" unicode="&#x1fe;" 
d="M563 1450q193 0 313 -123t144 -303q16 -123 16 -306t-16 -308q-27 -199 -150 -313q-123 -113 -307 -113t-307 114t-150 312q-16 125 -16 308t16 306q24 180 144 303t313 123zM563 1319q-137 0 -219 -86t-100 -210t-18 -306t16 -301q18 -119 95 -210t227 -91t226 91
q77 91 94 210t17 301t-18 306q-19 124 -101 210t-219 86z" />
    <glyph glyph-name="oslashacute" unicode="&#x1ff;" 
d="M563 924q-343 0 -291 -534q12 -122 83 -206t208 -84q343 0 291 534q-12 122 -83 206t-208 84zM563 1044q178 0 290 -110t123 -266t0 -312t-123 -266t-290 -110t-290 110q-113 110 -123 266t1 312t122 266q112 110 290 110z" />
    <glyph glyph-name="Scommaaccent" unicode="&#x218;" 
d="M162 1065q0 177 118 281t290 104t282 -112q111 -112 111 -273v-27q-1 -16 -13 -28t-28 -13h-50q-16 1 -28 13t-13 28v27q-1 111 -77 183t-198 71q-122 0 -192 -75q-70 -74 -69 -168q0 -94 53 -147q30 -33 93 -54t115 -35q250 -67 348 -161q100 -93 100 -279t-130 -301
t-318 -115t-310 124t-123 302v32q0 16 12 28t29 13h51q17 0 29 -12t12 -29v-32q0 -117 82 -206t223 -89t224 82t85 213t-85 194t-279 109q-344 80 -344 352z" />
    <glyph glyph-name="scommaaccent" unicode="&#x219;" 
d="M168 334q0 16 12 28t29 13h39q16 -1 28 -13t13 -28q0 -109 78 -172q79 -64 199 -64t195 56t75 143q0 147 -283 188q-160 25 -255 86t-95 185t108 206q109 82 253 82t249 -83q104 -84 105 -224q0 -16 -12 -28t-29 -13h-39q-16 0 -28 12t-13 29q0 80 -65 136
q-65 57 -169 57t-171 -50t-66 -118q0 -110 162 -141q201 -37 270 -66t107 -59q93 -75 92 -204q-1 -128 -111 -220t-278 -92t-284 94t-116 260z" />
    <glyph glyph-name="uni021A" unicode="&#x21a;" 
d="M479 1303h-344q-16 0 -29 12q-12 12 -12 28v50q0 16 12 28t29 13h860q17 0 29 -12t12 -29v-50q0 -16 -12 -28t-29 -12h-342q-20 0 -20 -21v-1241q0 -17 -12 -29t-29 -12h-51q-16 0 -29 12q-12 12 -12 29v1241q-1 21 -21 21z" />
    <glyph glyph-name="uni021B" unicode="&#x21b;" 
d="M870 0q-14 0 -36 24t-40 23q-19 0 -88 -34t-157 -33q-166 0 -266 93t-101 263v647q0 17 12 29t29 12h39q16 0 28 -12t13 -29v-647q0 -236 260 -236q111 0 186 65t74 161v657q1 17 13 29t28 12h39q17 0 29 -12t12 -29v-942q0 -17 -12 -29t-29 -12h-33z" />
    <glyph glyph-name="uni0401" unicode="&#x401;" horiz-adv-x="0" 
 />
    <glyph glyph-name="uni0403" unicode="&#x403;" horiz-adv-x="0" 
 />
    <glyph glyph-name="uni0407" unicode="&#x407;" horiz-adv-x="0" 
 />
    <glyph glyph-name="uni0409" unicode="&#x409;" horiz-adv-x="0" 
 />
    <glyph glyph-name="uni040A" unicode="&#x40a;" horiz-adv-x="0" 
 />
    <glyph glyph-name="uni040C" unicode="&#x40c;" horiz-adv-x="0" 
 />
    <glyph glyph-name="uni040E" unicode="&#x40e;" horiz-adv-x="0" 
 />
    <glyph glyph-name="uni0419" unicode="&#x419;" horiz-adv-x="0" 
 />
    <glyph glyph-name="uni0439" unicode="&#x439;" horiz-adv-x="0" 
 />
    <glyph glyph-name="uni0451" unicode="&#x451;" horiz-adv-x="0" 
 />
    <glyph glyph-name="uni0453" unicode="&#x453;" horiz-adv-x="0" 
 />
    <glyph glyph-name="uni0457" unicode="&#x457;" horiz-adv-x="0" 
 />
    <glyph glyph-name="uni0459" unicode="&#x459;" horiz-adv-x="0" 
 />
    <glyph glyph-name="uni045A" unicode="&#x45a;" horiz-adv-x="0" 
 />
    <glyph glyph-name="uni045C" unicode="&#x45c;" horiz-adv-x="0" 
 />
    <glyph glyph-name="uni045E" unicode="&#x45e;" horiz-adv-x="0" 
 />
    <glyph glyph-name="uni0490" unicode="&#x490;" horiz-adv-x="0" 
 />
    <glyph glyph-name="uni0491" unicode="&#x491;" horiz-adv-x="0" 
 />
    <glyph glyph-name="Wgrave" unicode="&#x1e80;" 
d="M772 217q10 0 12 10l127 1176q2 31 39 31h51q45 0 41 -41l-168 -1362q-2 -31 -38 -31h-138q-35 0 -39 31l-86 741q-2 14 -12 0l-115 -741q-6 -31 -38 -31h-138q-37 0 -39 31l-149 1362q-4 41 41 41h51q37 0 39 -31l119 -1176q2 -10 12 -10t12 10l123 766q6 31 39 31h94
q33 0 39 -31l109 -766q2 -10 12 -10z" />
    <glyph glyph-name="wgrave" unicode="&#x1e81;" 
d="M530 799h66q33 0 39 -31l100 -516q3 -12 15 -12t14 12l137 741q6 31 39 31h43q23 0 33 -14t6 -33l-193 -946q-6 -31 -38 -31h-76q-33 0 -39 31l-101 528q-2 10 -12 10t-12 -10l-100 -528q-6 -31 -39 -31h-76q-33 0 -39 31l-193 946q-4 19 6 33t33 14h43q33 0 39 -31
l137 -741q2 -12 14 -12t15 12l101 516q5 31 38 31z" />
    <glyph glyph-name="Wacute" unicode="&#x1e82;" 
d="M772 217q10 0 12 10l127 1176q2 31 39 31h51q45 0 41 -41l-168 -1362q-2 -31 -38 -31h-138q-35 0 -39 31l-86 741q-2 14 -12 0l-115 -741q-6 -31 -38 -31h-138q-37 0 -39 31l-149 1362q-4 41 41 41h51q37 0 39 -31l119 -1176q2 -10 12 -10t12 10l123 766q6 31 39 31h94
q33 0 39 -31l109 -766q2 -10 12 -10z" />
    <glyph glyph-name="wacute" unicode="&#x1e83;" 
d="M530 799h66q33 0 39 -31l100 -516q3 -12 15 -12t14 12l137 741q6 31 39 31h43q23 0 33 -14t6 -33l-193 -946q-6 -31 -38 -31h-76q-33 0 -39 31l-101 528q-2 10 -12 10t-12 -10l-100 -528q-6 -31 -39 -31h-76q-33 0 -39 31l-193 946q-4 19 6 33t33 14h43q33 0 39 -31
l137 -741q2 -12 14 -12t15 12l101 516q5 31 38 31z" />
    <glyph glyph-name="Wdieresis" unicode="&#x1e84;" 
d="M772 217q10 0 12 10l127 1176q2 31 39 31h51q45 0 41 -41l-168 -1362q-2 -31 -38 -31h-138q-35 0 -39 31l-86 741q-2 14 -12 0l-115 -741q-6 -31 -38 -31h-138q-37 0 -39 31l-149 1362q-4 41 41 41h51q37 0 39 -31l119 -1176q2 -10 12 -10t12 10l123 766q6 31 39 31h94
q33 0 39 -31l109 -766q2 -10 12 -10z" />
    <glyph glyph-name="wdieresis" unicode="&#x1e85;" 
d="M530 799h66q33 0 39 -31l100 -516q3 -12 15 -12t14 12l137 741q6 31 39 31h43q23 0 33 -14t6 -33l-193 -946q-6 -31 -38 -31h-76q-33 0 -39 31l-101 528q-2 10 -12 10t-12 -10l-100 -528q-6 -31 -39 -31h-76q-33 0 -39 31l-193 946q-4 19 6 33t33 14h43q33 0 39 -31
l137 -741q2 -12 14 -12t15 12l101 516q5 31 38 31z" />
    <glyph glyph-name="Ygrave" unicode="&#x1ef2;" 
d="M893 1434h65q20 0 30 -18t3 -40l-358 -882v-453q0 -17 -12 -29t-29 -12h-53q-16 0 -29 12q-12 12 -12 29v451l-363 884q-8 23 2 40t31 18h65q29 0 39 -31l285 -731q8 -20 16 0l281 731q10 31 39 31z" />
    <glyph glyph-name="ygrave" unicode="&#x1ef3;" 
d="M905 1024h58q23 0 33 -15t5 -32l-520 -1356q-10 -31 -39 -31h-45q-23 0 -33 16t-6 32l152 411q6 16 2 27l-387 901q-6 15 5 31t34 16h57q29 0 39 -31l315 -753q8 -20 17 0l274 753q10 31 39 31z" />
    <glyph glyph-name="endash" unicode="&#x2013;" 
d="M283 623h559q16 -1 28 -13t13 -28v-72q-1 -16 -13 -28t-28 -13h-559q-16 0 -29 12q-12 12 -12 29v72q0 16 12 28t29 13z" />
    <glyph glyph-name="emdash" unicode="&#x2014;" 
d="M283 623h559q16 -1 28 -13t13 -28v-72q-1 -16 -13 -28t-28 -13h-559q-16 0 -29 12q-12 12 -12 29v72q0 16 12 28t29 13z" />
    <glyph glyph-name="ff" unicode="&#xfb00;" horiz-adv-x="2252" 
d="M1579 893h-281q-16 0 -28 12t-13 29v39q1 16 13 28t28 13h281q20 0 20 20v31q-1 172 97 277t252 106h92q16 0 28 -12t13 -29v-33q-1 -16 -13 -28t-28 -13h-92q-111 0 -168 -77t-58 -191v-31q0 -20 21 -20h336q16 0 28 -12t13 -29v-39q0 -16 -12 -28t-29 -13h-336
q-20 0 -21 -21v-831q0 -17 -12 -29t-29 -12h-41q-16 0 -28 12t-13 29v831q0 21 -20 21zM453 893h-281q-16 0 -29 12q-12 12 -12 29v39q0 16 12 28t29 13h281q20 0 20 20v31q0 172 97 277t251 106h92q17 0 29 -12t12 -29v-33q0 -16 -12 -28t-29 -13h-92q-111 0 -168 -77
t-57 -191v-31q0 -20 20 -20h336q16 0 28 -12t13 -29v-39q0 -16 -12 -28t-29 -13h-336q-20 0 -20 -21v-831q0 -17 -12 -29t-29 -12h-41q-16 0 -29 12q-12 12 -12 29v831q0 21 -20 21z" />
    <glyph glyph-name="fi" unicode="&#xfb01;" horiz-adv-x="2252" 
d="M1651 901h-256q-16 0 -29 12q-12 12 -12 29v41q0 17 12 29t29 12h358q17 0 29 -12t12 -29v-840q0 -20 21 -20h268q16 0 28 -12t13 -29v-41q0 -17 -12 -29t-29 -12h-709q-16 0 -28 12t-13 29v41q1 16 13 28t28 13h277q20 0 20 20v738q0 20 -20 20zM1806 1415v-108
q0 -33 -32 -33h-107q-33 0 -33 33v108q0 13 10 23t23 10h107q14 0 23 -10t9 -23zM453 893h-281q-16 0 -29 12q-12 12 -12 29v39q0 16 12 28t29 13h281q20 0 20 20v31q0 172 97 277t251 106h92q17 0 29 -12t12 -29v-33q0 -16 -12 -28t-29 -13h-92q-111 0 -168 -77t-57 -191
v-31q0 -20 20 -20h336q16 0 28 -12t13 -29v-39q0 -16 -12 -28t-29 -13h-336q-20 0 -20 -21v-831q0 -17 -12 -29t-29 -12h-41q-16 0 -29 12q-12 12 -12 29v831q0 21 -20 21z" />
  </font>
</defs>
</svg>
