<?xml version="1.0" standalone="no"?>
<!DOCTYPE svg PUBLIC "-//W3C//DTD SVG 1.1//EN" "http://www.w3.org/Graphics/SVG/1.1/DTD/svg11.dtd" >
<svg xmlns="http://www.w3.org/2000/svg">
<metadata>
Created by FontPrep 20130207 at Wed Jun 15 14:51:28 2016
 By Nick Villapiano
Copyright (c) 2012 by Dominik Huber &#38; Moire. All rights reserved.
</metadata>
<defs>
<font id="e8e786889b6e29f935ea760d5ae347cf" horiz-adv-x='1024' >
  <font-face 
    font-family="GTPressuraMonoTrialBold-Italic"
    font-weight="700"
    font-style="italic"
    font-stretch="normal"
    units-per-em="2048"
    panose-1="2 0 8 6 0 0 0 9 0 4"
    ascent="1536"
    descent="-512"
    x-height="1024"
    cap-height="1434"
    bbox="-121.571 -440 2284.69 1456"
    underline-thickness="102"
    underline-position="-51"
    slope="-12"
    unicode-range="U+0020-FB01"
  />
<missing-glyph 
d="M782 406q0 -57 -49 -58q-35 0 -35 27t47 33l37 4v-6zM637 373q0 -68 78 -70q51 0 71 39q0 -23 2 -33h60q-6 31 -6 43v82q0 55 -20 80t-74 25q-100 0 -105 -76h59q2 31 41 31t39 -45q-66 -6 -102 -17q-43 -18 -43 -59zM770 700v324h-59v-324h59zM623 633h-66v-62h66v62z
M297 750q-84 0 -84 110t87 111q44 0 58 -47l62 24q-29 80 -112 80t-123 -47t-40 -120t37 -120t102 -47t87 41l8 -35h47v179h-137v-58h82v-4q-1 -25 -19 -47t-55 -20zM897 1024v-59h66v59h-66zM616 1024v-59h66v59h-66zM524 539q-41 0 -61 -43v36h-57v-223h61v101q0 72 57 71
q13 0 21 -2v58q-6 2 -21 2zM874 309h60v324h-60v-324zM182 629v-60h90v-260h62v260h90v60h-242zM899 926v-226h62v226h-62zM582 932q-37 0 -64 -43v37h-55v-226h59v103q0 72 62 71q14 0 20 -2v56q-12 4 -22 4zM621 532h-62v-223h62v223zM102 0v1434h922v-1434h-922zM618 926
v-226h62v226h-62zM864 700v324h-61v-324h61z" />
    <glyph glyph-name=".notdef" 
d="M782 406q0 -57 -49 -58q-35 0 -35 27t47 33l37 4v-6zM637 373q0 -68 78 -70q51 0 71 39q0 -23 2 -33h60q-6 31 -6 43v82q0 55 -20 80t-74 25q-100 0 -105 -76h59q2 31 41 31t39 -45q-66 -6 -102 -17q-43 -18 -43 -59zM770 700v324h-59v-324h59zM623 633h-66v-62h66v62z
M297 750q-84 0 -84 110t87 111q44 0 58 -47l62 24q-29 80 -112 80t-123 -47t-40 -120t37 -120t102 -47t87 41l8 -35h47v179h-137v-58h82v-4q-1 -25 -19 -47t-55 -20zM897 1024v-59h66v59h-66zM616 1024v-59h66v59h-66zM524 539q-41 0 -61 -43v36h-57v-223h61v101q0 72 57 71
q13 0 21 -2v58q-6 2 -21 2zM874 309h60v324h-60v-324zM182 629v-60h90v-260h62v260h90v60h-242zM899 926v-226h62v226h-62zM582 932q-37 0 -64 -43v37h-55v-226h59v103q0 72 62 71q14 0 20 -2v56q-12 4 -22 4zM621 532h-62v-223h62v223zM102 0v1434h922v-1434h-922zM618 926
v-226h62v226h-62zM864 700v324h-61v-324h61z" />
    <glyph glyph-name=".null" horiz-adv-x="0" 
 />
    <glyph glyph-name="nonmarkingreturn" horiz-adv-x="681" 
 />
    <glyph glyph-name="space" unicode=" " 
 />
    <glyph glyph-name="exclam" unicode="!" 
d="M649 0h-246q-16 0 -25 12t-5 29l51 246q4 16 19 28t32 13h246q15 0 25 -12t6 -29l-52 -246q-4 -17 -19 -29t-32 -12z" />
    <glyph glyph-name="comma" unicode="," 
d="M489 0h-49q-16 0 -25 12t-5 29l51 246q10 41 49 41h246q16 0 26 -12t6 -29l-51 -240q-14 -80 -73 -141l-168 -172q-37 -41 -78 -41h-41q-31 1 -39 25t12 53l154 202q6 10 1 19q-6 8 -16 8z" />
    <glyph glyph-name="hyphen" unicode="-" 
d="M313 690h559q16 0 26 -12t7 -29l-43 -203q-8 -41 -49 -40h-559q-16 0 -27 12q-10 12 -6 28l43 203q8 41 49 41z" />
    <glyph glyph-name="period" unicode="." 
d="M649 0h-246q-16 0 -25 12t-5 29l51 246q4 16 19 28t32 13h246q15 0 25 -12t6 -29l-52 -246q-4 -17 -19 -29t-32 -12z" />
    <glyph glyph-name="zero" unicode="0" 
d="M659 1178q-69 0 -125 -48t-81 -118q-94 -293 -125 -590q-8 -72 30 -119t107 -47q70 0 126 47t81 119q94 293 125 590q8 72 -30 119t-108 47zM692 1456q192 0 298 -132t89 -320q-29 -295 -121 -574q-68 -203 -200 -328t-326 -125q-192 1 -298 133t-89 320q29 295 121 574
q68 204 201 328t325 124z" />
    <glyph glyph-name="one" unicode="1" 
d="M905 1434q17 0 27 -12t6 -29l-233 -1096q-4 -20 16 -21h227q16 0 26 -12t7 -28l-43 -195q-8 -41 -49 -41h-840q-33 0 -31 41l41 195q8 41 50 40h286q21 1 25 21l153 727q4 18 -10 22t-24 -6l-297 -231q-22 -18 -46 -8t-18 41l43 196q10 53 51 90l293 256q53 49 113 50
h227z" />
    <glyph glyph-name="two" unicode="2" 
d="M813 1065q0 49 -31 82t-90 33q-170 0 -207 -185q-8 -41 -49 -41h-194q-16 0 -26 12t-7 29q39 217 163 339t314 122t299 -103t109 -247q0 -92 -16 -137t-26 -69q-9 -24 -31 -54t-32 -45q-10 -16 -39 -43t-37 -36t-39 -36t-34 -31l-377 -338q-12 -10 -12 -25t24 -16h422
q15 0 25 -12t6 -28l-41 -195q-8 -41 -49 -41h-813q-16 0 -27 12q-10 12 -6 29l49 217q6 31 31 51l651 588q90 78 90 168z" />
    <glyph glyph-name="three" unicode="3" 
d="M479 256q88 0 151 59q62 59 62 154q0 59 -39 93t-106 34h-25q-16 0 -26 12t-7 29l41 192q8 41 50 41h38q80 0 132 52t53 120q0 66 -37 101t-96 35q-160 0 -199 -183q-8 -41 -49 -41h-193q-16 0 -26 12t-6 29q31 213 169 337t322 124t290 -103t105 -268q0 -109 -45 -185
t-129 -142q-25 -18 -8 -37q74 -94 74 -229q0 -226 -152 -370q-151 -144 -357 -144t-331 136t-78 332q3 16 19 28t33 13h196q15 0 25 -12t6 -29q-25 -90 15 -140t128 -50z" />
    <glyph glyph-name="four" unicode="4" 
d="M352 514h226q20 0 26 21l107 446q3 10 -7 12t-16 -6l-342 -448q-18 -25 6 -25zM874 514h76q16 0 26 -12t7 -29l-37 -176q-8 -41 -49 -41h-76q-20 0 -24 -20l-43 -195q-8 -41 -49 -41h-185q-16 0 -26 12t-7 29l43 195q4 20 -16 20h-481q-16 0 -26 12q-9 12 -5 29l37 197
q6 27 49 77l653 834q20 29 50 29h219q16 0 26 -12t6 -29l-182 -858q-4 -21 14 -21z" />
    <glyph glyph-name="five" unicode="5" 
d="M1001 1155h-477q-20 0 -24 -20l-41 -191q-4 -18 7 -23t28 5q57 35 114 35q166 0 268 -113t101 -301q0 -236 -157 -403t-364 -167q-206 1 -330 107t-87 301q10 41 49 41h193q16 0 26 -12t6 -29q-16 -63 31 -96t134 -33t155 84q67 84 67 176t-43 139t-115 47t-113 -44
q-40 -44 -73 -44h-198q-16 0 -26 12t-7 29l158 738q8 41 49 41h729q16 0 26 -12t7 -29l-43 -197q-9 -41 -50 -41z" />
    <glyph glyph-name="six" unicode="6" 
d="M315 422q0 -176 146 -176q115 0 175 89t60 197q0 154 -143 154q-104 0 -171 -80t-67 -184zM610 954q172 0 267 -114q94 -115 94 -281q0 -246 -157 -414q-158 -168 -356 -168t-301 123t-104 322q0 365 129 655q168 379 484 379q180 0 300 -120t101 -279q-2 -17 -17 -29
t-32 -12h-174q-49 0 -49 41q-2 57 -37 94t-109 37q-137 0 -203 -135q-20 -43 -28 -84t4 -49t33 2q65 32 155 32z" />
    <glyph glyph-name="seven" unicode="7" 
d="M750 1157h-523q-16 0 -26 12t-6 29l43 195q8 41 49 41h807q16 0 26 -12t6 -29l-53 -246q-2 -10 -18 -41l-615 -1075q-16 -31 -45 -31h-239q-25 0 -31 18t4 31l631 1088q12 20 -10 20z" />
    <glyph glyph-name="eight" unicode="8" 
d="M658 1456q192 0 307 -108t115 -280q0 -171 -160 -310q-27 -24 -9 -45q66 -108 66 -221q0 -218 -150 -366t-355 -148t-327 108q-121 109 -120 287q0 231 215 387q23 14 6 45q-63 123 -64 207q0 170 142 307t334 137zM449 1003q0 -143 155 -143q76 0 139 55t63 128t-40 111
q-41 38 -116 38t-138 -59t-63 -130zM299 408q0 -162 178 -162q90 0 157 63q66 63 66 145t-45 118q-45 38 -125 38t-155 -62q-76 -62 -76 -140z" />
    <glyph glyph-name="nine" unicode="9" 
d="M457 246q211 0 264 233q6 23 -3 36t-38 3q-92 -31 -174 -31q-156 1 -253 101t-97 256t58 293t183 228t303 91t276 -122t97 -322q0 -150 -37 -348t-92 -338t-190 -244q-134 -104 -316 -104t-307 118q-125 119 -90 285q8 41 49 41h166q49 0 49 -41q0 -59 37 -97t115 -38z
M809 1038q0 156 -137 156q-106 0 -170 -95t-64 -208q0 -141 127 -141q111 0 177 88t67 200z" />
    <glyph glyph-name="colon" unicode=":" 
d="M649 0h-246q-16 0 -25 12t-5 29l51 246q4 16 19 28t32 13h246q15 0 25 -12t6 -29l-52 -246q-4 -17 -19 -29t-32 -12z" />
    <glyph glyph-name="semicolon" unicode=";" 
d="M489 0h-49q-16 0 -25 12t-5 29l51 246q10 41 49 41h246q16 0 26 -12t6 -29l-51 -240q-14 -80 -73 -141l-168 -172q-37 -41 -78 -41h-41q-31 1 -39 25t12 53l154 202q6 10 1 19q-6 8 -16 8z" />
    <glyph glyph-name="question" unicode="?" 
d="M649 0h-246q-16 0 -25 12t-5 29l51 246q4 16 19 28t32 13h246q15 0 25 -12t6 -29l-52 -246q-4 -17 -19 -29t-32 -12z" />
    <glyph glyph-name="A" unicode="A" 
d="M444 559h199q20 0 21 23v491q0 8 -9 8h-4q-10 0 -12 -8l-207 -491q-8 -23 12 -23zM139 0h-225q-23 0 -31 13t-2 28l656 1362q14 31 45 31h274q33 0 33 -31l74 -1362q1 -17 -13 -29t-37 -12h-202q-33 0 -33 31l-8 211q0 31 -25 30h-321q-23 1 -37 -30l-103 -211
q-14 -31 -45 -31z" />
    <glyph glyph-name="B" unicode="B" 
d="M739 471q0 125 -104 125h-223q-20 0 -25 -21l-57 -268q-4 -20 16 -20h223q70 0 120 53t50 131zM752 1147h-224q-20 0 -24 -21l-47 -223q-4 -20 16 -20h223q70 0 113 46t43 102t-28 86t-72 30zM508 0h-483q-16 0 -27 12q-10 12 -6 29l289 1352q8 41 49 41h483
q147 0 237 -92t89 -236q0 -203 -170 -348q-27 -18 -8 -37q70 -74 69 -209q0 -216 -143 -364t-379 -148z" />
    <glyph glyph-name="C" unicode="C" 
d="M440 -23q-218 1 -332 131t-96 322q29 295 121 574q70 212 196 332t342 120t342 -130t97 -312q-8 -61 -76 -62h-166q-57 0 -49 52q18 164 -164 163q-88 0 -148 -46t-85 -117q-92 -279 -121 -574q-8 -72 33 -118t131 -46q178 0 233 164q14 51 72 51h166q63 0 49 -61
q-49 -197 -188 -320t-357 -123z" />
    <glyph glyph-name="D" unicode="D" 
d="M315 1434h353q214 0 332 -122t100 -308q-29 -295 -121 -574q-68 -206 -194 -318t-349 -112h-426q-27 0 -40 17t-7 44l279 1311q4 26 25 44t48 18zM647 1147h-137q-31 0 -37 -31l-170 -799q-6 -31 25 -30h129q184 0 233 143q92 279 121 574q16 143 -164 143z" />
    <glyph glyph-name="E" unicode="E" 
d="M985 860q17 0 27 -12t6 -29l-43 -205q-8 -41 -49 -41h-502q-23 0 -27 -20l-51 -246q-4 -20 16 -20h527q16 -1 26 -13t7 -28l-45 -205q-8 -41 -50 -41h-792q-16 0 -26 12q-9 12 -5 29l287 1352q8 41 49 41h784q16 0 26 -12t7 -29l-45 -205q-8 -41 -49 -41h-518
q-21 -1 -25 -21l-51 -245q-4 -20 14 -21h502z" />
    <glyph glyph-name="F" unicode="F" 
d="M256 0h-205q-16 0 -25 12t-6 29l287 1352q8 41 49 41h758q16 0 26 -12t7 -29l-45 -205q-8 -41 -49 -41h-492q-20 0 -24 -21l-52 -245q-4 -20 15 -21h471q16 0 26 -12t7 -29l-43 -205q-8 -41 -50 -41h-471q-22 0 -26 -20l-109 -512q-8 -41 -49 -41z" />
    <glyph glyph-name="G" unicode="G" 
d="M571 535q-16 0 -26 12t-6 28l41 195q8 41 49 41h399q16 0 26 -12t7 -29l-76 -350q-41 -197 -183 -320t-360 -123q-218 1 -334 131q-114 130 -96 322q29 295 121 574q70 208 198 330t342 122t340 -130t97 -312q-8 -61 -76 -62h-166q-57 0 -49 52q18 164 -164 163
q-88 0 -148 -46t-85 -117q-92 -279 -121 -574q-8 -72 33 -118t137 -46t158 45t78 119l18 84q4 20 -14 21h-140z" />
    <glyph glyph-name="H" unicode="H" 
d="M748 860q23 0 26 21l109 512q8 41 49 41h205q16 0 26 -12t6 -29l-288 -1352q-8 -41 -50 -41h-204q-16 0 -27 12q-10 12 -6 29l108 512q4 20 -14 20h-311q-23 0 -27 -20l-108 -512q-2 -17 -22 -29t-38 -12h-194q-16 0 -26 12q-9 12 -5 29l287 1352q8 41 49 41h205
q16 0 26 -12t6 -29l-108 -512q-4 -20 14 -21h312z" />
    <glyph glyph-name="I" unicode="I" 
d="M512 1157h-205q-16 0 -26 12t-7 29l43 195q8 41 50 41h737q16 0 26 -12t7 -29l-43 -195q-8 -41 -50 -41h-204q-20 0 -25 -20l-178 -840q-4 -20 16 -21h226q16 0 26 -12t6 -28l-43 -195q-8 -41 -49 -41h-778q-16 0 -25 12q-8 12 -6 29l41 195q8 41 49 40h226q20 1 24 21
l178 840q4 20 -16 20z" />
    <glyph glyph-name="J" unicode="J" 
d="M412 266q184 0 229 205l195 922q8 41 49 41h207q16 0 26 -12t6 -29l-204 -961q-44 -199 -176 -327t-344 -128q-212 -1 -342 133q-128 134 -87 322l13 57q8 41 49 41h200q16 0 27 -12q10 -13 6 -29l-12 -57q-14 -72 27 -119t131 -47z" />
    <glyph glyph-name="K" unicode="K" 
d="M1188 1434q29 0 38 -26t-12 -48l-557 -596q-31 -35 -14 -68l295 -618q12 -30 -3 -54t-56 -24h-189q-31 0 -41 25l-243 559q-5 11 -14 5q-9 -5 -9 -11l-115 -537q-8 -41 -49 -41h-203q-16 0 -26 12t-6 29l288 1352q8 41 50 41h202q16 0 26 -12t7 -29l-100 -471q0 -6 3 -12
t15 5l459 498q20 20 49 21h205z" />
    <glyph glyph-name="L" unicode="L" 
d="M428 287h553q17 -1 27 -13t6 -28l-45 -205q-8 -41 -49 -41h-820q-16 0 -25 12t-5 29l286 1352q8 41 50 41h204q16 0 26 -12t7 -29l-231 -1086q-4 -20 16 -20z" />
    <glyph glyph-name="M" unicode="M" 
d="M891 1434h289q16 0 26 -12t6 -29l-288 -1352q-8 -41 -50 -41h-200q-16 0 -27 12q-10 12 -6 29l174 811q0 12 -9 8q-5 -2 -7 -6l-162 -307q-18 -35 -51 -35h-121q-33 0 -35 35l-33 307q0 4 -4 6t-8 -1t-4 -7l-174 -811q-8 -41 -49 -41h-199q-16 0 -27 12q-10 12 -6 29
l287 1352q8 41 49 41h277q34 0 34 -35l31 -400q0 -24 24 -14q9 4 13 14l199 400q16 35 51 35z" />
    <glyph glyph-name="N" unicode="N" 
d="M930 1434h205q16 0 26 -12t6 -29l-288 -1352q-8 -41 -50 -41h-221q-43 0 -47 35l-147 719q0 14 -10 8t-9 -12l-151 -709q-8 -41 -49 -41h-205q-16 0 -26 12q-9 12 -5 29l287 1352q8 41 49 41h223q39 0 43 -37l135 -779q0 -14 10 -8t11 13l164 770q8 41 49 41z" />
    <glyph glyph-name="O" unicode="O" 
d="M673 1456q216 0 336 -132t101 -320q-29 -295 -121 -574q-69 -211 -195 -332t-348 -121q-222 1 -336 131t-96 322q29 295 121 574q70 212 196 332t342 120zM658 1167q-89 0 -149 -46t-85 -117q-92 -279 -121 -574q-8 -72 33 -118t131 -46q178 0 233 164q92 279 121 574
q8 72 -33 118t-130 45z" />
    <glyph glyph-name="P" unicode="P" 
d="M723 1147h-184q-20 0 -25 -21l-51 -245q-4 -20 14 -21h185q72 0 124 49t52 117q0 121 -115 121zM233 0h-204q-16 0 -27 12q-10 12 -6 29l289 1352q8 41 49 41h430q154 0 262 -102t107 -247q0 -239 -156 -375t-375 -137h-184q-23 0 -27 -20l-108 -512q-8 -41 -50 -41z" />
    <glyph glyph-name="Q" unicode="Q" 
d="M618 -184q-35 0 -61 49l-51 88q-14 25 -39 24h-21q-222 1 -336 131t-96 322q29 295 121 574q70 212 196 332t342 120t336 -132t101 -320q-29 -296 -117 -558t-221 -364q-30 -22 -18 -45l73 -141q16 -20 4 -50t-57 -30h-156zM658 1167q-89 0 -149 -46t-85 -117
q-92 -279 -121 -574q-8 -72 33 -118t131 -46q178 0 233 164q92 279 121 574q8 72 -33 118t-130 45z" />
    <glyph glyph-name="R" unicode="R" 
d="M723 1147h-184q-20 0 -25 -21l-51 -245q-4 -20 14 -21h185q72 0 124 49t52 117q0 121 -115 121zM915 0h-194q-37 0 -51 41l-168 506q-6 27 -31 26h-53q-23 0 -27 -20l-108 -512q-8 -41 -50 -41h-204q-16 0 -27 12q-10 12 -6 29l289 1352q8 41 49 41h430q154 0 262 -102
t107 -262q-1 -159 -87 -280t-229 -178q-43 -18 -26 -67l176 -484q8 -25 -6 -43t-46 -18z" />
    <glyph glyph-name="S" unicode="S" 
d="M470 258q93 0 159 53q65 53 65 125t-47 104q-47 34 -153 60q-188 45 -274 139q-85 94 -85 254q0 203 156 333t385 130q178 0 299 -105t120 -252t-65 -147h-207q-16 0 -26 12t-6 29l6 31q14 62 -26 108t-129 46t-147 -44t-59 -110q0 -32 10 -56t42 -41t46 -25t65 -21
q216 -58 308 -150t92 -239q0 -217 -150 -366q-151 -148 -380 -148t-363 116q-133 117 -112 299q18 135 69 135h207q18 0 29 -12q10 -13 4 -29q-37 -97 19 -163t148 -66z" />
    <glyph glyph-name="T" unicode="T" 
d="M481 1147h-307q-16 0 -27 12q-10 12 -6 29l45 205q8 41 50 41h921q17 0 27 -12t6 -29l-45 -205q-8 -41 -49 -41h-287q-20 0 -25 -21l-231 -1085q-8 -41 -49 -41h-205q-16 0 -27 12q-10 12 -6 29l232 1085q3 21 -17 21z" />
    <glyph glyph-name="U" unicode="U" 
d="M484 266q93 0 154 46q60 46 75 118l205 963q8 41 49 41h207q16 0 26 -12t6 -29l-205 -963q-43 -199 -181 -326t-355 -127q-217 1 -345 135t-89 318l205 963q8 41 49 41h207q16 0 26 -12t6 -29l-205 -963q-14 -70 29 -117t136 -47z" />
    <glyph glyph-name="V" unicode="V" 
d="M997 1434h226q23 0 31 -16t-3 -34l-643 -1353q-14 -31 -45 -31h-309q-33 0 -33 31l-45 1353q0 18 13 34t36 16h205q33 0 33 -31l20 -961q0 -14 13 -14h12q8 0 16 14l428 961q14 31 45 31z" />
    <glyph glyph-name="W" unicode="W" 
d="M1040 1434h191q45 0 33 -41l-437 -1362q-8 -31 -45 -31h-241q-33 0 -33 31l8 370q0 9 -10 9t-14 -9l-152 -370q-12 -31 -45 -31h-250q-14 0 -25 8q-10 8 -8 23l146 1362q4 41 49 41h190q37 0 33 -31l-94 -819q-2 -14 10 -15q12 0 19 15l159 409q12 31 45 31h123
q33 0 33 -31l-10 -409q0 -8 6 -12t13 -1q7 4 9 13l252 819q8 31 45 31z" />
    <glyph glyph-name="X" unicode="X" 
d="M555 487h-4q-6 0 -12 -8l-287 -448q-20 -31 -49 -31h-260q-20 0 -28 18q-7 18 7 39l467 674q16 27 10 45l-204 600q-8 20 8 38t37 20h215q25 0 32 -31l134 -399q4 -8 10 -9h4q4 0 10 9l248 399q20 31 45 31h248q20 0 27 -18t-7 -40l-424 -598q-16 -23 -8 -45l248 -676
q8 -17 -8 -37t-37 -20h-221q-27 0 -37 31l-154 444q-4 12 -10 12z" />
    <glyph glyph-name="Y" unicode="Y" 
d="M965 1434h223q20 0 27 -18t-7 -40l-557 -913l-90 -422q-8 -41 -49 -41h-205q-16 0 -26 12t-7 29l91 422l-168 913q-4 23 10 40t35 18h204q27 0 33 -31l88 -567q0 -8 8 -9h5q6 1 12 9l328 567q16 31 45 31z" />
    <glyph glyph-name="Z" unicode="Z" 
d="M375 281h538q17 -1 27 -13t6 -28l-43 -199q-8 -41 -49 -41h-856q-16 0 -27 12q-10 12 -6 29l47 223q2 16 17 33l737 836q16 20 -8 20h-486q-16 0 -26 12t-6 29l43 199q8 41 49 41h796q16 0 26 -12t7 -29l-51 -238q-2 -17 -16 -33l-727 -821q-16 -20 8 -20z" />
    <glyph glyph-name="underscore" unicode="_" 
d="M313 690h559q16 0 26 -12t7 -29l-43 -203q-8 -41 -49 -40h-559q-16 0 -27 12q-10 12 -6 28l43 203q8 41 49 41z" />
    <glyph glyph-name="a" unicode="a" 
d="M666 0q-30 0 -28 41t-17 41q-12 0 -38 -26t-79 -51t-129 -25q-139 0 -238 113q-98 114 -98 288q0 272 141 467t371 194q131 0 201 -94q22 -26 32 -26t19 16l24 59q12 27 31 27h152q16 0 26 -12t6 -29l-202 -942q-8 -41 -49 -41h-125zM694 616q0 162 -137 162
q-127 0 -184 -112t-57 -222q-1 -198 137 -198q84 0 141 64q100 114 100 306z" />
    <glyph glyph-name="b" unicode="b" 
d="M252 47q-24 1 -43 -23q-20 -24 -39 -24h-102q-16 0 -27 12q-10 12 -6 29l293 1372q8 41 49 41h184q17 0 27 -12t6 -29l-74 -348q-8 -33 8 -43t59 6t99 16q154 2 246 -110t79 -272q-13 -158 -67 -321t-160 -263q-104 -100 -282 -101q-88 0 -157 35t-93 35zM680 358
q55 160 63 308q4 55 -28 87q-33 32 -107 31q-139 0 -186 -126t-60 -300q-8 -118 133 -118q142 0 185 118z" />
    <glyph glyph-name="c" unicode="c" 
d="M881 420q66 0 47 -62q-111 -381 -469 -381q-186 0 -292 108q-105 107 -92 275t67 329t158 259t296 98q194 0 304 -110q110 -111 87 -270q-8 -61 -74 -62h-141q-59 0 -51 58t-26 91q-34 32 -109 31q-139 0 -183 -118q-51 -135 -63 -308q-8 -118 135 -118t182 118
q23 61 76 62h148z" />
    <glyph glyph-name="d" unicode="d" 
d="M606 47q-22 0 -90 -34t-141 -33q-166 0 -253 110t-74 270q12 160 66 319t169 263t272 105q63 -1 109 -21t57 -20q39 0 49 41l84 366q10 41 49 41h180q41 0 33 -41l-293 -1372q-8 -41 -49 -41h-102q-20 0 -27 14q-17 33 -39 33zM633 358q55 160 63 308q4 55 -28 87
q-33 32 -107 31q-139 0 -186 -126t-60 -300q-8 -118 133 -118q142 0 185 118z" />
    <glyph glyph-name="e" unicode="e" 
d="M709 657q18 0 24 19q33 129 -147 129q-170 0 -205 -129q-6 -18 16 -19h312zM463 225q131 0 180 86q18 35 53 35h170q41 0 27 -41q-118 -327 -460 -327q-181 0 -280 106t-87 262t68 324t174 272t300 104t290 -108q110 -109 71 -297l-37 -170q-10 -41 -49 -41h-527
q-31 0 -37 -31q-18 -82 24 -128t120 -46z" />
    <glyph glyph-name="f" unicode="f" 
d="M367 772h-226q-16 0 -26 12t-6 29l34 164q3 17 19 29t33 12h225q20 0 24 20l9 41q39 195 139 285t289 90h225q16 0 26 -12t7 -29l-39 -184q-4 -17 -20 -29t-31 -12h-185q-121 0 -145 -113l-8 -37q-4 -20 16 -20h307q16 0 26 -12t5 -29l-35 -164q-8 -41 -49 -41h-307
q-20 0 -25 -20l-151 -711q-8 -41 -49 -41h-185q-16 0 -26 12t-7 29l152 711q4 20 -16 20z" />
    <glyph glyph-name="g" unicode="g" 
d="M469 240q139 0 186 126t60 300q4 57 -28 88t-105 30q-141 0 -185 -118q-55 -160 -63 -308q-4 -55 28 -87q33 -31 107 -31zM250 -109q0 -88 126 -88t179 101q18 35 18 76q0 47 -63 23t-119 -23q-154 -2 -246 110q-93 112 -79 272q14 158 68 321t158 263t283 101
q88 0 157 -35q68 -35 92 -35q24 -1 44 23t39 24h103q16 0 26 -12t6 -29l-223 -1044q-82 -379 -450 -379q-193 0 -288 93t-77 245q2 16 18 28t31 13h154q21 -1 28 -5t11 -5t4 -21v-17z" />
    <glyph glyph-name="h" unicode="h" 
d="M289 0h-185q-16 0 -25 12t-5 29l291 1372q8 41 49 41h184q16 0 26 -12t7 -29l-74 -348q-6 -27 7 -40q14 -13 66 5t107 17q162 0 251 -111t56 -270l-133 -625q-8 -41 -49 -41h-184q-16 0 -27 12q-10 12 -6 29l133 625q10 53 -22 88q-33 34 -105 34t-121 -34t-59 -88
l-133 -625q-8 -41 -49 -41z" />
    <glyph glyph-name="i" unicode="i" 
d="M457 764h-205q-16 0 -26 12q-9 12 -5 29l37 178q8 41 49 41h459q14 0 22 -10t5 -23l-150 -704q-4 -20 16 -21h226q16 0 25 -12t5 -29l-38 -184q-8 -41 -50 -41h-757q-16 0 -27 12q-10 12 -6 29l39 184q4 17 19 29t32 12h225q20 0 25 21l96 456q4 21 -16 21zM809 1167
h-221q-33 0 -25 33l47 221q8 33 39 33h221q14 0 23 -10q8 -11 4 -23l-47 -221q-8 -33 -41 -33z" />
    <glyph glyph-name="j" unicode="j" 
d="M254 -432q-162 0 -270 108t-76 263q8 41 47 41h184q17 0 27 -12t6 -29q-10 -49 18 -77t88 -28t100 43t52 103l158 759q4 20 -17 21h-245q-16 0 -26 12q-9 12 -5 29l37 182q2 17 18 29t33 12h500q14 0 21 -10t3 -23l-223 -1057q-35 -162 -152 -264q-116 -102 -278 -102z
M926 1167h-221q-13 -1 -21 9t-6 24l47 221q8 33 39 33h221q14 0 23 -10q8 -11 4 -23l-47 -221q-8 -33 -39 -33z" />
    <glyph glyph-name="k" unicode="k" 
d="M281 0h-185q-16 0 -26 12t-7 29l293 1372q8 41 50 41h184q16 0 26 -12t7 -29l-148 -702q0 -6 3 -12t16 6l278 292q23 27 55 27h193q31 0 40 -23t-9 -40l-396 -410q-31 -31 -10 -62l277 -421q14 -20 0 -44t-48 -24h-182q-16 0 -24 6l-12 9q-3 3 -6 9t-5 7l-221 354
q-5 10 -14 5q-8 -5 -9 -11l-71 -338q-8 -41 -49 -41z" />
    <glyph glyph-name="l" unicode="l" 
d="M549 1194h-205q-16 0 -27 12q-10 12 -6 29l39 178q8 41 49 41h459q14 0 22 -10t5 -23l-242 -1134q-4 -20 16 -21h246q15 0 25 -12t6 -29l-39 -184q-8 -41 -49 -41h-778q-16 0 -27 12q-10 12 -6 29l39 184q4 17 19 29t32 12h225q20 0 25 21l188 887q4 20 -16 20z" />
    <glyph glyph-name="m" unicode="m" 
d="M866 1044q134 0 192 -94t29 -233l-143 -676q-4 -17 -19 -29t-32 -12h-164q-16 0 -26 12q-9 12 -5 29l148 696q14 70 -62 72q-28 0 -52 -22t-30 -50l-147 -696q-4 -17 -19 -29t-32 -12h-154q-16 0 -25 12t-6 29l148 696q14 72 -61 72q-29 0 -53 -22t-29 -50l-148 -696
q-4 -17 -19 -29t-32 -12h-162q-16 0 -25 12t-6 29l197 942q4 17 19 29t32 12h62q24 0 32 -20t35 -21q9 0 61 31q52 30 128 30t137 -51q17 -12 27 -12t24 10q78 53 180 53z" />
    <glyph glyph-name="n" unicode="n" 
d="M455 975q23 0 93 36t138 36q162 0 252 -111t55 -270l-133 -625q-8 -41 -49 -41h-184q-16 0 -27 12q-10 12 -6 29l133 627q10 53 -22 87q-33 33 -104 33t-120 -32t-59 -80l-135 -635q-8 -41 -49 -41h-185q-16 0 -26 12t-7 29l201 942q8 41 49 41h103q27 0 43 -24t39 -25z
" />
    <glyph glyph-name="o" unicode="o" 
d="M659 358q55 160 64 308q4 55 -29 87t-106 31q-139 0 -186 -126t-60 -300q-8 -118 133 -118t184 118zM603 1047q187 0 293 -109q106 -110 94 -272q-13 -162 -67 -325t-163 -263t-297 -100t-294 108q-105 110 -93 272t66 325t164 263t297 101z" />
    <glyph glyph-name="p" unicode="p" 
d="M454 977q22 0 91 34q68 34 141 33q166 0 253 -110t74 -270t-67 -319t-168 -263q-115 -104 -272 -105q-62 1 -108 21t-58 20q-39 0 -49 -41l-80 -346q-10 -41 -49 -41h-180q-41 0 -33 41l289 1352q8 41 49 41h102q20 0 27 -14q16 -33 38 -33zM428 666q-55 -160 -63 -308
q-3 -55 29 -87t106 -31q139 0 186 126t59 300q8 118 -133 118t-184 -118z" />
    <glyph glyph-name="q" unicode="q" 
d="M812 977q24 -1 44 23t39 24h102q17 0 27 -12t6 -29l-289 -1352q-8 -41 -49 -41h-184q-41 0 -33 41l70 328q8 33 -8 43t-59 -6t-99 -16q-154 -2 -246 110t-79 272q14 158 68 321t158 263t283 101q88 0 157 -35q68 -35 92 -35zM385 666q-55 -160 -63 -308q-4 -55 28 -87
t107 -31q139 0 186 126t59 300q8 118 -133 118t-184 -118z" />
    <glyph glyph-name="r" unicode="r" 
d="M643 793q-162 0 -188 -123l-136 -629q-8 -41 -49 -41h-184q-16 0 -27 12q-10 12 -6 29l201 942q8 41 49 41h103q24 0 42 -24t43 -24t99 36q74 35 160 35q162 1 244 -99t48 -260q-4 -16 -19 -28t-32 -13h-184q-16 0 -26 12q-9 13 -5 29q10 49 -27 77q-38 28 -106 28z" />
    <glyph glyph-name="s" unicode="s" 
d="M252 377q35 0 45 -11t6 -40q-6 -57 37 -82t126 -25t143 30q61 30 61 70t-24 52t-46 21q-23 9 -78 19q-55 9 -61 9q-309 51 -309 297q0 131 133 230t306 99t293 -88t93 -221q-9 -37 -23 -49t-43 -12h-141q-41 0 -38 49t-38 73q-40 24 -110 24t-123 -28q-53 -26 -53 -77
q0 -63 192 -90q324 -45 324 -279q0 -162 -140 -266t-330 -104t-312 88q-122 89 -97 249q10 61 74 62h133z" />
    <glyph glyph-name="t" unicode="t" 
d="M795 389h184q17 0 27 -12t6 -29q-37 -166 -154 -268t-288 -102t-275 96q-104 98 -59 303l81 375q4 20 -14 20h-201q-16 0 -26 12t-6 29l34 164q8 41 50 41h200q20 0 25 20l67 314q8 41 50 41h184q16 -1 26 -13t7 -28l-68 -314q-4 -20 17 -20h348q16 0 26 -12t6 -29
l-34 -164q-10 -41 -50 -41h-348q-20 0 -26 -20l-84 -404q-10 -49 18 -77q28 -27 82 -27q53 0 94 28t50 72q9 45 51 45z" />
    <glyph glyph-name="u" unicode="u" 
d="M618 49q-22 0 -92 -36t-139 -36q-162 0 -252 111t-55 270l133 625q8 41 49 41h184q16 0 26 -12t7 -29l-133 -627q-10 -53 23 -87q33 -33 103 -33t120 32q49 32 59 80l135 635q8 41 50 41h184q16 0 26 -12t7 -29l-201 -942q-8 -41 -49 -41h-103q-23 0 -43 25
q-16 24 -39 24z" />
    <glyph glyph-name="v" unicode="v" 
d="M885 1024h207q22 0 30 -16t-2 -31l-549 -946q-16 -31 -47 -31h-217q-25 0 -31 31l-151 946q-4 15 11 31t38 16h197q28 0 30 -31l84 -583q1 -10 11 -10t14 10l328 583q16 31 47 31z" />
    <glyph glyph-name="w" unicode="w" 
d="M512 799h139q31 0 33 -31l10 -307q2 -8 12 -8t13 8l180 532q10 31 47 31h193q23 0 29 -16t-1 -31l-362 -946q-14 -31 -47 -31h-223q-35 0 -31 31l-2 313q0 16 -14 12t-15 -12l-123 -313q-14 -31 -47 -31h-223q-35 0 -31 31l35 946q0 19 13 33t36 14h193q33 0 30 -31
l-45 -532q1 -8 11 -8t14 8l131 307q10 31 45 31z" />
    <glyph glyph-name="x" unicode="x" 
d="M276 0h-219q-29 0 -33 20t15 48l344 442q20 23 10 45l-172 401q-10 28 4 48t43 20h178q33 0 41 -20l107 -256q8 -23 24 0l197 256q16 20 49 20h203q29 0 34 -20t-16 -48l-327 -401q-18 -20 -10 -45l196 -442q10 -28 -4 -48t-43 -20h-192q-33 0 -41 20l-111 291
q-9 25 -25 0l-202 -291q-16 -20 -50 -20z" />
    <glyph glyph-name="y" unicode="y" 
d="M14 -410h-57q-17 0 -27 12t-6 29l35 162q10 41 49 41h78q119 0 174 98l49 88q12 23 8 46l-145 911q-4 15 11 31t38 16h193q31 0 32 -31l74 -581q2 -12 10 -13q8 0 15 13l291 581q14 31 45 31h206q23 0 31 -16t-2 -31l-594 -1086q-164 -301 -508 -301z" />
    <glyph glyph-name="z" unicode="z" 
d="M645 778h-414q-16 0 -26 12t-6 29l34 164q3 17 19 29t33 12h712q15 0 25 -12t6 -29l-37 -178q-8 -37 -59 -84l-512 -455q-8 -8 -6 -14t12 -6h436q16 0 26 -12t7 -29l-35 -164q-2 -17 -18 -29t-33 -12h-762q-16 0 -25 12t-6 29l33 170q8 38 37 63l565 484q8 8 6 14t-12 6z
" />
    <glyph glyph-name="Agrave" unicode="&#xc0;" 
d="M444 559h199q20 0 21 23v491q0 8 -9 8h-4q-10 0 -12 -8l-207 -491q-8 -23 12 -23zM139 0h-225q-23 0 -31 13t-2 28l656 1362q14 31 45 31h274q33 0 33 -31l74 -1362q1 -17 -13 -29t-37 -12h-202q-33 0 -33 31l-8 211q0 31 -25 30h-321q-23 1 -37 -30l-103 -211
q-14 -31 -45 -31z" />
    <glyph glyph-name="Aacute" unicode="&#xc1;" 
d="M444 559h199q20 0 21 23v491q0 8 -9 8h-4q-10 0 -12 -8l-207 -491q-8 -23 12 -23zM139 0h-225q-23 0 -31 13t-2 28l656 1362q14 31 45 31h274q33 0 33 -31l74 -1362q1 -17 -13 -29t-37 -12h-202q-33 0 -33 31l-8 211q0 31 -25 30h-321q-23 1 -37 -30l-103 -211
q-14 -31 -45 -31z" />
    <glyph glyph-name="Acircumflex" unicode="&#xc2;" 
d="M444 559h199q20 0 21 23v491q0 8 -9 8h-4q-10 0 -12 -8l-207 -491q-8 -23 12 -23zM139 0h-225q-23 0 -31 13t-2 28l656 1362q14 31 45 31h274q33 0 33 -31l74 -1362q1 -17 -13 -29t-37 -12h-202q-33 0 -33 31l-8 211q0 31 -25 30h-321q-23 1 -37 -30l-103 -211
q-14 -31 -45 -31z" />
    <glyph glyph-name="Atilde" unicode="&#xc3;" 
d="M444 559h199q20 0 21 23v491q0 8 -9 8h-4q-10 0 -12 -8l-207 -491q-8 -23 12 -23zM139 0h-225q-23 0 -31 13t-2 28l656 1362q14 31 45 31h274q33 0 33 -31l74 -1362q1 -17 -13 -29t-37 -12h-202q-33 0 -33 31l-8 211q0 31 -25 30h-321q-23 1 -37 -30l-103 -211
q-14 -31 -45 -31z" />
    <glyph glyph-name="Adieresis" unicode="&#xc4;" 
d="M444 559h199q20 0 21 23v491q0 8 -9 8h-4q-10 0 -12 -8l-207 -491q-8 -23 12 -23zM139 0h-225q-23 0 -31 13t-2 28l656 1362q14 31 45 31h274q33 0 33 -31l74 -1362q1 -17 -13 -29t-37 -12h-202q-33 0 -33 31l-8 211q0 31 -25 30h-321q-23 1 -37 -30l-103 -211
q-14 -31 -45 -31z" />
    <glyph glyph-name="Aring" unicode="&#xc5;" 
d="M444 559h199q20 0 21 23v491q0 8 -9 8h-4q-10 0 -12 -8l-207 -491q-8 -23 12 -23zM139 0h-225q-23 0 -31 13t-2 28l656 1362q14 31 45 31h274q33 0 33 -31l74 -1362q1 -17 -13 -29t-37 -12h-202q-33 0 -33 31l-8 211q0 31 -25 30h-321q-23 1 -37 -30l-103 -211
q-14 -31 -45 -31z" />
    <glyph glyph-name="AE" unicode="&#xc6;" horiz-adv-x="2252" 
d="M2111 860q17 0 27 -12t6 -29l-43 -205q-8 -41 -49 -41h-502q-23 0 -26 -20l-51 -246q-4 -20 16 -20h526q17 -1 27 -13t6 -28l-45 -205q-8 -41 -49 -41h-793q-16 0 -25 12t-6 29l287 1352q8 41 49 41h785q16 0 26 -12t7 -29l-46 -205q-8 -41 -49 -41h-518q-20 -1 -24 -21
l-52 -245q-4 -20 15 -21h501zM444 559h199q20 0 21 23v491q0 8 -9 8h-4q-10 0 -12 -8l-207 -491q-8 -23 12 -23zM139 0h-225q-23 0 -31 13t-2 28l656 1362q14 31 45 31h274q33 0 33 -31l74 -1362q1 -17 -13 -29t-37 -12h-202q-33 0 -33 31l-8 211q0 31 -25 30h-321
q-23 1 -37 -30l-103 -211q-14 -31 -45 -31z" />
    <glyph glyph-name="Ccedilla" unicode="&#xc7;" 
d="M440 -23q-218 1 -332 131t-96 322q29 295 121 574q70 212 196 332t342 120t342 -130t97 -312q-8 -61 -76 -62h-166q-57 0 -49 52q18 164 -164 163q-88 0 -148 -46t-85 -117q-92 -279 -121 -574q-8 -72 33 -118t131 -46q178 0 233 164q14 51 72 51h166q63 0 49 -61
q-49 -197 -188 -320t-357 -123z" />
    <glyph glyph-name="Egrave" unicode="&#xc8;" 
d="M985 860q17 0 27 -12t6 -29l-43 -205q-8 -41 -49 -41h-502q-23 0 -27 -20l-51 -246q-4 -20 16 -20h527q16 -1 26 -13t7 -28l-45 -205q-8 -41 -50 -41h-792q-16 0 -26 12q-9 12 -5 29l287 1352q8 41 49 41h784q16 0 26 -12t7 -29l-45 -205q-8 -41 -49 -41h-518
q-21 -1 -25 -21l-51 -245q-4 -20 14 -21h502z" />
    <glyph glyph-name="Eacute" unicode="&#xc9;" 
d="M985 860q17 0 27 -12t6 -29l-43 -205q-8 -41 -49 -41h-502q-23 0 -27 -20l-51 -246q-4 -20 16 -20h527q16 -1 26 -13t7 -28l-45 -205q-8 -41 -50 -41h-792q-16 0 -26 12q-9 12 -5 29l287 1352q8 41 49 41h784q16 0 26 -12t7 -29l-45 -205q-8 -41 -49 -41h-518
q-21 -1 -25 -21l-51 -245q-4 -20 14 -21h502z" />
    <glyph glyph-name="Ecircumflex" unicode="&#xca;" 
d="M985 860q17 0 27 -12t6 -29l-43 -205q-8 -41 -49 -41h-502q-23 0 -27 -20l-51 -246q-4 -20 16 -20h527q16 -1 26 -13t7 -28l-45 -205q-8 -41 -50 -41h-792q-16 0 -26 12q-9 12 -5 29l287 1352q8 41 49 41h784q16 0 26 -12t7 -29l-45 -205q-8 -41 -49 -41h-518
q-21 -1 -25 -21l-51 -245q-4 -20 14 -21h502z" />
    <glyph glyph-name="Edieresis" unicode="&#xcb;" 
d="M985 860q17 0 27 -12t6 -29l-43 -205q-8 -41 -49 -41h-502q-23 0 -27 -20l-51 -246q-4 -20 16 -20h527q16 -1 26 -13t7 -28l-45 -205q-8 -41 -50 -41h-792q-16 0 -26 12q-9 12 -5 29l287 1352q8 41 49 41h784q16 0 26 -12t7 -29l-45 -205q-8 -41 -49 -41h-518
q-21 -1 -25 -21l-51 -245q-4 -20 14 -21h502z" />
    <glyph glyph-name="Igrave" unicode="&#xcc;" 
d="M512 1157h-205q-16 0 -26 12t-7 29l43 195q8 41 50 41h737q16 0 26 -12t7 -29l-43 -195q-8 -41 -50 -41h-204q-20 0 -25 -20l-178 -840q-4 -20 16 -21h226q16 0 26 -12t6 -28l-43 -195q-8 -41 -49 -41h-778q-16 0 -25 12q-8 12 -6 29l41 195q8 41 49 40h226q20 1 24 21
l178 840q4 20 -16 20z" />
    <glyph glyph-name="Iacute" unicode="&#xcd;" 
d="M512 1157h-205q-16 0 -26 12t-7 29l43 195q8 41 50 41h737q16 0 26 -12t7 -29l-43 -195q-8 -41 -50 -41h-204q-20 0 -25 -20l-178 -840q-4 -20 16 -21h226q16 0 26 -12t6 -28l-43 -195q-8 -41 -49 -41h-778q-16 0 -25 12q-8 12 -6 29l41 195q8 41 49 40h226q20 1 24 21
l178 840q4 20 -16 20z" />
    <glyph glyph-name="Icircumflex" unicode="&#xce;" 
d="M512 1157h-205q-16 0 -26 12t-7 29l43 195q8 41 50 41h737q16 0 26 -12t7 -29l-43 -195q-8 -41 -50 -41h-204q-20 0 -25 -20l-178 -840q-4 -20 16 -21h226q16 0 26 -12t6 -28l-43 -195q-8 -41 -49 -41h-778q-16 0 -25 12q-8 12 -6 29l41 195q8 41 49 40h226q20 1 24 21
l178 840q4 20 -16 20z" />
    <glyph glyph-name="Idieresis" unicode="&#xcf;" 
d="M512 1157h-205q-16 0 -26 12t-7 29l43 195q8 41 50 41h737q16 0 26 -12t7 -29l-43 -195q-8 -41 -50 -41h-204q-20 0 -25 -20l-178 -840q-4 -20 16 -21h226q16 0 26 -12t6 -28l-43 -195q-8 -41 -49 -41h-778q-16 0 -25 12q-8 12 -6 29l41 195q8 41 49 40h226q20 1 24 21
l178 840q4 20 -16 20z" />
    <glyph glyph-name="Eth" unicode="&#xd0;" 
d="M315 1434h353q214 0 332 -122t100 -308q-29 -295 -121 -574q-68 -206 -194 -318t-349 -112h-426q-27 0 -40 17t-7 44l279 1311q4 26 25 44t48 18zM647 1147h-137q-31 0 -37 -31l-170 -799q-6 -31 25 -30h129q184 0 233 143q92 279 121 574q16 143 -164 143z" />
    <glyph glyph-name="Ntilde" unicode="&#xd1;" 
d="M930 1434h205q16 0 26 -12t6 -29l-288 -1352q-8 -41 -50 -41h-221q-43 0 -47 35l-147 719q0 14 -10 8t-9 -12l-151 -709q-8 -41 -49 -41h-205q-16 0 -26 12q-9 12 -5 29l287 1352q8 41 49 41h223q39 0 43 -37l135 -779q0 -14 10 -8t11 13l164 770q8 41 49 41z" />
    <glyph glyph-name="Ograve" unicode="&#xd2;" 
d="M673 1456q216 0 336 -132t101 -320q-29 -295 -121 -574q-69 -211 -195 -332t-348 -121q-222 1 -336 131t-96 322q29 295 121 574q70 212 196 332t342 120zM658 1167q-89 0 -149 -46t-85 -117q-92 -279 -121 -574q-8 -72 33 -118t131 -46q178 0 233 164q92 279 121 574
q8 72 -33 118t-130 45z" />
    <glyph glyph-name="Oacute" unicode="&#xd3;" 
d="M673 1456q216 0 336 -132t101 -320q-29 -295 -121 -574q-69 -211 -195 -332t-348 -121q-222 1 -336 131t-96 322q29 295 121 574q70 212 196 332t342 120zM658 1167q-89 0 -149 -46t-85 -117q-92 -279 -121 -574q-8 -72 33 -118t131 -46q178 0 233 164q92 279 121 574
q8 72 -33 118t-130 45z" />
    <glyph glyph-name="Ocircumflex" unicode="&#xd4;" 
d="M673 1456q216 0 336 -132t101 -320q-29 -295 -121 -574q-69 -211 -195 -332t-348 -121q-222 1 -336 131t-96 322q29 295 121 574q70 212 196 332t342 120zM658 1167q-89 0 -149 -46t-85 -117q-92 -279 -121 -574q-8 -72 33 -118t131 -46q178 0 233 164q92 279 121 574
q8 72 -33 118t-130 45z" />
    <glyph glyph-name="Otilde" unicode="&#xd5;" 
d="M673 1456q216 0 336 -132t101 -320q-29 -295 -121 -574q-69 -211 -195 -332t-348 -121q-222 1 -336 131t-96 322q29 295 121 574q70 212 196 332t342 120zM658 1167q-89 0 -149 -46t-85 -117q-92 -279 -121 -574q-8 -72 33 -118t131 -46q178 0 233 164q92 279 121 574
q8 72 -33 118t-130 45z" />
    <glyph glyph-name="Odieresis" unicode="&#xd6;" 
d="M673 1456q216 0 336 -132t101 -320q-29 -295 -121 -574q-69 -211 -195 -332t-348 -121q-222 1 -336 131t-96 322q29 295 121 574q70 212 196 332t342 120zM658 1167q-89 0 -149 -46t-85 -117q-92 -279 -121 -574q-8 -72 33 -118t131 -46q178 0 233 164q92 279 121 574
q8 72 -33 118t-130 45z" />
    <glyph glyph-name="Oslash" unicode="&#xd8;" 
d="M673 1456q216 0 336 -132t101 -320q-29 -295 -121 -574q-69 -211 -195 -332t-348 -121q-222 1 -336 131t-96 322q29 295 121 574q70 212 196 332t342 120zM658 1167q-89 0 -149 -46t-85 -117q-92 -279 -121 -574q-8 -72 33 -118t131 -46q178 0 233 164q92 279 121 574
q8 72 -33 118t-130 45z" />
    <glyph glyph-name="Ugrave" unicode="&#xd9;" 
d="M484 266q93 0 154 46q60 46 75 118l205 963q8 41 49 41h207q16 0 26 -12t6 -29l-205 -963q-43 -199 -181 -326t-355 -127q-217 1 -345 135t-89 318l205 963q8 41 49 41h207q16 0 26 -12t6 -29l-205 -963q-14 -70 29 -117t136 -47z" />
    <glyph glyph-name="Uacute" unicode="&#xda;" 
d="M484 266q93 0 154 46q60 46 75 118l205 963q8 41 49 41h207q16 0 26 -12t6 -29l-205 -963q-43 -199 -181 -326t-355 -127q-217 1 -345 135t-89 318l205 963q8 41 49 41h207q16 0 26 -12t6 -29l-205 -963q-14 -70 29 -117t136 -47z" />
    <glyph glyph-name="Ucircumflex" unicode="&#xdb;" 
d="M484 266q93 0 154 46q60 46 75 118l205 963q8 41 49 41h207q16 0 26 -12t6 -29l-205 -963q-43 -199 -181 -326t-355 -127q-217 1 -345 135t-89 318l205 963q8 41 49 41h207q16 0 26 -12t6 -29l-205 -963q-14 -70 29 -117t136 -47z" />
    <glyph glyph-name="Udieresis" unicode="&#xdc;" 
d="M484 266q93 0 154 46q60 46 75 118l205 963q8 41 49 41h207q16 0 26 -12t6 -29l-205 -963q-43 -199 -181 -326t-355 -127q-217 1 -345 135t-89 318l205 963q8 41 49 41h207q16 0 26 -12t6 -29l-205 -963q-14 -70 29 -117t136 -47z" />
    <glyph glyph-name="Yacute" unicode="&#xdd;" 
d="M965 1434h223q20 0 27 -18t-7 -40l-557 -913l-90 -422q-8 -41 -49 -41h-205q-16 0 -26 12t-7 29l91 422l-168 913q-4 23 10 40t35 18h204q27 0 33 -31l88 -567q0 -8 8 -9h5q6 1 12 9l328 567q16 31 45 31z" />
    <glyph glyph-name="Thorn" unicode="&#xde;" 
d="M723 1147h-184q-20 0 -25 -21l-51 -245q-4 -20 14 -21h185q72 0 124 49t52 117q0 121 -115 121zM233 0h-204q-16 0 -27 12q-10 12 -6 29l289 1352q8 41 49 41h430q154 0 262 -102t107 -247q0 -239 -156 -375t-375 -137h-184q-23 0 -27 -20l-108 -512q-8 -41 -50 -41z" />
    <glyph glyph-name="germandbls" unicode="&#xdf;" horiz-adv-x="2252" 
d="M1378 377q35 0 45 -11t7 -40q-6 -57 36 -82t126 -25q83 0 144 30q60 30 60 79q0 31 -24 43t-45 22q-22 10 -78 18q-56 9 -62 9q-309 51 -309 297q0 131 133 230t306 99t293 -88t93 -221q-8 -37 -22 -49t-43 -12h-142q-42 0 -38 49t-37 73t-111 24t-123 -28
q-53 -26 -53 -77q0 -63 192 -90q324 -45 324 -279q0 -162 -139 -266t-331 -104t-312 88q-122 89 -97 249q10 61 74 62h133zM252 377q35 0 45 -11t6 -40q-6 -57 37 -82t126 -25t143 30q61 30 61 70t-24 52t-46 21q-23 9 -78 19q-55 9 -61 9q-309 51 -309 297q0 131 133 230
t306 99t293 -88t93 -221q-9 -37 -23 -49t-43 -12h-141q-41 0 -38 49t-38 73q-40 24 -110 24t-123 -28q-53 -26 -53 -77q0 -63 192 -90q324 -45 324 -279q0 -162 -140 -266t-330 -104t-312 88q-122 89 -97 249q10 61 74 62h133z" />
    <glyph glyph-name="agrave" unicode="&#xe0;" 
d="M666 0q-30 0 -28 41t-17 41q-12 0 -38 -26t-79 -51t-129 -25q-139 0 -238 113q-98 114 -98 288q0 272 141 467t371 194q131 0 201 -94q22 -26 32 -26t19 16l24 59q12 27 31 27h152q16 0 26 -12t6 -29l-202 -942q-8 -41 -49 -41h-125zM694 616q0 162 -137 162
q-127 0 -184 -112t-57 -222q-1 -198 137 -198q84 0 141 64q100 114 100 306z" />
    <glyph glyph-name="aacute" unicode="&#xe1;" 
d="M666 0q-30 0 -28 41t-17 41q-12 0 -38 -26t-79 -51t-129 -25q-139 0 -238 113q-98 114 -98 288q0 272 141 467t371 194q131 0 201 -94q22 -26 32 -26t19 16l24 59q12 27 31 27h152q16 0 26 -12t6 -29l-202 -942q-8 -41 -49 -41h-125zM694 616q0 162 -137 162
q-127 0 -184 -112t-57 -222q-1 -198 137 -198q84 0 141 64q100 114 100 306z" />
    <glyph glyph-name="acircumflex" unicode="&#xe2;" 
d="M666 0q-30 0 -28 41t-17 41q-12 0 -38 -26t-79 -51t-129 -25q-139 0 -238 113q-98 114 -98 288q0 272 141 467t371 194q131 0 201 -94q22 -26 32 -26t19 16l24 59q12 27 31 27h152q16 0 26 -12t6 -29l-202 -942q-8 -41 -49 -41h-125zM694 616q0 162 -137 162
q-127 0 -184 -112t-57 -222q-1 -198 137 -198q84 0 141 64q100 114 100 306z" />
    <glyph glyph-name="atilde" unicode="&#xe3;" 
d="M666 0q-30 0 -28 41t-17 41q-12 0 -38 -26t-79 -51t-129 -25q-139 0 -238 113q-98 114 -98 288q0 272 141 467t371 194q131 0 201 -94q22 -26 32 -26t19 16l24 59q12 27 31 27h152q16 0 26 -12t6 -29l-202 -942q-8 -41 -49 -41h-125zM694 616q0 162 -137 162
q-127 0 -184 -112t-57 -222q-1 -198 137 -198q84 0 141 64q100 114 100 306z" />
    <glyph glyph-name="adieresis" unicode="&#xe4;" 
d="M666 0q-30 0 -28 41t-17 41q-12 0 -38 -26t-79 -51t-129 -25q-139 0 -238 113q-98 114 -98 288q0 272 141 467t371 194q131 0 201 -94q22 -26 32 -26t19 16l24 59q12 27 31 27h152q16 0 26 -12t6 -29l-202 -942q-8 -41 -49 -41h-125zM694 616q0 162 -137 162
q-127 0 -184 -112t-57 -222q-1 -198 137 -198q84 0 141 64q100 114 100 306z" />
    <glyph glyph-name="aring" unicode="&#xe5;" 
d="M666 0q-30 0 -28 41t-17 41q-12 0 -38 -26t-79 -51t-129 -25q-139 0 -238 113q-98 114 -98 288q0 272 141 467t371 194q131 0 201 -94q22 -26 32 -26t19 16l24 59q12 27 31 27h152q16 0 26 -12t6 -29l-202 -942q-8 -41 -49 -41h-125zM694 616q0 162 -137 162
q-127 0 -184 -112t-57 -222q-1 -198 137 -198q84 0 141 64q100 114 100 306z" />
    <glyph glyph-name="ae" unicode="&#xe6;" horiz-adv-x="2252" 
d="M1835 657q18 0 25 19q33 129 -148 129q-170 0 -205 -129q-6 -18 17 -19h311zM1589 225q131 0 180 86q18 35 54 35h170q41 0 26 -41q-118 -327 -460 -327q-181 0 -280 106t-87 262t68 324t174 272t300 104q180 0 290 -108q110 -109 71 -297l-37 -170q-10 -41 -49 -41h-526
q-31 0 -37 -31q-18 -82 24 -128t119 -46zM666 0q-30 0 -28 41t-17 41q-12 0 -38 -26t-79 -51t-129 -25q-139 0 -238 113q-98 114 -98 288q0 272 141 467t371 194q131 0 201 -94q22 -26 32 -26t19 16l24 59q12 27 31 27h152q16 0 26 -12t6 -29l-202 -942q-8 -41 -49 -41h-125
zM694 616q0 162 -137 162q-127 0 -184 -112t-57 -222q-1 -198 137 -198q84 0 141 64q100 114 100 306z" />
    <glyph glyph-name="ccedilla" unicode="&#xe7;" 
d="M881 420q66 0 47 -62q-111 -381 -469 -381q-186 0 -292 108q-105 107 -92 275t67 329t158 259t296 98q194 0 304 -110q110 -111 87 -270q-8 -61 -74 -62h-141q-59 0 -51 58t-26 91q-34 32 -109 31q-139 0 -183 -118q-51 -135 -63 -308q-8 -118 135 -118t182 118
q23 61 76 62h148z" />
    <glyph glyph-name="egrave" unicode="&#xe8;" 
d="M709 657q18 0 24 19q33 129 -147 129q-170 0 -205 -129q-6 -18 16 -19h312zM463 225q131 0 180 86q18 35 53 35h170q41 0 27 -41q-118 -327 -460 -327q-181 0 -280 106t-87 262t68 324t174 272t300 104t290 -108q110 -109 71 -297l-37 -170q-10 -41 -49 -41h-527
q-31 0 -37 -31q-18 -82 24 -128t120 -46z" />
    <glyph glyph-name="eacute" unicode="&#xe9;" 
d="M709 657q18 0 24 19q33 129 -147 129q-170 0 -205 -129q-6 -18 16 -19h312zM463 225q131 0 180 86q18 35 53 35h170q41 0 27 -41q-118 -327 -460 -327q-181 0 -280 106t-87 262t68 324t174 272t300 104t290 -108q110 -109 71 -297l-37 -170q-10 -41 -49 -41h-527
q-31 0 -37 -31q-18 -82 24 -128t120 -46z" />
    <glyph glyph-name="ecircumflex" unicode="&#xea;" 
d="M709 657q18 0 24 19q33 129 -147 129q-170 0 -205 -129q-6 -18 16 -19h312zM463 225q131 0 180 86q18 35 53 35h170q41 0 27 -41q-118 -327 -460 -327q-181 0 -280 106t-87 262t68 324t174 272t300 104t290 -108q110 -109 71 -297l-37 -170q-10 -41 -49 -41h-527
q-31 0 -37 -31q-18 -82 24 -128t120 -46z" />
    <glyph glyph-name="edieresis" unicode="&#xeb;" 
d="M709 657q18 0 24 19q33 129 -147 129q-170 0 -205 -129q-6 -18 16 -19h312zM463 225q131 0 180 86q18 35 53 35h170q41 0 27 -41q-118 -327 -460 -327q-181 0 -280 106t-87 262t68 324t174 272t300 104t290 -108q110 -109 71 -297l-37 -170q-10 -41 -49 -41h-527
q-31 0 -37 -31q-18 -82 24 -128t120 -46z" />
    <glyph glyph-name="igrave" unicode="&#xec;" 
d="M457 764h-205q-16 0 -26 12q-9 12 -5 29l37 178q8 41 49 41h459q14 0 22 -10t5 -23l-150 -704q-4 -20 16 -21h226q16 0 25 -12t5 -29l-38 -184q-8 -41 -50 -41h-757q-16 0 -27 12q-10 12 -6 29l39 184q4 17 19 29t32 12h225q20 0 25 21l96 456q4 21 -16 21zM809 1167
h-221q-33 0 -25 33l47 221q8 33 39 33h221q14 0 23 -10q8 -11 4 -23l-47 -221q-8 -33 -41 -33z" />
    <glyph glyph-name="iacute" unicode="&#xed;" 
d="M457 764h-205q-16 0 -26 12q-9 12 -5 29l37 178q8 41 49 41h459q14 0 22 -10t5 -23l-150 -704q-4 -20 16 -21h226q16 0 25 -12t5 -29l-38 -184q-8 -41 -50 -41h-757q-16 0 -27 12q-10 12 -6 29l39 184q4 17 19 29t32 12h225q20 0 25 21l96 456q4 21 -16 21zM809 1167
h-221q-33 0 -25 33l47 221q8 33 39 33h221q14 0 23 -10q8 -11 4 -23l-47 -221q-8 -33 -41 -33z" />
    <glyph glyph-name="icircumflex" unicode="&#xee;" 
d="M457 764h-205q-16 0 -26 12q-9 12 -5 29l37 178q8 41 49 41h459q14 0 22 -10t5 -23l-150 -704q-4 -20 16 -21h226q16 0 25 -12t5 -29l-38 -184q-8 -41 -50 -41h-757q-16 0 -27 12q-10 12 -6 29l39 184q4 17 19 29t32 12h225q20 0 25 21l96 456q4 21 -16 21zM809 1167
h-221q-33 0 -25 33l47 221q8 33 39 33h221q14 0 23 -10q8 -11 4 -23l-47 -221q-8 -33 -41 -33z" />
    <glyph glyph-name="idieresis" unicode="&#xef;" 
d="M457 764h-205q-16 0 -26 12q-9 12 -5 29l37 178q8 41 49 41h459q14 0 22 -10t5 -23l-150 -704q-4 -20 16 -21h226q16 0 25 -12t5 -29l-38 -184q-8 -41 -50 -41h-757q-16 0 -27 12q-10 12 -6 29l39 184q4 17 19 29t32 12h225q20 0 25 21l96 456q4 21 -16 21zM809 1167
h-221q-33 0 -25 33l47 221q8 33 39 33h221q14 0 23 -10q8 -11 4 -23l-47 -221q-8 -33 -41 -33z" />
    <glyph glyph-name="ntilde" unicode="&#xf1;" 
d="M455 975q23 0 93 36t138 36q162 0 252 -111t55 -270l-133 -625q-8 -41 -49 -41h-184q-16 0 -27 12q-10 12 -6 29l133 627q10 53 -22 87q-33 33 -104 33t-120 -32t-59 -80l-135 -635q-8 -41 -49 -41h-185q-16 0 -26 12t-7 29l201 942q8 41 49 41h103q27 0 43 -24t39 -25z
" />
    <glyph glyph-name="ograve" unicode="&#xf2;" 
d="M659 358q55 160 64 308q4 55 -29 87t-106 31q-139 0 -186 -126t-60 -300q-8 -118 133 -118t184 118zM603 1047q187 0 293 -109q106 -110 94 -272q-13 -162 -67 -325t-163 -263t-297 -100t-294 108q-105 110 -93 272t66 325t164 263t297 101z" />
    <glyph glyph-name="oacute" unicode="&#xf3;" 
d="M659 358q55 160 64 308q4 55 -29 87t-106 31q-139 0 -186 -126t-60 -300q-8 -118 133 -118t184 118zM603 1047q187 0 293 -109q106 -110 94 -272q-13 -162 -67 -325t-163 -263t-297 -100t-294 108q-105 110 -93 272t66 325t164 263t297 101z" />
    <glyph glyph-name="ocircumflex" unicode="&#xf4;" 
d="M659 358q55 160 64 308q4 55 -29 87t-106 31q-139 0 -186 -126t-60 -300q-8 -118 133 -118t184 118zM603 1047q187 0 293 -109q106 -110 94 -272q-13 -162 -67 -325t-163 -263t-297 -100t-294 108q-105 110 -93 272t66 325t164 263t297 101z" />
    <glyph glyph-name="otilde" unicode="&#xf5;" 
d="M659 358q55 160 64 308q4 55 -29 87t-106 31q-139 0 -186 -126t-60 -300q-8 -118 133 -118t184 118zM603 1047q187 0 293 -109q106 -110 94 -272q-13 -162 -67 -325t-163 -263t-297 -100t-294 108q-105 110 -93 272t66 325t164 263t297 101z" />
    <glyph glyph-name="odieresis" unicode="&#xf6;" 
d="M659 358q55 160 64 308q4 55 -29 87t-106 31q-139 0 -186 -126t-60 -300q-8 -118 133 -118t184 118zM603 1047q187 0 293 -109q106 -110 94 -272q-13 -162 -67 -325t-163 -263t-297 -100t-294 108q-105 110 -93 272t66 325t164 263t297 101z" />
    <glyph glyph-name="oslash" unicode="&#xf8;" 
d="M659 358q55 160 64 308q4 55 -29 87t-106 31q-139 0 -186 -126t-60 -300q-8 -118 133 -118t184 118zM603 1047q187 0 293 -109q106 -110 94 -272q-13 -162 -67 -325t-163 -263t-297 -100t-294 108q-105 110 -93 272t66 325t164 263t297 101z" />
    <glyph glyph-name="ugrave" unicode="&#xf9;" 
d="M618 49q-22 0 -92 -36t-139 -36q-162 0 -252 111t-55 270l133 625q8 41 49 41h184q16 0 26 -12t7 -29l-133 -627q-10 -53 23 -87q33 -33 103 -33t120 32q49 32 59 80l135 635q8 41 50 41h184q16 0 26 -12t7 -29l-201 -942q-8 -41 -49 -41h-103q-23 0 -43 25
q-16 24 -39 24z" />
    <glyph glyph-name="uacute" unicode="&#xfa;" 
d="M618 49q-22 0 -92 -36t-139 -36q-162 0 -252 111t-55 270l133 625q8 41 49 41h184q16 0 26 -12t7 -29l-133 -627q-10 -53 23 -87q33 -33 103 -33t120 32q49 32 59 80l135 635q8 41 50 41h184q16 0 26 -12t7 -29l-201 -942q-8 -41 -49 -41h-103q-23 0 -43 25
q-16 24 -39 24z" />
    <glyph glyph-name="ucircumflex" unicode="&#xfb;" 
d="M618 49q-22 0 -92 -36t-139 -36q-162 0 -252 111t-55 270l133 625q8 41 49 41h184q16 0 26 -12t7 -29l-133 -627q-10 -53 23 -87q33 -33 103 -33t120 32q49 32 59 80l135 635q8 41 50 41h184q16 0 26 -12t7 -29l-201 -942q-8 -41 -49 -41h-103q-23 0 -43 25
q-16 24 -39 24z" />
    <glyph glyph-name="udieresis" unicode="&#xfc;" 
d="M618 49q-22 0 -92 -36t-139 -36q-162 0 -252 111t-55 270l133 625q8 41 49 41h184q16 0 26 -12t7 -29l-133 -627q-10 -53 23 -87q33 -33 103 -33t120 32q49 32 59 80l135 635q8 41 50 41h184q16 0 26 -12t7 -29l-201 -942q-8 -41 -49 -41h-103q-23 0 -43 25
q-16 24 -39 24z" />
    <glyph glyph-name="yacute" unicode="&#xfd;" 
d="M14 -410h-57q-17 0 -27 12t-6 29l35 162q10 41 49 41h78q119 0 174 98l49 88q12 23 8 46l-145 911q-4 15 11 31t38 16h193q31 0 32 -31l74 -581q2 -12 10 -13q8 0 15 13l291 581q14 31 45 31h206q23 0 31 -16t-2 -31l-594 -1086q-164 -301 -508 -301z" />
    <glyph glyph-name="thorn" unicode="&#xfe;" 
d="M454 977q22 0 91 34q68 34 141 33q166 0 253 -110t74 -270t-67 -319t-168 -263q-115 -104 -272 -105q-62 1 -108 21t-58 20q-39 0 -49 -41l-80 -346q-10 -41 -49 -41h-180q-41 0 -33 41l289 1352q8 41 49 41h102q20 0 27 -14q16 -33 38 -33zM428 666q-55 -160 -63 -308
q-3 -55 29 -87t106 -31q139 0 186 126t59 300q8 118 -133 118t-184 -118z" />
    <glyph glyph-name="ydieresis" unicode="&#xff;" 
d="M14 -410h-57q-17 0 -27 12t-6 29l35 162q10 41 49 41h78q119 0 174 98l49 88q12 23 8 46l-145 911q-4 15 11 31t38 16h193q31 0 32 -31l74 -581q2 -12 10 -13q8 0 15 13l291 581q14 31 45 31h206q23 0 31 -16t-2 -31l-594 -1086q-164 -301 -508 -301z" />
    <glyph glyph-name="Amacron" unicode="&#x100;" 
d="M444 559h199q20 0 21 23v491q0 8 -9 8h-4q-10 0 -12 -8l-207 -491q-8 -23 12 -23zM139 0h-225q-23 0 -31 13t-2 28l656 1362q14 31 45 31h274q33 0 33 -31l74 -1362q1 -17 -13 -29t-37 -12h-202q-33 0 -33 31l-8 211q0 31 -25 30h-321q-23 1 -37 -30l-103 -211
q-14 -31 -45 -31z" />
    <glyph glyph-name="amacron" unicode="&#x101;" 
d="M666 0q-30 0 -28 41t-17 41q-12 0 -38 -26t-79 -51t-129 -25q-139 0 -238 113q-98 114 -98 288q0 272 141 467t371 194q131 0 201 -94q22 -26 32 -26t19 16l24 59q12 27 31 27h152q16 0 26 -12t6 -29l-202 -942q-8 -41 -49 -41h-125zM694 616q0 162 -137 162
q-127 0 -184 -112t-57 -222q-1 -198 137 -198q84 0 141 64q100 114 100 306z" />
    <glyph glyph-name="Abreve" unicode="&#x102;" 
d="M444 559h199q20 0 21 23v491q0 8 -9 8h-4q-10 0 -12 -8l-207 -491q-8 -23 12 -23zM139 0h-225q-23 0 -31 13t-2 28l656 1362q14 31 45 31h274q33 0 33 -31l74 -1362q1 -17 -13 -29t-37 -12h-202q-33 0 -33 31l-8 211q0 31 -25 30h-321q-23 1 -37 -30l-103 -211
q-14 -31 -45 -31z" />
    <glyph glyph-name="abreve" unicode="&#x103;" 
d="M666 0q-30 0 -28 41t-17 41q-12 0 -38 -26t-79 -51t-129 -25q-139 0 -238 113q-98 114 -98 288q0 272 141 467t371 194q131 0 201 -94q22 -26 32 -26t19 16l24 59q12 27 31 27h152q16 0 26 -12t6 -29l-202 -942q-8 -41 -49 -41h-125zM694 616q0 162 -137 162
q-127 0 -184 -112t-57 -222q-1 -198 137 -198q84 0 141 64q100 114 100 306z" />
    <glyph glyph-name="Aogonek" unicode="&#x104;" 
d="M444 559h199q20 0 21 23v491q0 8 -9 8h-4q-10 0 -12 -8l-207 -491q-8 -23 12 -23zM139 0h-225q-23 0 -31 13t-2 28l656 1362q14 31 45 31h274q33 0 33 -31l74 -1362q1 -17 -13 -29t-37 -12h-202q-33 0 -33 31l-8 211q0 31 -25 30h-321q-23 1 -37 -30l-103 -211
q-14 -31 -45 -31z" />
    <glyph glyph-name="aogonek" unicode="&#x105;" 
d="M666 0q-30 0 -28 41t-17 41q-12 0 -38 -26t-79 -51t-129 -25q-139 0 -238 113q-98 114 -98 288q0 272 141 467t371 194q131 0 201 -94q22 -26 32 -26t19 16l24 59q12 27 31 27h152q16 0 26 -12t6 -29l-202 -942q-8 -41 -49 -41h-125zM694 616q0 162 -137 162
q-127 0 -184 -112t-57 -222q-1 -198 137 -198q84 0 141 64q100 114 100 306z" />
    <glyph glyph-name="Cacute" unicode="&#x106;" 
d="M440 -23q-218 1 -332 131t-96 322q29 295 121 574q70 212 196 332t342 120t342 -130t97 -312q-8 -61 -76 -62h-166q-57 0 -49 52q18 164 -164 163q-88 0 -148 -46t-85 -117q-92 -279 -121 -574q-8 -72 33 -118t131 -46q178 0 233 164q14 51 72 51h166q63 0 49 -61
q-49 -197 -188 -320t-357 -123z" />
    <glyph glyph-name="cacute" unicode="&#x107;" 
d="M881 420q66 0 47 -62q-111 -381 -469 -381q-186 0 -292 108q-105 107 -92 275t67 329t158 259t296 98q194 0 304 -110q110 -111 87 -270q-8 -61 -74 -62h-141q-59 0 -51 58t-26 91q-34 32 -109 31q-139 0 -183 -118q-51 -135 -63 -308q-8 -118 135 -118t182 118
q23 61 76 62h148z" />
    <glyph glyph-name="Ccircumflex" unicode="&#x108;" 
d="M440 -23q-218 1 -332 131t-96 322q29 295 121 574q70 212 196 332t342 120t342 -130t97 -312q-8 -61 -76 -62h-166q-57 0 -49 52q18 164 -164 163q-88 0 -148 -46t-85 -117q-92 -279 -121 -574q-8 -72 33 -118t131 -46q178 0 233 164q14 51 72 51h166q63 0 49 -61
q-49 -197 -188 -320t-357 -123z" />
    <glyph glyph-name="ccircumflex" unicode="&#x109;" 
d="M881 420q66 0 47 -62q-111 -381 -469 -381q-186 0 -292 108q-105 107 -92 275t67 329t158 259t296 98q194 0 304 -110q110 -111 87 -270q-8 -61 -74 -62h-141q-59 0 -51 58t-26 91q-34 32 -109 31q-139 0 -183 -118q-51 -135 -63 -308q-8 -118 135 -118t182 118
q23 61 76 62h148z" />
    <glyph glyph-name="Cdotaccent" unicode="&#x10a;" 
d="M440 -23q-218 1 -332 131t-96 322q29 295 121 574q70 212 196 332t342 120t342 -130t97 -312q-8 -61 -76 -62h-166q-57 0 -49 52q18 164 -164 163q-88 0 -148 -46t-85 -117q-92 -279 -121 -574q-8 -72 33 -118t131 -46q178 0 233 164q14 51 72 51h166q63 0 49 -61
q-49 -197 -188 -320t-357 -123z" />
    <glyph glyph-name="cdotaccent" unicode="&#x10b;" 
d="M881 420q66 0 47 -62q-111 -381 -469 -381q-186 0 -292 108q-105 107 -92 275t67 329t158 259t296 98q194 0 304 -110q110 -111 87 -270q-8 -61 -74 -62h-141q-59 0 -51 58t-26 91q-34 32 -109 31q-139 0 -183 -118q-51 -135 -63 -308q-8 -118 135 -118t182 118
q23 61 76 62h148z" />
    <glyph glyph-name="Ccaron" unicode="&#x10c;" 
d="M440 -23q-218 1 -332 131t-96 322q29 295 121 574q70 212 196 332t342 120t342 -130t97 -312q-8 -61 -76 -62h-166q-57 0 -49 52q18 164 -164 163q-88 0 -148 -46t-85 -117q-92 -279 -121 -574q-8 -72 33 -118t131 -46q178 0 233 164q14 51 72 51h166q63 0 49 -61
q-49 -197 -188 -320t-357 -123z" />
    <glyph glyph-name="ccaron" unicode="&#x10d;" 
d="M881 420q66 0 47 -62q-111 -381 -469 -381q-186 0 -292 108q-105 107 -92 275t67 329t158 259t296 98q194 0 304 -110q110 -111 87 -270q-8 -61 -74 -62h-141q-59 0 -51 58t-26 91q-34 32 -109 31q-139 0 -183 -118q-51 -135 -63 -308q-8 -118 135 -118t182 118
q23 61 76 62h148z" />
    <glyph glyph-name="Dcaron" unicode="&#x10e;" 
d="M315 1434h353q214 0 332 -122t100 -308q-29 -295 -121 -574q-68 -206 -194 -318t-349 -112h-426q-27 0 -40 17t-7 44l279 1311q4 26 25 44t48 18zM647 1147h-137q-31 0 -37 -31l-170 -799q-6 -31 25 -30h129q184 0 233 143q92 279 121 574q16 143 -164 143z" />
    <glyph glyph-name="dcaron" unicode="&#x10f;" 
d="M606 47q-22 0 -90 -34t-141 -33q-166 0 -253 110t-74 270q12 160 66 319t169 263t272 105q63 -1 109 -21t57 -20q39 0 49 41l84 366q10 41 49 41h180q41 0 33 -41l-293 -1372q-8 -41 -49 -41h-102q-20 0 -27 14q-17 33 -39 33zM633 358q55 160 63 308q4 55 -28 87
q-33 32 -107 31q-139 0 -186 -126t-60 -300q-8 -118 133 -118q142 0 185 118z" />
    <glyph glyph-name="Dcroat" unicode="&#x110;" 
d="M315 1434h353q214 0 332 -122t100 -308q-29 -295 -121 -574q-68 -206 -194 -318t-349 -112h-426q-27 0 -40 17t-7 44l279 1311q4 26 25 44t48 18zM647 1147h-137q-31 0 -37 -31l-170 -799q-6 -31 25 -30h129q184 0 233 143q92 279 121 574q16 143 -164 143z" />
    <glyph glyph-name="dcroat" unicode="&#x111;" 
d="M606 47q-22 0 -90 -34t-141 -33q-166 0 -253 110t-74 270q12 160 66 319t169 263t272 105q63 -1 109 -21t57 -20q39 0 49 41l84 366q10 41 49 41h180q41 0 33 -41l-293 -1372q-8 -41 -49 -41h-102q-20 0 -27 14q-17 33 -39 33zM633 358q55 160 63 308q4 55 -28 87
q-33 32 -107 31q-139 0 -186 -126t-60 -300q-8 -118 133 -118q142 0 185 118z" />
    <glyph glyph-name="Emacron" unicode="&#x112;" 
d="M985 860q17 0 27 -12t6 -29l-43 -205q-8 -41 -49 -41h-502q-23 0 -27 -20l-51 -246q-4 -20 16 -20h527q16 -1 26 -13t7 -28l-45 -205q-8 -41 -50 -41h-792q-16 0 -26 12q-9 12 -5 29l287 1352q8 41 49 41h784q16 0 26 -12t7 -29l-45 -205q-8 -41 -49 -41h-518
q-21 -1 -25 -21l-51 -245q-4 -20 14 -21h502z" />
    <glyph glyph-name="emacron" unicode="&#x113;" 
d="M709 657q18 0 24 19q33 129 -147 129q-170 0 -205 -129q-6 -18 16 -19h312zM463 225q131 0 180 86q18 35 53 35h170q41 0 27 -41q-118 -327 -460 -327q-181 0 -280 106t-87 262t68 324t174 272t300 104t290 -108q110 -109 71 -297l-37 -170q-10 -41 -49 -41h-527
q-31 0 -37 -31q-18 -82 24 -128t120 -46z" />
    <glyph glyph-name="Ebreve" unicode="&#x114;" 
d="M985 860q17 0 27 -12t6 -29l-43 -205q-8 -41 -49 -41h-502q-23 0 -27 -20l-51 -246q-4 -20 16 -20h527q16 -1 26 -13t7 -28l-45 -205q-8 -41 -50 -41h-792q-16 0 -26 12q-9 12 -5 29l287 1352q8 41 49 41h784q16 0 26 -12t7 -29l-45 -205q-8 -41 -49 -41h-518
q-21 -1 -25 -21l-51 -245q-4 -20 14 -21h502z" />
    <glyph glyph-name="ebreve" unicode="&#x115;" 
d="M709 657q18 0 24 19q33 129 -147 129q-170 0 -205 -129q-6 -18 16 -19h312zM463 225q131 0 180 86q18 35 53 35h170q41 0 27 -41q-118 -327 -460 -327q-181 0 -280 106t-87 262t68 324t174 272t300 104t290 -108q110 -109 71 -297l-37 -170q-10 -41 -49 -41h-527
q-31 0 -37 -31q-18 -82 24 -128t120 -46z" />
    <glyph glyph-name="Edotaccent" unicode="&#x116;" 
d="M985 860q17 0 27 -12t6 -29l-43 -205q-8 -41 -49 -41h-502q-23 0 -27 -20l-51 -246q-4 -20 16 -20h527q16 -1 26 -13t7 -28l-45 -205q-8 -41 -50 -41h-792q-16 0 -26 12q-9 12 -5 29l287 1352q8 41 49 41h784q16 0 26 -12t7 -29l-45 -205q-8 -41 -49 -41h-518
q-21 -1 -25 -21l-51 -245q-4 -20 14 -21h502z" />
    <glyph glyph-name="edotaccent" unicode="&#x117;" 
d="M709 657q18 0 24 19q33 129 -147 129q-170 0 -205 -129q-6 -18 16 -19h312zM463 225q131 0 180 86q18 35 53 35h170q41 0 27 -41q-118 -327 -460 -327q-181 0 -280 106t-87 262t68 324t174 272t300 104t290 -108q110 -109 71 -297l-37 -170q-10 -41 -49 -41h-527
q-31 0 -37 -31q-18 -82 24 -128t120 -46z" />
    <glyph glyph-name="Eogonek" unicode="&#x118;" 
d="M985 860q17 0 27 -12t6 -29l-43 -205q-8 -41 -49 -41h-502q-23 0 -27 -20l-51 -246q-4 -20 16 -20h527q16 -1 26 -13t7 -28l-45 -205q-8 -41 -50 -41h-792q-16 0 -26 12q-9 12 -5 29l287 1352q8 41 49 41h784q16 0 26 -12t7 -29l-45 -205q-8 -41 -49 -41h-518
q-21 -1 -25 -21l-51 -245q-4 -20 14 -21h502z" />
    <glyph glyph-name="eogonek" unicode="&#x119;" 
d="M709 657q18 0 24 19q33 129 -147 129q-170 0 -205 -129q-6 -18 16 -19h312zM463 225q131 0 180 86q18 35 53 35h170q41 0 27 -41q-118 -327 -460 -327q-181 0 -280 106t-87 262t68 324t174 272t300 104t290 -108q110 -109 71 -297l-37 -170q-10 -41 -49 -41h-527
q-31 0 -37 -31q-18 -82 24 -128t120 -46z" />
    <glyph glyph-name="Ecaron" unicode="&#x11a;" 
d="M985 860q17 0 27 -12t6 -29l-43 -205q-8 -41 -49 -41h-502q-23 0 -27 -20l-51 -246q-4 -20 16 -20h527q16 -1 26 -13t7 -28l-45 -205q-8 -41 -50 -41h-792q-16 0 -26 12q-9 12 -5 29l287 1352q8 41 49 41h784q16 0 26 -12t7 -29l-45 -205q-8 -41 -49 -41h-518
q-21 -1 -25 -21l-51 -245q-4 -20 14 -21h502z" />
    <glyph glyph-name="ecaron" unicode="&#x11b;" 
d="M709 657q18 0 24 19q33 129 -147 129q-170 0 -205 -129q-6 -18 16 -19h312zM463 225q131 0 180 86q18 35 53 35h170q41 0 27 -41q-118 -327 -460 -327q-181 0 -280 106t-87 262t68 324t174 272t300 104t290 -108q110 -109 71 -297l-37 -170q-10 -41 -49 -41h-527
q-31 0 -37 -31q-18 -82 24 -128t120 -46z" />
    <glyph glyph-name="Gcircumflex" unicode="&#x11c;" 
d="M571 535q-16 0 -26 12t-6 28l41 195q8 41 49 41h399q16 0 26 -12t7 -29l-76 -350q-41 -197 -183 -320t-360 -123q-218 1 -334 131q-114 130 -96 322q29 295 121 574q70 208 198 330t342 122t340 -130t97 -312q-8 -61 -76 -62h-166q-57 0 -49 52q18 164 -164 163
q-88 0 -148 -46t-85 -117q-92 -279 -121 -574q-8 -72 33 -118t137 -46t158 45t78 119l18 84q4 20 -14 21h-140z" />
    <glyph glyph-name="gcircumflex" unicode="&#x11d;" 
d="M469 240q139 0 186 126t60 300q4 57 -28 88t-105 30q-141 0 -185 -118q-55 -160 -63 -308q-4 -55 28 -87q33 -31 107 -31zM250 -109q0 -88 126 -88t179 101q18 35 18 76q0 47 -63 23t-119 -23q-154 -2 -246 110q-93 112 -79 272q14 158 68 321t158 263t283 101
q88 0 157 -35q68 -35 92 -35q24 -1 44 23t39 24h103q16 0 26 -12t6 -29l-223 -1044q-82 -379 -450 -379q-193 0 -288 93t-77 245q2 16 18 28t31 13h154q21 -1 28 -5t11 -5t4 -21v-17z" />
    <glyph glyph-name="Gbreve" unicode="&#x11e;" 
d="M571 535q-16 0 -26 12t-6 28l41 195q8 41 49 41h399q16 0 26 -12t7 -29l-76 -350q-41 -197 -183 -320t-360 -123q-218 1 -334 131q-114 130 -96 322q29 295 121 574q70 208 198 330t342 122t340 -130t97 -312q-8 -61 -76 -62h-166q-57 0 -49 52q18 164 -164 163
q-88 0 -148 -46t-85 -117q-92 -279 -121 -574q-8 -72 33 -118t137 -46t158 45t78 119l18 84q4 20 -14 21h-140z" />
    <glyph glyph-name="gbreve" unicode="&#x11f;" 
d="M469 240q139 0 186 126t60 300q4 57 -28 88t-105 30q-141 0 -185 -118q-55 -160 -63 -308q-4 -55 28 -87q33 -31 107 -31zM250 -109q0 -88 126 -88t179 101q18 35 18 76q0 47 -63 23t-119 -23q-154 -2 -246 110q-93 112 -79 272q14 158 68 321t158 263t283 101
q88 0 157 -35q68 -35 92 -35q24 -1 44 23t39 24h103q16 0 26 -12t6 -29l-223 -1044q-82 -379 -450 -379q-193 0 -288 93t-77 245q2 16 18 28t31 13h154q21 -1 28 -5t11 -5t4 -21v-17z" />
    <glyph glyph-name="Gdotaccent" unicode="&#x120;" 
d="M571 535q-16 0 -26 12t-6 28l41 195q8 41 49 41h399q16 0 26 -12t7 -29l-76 -350q-41 -197 -183 -320t-360 -123q-218 1 -334 131q-114 130 -96 322q29 295 121 574q70 208 198 330t342 122t340 -130t97 -312q-8 -61 -76 -62h-166q-57 0 -49 52q18 164 -164 163
q-88 0 -148 -46t-85 -117q-92 -279 -121 -574q-8 -72 33 -118t137 -46t158 45t78 119l18 84q4 20 -14 21h-140z" />
    <glyph glyph-name="gdotaccent" unicode="&#x121;" 
d="M469 240q139 0 186 126t60 300q4 57 -28 88t-105 30q-141 0 -185 -118q-55 -160 -63 -308q-4 -55 28 -87q33 -31 107 -31zM250 -109q0 -88 126 -88t179 101q18 35 18 76q0 47 -63 23t-119 -23q-154 -2 -246 110q-93 112 -79 272q14 158 68 321t158 263t283 101
q88 0 157 -35q68 -35 92 -35q24 -1 44 23t39 24h103q16 0 26 -12t6 -29l-223 -1044q-82 -379 -450 -379q-193 0 -288 93t-77 245q2 16 18 28t31 13h154q21 -1 28 -5t11 -5t4 -21v-17z" />
    <glyph glyph-name="Gcommaaccent" unicode="&#x122;" 
d="M571 535q-16 0 -26 12t-6 28l41 195q8 41 49 41h399q16 0 26 -12t7 -29l-76 -350q-41 -197 -183 -320t-360 -123q-218 1 -334 131q-114 130 -96 322q29 295 121 574q70 208 198 330t342 122t340 -130t97 -312q-8 -61 -76 -62h-166q-57 0 -49 52q18 164 -164 163
q-88 0 -148 -46t-85 -117q-92 -279 -121 -574q-8 -72 33 -118t137 -46t158 45t78 119l18 84q4 20 -14 21h-140z" />
    <glyph glyph-name="gcommaaccent" unicode="&#x123;" 
d="M469 240q139 0 186 126t60 300q4 57 -28 88t-105 30q-141 0 -185 -118q-55 -160 -63 -308q-4 -55 28 -87q33 -31 107 -31zM250 -109q0 -88 126 -88t179 101q18 35 18 76q0 47 -63 23t-119 -23q-154 -2 -246 110q-93 112 -79 272q14 158 68 321t158 263t283 101
q88 0 157 -35q68 -35 92 -35q24 -1 44 23t39 24h103q16 0 26 -12t6 -29l-223 -1044q-82 -379 -450 -379q-193 0 -288 93t-77 245q2 16 18 28t31 13h154q21 -1 28 -5t11 -5t4 -21v-17z" />
    <glyph glyph-name="Hcircumflex" unicode="&#x124;" 
d="M748 860q23 0 26 21l109 512q8 41 49 41h205q16 0 26 -12t6 -29l-288 -1352q-8 -41 -50 -41h-204q-16 0 -27 12q-10 12 -6 29l108 512q4 20 -14 20h-311q-23 0 -27 -20l-108 -512q-2 -17 -22 -29t-38 -12h-194q-16 0 -26 12q-9 12 -5 29l287 1352q8 41 49 41h205
q16 0 26 -12t6 -29l-108 -512q-4 -20 14 -21h312z" />
    <glyph glyph-name="hcircumflex" unicode="&#x125;" 
d="M289 0h-185q-16 0 -25 12t-5 29l291 1372q8 41 49 41h184q16 0 26 -12t7 -29l-74 -348q-6 -27 7 -40q14 -13 66 5t107 17q162 0 251 -111t56 -270l-133 -625q-8 -41 -49 -41h-184q-16 0 -27 12q-10 12 -6 29l133 625q10 53 -22 88q-33 34 -105 34t-121 -34t-59 -88
l-133 -625q-8 -41 -49 -41z" />
    <glyph glyph-name="Hbar" unicode="&#x126;" 
d="M748 860q23 0 26 21l109 512q8 41 49 41h205q16 0 26 -12t6 -29l-288 -1352q-8 -41 -50 -41h-204q-16 0 -27 12q-10 12 -6 29l108 512q4 20 -14 20h-311q-23 0 -27 -20l-108 -512q-2 -17 -22 -29t-38 -12h-194q-16 0 -26 12q-9 12 -5 29l287 1352q8 41 49 41h205
q16 0 26 -12t6 -29l-108 -512q-4 -20 14 -21h312z" />
    <glyph glyph-name="hbar" unicode="&#x127;" 
d="M289 0h-185q-16 0 -25 12t-5 29l291 1372q8 41 49 41h184q16 0 26 -12t7 -29l-74 -348q-6 -27 7 -40q14 -13 66 5t107 17q162 0 251 -111t56 -270l-133 -625q-8 -41 -49 -41h-184q-16 0 -27 12q-10 12 -6 29l133 625q10 53 -22 88q-33 34 -105 34t-121 -34t-59 -88
l-133 -625q-8 -41 -49 -41z" />
    <glyph glyph-name="Itilde" unicode="&#x128;" 
d="M512 1157h-205q-16 0 -26 12t-7 29l43 195q8 41 50 41h737q16 0 26 -12t7 -29l-43 -195q-8 -41 -50 -41h-204q-20 0 -25 -20l-178 -840q-4 -20 16 -21h226q16 0 26 -12t6 -28l-43 -195q-8 -41 -49 -41h-778q-16 0 -25 12q-8 12 -6 29l41 195q8 41 49 40h226q20 1 24 21
l178 840q4 20 -16 20z" />
    <glyph glyph-name="itilde" unicode="&#x129;" 
d="M457 764h-205q-16 0 -26 12q-9 12 -5 29l37 178q8 41 49 41h459q14 0 22 -10t5 -23l-150 -704q-4 -20 16 -21h226q16 0 25 -12t5 -29l-38 -184q-8 -41 -50 -41h-757q-16 0 -27 12q-10 12 -6 29l39 184q4 17 19 29t32 12h225q20 0 25 21l96 456q4 21 -16 21zM809 1167
h-221q-33 0 -25 33l47 221q8 33 39 33h221q14 0 23 -10q8 -11 4 -23l-47 -221q-8 -33 -41 -33z" />
    <glyph glyph-name="Imacron" unicode="&#x12a;" 
d="M512 1157h-205q-16 0 -26 12t-7 29l43 195q8 41 50 41h737q16 0 26 -12t7 -29l-43 -195q-8 -41 -50 -41h-204q-20 0 -25 -20l-178 -840q-4 -20 16 -21h226q16 0 26 -12t6 -28l-43 -195q-8 -41 -49 -41h-778q-16 0 -25 12q-8 12 -6 29l41 195q8 41 49 40h226q20 1 24 21
l178 840q4 20 -16 20z" />
    <glyph glyph-name="imacron" unicode="&#x12b;" 
d="M457 764h-205q-16 0 -26 12q-9 12 -5 29l37 178q8 41 49 41h459q14 0 22 -10t5 -23l-150 -704q-4 -20 16 -21h226q16 0 25 -12t5 -29l-38 -184q-8 -41 -50 -41h-757q-16 0 -27 12q-10 12 -6 29l39 184q4 17 19 29t32 12h225q20 0 25 21l96 456q4 21 -16 21zM809 1167
h-221q-33 0 -25 33l47 221q8 33 39 33h221q14 0 23 -10q8 -11 4 -23l-47 -221q-8 -33 -41 -33z" />
    <glyph glyph-name="Ibreve" unicode="&#x12c;" 
d="M512 1157h-205q-16 0 -26 12t-7 29l43 195q8 41 50 41h737q16 0 26 -12t7 -29l-43 -195q-8 -41 -50 -41h-204q-20 0 -25 -20l-178 -840q-4 -20 16 -21h226q16 0 26 -12t6 -28l-43 -195q-8 -41 -49 -41h-778q-16 0 -25 12q-8 12 -6 29l41 195q8 41 49 40h226q20 1 24 21
l178 840q4 20 -16 20z" />
    <glyph glyph-name="ibreve" unicode="&#x12d;" 
d="M457 764h-205q-16 0 -26 12q-9 12 -5 29l37 178q8 41 49 41h459q14 0 22 -10t5 -23l-150 -704q-4 -20 16 -21h226q16 0 25 -12t5 -29l-38 -184q-8 -41 -50 -41h-757q-16 0 -27 12q-10 12 -6 29l39 184q4 17 19 29t32 12h225q20 0 25 21l96 456q4 21 -16 21zM809 1167
h-221q-33 0 -25 33l47 221q8 33 39 33h221q14 0 23 -10q8 -11 4 -23l-47 -221q-8 -33 -41 -33z" />
    <glyph glyph-name="Iogonek" unicode="&#x12e;" 
d="M512 1157h-205q-16 0 -26 12t-7 29l43 195q8 41 50 41h737q16 0 26 -12t7 -29l-43 -195q-8 -41 -50 -41h-204q-20 0 -25 -20l-178 -840q-4 -20 16 -21h226q16 0 26 -12t6 -28l-43 -195q-8 -41 -49 -41h-778q-16 0 -25 12q-8 12 -6 29l41 195q8 41 49 40h226q20 1 24 21
l178 840q4 20 -16 20z" />
    <glyph glyph-name="iogonek" unicode="&#x12f;" 
d="M457 764h-205q-16 0 -26 12q-9 12 -5 29l37 178q8 41 49 41h459q14 0 22 -10t5 -23l-150 -704q-4 -20 16 -21h226q16 0 25 -12t5 -29l-38 -184q-8 -41 -50 -41h-757q-16 0 -27 12q-10 12 -6 29l39 184q4 17 19 29t32 12h225q20 0 25 21l96 456q4 21 -16 21zM809 1167
h-221q-33 0 -25 33l47 221q8 33 39 33h221q14 0 23 -10q8 -11 4 -23l-47 -221q-8 -33 -41 -33z" />
    <glyph glyph-name="Idotaccent" unicode="&#x130;" 
d="M512 1157h-205q-16 0 -26 12t-7 29l43 195q8 41 50 41h737q16 0 26 -12t7 -29l-43 -195q-8 -41 -50 -41h-204q-20 0 -25 -20l-178 -840q-4 -20 16 -21h226q16 0 26 -12t6 -28l-43 -195q-8 -41 -49 -41h-778q-16 0 -25 12q-8 12 -6 29l41 195q8 41 49 40h226q20 1 24 21
l178 840q4 20 -16 20z" />
    <glyph glyph-name="dotlessi" unicode="&#x131;" 
d="M457 764h-205q-16 0 -26 12q-9 12 -5 29l37 178q8 41 49 41h459q14 0 22 -10t5 -23l-150 -704q-4 -20 16 -21h226q16 0 25 -12t5 -29l-38 -184q-8 -41 -50 -41h-757q-16 0 -27 12q-10 12 -6 29l39 184q4 17 19 29t32 12h225q20 0 25 21l96 456q4 21 -16 21zM809 1167
h-221q-33 0 -25 33l47 221q8 33 39 33h221q14 0 23 -10q8 -11 4 -23l-47 -221q-8 -33 -41 -33z" />
    <glyph glyph-name="IJ" unicode="&#x132;" horiz-adv-x="2252" 
d="M1538 266q184 0 229 205l195 922q8 41 49 41h207q16 0 26 -12t7 -29l-205 -961q-43 -199 -175 -327t-345 -128q-213 -1 -341 133t-87 322l12 57q8 41 49 41h201q16 0 26 -12t7 -29l-13 -57q-14 -72 27 -119t131 -47zM512 1157h-205q-16 0 -26 12t-7 29l43 195q8 41 50 41
h737q16 0 26 -12t7 -29l-43 -195q-8 -41 -50 -41h-204q-20 0 -25 -20l-178 -840q-4 -20 16 -21h226q16 0 26 -12t6 -28l-43 -195q-8 -41 -49 -41h-778q-16 0 -25 12q-8 12 -6 29l41 195q8 41 49 40h226q20 1 24 21l178 840q4 20 -16 20z" />
    <glyph glyph-name="ij" unicode="&#x133;" horiz-adv-x="2252" 
d="M1380 -432q-162 0 -270 108t-76 263q8 41 47 41h185q16 0 26 -12t6 -29q-10 -49 19 -77t89 -28t98 43q40 43 52 103l158 759q4 20 -16 21h-246q-16 0 -26 12q-9 12 -5 29l37 182q2 17 18 29t33 12h500q13 0 21 -10t4 -23l-224 -1057q-36 -162 -152 -264t-278 -102z
M2052 1167h-221q-13 -1 -21 9t-6 24l47 221q8 33 39 33h221q14 0 23 -10q8 -11 4 -23l-47 -221q-8 -33 -39 -33zM457 764h-205q-16 0 -26 12q-9 12 -5 29l37 178q8 41 49 41h459q14 0 22 -10t5 -23l-150 -704q-4 -20 16 -21h226q16 0 25 -12t5 -29l-38 -184q-8 -41 -50 -41
h-757q-16 0 -27 12q-10 12 -6 29l39 184q4 17 19 29t32 12h225q20 0 25 21l96 456q4 21 -16 21zM809 1167h-221q-33 0 -25 33l47 221q8 33 39 33h221q14 0 23 -10q8 -11 4 -23l-47 -221q-8 -33 -41 -33z" />
    <glyph glyph-name="Jcircumflex" unicode="&#x134;" 
d="M412 266q184 0 229 205l195 922q8 41 49 41h207q16 0 26 -12t6 -29l-204 -961q-44 -199 -176 -327t-344 -128q-212 -1 -342 133q-128 134 -87 322l13 57q8 41 49 41h200q16 0 27 -12q10 -13 6 -29l-12 -57q-14 -72 27 -119t131 -47z" />
    <glyph glyph-name="jcircumflex" unicode="&#x135;" 
d="M254 -432q-162 0 -270 108t-76 263q8 41 47 41h184q17 0 27 -12t6 -29q-10 -49 18 -77t88 -28t100 43t52 103l158 759q4 20 -17 21h-245q-16 0 -26 12q-9 12 -5 29l37 182q2 17 18 29t33 12h500q14 0 21 -10t3 -23l-223 -1057q-35 -162 -152 -264q-116 -102 -278 -102z
M926 1167h-221q-13 -1 -21 9t-6 24l47 221q8 33 39 33h221q14 0 23 -10q8 -11 4 -23l-47 -221q-8 -33 -39 -33z" />
    <glyph glyph-name="Kcommaaccent" unicode="&#x136;" 
d="M1188 1434q29 0 38 -26t-12 -48l-557 -596q-31 -35 -14 -68l295 -618q12 -30 -3 -54t-56 -24h-189q-31 0 -41 25l-243 559q-5 11 -14 5q-9 -5 -9 -11l-115 -537q-8 -41 -49 -41h-203q-16 0 -26 12t-6 29l288 1352q8 41 50 41h202q16 0 26 -12t7 -29l-100 -471q0 -6 3 -12
t15 5l459 498q20 20 49 21h205z" />
    <glyph glyph-name="kcommaaccent" unicode="&#x137;" 
d="M281 0h-185q-16 0 -26 12t-7 29l293 1372q8 41 50 41h184q16 0 26 -12t7 -29l-148 -702q0 -6 3 -12t16 6l278 292q23 27 55 27h193q31 0 40 -23t-9 -40l-396 -410q-31 -31 -10 -62l277 -421q14 -20 0 -44t-48 -24h-182q-16 0 -24 6l-12 9q-3 3 -6 9t-5 7l-221 354
q-5 10 -14 5q-8 -5 -9 -11l-71 -338q-8 -41 -49 -41z" />
    <glyph glyph-name="kgreenlandic" unicode="&#x138;" 
d="M281 0h-185q-16 0 -26 12t-7 29l293 1372q8 41 50 41h184q16 0 26 -12t7 -29l-148 -702q0 -6 3 -12t16 6l278 292q23 27 55 27h193q31 0 40 -23t-9 -40l-396 -410q-31 -31 -10 -62l277 -421q14 -20 0 -44t-48 -24h-182q-16 0 -24 6l-12 9q-3 3 -6 9t-5 7l-221 354
q-5 10 -14 5q-8 -5 -9 -11l-71 -338q-8 -41 -49 -41z" />
    <glyph glyph-name="Lacute" unicode="&#x139;" 
d="M428 287h553q17 -1 27 -13t6 -28l-45 -205q-8 -41 -49 -41h-820q-16 0 -25 12t-5 29l286 1352q8 41 50 41h204q16 0 26 -12t7 -29l-231 -1086q-4 -20 16 -20z" />
    <glyph glyph-name="lacute" unicode="&#x13a;" 
d="M549 1194h-205q-16 0 -27 12q-10 12 -6 29l39 178q8 41 49 41h459q14 0 22 -10t5 -23l-242 -1134q-4 -20 16 -21h246q15 0 25 -12t6 -29l-39 -184q-8 -41 -49 -41h-778q-16 0 -27 12q-10 12 -6 29l39 184q4 17 19 29t32 12h225q20 0 25 21l188 887q4 20 -16 20z" />
    <glyph glyph-name="Lcommaaccent" unicode="&#x13b;" 
d="M428 287h553q17 -1 27 -13t6 -28l-45 -205q-8 -41 -49 -41h-820q-16 0 -25 12t-5 29l286 1352q8 41 50 41h204q16 0 26 -12t7 -29l-231 -1086q-4 -20 16 -20z" />
    <glyph glyph-name="lcommaaccent" unicode="&#x13c;" 
d="M549 1194h-205q-16 0 -27 12q-10 12 -6 29l39 178q8 41 49 41h459q14 0 22 -10t5 -23l-242 -1134q-4 -20 16 -21h246q15 0 25 -12t6 -29l-39 -184q-8 -41 -49 -41h-778q-16 0 -27 12q-10 12 -6 29l39 184q4 17 19 29t32 12h225q20 0 25 21l188 887q4 20 -16 20z" />
    <glyph glyph-name="Lcaron" unicode="&#x13d;" 
d="M428 287h553q17 -1 27 -13t6 -28l-45 -205q-8 -41 -49 -41h-820q-16 0 -25 12t-5 29l286 1352q8 41 50 41h204q16 0 26 -12t7 -29l-231 -1086q-4 -20 16 -20z" />
    <glyph glyph-name="lcaron" unicode="&#x13e;" 
d="M549 1194h-205q-16 0 -27 12q-10 12 -6 29l39 178q8 41 49 41h459q14 0 22 -10t5 -23l-242 -1134q-4 -20 16 -21h246q15 0 25 -12t6 -29l-39 -184q-8 -41 -49 -41h-778q-16 0 -27 12q-10 12 -6 29l39 184q4 17 19 29t32 12h225q20 0 25 21l188 887q4 20 -16 20z" />
    <glyph glyph-name="Ldot" unicode="&#x13f;" 
d="M428 287h553q17 -1 27 -13t6 -28l-45 -205q-8 -41 -49 -41h-820q-16 0 -25 12t-5 29l286 1352q8 41 50 41h204q16 0 26 -12t7 -29l-231 -1086q-4 -20 16 -20z" />
    <glyph glyph-name="ldot" unicode="&#x140;" 
d="M549 1194h-205q-16 0 -27 12q-10 12 -6 29l39 178q8 41 49 41h459q14 0 22 -10t5 -23l-242 -1134q-4 -20 16 -21h246q15 0 25 -12t6 -29l-39 -184q-8 -41 -49 -41h-778q-16 0 -27 12q-10 12 -6 29l39 184q4 17 19 29t32 12h225q20 0 25 21l188 887q4 20 -16 20z" />
    <glyph glyph-name="Lslash" unicode="&#x141;" 
d="M428 287h553q17 -1 27 -13t6 -28l-45 -205q-8 -41 -49 -41h-820q-16 0 -25 12t-5 29l286 1352q8 41 50 41h204q16 0 26 -12t7 -29l-231 -1086q-4 -20 16 -20z" />
    <glyph glyph-name="lslash" unicode="&#x142;" 
d="M549 1194h-205q-16 0 -27 12q-10 12 -6 29l39 178q8 41 49 41h459q14 0 22 -10t5 -23l-242 -1134q-4 -20 16 -21h246q15 0 25 -12t6 -29l-39 -184q-8 -41 -49 -41h-778q-16 0 -27 12q-10 12 -6 29l39 184q4 17 19 29t32 12h225q20 0 25 21l188 887q4 20 -16 20z" />
    <glyph glyph-name="Nacute" unicode="&#x143;" 
d="M930 1434h205q16 0 26 -12t6 -29l-288 -1352q-8 -41 -50 -41h-221q-43 0 -47 35l-147 719q0 14 -10 8t-9 -12l-151 -709q-8 -41 -49 -41h-205q-16 0 -26 12q-9 12 -5 29l287 1352q8 41 49 41h223q39 0 43 -37l135 -779q0 -14 10 -8t11 13l164 770q8 41 49 41z" />
    <glyph glyph-name="nacute" unicode="&#x144;" 
d="M455 975q23 0 93 36t138 36q162 0 252 -111t55 -270l-133 -625q-8 -41 -49 -41h-184q-16 0 -27 12q-10 12 -6 29l133 627q10 53 -22 87q-33 33 -104 33t-120 -32t-59 -80l-135 -635q-8 -41 -49 -41h-185q-16 0 -26 12t-7 29l201 942q8 41 49 41h103q27 0 43 -24t39 -25z
" />
    <glyph glyph-name="Ncommaaccent" unicode="&#x145;" 
d="M930 1434h205q16 0 26 -12t6 -29l-288 -1352q-8 -41 -50 -41h-221q-43 0 -47 35l-147 719q0 14 -10 8t-9 -12l-151 -709q-8 -41 -49 -41h-205q-16 0 -26 12q-9 12 -5 29l287 1352q8 41 49 41h223q39 0 43 -37l135 -779q0 -14 10 -8t11 13l164 770q8 41 49 41z" />
    <glyph glyph-name="ncommaaccent" unicode="&#x146;" 
d="M455 975q23 0 93 36t138 36q162 0 252 -111t55 -270l-133 -625q-8 -41 -49 -41h-184q-16 0 -27 12q-10 12 -6 29l133 627q10 53 -22 87q-33 33 -104 33t-120 -32t-59 -80l-135 -635q-8 -41 -49 -41h-185q-16 0 -26 12t-7 29l201 942q8 41 49 41h103q27 0 43 -24t39 -25z
" />
    <glyph glyph-name="Ncaron" unicode="&#x147;" 
d="M930 1434h205q16 0 26 -12t6 -29l-288 -1352q-8 -41 -50 -41h-221q-43 0 -47 35l-147 719q0 14 -10 8t-9 -12l-151 -709q-8 -41 -49 -41h-205q-16 0 -26 12q-9 12 -5 29l287 1352q8 41 49 41h223q39 0 43 -37l135 -779q0 -14 10 -8t11 13l164 770q8 41 49 41z" />
    <glyph glyph-name="ncaron" unicode="&#x148;" 
d="M455 975q23 0 93 36t138 36q162 0 252 -111t55 -270l-133 -625q-8 -41 -49 -41h-184q-16 0 -27 12q-10 12 -6 29l133 627q10 53 -22 87q-33 33 -104 33t-120 -32t-59 -80l-135 -635q-8 -41 -49 -41h-185q-16 0 -26 12t-7 29l201 942q8 41 49 41h103q27 0 43 -24t39 -25z
" />
    <glyph glyph-name="napostrophe" unicode="&#x149;" 
d="M455 975q23 0 93 36t138 36q162 0 252 -111t55 -270l-133 -625q-8 -41 -49 -41h-184q-16 0 -27 12q-10 12 -6 29l133 627q10 53 -22 87q-33 33 -104 33t-120 -32t-59 -80l-135 -635q-8 -41 -49 -41h-185q-16 0 -26 12t-7 29l201 942q8 41 49 41h103q27 0 43 -24t39 -25z
" />
    <glyph glyph-name="Eng" unicode="&#x14a;" 
d="M930 1434h205q16 0 26 -12t6 -29l-288 -1352q-8 -41 -50 -41h-221q-43 0 -47 35l-147 719q0 14 -10 8t-9 -12l-151 -709q-8 -41 -49 -41h-205q-16 0 -26 12q-9 12 -5 29l287 1352q8 41 49 41h223q39 0 43 -37l135 -779q0 -14 10 -8t11 13l164 770q8 41 49 41z" />
    <glyph glyph-name="eng" unicode="&#x14b;" 
d="M455 975q23 0 93 36t138 36q162 0 252 -111t55 -270l-133 -625q-8 -41 -49 -41h-184q-16 0 -27 12q-10 12 -6 29l133 627q10 53 -22 87q-33 33 -104 33t-120 -32t-59 -80l-135 -635q-8 -41 -49 -41h-185q-16 0 -26 12t-7 29l201 942q8 41 49 41h103q27 0 43 -24t39 -25z
" />
    <glyph glyph-name="Omacron" unicode="&#x14c;" 
d="M673 1456q216 0 336 -132t101 -320q-29 -295 -121 -574q-69 -211 -195 -332t-348 -121q-222 1 -336 131t-96 322q29 295 121 574q70 212 196 332t342 120zM658 1167q-89 0 -149 -46t-85 -117q-92 -279 -121 -574q-8 -72 33 -118t131 -46q178 0 233 164q92 279 121 574
q8 72 -33 118t-130 45z" />
    <glyph glyph-name="omacron" unicode="&#x14d;" 
d="M659 358q55 160 64 308q4 55 -29 87t-106 31q-139 0 -186 -126t-60 -300q-8 -118 133 -118t184 118zM603 1047q187 0 293 -109q106 -110 94 -272q-13 -162 -67 -325t-163 -263t-297 -100t-294 108q-105 110 -93 272t66 325t164 263t297 101z" />
    <glyph glyph-name="Obreve" unicode="&#x14e;" 
d="M673 1456q216 0 336 -132t101 -320q-29 -295 -121 -574q-69 -211 -195 -332t-348 -121q-222 1 -336 131t-96 322q29 295 121 574q70 212 196 332t342 120zM658 1167q-89 0 -149 -46t-85 -117q-92 -279 -121 -574q-8 -72 33 -118t131 -46q178 0 233 164q92 279 121 574
q8 72 -33 118t-130 45z" />
    <glyph glyph-name="obreve" unicode="&#x14f;" 
d="M659 358q55 160 64 308q4 55 -29 87t-106 31q-139 0 -186 -126t-60 -300q-8 -118 133 -118t184 118zM603 1047q187 0 293 -109q106 -110 94 -272q-13 -162 -67 -325t-163 -263t-297 -100t-294 108q-105 110 -93 272t66 325t164 263t297 101z" />
    <glyph glyph-name="Ohungarumlaut" unicode="&#x150;" 
d="M673 1456q216 0 336 -132t101 -320q-29 -295 -121 -574q-69 -211 -195 -332t-348 -121q-222 1 -336 131t-96 322q29 295 121 574q70 212 196 332t342 120zM658 1167q-89 0 -149 -46t-85 -117q-92 -279 -121 -574q-8 -72 33 -118t131 -46q178 0 233 164q92 279 121 574
q8 72 -33 118t-130 45z" />
    <glyph glyph-name="ohungarumlaut" unicode="&#x151;" 
d="M659 358q55 160 64 308q4 55 -29 87t-106 31q-139 0 -186 -126t-60 -300q-8 -118 133 -118t184 118zM603 1047q187 0 293 -109q106 -110 94 -272q-13 -162 -67 -325t-163 -263t-297 -100t-294 108q-105 110 -93 272t66 325t164 263t297 101z" />
    <glyph glyph-name="OE" unicode="&#x152;" horiz-adv-x="2252" 
d="M2111 860q17 0 27 -12t6 -29l-43 -205q-8 -41 -49 -41h-502q-23 0 -26 -20l-51 -246q-4 -20 16 -20h526q17 -1 27 -13t6 -28l-45 -205q-8 -41 -49 -41h-793q-16 0 -25 12t-6 29l287 1352q8 41 49 41h785q16 0 26 -12t7 -29l-46 -205q-8 -41 -49 -41h-518q-20 -1 -24 -21
l-52 -245q-4 -20 15 -21h501zM673 1456q216 0 336 -132t101 -320q-29 -295 -121 -574q-69 -211 -195 -332t-348 -121q-222 1 -336 131t-96 322q29 295 121 574q70 212 196 332t342 120zM658 1167q-89 0 -149 -46t-85 -117q-92 -279 -121 -574q-8 -72 33 -118t131 -46
q178 0 233 164q92 279 121 574q8 72 -33 118t-130 45z" />
    <glyph glyph-name="oe" unicode="&#x153;" horiz-adv-x="2252" 
d="M1835 657q18 0 25 19q33 129 -148 129q-170 0 -205 -129q-6 -18 17 -19h311zM1589 225q131 0 180 86q18 35 54 35h170q41 0 26 -41q-118 -327 -460 -327q-181 0 -280 106t-87 262t68 324t174 272t300 104q180 0 290 -108q110 -109 71 -297l-37 -170q-10 -41 -49 -41h-526
q-31 0 -37 -31q-18 -82 24 -128t119 -46zM659 358q55 160 64 308q4 55 -29 87t-106 31q-139 0 -186 -126t-60 -300q-8 -118 133 -118t184 118zM603 1047q187 0 293 -109q106 -110 94 -272q-13 -162 -67 -325t-163 -263t-297 -100t-294 108q-105 110 -93 272t66 325t164 263
t297 101z" />
    <glyph glyph-name="Racute" unicode="&#x154;" 
d="M723 1147h-184q-20 0 -25 -21l-51 -245q-4 -20 14 -21h185q72 0 124 49t52 117q0 121 -115 121zM915 0h-194q-37 0 -51 41l-168 506q-6 27 -31 26h-53q-23 0 -27 -20l-108 -512q-8 -41 -50 -41h-204q-16 0 -27 12q-10 12 -6 29l289 1352q8 41 49 41h430q154 0 262 -102
t107 -262q-1 -159 -87 -280t-229 -178q-43 -18 -26 -67l176 -484q8 -25 -6 -43t-46 -18z" />
    <glyph glyph-name="racute" unicode="&#x155;" 
d="M643 793q-162 0 -188 -123l-136 -629q-8 -41 -49 -41h-184q-16 0 -27 12q-10 12 -6 29l201 942q8 41 49 41h103q24 0 42 -24t43 -24t99 36q74 35 160 35q162 1 244 -99t48 -260q-4 -16 -19 -28t-32 -13h-184q-16 0 -26 12q-9 13 -5 29q10 49 -27 77q-38 28 -106 28z" />
    <glyph glyph-name="Rcommaaccent" unicode="&#x156;" 
d="M723 1147h-184q-20 0 -25 -21l-51 -245q-4 -20 14 -21h185q72 0 124 49t52 117q0 121 -115 121zM915 0h-194q-37 0 -51 41l-168 506q-6 27 -31 26h-53q-23 0 -27 -20l-108 -512q-8 -41 -50 -41h-204q-16 0 -27 12q-10 12 -6 29l289 1352q8 41 49 41h430q154 0 262 -102
t107 -262q-1 -159 -87 -280t-229 -178q-43 -18 -26 -67l176 -484q8 -25 -6 -43t-46 -18z" />
    <glyph glyph-name="rcommaaccent" unicode="&#x157;" 
d="M643 793q-162 0 -188 -123l-136 -629q-8 -41 -49 -41h-184q-16 0 -27 12q-10 12 -6 29l201 942q8 41 49 41h103q24 0 42 -24t43 -24t99 36q74 35 160 35q162 1 244 -99t48 -260q-4 -16 -19 -28t-32 -13h-184q-16 0 -26 12q-9 13 -5 29q10 49 -27 77q-38 28 -106 28z" />
    <glyph glyph-name="Rcaron" unicode="&#x158;" 
d="M723 1147h-184q-20 0 -25 -21l-51 -245q-4 -20 14 -21h185q72 0 124 49t52 117q0 121 -115 121zM915 0h-194q-37 0 -51 41l-168 506q-6 27 -31 26h-53q-23 0 -27 -20l-108 -512q-8 -41 -50 -41h-204q-16 0 -27 12q-10 12 -6 29l289 1352q8 41 49 41h430q154 0 262 -102
t107 -262q-1 -159 -87 -280t-229 -178q-43 -18 -26 -67l176 -484q8 -25 -6 -43t-46 -18z" />
    <glyph glyph-name="rcaron" unicode="&#x159;" 
d="M643 793q-162 0 -188 -123l-136 -629q-8 -41 -49 -41h-184q-16 0 -27 12q-10 12 -6 29l201 942q8 41 49 41h103q24 0 42 -24t43 -24t99 36q74 35 160 35q162 1 244 -99t48 -260q-4 -16 -19 -28t-32 -13h-184q-16 0 -26 12q-9 13 -5 29q10 49 -27 77q-38 28 -106 28z" />
    <glyph glyph-name="Sacute" unicode="&#x15a;" 
d="M470 258q93 0 159 53q65 53 65 125t-47 104q-47 34 -153 60q-188 45 -274 139q-85 94 -85 254q0 203 156 333t385 130q178 0 299 -105t120 -252t-65 -147h-207q-16 0 -26 12t-6 29l6 31q14 62 -26 108t-129 46t-147 -44t-59 -110q0 -32 10 -56t42 -41t46 -25t65 -21
q216 -58 308 -150t92 -239q0 -217 -150 -366q-151 -148 -380 -148t-363 116q-133 117 -112 299q18 135 69 135h207q18 0 29 -12q10 -13 4 -29q-37 -97 19 -163t148 -66z" />
    <glyph glyph-name="sacute" unicode="&#x15b;" 
d="M252 377q35 0 45 -11t6 -40q-6 -57 37 -82t126 -25t143 30q61 30 61 70t-24 52t-46 21q-23 9 -78 19q-55 9 -61 9q-309 51 -309 297q0 131 133 230t306 99t293 -88t93 -221q-9 -37 -23 -49t-43 -12h-141q-41 0 -38 49t-38 73q-40 24 -110 24t-123 -28q-53 -26 -53 -77
q0 -63 192 -90q324 -45 324 -279q0 -162 -140 -266t-330 -104t-312 88q-122 89 -97 249q10 61 74 62h133z" />
    <glyph glyph-name="Scircumflex" unicode="&#x15c;" 
d="M470 258q93 0 159 53q65 53 65 125t-47 104q-47 34 -153 60q-188 45 -274 139q-85 94 -85 254q0 203 156 333t385 130q178 0 299 -105t120 -252t-65 -147h-207q-16 0 -26 12t-6 29l6 31q14 62 -26 108t-129 46t-147 -44t-59 -110q0 -32 10 -56t42 -41t46 -25t65 -21
q216 -58 308 -150t92 -239q0 -217 -150 -366q-151 -148 -380 -148t-363 116q-133 117 -112 299q18 135 69 135h207q18 0 29 -12q10 -13 4 -29q-37 -97 19 -163t148 -66z" />
    <glyph glyph-name="scircumflex" unicode="&#x15d;" 
d="M252 377q35 0 45 -11t6 -40q-6 -57 37 -82t126 -25t143 30q61 30 61 70t-24 52t-46 21q-23 9 -78 19q-55 9 -61 9q-309 51 -309 297q0 131 133 230t306 99t293 -88t93 -221q-9 -37 -23 -49t-43 -12h-141q-41 0 -38 49t-38 73q-40 24 -110 24t-123 -28q-53 -26 -53 -77
q0 -63 192 -90q324 -45 324 -279q0 -162 -140 -266t-330 -104t-312 88q-122 89 -97 249q10 61 74 62h133z" />
    <glyph glyph-name="Scedilla" unicode="&#x15e;" 
d="M470 258q93 0 159 53q65 53 65 125t-47 104q-47 34 -153 60q-188 45 -274 139q-85 94 -85 254q0 203 156 333t385 130q178 0 299 -105t120 -252t-65 -147h-207q-16 0 -26 12t-6 29l6 31q14 62 -26 108t-129 46t-147 -44t-59 -110q0 -32 10 -56t42 -41t46 -25t65 -21
q216 -58 308 -150t92 -239q0 -217 -150 -366q-151 -148 -380 -148t-363 116q-133 117 -112 299q18 135 69 135h207q18 0 29 -12q10 -13 4 -29q-37 -97 19 -163t148 -66z" />
    <glyph glyph-name="scedilla" unicode="&#x15f;" 
d="M252 377q35 0 45 -11t6 -40q-6 -57 37 -82t126 -25t143 30q61 30 61 70t-24 52t-46 21q-23 9 -78 19q-55 9 -61 9q-309 51 -309 297q0 131 133 230t306 99t293 -88t93 -221q-9 -37 -23 -49t-43 -12h-141q-41 0 -38 49t-38 73q-40 24 -110 24t-123 -28q-53 -26 -53 -77
q0 -63 192 -90q324 -45 324 -279q0 -162 -140 -266t-330 -104t-312 88q-122 89 -97 249q10 61 74 62h133z" />
    <glyph glyph-name="Scaron" unicode="&#x160;" 
d="M470 258q93 0 159 53q65 53 65 125t-47 104q-47 34 -153 60q-188 45 -274 139q-85 94 -85 254q0 203 156 333t385 130q178 0 299 -105t120 -252t-65 -147h-207q-16 0 -26 12t-6 29l6 31q14 62 -26 108t-129 46t-147 -44t-59 -110q0 -32 10 -56t42 -41t46 -25t65 -21
q216 -58 308 -150t92 -239q0 -217 -150 -366q-151 -148 -380 -148t-363 116q-133 117 -112 299q18 135 69 135h207q18 0 29 -12q10 -13 4 -29q-37 -97 19 -163t148 -66z" />
    <glyph glyph-name="scaron" unicode="&#x161;" 
d="M252 377q35 0 45 -11t6 -40q-6 -57 37 -82t126 -25t143 30q61 30 61 70t-24 52t-46 21q-23 9 -78 19q-55 9 -61 9q-309 51 -309 297q0 131 133 230t306 99t293 -88t93 -221q-9 -37 -23 -49t-43 -12h-141q-41 0 -38 49t-38 73q-40 24 -110 24t-123 -28q-53 -26 -53 -77
q0 -63 192 -90q324 -45 324 -279q0 -162 -140 -266t-330 -104t-312 88q-122 89 -97 249q10 61 74 62h133z" />
    <glyph glyph-name="Tcommaaccent" unicode="&#x162;" 
d="M481 1147h-307q-16 0 -27 12q-10 12 -6 29l45 205q8 41 50 41h921q17 0 27 -12t6 -29l-45 -205q-8 -41 -49 -41h-287q-20 0 -25 -21l-231 -1085q-8 -41 -49 -41h-205q-16 0 -27 12q-10 12 -6 29l232 1085q3 21 -17 21z" />
    <glyph glyph-name="tcommaaccent" unicode="&#x163;" 
d="M795 389h184q17 0 27 -12t6 -29q-37 -166 -154 -268t-288 -102t-275 96q-104 98 -59 303l81 375q4 20 -14 20h-201q-16 0 -26 12t-6 29l34 164q8 41 50 41h200q20 0 25 20l67 314q8 41 50 41h184q16 -1 26 -13t7 -28l-68 -314q-4 -20 17 -20h348q16 0 26 -12t6 -29
l-34 -164q-10 -41 -50 -41h-348q-20 0 -26 -20l-84 -404q-10 -49 18 -77q28 -27 82 -27q53 0 94 28t50 72q9 45 51 45z" />
    <glyph glyph-name="Tcaron" unicode="&#x164;" 
d="M481 1147h-307q-16 0 -27 12q-10 12 -6 29l45 205q8 41 50 41h921q17 0 27 -12t6 -29l-45 -205q-8 -41 -49 -41h-287q-20 0 -25 -21l-231 -1085q-8 -41 -49 -41h-205q-16 0 -27 12q-10 12 -6 29l232 1085q3 21 -17 21z" />
    <glyph glyph-name="tcaron" unicode="&#x165;" 
d="M795 389h184q17 0 27 -12t6 -29q-37 -166 -154 -268t-288 -102t-275 96q-104 98 -59 303l81 375q4 20 -14 20h-201q-16 0 -26 12t-6 29l34 164q8 41 50 41h200q20 0 25 20l67 314q8 41 50 41h184q16 -1 26 -13t7 -28l-68 -314q-4 -20 17 -20h348q16 0 26 -12t6 -29
l-34 -164q-10 -41 -50 -41h-348q-20 0 -26 -20l-84 -404q-10 -49 18 -77q28 -27 82 -27q53 0 94 28t50 72q9 45 51 45z" />
    <glyph glyph-name="Tbar" unicode="&#x166;" 
d="M481 1147h-307q-16 0 -27 12q-10 12 -6 29l45 205q8 41 50 41h921q17 0 27 -12t6 -29l-45 -205q-8 -41 -49 -41h-287q-20 0 -25 -21l-231 -1085q-8 -41 -49 -41h-205q-16 0 -27 12q-10 12 -6 29l232 1085q3 21 -17 21z" />
    <glyph glyph-name="tbar" unicode="&#x167;" 
d="M795 389h184q17 0 27 -12t6 -29q-37 -166 -154 -268t-288 -102t-275 96q-104 98 -59 303l81 375q4 20 -14 20h-201q-16 0 -26 12t-6 29l34 164q8 41 50 41h200q20 0 25 20l67 314q8 41 50 41h184q16 -1 26 -13t7 -28l-68 -314q-4 -20 17 -20h348q16 0 26 -12t6 -29
l-34 -164q-10 -41 -50 -41h-348q-20 0 -26 -20l-84 -404q-10 -49 18 -77q28 -27 82 -27q53 0 94 28t50 72q9 45 51 45z" />
    <glyph glyph-name="Utilde" unicode="&#x168;" 
d="M484 266q93 0 154 46q60 46 75 118l205 963q8 41 49 41h207q16 0 26 -12t6 -29l-205 -963q-43 -199 -181 -326t-355 -127q-217 1 -345 135t-89 318l205 963q8 41 49 41h207q16 0 26 -12t6 -29l-205 -963q-14 -70 29 -117t136 -47z" />
    <glyph glyph-name="utilde" unicode="&#x169;" 
d="M618 49q-22 0 -92 -36t-139 -36q-162 0 -252 111t-55 270l133 625q8 41 49 41h184q16 0 26 -12t7 -29l-133 -627q-10 -53 23 -87q33 -33 103 -33t120 32q49 32 59 80l135 635q8 41 50 41h184q16 0 26 -12t7 -29l-201 -942q-8 -41 -49 -41h-103q-23 0 -43 25
q-16 24 -39 24z" />
    <glyph glyph-name="Umacron" unicode="&#x16a;" 
d="M484 266q93 0 154 46q60 46 75 118l205 963q8 41 49 41h207q16 0 26 -12t6 -29l-205 -963q-43 -199 -181 -326t-355 -127q-217 1 -345 135t-89 318l205 963q8 41 49 41h207q16 0 26 -12t6 -29l-205 -963q-14 -70 29 -117t136 -47z" />
    <glyph glyph-name="umacron" unicode="&#x16b;" 
d="M618 49q-22 0 -92 -36t-139 -36q-162 0 -252 111t-55 270l133 625q8 41 49 41h184q16 0 26 -12t7 -29l-133 -627q-10 -53 23 -87q33 -33 103 -33t120 32q49 32 59 80l135 635q8 41 50 41h184q16 0 26 -12t7 -29l-201 -942q-8 -41 -49 -41h-103q-23 0 -43 25
q-16 24 -39 24z" />
    <glyph glyph-name="Ubreve" unicode="&#x16c;" 
d="M484 266q93 0 154 46q60 46 75 118l205 963q8 41 49 41h207q16 0 26 -12t6 -29l-205 -963q-43 -199 -181 -326t-355 -127q-217 1 -345 135t-89 318l205 963q8 41 49 41h207q16 0 26 -12t6 -29l-205 -963q-14 -70 29 -117t136 -47z" />
    <glyph glyph-name="ubreve" unicode="&#x16d;" 
d="M618 49q-22 0 -92 -36t-139 -36q-162 0 -252 111t-55 270l133 625q8 41 49 41h184q16 0 26 -12t7 -29l-133 -627q-10 -53 23 -87q33 -33 103 -33t120 32q49 32 59 80l135 635q8 41 50 41h184q16 0 26 -12t7 -29l-201 -942q-8 -41 -49 -41h-103q-23 0 -43 25
q-16 24 -39 24z" />
    <glyph glyph-name="Uring" unicode="&#x16e;" 
d="M484 266q93 0 154 46q60 46 75 118l205 963q8 41 49 41h207q16 0 26 -12t6 -29l-205 -963q-43 -199 -181 -326t-355 -127q-217 1 -345 135t-89 318l205 963q8 41 49 41h207q16 0 26 -12t6 -29l-205 -963q-14 -70 29 -117t136 -47z" />
    <glyph glyph-name="uring" unicode="&#x16f;" 
d="M618 49q-22 0 -92 -36t-139 -36q-162 0 -252 111t-55 270l133 625q8 41 49 41h184q16 0 26 -12t7 -29l-133 -627q-10 -53 23 -87q33 -33 103 -33t120 32q49 32 59 80l135 635q8 41 50 41h184q16 0 26 -12t7 -29l-201 -942q-8 -41 -49 -41h-103q-23 0 -43 25
q-16 24 -39 24z" />
    <glyph glyph-name="Uhungarumlaut" unicode="&#x170;" 
d="M484 266q93 0 154 46q60 46 75 118l205 963q8 41 49 41h207q16 0 26 -12t6 -29l-205 -963q-43 -199 -181 -326t-355 -127q-217 1 -345 135t-89 318l205 963q8 41 49 41h207q16 0 26 -12t6 -29l-205 -963q-14 -70 29 -117t136 -47z" />
    <glyph glyph-name="uhungarumlaut" unicode="&#x171;" 
d="M618 49q-22 0 -92 -36t-139 -36q-162 0 -252 111t-55 270l133 625q8 41 49 41h184q16 0 26 -12t7 -29l-133 -627q-10 -53 23 -87q33 -33 103 -33t120 32q49 32 59 80l135 635q8 41 50 41h184q16 0 26 -12t7 -29l-201 -942q-8 -41 -49 -41h-103q-23 0 -43 25
q-16 24 -39 24z" />
    <glyph glyph-name="Uogonek" unicode="&#x172;" 
d="M484 266q93 0 154 46q60 46 75 118l205 963q8 41 49 41h207q16 0 26 -12t6 -29l-205 -963q-43 -199 -181 -326t-355 -127q-217 1 -345 135t-89 318l205 963q8 41 49 41h207q16 0 26 -12t6 -29l-205 -963q-14 -70 29 -117t136 -47z" />
    <glyph glyph-name="uogonek" unicode="&#x173;" 
d="M618 49q-22 0 -92 -36t-139 -36q-162 0 -252 111t-55 270l133 625q8 41 49 41h184q16 0 26 -12t7 -29l-133 -627q-10 -53 23 -87q33 -33 103 -33t120 32q49 32 59 80l135 635q8 41 50 41h184q16 0 26 -12t7 -29l-201 -942q-8 -41 -49 -41h-103q-23 0 -43 25
q-16 24 -39 24z" />
    <glyph glyph-name="Wcircumflex" unicode="&#x174;" 
d="M1040 1434h191q45 0 33 -41l-437 -1362q-8 -31 -45 -31h-241q-33 0 -33 31l8 370q0 9 -10 9t-14 -9l-152 -370q-12 -31 -45 -31h-250q-14 0 -25 8q-10 8 -8 23l146 1362q4 41 49 41h190q37 0 33 -31l-94 -819q-2 -14 10 -15q12 0 19 15l159 409q12 31 45 31h123
q33 0 33 -31l-10 -409q0 -8 6 -12t13 -1q7 4 9 13l252 819q8 31 45 31z" />
    <glyph glyph-name="wcircumflex" unicode="&#x175;" 
d="M512 799h139q31 0 33 -31l10 -307q2 -8 12 -8t13 8l180 532q10 31 47 31h193q23 0 29 -16t-1 -31l-362 -946q-14 -31 -47 -31h-223q-35 0 -31 31l-2 313q0 16 -14 12t-15 -12l-123 -313q-14 -31 -47 -31h-223q-35 0 -31 31l35 946q0 19 13 33t36 14h193q33 0 30 -31
l-45 -532q1 -8 11 -8t14 8l131 307q10 31 45 31z" />
    <glyph glyph-name="Ycircumflex" unicode="&#x176;" 
d="M965 1434h223q20 0 27 -18t-7 -40l-557 -913l-90 -422q-8 -41 -49 -41h-205q-16 0 -26 12t-7 29l91 422l-168 913q-4 23 10 40t35 18h204q27 0 33 -31l88 -567q0 -8 8 -9h5q6 1 12 9l328 567q16 31 45 31z" />
    <glyph glyph-name="ycircumflex" unicode="&#x177;" 
d="M14 -410h-57q-17 0 -27 12t-6 29l35 162q10 41 49 41h78q119 0 174 98l49 88q12 23 8 46l-145 911q-4 15 11 31t38 16h193q31 0 32 -31l74 -581q2 -12 10 -13q8 0 15 13l291 581q14 31 45 31h206q23 0 31 -16t-2 -31l-594 -1086q-164 -301 -508 -301z" />
    <glyph glyph-name="Ydieresis" unicode="&#x178;" 
d="M965 1434h223q20 0 27 -18t-7 -40l-557 -913l-90 -422q-8 -41 -49 -41h-205q-16 0 -26 12t-7 29l91 422l-168 913q-4 23 10 40t35 18h204q27 0 33 -31l88 -567q0 -8 8 -9h5q6 1 12 9l328 567q16 31 45 31z" />
    <glyph glyph-name="Zacute" unicode="&#x179;" 
d="M375 281h538q17 -1 27 -13t6 -28l-43 -199q-8 -41 -49 -41h-856q-16 0 -27 12q-10 12 -6 29l47 223q2 16 17 33l737 836q16 20 -8 20h-486q-16 0 -26 12t-6 29l43 199q8 41 49 41h796q16 0 26 -12t7 -29l-51 -238q-2 -17 -16 -33l-727 -821q-16 -20 8 -20z" />
    <glyph glyph-name="zacute" unicode="&#x17a;" 
d="M645 778h-414q-16 0 -26 12t-6 29l34 164q3 17 19 29t33 12h712q15 0 25 -12t6 -29l-37 -178q-8 -37 -59 -84l-512 -455q-8 -8 -6 -14t12 -6h436q16 0 26 -12t7 -29l-35 -164q-2 -17 -18 -29t-33 -12h-762q-16 0 -25 12t-6 29l33 170q8 38 37 63l565 484q8 8 6 14t-12 6z
" />
    <glyph glyph-name="Zdotaccent" unicode="&#x17b;" 
d="M375 281h538q17 -1 27 -13t6 -28l-43 -199q-8 -41 -49 -41h-856q-16 0 -27 12q-10 12 -6 29l47 223q2 16 17 33l737 836q16 20 -8 20h-486q-16 0 -26 12t-6 29l43 199q8 41 49 41h796q16 0 26 -12t7 -29l-51 -238q-2 -17 -16 -33l-727 -821q-16 -20 8 -20z" />
    <glyph glyph-name="zdotaccent" unicode="&#x17c;" 
d="M645 778h-414q-16 0 -26 12t-6 29l34 164q3 17 19 29t33 12h712q15 0 25 -12t6 -29l-37 -178q-8 -37 -59 -84l-512 -455q-8 -8 -6 -14t12 -6h436q16 0 26 -12t7 -29l-35 -164q-2 -17 -18 -29t-33 -12h-762q-16 0 -25 12t-6 29l33 170q8 38 37 63l565 484q8 8 6 14t-12 6z
" />
    <glyph glyph-name="Zcaron" unicode="&#x17d;" 
d="M375 281h538q17 -1 27 -13t6 -28l-43 -199q-8 -41 -49 -41h-856q-16 0 -27 12q-10 12 -6 29l47 223q2 16 17 33l737 836q16 20 -8 20h-486q-16 0 -26 12t-6 29l43 199q8 41 49 41h796q16 0 26 -12t7 -29l-51 -238q-2 -17 -16 -33l-727 -821q-16 -20 8 -20z" />
    <glyph glyph-name="zcaron" unicode="&#x17e;" 
d="M645 778h-414q-16 0 -26 12t-6 29l34 164q3 17 19 29t33 12h712q15 0 25 -12t6 -29l-37 -178q-8 -37 -59 -84l-512 -455q-8 -8 -6 -14t12 -6h436q16 0 26 -12t7 -29l-35 -164q-2 -17 -18 -29t-33 -12h-762q-16 0 -25 12t-6 29l33 170q8 38 37 63l565 484q8 8 6 14t-12 6z
" />
    <glyph glyph-name="Aringacute" unicode="&#x1fa;" 
d="M444 559h199q20 0 21 23v491q0 8 -9 8h-4q-10 0 -12 -8l-207 -491q-8 -23 12 -23zM139 0h-225q-23 0 -31 13t-2 28l656 1362q14 31 45 31h274q33 0 33 -31l74 -1362q1 -17 -13 -29t-37 -12h-202q-33 0 -33 31l-8 211q0 31 -25 30h-321q-23 1 -37 -30l-103 -211
q-14 -31 -45 -31z" />
    <glyph glyph-name="aringacute" unicode="&#x1fb;" 
d="M666 0q-30 0 -28 41t-17 41q-12 0 -38 -26t-79 -51t-129 -25q-139 0 -238 113q-98 114 -98 288q0 272 141 467t371 194q131 0 201 -94q22 -26 32 -26t19 16l24 59q12 27 31 27h152q16 0 26 -12t6 -29l-202 -942q-8 -41 -49 -41h-125zM694 616q0 162 -137 162
q-127 0 -184 -112t-57 -222q-1 -198 137 -198q84 0 141 64q100 114 100 306z" />
    <glyph glyph-name="AEacute" unicode="&#x1fc;" horiz-adv-x="2252" 
d="M2111 860q17 0 27 -12t6 -29l-43 -205q-8 -41 -49 -41h-502q-23 0 -26 -20l-51 -246q-4 -20 16 -20h526q17 -1 27 -13t6 -28l-45 -205q-8 -41 -49 -41h-793q-16 0 -25 12t-6 29l287 1352q8 41 49 41h785q16 0 26 -12t7 -29l-46 -205q-8 -41 -49 -41h-518q-20 -1 -24 -21
l-52 -245q-4 -20 15 -21h501zM444 559h199q20 0 21 23v491q0 8 -9 8h-4q-10 0 -12 -8l-207 -491q-8 -23 12 -23zM139 0h-225q-23 0 -31 13t-2 28l656 1362q14 31 45 31h274q33 0 33 -31l74 -1362q1 -17 -13 -29t-37 -12h-202q-33 0 -33 31l-8 211q0 31 -25 30h-321
q-23 1 -37 -30l-103 -211q-14 -31 -45 -31z" />
    <glyph glyph-name="aeacute" unicode="&#x1fd;" horiz-adv-x="2252" 
d="M1835 657q18 0 25 19q33 129 -148 129q-170 0 -205 -129q-6 -18 17 -19h311zM1589 225q131 0 180 86q18 35 54 35h170q41 0 26 -41q-118 -327 -460 -327q-181 0 -280 106t-87 262t68 324t174 272t300 104q180 0 290 -108q110 -109 71 -297l-37 -170q-10 -41 -49 -41h-526
q-31 0 -37 -31q-18 -82 24 -128t119 -46zM666 0q-30 0 -28 41t-17 41q-12 0 -38 -26t-79 -51t-129 -25q-139 0 -238 113q-98 114 -98 288q0 272 141 467t371 194q131 0 201 -94q22 -26 32 -26t19 16l24 59q12 27 31 27h152q16 0 26 -12t6 -29l-202 -942q-8 -41 -49 -41h-125
zM694 616q0 162 -137 162q-127 0 -184 -112t-57 -222q-1 -198 137 -198q84 0 141 64q100 114 100 306z" />
    <glyph glyph-name="Oslashacute" unicode="&#x1fe;" 
d="M673 1456q216 0 336 -132t101 -320q-29 -295 -121 -574q-69 -211 -195 -332t-348 -121q-222 1 -336 131t-96 322q29 295 121 574q70 212 196 332t342 120zM658 1167q-89 0 -149 -46t-85 -117q-92 -279 -121 -574q-8 -72 33 -118t131 -46q178 0 233 164q92 279 121 574
q8 72 -33 118t-130 45z" />
    <glyph glyph-name="oslashacute" unicode="&#x1ff;" 
d="M659 358q55 160 64 308q4 55 -29 87t-106 31q-139 0 -186 -126t-60 -300q-8 -118 133 -118t184 118zM603 1047q187 0 293 -109q106 -110 94 -272q-13 -162 -67 -325t-163 -263t-297 -100t-294 108q-105 110 -93 272t66 325t164 263t297 101z" />
    <glyph glyph-name="Scommaaccent" unicode="&#x218;" 
d="M470 258q93 0 159 53q65 53 65 125t-47 104q-47 34 -153 60q-188 45 -274 139q-85 94 -85 254q0 203 156 333t385 130q178 0 299 -105t120 -252t-65 -147h-207q-16 0 -26 12t-6 29l6 31q14 62 -26 108t-129 46t-147 -44t-59 -110q0 -32 10 -56t42 -41t46 -25t65 -21
q216 -58 308 -150t92 -239q0 -217 -150 -366q-151 -148 -380 -148t-363 116q-133 117 -112 299q18 135 69 135h207q18 0 29 -12q10 -13 4 -29q-37 -97 19 -163t148 -66z" />
    <glyph glyph-name="scommaaccent" unicode="&#x219;" 
d="M252 377q35 0 45 -11t6 -40q-6 -57 37 -82t126 -25t143 30q61 30 61 70t-24 52t-46 21q-23 9 -78 19q-55 9 -61 9q-309 51 -309 297q0 131 133 230t306 99t293 -88t93 -221q-9 -37 -23 -49t-43 -12h-141q-41 0 -38 49t-38 73q-40 24 -110 24t-123 -28q-53 -26 -53 -77
q0 -63 192 -90q324 -45 324 -279q0 -162 -140 -266t-330 -104t-312 88q-122 89 -97 249q10 61 74 62h133z" />
    <glyph glyph-name="uni021A" unicode="&#x21a;" 
d="M481 1147h-307q-16 0 -27 12q-10 12 -6 29l45 205q8 41 50 41h921q17 0 27 -12t6 -29l-45 -205q-8 -41 -49 -41h-287q-20 0 -25 -21l-231 -1085q-8 -41 -49 -41h-205q-16 0 -27 12q-10 12 -6 29l232 1085q3 21 -17 21z" />
    <glyph glyph-name="uni021B" unicode="&#x21b;" 
d="M618 49q-22 0 -92 -36t-139 -36q-162 0 -252 111t-55 270l133 625q8 41 49 41h184q16 0 26 -12t7 -29l-133 -627q-10 -53 23 -87q33 -33 103 -33t120 32q49 32 59 80l135 635q8 41 50 41h184q16 0 26 -12t7 -29l-201 -942q-8 -41 -49 -41h-103q-23 0 -43 25
q-16 24 -39 24z" />
    <glyph glyph-name="uni0401" unicode="&#x401;" horiz-adv-x="0" 
 />
    <glyph glyph-name="uni0403" unicode="&#x403;" horiz-adv-x="0" 
 />
    <glyph glyph-name="uni0407" unicode="&#x407;" horiz-adv-x="0" 
 />
    <glyph glyph-name="uni0409" unicode="&#x409;" horiz-adv-x="0" 
 />
    <glyph glyph-name="uni040A" unicode="&#x40a;" horiz-adv-x="0" 
 />
    <glyph glyph-name="uni040C" unicode="&#x40c;" horiz-adv-x="0" 
 />
    <glyph glyph-name="uni040E" unicode="&#x40e;" horiz-adv-x="0" 
 />
    <glyph glyph-name="uni0419" unicode="&#x419;" horiz-adv-x="0" 
 />
    <glyph glyph-name="uni0439" unicode="&#x439;" horiz-adv-x="0" 
 />
    <glyph glyph-name="uni0451" unicode="&#x451;" horiz-adv-x="0" 
 />
    <glyph glyph-name="uni0453" unicode="&#x453;" horiz-adv-x="0" 
 />
    <glyph glyph-name="uni0457" unicode="&#x457;" horiz-adv-x="0" 
 />
    <glyph glyph-name="uni0459" unicode="&#x459;" horiz-adv-x="0" 
 />
    <glyph glyph-name="uni045A" unicode="&#x45a;" horiz-adv-x="0" 
 />
    <glyph glyph-name="uni045C" unicode="&#x45c;" horiz-adv-x="0" 
 />
    <glyph glyph-name="uni045E" unicode="&#x45e;" horiz-adv-x="0" 
 />
    <glyph glyph-name="uni0490" unicode="&#x490;" horiz-adv-x="0" 
 />
    <glyph glyph-name="uni0491" unicode="&#x491;" horiz-adv-x="0" 
 />
    <glyph glyph-name="Wgrave" unicode="&#x1e80;" 
d="M1040 1434h191q45 0 33 -41l-437 -1362q-8 -31 -45 -31h-241q-33 0 -33 31l8 370q0 9 -10 9t-14 -9l-152 -370q-12 -31 -45 -31h-250q-14 0 -25 8q-10 8 -8 23l146 1362q4 41 49 41h190q37 0 33 -31l-94 -819q-2 -14 10 -15q12 0 19 15l159 409q12 31 45 31h123
q33 0 33 -31l-10 -409q0 -8 6 -12t13 -1q7 4 9 13l252 819q8 31 45 31z" />
    <glyph glyph-name="wgrave" unicode="&#x1e81;" 
d="M512 799h139q31 0 33 -31l10 -307q2 -8 12 -8t13 8l180 532q10 31 47 31h193q23 0 29 -16t-1 -31l-362 -946q-14 -31 -47 -31h-223q-35 0 -31 31l-2 313q0 16 -14 12t-15 -12l-123 -313q-14 -31 -47 -31h-223q-35 0 -31 31l35 946q0 19 13 33t36 14h193q33 0 30 -31
l-45 -532q1 -8 11 -8t14 8l131 307q10 31 45 31z" />
    <glyph glyph-name="Wacute" unicode="&#x1e82;" 
d="M1040 1434h191q45 0 33 -41l-437 -1362q-8 -31 -45 -31h-241q-33 0 -33 31l8 370q0 9 -10 9t-14 -9l-152 -370q-12 -31 -45 -31h-250q-14 0 -25 8q-10 8 -8 23l146 1362q4 41 49 41h190q37 0 33 -31l-94 -819q-2 -14 10 -15q12 0 19 15l159 409q12 31 45 31h123
q33 0 33 -31l-10 -409q0 -8 6 -12t13 -1q7 4 9 13l252 819q8 31 45 31z" />
    <glyph glyph-name="wacute" unicode="&#x1e83;" 
d="M512 799h139q31 0 33 -31l10 -307q2 -8 12 -8t13 8l180 532q10 31 47 31h193q23 0 29 -16t-1 -31l-362 -946q-14 -31 -47 -31h-223q-35 0 -31 31l-2 313q0 16 -14 12t-15 -12l-123 -313q-14 -31 -47 -31h-223q-35 0 -31 31l35 946q0 19 13 33t36 14h193q33 0 30 -31
l-45 -532q1 -8 11 -8t14 8l131 307q10 31 45 31z" />
    <glyph glyph-name="Wdieresis" unicode="&#x1e84;" 
d="M1040 1434h191q45 0 33 -41l-437 -1362q-8 -31 -45 -31h-241q-33 0 -33 31l8 370q0 9 -10 9t-14 -9l-152 -370q-12 -31 -45 -31h-250q-14 0 -25 8q-10 8 -8 23l146 1362q4 41 49 41h190q37 0 33 -31l-94 -819q-2 -14 10 -15q12 0 19 15l159 409q12 31 45 31h123
q33 0 33 -31l-10 -409q0 -8 6 -12t13 -1q7 4 9 13l252 819q8 31 45 31z" />
    <glyph glyph-name="wdieresis" unicode="&#x1e85;" 
d="M512 799h139q31 0 33 -31l10 -307q2 -8 12 -8t13 8l180 532q10 31 47 31h193q23 0 29 -16t-1 -31l-362 -946q-14 -31 -47 -31h-223q-35 0 -31 31l-2 313q0 16 -14 12t-15 -12l-123 -313q-14 -31 -47 -31h-223q-35 0 -31 31l35 946q0 19 13 33t36 14h193q33 0 30 -31
l-45 -532q1 -8 11 -8t14 8l131 307q10 31 45 31z" />
    <glyph glyph-name="Ygrave" unicode="&#x1ef2;" 
d="M965 1434h223q20 0 27 -18t-7 -40l-557 -913l-90 -422q-8 -41 -49 -41h-205q-16 0 -26 12t-7 29l91 422l-168 913q-4 23 10 40t35 18h204q27 0 33 -31l88 -567q0 -8 8 -9h5q6 1 12 9l328 567q16 31 45 31z" />
    <glyph glyph-name="ygrave" unicode="&#x1ef3;" 
d="M14 -410h-57q-17 0 -27 12t-6 29l35 162q10 41 49 41h78q119 0 174 98l49 88q12 23 8 46l-145 911q-4 15 11 31t38 16h193q31 0 32 -31l74 -581q2 -12 10 -13q8 0 15 13l291 581q14 31 45 31h206q23 0 31 -16t-2 -31l-594 -1086q-164 -301 -508 -301z" />
    <glyph glyph-name="endash" unicode="&#x2013;" 
d="M313 690h559q16 0 26 -12t7 -29l-43 -203q-8 -41 -49 -40h-559q-16 0 -27 12q-10 12 -6 28l43 203q8 41 49 41z" />
    <glyph glyph-name="emdash" unicode="&#x2014;" 
d="M313 690h559q16 0 26 -12t7 -29l-43 -203q-8 -41 -49 -40h-559q-16 0 -27 12q-10 12 -6 28l43 203q8 41 49 41z" />
    <glyph glyph-name="ff" unicode="&#xfb00;" horiz-adv-x="2252" 
d="M1493 772h-225q-16 0 -27 12q-10 12 -6 29l35 164q4 17 19 29t32 12h225q20 0 25 20l8 41q39 195 139 285t289 90h225q16 0 26 -12t7 -29l-39 -184q-4 -17 -19 -29t-32 -12h-184q-121 0 -146 -113l-8 -37q-4 -20 16 -20h308q16 0 25 -12t5 -29l-34 -164q-8 -41 -50 -41
h-307q-20 0 -24 -20l-152 -711q-8 -41 -49 -41h-184q-16 0 -27 12q-10 12 -6 29l151 711q4 20 -16 20zM367 772h-226q-16 0 -26 12t-6 29l34 164q3 17 19 29t33 12h225q20 0 24 20l9 41q39 195 139 285t289 90h225q16 0 26 -12t7 -29l-39 -184q-4 -17 -20 -29t-31 -12h-185
q-121 0 -145 -113l-8 -37q-4 -20 16 -20h307q16 0 26 -12t5 -29l-35 -164q-8 -41 -49 -41h-307q-20 0 -25 -20l-151 -711q-8 -41 -49 -41h-185q-16 0 -26 12t-7 29l152 711q4 20 -16 20z" />
    <glyph glyph-name="fi" unicode="&#xfb01;" horiz-adv-x="2252" 
d="M1583 764h-205q-16 0 -25 12t-5 29l36 178q8 41 50 41h458q14 0 22 -10t5 -23l-150 -704q-4 -20 17 -21h225q15 0 25 -12t6 -29l-39 -184q-8 -41 -49 -41h-758q-16 0 -27 12q-10 12 -6 29l39 184q4 17 20 29t31 12h226q20 0 24 21l96 456q4 21 -16 21zM1935 1167h-221
q-33 0 -24 33l47 221q8 33 39 33h221q14 0 22 -10t4 -23l-47 -221q-8 -33 -41 -33zM367 772h-226q-16 0 -26 12t-6 29l34 164q3 17 19 29t33 12h225q20 0 24 20l9 41q39 195 139 285t289 90h225q16 0 26 -12t7 -29l-39 -184q-4 -17 -20 -29t-31 -12h-185q-121 0 -145 -113
l-8 -37q-4 -20 16 -20h307q16 0 26 -12t5 -29l-35 -164q-8 -41 -49 -41h-307q-20 0 -25 -20l-151 -711q-8 -41 -49 -41h-185q-16 0 -26 12t-7 29l152 711q4 20 -16 20z" />
  </font>
</defs>
</svg>
