<svg xmlns="http://www.w3.org/2000/svg" width="208" height="99" viewBox="-1 110 208 99">
  <g fill="#0F1568" fill-rule="evenodd">
    <path d="M13.743 179.87c4.446 0 5.928-1.806 5.928-6.926 0-5.872-1.18-7.378-6.07-7.378h-3.26v14.305h3.41zm-9.93-14.304H.108v-1.205h13.635c6.372 0 8.447.46 10.374 2.26 1.63 1.51 2.52 3.77 2.52 6.18 0 2.26-1.038 4.67-2.817 6.03-1.926 1.66-4 2.11-10.077 2.11h-3.41v13.41h4.15v1.21H.11v-1.2h3.705V165.6zm29.492 14.456c-.444 1.054-.592 3.012-.592 6.324 0 3.916.296 5.873 1.037 6.777.74 1.054 1.927 1.656 3.41 1.656 1.777 0 3.11-.76 3.704-2.11.444-1.06.593-3.01.593-6.33 0-3.92-.297-5.72-1.038-6.78-.75-1.06-1.93-1.66-3.41-1.66-1.63 0-2.97.9-3.71 2.11m14.08 6.32c0 5.42-4.6 9.64-10.38 9.64s-10.38-4.22-10.38-9.64c0-5.42 4.59-9.64 10.37-9.64 5.78 0 10.37 4.21 10.37 9.63m10.67-17.46c0 1.8-1.34 3.16-3.11 3.16-1.63 0-3.12-1.36-3.12-3.16 0-1.66 1.33-3.17 3.11-3.17 1.78.15 3.11 1.5 3.11 3.16m-5.34 9.48h-3.1v-1.21h1.48c3.55 0 5.04-.15 7.26-.45v17.77h2.97v1.2H49.6v-1.206h3.114v-16.11m13.19 0H62.79v-1.207h1.483c3.555 0 5.037-.15 7.26-.45v3.46c1.78-2.26 4.15-3.317 7.114-3.317 1.63 0 3.26.6 4.3 1.503 1.034 1.05 1.33 1.95 1.33 4.67v11.74h3.12v1.2H76.283v-1.21h2.52V183c0-3.167-.593-4.22-2.372-4.22-1.63 0-3.4 1.203-4.29 3.01-.44 1.053-.59 1.655-.59 3.914v9.03h2.38v1.204H62.8v-1.202h3.112v-16.41zm21.636 0v-.755c3.26-1.65 5.632-4.51 7.262-8.43h1.184v8.13h3.853v1.21h-3.85v13.1c0 1.66.44 2.41 1.48 2.41 1.18 0 1.78-.75 2.37-3.01l1.33.3c-.74 3.315-2.82 4.97-5.93 4.97-3.26 0-4.75-1.505-4.75-4.67v-13.1h-2.96v-.15zm28.307 3.762h-1.187c-.444-2.41-2.52-4.22-5.335-4.22-1.928 0-3.113 1.06-3.113 2.56 0 1.06.89 1.96 2.67 2.41 2.52.6 4.15 1.21 5.04 1.66 2.073.9 3.26 2.56 3.26 4.817 0 3.92-2.965 6.78-6.82 6.78-1.777 0-3.26-.45-4.593-1.35-.45-.3-.6-.3-.89-.3-.45 0-.74.3-.74 1.2h-1.19v-6.78h1.18c.29 3.465 2.96 6.025 6.07 6.025 2.37 0 4-1.205 4-2.86 0-.75-.45-1.507-1.19-1.96-.74-.45-.89-.45-3.26-1.05-1.49-.45-2.97-.9-3.71-1.2-1.78-.75-2.97-2.71-2.97-4.67 0-3.46 2.66-6.02 5.93-6.02 1.18 0 2.22.3 3.7.903.59.3.89.3 1.04.3.44 0 .59-.3.74-1.2h1.18v4.97h.15zm36.31-9.038h-1.187c-1.038-5.876-3.41-8.285-8.448-8.285-2.668 0-4.89 1.06-5.93 3.02-.89 1.805-1.333 5.12-1.333 11.29 0 1.808.15 4.67.29 8.585.15 3.46.59 5.27 1.78 6.173.89.753 2.37 1.204 3.85 1.204 3.26 0 5.63-1.96 5.63-4.67v-5.42h-4.6v-1.205H156v1.204h-2.8v5.42c-1.63 1.808-2.52 2.56-3.853 3.31-2.37 1.508-5.483 2.56-8.002 2.56-8.152 0-13.93-6.624-13.93-15.96 0-9.635 6.37-16.86 14.82-16.86 2.518 0 4.89.75 7.112 2.26l1.334-1.507h1.19v8.885h.3zm19.86 19.27c-2.225 2.71-4 3.767-6.967 3.767-3.853 0-5.335-1.81-5.335-6.78v-10.99h-3.113v-1.21h1.48c3.557 0 5.04-.15 7.262-.45v13.85c0 2.86.444 3.616 2.222 3.616 1.333 0 2.963-1.05 3.853-2.41.59-1.05.74-1.806.74-4.065v-9.18h-3.12v-1.204h1.48c3.55 0 5.04-.15 7.26-.45v17.77h3.11v1.207h-8.59v-3.47h-.3z"/>
    <path d="M182.545 178.365h-2.223v-1.204h10.67v1.21h-2.223l4.59 10.39 3.26-8.28c.29-.75.29-1.05.29-1.35 0-.75-.3-.9-1.49-.9h-1.48v-1.2h7.85v1.21h-1.04c-1.78 0-2.23.3-2.82 1.81l-8.89 21.99c-1.19 2.86-1.63 3.77-2.37 4.67-.89.91-1.78 1.51-2.96 1.51-1.78 0-2.97-1.2-2.97-2.71 0-1.35 1.03-2.41 2.52-2.41.89 0 1.77.46 2.37 1.51.15.3.29.45.59.45.44 0 1.03-1.05 2.07-3.46l2.22-6.02-8.01-17.17zM162.24 138.16l-36.16-24.094S119.56 110 113.334 110l22.23 28.16h26.677zm-8.89 7.53s-16.896 7.528-19.564 7.528h-3.408l5.187-7.53h17.784zm-54.095-7.23s-10.077-8.733-10.967-8.733h-4l4 9.938M9.15 148.85c.295.453.443.904.443 1.356 0 2.41-1.778 4.217-3.557 4.217-1.037 0-1.63-.904-1.63-1.808 0-3.463 4.594-6.475 8.448-6.475 1.037 0 2.074.15 3.112.302 1.037.15 2.075.3 3.112.3.593 0 1.186-.3 1.63-.752l.148.15c-.444 1.054-1.482 1.506-2.667 1.506-1.04 0-2.08-.15-3.12-.3-1.04-.152-2.23-.302-3.41-.302-3.26 0-7.12 2.41-7.12 5.42 0 .904.74 1.657 1.48 1.657 1.63 0 3.41-2.56 3.41-4.06 0-.3-.15-.9-.45-1.2h.15zm7.853-.6c-4.89.6-7.558 11.744-14.227 11.744-1.186 0-2.37-.452-2.37-1.656 0-.452.295-.904.888-.904.444 0 .89.3.89.753 0 .452-.297.753-.742.753-.148 0-.296 0-.296.15 0 .302.74.603 1.778.603 5.335 0 7.262-11.143 14.227-11.746v.302h-.14zm-.443 5.27c2.073-.905 7.557-4.217 7.557-6.175 0-.452-.148-.602-.593-.602-.89 0-3.705 3.313-6.965 6.776zm-2.224 1.354c5.335-5.873 8.002-8.282 9.484-8.282.445 0 .593.3.593.753 0 1.958-4.446 4.97-8.3 6.626l-1.777 1.96c.89-.6 2.37-1.95 3.408-1.95.593 0 1.038.46 1.038 1.06 0 1.51-3.113 3.77-3.113 4.52 0 .15.14.3.29.3.59 0 1.78-.9 4.44-3.31v.31c-1.93 1.96-3.56 3.31-4.45 3.31-.45 0-.74-.3-.74-.9 0-1.35 3.11-3.76 3.11-4.36 0-.3-.3-.6-.59-.6-1.19 0-4 2.26-6.52 5.42H9.89l4.446-4.81zm10.818-.754c-.74 0-1.63.905-3.557 3.164 1.927 0 4.002-1.807 4.002-2.71 0-.302-.15-.453-.45-.453zm1.63 2.712c-.74.602-4 3.162-5.928 3.162-.592 0-1.185-.3-1.185-.903 0-2.1 3.56-5.27 5.64-5.27.45 0 .89.3.89.91 0 1.81-3.26 2.71-4.59 2.71-1.03 1.21-1.33 1.66-1.33 1.96 0 .45.45.45.74.45 2.08 0 6.38-3.76 5.78-3.16v.15z"/>
    <path d="M26.636 156.68c.15-.15 18.97-19.725 85.513-19.725h80.47s6.67-.603 12.45 5.27c1.63 1.657-2.23 1.958-6.08 1.958h-88.18c-12.75-.3-62.4-5.27-84.03 12.498"/>
  </g>
</svg>