<svg xmlns="http://www.w3.org/2000/svg" width="24" height="23">
  <path fill="#0F1568" fill-rule="evenodd" d="M11.97 22.742c-.04.003-.08.005-.12.005-1.39 0-2.285-.643-3.15-1.265-.595-.43-1.158-.834-1.822-.947-.324-.054-.646-.082-.957-.082-.56 0-1 .088-1.32.153-.19.04-.36.072-.49.072s-.28-.03-.34-.25c-.05-.19-.09-.375-.13-.554-.1-.46-.17-.743-.36-.772-2.21-.348-2.84-.82-2.98-1.157-.02-.048-.03-.096-.03-.144-.01-.12.08-.24.21-.26 3.396-.57 4.918-4.1 4.98-4.25.215-.44.255-.81.128-1.12-.233-.56-.993-.8-1.495-.96l-.33-.11c-1.005-.4-1.09-.82-1.05-1.03.063-.36.54-.61.92-.61.103 0 .195.02.273.06.45.22.86.33 1.21.33.487 0 .7-.21.725-.232l-.042-.73c-.1-1.633-.23-3.662.28-4.82C7.58.57 10.808.3 11.76.3l.418-.003c1.01 0 4.245.27 5.768 3.744.508 1.16.382 3.19.28 4.83l-.003.07c-.013.23-.027.45-.038.66.024.03.22.22.66.24.333-.01.717-.12 1.14-.32.123-.06.26-.07.353-.07.143 0 .287.03.407.08.35.13.572.37.577.62.003.24-.176.6-1.057.96-.09.04-.208.08-.33.12-.505.16-1.264.407-1.497.966-.127.307-.087.68.12 1.107.07.165 1.59 3.695 4.987 4.264.125.02.215.134.208.263-.002.05-.013.1-.034.143-.14.33-.77.806-2.98 1.15-.18.03-.25.27-.36.77-.04.18-.08.36-.14.55-.05.167-.15.24-.32.24-.15 0-.31-.02-.52-.06-.38-.076-.8-.145-1.33-.145-.32 0-.64.028-.96.08-.66.115-1.23.52-1.82.948-.87.627-1.76 1.27-3.16 1.27-.06 0-.12 0-.18-.004z"/>
</svg>