<svg width="43" height="48" xmlns="http://www.w3.org/2000/svg"><path d="M29.102 43.903c-.36-.024-.725-.024-1.08-.077-.455-.066-1.063.042-1.2-.57-.122-.545.324-.894.73-1.147 1.46-.92 2.167-2.2 2.062-3.93-.037-.62-.098-1.32-.52-1.7-1.49-1.38-1.926-3.29-2.75-5.01-.283-.59-.6-.71-1.118-.39-1.026.63-2.088 1.19-3.248 1.55-.594.18-.802.64-.76 1.21.242 3.25-.8 6.26-1.725 9.29-.257.85-.413 1.707-.49 2.595-.126 1.42-.784 1.894-2.177 1.72-.954-.116-1.913-.183-2.863-.31-.355-.05-.724-.19-.814-.616-.11-.46.17-.755.51-1 .06-.045.13-.1.2-.123 1.91-.528 2.04-1.984 2.05-3.648 0-2.12.43-4.23 0-6.358-.21-1.01-2.64-2.59-3.61-2.25-.56.194-.45.683-.49 1.11-.16 1.993-.37 3.99-.47 5.99-.08 1.654-1.08 2.993-1.44 4.55-.1.43-.544.715-1.015.75-1.04.075-2.09.16-3.11-.1-1.03-.26-1.18-.897-.385-1.63.558-.52 2.74-6.68 1.78-9.38-.44-1.23-.643-2.567-.724-3.9-.02-.356-.04-.767-.223-1.05C4.41 26.62 5 23.445 5.063 20.355c.03-1.33-.23-2.252-1.66-2.572-1.26-.28-1.705-1.335-1.88-2.413-.27-1.613-.564-3.246-.19-4.902.083-.376.1-.84-.04-1.184C.343 7.012.105 4.61.07 2.152.057 1.432.018.732.746.372 1.454.02 2.193.212 2.796.65c.916.663 1.668 1.494 2.213 2.506.96 1.79 2.41 2.562 4.35 2.13 1.21-.267 1.97-1.29 2.75-2.2.61-.728 1.05-1.613 2-2.028 1.09-.473 1.97-.244 2.33.887.74 2.325.59 4.657-.32 6.93-.12.294-.33.57-.38.874-.18.98 1.68 4.34 2.55 4.85 1.5.89 2.96 1.14 4.76.71 3.08-.73 6.25-.96 9.39.03.93.29 1.95.11 2.86.74 1.15.8 1.12 2.17 1.83 3.18 1.34 1.89 1.7 4.19 2.41 6.35 1.12 3.41 1.71 6.91 2.17 10.45.334 2.58.64 5.17.882 7.76.153 1.63-.05 1.79-1.7 1.77-.44-.007-.88-.03-1.313-.097-.924-.136-1.234-.574-.82-1.508.886-2.008.57-4.03-.203-5.96-.61-1.53-1.32-3.016-1.83-4.586-.47-1.453-1.683-2.32-2.754-3.27-.41-.375-.95-.26-1.15.337-.39 1.14-.72 2.25-.35 3.52.317 1.087.47 2.237.23 3.42-.24 1.17-.34 2.38-.424 3.58-.164 2.29-.947 3.01-3.18 2.85z" fill="#00FFC6" fill-rule="evenodd"/></svg>