<svg xmlns="http://www.w3.org/2000/svg" width="25" height="21">
  <path fill="#0F1568" fill-rule="evenodd" d="M7.71 20c-2.84 0-5.484-.833-7.71-2.26.394.046.794.07 1.2.07 2.357 0 4.526-.804 6.247-2.153-2.2-.04-4.06-1.495-4.7-3.494.308.06.624.09.948.09.46 0 .903-.06 1.325-.176C2.72 11.615.985 9.582.985 7.145V7.08c.678.378 1.454.604 2.28.63-1.35-.902-2.24-2.44-2.24-4.187 0-.92.25-1.786.682-2.528C4.187 4.038 7.895 6.04 12.075 6.25c-.085-.368-.13-.752-.13-1.146 0-2.778 2.252-5.03 5.03-5.03 1.448 0 2.755.61 3.673 1.588 1.145-.225 2.222-.644 3.194-1.22-.376 1.174-1.173 2.16-2.212 2.783 1.018-.122 1.987-.392 2.89-.792-.675 1.008-1.528 1.894-2.51 2.604.01.215.014.432.014.65C22.024 12.335 16.964 20 7.71 20"/>
</svg>