<svg width="20" height="20" xmlns="http://www.w3.org/2000/svg">
  <path d="M17.5 0h-15C1.12 0 0 1.12 0 2.5v15C0 18.88 1.12 20 2.5 20h15c1.38 0 2.5-1.12 2.5-2.5v-15C20 1.12 18.88 0 17.5 0zM6.148 9.585c.004-.04.012-.078.018-.117.013-.096.027-.193.047-.287l.033-.122c.022-.09.046-.18.074-.266l.044-.12c.032-.085.064-.17.1-.25l.018-.044h.004C7.1 7.048 8.44 6.126 10 6.126c1.56 0 2.9.922 3.514 2.25h.004l.017.042c.037.082.07.166.1.25.016.04.032.08.045.122.03.087.052.176.074.266.01.042.024.082.033.125.02.097.034.194.047.29.006.04.014.078.018.117.015.137.023.275.023.415 0 2.14-1.735 3.876-3.875 3.876-2.14 0-3.875-1.735-3.875-3.875 0-.14.008-.277.023-.414zM17.75 16.75c0 .552-.448 1-1 1H3.25c-.552 0-1-.448-1-1V8.375h1.843c-.142.518-.218 1.063-.218 1.625 0 3.383 2.742 6.125 6.125 6.125s6.125-2.742 6.125-6.125c0-.563-.076-1.107-.218-1.625h1.843v8.375zm0-11.5c0 .552-.448 1-1 1h-2c-.552 0-1-.448-1-1v-2c0-.552.448-1 1-1h2c.552 0 1 .447 1 1v2z" fill="#0F1568" fill-rule="evenodd"/>
</svg>