<svg version="1.1" id="Layer_1" xmlns="http://www.w3.org/2000/svg" xmlns:xlink="http://www.w3.org/1999/xlink" x="0px" y="0px" viewBox="0 0 100.3 45.6" style="enable-background:new 0 0 100.3 45.6;" xml:space="preserve">
	<g>
		<path class="st0" d="M9.2,34.9H0L6.8,0H16L9.2,34.9z"/>
		<path class="st0" d="M14.2,24.5c0-7.5,5.5-13.4,14.4-13.4c7,0,12.6,3.5,12.6,11.1c0,7.5-5.5,13.4-14.4,13.4C19.8,35.6,14.2,32.1,14.2,24.5z
			 M32.1,22.9c0-2.7-1.9-3.7-3.9-3.7c-3.2,0-4.7,2.5-4.7,4.7c0,2.7,1.9,3.7,3.9,3.7C30.5,27.6,32.1,25.1,32.1,22.9z"/>
		<path class="st0" d="M73.1,11.9l-4.3,21.7c-1.6,8.2-6.4,12-15.3,12c-3.8,0-7.8-0.6-11.2-1.8l2.7-7.3c3.4,1.2,5.9,1.8,8.5,1.8
			c3.6,0,5.5-1.4,6.2-4.6l0.3-1.7h-0.1c-1.9,2.4-4.5,3.7-7.6,3.7c-5.8,0-9.4-4.2-9.4-10.9c0-8.1,5.1-13.6,12.5-13.6
			c3.8,0,6.4,1.4,7.7,4.2h0.1l0.6-3.4H73.1z M61.2,22.9c0-2.3-1.5-3.7-3.9-3.7c-2.7,0-4.7,2-4.7,4.7c0,2.3,1.5,3.7,3.9,3.7
			C59.3,27.6,61.2,25.5,61.2,22.9z"/>
		<path class="st0" d="M73.3,24.5c0-7.5,5.5-13.4,14.4-13.4c7,0,12.6,3.5,12.6,11.1c0,7.5-5.5,13.4-14.4,13.4C78.9,35.6,73.3,32.1,73.3,24.5z
			 M91.2,22.9c0-2.7-1.9-3.7-3.9-3.7c-3.2,0-4.7,2.5-4.7,4.7c0,2.7,1.9,3.7,3.9,3.7C89.6,27.6,91.2,25.1,91.2,22.9z"/>
	</g>
</svg>
