<?xml version="1.0" encoding="utf-8"?>
<!-- Generator: Adobe Illustrator 20.0.0, SVG Export Plug-In . SVG Version: 6.00 Build 0)  -->
<svg version="1.1" id="Layer_1" xmlns="http://www.w3.org/2000/svg" xmlns:xlink="http://www.w3.org/1999/xlink" x="0px" y="0px"
	 viewBox="0 0 138.6 65.2" style="enable-background:new 0 0 138.6 65.2;" xml:space="preserve">
<style type="text/css">
	.st0{fill:#FFFFFF;}
</style>
<g>
	<g>
		<g>
			<g>
				<path class="st0" d="M2.5,36.9H0v-0.8h9.2c4.3,0,5.7,0.3,7,1.5c1.1,1,1.7,2.5,1.7,4.1c0,1.5-0.7,3.1-1.9,4
					c-1.3,1.1-2.7,1.4-6.8,1.4H6.9V56h2.8v0.8H0V56h2.5V36.9z M9.2,46.4c3,0,4-1.2,4-4.6c0-3.9-0.8-4.9-4.1-4.9H6.9v9.5H9.2z"/>
				<path class="st0" d="M31.9,50.7c0,3.6-3.1,6.4-7,6.4s-7-2.8-7-6.4s3.1-6.4,7-6.4S31.9,47.1,31.9,50.7z M22.4,46.5
					c-0.3,0.7-0.4,2-0.4,4.2c0,2.6,0.2,3.9,0.7,4.5c0.5,0.7,1.3,1.1,2.3,1.1c1.2,0,2.1-0.5,2.5-1.4c0.3-0.7,0.4-2,0.4-4.2
					c0-2.6-0.2-3.8-0.7-4.5s-1.3-1.1-2.3-1.1C23.8,45.1,22.9,45.7,22.4,46.5z"/>
				<path class="st0" d="M35.5,45.4h-2.1v-0.8h1c2.4,0,3.4-0.1,4.9-0.3v11.8h2v0.8h-7.9v-0.8h2.1C35.5,56.1,35.5,45.4,35.5,45.4z
					 M39.1,39.1c0,1.2-0.9,2.1-2.1,2.1c-1.1,0-2.1-0.9-2.1-2.1c0-1.1,0.9-2.1,2.1-2.1C38.2,37.1,39.1,38,39.1,39.1z"/>
				<path class="st0" d="M44.4,45.4h-2.1v-0.8h1c2.4,0,3.4-0.1,4.9-0.3v2.3c1.2-1.5,2.8-2.2,4.8-2.2c1.1,0,2.2,0.4,2.9,1
					c0.7,0.7,0.9,1.3,0.9,3.1v7.8h2.1v0.8h-7.5v-0.8h1.7v-7.8c0-2.1-0.4-2.8-1.6-2.8c-1.1,0-2.3,0.8-2.9,2c-0.3,0.7-0.4,1.1-0.4,2.6
					v6h1.6v0.8h-7.5v-0.8h2.1V45.4z"/>
				<path class="st0" d="M59,45.4v-0.5c2.2-1.1,3.8-3,4.9-5.6h0.8v5.4h2.6v0.8h-2.6v8.7c0,1.1,0.3,1.6,1,1.6c0.8,0,1.2-0.5,1.6-2
					l0.9,0.2c-0.5,2.2-1.9,3.3-4,3.3c-2.2,0-3.2-1-3.2-3.1v-8.7h-2V45.4z"/>
				<path class="st0" d="M78.1,47.9h-0.8c-0.3-1.6-1.7-2.8-3.6-2.8c-1.3,0-2.1,0.7-2.1,1.7c0,0.7,0.6,1.3,1.8,1.6
					c1.7,0.4,2.8,0.8,3.4,1.1c1.4,0.6,2.2,1.7,2.2,3.2c0,2.6-2,4.5-4.6,4.5c-1.2,0-2.2-0.3-3.1-0.9c-0.3-0.2-0.4-0.2-0.6-0.2
					c-0.3,0-0.5,0.2-0.5,0.8h-0.8v-4.5h0.8c0.2,2.3,2,4,4.1,4c1.6,0,2.7-0.8,2.7-1.9c0-0.5-0.3-1-0.8-1.3s-0.6-0.3-2.2-0.7
					c-1-0.3-2-0.6-2.5-0.8c-1.2-0.5-2-1.8-2-3.1c0-2.3,1.8-4,4-4c0.8,0,1.5,0.2,2.5,0.6c0.4,0.2,0.6,0.2,0.7,0.2
					c0.3,0,0.4-0.2,0.5-0.8H78L78.1,47.9L78.1,47.9z"/>
				<path class="st0" d="M102.6,41.9h-0.8c-0.7-3.9-2.3-5.5-5.7-5.5c-1.8,0-3.3,0.7-4,2c-0.6,1.2-0.9,3.4-0.9,7.5
					c0,1.2,0.1,3.1,0.2,5.7c0.1,2.3,0.4,3.5,1.2,4.1c0.6,0.5,1.6,0.8,2.6,0.8c2.2,0,3.8-1.3,3.8-3.1v-3.6h-3.1V49h9.3v0.8h-1.9v3.6
					c-1.1,1.2-1.7,1.7-2.6,2.2c-1.6,1-3.7,1.7-5.4,1.7c-5.5,0-9.4-4.4-9.4-10.6c0-6.4,4.3-11.2,10-11.2c1.7,0,3.3,0.5,4.8,1.5l0.9-1
					h0.8v5.9H102.6z"/>
				<path class="st0" d="M116,54.7c-1.5,1.8-2.7,2.5-4.7,2.5c-2.6,0-3.6-1.2-3.6-4.5v-7.3h-2.1v-0.8h1c2.4,0,3.4-0.1,4.9-0.3v9.2
					c0,1.9,0.3,2.4,1.5,2.4c0.9,0,2-0.7,2.6-1.6c0.4-0.7,0.5-1.2,0.5-2.7v-6.1H114v-0.8h1c2.4,0,3.4-0.1,4.9-0.3v11.8h2.1V57h-5.8
					v-2.3H116z"/>
				<path class="st0" d="M123.1,45.4h-1.5v-0.8h7.2v0.8h-1.5l3.1,6.9l2.2-5.5c0.2-0.5,0.2-0.7,0.2-0.9c0-0.5-0.2-0.6-1-0.6h-1v-0.8
					h5.3v0.8h-0.7c-1.2,0-1.5,0.2-1.9,1.2l-6,14.6c-0.8,1.9-1.1,2.5-1.6,3.1c-0.6,0.6-1.2,1-2,1c-1.2,0-2-0.8-2-1.8
					c0-0.9,0.7-1.6,1.7-1.6c0.6,0,1.2,0.3,1.6,1c0.1,0.2,0.2,0.3,0.4,0.3c0.3,0,0.7-0.7,1.4-2.3l1.5-4L123.1,45.4z"/>
			</g>
		</g>
		<g>
			<path class="st0" d="M17.9,31c0.1-0.1,12.8-13.1,57.7-13.1c51.2,0,54.3,0,54.3,0s4.5-0.4,8.4,3.5c1.1,1.1-1.5,1.3-4.1,1.3
				c-13.7,0-57.3,0-59.5,0C66.1,22.5,32.6,19.2,17.9,31"/>
			<g>
				<path class="st0" d="M109.4,18.7L85,2.7c0,0-4.4-2.7-8.6-2.7l15,18.7H109.4z"/>
				<path class="st0" d="M103.4,23.7c0,0-11.4,5-13.2,5c-1.9,0-2.3,0-2.3,0l3.5-5H103.4z"/>
				<path class="st0" d="M66.9,18.9c0,0-6.8-5.8-7.4-5.8c-2.7,0-2.7,0-2.7,0l2.7,6.6"/>
			</g>
		</g>
		<g>
			<path class="st0" d="M11.4,25.4c-3.3,0.4-5.1,7.8-9.6,7.8c-0.8,0-1.6-0.3-1.6-1.1c0-0.3,0.2-0.6,0.6-0.6c0.3,0,0.6,0.2,0.6,0.5
				s-0.2,0.5-0.5,0.5c-0.1,0-0.2,0-0.2,0.1c0,0.2,0.5,0.4,1.2,0.4c3.6,0,4.9-7.4,9.6-7.8v0.2H11.4z M6.1,25.8
				c0.2,0.3,0.3,0.6,0.3,0.9c0,1.6-1.2,2.8-2.4,2.8c-0.7,0-1.1-0.6-1.1-1.2C2.9,26,6,24,8.6,24c0.7,0,1.4,0.1,2.1,0.2
				c0.7,0.1,1.4,0.2,2.1,0.2c0.4,0,0.8-0.2,1.1-0.5L14,24c-0.3,0.7-1,1-1.8,1c-0.7,0-1.4-0.1-2.1-0.2c-0.7-0.1-1.5-0.2-2.3-0.2
				c-2.2,0-4.8,1.6-4.8,3.6c0,0.6,0.5,1.1,1,1.1c1.1,0,2.3-1.7,2.3-2.7C6.3,26.4,6.2,26,6.1,25.8L6.1,25.8z"/>
			<path class="st0" d="M9.6,29.8c3.6-3.9,5.4-5.5,6.4-5.5c0.3,0,0.4,0.2,0.4,0.5c0,1.3-3,3.3-5.6,4.4l-1.2,1.3l0,0
				c0.6-0.4,1.6-1.3,2.3-1.3c0.4,0,0.7,0.3,0.7,0.7c0,1-2.1,2.5-2.1,3c0,0.1,0.1,0.2,0.2,0.2c0.4,0,1.2-0.6,3-2.2v0.2
				c-1.3,1.3-2.4,2.2-3,2.2c-0.3,0-0.5-0.2-0.5-0.6c0-0.9,2.1-2.5,2.1-2.9c0-0.2-0.2-0.4-0.4-0.4c-0.8,0-2.7,1.5-4.4,3.6H6.6
				L9.6,29.8z M11.1,28.9c1.4-0.6,5.1-2.8,5.1-4.1c0-0.3-0.1-0.4-0.4-0.4C15.2,24.4,13.3,26.6,11.1,28.9L11.1,28.9z"/>
			<path class="st0" d="M18,31.1c-0.5,0.4-2.7,2.1-4,2.1c-0.4,0-0.8-0.2-0.8-0.6c0-1.4,2.4-3.5,3.8-3.5c0.3,0,0.6,0.2,0.6,0.6
				c0,1.2-2.2,1.8-3.1,1.8c-0.7,0.8-0.9,1.1-0.9,1.3c0,0.3,0.3,0.3,0.5,0.3C15.5,33.1,18.4,30.6,18,31.1L18,31.1z M16.9,29.3
				c-0.5,0-1.1,0.6-2.4,2.1c1.3,0,2.7-1.2,2.7-1.8C17.2,29.4,17.1,29.3,16.9,29.3z"/>
		</g>
	</g>
</g>
</svg>
